<svg xmlns="http://www.w3.org/2000/svg" width="1400" height="520" viewBox="0 0 1400 520">
<rect width="1400" height="520" fill="#ffffff"/>
<text x="700.0" y="28.0" font-size="16" font-weight="bold" text-anchor="middle" fill="#2c3e50" font-family="Arial,sans-serif">Static Line Regulation — Analog DC2DC  Vout=1.2V  [PWM]  Iload=5mA</text>
<line x1="78.0" y1="68.0" x2="78.0" y2="440.0" stroke="#999" stroke-width="1"/>
<line x1="73.0" y1="440.0" x2="78.0" y2="440.0" stroke="#999" stroke-width="1"/>
<line x1="78.0" y1="440.0" x2="1100.0" y2="440.0" stroke="#e8e8e8" stroke-width="0.7" stroke-dasharray="4,3"/>
<text x="70.0" y="444.0" font-size="9" font-weight="normal" text-anchor="end" fill="#888" font-family="Arial,sans-serif">1.18</text>
<line x1="73.0" y1="365.6" x2="78.0" y2="365.6" stroke="#999" stroke-width="1"/>
<line x1="78.0" y1="365.6" x2="1100.0" y2="365.6" stroke="#e8e8e8" stroke-width="0.7" stroke-dasharray="4,3"/>
<text x="70.0" y="369.6" font-size="9" font-weight="normal" text-anchor="end" fill="#888" font-family="Arial,sans-serif">1.18</text>
<line x1="73.0" y1="291.2" x2="78.0" y2="291.2" stroke="#999" stroke-width="1"/>
<line x1="78.0" y1="291.2" x2="1100.0" y2="291.2" stroke="#e8e8e8" stroke-width="0.7" stroke-dasharray="4,3"/>
<text x="70.0" y="295.2" font-size="9" font-weight="normal" text-anchor="end" fill="#888" font-family="Arial,sans-serif">1.19</text>
<line x1="73.0" y1="216.8" x2="78.0" y2="216.8" stroke="#999" stroke-width="1"/>
<line x1="78.0" y1="216.8" x2="1100.0" y2="216.8" stroke="#e8e8e8" stroke-width="0.7" stroke-dasharray="4,3"/>
<text x="70.0" y="220.8" font-size="9" font-weight="normal" text-anchor="end" fill="#888" font-family="Arial,sans-serif">1.2</text>
<line x1="73.0" y1="142.4" x2="78.0" y2="142.4" stroke="#999" stroke-width="1"/>
<line x1="78.0" y1="142.4" x2="1100.0" y2="142.4" stroke="#e8e8e8" stroke-width="0.7" stroke-dasharray="4,3"/>
<text x="70.0" y="146.4" font-size="9" font-weight="normal" text-anchor="end" fill="#888" font-family="Arial,sans-serif">1.2</text>
<line x1="73.0" y1="68.0" x2="78.0" y2="68.0" stroke="#999" stroke-width="1"/>
<line x1="78.0" y1="68.0" x2="1100.0" y2="68.0" stroke="#e8e8e8" stroke-width="0.7" stroke-dasharray="4,3"/>
<text x="70.0" y="72.0" font-size="9" font-weight="normal" text-anchor="end" fill="#888" font-family="Arial,sans-serif">1.21</text>
<line x1="78.0" y1="440.0" x2="1100.0" y2="440.0" stroke="#999" stroke-width="1"/>
<line x1="78.0" y1="440.0" x2="78.0" y2="445.0" stroke="#999" stroke-width="1"/>
<line x1="78.0" y1="68.0" x2="78.0" y2="440.0" stroke="#e8e8e8" stroke-width="0.7" stroke-dasharray="4,3"/>
<text x="78.0" y="456.0" font-size="9" font-weight="normal" text-anchor="middle" fill="#888" font-family="Arial,sans-serif">2.45</text>
<line x1="224.0" y1="440.0" x2="224.0" y2="445.0" stroke="#999" stroke-width="1"/>
<line x1="224.0" y1="68.0" x2="224.0" y2="440.0" stroke="#e8e8e8" stroke-width="0.7" stroke-dasharray="4,3"/>
<text x="224.0" y="456.0" font-size="9" font-weight="normal" text-anchor="middle" fill="#888" font-family="Arial,sans-serif">2.62</text>
<line x1="370.0" y1="440.0" x2="370.0" y2="445.0" stroke="#999" stroke-width="1"/>
<line x1="370.0" y1="68.0" x2="370.0" y2="440.0" stroke="#e8e8e8" stroke-width="0.7" stroke-dasharray="4,3"/>
<text x="370.0" y="456.0" font-size="9" font-weight="normal" text-anchor="middle" fill="#888" font-family="Arial,sans-serif">2.79</text>
<line x1="516.0" y1="440.0" x2="516.0" y2="445.0" stroke="#999" stroke-width="1"/>
<line x1="516.0" y1="68.0" x2="516.0" y2="440.0" stroke="#e8e8e8" stroke-width="0.7" stroke-dasharray="4,3"/>
<text x="516.0" y="456.0" font-size="9" font-weight="normal" text-anchor="middle" fill="#888" font-family="Arial,sans-serif">2.96</text>
<line x1="662.0" y1="440.0" x2="662.0" y2="445.0" stroke="#999" stroke-width="1"/>
<line x1="662.0" y1="68.0" x2="662.0" y2="440.0" stroke="#e8e8e8" stroke-width="0.7" stroke-dasharray="4,3"/>
<text x="662.0" y="456.0" font-size="9" font-weight="normal" text-anchor="middle" fill="#888" font-family="Arial,sans-serif">3.13</text>
<line x1="808.0" y1="440.0" x2="808.0" y2="445.0" stroke="#999" stroke-width="1"/>
<line x1="808.0" y1="68.0" x2="808.0" y2="440.0" stroke="#e8e8e8" stroke-width="0.7" stroke-dasharray="4,3"/>
<text x="808.0" y="456.0" font-size="9" font-weight="normal" text-anchor="middle" fill="#888" font-family="Arial,sans-serif">3.3</text>
<line x1="954.0" y1="440.0" x2="954.0" y2="445.0" stroke="#999" stroke-width="1"/>
<line x1="954.0" y1="68.0" x2="954.0" y2="440.0" stroke="#e8e8e8" stroke-width="0.7" stroke-dasharray="4,3"/>
<text x="954.0" y="456.0" font-size="9" font-weight="normal" text-anchor="middle" fill="#888" font-family="Arial,sans-serif">3.46</text>
<line x1="1100.0" y1="440.0" x2="1100.0" y2="445.0" stroke="#999" stroke-width="1"/>
<line x1="1100.0" y1="68.0" x2="1100.0" y2="440.0" stroke="#e8e8e8" stroke-width="0.7" stroke-dasharray="4,3"/>
<text x="1100.0" y="456.0" font-size="9" font-weight="normal" text-anchor="middle" fill="#888" font-family="Arial,sans-serif">3.63</text>
<text x="16.0" y="254.0" font-size="11" font-weight="normal" text-anchor="middle" fill="#555" font-family="Arial,sans-serif" transform="rotate(-90,16,254.0)">Output Voltage  Vout [V]</text>
<text x="589.0" y="510.0" font-size="11" font-weight="normal" text-anchor="middle" fill="#555" font-family="Arial,sans-serif">Input Voltage  Vin [V]</text>
<g class="series pmic-series" data-mode="PWM" data-chip="21988" data-temp="0" data-reg="DC2DC_ANA">
<path d="M 124.5,200.6 L 150.2,197.8 L 176.0,195.1 L 201.9,193.7 L 227.7,197.8 L 253.5,193.7 L 279.2,197.8 L 305.0,199.2 L 330.8,195.1 L 356.9,193.7 L 382.5,192.3 L 408.4,193.7 L 434.1,189.6 L 459.9,195.1 L 485.6,196.4 L 511.7,193.7 L 537.4,197.8 L 563.2,195.1 L 589.0,197.8 L 614.8,196.4 L 640.6,197.8 L 666.5,197.8 L 692.4,192.3 L 744.0,200.6 L 769.6,197.8 L 795.5,199.2 L 821.4,197.8 L 847.2,196.4 L 872.9,195.1 L 898.7,195.1 L 924.5,197.8 L 950.2,196.4 L 976.2,196.4 L 1001.9,199.2 L 1027.8,195.1 L 1053.5,191.0" fill="none" stroke="#3498db" stroke-width="2.2" stroke-linejoin="round" opacity="0.9"/>
<circle cx="124.5" cy="200.6" r="4" fill="#3498db" stroke="white" opacity="1.0"/>
<circle cx="150.2" cy="197.8" r="4" fill="#3498db" stroke="white" opacity="1.0"/>
<circle cx="176.0" cy="195.1" r="4" fill="#3498db" stroke="white" opacity="1.0"/>
<circle cx="201.9" cy="193.7" r="4" fill="#3498db" stroke="white" opacity="1.0"/>
<circle cx="227.7" cy="197.8" r="4" fill="#3498db" stroke="white" opacity="1.0"/>
<circle cx="253.5" cy="193.7" r="4" fill="#3498db" stroke="white" opacity="1.0"/>
<circle cx="279.2" cy="197.8" r="4" fill="#3498db" stroke="white" opacity="1.0"/>
<circle cx="305.0" cy="199.2" r="4" fill="#3498db" stroke="white" opacity="1.0"/>
<circle cx="330.8" cy="195.1" r="4" fill="#3498db" stroke="white" opacity="1.0"/>
<circle cx="356.9" cy="193.7" r="4" fill="#3498db" stroke="white" opacity="1.0"/>
<circle cx="382.5" cy="192.3" r="4" fill="#3498db" stroke="white" opacity="1.0"/>
<circle cx="408.4" cy="193.7" r="4" fill="#3498db" stroke="white" opacity="1.0"/>
<circle cx="434.1" cy="189.6" r="4" fill="#3498db" stroke="white" opacity="1.0"/>
<circle cx="459.9" cy="195.1" r="4" fill="#3498db" stroke="white" opacity="1.0"/>
<circle cx="485.6" cy="196.4" r="4" fill="#3498db" stroke="white" opacity="1.0"/>
<circle cx="511.7" cy="193.7" r="4" fill="#3498db" stroke="white" opacity="1.0"/>
<circle cx="537.4" cy="197.8" r="4" fill="#3498db" stroke="white" opacity="1.0"/>
<circle cx="563.2" cy="195.1" r="4" fill="#3498db" stroke="white" opacity="1.0"/>
<circle cx="589.0" cy="197.8" r="4" fill="#3498db" stroke="white" opacity="1.0"/>
<circle cx="614.8" cy="196.4" r="4" fill="#3498db" stroke="white" opacity="1.0"/>
<circle cx="640.6" cy="197.8" r="4" fill="#3498db" stroke="white" opacity="1.0"/>
<circle cx="666.5" cy="197.8" r="4" fill="#3498db" stroke="white" opacity="1.0"/>
<circle cx="692.4" cy="192.3" r="4" fill="#3498db" stroke="white" opacity="1.0"/>
<circle cx="744.0" cy="200.6" r="4" fill="#3498db" stroke="white" opacity="1.0"/>
<circle cx="769.6" cy="197.8" r="4" fill="#3498db" stroke="white" opacity="1.0"/>
<circle cx="795.5" cy="199.2" r="4" fill="#3498db" stroke="white" opacity="1.0"/>
<circle cx="821.4" cy="197.8" r="4" fill="#3498db" stroke="white" opacity="1.0"/>
<circle cx="847.2" cy="196.4" r="4" fill="#3498db" stroke="white" opacity="1.0"/>
<circle cx="872.9" cy="195.1" r="4" fill="#3498db" stroke="white" opacity="1.0"/>
<circle cx="898.7" cy="195.1" r="4" fill="#3498db" stroke="white" opacity="1.0"/>
<circle cx="924.5" cy="197.8" r="4" fill="#3498db" stroke="white" opacity="1.0"/>
<circle cx="950.2" cy="196.4" r="4" fill="#3498db" stroke="white" opacity="1.0"/>
<circle cx="976.2" cy="196.4" r="4" fill="#3498db" stroke="white" opacity="1.0"/>
<circle cx="1001.9" cy="199.2" r="4" fill="#3498db" stroke="white" opacity="1.0"/>
<circle cx="1027.8" cy="195.1" r="4" fill="#3498db" stroke="white" opacity="1.0"/>
<circle cx="1053.5" cy="191.0" r="4" fill="#3498db" stroke="white" opacity="1.0"/>
</g>
<g class="series pmic-series" data-mode="PWM" data-chip="21988" data-temp="25" data-reg="DC2DC_ANA">
<path d="M 124.5,219.7 L 150.2,221.1 L 176.0,219.7 L 201.9,225.2 L 227.7,221.1 L 253.5,222.5 L 279.2,222.5 L 305.0,219.7 L 330.8,226.6 L 356.8,222.5 L 382.6,221.1 L 408.4,226.6 L 434.1,223.8 L 459.9,215.6 L 485.6,218.4 L 511.7,221.1 L 537.4,221.1 L 563.2,223.8 L 589.0,230.7 L 614.8,226.6 L 640.6,218.4 L 666.5,218.4 L 692.4,219.7 L 718.2,221.1 L 744.0,218.4 L 769.6,221.1 L 795.5,219.7 L 821.4,210.1 L 847.2,217.0 L 872.9,212.9 L 898.7,215.6 L 924.5,212.9 L 950.2,212.9 L 976.2,210.1 L 1001.9,207.4 L 1027.8,211.5 L 1053.5,212.9" fill="none" stroke="#e67e22" stroke-width="2.2" stroke-linejoin="round" opacity="0.9"/>
<circle cx="124.5" cy="219.7" r="4" fill="#e67e22" stroke="white" opacity="1.0"/>
<circle cx="150.2" cy="221.1" r="4" fill="#e67e22" stroke="white" opacity="1.0"/>
<circle cx="176.0" cy="219.7" r="4" fill="#e67e22" stroke="white" opacity="1.0"/>
<circle cx="201.9" cy="225.2" r="4" fill="#e67e22" stroke="white" opacity="1.0"/>
<circle cx="227.7" cy="221.1" r="4" fill="#e67e22" stroke="white" opacity="1.0"/>
<circle cx="253.5" cy="222.5" r="4" fill="#e67e22" stroke="white" opacity="1.0"/>
<circle cx="279.2" cy="222.5" r="4" fill="#e67e22" stroke="white" opacity="1.0"/>
<circle cx="305.0" cy="219.7" r="4" fill="#e67e22" stroke="white" opacity="1.0"/>
<circle cx="330.8" cy="226.6" r="4" fill="#e67e22" stroke="white" opacity="1.0"/>
<circle cx="356.8" cy="222.5" r="4" fill="#e67e22" stroke="white" opacity="1.0"/>
<circle cx="382.6" cy="221.1" r="4" fill="#e67e22" stroke="white" opacity="1.0"/>
<circle cx="408.4" cy="226.6" r="4" fill="#e67e22" stroke="white" opacity="1.0"/>
<circle cx="434.1" cy="223.8" r="4" fill="#e67e22" stroke="white" opacity="1.0"/>
<circle cx="459.9" cy="215.6" r="4" fill="#e67e22" stroke="white" opacity="1.0"/>
<circle cx="485.6" cy="218.4" r="4" fill="#e67e22" stroke="white" opacity="1.0"/>
<circle cx="511.7" cy="221.1" r="4" fill="#e67e22" stroke="white" opacity="1.0"/>
<circle cx="537.4" cy="221.1" r="4" fill="#e67e22" stroke="white" opacity="1.0"/>
<circle cx="563.2" cy="223.8" r="4" fill="#e67e22" stroke="white" opacity="1.0"/>
<circle cx="589.0" cy="230.7" r="4" fill="#e67e22" stroke="white" opacity="1.0"/>
<circle cx="614.8" cy="226.6" r="4" fill="#e67e22" stroke="white" opacity="1.0"/>
<circle cx="640.6" cy="218.4" r="4" fill="#e67e22" stroke="white" opacity="1.0"/>
<circle cx="666.5" cy="218.4" r="4" fill="#e67e22" stroke="white" opacity="1.0"/>
<circle cx="692.4" cy="219.7" r="4" fill="#e67e22" stroke="white" opacity="1.0"/>
<circle cx="718.2" cy="221.1" r="4" fill="#e67e22" stroke="white" opacity="1.0"/>
<circle cx="744.0" cy="218.4" r="4" fill="#e67e22" stroke="white" opacity="1.0"/>
<circle cx="769.6" cy="221.1" r="4" fill="#e67e22" stroke="white" opacity="1.0"/>
<circle cx="795.5" cy="219.7" r="4" fill="#e67e22" stroke="white" opacity="1.0"/>
<circle cx="821.4" cy="210.1" r="4" fill="#e67e22" stroke="white" opacity="1.0"/>
<circle cx="847.2" cy="217.0" r="4" fill="#e67e22" stroke="white" opacity="1.0"/>
<circle cx="872.9" cy="212.9" r="4" fill="#e67e22" stroke="white" opacity="1.0"/>
<circle cx="898.7" cy="215.6" r="4" fill="#e67e22" stroke="white" opacity="1.0"/>
<circle cx="924.5" cy="212.9" r="4" fill="#e67e22" stroke="white" opacity="1.0"/>
<circle cx="950.2" cy="212.9" r="4" fill="#e67e22" stroke="white" opacity="1.0"/>
<circle cx="976.2" cy="210.1" r="4" fill="#e67e22" stroke="white" opacity="1.0"/>
<circle cx="1001.9" cy="207.4" r="4" fill="#e67e22" stroke="white" opacity="1.0"/>
<circle cx="1027.8" cy="211.5" r="4" fill="#e67e22" stroke="white" opacity="1.0"/>
<circle cx="1053.5" cy="212.9" r="4" fill="#e67e22" stroke="white" opacity="1.0"/>
</g>
<g class="series pmic-series" data-mode="PWM" data-chip="21988" data-temp="80" data-reg="DC2DC_ANA">
<path d="M 124.5,177.3 L 150.2,173.1 L 176.0,171.8 L 201.9,177.3 L 227.7,170.4 L 253.5,175.9 L 279.3,178.6 L 305.0,173.1 L 330.8,173.1 L 356.8,175.9 L 382.6,174.5 L 408.3,180.0 L 434.1,171.8 L 459.9,178.6 L 485.6,180.0 L 511.7,181.4 L 537.4,175.9 L 563.2,178.6 L 589.0,177.3 L 614.8,175.9 L 640.6,180.0 L 666.5,173.1 L 692.4,178.6 L 718.2,177.3 L 744.0,178.6 L 769.6,173.1 L 795.4,174.5 L 821.4,180.0 L 847.2,175.9 L 872.9,175.9 L 898.7,170.4 L 924.5,171.8 L 950.2,174.5 L 976.2,169.0 L 1001.9,177.3 L 1027.8,175.9 L 1053.5,171.8" fill="none" stroke="#2ecc71" stroke-width="2.2" stroke-linejoin="round" opacity="0.9"/>
<circle cx="124.5" cy="177.3" r="4" fill="#2ecc71" stroke="white" opacity="1.0"/>
<circle cx="150.2" cy="173.1" r="4" fill="#2ecc71" stroke="white" opacity="1.0"/>
<circle cx="176.0" cy="171.8" r="4" fill="#2ecc71" stroke="white" opacity="1.0"/>
<circle cx="201.9" cy="177.3" r="4" fill="#2ecc71" stroke="white" opacity="1.0"/>
<circle cx="227.7" cy="170.4" r="4" fill="#2ecc71" stroke="white" opacity="1.0"/>
<circle cx="253.5" cy="175.9" r="4" fill="#2ecc71" stroke="white" opacity="1.0"/>
<circle cx="279.3" cy="178.6" r="4" fill="#2ecc71" stroke="white" opacity="1.0"/>
<circle cx="305.0" cy="173.1" r="4" fill="#2ecc71" stroke="white" opacity="1.0"/>
<circle cx="330.8" cy="173.1" r="4" fill="#2ecc71" stroke="white" opacity="1.0"/>
<circle cx="356.8" cy="175.9" r="4" fill="#2ecc71" stroke="white" opacity="1.0"/>
<circle cx="382.6" cy="174.5" r="4" fill="#2ecc71" stroke="white" opacity="1.0"/>
<circle cx="408.3" cy="180.0" r="4" fill="#2ecc71" stroke="white" opacity="1.0"/>
<circle cx="434.1" cy="171.8" r="4" fill="#2ecc71" stroke="white" opacity="1.0"/>
<circle cx="459.9" cy="178.6" r="4" fill="#2ecc71" stroke="white" opacity="1.0"/>
<circle cx="485.6" cy="180.0" r="4" fill="#2ecc71" stroke="white" opacity="1.0"/>
<circle cx="511.7" cy="181.4" r="4" fill="#2ecc71" stroke="white" opacity="1.0"/>
<circle cx="537.4" cy="175.9" r="4" fill="#2ecc71" stroke="white" opacity="1.0"/>
<circle cx="563.2" cy="178.6" r="4" fill="#2ecc71" stroke="white" opacity="1.0"/>
<circle cx="589.0" cy="177.3" r="4" fill="#2ecc71" stroke="white" opacity="1.0"/>
<circle cx="614.8" cy="175.9" r="4" fill="#2ecc71" stroke="white" opacity="1.0"/>
<circle cx="640.6" cy="180.0" r="4" fill="#2ecc71" stroke="white" opacity="1.0"/>
<circle cx="666.5" cy="173.1" r="4" fill="#2ecc71" stroke="white" opacity="1.0"/>
<circle cx="692.4" cy="178.6" r="4" fill="#2ecc71" stroke="white" opacity="1.0"/>
<circle cx="718.2" cy="177.3" r="4" fill="#2ecc71" stroke="white" opacity="1.0"/>
<circle cx="744.0" cy="178.6" r="4" fill="#2ecc71" stroke="white" opacity="1.0"/>
<circle cx="769.6" cy="173.1" r="4" fill="#2ecc71" stroke="white" opacity="1.0"/>
<circle cx="795.4" cy="174.5" r="4" fill="#2ecc71" stroke="white" opacity="1.0"/>
<circle cx="821.4" cy="180.0" r="4" fill="#2ecc71" stroke="white" opacity="1.0"/>
<circle cx="847.2" cy="175.9" r="4" fill="#2ecc71" stroke="white" opacity="1.0"/>
<circle cx="872.9" cy="175.9" r="4" fill="#2ecc71" stroke="white" opacity="1.0"/>
<circle cx="898.7" cy="170.4" r="4" fill="#2ecc71" stroke="white" opacity="1.0"/>
<circle cx="924.5" cy="171.8" r="4" fill="#2ecc71" stroke="white" opacity="1.0"/>
<circle cx="950.2" cy="174.5" r="4" fill="#2ecc71" stroke="white" opacity="1.0"/>
<circle cx="976.2" cy="169.0" r="4" fill="#2ecc71" stroke="white" opacity="1.0"/>
<circle cx="1001.9" cy="177.3" r="4" fill="#2ecc71" stroke="white" opacity="1.0"/>
<circle cx="1027.8" cy="175.9" r="4" fill="#2ecc71" stroke="white" opacity="1.0"/>
<circle cx="1053.5" cy="171.8" r="4" fill="#2ecc71" stroke="white" opacity="1.0"/>
</g>
<g class="series pmic-series" data-mode="PWM" data-chip="31927" data-temp="0" data-reg="DC2DC_ANA">
<path d="M 124.5,97.8 L 150.2,104.6 L 176.0,104.6 L 201.9,111.5 L 227.7,111.5 L 253.5,111.5 L 279.2,97.8 L 305.0,110.1 L 330.8,96.4 L 356.8,100.5 L 382.6,99.1 L 408.3,97.8 L 434.1,97.8 L 459.9,111.5 L 485.6,104.6 L 511.6,108.7 L 537.4,104.6 L 563.2,104.6 L 589.0,97.8 L 614.8,100.5 L 640.6,107.4 L 666.5,108.7 L 692.4,97.8 L 718.1,103.2 L 744.0,106.0 L 769.6,97.8 L 795.4,96.4 L 821.4,99.1 L 847.2,103.2 L 872.8,104.6 L 898.6,99.1 L 924.5,100.5 L 950.2,101.9 L 976.2,96.4 L 1001.9,93.7 L 1027.8,100.5 L 1053.5,104.6" fill="none" stroke="#9b59b6" stroke-width="2.2" stroke-linejoin="round" opacity="0.9"/>
<circle cx="124.5" cy="97.8" r="4" fill="#9b59b6" stroke="white" opacity="1.0"/>
<circle cx="150.2" cy="104.6" r="4" fill="#9b59b6" stroke="white" opacity="1.0"/>
<circle cx="176.0" cy="104.6" r="4" fill="#9b59b6" stroke="white" opacity="1.0"/>
<circle cx="201.9" cy="111.5" r="4" fill="#9b59b6" stroke="white" opacity="1.0"/>
<circle cx="227.7" cy="111.5" r="4" fill="#9b59b6" stroke="white" opacity="1.0"/>
<circle cx="253.5" cy="111.5" r="4" fill="#9b59b6" stroke="white" opacity="1.0"/>
<circle cx="279.2" cy="97.8" r="4" fill="#9b59b6" stroke="white" opacity="1.0"/>
<circle cx="305.0" cy="110.1" r="4" fill="#9b59b6" stroke="white" opacity="1.0"/>
<circle cx="330.8" cy="96.4" r="4" fill="#9b59b6" stroke="white" opacity="1.0"/>
<circle cx="356.8" cy="100.5" r="4" fill="#9b59b6" stroke="white" opacity="1.0"/>
<circle cx="382.6" cy="99.1" r="4" fill="#9b59b6" stroke="white" opacity="1.0"/>
<circle cx="408.3" cy="97.8" r="4" fill="#9b59b6" stroke="white" opacity="1.0"/>
<circle cx="434.1" cy="97.8" r="4" fill="#9b59b6" stroke="white" opacity="1.0"/>
<circle cx="459.9" cy="111.5" r="4" fill="#9b59b6" stroke="white" opacity="1.0"/>
<circle cx="485.6" cy="104.6" r="4" fill="#9b59b6" stroke="white" opacity="1.0"/>
<circle cx="511.6" cy="108.7" r="4" fill="#9b59b6" stroke="white" opacity="1.0"/>
<circle cx="537.4" cy="104.6" r="4" fill="#9b59b6" stroke="white" opacity="1.0"/>
<circle cx="563.2" cy="104.6" r="4" fill="#9b59b6" stroke="white" opacity="1.0"/>
<circle cx="589.0" cy="97.8" r="4" fill="#9b59b6" stroke="white" opacity="1.0"/>
<circle cx="614.8" cy="100.5" r="4" fill="#9b59b6" stroke="white" opacity="1.0"/>
<circle cx="640.6" cy="107.4" r="4" fill="#9b59b6" stroke="white" opacity="1.0"/>
<circle cx="666.5" cy="108.7" r="4" fill="#9b59b6" stroke="white" opacity="1.0"/>
<circle cx="692.4" cy="97.8" r="4" fill="#9b59b6" stroke="white" opacity="1.0"/>
<circle cx="718.1" cy="103.2" r="4" fill="#9b59b6" stroke="white" opacity="1.0"/>
<circle cx="744.0" cy="106.0" r="4" fill="#9b59b6" stroke="white" opacity="1.0"/>
<circle cx="769.6" cy="97.8" r="4" fill="#9b59b6" stroke="white" opacity="1.0"/>
<circle cx="795.4" cy="96.4" r="4" fill="#9b59b6" stroke="white" opacity="1.0"/>
<circle cx="821.4" cy="99.1" r="4" fill="#9b59b6" stroke="white" opacity="1.0"/>
<circle cx="847.2" cy="103.2" r="4" fill="#9b59b6" stroke="white" opacity="1.0"/>
<circle cx="872.8" cy="104.6" r="4" fill="#9b59b6" stroke="white" opacity="1.0"/>
<circle cx="898.6" cy="99.1" r="4" fill="#9b59b6" stroke="white" opacity="1.0"/>
<circle cx="924.5" cy="100.5" r="4" fill="#9b59b6" stroke="white" opacity="1.0"/>
<circle cx="950.2" cy="101.9" r="4" fill="#9b59b6" stroke="white" opacity="1.0"/>
<circle cx="976.2" cy="96.4" r="4" fill="#9b59b6" stroke="white" opacity="1.0"/>
<circle cx="1001.9" cy="93.7" r="4" fill="#9b59b6" stroke="white" opacity="1.0"/>
<circle cx="1027.8" cy="100.5" r="4" fill="#9b59b6" stroke="white" opacity="1.0"/>
<circle cx="1053.5" cy="104.6" r="4" fill="#9b59b6" stroke="white" opacity="1.0"/>
</g>
<g class="series pmic-series" data-mode="PWM" data-chip="31927" data-temp="25" data-reg="DC2DC_ANA">
<path d="M 124.5,310.2 L 150.2,312.9 L 176.0,314.3 L 201.9,310.2 L 227.7,314.3 L 253.5,317.0 L 279.2,312.9 L 305.0,311.6 L 330.8,310.2 L 356.8,314.3 L 382.5,314.3 L 408.3,307.4 L 434.0,319.8 L 459.9,318.4 L 485.6,310.2 L 511.6,312.9 L 537.3,317.0 L 563.2,315.7 L 589.0,317.0 L 614.8,321.2 L 640.6,315.7 L 666.5,322.5 L 692.4,318.4 L 718.1,322.5 L 744.0,311.6 L 769.5,310.2 L 795.4,321.2 L 821.3,311.6 L 847.2,322.5 L 872.8,321.2 L 898.6,321.2 L 924.5,312.9 L 950.2,311.6 L 976.1,317.0 L 1001.9,311.6 L 1027.8,321.2 L 1053.5,315.7" fill="none" stroke="#1abc9c" stroke-width="2.2" stroke-linejoin="round" opacity="0.9"/>
<circle cx="124.5" cy="310.2" r="4" fill="#1abc9c" stroke="white" opacity="1.0"/>
<circle cx="150.2" cy="312.9" r="4" fill="#1abc9c" stroke="white" opacity="1.0"/>
<circle cx="176.0" cy="314.3" r="4" fill="#1abc9c" stroke="white" opacity="1.0"/>
<circle cx="201.9" cy="310.2" r="4" fill="#1abc9c" stroke="white" opacity="1.0"/>
<circle cx="227.7" cy="314.3" r="4" fill="#1abc9c" stroke="white" opacity="1.0"/>
<circle cx="253.5" cy="317.0" r="4" fill="#1abc9c" stroke="white" opacity="1.0"/>
<circle cx="279.2" cy="312.9" r="4" fill="#1abc9c" stroke="white" opacity="1.0"/>
<circle cx="305.0" cy="311.6" r="4" fill="#1abc9c" stroke="white" opacity="1.0"/>
<circle cx="330.8" cy="310.2" r="4" fill="#1abc9c" stroke="white" opacity="1.0"/>
<circle cx="356.8" cy="314.3" r="4" fill="#1abc9c" stroke="white" opacity="1.0"/>
<circle cx="382.5" cy="314.3" r="4" fill="#1abc9c" stroke="white" opacity="1.0"/>
<circle cx="408.3" cy="307.4" r="4" fill="#1abc9c" stroke="white" opacity="1.0"/>
<circle cx="434.0" cy="319.8" r="4" fill="#1abc9c" stroke="white" opacity="1.0"/>
<circle cx="459.9" cy="318.4" r="4" fill="#1abc9c" stroke="white" opacity="1.0"/>
<circle cx="485.6" cy="310.2" r="4" fill="#1abc9c" stroke="white" opacity="1.0"/>
<circle cx="511.6" cy="312.9" r="4" fill="#1abc9c" stroke="white" opacity="1.0"/>
<circle cx="537.3" cy="317.0" r="4" fill="#1abc9c" stroke="white" opacity="1.0"/>
<circle cx="563.2" cy="315.7" r="4" fill="#1abc9c" stroke="white" opacity="1.0"/>
<circle cx="589.0" cy="317.0" r="4" fill="#1abc9c" stroke="white" opacity="1.0"/>
<circle cx="614.8" cy="321.2" r="4" fill="#1abc9c" stroke="white" opacity="1.0"/>
<circle cx="640.6" cy="315.7" r="4" fill="#1abc9c" stroke="white" opacity="1.0"/>
<circle cx="666.5" cy="322.5" r="4" fill="#1abc9c" stroke="white" opacity="1.0"/>
<circle cx="692.4" cy="318.4" r="4" fill="#1abc9c" stroke="white" opacity="1.0"/>
<circle cx="718.1" cy="322.5" r="4" fill="#1abc9c" stroke="white" opacity="1.0"/>
<circle cx="744.0" cy="311.6" r="4" fill="#1abc9c" stroke="white" opacity="1.0"/>
<circle cx="769.5" cy="310.2" r="4" fill="#1abc9c" stroke="white" opacity="1.0"/>
<circle cx="795.4" cy="321.2" r="4" fill="#1abc9c" stroke="white" opacity="1.0"/>
<circle cx="821.3" cy="311.6" r="4" fill="#1abc9c" stroke="white" opacity="1.0"/>
<circle cx="847.2" cy="322.5" r="4" fill="#1abc9c" stroke="white" opacity="1.0"/>
<circle cx="872.8" cy="321.2" r="4" fill="#1abc9c" stroke="white" opacity="1.0"/>
<circle cx="898.6" cy="321.2" r="4" fill="#1abc9c" stroke="white" opacity="1.0"/>
<circle cx="924.5" cy="312.9" r="4" fill="#1abc9c" stroke="white" opacity="1.0"/>
<circle cx="950.2" cy="311.6" r="4" fill="#1abc9c" stroke="white" opacity="1.0"/>
<circle cx="976.1" cy="317.0" r="4" fill="#1abc9c" stroke="white" opacity="1.0"/>
<circle cx="1001.9" cy="311.6" r="4" fill="#1abc9c" stroke="white" opacity="1.0"/>
<circle cx="1027.8" cy="321.2" r="4" fill="#1abc9c" stroke="white" opacity="1.0"/>
<circle cx="1053.5" cy="315.7" r="4" fill="#1abc9c" stroke="white" opacity="1.0"/>
</g>
<g class="series pmic-series" data-mode="PWM" data-chip="31927" data-temp="80" data-reg="DC2DC_ANA">
<path d="M 124.5,411.6 L 150.2,408.9 L 176.0,414.3 L 201.9,406.1 L 227.7,408.9 L 253.5,411.6 L 279.3,406.1 L 305.0,413.0 L 330.8,402.0 L 356.8,407.5 L 382.5,397.9 L 408.4,402.0 L 434.1,400.6 L 459.9,406.1 L 485.6,408.9 L 511.7,407.5 L 537.4,404.8 L 563.2,413.0 L 589.0,404.8 L 614.8,406.1 L 640.6,407.5 L 666.5,406.1 L 692.4,400.6 L 718.1,399.3 L 744.0,404.8 L 769.6,403.4 L 795.4,407.5 L 821.4,410.2 L 847.2,408.9 L 872.8,397.9 L 898.7,407.5 L 924.5,411.6 L 950.2,413.0 L 976.2,414.3 L 1001.9,408.9 L 1027.8,408.9 L 1053.5,410.2" fill="none" stroke="#e74c3c" stroke-width="2.2" stroke-linejoin="round" opacity="0.9"/>
<circle cx="124.5" cy="411.6" r="4" fill="#e74c3c" stroke="white" opacity="1.0"/>
<circle cx="150.2" cy="408.9" r="4" fill="#e74c3c" stroke="white" opacity="1.0"/>
<circle cx="176.0" cy="414.3" r="4" fill="#e74c3c" stroke="white" opacity="1.0"/>
<circle cx="201.9" cy="406.1" r="4" fill="#e74c3c" stroke="white" opacity="1.0"/>
<circle cx="227.7" cy="408.9" r="4" fill="#e74c3c" stroke="white" opacity="1.0"/>
<circle cx="253.5" cy="411.6" r="4" fill="#e74c3c" stroke="white" opacity="1.0"/>
<circle cx="279.3" cy="406.1" r="4" fill="#e74c3c" stroke="white" opacity="1.0"/>
<circle cx="305.0" cy="413.0" r="4" fill="#e74c3c" stroke="white" opacity="1.0"/>
<circle cx="330.8" cy="402.0" r="4" fill="#e74c3c" stroke="white" opacity="1.0"/>
<circle cx="356.8" cy="407.5" r="4" fill="#e74c3c" stroke="white" opacity="1.0"/>
<circle cx="382.5" cy="397.9" r="4" fill="#e74c3c" stroke="white" opacity="1.0"/>
<circle cx="408.4" cy="402.0" r="4" fill="#e74c3c" stroke="white" opacity="1.0"/>
<circle cx="434.1" cy="400.6" r="4" fill="#e74c3c" stroke="white" opacity="1.0"/>
<circle cx="459.9" cy="406.1" r="4" fill="#e74c3c" stroke="white" opacity="1.0"/>
<circle cx="485.6" cy="408.9" r="4" fill="#e74c3c" stroke="white" opacity="1.0"/>
<circle cx="511.7" cy="407.5" r="4" fill="#e74c3c" stroke="white" opacity="1.0"/>
<circle cx="537.4" cy="404.8" r="4" fill="#e74c3c" stroke="white" opacity="1.0"/>
<circle cx="563.2" cy="413.0" r="4" fill="#e74c3c" stroke="white" opacity="1.0"/>
<circle cx="589.0" cy="404.8" r="4" fill="#e74c3c" stroke="white" opacity="1.0"/>
<circle cx="614.8" cy="406.1" r="4" fill="#e74c3c" stroke="white" opacity="1.0"/>
<circle cx="640.6" cy="407.5" r="4" fill="#e74c3c" stroke="white" opacity="1.0"/>
<circle cx="666.5" cy="406.1" r="4" fill="#e74c3c" stroke="white" opacity="1.0"/>
<circle cx="692.4" cy="400.6" r="4" fill="#e74c3c" stroke="white" opacity="1.0"/>
<circle cx="718.1" cy="399.3" r="4" fill="#e74c3c" stroke="white" opacity="1.0"/>
<circle cx="744.0" cy="404.8" r="4" fill="#e74c3c" stroke="white" opacity="1.0"/>
<circle cx="769.6" cy="403.4" r="4" fill="#e74c3c" stroke="white" opacity="1.0"/>
<circle cx="795.4" cy="407.5" r="4" fill="#e74c3c" stroke="white" opacity="1.0"/>
<circle cx="821.4" cy="410.2" r="4" fill="#e74c3c" stroke="white" opacity="1.0"/>
<circle cx="847.2" cy="408.9" r="4" fill="#e74c3c" stroke="white" opacity="1.0"/>
<circle cx="872.8" cy="397.9" r="4" fill="#e74c3c" stroke="white" opacity="1.0"/>
<circle cx="898.7" cy="407.5" r="4" fill="#e74c3c" stroke="white" opacity="1.0"/>
<circle cx="924.5" cy="411.6" r="4" fill="#e74c3c" stroke="white" opacity="1.0"/>
<circle cx="950.2" cy="413.0" r="4" fill="#e74c3c" stroke="white" opacity="1.0"/>
<circle cx="976.2" cy="414.3" r="4" fill="#e74c3c" stroke="white" opacity="1.0"/>
<circle cx="1001.9" cy="408.9" r="4" fill="#e74c3c" stroke="white" opacity="1.0"/>
<circle cx="1027.8" cy="408.9" r="4" fill="#e74c3c" stroke="white" opacity="1.0"/>
<circle cx="1053.5" cy="410.2" r="4" fill="#e74c3c" stroke="white" opacity="1.0"/>
</g>
<g class="legend-item" data-mode="PWM" data-chip="21988" data-temp="0" data-reg="DC2DC_ANA">
<rect x="1116.0" y="69.0" width="22.0" height="4.0" fill="#3498db" stroke="none" stroke-width="1" opacity="1.0" rx="2"/>
<circle cx="1127.0" cy="71.0" r="4" fill="#3498db" stroke="none" opacity="1.0"/>
<text x="1144.0" y="76.0" font-size="9" font-weight="normal" text-anchor="start" fill="#333" font-family="Arial,sans-serif">Chip 21988 | T=0°C</text>
</g>
<g class="legend-item" data-mode="PWM" data-chip="21988" data-temp="25" data-reg="DC2DC_ANA">
<rect x="1116.0" y="86.0" width="22.0" height="4.0" fill="#e67e22" stroke="none" stroke-width="1" opacity="1.0" rx="2"/>
<circle cx="1127.0" cy="88.0" r="4" fill="#e67e22" stroke="none" opacity="1.0"/>
<text x="1144.0" y="93.0" font-size="9" font-weight="normal" text-anchor="start" fill="#333" font-family="Arial,sans-serif">Chip 21988 | T=25°C</text>
</g>
<g class="legend-item" data-mode="PWM" data-chip="21988" data-temp="80" data-reg="DC2DC_ANA">
<rect x="1116.0" y="103.0" width="22.0" height="4.0" fill="#2ecc71" stroke="none" stroke-width="1" opacity="1.0" rx="2"/>
<circle cx="1127.0" cy="105.0" r="4" fill="#2ecc71" stroke="none" opacity="1.0"/>
<text x="1144.0" y="110.0" font-size="9" font-weight="normal" text-anchor="start" fill="#333" font-family="Arial,sans-serif">Chip 21988 | T=80°C</text>
</g>
<g class="legend-item" data-mode="PWM" data-chip="31927" data-temp="0" data-reg="DC2DC_ANA">
<rect x="1116.0" y="120.0" width="22.0" height="4.0" fill="#9b59b6" stroke="none" stroke-width="1" opacity="1.0" rx="2"/>
<circle cx="1127.0" cy="122.0" r="4" fill="#9b59b6" stroke="none" opacity="1.0"/>
<text x="1144.0" y="127.0" font-size="9" font-weight="normal" text-anchor="start" fill="#333" font-family="Arial,sans-serif">Chip 31927 | T=0°C</text>
</g>
<g class="legend-item" data-mode="PWM" data-chip="31927" data-temp="25" data-reg="DC2DC_ANA">
<rect x="1116.0" y="137.0" width="22.0" height="4.0" fill="#1abc9c" stroke="none" stroke-width="1" opacity="1.0" rx="2"/>
<circle cx="1127.0" cy="139.0" r="4" fill="#1abc9c" stroke="none" opacity="1.0"/>
<text x="1144.0" y="144.0" font-size="9" font-weight="normal" text-anchor="start" fill="#333" font-family="Arial,sans-serif">Chip 31927 | T=25°C</text>
</g>
<g class="legend-item" data-mode="PWM" data-chip="31927" data-temp="80" data-reg="DC2DC_ANA">
<rect x="1116.0" y="154.0" width="22.0" height="4.0" fill="#e74c3c" stroke="none" stroke-width="1" opacity="1.0" rx="2"/>
<circle cx="1127.0" cy="156.0" r="4" fill="#e74c3c" stroke="none" opacity="1.0"/>
<text x="1144.0" y="161.0" font-size="9" font-weight="normal" text-anchor="start" fill="#333" font-family="Arial,sans-serif">Chip 31927 | T=80°C</text>
</g>
<rect class="cursor-overlay" x="78.0" y="68.0" width="1022.0" height="372.0" fill="transparent" style="cursor:default" data-xmin="2.446395" data-xmax="3.634505" data-ymin="1.179028" data-ymax="1.206172" data-pl="78.0" data-pr="1100.0" data-pt="68.0" data-pb="440.0"/>
<g class="cursor-layer" style="pointer-events:none;display:none"><line class="cur-v" x1="0" y1="68.0" x2="0" y2="440.0" stroke="#e74c3c" stroke-width="1.2" stroke-dasharray="5,3"/><line class="cur-h" x1="78.0" y1="0" x2="1100.0" y2="0" stroke="#e74c3c" stroke-width="1.2" stroke-dasharray="5,3"/><rect class="cur-tip-bg" x="0" y="0" width="148" height="44" rx="5" fill="#1a252f" stroke="#34495e" stroke-width="1" opacity="0.92"/><text class="cur-tip-x" x="0" y="0" font-size="11" font-family="Arial,sans-serif" fill="#ecf0f1"/><text class="cur-tip-y" x="0" y="0" font-size="11" font-family="Arial,sans-serif" fill="#2ecc71"/></g>
</svg>