<svg xmlns="http://www.w3.org/2000/svg" width="1400" height="560" viewBox="0 0 1400 560">
<rect width="1400" height="560" fill="#ffffff"/>
<text x="700.0" y="28.0" font-size="16" font-weight="bold" text-anchor="middle" fill="#2c3e50" font-family="Arial,sans-serif">Transient — Digital DC2DC  Vout=0.8V  [PWM]  Load 400mA→2.0A  — Undershoot</text>
<line x1="78.0" y1="68.0" x2="78.0" y2="480.0" stroke="#999" stroke-width="1"/>
<line x1="73.0" y1="480.0" x2="78.0" y2="480.0" stroke="#999" stroke-width="1"/>
<line x1="78.0" y1="480.0" x2="1100.0" y2="480.0" stroke="#e8e8e8" stroke-width="0.7" stroke-dasharray="4,3"/>
<text x="70.0" y="484.0" font-size="9" font-weight="normal" text-anchor="end" fill="#888" font-family="Arial,sans-serif">0</text>
<line x1="73.0" y1="457.9" x2="78.0" y2="457.9" stroke="#999" stroke-width="1"/>
<line x1="78.0" y1="457.9" x2="1100.0" y2="457.9" stroke="#e8e8e8" stroke-width="0.7" stroke-dasharray="4,3"/>
<text x="70.0" y="461.9" font-size="9" font-weight="normal" text-anchor="end" fill="#888" font-family="Arial,sans-serif">5</text>
<line x1="73.0" y1="435.9" x2="78.0" y2="435.9" stroke="#999" stroke-width="1"/>
<line x1="78.0" y1="435.9" x2="1100.0" y2="435.9" stroke="#e8e8e8" stroke-width="0.7" stroke-dasharray="4,3"/>
<text x="70.0" y="439.9" font-size="9" font-weight="normal" text-anchor="end" fill="#888" font-family="Arial,sans-serif">10</text>
<line x1="73.0" y1="413.8" x2="78.0" y2="413.8" stroke="#999" stroke-width="1"/>
<line x1="78.0" y1="413.8" x2="1100.0" y2="413.8" stroke="#e8e8e8" stroke-width="0.7" stroke-dasharray="4,3"/>
<text x="70.0" y="417.8" font-size="9" font-weight="normal" text-anchor="end" fill="#888" font-family="Arial,sans-serif">15</text>
<line x1="73.0" y1="391.7" x2="78.0" y2="391.7" stroke="#999" stroke-width="1"/>
<line x1="78.0" y1="391.7" x2="1100.0" y2="391.7" stroke="#e8e8e8" stroke-width="0.7" stroke-dasharray="4,3"/>
<text x="70.0" y="395.7" font-size="9" font-weight="normal" text-anchor="end" fill="#888" font-family="Arial,sans-serif">20</text>
<line x1="73.0" y1="369.7" x2="78.0" y2="369.7" stroke="#999" stroke-width="1"/>
<line x1="78.0" y1="369.7" x2="1100.0" y2="369.7" stroke="#e8e8e8" stroke-width="0.7" stroke-dasharray="4,3"/>
<text x="70.0" y="373.7" font-size="9" font-weight="normal" text-anchor="end" fill="#888" font-family="Arial,sans-serif">25</text>
<line x1="73.0" y1="347.6" x2="78.0" y2="347.6" stroke="#999" stroke-width="1"/>
<line x1="78.0" y1="347.6" x2="1100.0" y2="347.6" stroke="#e8e8e8" stroke-width="0.7" stroke-dasharray="4,3"/>
<text x="70.0" y="351.6" font-size="9" font-weight="normal" text-anchor="end" fill="#888" font-family="Arial,sans-serif">30</text>
<line x1="73.0" y1="325.5" x2="78.0" y2="325.5" stroke="#999" stroke-width="1"/>
<line x1="78.0" y1="325.5" x2="1100.0" y2="325.5" stroke="#e8e8e8" stroke-width="0.7" stroke-dasharray="4,3"/>
<text x="70.0" y="329.5" font-size="9" font-weight="normal" text-anchor="end" fill="#888" font-family="Arial,sans-serif">35</text>
<line x1="73.0" y1="303.5" x2="78.0" y2="303.5" stroke="#999" stroke-width="1"/>
<line x1="78.0" y1="303.5" x2="1100.0" y2="303.5" stroke="#e8e8e8" stroke-width="0.7" stroke-dasharray="4,3"/>
<text x="70.0" y="307.5" font-size="9" font-weight="normal" text-anchor="end" fill="#888" font-family="Arial,sans-serif">40</text>
<line x1="73.0" y1="281.4" x2="78.0" y2="281.4" stroke="#999" stroke-width="1"/>
<line x1="78.0" y1="281.4" x2="1100.0" y2="281.4" stroke="#e8e8e8" stroke-width="0.7" stroke-dasharray="4,3"/>
<text x="70.0" y="285.4" font-size="9" font-weight="normal" text-anchor="end" fill="#888" font-family="Arial,sans-serif">45</text>
<line x1="73.0" y1="259.3" x2="78.0" y2="259.3" stroke="#999" stroke-width="1"/>
<line x1="78.0" y1="259.3" x2="1100.0" y2="259.3" stroke="#e8e8e8" stroke-width="0.7" stroke-dasharray="4,3"/>
<text x="70.0" y="263.3" font-size="9" font-weight="normal" text-anchor="end" fill="#888" font-family="Arial,sans-serif">50</text>
<line x1="73.0" y1="237.3" x2="78.0" y2="237.3" stroke="#999" stroke-width="1"/>
<line x1="78.0" y1="237.3" x2="1100.0" y2="237.3" stroke="#e8e8e8" stroke-width="0.7" stroke-dasharray="4,3"/>
<text x="70.0" y="241.3" font-size="9" font-weight="normal" text-anchor="end" fill="#888" font-family="Arial,sans-serif">55</text>
<line x1="73.0" y1="215.2" x2="78.0" y2="215.2" stroke="#999" stroke-width="1"/>
<line x1="78.0" y1="215.2" x2="1100.0" y2="215.2" stroke="#e8e8e8" stroke-width="0.7" stroke-dasharray="4,3"/>
<text x="70.0" y="219.2" font-size="9" font-weight="normal" text-anchor="end" fill="#888" font-family="Arial,sans-serif">60</text>
<line x1="73.0" y1="193.2" x2="78.0" y2="193.2" stroke="#999" stroke-width="1"/>
<line x1="78.0" y1="193.2" x2="1100.0" y2="193.2" stroke="#e8e8e8" stroke-width="0.7" stroke-dasharray="4,3"/>
<text x="70.0" y="197.2" font-size="9" font-weight="normal" text-anchor="end" fill="#888" font-family="Arial,sans-serif">65</text>
<line x1="73.0" y1="171.1" x2="78.0" y2="171.1" stroke="#999" stroke-width="1"/>
<line x1="78.0" y1="171.1" x2="1100.0" y2="171.1" stroke="#e8e8e8" stroke-width="0.7" stroke-dasharray="4,3"/>
<text x="70.0" y="175.1" font-size="9" font-weight="normal" text-anchor="end" fill="#888" font-family="Arial,sans-serif">70</text>
<line x1="73.0" y1="149.0" x2="78.0" y2="149.0" stroke="#999" stroke-width="1"/>
<line x1="78.0" y1="149.0" x2="1100.0" y2="149.0" stroke="#e8e8e8" stroke-width="0.7" stroke-dasharray="4,3"/>
<text x="70.0" y="153.0" font-size="9" font-weight="normal" text-anchor="end" fill="#888" font-family="Arial,sans-serif">75</text>
<line x1="73.0" y1="127.0" x2="78.0" y2="127.0" stroke="#999" stroke-width="1"/>
<line x1="78.0" y1="127.0" x2="1100.0" y2="127.0" stroke="#e8e8e8" stroke-width="0.7" stroke-dasharray="4,3"/>
<text x="70.0" y="131.0" font-size="9" font-weight="normal" text-anchor="end" fill="#888" font-family="Arial,sans-serif">80</text>
<line x1="73.0" y1="104.9" x2="78.0" y2="104.9" stroke="#999" stroke-width="1"/>
<line x1="78.0" y1="104.9" x2="1100.0" y2="104.9" stroke="#e8e8e8" stroke-width="0.7" stroke-dasharray="4,3"/>
<text x="70.0" y="108.9" font-size="9" font-weight="normal" text-anchor="end" fill="#888" font-family="Arial,sans-serif">85</text>
<line x1="73.0" y1="82.8" x2="78.0" y2="82.8" stroke="#999" stroke-width="1"/>
<line x1="78.0" y1="82.8" x2="1100.0" y2="82.8" stroke="#e8e8e8" stroke-width="0.7" stroke-dasharray="4,3"/>
<text x="70.0" y="86.8" font-size="9" font-weight="normal" text-anchor="end" fill="#888" font-family="Arial,sans-serif">90</text>
<line x1="78.0" y1="480.0" x2="1100.0" y2="480.0" stroke="#999" stroke-width="1"/>
<line x1="333.5" y1="480.0" x2="333.5" y2="485.0" stroke="#999" stroke-width="1"/>
<line x1="333.5" y1="68.0" x2="333.5" y2="480.0" stroke="#e8e8e8" stroke-width="0.7" stroke-dasharray="4,3"/>
<text x="333.5" y="496.0" font-size="10" font-weight="normal" text-anchor="middle" fill="#888" font-family="Arial,sans-serif">3.135</text>
<line x1="589.0" y1="480.0" x2="589.0" y2="485.0" stroke="#999" stroke-width="1"/>
<line x1="589.0" y1="68.0" x2="589.0" y2="480.0" stroke="#e8e8e8" stroke-width="0.7" stroke-dasharray="4,3"/>
<text x="589.0" y="496.0" font-size="10" font-weight="normal" text-anchor="middle" fill="#888" font-family="Arial,sans-serif">3.3</text>
<line x1="844.5" y1="480.0" x2="844.5" y2="485.0" stroke="#999" stroke-width="1"/>
<line x1="844.5" y1="68.0" x2="844.5" y2="480.0" stroke="#e8e8e8" stroke-width="0.7" stroke-dasharray="4,3"/>
<text x="844.5" y="496.0" font-size="10" font-weight="normal" text-anchor="middle" fill="#888" font-family="Arial,sans-serif">3.465</text>
<text x="16.0" y="274.0" font-size="11" font-weight="normal" text-anchor="middle" fill="#555" font-family="Arial,sans-serif" transform="rotate(-90,16,274.0)">Undershoot [mV]</text>
<text x="589.0" y="550.0" font-size="11" font-weight="normal" text-anchor="middle" fill="#555" font-family="Arial,sans-serif">Vin Setpoint [V]</text>
<g class="series pmic-series" data-mode="PWM" data-chip="21988" data-temp="0" data-reg="DC2DC_DIG">
<path d="M 321.0,84.2 L 576.5,91.2 L 832.0,85.5" fill="none" stroke="#3498db" stroke-width="1.8" stroke-dasharray="5,3" opacity="0.6"/>
<circle cx="321.0" cy="84.2" r="6" fill="#3498db" stroke="white" opacity="1.0"/>
<circle cx="576.5" cy="91.2" r="6" fill="#3498db" stroke="white" opacity="1.0"/>
<circle cx="832.0" cy="85.5" r="6" fill="#3498db" stroke="white" opacity="1.0"/>
</g>
<g class="series pmic-series" data-mode="PWM" data-chip="21988" data-temp="25" data-reg="DC2DC_DIG">
<path d="M 326.0,85.5 L 581.5,91.2 L 837.0,89.9" fill="none" stroke="#e67e22" stroke-width="1.8" stroke-dasharray="5,3" opacity="0.6"/>
<circle cx="326.0" cy="85.5" r="6" fill="#e67e22" stroke="white" opacity="1.0"/>
<circle cx="581.5" cy="91.2" r="6" fill="#e67e22" stroke="white" opacity="1.0"/>
<circle cx="837.0" cy="89.9" r="6" fill="#e67e22" stroke="white" opacity="1.0"/>
</g>
<g class="series pmic-series" data-mode="PWM" data-chip="21988" data-temp="80" data-reg="DC2DC_DIG">
<path d="M 331.0,162.3 L 586.5,165.8 L 842.0,168.0" fill="none" stroke="#2ecc71" stroke-width="1.8" stroke-dasharray="5,3" opacity="0.6"/>
<circle cx="331.0" cy="162.3" r="6" fill="#2ecc71" stroke="white" opacity="1.0"/>
<circle cx="586.5" cy="165.8" r="6" fill="#2ecc71" stroke="white" opacity="1.0"/>
<circle cx="842.0" cy="168.0" r="6" fill="#2ecc71" stroke="white" opacity="1.0"/>
</g>
<g class="series pmic-series" data-mode="PWM" data-chip="31927" data-temp="0" data-reg="DC2DC_DIG">
<path d="M 336.0,222.7 L 591.5,221.4 L 847.0,236.0" fill="none" stroke="#9b59b6" stroke-width="1.8" stroke-dasharray="5,3" opacity="0.6"/>
<circle cx="336.0" cy="222.7" r="6" fill="#9b59b6" stroke="white" opacity="1.0"/>
<circle cx="591.5" cy="221.4" r="6" fill="#9b59b6" stroke="white" opacity="1.0"/>
<circle cx="847.0" cy="236.0" r="6" fill="#9b59b6" stroke="white" opacity="1.0"/>
</g>
<g class="series pmic-series" data-mode="PWM" data-chip="31927" data-temp="25" data-reg="DC2DC_DIG">
<path d="M 341.0,220.1 L 596.5,232.4 L 852.0,230.2" fill="none" stroke="#1abc9c" stroke-width="1.8" stroke-dasharray="5,3" opacity="0.6"/>
<circle cx="341.0" cy="220.1" r="6" fill="#1abc9c" stroke="white" opacity="1.0"/>
<circle cx="596.5" cy="232.4" r="6" fill="#1abc9c" stroke="white" opacity="1.0"/>
<circle cx="852.0" cy="230.2" r="6" fill="#1abc9c" stroke="white" opacity="1.0"/>
</g>
<g class="series pmic-series" data-mode="PWM" data-chip="31927" data-temp="80" data-reg="DC2DC_DIG">
<path d="M 346.0,239.5 L 601.5,236.8 L 857.0,245.7" fill="none" stroke="#e74c3c" stroke-width="1.8" stroke-dasharray="5,3" opacity="0.6"/>
<circle cx="346.0" cy="239.5" r="6" fill="#e74c3c" stroke="white" opacity="1.0"/>
<circle cx="601.5" cy="236.8" r="6" fill="#e74c3c" stroke="white" opacity="1.0"/>
<circle cx="857.0" cy="245.7" r="6" fill="#e74c3c" stroke="white" opacity="1.0"/>
</g>
<g class="legend-item" data-mode="PWM" data-chip="21988" data-temp="0" data-reg="DC2DC_DIG">
<rect x="1116.0" y="69.0" width="18.0" height="4.0" fill="#3498db" stroke="none" stroke-width="1" opacity="1.0" rx="2"/>
<circle cx="1125.0" cy="71.0" r="5" fill="#3498db" stroke="none" opacity="1.0"/>
<text x="1140.0" y="76.0" font-size="9" font-weight="normal" text-anchor="start" fill="#333" font-family="Arial,sans-serif">Ch21988 | T=0°C | step↑</text>
</g>
<g class="legend-item" data-mode="PWM" data-chip="21988" data-temp="25" data-reg="DC2DC_DIG">
<rect x="1116.0" y="86.0" width="18.0" height="4.0" fill="#e67e22" stroke="none" stroke-width="1" opacity="1.0" rx="2"/>
<circle cx="1125.0" cy="88.0" r="5" fill="#e67e22" stroke="none" opacity="1.0"/>
<text x="1140.0" y="93.0" font-size="9" font-weight="normal" text-anchor="start" fill="#333" font-family="Arial,sans-serif">Ch21988 | T=25°C | step↑</text>
</g>
<g class="legend-item" data-mode="PWM" data-chip="21988" data-temp="80" data-reg="DC2DC_DIG">
<rect x="1116.0" y="103.0" width="18.0" height="4.0" fill="#2ecc71" stroke="none" stroke-width="1" opacity="1.0" rx="2"/>
<circle cx="1125.0" cy="105.0" r="5" fill="#2ecc71" stroke="none" opacity="1.0"/>
<text x="1140.0" y="110.0" font-size="9" font-weight="normal" text-anchor="start" fill="#333" font-family="Arial,sans-serif">Ch21988 | T=80°C | step↑</text>
</g>
<g class="legend-item" data-mode="PWM" data-chip="31927" data-temp="0" data-reg="DC2DC_DIG">
<rect x="1116.0" y="120.0" width="18.0" height="4.0" fill="#9b59b6" stroke="none" stroke-width="1" opacity="1.0" rx="2"/>
<circle cx="1125.0" cy="122.0" r="5" fill="#9b59b6" stroke="none" opacity="1.0"/>
<text x="1140.0" y="127.0" font-size="9" font-weight="normal" text-anchor="start" fill="#333" font-family="Arial,sans-serif">Ch31927 | T=0°C | step↑</text>
</g>
<g class="legend-item" data-mode="PWM" data-chip="31927" data-temp="25" data-reg="DC2DC_DIG">
<rect x="1116.0" y="137.0" width="18.0" height="4.0" fill="#1abc9c" stroke="none" stroke-width="1" opacity="1.0" rx="2"/>
<circle cx="1125.0" cy="139.0" r="5" fill="#1abc9c" stroke="none" opacity="1.0"/>
<text x="1140.0" y="144.0" font-size="9" font-weight="normal" text-anchor="start" fill="#333" font-family="Arial,sans-serif">Ch31927 | T=25°C | step↑</text>
</g>
<g class="legend-item" data-mode="PWM" data-chip="31927" data-temp="80" data-reg="DC2DC_DIG">
<rect x="1116.0" y="154.0" width="18.0" height="4.0" fill="#e74c3c" stroke="none" stroke-width="1" opacity="1.0" rx="2"/>
<circle cx="1125.0" cy="156.0" r="5" fill="#e74c3c" stroke="none" opacity="1.0"/>
<text x="1140.0" y="161.0" font-size="9" font-weight="normal" text-anchor="start" fill="#333" font-family="Arial,sans-serif">Ch31927 | T=80°C | step↑</text>
</g>
<rect class="cursor-overlay" x="78.0" y="68.0" width="1022.0" height="412.0" fill="transparent" style="cursor:default" data-xmin="78" data-xmax="1100" data-ymin="0" data-ymax="93.36" data-pl="78.0" data-pr="1100.0" data-pt="68.0" data-pb="480.0"/>
<g class="cursor-layer" style="pointer-events:none;display:none"><line class="cur-v" x1="0" y1="68.0" x2="0" y2="480.0" stroke="#e74c3c" stroke-width="1.2" stroke-dasharray="5,3"/><line class="cur-h" x1="78.0" y1="0" x2="1100.0" y2="0" stroke="#e74c3c" stroke-width="1.2" stroke-dasharray="5,3"/><rect class="cur-tip-bg" x="0" y="0" width="148" height="44" rx="5" fill="#1a252f" stroke="#34495e" stroke-width="1" opacity="0.92"/><text class="cur-tip-x" x="0" y="0" font-size="11" font-family="Arial,sans-serif" fill="#ecf0f1"/><text class="cur-tip-y" x="0" y="0" font-size="11" font-family="Arial,sans-serif" fill="#2ecc71"/></g>
</svg>