<svg xmlns="http://www.w3.org/2000/svg" width="1400" height="560" viewBox="0 0 1400 560">
<rect width="1400" height="560" fill="#ffffff"/>
<text x="700.0" y="28.0" font-size="16" font-weight="bold" text-anchor="middle" fill="#2c3e50" font-family="Arial,sans-serif">Transient — Analog DC2DC  Vout=1.2V  [AUTO_PFM]  Load 25mA→800mA  — Undershoot</text>
<line x1="78.0" y1="68.0" x2="78.0" y2="480.0" stroke="#999" stroke-width="1"/>
<line x1="73.0" y1="480.0" x2="78.0" y2="480.0" stroke="#999" stroke-width="1"/>
<line x1="78.0" y1="480.0" x2="1100.0" y2="480.0" stroke="#e8e8e8" stroke-width="0.7" stroke-dasharray="4,3"/>
<text x="70.0" y="484.0" font-size="9" font-weight="normal" text-anchor="end" fill="#888" font-family="Arial,sans-serif">0</text>
<line x1="73.0" y1="471.4" x2="78.0" y2="471.4" stroke="#999" stroke-width="1"/>
<line x1="78.0" y1="471.4" x2="1100.0" y2="471.4" stroke="#e8e8e8" stroke-width="0.7" stroke-dasharray="4,3"/>
<text x="70.0" y="475.4" font-size="9" font-weight="normal" text-anchor="end" fill="#888" font-family="Arial,sans-serif">5</text>
<line x1="73.0" y1="462.8" x2="78.0" y2="462.8" stroke="#999" stroke-width="1"/>
<line x1="78.0" y1="462.8" x2="1100.0" y2="462.8" stroke="#e8e8e8" stroke-width="0.7" stroke-dasharray="4,3"/>
<text x="70.0" y="466.8" font-size="9" font-weight="normal" text-anchor="end" fill="#888" font-family="Arial,sans-serif">10</text>
<line x1="73.0" y1="454.1" x2="78.0" y2="454.1" stroke="#999" stroke-width="1"/>
<line x1="78.0" y1="454.1" x2="1100.0" y2="454.1" stroke="#e8e8e8" stroke-width="0.7" stroke-dasharray="4,3"/>
<text x="70.0" y="458.1" font-size="9" font-weight="normal" text-anchor="end" fill="#888" font-family="Arial,sans-serif">15</text>
<line x1="73.0" y1="445.5" x2="78.0" y2="445.5" stroke="#999" stroke-width="1"/>
<line x1="78.0" y1="445.5" x2="1100.0" y2="445.5" stroke="#e8e8e8" stroke-width="0.7" stroke-dasharray="4,3"/>
<text x="70.0" y="449.5" font-size="9" font-weight="normal" text-anchor="end" fill="#888" font-family="Arial,sans-serif">20</text>
<line x1="73.0" y1="436.9" x2="78.0" y2="436.9" stroke="#999" stroke-width="1"/>
<line x1="78.0" y1="436.9" x2="1100.0" y2="436.9" stroke="#e8e8e8" stroke-width="0.7" stroke-dasharray="4,3"/>
<text x="70.0" y="440.9" font-size="9" font-weight="normal" text-anchor="end" fill="#888" font-family="Arial,sans-serif">25</text>
<line x1="73.0" y1="428.3" x2="78.0" y2="428.3" stroke="#999" stroke-width="1"/>
<line x1="78.0" y1="428.3" x2="1100.0" y2="428.3" stroke="#e8e8e8" stroke-width="0.7" stroke-dasharray="4,3"/>
<text x="70.0" y="432.3" font-size="9" font-weight="normal" text-anchor="end" fill="#888" font-family="Arial,sans-serif">30</text>
<line x1="73.0" y1="419.7" x2="78.0" y2="419.7" stroke="#999" stroke-width="1"/>
<line x1="78.0" y1="419.7" x2="1100.0" y2="419.7" stroke="#e8e8e8" stroke-width="0.7" stroke-dasharray="4,3"/>
<text x="70.0" y="423.7" font-size="9" font-weight="normal" text-anchor="end" fill="#888" font-family="Arial,sans-serif">35</text>
<line x1="73.0" y1="411.0" x2="78.0" y2="411.0" stroke="#999" stroke-width="1"/>
<line x1="78.0" y1="411.0" x2="1100.0" y2="411.0" stroke="#e8e8e8" stroke-width="0.7" stroke-dasharray="4,3"/>
<text x="70.0" y="415.0" font-size="9" font-weight="normal" text-anchor="end" fill="#888" font-family="Arial,sans-serif">40</text>
<line x1="73.0" y1="402.4" x2="78.0" y2="402.4" stroke="#999" stroke-width="1"/>
<line x1="78.0" y1="402.4" x2="1100.0" y2="402.4" stroke="#e8e8e8" stroke-width="0.7" stroke-dasharray="4,3"/>
<text x="70.0" y="406.4" font-size="9" font-weight="normal" text-anchor="end" fill="#888" font-family="Arial,sans-serif">45</text>
<line x1="73.0" y1="393.8" x2="78.0" y2="393.8" stroke="#999" stroke-width="1"/>
<line x1="78.0" y1="393.8" x2="1100.0" y2="393.8" stroke="#e8e8e8" stroke-width="0.7" stroke-dasharray="4,3"/>
<text x="70.0" y="397.8" font-size="9" font-weight="normal" text-anchor="end" fill="#888" font-family="Arial,sans-serif">50</text>
<line x1="73.0" y1="385.2" x2="78.0" y2="385.2" stroke="#999" stroke-width="1"/>
<line x1="78.0" y1="385.2" x2="1100.0" y2="385.2" stroke="#e8e8e8" stroke-width="0.7" stroke-dasharray="4,3"/>
<text x="70.0" y="389.2" font-size="9" font-weight="normal" text-anchor="end" fill="#888" font-family="Arial,sans-serif">55</text>
<line x1="73.0" y1="376.6" x2="78.0" y2="376.6" stroke="#999" stroke-width="1"/>
<line x1="78.0" y1="376.6" x2="1100.0" y2="376.6" stroke="#e8e8e8" stroke-width="0.7" stroke-dasharray="4,3"/>
<text x="70.0" y="380.6" font-size="9" font-weight="normal" text-anchor="end" fill="#888" font-family="Arial,sans-serif">60</text>
<line x1="73.0" y1="367.9" x2="78.0" y2="367.9" stroke="#999" stroke-width="1"/>
<line x1="78.0" y1="367.9" x2="1100.0" y2="367.9" stroke="#e8e8e8" stroke-width="0.7" stroke-dasharray="4,3"/>
<text x="70.0" y="371.9" font-size="9" font-weight="normal" text-anchor="end" fill="#888" font-family="Arial,sans-serif">65</text>
<line x1="73.0" y1="359.3" x2="78.0" y2="359.3" stroke="#999" stroke-width="1"/>
<line x1="78.0" y1="359.3" x2="1100.0" y2="359.3" stroke="#e8e8e8" stroke-width="0.7" stroke-dasharray="4,3"/>
<text x="70.0" y="363.3" font-size="9" font-weight="normal" text-anchor="end" fill="#888" font-family="Arial,sans-serif">70</text>
<line x1="73.0" y1="350.7" x2="78.0" y2="350.7" stroke="#999" stroke-width="1"/>
<line x1="78.0" y1="350.7" x2="1100.0" y2="350.7" stroke="#e8e8e8" stroke-width="0.7" stroke-dasharray="4,3"/>
<text x="70.0" y="354.7" font-size="9" font-weight="normal" text-anchor="end" fill="#888" font-family="Arial,sans-serif">75</text>
<line x1="73.0" y1="342.1" x2="78.0" y2="342.1" stroke="#999" stroke-width="1"/>
<line x1="78.0" y1="342.1" x2="1100.0" y2="342.1" stroke="#e8e8e8" stroke-width="0.7" stroke-dasharray="4,3"/>
<text x="70.0" y="346.1" font-size="9" font-weight="normal" text-anchor="end" fill="#888" font-family="Arial,sans-serif">80</text>
<line x1="73.0" y1="333.4" x2="78.0" y2="333.4" stroke="#999" stroke-width="1"/>
<line x1="78.0" y1="333.4" x2="1100.0" y2="333.4" stroke="#e8e8e8" stroke-width="0.7" stroke-dasharray="4,3"/>
<text x="70.0" y="337.4" font-size="9" font-weight="normal" text-anchor="end" fill="#888" font-family="Arial,sans-serif">85</text>
<line x1="73.0" y1="324.8" x2="78.0" y2="324.8" stroke="#999" stroke-width="1"/>
<line x1="78.0" y1="324.8" x2="1100.0" y2="324.8" stroke="#e8e8e8" stroke-width="0.7" stroke-dasharray="4,3"/>
<text x="70.0" y="328.8" font-size="9" font-weight="normal" text-anchor="end" fill="#888" font-family="Arial,sans-serif">90</text>
<line x1="73.0" y1="316.2" x2="78.0" y2="316.2" stroke="#999" stroke-width="1"/>
<line x1="78.0" y1="316.2" x2="1100.0" y2="316.2" stroke="#e8e8e8" stroke-width="0.7" stroke-dasharray="4,3"/>
<text x="70.0" y="320.2" font-size="9" font-weight="normal" text-anchor="end" fill="#888" font-family="Arial,sans-serif">95</text>
<line x1="73.0" y1="307.6" x2="78.0" y2="307.6" stroke="#999" stroke-width="1"/>
<line x1="78.0" y1="307.6" x2="1100.0" y2="307.6" stroke="#e8e8e8" stroke-width="0.7" stroke-dasharray="4,3"/>
<text x="70.0" y="311.6" font-size="9" font-weight="normal" text-anchor="end" fill="#888" font-family="Arial,sans-serif">100</text>
<line x1="73.0" y1="299.0" x2="78.0" y2="299.0" stroke="#999" stroke-width="1"/>
<line x1="78.0" y1="299.0" x2="1100.0" y2="299.0" stroke="#e8e8e8" stroke-width="0.7" stroke-dasharray="4,3"/>
<text x="70.0" y="303.0" font-size="9" font-weight="normal" text-anchor="end" fill="#888" font-family="Arial,sans-serif">105</text>
<line x1="73.0" y1="290.3" x2="78.0" y2="290.3" stroke="#999" stroke-width="1"/>
<line x1="78.0" y1="290.3" x2="1100.0" y2="290.3" stroke="#e8e8e8" stroke-width="0.7" stroke-dasharray="4,3"/>
<text x="70.0" y="294.3" font-size="9" font-weight="normal" text-anchor="end" fill="#888" font-family="Arial,sans-serif">110</text>
<line x1="73.0" y1="281.7" x2="78.0" y2="281.7" stroke="#999" stroke-width="1"/>
<line x1="78.0" y1="281.7" x2="1100.0" y2="281.7" stroke="#e8e8e8" stroke-width="0.7" stroke-dasharray="4,3"/>
<text x="70.0" y="285.7" font-size="9" font-weight="normal" text-anchor="end" fill="#888" font-family="Arial,sans-serif">115</text>
<line x1="73.0" y1="273.1" x2="78.0" y2="273.1" stroke="#999" stroke-width="1"/>
<line x1="78.0" y1="273.1" x2="1100.0" y2="273.1" stroke="#e8e8e8" stroke-width="0.7" stroke-dasharray="4,3"/>
<text x="70.0" y="277.1" font-size="9" font-weight="normal" text-anchor="end" fill="#888" font-family="Arial,sans-serif">120</text>
<line x1="73.0" y1="264.5" x2="78.0" y2="264.5" stroke="#999" stroke-width="1"/>
<line x1="78.0" y1="264.5" x2="1100.0" y2="264.5" stroke="#e8e8e8" stroke-width="0.7" stroke-dasharray="4,3"/>
<text x="70.0" y="268.5" font-size="9" font-weight="normal" text-anchor="end" fill="#888" font-family="Arial,sans-serif">125</text>
<line x1="73.0" y1="255.9" x2="78.0" y2="255.9" stroke="#999" stroke-width="1"/>
<line x1="78.0" y1="255.9" x2="1100.0" y2="255.9" stroke="#e8e8e8" stroke-width="0.7" stroke-dasharray="4,3"/>
<text x="70.0" y="259.9" font-size="9" font-weight="normal" text-anchor="end" fill="#888" font-family="Arial,sans-serif">130</text>
<line x1="73.0" y1="247.2" x2="78.0" y2="247.2" stroke="#999" stroke-width="1"/>
<line x1="78.0" y1="247.2" x2="1100.0" y2="247.2" stroke="#e8e8e8" stroke-width="0.7" stroke-dasharray="4,3"/>
<text x="70.0" y="251.2" font-size="9" font-weight="normal" text-anchor="end" fill="#888" font-family="Arial,sans-serif">135</text>
<line x1="73.0" y1="238.6" x2="78.0" y2="238.6" stroke="#999" stroke-width="1"/>
<line x1="78.0" y1="238.6" x2="1100.0" y2="238.6" stroke="#e8e8e8" stroke-width="0.7" stroke-dasharray="4,3"/>
<text x="70.0" y="242.6" font-size="9" font-weight="normal" text-anchor="end" fill="#888" font-family="Arial,sans-serif">140</text>
<line x1="73.0" y1="230.0" x2="78.0" y2="230.0" stroke="#999" stroke-width="1"/>
<line x1="78.0" y1="230.0" x2="1100.0" y2="230.0" stroke="#e8e8e8" stroke-width="0.7" stroke-dasharray="4,3"/>
<text x="70.0" y="234.0" font-size="9" font-weight="normal" text-anchor="end" fill="#888" font-family="Arial,sans-serif">145</text>
<line x1="73.0" y1="221.4" x2="78.0" y2="221.4" stroke="#999" stroke-width="1"/>
<line x1="78.0" y1="221.4" x2="1100.0" y2="221.4" stroke="#e8e8e8" stroke-width="0.7" stroke-dasharray="4,3"/>
<text x="70.0" y="225.4" font-size="9" font-weight="normal" text-anchor="end" fill="#888" font-family="Arial,sans-serif">150</text>
<line x1="73.0" y1="212.8" x2="78.0" y2="212.8" stroke="#999" stroke-width="1"/>
<line x1="78.0" y1="212.8" x2="1100.0" y2="212.8" stroke="#e8e8e8" stroke-width="0.7" stroke-dasharray="4,3"/>
<text x="70.0" y="216.8" font-size="9" font-weight="normal" text-anchor="end" fill="#888" font-family="Arial,sans-serif">155</text>
<line x1="73.0" y1="204.1" x2="78.0" y2="204.1" stroke="#999" stroke-width="1"/>
<line x1="78.0" y1="204.1" x2="1100.0" y2="204.1" stroke="#e8e8e8" stroke-width="0.7" stroke-dasharray="4,3"/>
<text x="70.0" y="208.1" font-size="9" font-weight="normal" text-anchor="end" fill="#888" font-family="Arial,sans-serif">160</text>
<line x1="73.0" y1="195.5" x2="78.0" y2="195.5" stroke="#999" stroke-width="1"/>
<line x1="78.0" y1="195.5" x2="1100.0" y2="195.5" stroke="#e8e8e8" stroke-width="0.7" stroke-dasharray="4,3"/>
<text x="70.0" y="199.5" font-size="9" font-weight="normal" text-anchor="end" fill="#888" font-family="Arial,sans-serif">165</text>
<line x1="73.0" y1="186.9" x2="78.0" y2="186.9" stroke="#999" stroke-width="1"/>
<line x1="78.0" y1="186.9" x2="1100.0" y2="186.9" stroke="#e8e8e8" stroke-width="0.7" stroke-dasharray="4,3"/>
<text x="70.0" y="190.9" font-size="9" font-weight="normal" text-anchor="end" fill="#888" font-family="Arial,sans-serif">170</text>
<line x1="73.0" y1="178.3" x2="78.0" y2="178.3" stroke="#999" stroke-width="1"/>
<line x1="78.0" y1="178.3" x2="1100.0" y2="178.3" stroke="#e8e8e8" stroke-width="0.7" stroke-dasharray="4,3"/>
<text x="70.0" y="182.3" font-size="9" font-weight="normal" text-anchor="end" fill="#888" font-family="Arial,sans-serif">175</text>
<line x1="73.0" y1="169.7" x2="78.0" y2="169.7" stroke="#999" stroke-width="1"/>
<line x1="78.0" y1="169.7" x2="1100.0" y2="169.7" stroke="#e8e8e8" stroke-width="0.7" stroke-dasharray="4,3"/>
<text x="70.0" y="173.7" font-size="9" font-weight="normal" text-anchor="end" fill="#888" font-family="Arial,sans-serif">180</text>
<line x1="73.0" y1="161.0" x2="78.0" y2="161.0" stroke="#999" stroke-width="1"/>
<line x1="78.0" y1="161.0" x2="1100.0" y2="161.0" stroke="#e8e8e8" stroke-width="0.7" stroke-dasharray="4,3"/>
<text x="70.0" y="165.0" font-size="9" font-weight="normal" text-anchor="end" fill="#888" font-family="Arial,sans-serif">185</text>
<line x1="73.0" y1="152.4" x2="78.0" y2="152.4" stroke="#999" stroke-width="1"/>
<line x1="78.0" y1="152.4" x2="1100.0" y2="152.4" stroke="#e8e8e8" stroke-width="0.7" stroke-dasharray="4,3"/>
<text x="70.0" y="156.4" font-size="9" font-weight="normal" text-anchor="end" fill="#888" font-family="Arial,sans-serif">190</text>
<line x1="73.0" y1="143.8" x2="78.0" y2="143.8" stroke="#999" stroke-width="1"/>
<line x1="78.0" y1="143.8" x2="1100.0" y2="143.8" stroke="#e8e8e8" stroke-width="0.7" stroke-dasharray="4,3"/>
<text x="70.0" y="147.8" font-size="9" font-weight="normal" text-anchor="end" fill="#888" font-family="Arial,sans-serif">195</text>
<line x1="73.0" y1="135.2" x2="78.0" y2="135.2" stroke="#999" stroke-width="1"/>
<line x1="78.0" y1="135.2" x2="1100.0" y2="135.2" stroke="#e8e8e8" stroke-width="0.7" stroke-dasharray="4,3"/>
<text x="70.0" y="139.2" font-size="9" font-weight="normal" text-anchor="end" fill="#888" font-family="Arial,sans-serif">200</text>
<line x1="73.0" y1="126.6" x2="78.0" y2="126.6" stroke="#999" stroke-width="1"/>
<line x1="78.0" y1="126.6" x2="1100.0" y2="126.6" stroke="#e8e8e8" stroke-width="0.7" stroke-dasharray="4,3"/>
<text x="70.0" y="130.6" font-size="9" font-weight="normal" text-anchor="end" fill="#888" font-family="Arial,sans-serif">205</text>
<line x1="73.0" y1="117.9" x2="78.0" y2="117.9" stroke="#999" stroke-width="1"/>
<line x1="78.0" y1="117.9" x2="1100.0" y2="117.9" stroke="#e8e8e8" stroke-width="0.7" stroke-dasharray="4,3"/>
<text x="70.0" y="121.9" font-size="9" font-weight="normal" text-anchor="end" fill="#888" font-family="Arial,sans-serif">210</text>
<line x1="73.0" y1="109.3" x2="78.0" y2="109.3" stroke="#999" stroke-width="1"/>
<line x1="78.0" y1="109.3" x2="1100.0" y2="109.3" stroke="#e8e8e8" stroke-width="0.7" stroke-dasharray="4,3"/>
<text x="70.0" y="113.3" font-size="9" font-weight="normal" text-anchor="end" fill="#888" font-family="Arial,sans-serif">215</text>
<line x1="73.0" y1="100.7" x2="78.0" y2="100.7" stroke="#999" stroke-width="1"/>
<line x1="78.0" y1="100.7" x2="1100.0" y2="100.7" stroke="#e8e8e8" stroke-width="0.7" stroke-dasharray="4,3"/>
<text x="70.0" y="104.7" font-size="9" font-weight="normal" text-anchor="end" fill="#888" font-family="Arial,sans-serif">220</text>
<line x1="73.0" y1="92.1" x2="78.0" y2="92.1" stroke="#999" stroke-width="1"/>
<line x1="78.0" y1="92.1" x2="1100.0" y2="92.1" stroke="#e8e8e8" stroke-width="0.7" stroke-dasharray="4,3"/>
<text x="70.0" y="96.1" font-size="9" font-weight="normal" text-anchor="end" fill="#888" font-family="Arial,sans-serif">225</text>
<line x1="73.0" y1="83.4" x2="78.0" y2="83.4" stroke="#999" stroke-width="1"/>
<line x1="78.0" y1="83.4" x2="1100.0" y2="83.4" stroke="#e8e8e8" stroke-width="0.7" stroke-dasharray="4,3"/>
<text x="70.0" y="87.4" font-size="9" font-weight="normal" text-anchor="end" fill="#888" font-family="Arial,sans-serif">230</text>
<line x1="73.0" y1="74.8" x2="78.0" y2="74.8" stroke="#999" stroke-width="1"/>
<line x1="78.0" y1="74.8" x2="1100.0" y2="74.8" stroke="#e8e8e8" stroke-width="0.7" stroke-dasharray="4,3"/>
<text x="70.0" y="78.8" font-size="9" font-weight="normal" text-anchor="end" fill="#888" font-family="Arial,sans-serif">235</text>
<line x1="78.0" y1="480.0" x2="1100.0" y2="480.0" stroke="#999" stroke-width="1"/>
<line x1="333.5" y1="480.0" x2="333.5" y2="485.0" stroke="#999" stroke-width="1"/>
<line x1="333.5" y1="68.0" x2="333.5" y2="480.0" stroke="#e8e8e8" stroke-width="0.7" stroke-dasharray="4,3"/>
<text x="333.5" y="496.0" font-size="10" font-weight="normal" text-anchor="middle" fill="#888" font-family="Arial,sans-serif">3.135</text>
<line x1="589.0" y1="480.0" x2="589.0" y2="485.0" stroke="#999" stroke-width="1"/>
<line x1="589.0" y1="68.0" x2="589.0" y2="480.0" stroke="#e8e8e8" stroke-width="0.7" stroke-dasharray="4,3"/>
<text x="589.0" y="496.0" font-size="10" font-weight="normal" text-anchor="middle" fill="#888" font-family="Arial,sans-serif">3.3</text>
<line x1="844.5" y1="480.0" x2="844.5" y2="485.0" stroke="#999" stroke-width="1"/>
<line x1="844.5" y1="68.0" x2="844.5" y2="480.0" stroke="#e8e8e8" stroke-width="0.7" stroke-dasharray="4,3"/>
<text x="844.5" y="496.0" font-size="10" font-weight="normal" text-anchor="middle" fill="#888" font-family="Arial,sans-serif">3.465</text>
<text x="16.0" y="274.0" font-size="11" font-weight="normal" text-anchor="middle" fill="#555" font-family="Arial,sans-serif" transform="rotate(-90,16,274.0)">Undershoot [mV]</text>
<text x="589.0" y="550.0" font-size="11" font-weight="normal" text-anchor="middle" fill="#555" font-family="Arial,sans-serif">Vin Setpoint [V]</text>
<g class="series pmic-series" data-mode="AUTO_PFM" data-chip="21988" data-temp="0" data-reg="DC2DC_ANA">
<path d="M 321.0,385.9 L 576.5,393.6 L 832.0,391.0" fill="none" stroke="#3498db" stroke-width="1.8" stroke-dasharray="5,3" opacity="0.6"/>
<circle cx="321.0" cy="385.9" r="6" fill="#3498db" stroke="white" opacity="1.0"/>
<circle cx="576.5" cy="393.6" r="6" fill="#3498db" stroke="white" opacity="1.0"/>
<circle cx="832.0" cy="391.0" r="6" fill="#3498db" stroke="white" opacity="1.0"/>
</g>
<g class="series pmic-series" data-mode="AUTO_PFM" data-chip="21988" data-temp="25" data-reg="DC2DC_ANA">
<path d="M 326.0,404.8 L 581.5,402.6 L 837.0,417.4" fill="none" stroke="#e67e22" stroke-width="1.8" stroke-dasharray="5,3" opacity="0.6"/>
<circle cx="326.0" cy="404.8" r="6" fill="#e67e22" stroke="white" opacity="1.0"/>
<circle cx="581.5" cy="402.6" r="6" fill="#e67e22" stroke="white" opacity="1.0"/>
<circle cx="837.0" cy="417.4" r="6" fill="#e67e22" stroke="white" opacity="1.0"/>
</g>
<g class="series pmic-series" data-mode="AUTO_PFM" data-chip="21988" data-temp="80" data-reg="DC2DC_ANA">
<path d="M 331.0,421.0 L 586.5,435.2 L 842.0,424.8" fill="none" stroke="#2ecc71" stroke-width="1.8" stroke-dasharray="5,3" opacity="0.6"/>
<circle cx="331.0" cy="421.0" r="6" fill="#2ecc71" stroke="white" opacity="1.0"/>
<circle cx="586.5" cy="435.2" r="6" fill="#2ecc71" stroke="white" opacity="1.0"/>
<circle cx="842.0" cy="424.8" r="6" fill="#2ecc71" stroke="white" opacity="1.0"/>
</g>
<g class="series pmic-series" data-mode="AUTO_PFM" data-chip="31927" data-temp="0" data-reg="DC2DC_ANA">
<path d="M 336.0,392.4 L 591.5,386.2 L 847.0,387.6" fill="none" stroke="#9b59b6" stroke-width="1.8" stroke-dasharray="5,3" opacity="0.6"/>
<circle cx="336.0" cy="392.4" r="6" fill="#9b59b6" stroke="white" opacity="1.0"/>
<circle cx="591.5" cy="386.2" r="6" fill="#9b59b6" stroke="white" opacity="1.0"/>
<circle cx="847.0" cy="387.6" r="6" fill="#9b59b6" stroke="white" opacity="1.0"/>
</g>
<g class="series pmic-series" data-mode="AUTO_PFM" data-chip="31927" data-temp="25" data-reg="DC2DC_ANA">
<path d="M 341.0,367.8 L 596.5,370.2 L 852.0,372.4" fill="none" stroke="#1abc9c" stroke-width="1.8" stroke-dasharray="5,3" opacity="0.6"/>
<circle cx="341.0" cy="367.8" r="6" fill="#1abc9c" stroke="white" opacity="1.0"/>
<circle cx="596.5" cy="370.2" r="6" fill="#1abc9c" stroke="white" opacity="1.0"/>
<circle cx="852.0" cy="372.4" r="6" fill="#1abc9c" stroke="white" opacity="1.0"/>
</g>
<g class="series pmic-series" data-mode="AUTO_PFM" data-chip="31927" data-temp="80" data-reg="DC2DC_ANA">
<path d="M 346.0,101.4 L 601.5,102.9 L 857.0,107.6" fill="none" stroke="#e74c3c" stroke-width="1.8" stroke-dasharray="5,3" opacity="0.6"/>
<circle cx="346.0" cy="101.4" r="6" fill="#e74c3c" stroke="white" opacity="1.0"/>
<circle cx="601.5" cy="102.9" r="6" fill="#e74c3c" stroke="white" opacity="1.0"/>
<circle cx="857.0" cy="107.6" r="6" fill="#e74c3c" stroke="white" opacity="1.0"/>
</g>
<g class="legend-item" data-mode="AUTO_PFM" data-chip="21988" data-temp="0" data-reg="DC2DC_ANA">
<rect x="1116.0" y="69.0" width="18.0" height="4.0" fill="#3498db" stroke="none" stroke-width="1" opacity="1.0" rx="2"/>
<circle cx="1125.0" cy="71.0" r="5" fill="#3498db" stroke="none" opacity="1.0"/>
<text x="1140.0" y="76.0" font-size="9" font-weight="normal" text-anchor="start" fill="#333" font-family="Arial,sans-serif">Ch21988 | T=0°C | step↑</text>
</g>
<g class="legend-item" data-mode="AUTO_PFM" data-chip="21988" data-temp="25" data-reg="DC2DC_ANA">
<rect x="1116.0" y="86.0" width="18.0" height="4.0" fill="#e67e22" stroke="none" stroke-width="1" opacity="1.0" rx="2"/>
<circle cx="1125.0" cy="88.0" r="5" fill="#e67e22" stroke="none" opacity="1.0"/>
<text x="1140.0" y="93.0" font-size="9" font-weight="normal" text-anchor="start" fill="#333" font-family="Arial,sans-serif">Ch21988 | T=25°C | step↑</text>
</g>
<g class="legend-item" data-mode="AUTO_PFM" data-chip="21988" data-temp="80" data-reg="DC2DC_ANA">
<rect x="1116.0" y="103.0" width="18.0" height="4.0" fill="#2ecc71" stroke="none" stroke-width="1" opacity="1.0" rx="2"/>
<circle cx="1125.0" cy="105.0" r="5" fill="#2ecc71" stroke="none" opacity="1.0"/>
<text x="1140.0" y="110.0" font-size="9" font-weight="normal" text-anchor="start" fill="#333" font-family="Arial,sans-serif">Ch21988 | T=80°C | step↑</text>
</g>
<g class="legend-item" data-mode="AUTO_PFM" data-chip="31927" data-temp="0" data-reg="DC2DC_ANA">
<rect x="1116.0" y="120.0" width="18.0" height="4.0" fill="#9b59b6" stroke="none" stroke-width="1" opacity="1.0" rx="2"/>
<circle cx="1125.0" cy="122.0" r="5" fill="#9b59b6" stroke="none" opacity="1.0"/>
<text x="1140.0" y="127.0" font-size="9" font-weight="normal" text-anchor="start" fill="#333" font-family="Arial,sans-serif">Ch31927 | T=0°C | step↑</text>
</g>
<g class="legend-item" data-mode="AUTO_PFM" data-chip="31927" data-temp="25" data-reg="DC2DC_ANA">
<rect x="1116.0" y="137.0" width="18.0" height="4.0" fill="#1abc9c" stroke="none" stroke-width="1" opacity="1.0" rx="2"/>
<circle cx="1125.0" cy="139.0" r="5" fill="#1abc9c" stroke="none" opacity="1.0"/>
<text x="1140.0" y="144.0" font-size="9" font-weight="normal" text-anchor="start" fill="#333" font-family="Arial,sans-serif">Ch31927 | T=25°C | step↑</text>
</g>
<g class="legend-item" data-mode="AUTO_PFM" data-chip="31927" data-temp="80" data-reg="DC2DC_ANA">
<rect x="1116.0" y="154.0" width="18.0" height="4.0" fill="#e74c3c" stroke="none" stroke-width="1" opacity="1.0" rx="2"/>
<circle cx="1125.0" cy="156.0" r="5" fill="#e74c3c" stroke="none" opacity="1.0"/>
<text x="1140.0" y="161.0" font-size="9" font-weight="normal" text-anchor="start" fill="#333" font-family="Arial,sans-serif">Ch31927 | T=80°C | step↑</text>
</g>
<rect class="cursor-overlay" x="78.0" y="68.0" width="1022.0" height="412.0" fill="transparent" style="cursor:default" data-xmin="78" data-xmax="1100" data-ymin="0" data-ymax="238.96" data-pl="78.0" data-pr="1100.0" data-pt="68.0" data-pb="480.0"/>
<g class="cursor-layer" style="pointer-events:none;display:none"><line class="cur-v" x1="0" y1="68.0" x2="0" y2="480.0" stroke="#e74c3c" stroke-width="1.2" stroke-dasharray="5,3"/><line class="cur-h" x1="78.0" y1="0" x2="1100.0" y2="0" stroke="#e74c3c" stroke-width="1.2" stroke-dasharray="5,3"/><rect class="cur-tip-bg" x="0" y="0" width="148" height="44" rx="5" fill="#1a252f" stroke="#34495e" stroke-width="1" opacity="0.92"/><text class="cur-tip-x" x="0" y="0" font-size="11" font-family="Arial,sans-serif" fill="#ecf0f1"/><text class="cur-tip-y" x="0" y="0" font-size="11" font-family="Arial,sans-serif" fill="#2ecc71"/></g>
</svg>