<svg xmlns="http://www.w3.org/2000/svg" width="1400" height="520" viewBox="0 0 1400 520">
<rect width="1400" height="520" fill="#ffffff"/>
<text x="700.0" y="28.0" font-size="16" font-weight="bold" text-anchor="middle" fill="#2c3e50" font-family="Arial,sans-serif">Static Line Regulation — Digital DC2DC  Vout=0.7V  [AUTO_PFM]  Iload=100µA</text>
<line x1="78.0" y1="68.0" x2="78.0" y2="440.0" stroke="#999" stroke-width="1"/>
<line x1="73.0" y1="440.0" x2="78.0" y2="440.0" stroke="#999" stroke-width="1"/>
<line x1="78.0" y1="440.0" x2="1100.0" y2="440.0" stroke="#e8e8e8" stroke-width="0.7" stroke-dasharray="4,3"/>
<text x="70.0" y="444.0" font-size="9" font-weight="normal" text-anchor="end" fill="#888" font-family="Arial,sans-serif">0.704</text>
<line x1="73.0" y1="365.6" x2="78.0" y2="365.6" stroke="#999" stroke-width="1"/>
<line x1="78.0" y1="365.6" x2="1100.0" y2="365.6" stroke="#e8e8e8" stroke-width="0.7" stroke-dasharray="4,3"/>
<text x="70.0" y="369.6" font-size="9" font-weight="normal" text-anchor="end" fill="#888" font-family="Arial,sans-serif">0.707</text>
<line x1="73.0" y1="291.2" x2="78.0" y2="291.2" stroke="#999" stroke-width="1"/>
<line x1="78.0" y1="291.2" x2="1100.0" y2="291.2" stroke="#e8e8e8" stroke-width="0.7" stroke-dasharray="4,3"/>
<text x="70.0" y="295.2" font-size="9" font-weight="normal" text-anchor="end" fill="#888" font-family="Arial,sans-serif">0.711</text>
<line x1="73.0" y1="216.8" x2="78.0" y2="216.8" stroke="#999" stroke-width="1"/>
<line x1="78.0" y1="216.8" x2="1100.0" y2="216.8" stroke="#e8e8e8" stroke-width="0.7" stroke-dasharray="4,3"/>
<text x="70.0" y="220.8" font-size="9" font-weight="normal" text-anchor="end" fill="#888" font-family="Arial,sans-serif">0.714</text>
<line x1="73.0" y1="142.4" x2="78.0" y2="142.4" stroke="#999" stroke-width="1"/>
<line x1="78.0" y1="142.4" x2="1100.0" y2="142.4" stroke="#e8e8e8" stroke-width="0.7" stroke-dasharray="4,3"/>
<text x="70.0" y="146.4" font-size="9" font-weight="normal" text-anchor="end" fill="#888" font-family="Arial,sans-serif">0.718</text>
<line x1="73.0" y1="68.0" x2="78.0" y2="68.0" stroke="#999" stroke-width="1"/>
<line x1="78.0" y1="68.0" x2="1100.0" y2="68.0" stroke="#e8e8e8" stroke-width="0.7" stroke-dasharray="4,3"/>
<text x="70.0" y="72.0" font-size="9" font-weight="normal" text-anchor="end" fill="#888" font-family="Arial,sans-serif">0.721</text>
<line x1="78.0" y1="440.0" x2="1100.0" y2="440.0" stroke="#999" stroke-width="1"/>
<line x1="78.0" y1="440.0" x2="78.0" y2="445.0" stroke="#999" stroke-width="1"/>
<line x1="78.0" y1="68.0" x2="78.0" y2="440.0" stroke="#e8e8e8" stroke-width="0.7" stroke-dasharray="4,3"/>
<text x="78.0" y="456.0" font-size="9" font-weight="normal" text-anchor="middle" fill="#888" font-family="Arial,sans-serif">2.45</text>
<line x1="224.0" y1="440.0" x2="224.0" y2="445.0" stroke="#999" stroke-width="1"/>
<line x1="224.0" y1="68.0" x2="224.0" y2="440.0" stroke="#e8e8e8" stroke-width="0.7" stroke-dasharray="4,3"/>
<text x="224.0" y="456.0" font-size="9" font-weight="normal" text-anchor="middle" fill="#888" font-family="Arial,sans-serif">2.62</text>
<line x1="370.0" y1="440.0" x2="370.0" y2="445.0" stroke="#999" stroke-width="1"/>
<line x1="370.0" y1="68.0" x2="370.0" y2="440.0" stroke="#e8e8e8" stroke-width="0.7" stroke-dasharray="4,3"/>
<text x="370.0" y="456.0" font-size="9" font-weight="normal" text-anchor="middle" fill="#888" font-family="Arial,sans-serif">2.79</text>
<line x1="516.0" y1="440.0" x2="516.0" y2="445.0" stroke="#999" stroke-width="1"/>
<line x1="516.0" y1="68.0" x2="516.0" y2="440.0" stroke="#e8e8e8" stroke-width="0.7" stroke-dasharray="4,3"/>
<text x="516.0" y="456.0" font-size="9" font-weight="normal" text-anchor="middle" fill="#888" font-family="Arial,sans-serif">2.96</text>
<line x1="662.0" y1="440.0" x2="662.0" y2="445.0" stroke="#999" stroke-width="1"/>
<line x1="662.0" y1="68.0" x2="662.0" y2="440.0" stroke="#e8e8e8" stroke-width="0.7" stroke-dasharray="4,3"/>
<text x="662.0" y="456.0" font-size="9" font-weight="normal" text-anchor="middle" fill="#888" font-family="Arial,sans-serif">3.13</text>
<line x1="808.0" y1="440.0" x2="808.0" y2="445.0" stroke="#999" stroke-width="1"/>
<line x1="808.0" y1="68.0" x2="808.0" y2="440.0" stroke="#e8e8e8" stroke-width="0.7" stroke-dasharray="4,3"/>
<text x="808.0" y="456.0" font-size="9" font-weight="normal" text-anchor="middle" fill="#888" font-family="Arial,sans-serif">3.3</text>
<line x1="954.0" y1="440.0" x2="954.0" y2="445.0" stroke="#999" stroke-width="1"/>
<line x1="954.0" y1="68.0" x2="954.0" y2="440.0" stroke="#e8e8e8" stroke-width="0.7" stroke-dasharray="4,3"/>
<text x="954.0" y="456.0" font-size="9" font-weight="normal" text-anchor="middle" fill="#888" font-family="Arial,sans-serif">3.46</text>
<line x1="1100.0" y1="440.0" x2="1100.0" y2="445.0" stroke="#999" stroke-width="1"/>
<line x1="1100.0" y1="68.0" x2="1100.0" y2="440.0" stroke="#e8e8e8" stroke-width="0.7" stroke-dasharray="4,3"/>
<text x="1100.0" y="456.0" font-size="9" font-weight="normal" text-anchor="middle" fill="#888" font-family="Arial,sans-serif">3.63</text>
<text x="16.0" y="254.0" font-size="11" font-weight="normal" text-anchor="middle" fill="#555" font-family="Arial,sans-serif" transform="rotate(-90,16,254.0)">Output Voltage  Vout [V]</text>
<text x="589.0" y="510.0" font-size="11" font-weight="normal" text-anchor="middle" fill="#555" font-family="Arial,sans-serif">Input Voltage  Vin [V]</text>
<g class="series pmic-series" data-mode="AUTO_PFM" data-chip="21988" data-temp="0" data-reg="DC2DC_DIG">
<path d="M 124.5,125.7 L 150.3,127.9 L 176.0,123.6 L 201.9,134.3 L 227.7,127.9 L 253.5,125.7 L 279.3,121.4 L 305.0,136.4 L 330.8,132.1 L 356.8,130.0 L 382.6,112.9 L 408.4,117.2 L 434.1,127.9 L 459.9,132.1 L 485.6,123.6 L 511.7,121.4 L 537.4,121.4 L 563.2,115.0 L 589.0,127.9 L 614.8,127.9 L 640.6,125.7 L 666.5,119.3 L 692.4,117.2 L 718.2,110.8 L 743.9,106.5 L 769.6,102.2 L 795.4,121.4 L 821.3,134.3 L 847.1,130.0 L 872.8,112.9 L 898.6,117.2 L 924.4,119.3 L 950.2,102.2 L 976.1,100.1 L 1001.9,93.7 L 1027.7,93.7 L 1053.5,108.6" fill="none" stroke="#3498db" stroke-width="2.2" stroke-linejoin="round" opacity="0.9"/>
<circle cx="124.5" cy="125.7" r="4" fill="#3498db" stroke="white" opacity="1.0"/>
<circle cx="150.3" cy="127.9" r="4" fill="#3498db" stroke="white" opacity="1.0"/>
<circle cx="176.0" cy="123.6" r="4" fill="#3498db" stroke="white" opacity="1.0"/>
<circle cx="201.9" cy="134.3" r="4" fill="#3498db" stroke="white" opacity="1.0"/>
<circle cx="227.7" cy="127.9" r="4" fill="#3498db" stroke="white" opacity="1.0"/>
<circle cx="253.5" cy="125.7" r="4" fill="#3498db" stroke="white" opacity="1.0"/>
<circle cx="279.3" cy="121.4" r="4" fill="#3498db" stroke="white" opacity="1.0"/>
<circle cx="305.0" cy="136.4" r="4" fill="#3498db" stroke="white" opacity="1.0"/>
<circle cx="330.8" cy="132.1" r="4" fill="#3498db" stroke="white" opacity="1.0"/>
<circle cx="356.8" cy="130.0" r="4" fill="#3498db" stroke="white" opacity="1.0"/>
<circle cx="382.6" cy="112.9" r="4" fill="#3498db" stroke="white" opacity="1.0"/>
<circle cx="408.4" cy="117.2" r="4" fill="#3498db" stroke="white" opacity="1.0"/>
<circle cx="434.1" cy="127.9" r="4" fill="#3498db" stroke="white" opacity="1.0"/>
<circle cx="459.9" cy="132.1" r="4" fill="#3498db" stroke="white" opacity="1.0"/>
<circle cx="485.6" cy="123.6" r="4" fill="#3498db" stroke="white" opacity="1.0"/>
<circle cx="511.7" cy="121.4" r="4" fill="#3498db" stroke="white" opacity="1.0"/>
<circle cx="537.4" cy="121.4" r="4" fill="#3498db" stroke="white" opacity="1.0"/>
<circle cx="563.2" cy="115.0" r="4" fill="#3498db" stroke="white" opacity="1.0"/>
<circle cx="589.0" cy="127.9" r="4" fill="#3498db" stroke="white" opacity="1.0"/>
<circle cx="614.8" cy="127.9" r="4" fill="#3498db" stroke="white" opacity="1.0"/>
<circle cx="640.6" cy="125.7" r="4" fill="#3498db" stroke="white" opacity="1.0"/>
<circle cx="666.5" cy="119.3" r="4" fill="#3498db" stroke="white" opacity="1.0"/>
<circle cx="692.4" cy="117.2" r="4" fill="#3498db" stroke="white" opacity="1.0"/>
<circle cx="718.2" cy="110.8" r="4" fill="#3498db" stroke="white" opacity="1.0"/>
<circle cx="743.9" cy="106.5" r="4" fill="#3498db" stroke="white" opacity="1.0"/>
<circle cx="769.6" cy="102.2" r="4" fill="#3498db" stroke="white" opacity="1.0"/>
<circle cx="795.4" cy="121.4" r="4" fill="#3498db" stroke="white" opacity="1.0"/>
<circle cx="821.3" cy="134.3" r="4" fill="#3498db" stroke="white" opacity="1.0"/>
<circle cx="847.1" cy="130.0" r="4" fill="#3498db" stroke="white" opacity="1.0"/>
<circle cx="872.8" cy="112.9" r="4" fill="#3498db" stroke="white" opacity="1.0"/>
<circle cx="898.6" cy="117.2" r="4" fill="#3498db" stroke="white" opacity="1.0"/>
<circle cx="924.4" cy="119.3" r="4" fill="#3498db" stroke="white" opacity="1.0"/>
<circle cx="950.2" cy="102.2" r="4" fill="#3498db" stroke="white" opacity="1.0"/>
<circle cx="976.1" cy="100.1" r="4" fill="#3498db" stroke="white" opacity="1.0"/>
<circle cx="1001.9" cy="93.7" r="4" fill="#3498db" stroke="white" opacity="1.0"/>
<circle cx="1027.7" cy="93.7" r="4" fill="#3498db" stroke="white" opacity="1.0"/>
<circle cx="1053.5" cy="108.6" r="4" fill="#3498db" stroke="white" opacity="1.0"/>
</g>
<g class="series pmic-series" data-mode="AUTO_PFM" data-chip="21988" data-temp="25" data-reg="DC2DC_DIG">
<path d="M 124.5,213.4 L 150.2,217.7 L 176.0,215.5 L 201.9,204.8 L 227.7,219.8 L 253.5,213.4 L 279.3,209.1 L 305.0,202.7 L 330.9,209.1 L 356.8,215.5 L 382.6,213.4 L 408.4,202.7 L 434.1,196.3 L 459.9,200.6 L 485.7,209.1 L 511.7,204.8 L 537.4,202.7 L 563.2,194.1 L 589.0,187.7 L 614.8,189.9 L 640.6,211.2 L 666.5,211.2 L 692.4,202.7 L 718.2,196.3 L 743.9,194.1 L 769.6,194.1 L 795.4,187.7 L 821.4,183.4 L 847.2,207.0 L 872.8,211.2 L 898.6,202.7 L 924.5,198.4 L 950.2,192.0 L 976.1,185.6 L 1001.9,183.4 L 1027.7,185.6 L 1053.5,174.9" fill="none" stroke="#e67e22" stroke-width="2.2" stroke-linejoin="round" opacity="0.9"/>
<circle cx="124.5" cy="213.4" r="4" fill="#e67e22" stroke="white" opacity="1.0"/>
<circle cx="150.2" cy="217.7" r="4" fill="#e67e22" stroke="white" opacity="1.0"/>
<circle cx="176.0" cy="215.5" r="4" fill="#e67e22" stroke="white" opacity="1.0"/>
<circle cx="201.9" cy="204.8" r="4" fill="#e67e22" stroke="white" opacity="1.0"/>
<circle cx="227.7" cy="219.8" r="4" fill="#e67e22" stroke="white" opacity="1.0"/>
<circle cx="253.5" cy="213.4" r="4" fill="#e67e22" stroke="white" opacity="1.0"/>
<circle cx="279.3" cy="209.1" r="4" fill="#e67e22" stroke="white" opacity="1.0"/>
<circle cx="305.0" cy="202.7" r="4" fill="#e67e22" stroke="white" opacity="1.0"/>
<circle cx="330.9" cy="209.1" r="4" fill="#e67e22" stroke="white" opacity="1.0"/>
<circle cx="356.8" cy="215.5" r="4" fill="#e67e22" stroke="white" opacity="1.0"/>
<circle cx="382.6" cy="213.4" r="4" fill="#e67e22" stroke="white" opacity="1.0"/>
<circle cx="408.4" cy="202.7" r="4" fill="#e67e22" stroke="white" opacity="1.0"/>
<circle cx="434.1" cy="196.3" r="4" fill="#e67e22" stroke="white" opacity="1.0"/>
<circle cx="459.9" cy="200.6" r="4" fill="#e67e22" stroke="white" opacity="1.0"/>
<circle cx="485.7" cy="209.1" r="4" fill="#e67e22" stroke="white" opacity="1.0"/>
<circle cx="511.7" cy="204.8" r="4" fill="#e67e22" stroke="white" opacity="1.0"/>
<circle cx="537.4" cy="202.7" r="4" fill="#e67e22" stroke="white" opacity="1.0"/>
<circle cx="563.2" cy="194.1" r="4" fill="#e67e22" stroke="white" opacity="1.0"/>
<circle cx="589.0" cy="187.7" r="4" fill="#e67e22" stroke="white" opacity="1.0"/>
<circle cx="614.8" cy="189.9" r="4" fill="#e67e22" stroke="white" opacity="1.0"/>
<circle cx="640.6" cy="211.2" r="4" fill="#e67e22" stroke="white" opacity="1.0"/>
<circle cx="666.5" cy="211.2" r="4" fill="#e67e22" stroke="white" opacity="1.0"/>
<circle cx="692.4" cy="202.7" r="4" fill="#e67e22" stroke="white" opacity="1.0"/>
<circle cx="718.2" cy="196.3" r="4" fill="#e67e22" stroke="white" opacity="1.0"/>
<circle cx="743.9" cy="194.1" r="4" fill="#e67e22" stroke="white" opacity="1.0"/>
<circle cx="769.6" cy="194.1" r="4" fill="#e67e22" stroke="white" opacity="1.0"/>
<circle cx="795.4" cy="187.7" r="4" fill="#e67e22" stroke="white" opacity="1.0"/>
<circle cx="821.4" cy="183.4" r="4" fill="#e67e22" stroke="white" opacity="1.0"/>
<circle cx="847.2" cy="207.0" r="4" fill="#e67e22" stroke="white" opacity="1.0"/>
<circle cx="872.8" cy="211.2" r="4" fill="#e67e22" stroke="white" opacity="1.0"/>
<circle cx="898.6" cy="202.7" r="4" fill="#e67e22" stroke="white" opacity="1.0"/>
<circle cx="924.5" cy="198.4" r="4" fill="#e67e22" stroke="white" opacity="1.0"/>
<circle cx="950.2" cy="192.0" r="4" fill="#e67e22" stroke="white" opacity="1.0"/>
<circle cx="976.1" cy="185.6" r="4" fill="#e67e22" stroke="white" opacity="1.0"/>
<circle cx="1001.9" cy="183.4" r="4" fill="#e67e22" stroke="white" opacity="1.0"/>
<circle cx="1027.7" cy="185.6" r="4" fill="#e67e22" stroke="white" opacity="1.0"/>
<circle cx="1053.5" cy="174.9" r="4" fill="#e67e22" stroke="white" opacity="1.0"/>
</g>
<g class="series pmic-series" data-mode="AUTO_PFM" data-chip="21988" data-temp="80" data-reg="DC2DC_DIG">
<path d="M 124.5,149.2 L 150.2,145.0 L 176.1,140.7 L 201.9,147.1 L 227.7,142.8 L 253.5,140.7 L 279.3,136.4 L 305.0,142.8 L 330.9,149.2 L 356.8,140.7 L 382.6,138.6 L 408.4,130.0 L 434.1,138.6 L 459.9,147.1 L 485.7,140.7 L 511.7,138.6 L 537.4,138.6 L 563.2,130.0 L 589.0,125.7 L 614.8,142.8 L 640.6,145.0 L 666.5,136.4 L 692.4,132.1 L 718.2,123.6 L 743.9,121.4 L 769.6,115.0 L 795.4,117.2 L 821.4,145.0 L 847.2,145.0 L 872.8,140.7 L 898.6,134.3 L 924.5,127.9 L 950.2,125.7 L 976.1,121.4 L 1001.9,117.2 L 1027.7,110.8 L 1053.5,110.8" fill="none" stroke="#2ecc71" stroke-width="2.2" stroke-linejoin="round" opacity="0.9"/>
<circle cx="124.5" cy="149.2" r="4" fill="#2ecc71" stroke="white" opacity="1.0"/>
<circle cx="150.2" cy="145.0" r="4" fill="#2ecc71" stroke="white" opacity="1.0"/>
<circle cx="176.1" cy="140.7" r="4" fill="#2ecc71" stroke="white" opacity="1.0"/>
<circle cx="201.9" cy="147.1" r="4" fill="#2ecc71" stroke="white" opacity="1.0"/>
<circle cx="227.7" cy="142.8" r="4" fill="#2ecc71" stroke="white" opacity="1.0"/>
<circle cx="253.5" cy="140.7" r="4" fill="#2ecc71" stroke="white" opacity="1.0"/>
<circle cx="279.3" cy="136.4" r="4" fill="#2ecc71" stroke="white" opacity="1.0"/>
<circle cx="305.0" cy="142.8" r="4" fill="#2ecc71" stroke="white" opacity="1.0"/>
<circle cx="330.9" cy="149.2" r="4" fill="#2ecc71" stroke="white" opacity="1.0"/>
<circle cx="356.8" cy="140.7" r="4" fill="#2ecc71" stroke="white" opacity="1.0"/>
<circle cx="382.6" cy="138.6" r="4" fill="#2ecc71" stroke="white" opacity="1.0"/>
<circle cx="408.4" cy="130.0" r="4" fill="#2ecc71" stroke="white" opacity="1.0"/>
<circle cx="434.1" cy="138.6" r="4" fill="#2ecc71" stroke="white" opacity="1.0"/>
<circle cx="459.9" cy="147.1" r="4" fill="#2ecc71" stroke="white" opacity="1.0"/>
<circle cx="485.7" cy="140.7" r="4" fill="#2ecc71" stroke="white" opacity="1.0"/>
<circle cx="511.7" cy="138.6" r="4" fill="#2ecc71" stroke="white" opacity="1.0"/>
<circle cx="537.4" cy="138.6" r="4" fill="#2ecc71" stroke="white" opacity="1.0"/>
<circle cx="563.2" cy="130.0" r="4" fill="#2ecc71" stroke="white" opacity="1.0"/>
<circle cx="589.0" cy="125.7" r="4" fill="#2ecc71" stroke="white" opacity="1.0"/>
<circle cx="614.8" cy="142.8" r="4" fill="#2ecc71" stroke="white" opacity="1.0"/>
<circle cx="640.6" cy="145.0" r="4" fill="#2ecc71" stroke="white" opacity="1.0"/>
<circle cx="666.5" cy="136.4" r="4" fill="#2ecc71" stroke="white" opacity="1.0"/>
<circle cx="692.4" cy="132.1" r="4" fill="#2ecc71" stroke="white" opacity="1.0"/>
<circle cx="718.2" cy="123.6" r="4" fill="#2ecc71" stroke="white" opacity="1.0"/>
<circle cx="743.9" cy="121.4" r="4" fill="#2ecc71" stroke="white" opacity="1.0"/>
<circle cx="769.6" cy="115.0" r="4" fill="#2ecc71" stroke="white" opacity="1.0"/>
<circle cx="795.4" cy="117.2" r="4" fill="#2ecc71" stroke="white" opacity="1.0"/>
<circle cx="821.4" cy="145.0" r="4" fill="#2ecc71" stroke="white" opacity="1.0"/>
<circle cx="847.2" cy="145.0" r="4" fill="#2ecc71" stroke="white" opacity="1.0"/>
<circle cx="872.8" cy="140.7" r="4" fill="#2ecc71" stroke="white" opacity="1.0"/>
<circle cx="898.6" cy="134.3" r="4" fill="#2ecc71" stroke="white" opacity="1.0"/>
<circle cx="924.5" cy="127.9" r="4" fill="#2ecc71" stroke="white" opacity="1.0"/>
<circle cx="950.2" cy="125.7" r="4" fill="#2ecc71" stroke="white" opacity="1.0"/>
<circle cx="976.1" cy="121.4" r="4" fill="#2ecc71" stroke="white" opacity="1.0"/>
<circle cx="1001.9" cy="117.2" r="4" fill="#2ecc71" stroke="white" opacity="1.0"/>
<circle cx="1027.7" cy="110.8" r="4" fill="#2ecc71" stroke="white" opacity="1.0"/>
<circle cx="1053.5" cy="110.8" r="4" fill="#2ecc71" stroke="white" opacity="1.0"/>
</g>
<g class="series pmic-series" data-mode="AUTO_PFM" data-chip="31927" data-temp="0" data-reg="DC2DC_DIG">
<path d="M 124.5,405.8 L 150.2,401.5 L 176.0,414.3 L 201.9,395.1 L 227.7,399.4 L 253.5,397.2 L 279.3,393.0 L 305.0,397.2 L 330.9,403.7 L 356.8,395.1 L 382.6,386.6 L 408.4,397.2 L 434.1,397.2 L 459.9,390.8 L 485.6,384.4 L 511.6,384.4 L 537.4,403.7 L 563.2,397.2 L 589.0,390.8 L 614.8,386.6 L 640.6,384.4 L 666.5,401.5 L 692.4,393.0 L 718.2,397.2 L 743.9,390.8 L 769.6,382.3 L 795.4,375.9 L 821.3,393.0 L 847.1,405.8 L 872.8,393.0 L 898.6,386.6 L 924.4,380.1 L 950.2,375.9 L 976.1,375.9 L 1001.9,380.1 L 1027.7,397.2 L 1053.5,395.1" fill="none" stroke="#9b59b6" stroke-width="2.2" stroke-linejoin="round" opacity="0.9"/>
<circle cx="124.5" cy="405.8" r="4" fill="#9b59b6" stroke="white" opacity="1.0"/>
<circle cx="150.2" cy="401.5" r="4" fill="#9b59b6" stroke="white" opacity="1.0"/>
<circle cx="176.0" cy="414.3" r="4" fill="#9b59b6" stroke="white" opacity="1.0"/>
<circle cx="201.9" cy="395.1" r="4" fill="#9b59b6" stroke="white" opacity="1.0"/>
<circle cx="227.7" cy="399.4" r="4" fill="#9b59b6" stroke="white" opacity="1.0"/>
<circle cx="253.5" cy="397.2" r="4" fill="#9b59b6" stroke="white" opacity="1.0"/>
<circle cx="279.3" cy="393.0" r="4" fill="#9b59b6" stroke="white" opacity="1.0"/>
<circle cx="305.0" cy="397.2" r="4" fill="#9b59b6" stroke="white" opacity="1.0"/>
<circle cx="330.9" cy="403.7" r="4" fill="#9b59b6" stroke="white" opacity="1.0"/>
<circle cx="356.8" cy="395.1" r="4" fill="#9b59b6" stroke="white" opacity="1.0"/>
<circle cx="382.6" cy="386.6" r="4" fill="#9b59b6" stroke="white" opacity="1.0"/>
<circle cx="408.4" cy="397.2" r="4" fill="#9b59b6" stroke="white" opacity="1.0"/>
<circle cx="434.1" cy="397.2" r="4" fill="#9b59b6" stroke="white" opacity="1.0"/>
<circle cx="459.9" cy="390.8" r="4" fill="#9b59b6" stroke="white" opacity="1.0"/>
<circle cx="485.6" cy="384.4" r="4" fill="#9b59b6" stroke="white" opacity="1.0"/>
<circle cx="511.6" cy="384.4" r="4" fill="#9b59b6" stroke="white" opacity="1.0"/>
<circle cx="537.4" cy="403.7" r="4" fill="#9b59b6" stroke="white" opacity="1.0"/>
<circle cx="563.2" cy="397.2" r="4" fill="#9b59b6" stroke="white" opacity="1.0"/>
<circle cx="589.0" cy="390.8" r="4" fill="#9b59b6" stroke="white" opacity="1.0"/>
<circle cx="614.8" cy="386.6" r="4" fill="#9b59b6" stroke="white" opacity="1.0"/>
<circle cx="640.6" cy="384.4" r="4" fill="#9b59b6" stroke="white" opacity="1.0"/>
<circle cx="666.5" cy="401.5" r="4" fill="#9b59b6" stroke="white" opacity="1.0"/>
<circle cx="692.4" cy="393.0" r="4" fill="#9b59b6" stroke="white" opacity="1.0"/>
<circle cx="718.2" cy="397.2" r="4" fill="#9b59b6" stroke="white" opacity="1.0"/>
<circle cx="743.9" cy="390.8" r="4" fill="#9b59b6" stroke="white" opacity="1.0"/>
<circle cx="769.6" cy="382.3" r="4" fill="#9b59b6" stroke="white" opacity="1.0"/>
<circle cx="795.4" cy="375.9" r="4" fill="#9b59b6" stroke="white" opacity="1.0"/>
<circle cx="821.3" cy="393.0" r="4" fill="#9b59b6" stroke="white" opacity="1.0"/>
<circle cx="847.1" cy="405.8" r="4" fill="#9b59b6" stroke="white" opacity="1.0"/>
<circle cx="872.8" cy="393.0" r="4" fill="#9b59b6" stroke="white" opacity="1.0"/>
<circle cx="898.6" cy="386.6" r="4" fill="#9b59b6" stroke="white" opacity="1.0"/>
<circle cx="924.4" cy="380.1" r="4" fill="#9b59b6" stroke="white" opacity="1.0"/>
<circle cx="950.2" cy="375.9" r="4" fill="#9b59b6" stroke="white" opacity="1.0"/>
<circle cx="976.1" cy="375.9" r="4" fill="#9b59b6" stroke="white" opacity="1.0"/>
<circle cx="1001.9" cy="380.1" r="4" fill="#9b59b6" stroke="white" opacity="1.0"/>
<circle cx="1027.7" cy="397.2" r="4" fill="#9b59b6" stroke="white" opacity="1.0"/>
<circle cx="1053.5" cy="395.1" r="4" fill="#9b59b6" stroke="white" opacity="1.0"/>
</g>
<g class="series pmic-series" data-mode="AUTO_PFM" data-chip="31927" data-temp="25" data-reg="DC2DC_DIG">
<path d="M 124.5,350.2 L 150.2,343.8 L 176.0,352.3 L 201.9,341.7 L 227.7,341.7 L 253.5,350.2 L 279.3,337.4 L 305.0,352.3 L 330.9,358.8 L 356.8,348.1 L 382.6,335.2 L 408.4,356.6 L 434.1,348.1 L 459.9,345.9 L 485.7,337.4 L 511.6,352.3 L 537.4,348.1 L 563.2,337.4 L 589.0,328.8 L 614.8,331.0 L 640.6,350.2 L 666.5,345.9 L 692.4,333.1 L 718.2,333.1 L 743.9,326.7 L 769.6,339.5 L 795.4,341.7 L 821.3,341.7 L 847.2,333.1 L 872.8,328.8 L 898.6,324.6 L 924.4,328.8 L 950.2,345.9 L 976.1,339.5 L 1001.9,335.2 L 1027.7,333.1 L 1053.5,322.4" fill="none" stroke="#1abc9c" stroke-width="2.2" stroke-linejoin="round" opacity="0.9"/>
<circle cx="124.5" cy="350.2" r="4" fill="#1abc9c" stroke="white" opacity="1.0"/>
<circle cx="150.2" cy="343.8" r="4" fill="#1abc9c" stroke="white" opacity="1.0"/>
<circle cx="176.0" cy="352.3" r="4" fill="#1abc9c" stroke="white" opacity="1.0"/>
<circle cx="201.9" cy="341.7" r="4" fill="#1abc9c" stroke="white" opacity="1.0"/>
<circle cx="227.7" cy="341.7" r="4" fill="#1abc9c" stroke="white" opacity="1.0"/>
<circle cx="253.5" cy="350.2" r="4" fill="#1abc9c" stroke="white" opacity="1.0"/>
<circle cx="279.3" cy="337.4" r="4" fill="#1abc9c" stroke="white" opacity="1.0"/>
<circle cx="305.0" cy="352.3" r="4" fill="#1abc9c" stroke="white" opacity="1.0"/>
<circle cx="330.9" cy="358.8" r="4" fill="#1abc9c" stroke="white" opacity="1.0"/>
<circle cx="356.8" cy="348.1" r="4" fill="#1abc9c" stroke="white" opacity="1.0"/>
<circle cx="382.6" cy="335.2" r="4" fill="#1abc9c" stroke="white" opacity="1.0"/>
<circle cx="408.4" cy="356.6" r="4" fill="#1abc9c" stroke="white" opacity="1.0"/>
<circle cx="434.1" cy="348.1" r="4" fill="#1abc9c" stroke="white" opacity="1.0"/>
<circle cx="459.9" cy="345.9" r="4" fill="#1abc9c" stroke="white" opacity="1.0"/>
<circle cx="485.7" cy="337.4" r="4" fill="#1abc9c" stroke="white" opacity="1.0"/>
<circle cx="511.6" cy="352.3" r="4" fill="#1abc9c" stroke="white" opacity="1.0"/>
<circle cx="537.4" cy="348.1" r="4" fill="#1abc9c" stroke="white" opacity="1.0"/>
<circle cx="563.2" cy="337.4" r="4" fill="#1abc9c" stroke="white" opacity="1.0"/>
<circle cx="589.0" cy="328.8" r="4" fill="#1abc9c" stroke="white" opacity="1.0"/>
<circle cx="614.8" cy="331.0" r="4" fill="#1abc9c" stroke="white" opacity="1.0"/>
<circle cx="640.6" cy="350.2" r="4" fill="#1abc9c" stroke="white" opacity="1.0"/>
<circle cx="666.5" cy="345.9" r="4" fill="#1abc9c" stroke="white" opacity="1.0"/>
<circle cx="692.4" cy="333.1" r="4" fill="#1abc9c" stroke="white" opacity="1.0"/>
<circle cx="718.2" cy="333.1" r="4" fill="#1abc9c" stroke="white" opacity="1.0"/>
<circle cx="743.9" cy="326.7" r="4" fill="#1abc9c" stroke="white" opacity="1.0"/>
<circle cx="769.6" cy="339.5" r="4" fill="#1abc9c" stroke="white" opacity="1.0"/>
<circle cx="795.4" cy="341.7" r="4" fill="#1abc9c" stroke="white" opacity="1.0"/>
<circle cx="821.3" cy="341.7" r="4" fill="#1abc9c" stroke="white" opacity="1.0"/>
<circle cx="847.2" cy="333.1" r="4" fill="#1abc9c" stroke="white" opacity="1.0"/>
<circle cx="872.8" cy="328.8" r="4" fill="#1abc9c" stroke="white" opacity="1.0"/>
<circle cx="898.6" cy="324.6" r="4" fill="#1abc9c" stroke="white" opacity="1.0"/>
<circle cx="924.4" cy="328.8" r="4" fill="#1abc9c" stroke="white" opacity="1.0"/>
<circle cx="950.2" cy="345.9" r="4" fill="#1abc9c" stroke="white" opacity="1.0"/>
<circle cx="976.1" cy="339.5" r="4" fill="#1abc9c" stroke="white" opacity="1.0"/>
<circle cx="1001.9" cy="335.2" r="4" fill="#1abc9c" stroke="white" opacity="1.0"/>
<circle cx="1027.7" cy="333.1" r="4" fill="#1abc9c" stroke="white" opacity="1.0"/>
<circle cx="1053.5" cy="322.4" r="4" fill="#1abc9c" stroke="white" opacity="1.0"/>
</g>
<g class="series pmic-series" data-mode="AUTO_PFM" data-chip="31927" data-temp="80" data-reg="DC2DC_DIG">
<path d="M 124.5,275.4 L 150.2,286.1 L 176.0,281.8 L 201.9,279.7 L 227.7,283.9 L 253.5,277.5 L 279.3,277.5 L 305.0,283.9 L 330.9,273.2 L 356.8,266.8 L 382.6,275.4 L 408.4,283.9 L 434.1,275.4 L 459.9,269.0 L 485.7,277.5 L 511.6,279.7 L 537.4,281.8 L 563.2,266.8 L 589.0,264.7 L 614.8,269.0 L 640.6,277.5 L 666.5,271.1 L 692.4,258.3 L 718.2,258.3 L 743.9,260.4 L 769.6,275.4 L 795.4,277.5 L 821.3,269.0 L 847.2,262.6 L 872.8,258.3 L 898.6,256.1 L 924.5,258.3 L 950.2,283.9 L 976.1,283.9 L 1001.9,271.1 L 1027.7,260.4 L 1053.5,254.0" fill="none" stroke="#e74c3c" stroke-width="2.2" stroke-linejoin="round" opacity="0.9"/>
<circle cx="124.5" cy="275.4" r="4" fill="#e74c3c" stroke="white" opacity="1.0"/>
<circle cx="150.2" cy="286.1" r="4" fill="#e74c3c" stroke="white" opacity="1.0"/>
<circle cx="176.0" cy="281.8" r="4" fill="#e74c3c" stroke="white" opacity="1.0"/>
<circle cx="201.9" cy="279.7" r="4" fill="#e74c3c" stroke="white" opacity="1.0"/>
<circle cx="227.7" cy="283.9" r="4" fill="#e74c3c" stroke="white" opacity="1.0"/>
<circle cx="253.5" cy="277.5" r="4" fill="#e74c3c" stroke="white" opacity="1.0"/>
<circle cx="279.3" cy="277.5" r="4" fill="#e74c3c" stroke="white" opacity="1.0"/>
<circle cx="305.0" cy="283.9" r="4" fill="#e74c3c" stroke="white" opacity="1.0"/>
<circle cx="330.9" cy="273.2" r="4" fill="#e74c3c" stroke="white" opacity="1.0"/>
<circle cx="356.8" cy="266.8" r="4" fill="#e74c3c" stroke="white" opacity="1.0"/>
<circle cx="382.6" cy="275.4" r="4" fill="#e74c3c" stroke="white" opacity="1.0"/>
<circle cx="408.4" cy="283.9" r="4" fill="#e74c3c" stroke="white" opacity="1.0"/>
<circle cx="434.1" cy="275.4" r="4" fill="#e74c3c" stroke="white" opacity="1.0"/>
<circle cx="459.9" cy="269.0" r="4" fill="#e74c3c" stroke="white" opacity="1.0"/>
<circle cx="485.7" cy="277.5" r="4" fill="#e74c3c" stroke="white" opacity="1.0"/>
<circle cx="511.6" cy="279.7" r="4" fill="#e74c3c" stroke="white" opacity="1.0"/>
<circle cx="537.4" cy="281.8" r="4" fill="#e74c3c" stroke="white" opacity="1.0"/>
<circle cx="563.2" cy="266.8" r="4" fill="#e74c3c" stroke="white" opacity="1.0"/>
<circle cx="589.0" cy="264.7" r="4" fill="#e74c3c" stroke="white" opacity="1.0"/>
<circle cx="614.8" cy="269.0" r="4" fill="#e74c3c" stroke="white" opacity="1.0"/>
<circle cx="640.6" cy="277.5" r="4" fill="#e74c3c" stroke="white" opacity="1.0"/>
<circle cx="666.5" cy="271.1" r="4" fill="#e74c3c" stroke="white" opacity="1.0"/>
<circle cx="692.4" cy="258.3" r="4" fill="#e74c3c" stroke="white" opacity="1.0"/>
<circle cx="718.2" cy="258.3" r="4" fill="#e74c3c" stroke="white" opacity="1.0"/>
<circle cx="743.9" cy="260.4" r="4" fill="#e74c3c" stroke="white" opacity="1.0"/>
<circle cx="769.6" cy="275.4" r="4" fill="#e74c3c" stroke="white" opacity="1.0"/>
<circle cx="795.4" cy="277.5" r="4" fill="#e74c3c" stroke="white" opacity="1.0"/>
<circle cx="821.3" cy="269.0" r="4" fill="#e74c3c" stroke="white" opacity="1.0"/>
<circle cx="847.2" cy="262.6" r="4" fill="#e74c3c" stroke="white" opacity="1.0"/>
<circle cx="872.8" cy="258.3" r="4" fill="#e74c3c" stroke="white" opacity="1.0"/>
<circle cx="898.6" cy="256.1" r="4" fill="#e74c3c" stroke="white" opacity="1.0"/>
<circle cx="924.5" cy="258.3" r="4" fill="#e74c3c" stroke="white" opacity="1.0"/>
<circle cx="950.2" cy="283.9" r="4" fill="#e74c3c" stroke="white" opacity="1.0"/>
<circle cx="976.1" cy="283.9" r="4" fill="#e74c3c" stroke="white" opacity="1.0"/>
<circle cx="1001.9" cy="271.1" r="4" fill="#e74c3c" stroke="white" opacity="1.0"/>
<circle cx="1027.7" cy="260.4" r="4" fill="#e74c3c" stroke="white" opacity="1.0"/>
<circle cx="1053.5" cy="254.0" r="4" fill="#e74c3c" stroke="white" opacity="1.0"/>
</g>
<g class="legend-item" data-mode="AUTO_PFM" data-chip="21988" data-temp="0" data-reg="DC2DC_DIG">
<rect x="1116.0" y="69.0" width="22.0" height="4.0" fill="#3498db" stroke="none" stroke-width="1" opacity="1.0" rx="2"/>
<circle cx="1127.0" cy="71.0" r="4" fill="#3498db" stroke="none" opacity="1.0"/>
<text x="1144.0" y="76.0" font-size="9" font-weight="normal" text-anchor="start" fill="#333" font-family="Arial,sans-serif">Chip 21988 | T=0°C</text>
</g>
<g class="legend-item" data-mode="AUTO_PFM" data-chip="21988" data-temp="25" data-reg="DC2DC_DIG">
<rect x="1116.0" y="86.0" width="22.0" height="4.0" fill="#e67e22" stroke="none" stroke-width="1" opacity="1.0" rx="2"/>
<circle cx="1127.0" cy="88.0" r="4" fill="#e67e22" stroke="none" opacity="1.0"/>
<text x="1144.0" y="93.0" font-size="9" font-weight="normal" text-anchor="start" fill="#333" font-family="Arial,sans-serif">Chip 21988 | T=25°C</text>
</g>
<g class="legend-item" data-mode="AUTO_PFM" data-chip="21988" data-temp="80" data-reg="DC2DC_DIG">
<rect x="1116.0" y="103.0" width="22.0" height="4.0" fill="#2ecc71" stroke="none" stroke-width="1" opacity="1.0" rx="2"/>
<circle cx="1127.0" cy="105.0" r="4" fill="#2ecc71" stroke="none" opacity="1.0"/>
<text x="1144.0" y="110.0" font-size="9" font-weight="normal" text-anchor="start" fill="#333" font-family="Arial,sans-serif">Chip 21988 | T=80°C</text>
</g>
<g class="legend-item" data-mode="AUTO_PFM" data-chip="31927" data-temp="0" data-reg="DC2DC_DIG">
<rect x="1116.0" y="120.0" width="22.0" height="4.0" fill="#9b59b6" stroke="none" stroke-width="1" opacity="1.0" rx="2"/>
<circle cx="1127.0" cy="122.0" r="4" fill="#9b59b6" stroke="none" opacity="1.0"/>
<text x="1144.0" y="127.0" font-size="9" font-weight="normal" text-anchor="start" fill="#333" font-family="Arial,sans-serif">Chip 31927 | T=0°C</text>
</g>
<g class="legend-item" data-mode="AUTO_PFM" data-chip="31927" data-temp="25" data-reg="DC2DC_DIG">
<rect x="1116.0" y="137.0" width="22.0" height="4.0" fill="#1abc9c" stroke="none" stroke-width="1" opacity="1.0" rx="2"/>
<circle cx="1127.0" cy="139.0" r="4" fill="#1abc9c" stroke="none" opacity="1.0"/>
<text x="1144.0" y="144.0" font-size="9" font-weight="normal" text-anchor="start" fill="#333" font-family="Arial,sans-serif">Chip 31927 | T=25°C</text>
</g>
<g class="legend-item" data-mode="AUTO_PFM" data-chip="31927" data-temp="80" data-reg="DC2DC_DIG">
<rect x="1116.0" y="154.0" width="22.0" height="4.0" fill="#e74c3c" stroke="none" stroke-width="1" opacity="1.0" rx="2"/>
<circle cx="1127.0" cy="156.0" r="4" fill="#e74c3c" stroke="none" opacity="1.0"/>
<text x="1144.0" y="161.0" font-size="9" font-weight="normal" text-anchor="start" fill="#333" font-family="Arial,sans-serif">Chip 31927 | T=80°C</text>
</g>
<rect class="cursor-overlay" x="78.0" y="68.0" width="1022.0" height="372.0" fill="transparent" style="cursor:default" data-xmin="2.446395" data-xmax="3.634505" data-ymin="0.704" data-ymax="0.7214" data-pl="78.0" data-pr="1100.0" data-pt="68.0" data-pb="440.0"/>
<g class="cursor-layer" style="pointer-events:none;display:none"><line class="cur-v" x1="0" y1="68.0" x2="0" y2="440.0" stroke="#e74c3c" stroke-width="1.2" stroke-dasharray="5,3"/><line class="cur-h" x1="78.0" y1="0" x2="1100.0" y2="0" stroke="#e74c3c" stroke-width="1.2" stroke-dasharray="5,3"/><rect class="cur-tip-bg" x="0" y="0" width="148" height="44" rx="5" fill="#1a252f" stroke="#34495e" stroke-width="1" opacity="0.92"/><text class="cur-tip-x" x="0" y="0" font-size="11" font-family="Arial,sans-serif" fill="#ecf0f1"/><text class="cur-tip-y" x="0" y="0" font-size="11" font-family="Arial,sans-serif" fill="#2ecc71"/></g>
</svg>