<svg xmlns="http://www.w3.org/2000/svg" width="1400" height="560" viewBox="0 0 1400 560">
<rect width="1400" height="560" fill="#ffffff"/>
<text x="700.0" y="28.0" font-size="16" font-weight="bold" text-anchor="middle" fill="#2c3e50" font-family="Arial,sans-serif">Transient — Analog DC2DC  Vout=1.2V  [AUTO_PFM]  Load 25mA→150mA  — Undershoot</text>
<line x1="78.0" y1="68.0" x2="78.0" y2="480.0" stroke="#999" stroke-width="1"/>
<line x1="73.0" y1="480.0" x2="78.0" y2="480.0" stroke="#999" stroke-width="1"/>
<line x1="78.0" y1="480.0" x2="1100.0" y2="480.0" stroke="#e8e8e8" stroke-width="0.7" stroke-dasharray="4,3"/>
<text x="70.0" y="484.0" font-size="9" font-weight="normal" text-anchor="end" fill="#888" font-family="Arial,sans-serif">0</text>
<line x1="73.0" y1="470.0" x2="78.0" y2="470.0" stroke="#999" stroke-width="1"/>
<line x1="78.0" y1="470.0" x2="1100.0" y2="470.0" stroke="#e8e8e8" stroke-width="0.7" stroke-dasharray="4,3"/>
<text x="70.0" y="474.0" font-size="9" font-weight="normal" text-anchor="end" fill="#888" font-family="Arial,sans-serif">5</text>
<line x1="73.0" y1="460.1" x2="78.0" y2="460.1" stroke="#999" stroke-width="1"/>
<line x1="78.0" y1="460.1" x2="1100.0" y2="460.1" stroke="#e8e8e8" stroke-width="0.7" stroke-dasharray="4,3"/>
<text x="70.0" y="464.1" font-size="9" font-weight="normal" text-anchor="end" fill="#888" font-family="Arial,sans-serif">10</text>
<line x1="73.0" y1="450.1" x2="78.0" y2="450.1" stroke="#999" stroke-width="1"/>
<line x1="78.0" y1="450.1" x2="1100.0" y2="450.1" stroke="#e8e8e8" stroke-width="0.7" stroke-dasharray="4,3"/>
<text x="70.0" y="454.1" font-size="9" font-weight="normal" text-anchor="end" fill="#888" font-family="Arial,sans-serif">15</text>
<line x1="73.0" y1="440.2" x2="78.0" y2="440.2" stroke="#999" stroke-width="1"/>
<line x1="78.0" y1="440.2" x2="1100.0" y2="440.2" stroke="#e8e8e8" stroke-width="0.7" stroke-dasharray="4,3"/>
<text x="70.0" y="444.2" font-size="9" font-weight="normal" text-anchor="end" fill="#888" font-family="Arial,sans-serif">20</text>
<line x1="73.0" y1="430.2" x2="78.0" y2="430.2" stroke="#999" stroke-width="1"/>
<line x1="78.0" y1="430.2" x2="1100.0" y2="430.2" stroke="#e8e8e8" stroke-width="0.7" stroke-dasharray="4,3"/>
<text x="70.0" y="434.2" font-size="9" font-weight="normal" text-anchor="end" fill="#888" font-family="Arial,sans-serif">25</text>
<line x1="73.0" y1="420.3" x2="78.0" y2="420.3" stroke="#999" stroke-width="1"/>
<line x1="78.0" y1="420.3" x2="1100.0" y2="420.3" stroke="#e8e8e8" stroke-width="0.7" stroke-dasharray="4,3"/>
<text x="70.0" y="424.3" font-size="9" font-weight="normal" text-anchor="end" fill="#888" font-family="Arial,sans-serif">30</text>
<line x1="73.0" y1="410.3" x2="78.0" y2="410.3" stroke="#999" stroke-width="1"/>
<line x1="78.0" y1="410.3" x2="1100.0" y2="410.3" stroke="#e8e8e8" stroke-width="0.7" stroke-dasharray="4,3"/>
<text x="70.0" y="414.3" font-size="9" font-weight="normal" text-anchor="end" fill="#888" font-family="Arial,sans-serif">35</text>
<line x1="73.0" y1="400.4" x2="78.0" y2="400.4" stroke="#999" stroke-width="1"/>
<line x1="78.0" y1="400.4" x2="1100.0" y2="400.4" stroke="#e8e8e8" stroke-width="0.7" stroke-dasharray="4,3"/>
<text x="70.0" y="404.4" font-size="9" font-weight="normal" text-anchor="end" fill="#888" font-family="Arial,sans-serif">40</text>
<line x1="73.0" y1="390.4" x2="78.0" y2="390.4" stroke="#999" stroke-width="1"/>
<line x1="78.0" y1="390.4" x2="1100.0" y2="390.4" stroke="#e8e8e8" stroke-width="0.7" stroke-dasharray="4,3"/>
<text x="70.0" y="394.4" font-size="9" font-weight="normal" text-anchor="end" fill="#888" font-family="Arial,sans-serif">45</text>
<line x1="73.0" y1="380.4" x2="78.0" y2="380.4" stroke="#999" stroke-width="1"/>
<line x1="78.0" y1="380.4" x2="1100.0" y2="380.4" stroke="#e8e8e8" stroke-width="0.7" stroke-dasharray="4,3"/>
<text x="70.0" y="384.4" font-size="9" font-weight="normal" text-anchor="end" fill="#888" font-family="Arial,sans-serif">50</text>
<line x1="73.0" y1="370.5" x2="78.0" y2="370.5" stroke="#999" stroke-width="1"/>
<line x1="78.0" y1="370.5" x2="1100.0" y2="370.5" stroke="#e8e8e8" stroke-width="0.7" stroke-dasharray="4,3"/>
<text x="70.0" y="374.5" font-size="9" font-weight="normal" text-anchor="end" fill="#888" font-family="Arial,sans-serif">55</text>
<line x1="73.0" y1="360.5" x2="78.0" y2="360.5" stroke="#999" stroke-width="1"/>
<line x1="78.0" y1="360.5" x2="1100.0" y2="360.5" stroke="#e8e8e8" stroke-width="0.7" stroke-dasharray="4,3"/>
<text x="70.0" y="364.5" font-size="9" font-weight="normal" text-anchor="end" fill="#888" font-family="Arial,sans-serif">60</text>
<line x1="73.0" y1="350.6" x2="78.0" y2="350.6" stroke="#999" stroke-width="1"/>
<line x1="78.0" y1="350.6" x2="1100.0" y2="350.6" stroke="#e8e8e8" stroke-width="0.7" stroke-dasharray="4,3"/>
<text x="70.0" y="354.6" font-size="9" font-weight="normal" text-anchor="end" fill="#888" font-family="Arial,sans-serif">65</text>
<line x1="73.0" y1="340.6" x2="78.0" y2="340.6" stroke="#999" stroke-width="1"/>
<line x1="78.0" y1="340.6" x2="1100.0" y2="340.6" stroke="#e8e8e8" stroke-width="0.7" stroke-dasharray="4,3"/>
<text x="70.0" y="344.6" font-size="9" font-weight="normal" text-anchor="end" fill="#888" font-family="Arial,sans-serif">70</text>
<line x1="73.0" y1="330.7" x2="78.0" y2="330.7" stroke="#999" stroke-width="1"/>
<line x1="78.0" y1="330.7" x2="1100.0" y2="330.7" stroke="#e8e8e8" stroke-width="0.7" stroke-dasharray="4,3"/>
<text x="70.0" y="334.7" font-size="9" font-weight="normal" text-anchor="end" fill="#888" font-family="Arial,sans-serif">75</text>
<line x1="73.0" y1="320.7" x2="78.0" y2="320.7" stroke="#999" stroke-width="1"/>
<line x1="78.0" y1="320.7" x2="1100.0" y2="320.7" stroke="#e8e8e8" stroke-width="0.7" stroke-dasharray="4,3"/>
<text x="70.0" y="324.7" font-size="9" font-weight="normal" text-anchor="end" fill="#888" font-family="Arial,sans-serif">80</text>
<line x1="73.0" y1="310.8" x2="78.0" y2="310.8" stroke="#999" stroke-width="1"/>
<line x1="78.0" y1="310.8" x2="1100.0" y2="310.8" stroke="#e8e8e8" stroke-width="0.7" stroke-dasharray="4,3"/>
<text x="70.0" y="314.8" font-size="9" font-weight="normal" text-anchor="end" fill="#888" font-family="Arial,sans-serif">85</text>
<line x1="73.0" y1="300.8" x2="78.0" y2="300.8" stroke="#999" stroke-width="1"/>
<line x1="78.0" y1="300.8" x2="1100.0" y2="300.8" stroke="#e8e8e8" stroke-width="0.7" stroke-dasharray="4,3"/>
<text x="70.0" y="304.8" font-size="9" font-weight="normal" text-anchor="end" fill="#888" font-family="Arial,sans-serif">90</text>
<line x1="73.0" y1="290.8" x2="78.0" y2="290.8" stroke="#999" stroke-width="1"/>
<line x1="78.0" y1="290.8" x2="1100.0" y2="290.8" stroke="#e8e8e8" stroke-width="0.7" stroke-dasharray="4,3"/>
<text x="70.0" y="294.8" font-size="9" font-weight="normal" text-anchor="end" fill="#888" font-family="Arial,sans-serif">95</text>
<line x1="73.0" y1="280.9" x2="78.0" y2="280.9" stroke="#999" stroke-width="1"/>
<line x1="78.0" y1="280.9" x2="1100.0" y2="280.9" stroke="#e8e8e8" stroke-width="0.7" stroke-dasharray="4,3"/>
<text x="70.0" y="284.9" font-size="9" font-weight="normal" text-anchor="end" fill="#888" font-family="Arial,sans-serif">100</text>
<line x1="73.0" y1="270.9" x2="78.0" y2="270.9" stroke="#999" stroke-width="1"/>
<line x1="78.0" y1="270.9" x2="1100.0" y2="270.9" stroke="#e8e8e8" stroke-width="0.7" stroke-dasharray="4,3"/>
<text x="70.0" y="274.9" font-size="9" font-weight="normal" text-anchor="end" fill="#888" font-family="Arial,sans-serif">105</text>
<line x1="73.0" y1="261.0" x2="78.0" y2="261.0" stroke="#999" stroke-width="1"/>
<line x1="78.0" y1="261.0" x2="1100.0" y2="261.0" stroke="#e8e8e8" stroke-width="0.7" stroke-dasharray="4,3"/>
<text x="70.0" y="265.0" font-size="9" font-weight="normal" text-anchor="end" fill="#888" font-family="Arial,sans-serif">110</text>
<line x1="73.0" y1="251.0" x2="78.0" y2="251.0" stroke="#999" stroke-width="1"/>
<line x1="78.0" y1="251.0" x2="1100.0" y2="251.0" stroke="#e8e8e8" stroke-width="0.7" stroke-dasharray="4,3"/>
<text x="70.0" y="255.0" font-size="9" font-weight="normal" text-anchor="end" fill="#888" font-family="Arial,sans-serif">115</text>
<line x1="73.0" y1="241.1" x2="78.0" y2="241.1" stroke="#999" stroke-width="1"/>
<line x1="78.0" y1="241.1" x2="1100.0" y2="241.1" stroke="#e8e8e8" stroke-width="0.7" stroke-dasharray="4,3"/>
<text x="70.0" y="245.1" font-size="9" font-weight="normal" text-anchor="end" fill="#888" font-family="Arial,sans-serif">120</text>
<line x1="73.0" y1="231.1" x2="78.0" y2="231.1" stroke="#999" stroke-width="1"/>
<line x1="78.0" y1="231.1" x2="1100.0" y2="231.1" stroke="#e8e8e8" stroke-width="0.7" stroke-dasharray="4,3"/>
<text x="70.0" y="235.1" font-size="9" font-weight="normal" text-anchor="end" fill="#888" font-family="Arial,sans-serif">125</text>
<line x1="73.0" y1="221.2" x2="78.0" y2="221.2" stroke="#999" stroke-width="1"/>
<line x1="78.0" y1="221.2" x2="1100.0" y2="221.2" stroke="#e8e8e8" stroke-width="0.7" stroke-dasharray="4,3"/>
<text x="70.0" y="225.2" font-size="9" font-weight="normal" text-anchor="end" fill="#888" font-family="Arial,sans-serif">130</text>
<line x1="73.0" y1="211.2" x2="78.0" y2="211.2" stroke="#999" stroke-width="1"/>
<line x1="78.0" y1="211.2" x2="1100.0" y2="211.2" stroke="#e8e8e8" stroke-width="0.7" stroke-dasharray="4,3"/>
<text x="70.0" y="215.2" font-size="9" font-weight="normal" text-anchor="end" fill="#888" font-family="Arial,sans-serif">135</text>
<line x1="73.0" y1="201.2" x2="78.0" y2="201.2" stroke="#999" stroke-width="1"/>
<line x1="78.0" y1="201.2" x2="1100.0" y2="201.2" stroke="#e8e8e8" stroke-width="0.7" stroke-dasharray="4,3"/>
<text x="70.0" y="205.2" font-size="9" font-weight="normal" text-anchor="end" fill="#888" font-family="Arial,sans-serif">140</text>
<line x1="73.0" y1="191.3" x2="78.0" y2="191.3" stroke="#999" stroke-width="1"/>
<line x1="78.0" y1="191.3" x2="1100.0" y2="191.3" stroke="#e8e8e8" stroke-width="0.7" stroke-dasharray="4,3"/>
<text x="70.0" y="195.3" font-size="9" font-weight="normal" text-anchor="end" fill="#888" font-family="Arial,sans-serif">145</text>
<line x1="73.0" y1="181.3" x2="78.0" y2="181.3" stroke="#999" stroke-width="1"/>
<line x1="78.0" y1="181.3" x2="1100.0" y2="181.3" stroke="#e8e8e8" stroke-width="0.7" stroke-dasharray="4,3"/>
<text x="70.0" y="185.3" font-size="9" font-weight="normal" text-anchor="end" fill="#888" font-family="Arial,sans-serif">150</text>
<line x1="73.0" y1="171.4" x2="78.0" y2="171.4" stroke="#999" stroke-width="1"/>
<line x1="78.0" y1="171.4" x2="1100.0" y2="171.4" stroke="#e8e8e8" stroke-width="0.7" stroke-dasharray="4,3"/>
<text x="70.0" y="175.4" font-size="9" font-weight="normal" text-anchor="end" fill="#888" font-family="Arial,sans-serif">155</text>
<line x1="73.0" y1="161.4" x2="78.0" y2="161.4" stroke="#999" stroke-width="1"/>
<line x1="78.0" y1="161.4" x2="1100.0" y2="161.4" stroke="#e8e8e8" stroke-width="0.7" stroke-dasharray="4,3"/>
<text x="70.0" y="165.4" font-size="9" font-weight="normal" text-anchor="end" fill="#888" font-family="Arial,sans-serif">160</text>
<line x1="73.0" y1="151.5" x2="78.0" y2="151.5" stroke="#999" stroke-width="1"/>
<line x1="78.0" y1="151.5" x2="1100.0" y2="151.5" stroke="#e8e8e8" stroke-width="0.7" stroke-dasharray="4,3"/>
<text x="70.0" y="155.5" font-size="9" font-weight="normal" text-anchor="end" fill="#888" font-family="Arial,sans-serif">165</text>
<line x1="73.0" y1="141.5" x2="78.0" y2="141.5" stroke="#999" stroke-width="1"/>
<line x1="78.0" y1="141.5" x2="1100.0" y2="141.5" stroke="#e8e8e8" stroke-width="0.7" stroke-dasharray="4,3"/>
<text x="70.0" y="145.5" font-size="9" font-weight="normal" text-anchor="end" fill="#888" font-family="Arial,sans-serif">170</text>
<line x1="73.0" y1="131.6" x2="78.0" y2="131.6" stroke="#999" stroke-width="1"/>
<line x1="78.0" y1="131.6" x2="1100.0" y2="131.6" stroke="#e8e8e8" stroke-width="0.7" stroke-dasharray="4,3"/>
<text x="70.0" y="135.6" font-size="9" font-weight="normal" text-anchor="end" fill="#888" font-family="Arial,sans-serif">175</text>
<line x1="73.0" y1="121.6" x2="78.0" y2="121.6" stroke="#999" stroke-width="1"/>
<line x1="78.0" y1="121.6" x2="1100.0" y2="121.6" stroke="#e8e8e8" stroke-width="0.7" stroke-dasharray="4,3"/>
<text x="70.0" y="125.6" font-size="9" font-weight="normal" text-anchor="end" fill="#888" font-family="Arial,sans-serif">180</text>
<line x1="73.0" y1="111.6" x2="78.0" y2="111.6" stroke="#999" stroke-width="1"/>
<line x1="78.0" y1="111.6" x2="1100.0" y2="111.6" stroke="#e8e8e8" stroke-width="0.7" stroke-dasharray="4,3"/>
<text x="70.0" y="115.6" font-size="9" font-weight="normal" text-anchor="end" fill="#888" font-family="Arial,sans-serif">185</text>
<line x1="73.0" y1="101.7" x2="78.0" y2="101.7" stroke="#999" stroke-width="1"/>
<line x1="78.0" y1="101.7" x2="1100.0" y2="101.7" stroke="#e8e8e8" stroke-width="0.7" stroke-dasharray="4,3"/>
<text x="70.0" y="105.7" font-size="9" font-weight="normal" text-anchor="end" fill="#888" font-family="Arial,sans-serif">190</text>
<line x1="73.0" y1="91.7" x2="78.0" y2="91.7" stroke="#999" stroke-width="1"/>
<line x1="78.0" y1="91.7" x2="1100.0" y2="91.7" stroke="#e8e8e8" stroke-width="0.7" stroke-dasharray="4,3"/>
<text x="70.0" y="95.7" font-size="9" font-weight="normal" text-anchor="end" fill="#888" font-family="Arial,sans-serif">195</text>
<line x1="73.0" y1="81.8" x2="78.0" y2="81.8" stroke="#999" stroke-width="1"/>
<line x1="78.0" y1="81.8" x2="1100.0" y2="81.8" stroke="#e8e8e8" stroke-width="0.7" stroke-dasharray="4,3"/>
<text x="70.0" y="85.8" font-size="9" font-weight="normal" text-anchor="end" fill="#888" font-family="Arial,sans-serif">200</text>
<line x1="73.0" y1="71.8" x2="78.0" y2="71.8" stroke="#999" stroke-width="1"/>
<line x1="78.0" y1="71.8" x2="1100.0" y2="71.8" stroke="#e8e8e8" stroke-width="0.7" stroke-dasharray="4,3"/>
<text x="70.0" y="75.8" font-size="9" font-weight="normal" text-anchor="end" fill="#888" font-family="Arial,sans-serif">205</text>
<line x1="78.0" y1="480.0" x2="1100.0" y2="480.0" stroke="#999" stroke-width="1"/>
<line x1="333.5" y1="480.0" x2="333.5" y2="485.0" stroke="#999" stroke-width="1"/>
<line x1="333.5" y1="68.0" x2="333.5" y2="480.0" stroke="#e8e8e8" stroke-width="0.7" stroke-dasharray="4,3"/>
<text x="333.5" y="496.0" font-size="10" font-weight="normal" text-anchor="middle" fill="#888" font-family="Arial,sans-serif">3.135</text>
<line x1="589.0" y1="480.0" x2="589.0" y2="485.0" stroke="#999" stroke-width="1"/>
<line x1="589.0" y1="68.0" x2="589.0" y2="480.0" stroke="#e8e8e8" stroke-width="0.7" stroke-dasharray="4,3"/>
<text x="589.0" y="496.0" font-size="10" font-weight="normal" text-anchor="middle" fill="#888" font-family="Arial,sans-serif">3.3</text>
<line x1="844.5" y1="480.0" x2="844.5" y2="485.0" stroke="#999" stroke-width="1"/>
<line x1="844.5" y1="68.0" x2="844.5" y2="480.0" stroke="#e8e8e8" stroke-width="0.7" stroke-dasharray="4,3"/>
<text x="844.5" y="496.0" font-size="10" font-weight="normal" text-anchor="middle" fill="#888" font-family="Arial,sans-serif">3.465</text>
<text x="16.0" y="274.0" font-size="11" font-weight="normal" text-anchor="middle" fill="#555" font-family="Arial,sans-serif" transform="rotate(-90,16,274.0)">Undershoot [mV]</text>
<text x="589.0" y="550.0" font-size="11" font-weight="normal" text-anchor="middle" fill="#555" font-family="Arial,sans-serif">Vin Setpoint [V]</text>
<g class="series pmic-series" data-mode="AUTO_PFM" data-chip="21988" data-temp="0" data-reg="DC2DC_ANA">
<path d="M 321.0,429.6 L 576.5,431.6 L 832.0,431.4" fill="none" stroke="#3498db" stroke-width="1.8" stroke-dasharray="5,3" opacity="0.6"/>
<circle cx="321.0" cy="429.6" r="6" fill="#3498db" stroke="white" opacity="1.0"/>
<circle cx="576.5" cy="431.6" r="6" fill="#3498db" stroke="white" opacity="1.0"/>
<circle cx="832.0" cy="431.4" r="6" fill="#3498db" stroke="white" opacity="1.0"/>
</g>
<g class="series pmic-series" data-mode="AUTO_PFM" data-chip="21988" data-temp="25" data-reg="DC2DC_ANA">
<path d="M 326.0,452.3 L 581.5,446.0 L 837.0,446.7" fill="none" stroke="#e67e22" stroke-width="1.8" stroke-dasharray="5,3" opacity="0.6"/>
<circle cx="326.0" cy="452.3" r="6" fill="#e67e22" stroke="white" opacity="1.0"/>
<circle cx="581.5" cy="446.0" r="6" fill="#e67e22" stroke="white" opacity="1.0"/>
<circle cx="837.0" cy="446.7" r="6" fill="#e67e22" stroke="white" opacity="1.0"/>
</g>
<g class="series pmic-series" data-mode="AUTO_PFM" data-chip="21988" data-temp="80" data-reg="DC2DC_ANA">
<path d="M 331.0,474.4 L 586.5,471.4 L 842.0,475.8" fill="none" stroke="#2ecc71" stroke-width="1.8" stroke-dasharray="5,3" opacity="0.6"/>
<circle cx="331.0" cy="474.4" r="6" fill="#2ecc71" stroke="white" opacity="1.0"/>
<circle cx="586.5" cy="471.4" r="6" fill="#2ecc71" stroke="white" opacity="1.0"/>
<circle cx="842.0" cy="475.8" r="6" fill="#2ecc71" stroke="white" opacity="1.0"/>
</g>
<g class="series pmic-series" data-mode="AUTO_PFM" data-chip="31927" data-temp="0" data-reg="DC2DC_ANA">
<path d="M 336.0,449.1 L 591.5,447.3 L 847.0,449.1" fill="none" stroke="#9b59b6" stroke-width="1.8" stroke-dasharray="5,3" opacity="0.6"/>
<circle cx="336.0" cy="449.1" r="6" fill="#9b59b6" stroke="white" opacity="1.0"/>
<circle cx="591.5" cy="447.3" r="6" fill="#9b59b6" stroke="white" opacity="1.0"/>
<circle cx="847.0" cy="449.1" r="6" fill="#9b59b6" stroke="white" opacity="1.0"/>
</g>
<g class="series pmic-series" data-mode="AUTO_PFM" data-chip="31927" data-temp="25" data-reg="DC2DC_ANA">
<path d="M 341.0,421.9 L 596.5,420.5 L 852.0,420.3" fill="none" stroke="#1abc9c" stroke-width="1.8" stroke-dasharray="5,3" opacity="0.6"/>
<circle cx="341.0" cy="421.9" r="6" fill="#1abc9c" stroke="white" opacity="1.0"/>
<circle cx="596.5" cy="420.5" r="6" fill="#1abc9c" stroke="white" opacity="1.0"/>
<circle cx="852.0" cy="420.3" r="6" fill="#1abc9c" stroke="white" opacity="1.0"/>
</g>
<g class="series pmic-series" data-mode="AUTO_PFM" data-chip="31927" data-temp="80" data-reg="DC2DC_ANA">
<path d="M 346.0,105.1 L 601.5,105.5 L 857.0,107.3" fill="none" stroke="#e74c3c" stroke-width="1.8" stroke-dasharray="5,3" opacity="0.6"/>
<circle cx="346.0" cy="105.1" r="6" fill="#e74c3c" stroke="white" opacity="1.0"/>
<circle cx="601.5" cy="105.5" r="6" fill="#e74c3c" stroke="white" opacity="1.0"/>
<circle cx="857.0" cy="107.3" r="6" fill="#e74c3c" stroke="white" opacity="1.0"/>
</g>
<g class="legend-item" data-mode="AUTO_PFM" data-chip="21988" data-temp="0" data-reg="DC2DC_ANA">
<rect x="1116.0" y="69.0" width="18.0" height="4.0" fill="#3498db" stroke="none" stroke-width="1" opacity="1.0" rx="2"/>
<circle cx="1125.0" cy="71.0" r="5" fill="#3498db" stroke="none" opacity="1.0"/>
<text x="1140.0" y="76.0" font-size="9" font-weight="normal" text-anchor="start" fill="#333" font-family="Arial,sans-serif">Ch21988 | T=0°C | step↑</text>
</g>
<g class="legend-item" data-mode="AUTO_PFM" data-chip="21988" data-temp="25" data-reg="DC2DC_ANA">
<rect x="1116.0" y="86.0" width="18.0" height="4.0" fill="#e67e22" stroke="none" stroke-width="1" opacity="1.0" rx="2"/>
<circle cx="1125.0" cy="88.0" r="5" fill="#e67e22" stroke="none" opacity="1.0"/>
<text x="1140.0" y="93.0" font-size="9" font-weight="normal" text-anchor="start" fill="#333" font-family="Arial,sans-serif">Ch21988 | T=25°C | step↑</text>
</g>
<g class="legend-item" data-mode="AUTO_PFM" data-chip="21988" data-temp="80" data-reg="DC2DC_ANA">
<rect x="1116.0" y="103.0" width="18.0" height="4.0" fill="#2ecc71" stroke="none" stroke-width="1" opacity="1.0" rx="2"/>
<circle cx="1125.0" cy="105.0" r="5" fill="#2ecc71" stroke="none" opacity="1.0"/>
<text x="1140.0" y="110.0" font-size="9" font-weight="normal" text-anchor="start" fill="#333" font-family="Arial,sans-serif">Ch21988 | T=80°C | step↑</text>
</g>
<g class="legend-item" data-mode="AUTO_PFM" data-chip="31927" data-temp="0" data-reg="DC2DC_ANA">
<rect x="1116.0" y="120.0" width="18.0" height="4.0" fill="#9b59b6" stroke="none" stroke-width="1" opacity="1.0" rx="2"/>
<circle cx="1125.0" cy="122.0" r="5" fill="#9b59b6" stroke="none" opacity="1.0"/>
<text x="1140.0" y="127.0" font-size="9" font-weight="normal" text-anchor="start" fill="#333" font-family="Arial,sans-serif">Ch31927 | T=0°C | step↑</text>
</g>
<g class="legend-item" data-mode="AUTO_PFM" data-chip="31927" data-temp="25" data-reg="DC2DC_ANA">
<rect x="1116.0" y="137.0" width="18.0" height="4.0" fill="#1abc9c" stroke="none" stroke-width="1" opacity="1.0" rx="2"/>
<circle cx="1125.0" cy="139.0" r="5" fill="#1abc9c" stroke="none" opacity="1.0"/>
<text x="1140.0" y="144.0" font-size="9" font-weight="normal" text-anchor="start" fill="#333" font-family="Arial,sans-serif">Ch31927 | T=25°C | step↑</text>
</g>
<g class="legend-item" data-mode="AUTO_PFM" data-chip="31927" data-temp="80" data-reg="DC2DC_ANA">
<rect x="1116.0" y="154.0" width="18.0" height="4.0" fill="#e74c3c" stroke="none" stroke-width="1" opacity="1.0" rx="2"/>
<circle cx="1125.0" cy="156.0" r="5" fill="#e74c3c" stroke="none" opacity="1.0"/>
<text x="1140.0" y="161.0" font-size="9" font-weight="normal" text-anchor="start" fill="#333" font-family="Arial,sans-serif">Ch31927 | T=80°C | step↑</text>
</g>
<rect class="cursor-overlay" x="78.0" y="68.0" width="1022.0" height="412.0" fill="transparent" style="cursor:default" data-xmin="78" data-xmax="1100" data-ymin="0" data-ymax="206.92" data-pl="78.0" data-pr="1100.0" data-pt="68.0" data-pb="480.0"/>
<g class="cursor-layer" style="pointer-events:none;display:none"><line class="cur-v" x1="0" y1="68.0" x2="0" y2="480.0" stroke="#e74c3c" stroke-width="1.2" stroke-dasharray="5,3"/><line class="cur-h" x1="78.0" y1="0" x2="1100.0" y2="0" stroke="#e74c3c" stroke-width="1.2" stroke-dasharray="5,3"/><rect class="cur-tip-bg" x="0" y="0" width="148" height="44" rx="5" fill="#1a252f" stroke="#34495e" stroke-width="1" opacity="0.92"/><text class="cur-tip-x" x="0" y="0" font-size="11" font-family="Arial,sans-serif" fill="#ecf0f1"/><text class="cur-tip-y" x="0" y="0" font-size="11" font-family="Arial,sans-serif" fill="#2ecc71"/></g>
</svg>