<svg xmlns="http://www.w3.org/2000/svg" width="1400" height="560" viewBox="0 0 1400 560">
<rect width="1400" height="560" fill="#ffffff"/>
<text x="700.0" y="28.0" font-size="16" font-weight="bold" text-anchor="middle" fill="#2c3e50" font-family="Arial,sans-serif">Transient — Digital DC2DC  Vout=0.8V  [PWM]  Load 400mA→2.0A  — Overshoot</text>
<line x1="78.0" y1="68.0" x2="78.0" y2="480.0" stroke="#999" stroke-width="1"/>
<line x1="73.0" y1="480.0" x2="78.0" y2="480.0" stroke="#999" stroke-width="1"/>
<line x1="78.0" y1="480.0" x2="1100.0" y2="480.0" stroke="#e8e8e8" stroke-width="0.7" stroke-dasharray="4,3"/>
<text x="70.0" y="484.0" font-size="9" font-weight="normal" text-anchor="end" fill="#888" font-family="Arial,sans-serif">0</text>
<line x1="73.0" y1="461.7" x2="78.0" y2="461.7" stroke="#999" stroke-width="1"/>
<line x1="78.0" y1="461.7" x2="1100.0" y2="461.7" stroke="#e8e8e8" stroke-width="0.7" stroke-dasharray="4,3"/>
<text x="70.0" y="465.7" font-size="9" font-weight="normal" text-anchor="end" fill="#888" font-family="Arial,sans-serif">5</text>
<line x1="73.0" y1="443.4" x2="78.0" y2="443.4" stroke="#999" stroke-width="1"/>
<line x1="78.0" y1="443.4" x2="1100.0" y2="443.4" stroke="#e8e8e8" stroke-width="0.7" stroke-dasharray="4,3"/>
<text x="70.0" y="447.4" font-size="9" font-weight="normal" text-anchor="end" fill="#888" font-family="Arial,sans-serif">10</text>
<line x1="73.0" y1="425.1" x2="78.0" y2="425.1" stroke="#999" stroke-width="1"/>
<line x1="78.0" y1="425.1" x2="1100.0" y2="425.1" stroke="#e8e8e8" stroke-width="0.7" stroke-dasharray="4,3"/>
<text x="70.0" y="429.1" font-size="9" font-weight="normal" text-anchor="end" fill="#888" font-family="Arial,sans-serif">15</text>
<line x1="73.0" y1="406.8" x2="78.0" y2="406.8" stroke="#999" stroke-width="1"/>
<line x1="78.0" y1="406.8" x2="1100.0" y2="406.8" stroke="#e8e8e8" stroke-width="0.7" stroke-dasharray="4,3"/>
<text x="70.0" y="410.8" font-size="9" font-weight="normal" text-anchor="end" fill="#888" font-family="Arial,sans-serif">20</text>
<line x1="73.0" y1="388.5" x2="78.0" y2="388.5" stroke="#999" stroke-width="1"/>
<line x1="78.0" y1="388.5" x2="1100.0" y2="388.5" stroke="#e8e8e8" stroke-width="0.7" stroke-dasharray="4,3"/>
<text x="70.0" y="392.5" font-size="9" font-weight="normal" text-anchor="end" fill="#888" font-family="Arial,sans-serif">25</text>
<line x1="73.0" y1="370.2" x2="78.0" y2="370.2" stroke="#999" stroke-width="1"/>
<line x1="78.0" y1="370.2" x2="1100.0" y2="370.2" stroke="#e8e8e8" stroke-width="0.7" stroke-dasharray="4,3"/>
<text x="70.0" y="374.2" font-size="9" font-weight="normal" text-anchor="end" fill="#888" font-family="Arial,sans-serif">30</text>
<line x1="73.0" y1="351.9" x2="78.0" y2="351.9" stroke="#999" stroke-width="1"/>
<line x1="78.0" y1="351.9" x2="1100.0" y2="351.9" stroke="#e8e8e8" stroke-width="0.7" stroke-dasharray="4,3"/>
<text x="70.0" y="355.9" font-size="9" font-weight="normal" text-anchor="end" fill="#888" font-family="Arial,sans-serif">35</text>
<line x1="73.0" y1="333.7" x2="78.0" y2="333.7" stroke="#999" stroke-width="1"/>
<line x1="78.0" y1="333.7" x2="1100.0" y2="333.7" stroke="#e8e8e8" stroke-width="0.7" stroke-dasharray="4,3"/>
<text x="70.0" y="337.7" font-size="9" font-weight="normal" text-anchor="end" fill="#888" font-family="Arial,sans-serif">40</text>
<line x1="73.0" y1="315.4" x2="78.0" y2="315.4" stroke="#999" stroke-width="1"/>
<line x1="78.0" y1="315.4" x2="1100.0" y2="315.4" stroke="#e8e8e8" stroke-width="0.7" stroke-dasharray="4,3"/>
<text x="70.0" y="319.4" font-size="9" font-weight="normal" text-anchor="end" fill="#888" font-family="Arial,sans-serif">45</text>
<line x1="73.0" y1="297.1" x2="78.0" y2="297.1" stroke="#999" stroke-width="1"/>
<line x1="78.0" y1="297.1" x2="1100.0" y2="297.1" stroke="#e8e8e8" stroke-width="0.7" stroke-dasharray="4,3"/>
<text x="70.0" y="301.1" font-size="9" font-weight="normal" text-anchor="end" fill="#888" font-family="Arial,sans-serif">50</text>
<line x1="73.0" y1="278.8" x2="78.0" y2="278.8" stroke="#999" stroke-width="1"/>
<line x1="78.0" y1="278.8" x2="1100.0" y2="278.8" stroke="#e8e8e8" stroke-width="0.7" stroke-dasharray="4,3"/>
<text x="70.0" y="282.8" font-size="9" font-weight="normal" text-anchor="end" fill="#888" font-family="Arial,sans-serif">55</text>
<line x1="73.0" y1="260.5" x2="78.0" y2="260.5" stroke="#999" stroke-width="1"/>
<line x1="78.0" y1="260.5" x2="1100.0" y2="260.5" stroke="#e8e8e8" stroke-width="0.7" stroke-dasharray="4,3"/>
<text x="70.0" y="264.5" font-size="9" font-weight="normal" text-anchor="end" fill="#888" font-family="Arial,sans-serif">60</text>
<line x1="73.0" y1="242.2" x2="78.0" y2="242.2" stroke="#999" stroke-width="1"/>
<line x1="78.0" y1="242.2" x2="1100.0" y2="242.2" stroke="#e8e8e8" stroke-width="0.7" stroke-dasharray="4,3"/>
<text x="70.0" y="246.2" font-size="9" font-weight="normal" text-anchor="end" fill="#888" font-family="Arial,sans-serif">65</text>
<line x1="73.0" y1="223.9" x2="78.0" y2="223.9" stroke="#999" stroke-width="1"/>
<line x1="78.0" y1="223.9" x2="1100.0" y2="223.9" stroke="#e8e8e8" stroke-width="0.7" stroke-dasharray="4,3"/>
<text x="70.0" y="227.9" font-size="9" font-weight="normal" text-anchor="end" fill="#888" font-family="Arial,sans-serif">70</text>
<line x1="73.0" y1="205.6" x2="78.0" y2="205.6" stroke="#999" stroke-width="1"/>
<line x1="78.0" y1="205.6" x2="1100.0" y2="205.6" stroke="#e8e8e8" stroke-width="0.7" stroke-dasharray="4,3"/>
<text x="70.0" y="209.6" font-size="9" font-weight="normal" text-anchor="end" fill="#888" font-family="Arial,sans-serif">75</text>
<line x1="73.0" y1="187.3" x2="78.0" y2="187.3" stroke="#999" stroke-width="1"/>
<line x1="78.0" y1="187.3" x2="1100.0" y2="187.3" stroke="#e8e8e8" stroke-width="0.7" stroke-dasharray="4,3"/>
<text x="70.0" y="191.3" font-size="9" font-weight="normal" text-anchor="end" fill="#888" font-family="Arial,sans-serif">80</text>
<line x1="73.0" y1="169.0" x2="78.0" y2="169.0" stroke="#999" stroke-width="1"/>
<line x1="78.0" y1="169.0" x2="1100.0" y2="169.0" stroke="#e8e8e8" stroke-width="0.7" stroke-dasharray="4,3"/>
<text x="70.0" y="173.0" font-size="9" font-weight="normal" text-anchor="end" fill="#888" font-family="Arial,sans-serif">85</text>
<line x1="73.0" y1="150.7" x2="78.0" y2="150.7" stroke="#999" stroke-width="1"/>
<line x1="78.0" y1="150.7" x2="1100.0" y2="150.7" stroke="#e8e8e8" stroke-width="0.7" stroke-dasharray="4,3"/>
<text x="70.0" y="154.7" font-size="9" font-weight="normal" text-anchor="end" fill="#888" font-family="Arial,sans-serif">90</text>
<line x1="73.0" y1="132.4" x2="78.0" y2="132.4" stroke="#999" stroke-width="1"/>
<line x1="78.0" y1="132.4" x2="1100.0" y2="132.4" stroke="#e8e8e8" stroke-width="0.7" stroke-dasharray="4,3"/>
<text x="70.0" y="136.4" font-size="9" font-weight="normal" text-anchor="end" fill="#888" font-family="Arial,sans-serif">95</text>
<line x1="73.0" y1="114.1" x2="78.0" y2="114.1" stroke="#999" stroke-width="1"/>
<line x1="78.0" y1="114.1" x2="1100.0" y2="114.1" stroke="#e8e8e8" stroke-width="0.7" stroke-dasharray="4,3"/>
<text x="70.0" y="118.1" font-size="9" font-weight="normal" text-anchor="end" fill="#888" font-family="Arial,sans-serif">100</text>
<line x1="73.0" y1="95.8" x2="78.0" y2="95.8" stroke="#999" stroke-width="1"/>
<line x1="78.0" y1="95.8" x2="1100.0" y2="95.8" stroke="#e8e8e8" stroke-width="0.7" stroke-dasharray="4,3"/>
<text x="70.0" y="99.8" font-size="9" font-weight="normal" text-anchor="end" fill="#888" font-family="Arial,sans-serif">105</text>
<line x1="73.0" y1="77.5" x2="78.0" y2="77.5" stroke="#999" stroke-width="1"/>
<line x1="78.0" y1="77.5" x2="1100.0" y2="77.5" stroke="#e8e8e8" stroke-width="0.7" stroke-dasharray="4,3"/>
<text x="70.0" y="81.5" font-size="9" font-weight="normal" text-anchor="end" fill="#888" font-family="Arial,sans-serif">110</text>
<line x1="78.0" y1="480.0" x2="1100.0" y2="480.0" stroke="#999" stroke-width="1"/>
<line x1="333.5" y1="480.0" x2="333.5" y2="485.0" stroke="#999" stroke-width="1"/>
<line x1="333.5" y1="68.0" x2="333.5" y2="480.0" stroke="#e8e8e8" stroke-width="0.7" stroke-dasharray="4,3"/>
<text x="333.5" y="496.0" font-size="10" font-weight="normal" text-anchor="middle" fill="#888" font-family="Arial,sans-serif">3.135</text>
<line x1="589.0" y1="480.0" x2="589.0" y2="485.0" stroke="#999" stroke-width="1"/>
<line x1="589.0" y1="68.0" x2="589.0" y2="480.0" stroke="#e8e8e8" stroke-width="0.7" stroke-dasharray="4,3"/>
<text x="589.0" y="496.0" font-size="10" font-weight="normal" text-anchor="middle" fill="#888" font-family="Arial,sans-serif">3.3</text>
<line x1="844.5" y1="480.0" x2="844.5" y2="485.0" stroke="#999" stroke-width="1"/>
<line x1="844.5" y1="68.0" x2="844.5" y2="480.0" stroke="#e8e8e8" stroke-width="0.7" stroke-dasharray="4,3"/>
<text x="844.5" y="496.0" font-size="10" font-weight="normal" text-anchor="middle" fill="#888" font-family="Arial,sans-serif">3.465</text>
<text x="16.0" y="274.0" font-size="11" font-weight="normal" text-anchor="middle" fill="#555" font-family="Arial,sans-serif" transform="rotate(-90,16,274.0)">Overshoot [mV]</text>
<text x="589.0" y="550.0" font-size="11" font-weight="normal" text-anchor="middle" fill="#555" font-family="Arial,sans-serif">Vin Setpoint [V]</text>
<g class="series pmic-series" data-mode="PWM" data-chip="21988" data-temp="0" data-reg="DC2DC_DIG">
<path d="M 321.0,157.3 L 576.5,169.0 L 832.0,164.3" fill="none" stroke="#3498db" stroke-width="1.8" stroke-dasharray="5,3" opacity="0.6"/>
<circle cx="321.0" cy="157.3" r="6" fill="#3498db" stroke="white" opacity="1.0"/>
<circle cx="576.5" cy="169.0" r="6" fill="#3498db" stroke="white" opacity="1.0"/>
<circle cx="832.0" cy="164.3" r="6" fill="#3498db" stroke="white" opacity="1.0"/>
</g>
<g class="series pmic-series" data-mode="PWM" data-chip="21988" data-temp="25" data-reg="DC2DC_DIG">
<path d="M 326.0,158.4 L 581.5,150.7 L 837.0,165.0" fill="none" stroke="#e67e22" stroke-width="1.8" stroke-dasharray="5,3" opacity="0.6"/>
<circle cx="326.0" cy="158.4" r="6" fill="#e67e22" stroke="white" opacity="1.0"/>
<circle cx="581.5" cy="150.7" r="6" fill="#e67e22" stroke="white" opacity="1.0"/>
<circle cx="837.0" cy="165.0" r="6" fill="#e67e22" stroke="white" opacity="1.0"/>
</g>
<g class="series pmic-series" data-mode="PWM" data-chip="21988" data-temp="80" data-reg="DC2DC_DIG">
<path d="M 331.0,146.7 L 586.5,143.8 L 842.0,146.7" fill="none" stroke="#2ecc71" stroke-width="1.8" stroke-dasharray="5,3" opacity="0.6"/>
<circle cx="331.0" cy="146.7" r="6" fill="#2ecc71" stroke="white" opacity="1.0"/>
<circle cx="586.5" cy="143.8" r="6" fill="#2ecc71" stroke="white" opacity="1.0"/>
<circle cx="842.0" cy="146.7" r="6" fill="#2ecc71" stroke="white" opacity="1.0"/>
</g>
<g class="series pmic-series" data-mode="PWM" data-chip="31927" data-temp="0" data-reg="DC2DC_DIG">
<path d="M 336.0,77.2 L 591.5,84.1 L 847.0,91.8" fill="none" stroke="#9b59b6" stroke-width="1.8" stroke-dasharray="5,3" opacity="0.6"/>
<circle cx="336.0" cy="77.2" r="6" fill="#9b59b6" stroke="white" opacity="1.0"/>
<circle cx="591.5" cy="84.1" r="6" fill="#9b59b6" stroke="white" opacity="1.0"/>
<circle cx="847.0" cy="91.8" r="6" fill="#9b59b6" stroke="white" opacity="1.0"/>
</g>
<g class="series pmic-series" data-mode="PWM" data-chip="31927" data-temp="25" data-reg="DC2DC_DIG">
<path d="M 341.0,89.3 L 596.5,98.4 L 852.0,90.0" fill="none" stroke="#1abc9c" stroke-width="1.8" stroke-dasharray="5,3" opacity="0.6"/>
<circle cx="341.0" cy="89.3" r="6" fill="#1abc9c" stroke="white" opacity="1.0"/>
<circle cx="596.5" cy="98.4" r="6" fill="#1abc9c" stroke="white" opacity="1.0"/>
<circle cx="852.0" cy="90.0" r="6" fill="#1abc9c" stroke="white" opacity="1.0"/>
</g>
<g class="series pmic-series" data-mode="PWM" data-chip="31927" data-temp="80" data-reg="DC2DC_DIG">
<path d="M 346.0,83.8 L 601.5,84.9 L 857.0,91.5" fill="none" stroke="#e74c3c" stroke-width="1.8" stroke-dasharray="5,3" opacity="0.6"/>
<circle cx="346.0" cy="83.8" r="6" fill="#e74c3c" stroke="white" opacity="1.0"/>
<circle cx="601.5" cy="84.9" r="6" fill="#e74c3c" stroke="white" opacity="1.0"/>
<circle cx="857.0" cy="91.5" r="6" fill="#e74c3c" stroke="white" opacity="1.0"/>
</g>
<g class="legend-item" data-mode="PWM" data-chip="21988" data-temp="0" data-reg="DC2DC_DIG">
<rect x="1116.0" y="69.0" width="18.0" height="4.0" fill="#3498db" stroke="none" stroke-width="1" opacity="1.0" rx="2"/>
<circle cx="1125.0" cy="71.0" r="5" fill="#3498db" stroke="none" opacity="1.0"/>
<text x="1140.0" y="76.0" font-size="9" font-weight="normal" text-anchor="start" fill="#333" font-family="Arial,sans-serif">Ch21988 | T=0°C | step↓</text>
</g>
<g class="legend-item" data-mode="PWM" data-chip="21988" data-temp="25" data-reg="DC2DC_DIG">
<rect x="1116.0" y="86.0" width="18.0" height="4.0" fill="#e67e22" stroke="none" stroke-width="1" opacity="1.0" rx="2"/>
<circle cx="1125.0" cy="88.0" r="5" fill="#e67e22" stroke="none" opacity="1.0"/>
<text x="1140.0" y="93.0" font-size="9" font-weight="normal" text-anchor="start" fill="#333" font-family="Arial,sans-serif">Ch21988 | T=25°C | step↓</text>
</g>
<g class="legend-item" data-mode="PWM" data-chip="21988" data-temp="80" data-reg="DC2DC_DIG">
<rect x="1116.0" y="103.0" width="18.0" height="4.0" fill="#2ecc71" stroke="none" stroke-width="1" opacity="1.0" rx="2"/>
<circle cx="1125.0" cy="105.0" r="5" fill="#2ecc71" stroke="none" opacity="1.0"/>
<text x="1140.0" y="110.0" font-size="9" font-weight="normal" text-anchor="start" fill="#333" font-family="Arial,sans-serif">Ch21988 | T=80°C | step↓</text>
</g>
<g class="legend-item" data-mode="PWM" data-chip="31927" data-temp="0" data-reg="DC2DC_DIG">
<rect x="1116.0" y="120.0" width="18.0" height="4.0" fill="#9b59b6" stroke="none" stroke-width="1" opacity="1.0" rx="2"/>
<circle cx="1125.0" cy="122.0" r="5" fill="#9b59b6" stroke="none" opacity="1.0"/>
<text x="1140.0" y="127.0" font-size="9" font-weight="normal" text-anchor="start" fill="#333" font-family="Arial,sans-serif">Ch31927 | T=0°C | step↓</text>
</g>
<g class="legend-item" data-mode="PWM" data-chip="31927" data-temp="25" data-reg="DC2DC_DIG">
<rect x="1116.0" y="137.0" width="18.0" height="4.0" fill="#1abc9c" stroke="none" stroke-width="1" opacity="1.0" rx="2"/>
<circle cx="1125.0" cy="139.0" r="5" fill="#1abc9c" stroke="none" opacity="1.0"/>
<text x="1140.0" y="144.0" font-size="9" font-weight="normal" text-anchor="start" fill="#333" font-family="Arial,sans-serif">Ch31927 | T=25°C | step↓</text>
</g>
<g class="legend-item" data-mode="PWM" data-chip="31927" data-temp="80" data-reg="DC2DC_DIG">
<rect x="1116.0" y="154.0" width="18.0" height="4.0" fill="#e74c3c" stroke="none" stroke-width="1" opacity="1.0" rx="2"/>
<circle cx="1125.0" cy="156.0" r="5" fill="#e74c3c" stroke="none" opacity="1.0"/>
<text x="1140.0" y="161.0" font-size="9" font-weight="normal" text-anchor="start" fill="#333" font-family="Arial,sans-serif">Ch31927 | T=80°C | step↓</text>
</g>
<rect class="cursor-overlay" x="78.0" y="68.0" width="1022.0" height="412.0" fill="transparent" style="cursor:default" data-xmin="78" data-xmax="1100" data-ymin="0" data-ymax="112.61" data-pl="78.0" data-pr="1100.0" data-pt="68.0" data-pb="480.0"/>
<g class="cursor-layer" style="pointer-events:none;display:none"><line class="cur-v" x1="0" y1="68.0" x2="0" y2="480.0" stroke="#e74c3c" stroke-width="1.2" stroke-dasharray="5,3"/><line class="cur-h" x1="78.0" y1="0" x2="1100.0" y2="0" stroke="#e74c3c" stroke-width="1.2" stroke-dasharray="5,3"/><rect class="cur-tip-bg" x="0" y="0" width="148" height="44" rx="5" fill="#1a252f" stroke="#34495e" stroke-width="1" opacity="0.92"/><text class="cur-tip-x" x="0" y="0" font-size="11" font-family="Arial,sans-serif" fill="#ecf0f1"/><text class="cur-tip-y" x="0" y="0" font-size="11" font-family="Arial,sans-serif" fill="#2ecc71"/></g>
</svg>