<svg xmlns="http://www.w3.org/2000/svg" width="1400" height="520" viewBox="0 0 1400 520">
<rect width="1400" height="520" fill="#ffffff"/>
<text x="700.0" y="28.0" font-size="16" font-weight="bold" text-anchor="middle" fill="#2c3e50" font-family="Arial,sans-serif">Static Line Regulation — Analog DC2DC  Vout=1.2V  [AUTO_PFM]  Iload=200mA</text>
<line x1="78.0" y1="68.0" x2="78.0" y2="440.0" stroke="#999" stroke-width="1"/>
<line x1="73.0" y1="440.0" x2="78.0" y2="440.0" stroke="#999" stroke-width="1"/>
<line x1="78.0" y1="440.0" x2="1100.0" y2="440.0" stroke="#e8e8e8" stroke-width="0.7" stroke-dasharray="4,3"/>
<text x="70.0" y="444.0" font-size="9" font-weight="normal" text-anchor="end" fill="#888" font-family="Arial,sans-serif">1.19</text>
<line x1="73.0" y1="365.6" x2="78.0" y2="365.6" stroke="#999" stroke-width="1"/>
<line x1="78.0" y1="365.6" x2="1100.0" y2="365.6" stroke="#e8e8e8" stroke-width="0.7" stroke-dasharray="4,3"/>
<text x="70.0" y="369.6" font-size="9" font-weight="normal" text-anchor="end" fill="#888" font-family="Arial,sans-serif">1.2</text>
<line x1="73.0" y1="291.2" x2="78.0" y2="291.2" stroke="#999" stroke-width="1"/>
<line x1="78.0" y1="291.2" x2="1100.0" y2="291.2" stroke="#e8e8e8" stroke-width="0.7" stroke-dasharray="4,3"/>
<text x="70.0" y="295.2" font-size="9" font-weight="normal" text-anchor="end" fill="#888" font-family="Arial,sans-serif">1.2</text>
<line x1="73.0" y1="216.8" x2="78.0" y2="216.8" stroke="#999" stroke-width="1"/>
<line x1="78.0" y1="216.8" x2="1100.0" y2="216.8" stroke="#e8e8e8" stroke-width="0.7" stroke-dasharray="4,3"/>
<text x="70.0" y="220.8" font-size="9" font-weight="normal" text-anchor="end" fill="#888" font-family="Arial,sans-serif">1.21</text>
<line x1="73.0" y1="142.4" x2="78.0" y2="142.4" stroke="#999" stroke-width="1"/>
<line x1="78.0" y1="142.4" x2="1100.0" y2="142.4" stroke="#e8e8e8" stroke-width="0.7" stroke-dasharray="4,3"/>
<text x="70.0" y="146.4" font-size="9" font-weight="normal" text-anchor="end" fill="#888" font-family="Arial,sans-serif">1.21</text>
<line x1="73.0" y1="68.0" x2="78.0" y2="68.0" stroke="#999" stroke-width="1"/>
<line x1="78.0" y1="68.0" x2="1100.0" y2="68.0" stroke="#e8e8e8" stroke-width="0.7" stroke-dasharray="4,3"/>
<text x="70.0" y="72.0" font-size="9" font-weight="normal" text-anchor="end" fill="#888" font-family="Arial,sans-serif">1.22</text>
<line x1="78.0" y1="440.0" x2="1100.0" y2="440.0" stroke="#999" stroke-width="1"/>
<line x1="78.0" y1="440.0" x2="78.0" y2="445.0" stroke="#999" stroke-width="1"/>
<line x1="78.0" y1="68.0" x2="78.0" y2="440.0" stroke="#e8e8e8" stroke-width="0.7" stroke-dasharray="4,3"/>
<text x="78.0" y="456.0" font-size="9" font-weight="normal" text-anchor="middle" fill="#888" font-family="Arial,sans-serif">2.45</text>
<line x1="224.0" y1="440.0" x2="224.0" y2="445.0" stroke="#999" stroke-width="1"/>
<line x1="224.0" y1="68.0" x2="224.0" y2="440.0" stroke="#e8e8e8" stroke-width="0.7" stroke-dasharray="4,3"/>
<text x="224.0" y="456.0" font-size="9" font-weight="normal" text-anchor="middle" fill="#888" font-family="Arial,sans-serif">2.62</text>
<line x1="370.0" y1="440.0" x2="370.0" y2="445.0" stroke="#999" stroke-width="1"/>
<line x1="370.0" y1="68.0" x2="370.0" y2="440.0" stroke="#e8e8e8" stroke-width="0.7" stroke-dasharray="4,3"/>
<text x="370.0" y="456.0" font-size="9" font-weight="normal" text-anchor="middle" fill="#888" font-family="Arial,sans-serif">2.79</text>
<line x1="516.0" y1="440.0" x2="516.0" y2="445.0" stroke="#999" stroke-width="1"/>
<line x1="516.0" y1="68.0" x2="516.0" y2="440.0" stroke="#e8e8e8" stroke-width="0.7" stroke-dasharray="4,3"/>
<text x="516.0" y="456.0" font-size="9" font-weight="normal" text-anchor="middle" fill="#888" font-family="Arial,sans-serif">2.96</text>
<line x1="662.0" y1="440.0" x2="662.0" y2="445.0" stroke="#999" stroke-width="1"/>
<line x1="662.0" y1="68.0" x2="662.0" y2="440.0" stroke="#e8e8e8" stroke-width="0.7" stroke-dasharray="4,3"/>
<text x="662.0" y="456.0" font-size="9" font-weight="normal" text-anchor="middle" fill="#888" font-family="Arial,sans-serif">3.13</text>
<line x1="808.0" y1="440.0" x2="808.0" y2="445.0" stroke="#999" stroke-width="1"/>
<line x1="808.0" y1="68.0" x2="808.0" y2="440.0" stroke="#e8e8e8" stroke-width="0.7" stroke-dasharray="4,3"/>
<text x="808.0" y="456.0" font-size="9" font-weight="normal" text-anchor="middle" fill="#888" font-family="Arial,sans-serif">3.3</text>
<line x1="954.0" y1="440.0" x2="954.0" y2="445.0" stroke="#999" stroke-width="1"/>
<line x1="954.0" y1="68.0" x2="954.0" y2="440.0" stroke="#e8e8e8" stroke-width="0.7" stroke-dasharray="4,3"/>
<text x="954.0" y="456.0" font-size="9" font-weight="normal" text-anchor="middle" fill="#888" font-family="Arial,sans-serif">3.46</text>
<line x1="1100.0" y1="440.0" x2="1100.0" y2="445.0" stroke="#999" stroke-width="1"/>
<line x1="1100.0" y1="68.0" x2="1100.0" y2="440.0" stroke="#e8e8e8" stroke-width="0.7" stroke-dasharray="4,3"/>
<text x="1100.0" y="456.0" font-size="9" font-weight="normal" text-anchor="middle" fill="#888" font-family="Arial,sans-serif">3.63</text>
<text x="16.0" y="254.0" font-size="11" font-weight="normal" text-anchor="middle" fill="#555" font-family="Arial,sans-serif" transform="rotate(-90,16,254.0)">Output Voltage  Vout [V]</text>
<text x="589.0" y="510.0" font-size="11" font-weight="normal" text-anchor="middle" fill="#555" font-family="Arial,sans-serif">Input Voltage  Vin [V]</text>
<g class="series pmic-series" data-mode="AUTO_PFM" data-chip="21988" data-temp="0" data-reg="DC2DC_ANA">
<path d="M 124.5,215.1 L 150.3,205.6 L 176.1,201.5 L 202.0,212.4 L 227.8,209.6 L 253.6,208.3 L 279.4,201.5 L 305.1,219.2 L 330.9,212.4 L 356.9,206.9 L 382.7,200.1 L 408.5,202.8 L 434.2,215.1 L 460.0,219.2 L 485.8,206.9 L 511.7,200.1 L 537.5,193.3 L 563.3,206.9 L 589.1,217.8 L 614.8,212.4 L 640.6,208.3 L 666.6,204.2 L 692.4,197.4 L 718.2,197.4 L 743.9,194.6 L 769.6,213.7 L 795.4,217.8 L 821.4,213.7 L 847.1,204.2 L 872.9,204.2 L 898.6,202.8 L 924.5,201.5 L 950.2,189.2 L 976.1,186.5 L 1001.9,191.9 L 1027.7,204.2 L 1053.5,221.9" fill="none" stroke="#3498db" stroke-width="2.2" stroke-linejoin="round" opacity="0.9"/>
<circle cx="124.5" cy="215.1" r="4" fill="#3498db" stroke="white" opacity="1.0"/>
<circle cx="150.3" cy="205.6" r="4" fill="#3498db" stroke="white" opacity="1.0"/>
<circle cx="176.1" cy="201.5" r="4" fill="#3498db" stroke="white" opacity="1.0"/>
<circle cx="202.0" cy="212.4" r="4" fill="#3498db" stroke="white" opacity="1.0"/>
<circle cx="227.8" cy="209.6" r="4" fill="#3498db" stroke="white" opacity="1.0"/>
<circle cx="253.6" cy="208.3" r="4" fill="#3498db" stroke="white" opacity="1.0"/>
<circle cx="279.4" cy="201.5" r="4" fill="#3498db" stroke="white" opacity="1.0"/>
<circle cx="305.1" cy="219.2" r="4" fill="#3498db" stroke="white" opacity="1.0"/>
<circle cx="330.9" cy="212.4" r="4" fill="#3498db" stroke="white" opacity="1.0"/>
<circle cx="356.9" cy="206.9" r="4" fill="#3498db" stroke="white" opacity="1.0"/>
<circle cx="382.7" cy="200.1" r="4" fill="#3498db" stroke="white" opacity="1.0"/>
<circle cx="408.5" cy="202.8" r="4" fill="#3498db" stroke="white" opacity="1.0"/>
<circle cx="434.2" cy="215.1" r="4" fill="#3498db" stroke="white" opacity="1.0"/>
<circle cx="460.0" cy="219.2" r="4" fill="#3498db" stroke="white" opacity="1.0"/>
<circle cx="485.8" cy="206.9" r="4" fill="#3498db" stroke="white" opacity="1.0"/>
<circle cx="511.7" cy="200.1" r="4" fill="#3498db" stroke="white" opacity="1.0"/>
<circle cx="537.5" cy="193.3" r="4" fill="#3498db" stroke="white" opacity="1.0"/>
<circle cx="563.3" cy="206.9" r="4" fill="#3498db" stroke="white" opacity="1.0"/>
<circle cx="589.1" cy="217.8" r="4" fill="#3498db" stroke="white" opacity="1.0"/>
<circle cx="614.8" cy="212.4" r="4" fill="#3498db" stroke="white" opacity="1.0"/>
<circle cx="640.6" cy="208.3" r="4" fill="#3498db" stroke="white" opacity="1.0"/>
<circle cx="666.6" cy="204.2" r="4" fill="#3498db" stroke="white" opacity="1.0"/>
<circle cx="692.4" cy="197.4" r="4" fill="#3498db" stroke="white" opacity="1.0"/>
<circle cx="718.2" cy="197.4" r="4" fill="#3498db" stroke="white" opacity="1.0"/>
<circle cx="743.9" cy="194.6" r="4" fill="#3498db" stroke="white" opacity="1.0"/>
<circle cx="769.6" cy="213.7" r="4" fill="#3498db" stroke="white" opacity="1.0"/>
<circle cx="795.4" cy="217.8" r="4" fill="#3498db" stroke="white" opacity="1.0"/>
<circle cx="821.4" cy="213.7" r="4" fill="#3498db" stroke="white" opacity="1.0"/>
<circle cx="847.1" cy="204.2" r="4" fill="#3498db" stroke="white" opacity="1.0"/>
<circle cx="872.9" cy="204.2" r="4" fill="#3498db" stroke="white" opacity="1.0"/>
<circle cx="898.6" cy="202.8" r="4" fill="#3498db" stroke="white" opacity="1.0"/>
<circle cx="924.5" cy="201.5" r="4" fill="#3498db" stroke="white" opacity="1.0"/>
<circle cx="950.2" cy="189.2" r="4" fill="#3498db" stroke="white" opacity="1.0"/>
<circle cx="976.1" cy="186.5" r="4" fill="#3498db" stroke="white" opacity="1.0"/>
<circle cx="1001.9" cy="191.9" r="4" fill="#3498db" stroke="white" opacity="1.0"/>
<circle cx="1027.7" cy="204.2" r="4" fill="#3498db" stroke="white" opacity="1.0"/>
<circle cx="1053.5" cy="221.9" r="4" fill="#3498db" stroke="white" opacity="1.0"/>
</g>
<g class="series pmic-series" data-mode="AUTO_PFM" data-chip="21988" data-temp="25" data-reg="DC2DC_ANA">
<path d="M 124.5,189.2 L 150.3,182.4 L 176.1,182.4 L 202.0,183.7 L 227.8,179.6 L 253.6,178.3 L 279.4,187.8 L 305.2,186.5 L 331.0,183.7 L 356.8,174.2 L 382.7,182.4 L 408.5,189.2 L 434.2,185.1 L 460.0,171.4 L 485.8,171.4 L 511.7,178.3 L 537.5,187.8 L 563.3,182.4 L 589.1,185.1 L 614.8,178.3 L 640.6,172.8 L 666.6,175.5 L 692.4,187.8 L 718.2,183.7 L 743.9,186.5 L 769.6,176.9 L 795.4,176.9 L 821.4,167.3 L 847.2,166.0 L 872.9,172.8 L 898.6,193.3 L 924.5,191.9 L 950.2,189.2 L 976.1,183.7 L 1001.9,175.5 L 1027.7,175.5 L 1053.5,171.4" fill="none" stroke="#e67e22" stroke-width="2.2" stroke-linejoin="round" opacity="0.9"/>
<circle cx="124.5" cy="189.2" r="4" fill="#e67e22" stroke="white" opacity="1.0"/>
<circle cx="150.3" cy="182.4" r="4" fill="#e67e22" stroke="white" opacity="1.0"/>
<circle cx="176.1" cy="182.4" r="4" fill="#e67e22" stroke="white" opacity="1.0"/>
<circle cx="202.0" cy="183.7" r="4" fill="#e67e22" stroke="white" opacity="1.0"/>
<circle cx="227.8" cy="179.6" r="4" fill="#e67e22" stroke="white" opacity="1.0"/>
<circle cx="253.6" cy="178.3" r="4" fill="#e67e22" stroke="white" opacity="1.0"/>
<circle cx="279.4" cy="187.8" r="4" fill="#e67e22" stroke="white" opacity="1.0"/>
<circle cx="305.2" cy="186.5" r="4" fill="#e67e22" stroke="white" opacity="1.0"/>
<circle cx="331.0" cy="183.7" r="4" fill="#e67e22" stroke="white" opacity="1.0"/>
<circle cx="356.8" cy="174.2" r="4" fill="#e67e22" stroke="white" opacity="1.0"/>
<circle cx="382.7" cy="182.4" r="4" fill="#e67e22" stroke="white" opacity="1.0"/>
<circle cx="408.5" cy="189.2" r="4" fill="#e67e22" stroke="white" opacity="1.0"/>
<circle cx="434.2" cy="185.1" r="4" fill="#e67e22" stroke="white" opacity="1.0"/>
<circle cx="460.0" cy="171.4" r="4" fill="#e67e22" stroke="white" opacity="1.0"/>
<circle cx="485.8" cy="171.4" r="4" fill="#e67e22" stroke="white" opacity="1.0"/>
<circle cx="511.7" cy="178.3" r="4" fill="#e67e22" stroke="white" opacity="1.0"/>
<circle cx="537.5" cy="187.8" r="4" fill="#e67e22" stroke="white" opacity="1.0"/>
<circle cx="563.3" cy="182.4" r="4" fill="#e67e22" stroke="white" opacity="1.0"/>
<circle cx="589.1" cy="185.1" r="4" fill="#e67e22" stroke="white" opacity="1.0"/>
<circle cx="614.8" cy="178.3" r="4" fill="#e67e22" stroke="white" opacity="1.0"/>
<circle cx="640.6" cy="172.8" r="4" fill="#e67e22" stroke="white" opacity="1.0"/>
<circle cx="666.6" cy="175.5" r="4" fill="#e67e22" stroke="white" opacity="1.0"/>
<circle cx="692.4" cy="187.8" r="4" fill="#e67e22" stroke="white" opacity="1.0"/>
<circle cx="718.2" cy="183.7" r="4" fill="#e67e22" stroke="white" opacity="1.0"/>
<circle cx="743.9" cy="186.5" r="4" fill="#e67e22" stroke="white" opacity="1.0"/>
<circle cx="769.6" cy="176.9" r="4" fill="#e67e22" stroke="white" opacity="1.0"/>
<circle cx="795.4" cy="176.9" r="4" fill="#e67e22" stroke="white" opacity="1.0"/>
<circle cx="821.4" cy="167.3" r="4" fill="#e67e22" stroke="white" opacity="1.0"/>
<circle cx="847.2" cy="166.0" r="4" fill="#e67e22" stroke="white" opacity="1.0"/>
<circle cx="872.9" cy="172.8" r="4" fill="#e67e22" stroke="white" opacity="1.0"/>
<circle cx="898.6" cy="193.3" r="4" fill="#e67e22" stroke="white" opacity="1.0"/>
<circle cx="924.5" cy="191.9" r="4" fill="#e67e22" stroke="white" opacity="1.0"/>
<circle cx="950.2" cy="189.2" r="4" fill="#e67e22" stroke="white" opacity="1.0"/>
<circle cx="976.1" cy="183.7" r="4" fill="#e67e22" stroke="white" opacity="1.0"/>
<circle cx="1001.9" cy="175.5" r="4" fill="#e67e22" stroke="white" opacity="1.0"/>
<circle cx="1027.7" cy="175.5" r="4" fill="#e67e22" stroke="white" opacity="1.0"/>
<circle cx="1053.5" cy="171.4" r="4" fill="#e67e22" stroke="white" opacity="1.0"/>
</g>
<g class="series pmic-series" data-mode="AUTO_PFM" data-chip="21988" data-temp="80" data-reg="DC2DC_ANA">
<path d="M 124.5,125.0 L 150.3,116.9 L 176.1,126.4 L 202.0,114.1 L 227.8,111.4 L 253.6,118.2 L 279.4,127.8 L 305.1,115.5 L 331.0,114.1 L 356.9,116.9 L 382.7,127.8 L 408.5,122.3 L 434.2,114.1 L 460.0,105.9 L 485.8,105.9 L 511.7,119.6 L 537.5,123.7 L 563.2,115.5 L 589.1,105.9 L 614.8,108.7 L 640.6,105.9 L 666.5,125.0 L 692.4,125.0 L 718.2,120.9 L 743.9,112.8 L 769.6,114.1 L 795.4,111.4 L 821.3,105.9 L 847.2,103.2 L 872.9,116.9 L 898.6,120.9 L 924.4,119.6 L 950.2,115.5 L 976.1,111.4 L 1001.9,115.5 L 1027.7,105.9 L 1053.5,93.7" fill="none" stroke="#2ecc71" stroke-width="2.2" stroke-linejoin="round" opacity="0.9"/>
<circle cx="124.5" cy="125.0" r="4" fill="#2ecc71" stroke="white" opacity="1.0"/>
<circle cx="150.3" cy="116.9" r="4" fill="#2ecc71" stroke="white" opacity="1.0"/>
<circle cx="176.1" cy="126.4" r="4" fill="#2ecc71" stroke="white" opacity="1.0"/>
<circle cx="202.0" cy="114.1" r="4" fill="#2ecc71" stroke="white" opacity="1.0"/>
<circle cx="227.8" cy="111.4" r="4" fill="#2ecc71" stroke="white" opacity="1.0"/>
<circle cx="253.6" cy="118.2" r="4" fill="#2ecc71" stroke="white" opacity="1.0"/>
<circle cx="279.4" cy="127.8" r="4" fill="#2ecc71" stroke="white" opacity="1.0"/>
<circle cx="305.1" cy="115.5" r="4" fill="#2ecc71" stroke="white" opacity="1.0"/>
<circle cx="331.0" cy="114.1" r="4" fill="#2ecc71" stroke="white" opacity="1.0"/>
<circle cx="356.9" cy="116.9" r="4" fill="#2ecc71" stroke="white" opacity="1.0"/>
<circle cx="382.7" cy="127.8" r="4" fill="#2ecc71" stroke="white" opacity="1.0"/>
<circle cx="408.5" cy="122.3" r="4" fill="#2ecc71" stroke="white" opacity="1.0"/>
<circle cx="434.2" cy="114.1" r="4" fill="#2ecc71" stroke="white" opacity="1.0"/>
<circle cx="460.0" cy="105.9" r="4" fill="#2ecc71" stroke="white" opacity="1.0"/>
<circle cx="485.8" cy="105.9" r="4" fill="#2ecc71" stroke="white" opacity="1.0"/>
<circle cx="511.7" cy="119.6" r="4" fill="#2ecc71" stroke="white" opacity="1.0"/>
<circle cx="537.5" cy="123.7" r="4" fill="#2ecc71" stroke="white" opacity="1.0"/>
<circle cx="563.2" cy="115.5" r="4" fill="#2ecc71" stroke="white" opacity="1.0"/>
<circle cx="589.1" cy="105.9" r="4" fill="#2ecc71" stroke="white" opacity="1.0"/>
<circle cx="614.8" cy="108.7" r="4" fill="#2ecc71" stroke="white" opacity="1.0"/>
<circle cx="640.6" cy="105.9" r="4" fill="#2ecc71" stroke="white" opacity="1.0"/>
<circle cx="666.5" cy="125.0" r="4" fill="#2ecc71" stroke="white" opacity="1.0"/>
<circle cx="692.4" cy="125.0" r="4" fill="#2ecc71" stroke="white" opacity="1.0"/>
<circle cx="718.2" cy="120.9" r="4" fill="#2ecc71" stroke="white" opacity="1.0"/>
<circle cx="743.9" cy="112.8" r="4" fill="#2ecc71" stroke="white" opacity="1.0"/>
<circle cx="769.6" cy="114.1" r="4" fill="#2ecc71" stroke="white" opacity="1.0"/>
<circle cx="795.4" cy="111.4" r="4" fill="#2ecc71" stroke="white" opacity="1.0"/>
<circle cx="821.3" cy="105.9" r="4" fill="#2ecc71" stroke="white" opacity="1.0"/>
<circle cx="847.2" cy="103.2" r="4" fill="#2ecc71" stroke="white" opacity="1.0"/>
<circle cx="872.9" cy="116.9" r="4" fill="#2ecc71" stroke="white" opacity="1.0"/>
<circle cx="898.6" cy="120.9" r="4" fill="#2ecc71" stroke="white" opacity="1.0"/>
<circle cx="924.4" cy="119.6" r="4" fill="#2ecc71" stroke="white" opacity="1.0"/>
<circle cx="950.2" cy="115.5" r="4" fill="#2ecc71" stroke="white" opacity="1.0"/>
<circle cx="976.1" cy="111.4" r="4" fill="#2ecc71" stroke="white" opacity="1.0"/>
<circle cx="1001.9" cy="115.5" r="4" fill="#2ecc71" stroke="white" opacity="1.0"/>
<circle cx="1027.7" cy="105.9" r="4" fill="#2ecc71" stroke="white" opacity="1.0"/>
<circle cx="1053.5" cy="93.7" r="4" fill="#2ecc71" stroke="white" opacity="1.0"/>
</g>
<g class="series pmic-series" data-mode="AUTO_PFM" data-chip="31927" data-temp="0" data-reg="DC2DC_ANA">
<path d="M 124.5,142.8 L 150.3,134.6 L 176.1,133.2 L 202.0,122.3 L 227.8,131.9 L 253.6,134.6 L 279.4,125.0 L 305.1,134.6 L 330.9,133.2 L 356.9,144.1 L 382.7,131.9 L 408.5,131.9 L 434.2,131.9 L 460.0,123.7 L 485.8,123.7 L 511.7,134.6 L 537.5,127.8 L 563.3,125.0 L 589.1,127.8 L 614.8,115.5 L 640.6,115.5 L 666.5,112.8 L 692.3,129.1 L 718.2,138.7 L 743.9,127.8 L 769.6,126.4 L 795.4,119.6 L 821.3,116.9 L 847.1,110.0 L 872.9,103.2 L 898.6,107.3 L 924.4,99.1 L 950.2,114.1 L 976.1,130.5 L 1001.9,127.8 L 1027.7,123.7 L 1053.5,125.0" fill="none" stroke="#9b59b6" stroke-width="2.2" stroke-linejoin="round" opacity="0.9"/>
<circle cx="124.5" cy="142.8" r="4" fill="#9b59b6" stroke="white" opacity="1.0"/>
<circle cx="150.3" cy="134.6" r="4" fill="#9b59b6" stroke="white" opacity="1.0"/>
<circle cx="176.1" cy="133.2" r="4" fill="#9b59b6" stroke="white" opacity="1.0"/>
<circle cx="202.0" cy="122.3" r="4" fill="#9b59b6" stroke="white" opacity="1.0"/>
<circle cx="227.8" cy="131.9" r="4" fill="#9b59b6" stroke="white" opacity="1.0"/>
<circle cx="253.6" cy="134.6" r="4" fill="#9b59b6" stroke="white" opacity="1.0"/>
<circle cx="279.4" cy="125.0" r="4" fill="#9b59b6" stroke="white" opacity="1.0"/>
<circle cx="305.1" cy="134.6" r="4" fill="#9b59b6" stroke="white" opacity="1.0"/>
<circle cx="330.9" cy="133.2" r="4" fill="#9b59b6" stroke="white" opacity="1.0"/>
<circle cx="356.9" cy="144.1" r="4" fill="#9b59b6" stroke="white" opacity="1.0"/>
<circle cx="382.7" cy="131.9" r="4" fill="#9b59b6" stroke="white" opacity="1.0"/>
<circle cx="408.5" cy="131.9" r="4" fill="#9b59b6" stroke="white" opacity="1.0"/>
<circle cx="434.2" cy="131.9" r="4" fill="#9b59b6" stroke="white" opacity="1.0"/>
<circle cx="460.0" cy="123.7" r="4" fill="#9b59b6" stroke="white" opacity="1.0"/>
<circle cx="485.8" cy="123.7" r="4" fill="#9b59b6" stroke="white" opacity="1.0"/>
<circle cx="511.7" cy="134.6" r="4" fill="#9b59b6" stroke="white" opacity="1.0"/>
<circle cx="537.5" cy="127.8" r="4" fill="#9b59b6" stroke="white" opacity="1.0"/>
<circle cx="563.3" cy="125.0" r="4" fill="#9b59b6" stroke="white" opacity="1.0"/>
<circle cx="589.1" cy="127.8" r="4" fill="#9b59b6" stroke="white" opacity="1.0"/>
<circle cx="614.8" cy="115.5" r="4" fill="#9b59b6" stroke="white" opacity="1.0"/>
<circle cx="640.6" cy="115.5" r="4" fill="#9b59b6" stroke="white" opacity="1.0"/>
<circle cx="666.5" cy="112.8" r="4" fill="#9b59b6" stroke="white" opacity="1.0"/>
<circle cx="692.3" cy="129.1" r="4" fill="#9b59b6" stroke="white" opacity="1.0"/>
<circle cx="718.2" cy="138.7" r="4" fill="#9b59b6" stroke="white" opacity="1.0"/>
<circle cx="743.9" cy="127.8" r="4" fill="#9b59b6" stroke="white" opacity="1.0"/>
<circle cx="769.6" cy="126.4" r="4" fill="#9b59b6" stroke="white" opacity="1.0"/>
<circle cx="795.4" cy="119.6" r="4" fill="#9b59b6" stroke="white" opacity="1.0"/>
<circle cx="821.3" cy="116.9" r="4" fill="#9b59b6" stroke="white" opacity="1.0"/>
<circle cx="847.1" cy="110.0" r="4" fill="#9b59b6" stroke="white" opacity="1.0"/>
<circle cx="872.9" cy="103.2" r="4" fill="#9b59b6" stroke="white" opacity="1.0"/>
<circle cx="898.6" cy="107.3" r="4" fill="#9b59b6" stroke="white" opacity="1.0"/>
<circle cx="924.4" cy="99.1" r="4" fill="#9b59b6" stroke="white" opacity="1.0"/>
<circle cx="950.2" cy="114.1" r="4" fill="#9b59b6" stroke="white" opacity="1.0"/>
<circle cx="976.1" cy="130.5" r="4" fill="#9b59b6" stroke="white" opacity="1.0"/>
<circle cx="1001.9" cy="127.8" r="4" fill="#9b59b6" stroke="white" opacity="1.0"/>
<circle cx="1027.7" cy="123.7" r="4" fill="#9b59b6" stroke="white" opacity="1.0"/>
<circle cx="1053.5" cy="125.0" r="4" fill="#9b59b6" stroke="white" opacity="1.0"/>
</g>
<g class="series pmic-series" data-mode="AUTO_PFM" data-chip="31927" data-temp="25" data-reg="DC2DC_ANA">
<path d="M 124.5,322.9 L 150.3,331.1 L 176.1,322.9 L 202.0,325.6 L 227.8,328.4 L 253.6,327.0 L 279.4,322.9 L 305.1,324.3 L 330.9,325.6 L 356.8,318.8 L 382.7,314.7 L 408.5,316.1 L 434.2,316.1 L 460.0,322.9 L 485.8,318.8 L 511.7,318.8 L 537.5,313.4 L 563.2,310.6 L 589.1,312.0 L 614.8,321.5 L 640.6,328.4 L 666.5,322.9 L 692.4,320.2 L 718.1,317.5 L 743.9,310.6 L 769.6,307.9 L 795.4,299.7 L 821.3,309.3 L 847.2,324.3 L 872.9,318.8 L 898.6,312.0 L 924.4,310.6 L 950.2,302.4 L 976.1,307.9 L 1001.9,307.9 L 1027.7,299.7 L 1053.5,294.3" fill="none" stroke="#1abc9c" stroke-width="2.2" stroke-linejoin="round" opacity="0.9"/>
<circle cx="124.5" cy="322.9" r="4" fill="#1abc9c" stroke="white" opacity="1.0"/>
<circle cx="150.3" cy="331.1" r="4" fill="#1abc9c" stroke="white" opacity="1.0"/>
<circle cx="176.1" cy="322.9" r="4" fill="#1abc9c" stroke="white" opacity="1.0"/>
<circle cx="202.0" cy="325.6" r="4" fill="#1abc9c" stroke="white" opacity="1.0"/>
<circle cx="227.8" cy="328.4" r="4" fill="#1abc9c" stroke="white" opacity="1.0"/>
<circle cx="253.6" cy="327.0" r="4" fill="#1abc9c" stroke="white" opacity="1.0"/>
<circle cx="279.4" cy="322.9" r="4" fill="#1abc9c" stroke="white" opacity="1.0"/>
<circle cx="305.1" cy="324.3" r="4" fill="#1abc9c" stroke="white" opacity="1.0"/>
<circle cx="330.9" cy="325.6" r="4" fill="#1abc9c" stroke="white" opacity="1.0"/>
<circle cx="356.8" cy="318.8" r="4" fill="#1abc9c" stroke="white" opacity="1.0"/>
<circle cx="382.7" cy="314.7" r="4" fill="#1abc9c" stroke="white" opacity="1.0"/>
<circle cx="408.5" cy="316.1" r="4" fill="#1abc9c" stroke="white" opacity="1.0"/>
<circle cx="434.2" cy="316.1" r="4" fill="#1abc9c" stroke="white" opacity="1.0"/>
<circle cx="460.0" cy="322.9" r="4" fill="#1abc9c" stroke="white" opacity="1.0"/>
<circle cx="485.8" cy="318.8" r="4" fill="#1abc9c" stroke="white" opacity="1.0"/>
<circle cx="511.7" cy="318.8" r="4" fill="#1abc9c" stroke="white" opacity="1.0"/>
<circle cx="537.5" cy="313.4" r="4" fill="#1abc9c" stroke="white" opacity="1.0"/>
<circle cx="563.2" cy="310.6" r="4" fill="#1abc9c" stroke="white" opacity="1.0"/>
<circle cx="589.1" cy="312.0" r="4" fill="#1abc9c" stroke="white" opacity="1.0"/>
<circle cx="614.8" cy="321.5" r="4" fill="#1abc9c" stroke="white" opacity="1.0"/>
<circle cx="640.6" cy="328.4" r="4" fill="#1abc9c" stroke="white" opacity="1.0"/>
<circle cx="666.5" cy="322.9" r="4" fill="#1abc9c" stroke="white" opacity="1.0"/>
<circle cx="692.4" cy="320.2" r="4" fill="#1abc9c" stroke="white" opacity="1.0"/>
<circle cx="718.1" cy="317.5" r="4" fill="#1abc9c" stroke="white" opacity="1.0"/>
<circle cx="743.9" cy="310.6" r="4" fill="#1abc9c" stroke="white" opacity="1.0"/>
<circle cx="769.6" cy="307.9" r="4" fill="#1abc9c" stroke="white" opacity="1.0"/>
<circle cx="795.4" cy="299.7" r="4" fill="#1abc9c" stroke="white" opacity="1.0"/>
<circle cx="821.3" cy="309.3" r="4" fill="#1abc9c" stroke="white" opacity="1.0"/>
<circle cx="847.2" cy="324.3" r="4" fill="#1abc9c" stroke="white" opacity="1.0"/>
<circle cx="872.9" cy="318.8" r="4" fill="#1abc9c" stroke="white" opacity="1.0"/>
<circle cx="898.6" cy="312.0" r="4" fill="#1abc9c" stroke="white" opacity="1.0"/>
<circle cx="924.4" cy="310.6" r="4" fill="#1abc9c" stroke="white" opacity="1.0"/>
<circle cx="950.2" cy="302.4" r="4" fill="#1abc9c" stroke="white" opacity="1.0"/>
<circle cx="976.1" cy="307.9" r="4" fill="#1abc9c" stroke="white" opacity="1.0"/>
<circle cx="1001.9" cy="307.9" r="4" fill="#1abc9c" stroke="white" opacity="1.0"/>
<circle cx="1027.7" cy="299.7" r="4" fill="#1abc9c" stroke="white" opacity="1.0"/>
<circle cx="1053.5" cy="294.3" r="4" fill="#1abc9c" stroke="white" opacity="1.0"/>
</g>
<g class="series pmic-series" data-mode="AUTO_PFM" data-chip="31927" data-temp="80" data-reg="DC2DC_ANA">
<path d="M 124.5,396.6 L 150.3,396.6 L 176.1,387.1 L 202.0,381.6 L 227.8,391.1 L 253.6,404.8 L 279.4,392.5 L 305.1,400.7 L 331.0,399.3 L 356.9,399.3 L 382.7,392.5 L 408.5,392.5 L 434.2,393.9 L 460.0,399.3 L 485.8,399.3 L 511.7,396.6 L 537.5,392.5 L 563.3,388.4 L 589.1,388.4 L 614.8,402.1 L 640.6,406.2 L 666.5,395.2 L 692.4,404.8 L 718.1,396.6 L 743.9,398.0 L 769.6,389.8 L 795.4,387.1 L 821.3,395.2 L 847.2,414.3 L 872.9,406.2 L 898.6,406.2 L 924.4,400.7 L 950.2,391.1 L 976.1,387.1 L 1001.9,383.0 L 1027.7,380.2 L 1053.5,376.1" fill="none" stroke="#e74c3c" stroke-width="2.2" stroke-linejoin="round" opacity="0.9"/>
<circle cx="124.5" cy="396.6" r="4" fill="#e74c3c" stroke="white" opacity="1.0"/>
<circle cx="150.3" cy="396.6" r="4" fill="#e74c3c" stroke="white" opacity="1.0"/>
<circle cx="176.1" cy="387.1" r="4" fill="#e74c3c" stroke="white" opacity="1.0"/>
<circle cx="202.0" cy="381.6" r="4" fill="#e74c3c" stroke="white" opacity="1.0"/>
<circle cx="227.8" cy="391.1" r="4" fill="#e74c3c" stroke="white" opacity="1.0"/>
<circle cx="253.6" cy="404.8" r="4" fill="#e74c3c" stroke="white" opacity="1.0"/>
<circle cx="279.4" cy="392.5" r="4" fill="#e74c3c" stroke="white" opacity="1.0"/>
<circle cx="305.1" cy="400.7" r="4" fill="#e74c3c" stroke="white" opacity="1.0"/>
<circle cx="331.0" cy="399.3" r="4" fill="#e74c3c" stroke="white" opacity="1.0"/>
<circle cx="356.9" cy="399.3" r="4" fill="#e74c3c" stroke="white" opacity="1.0"/>
<circle cx="382.7" cy="392.5" r="4" fill="#e74c3c" stroke="white" opacity="1.0"/>
<circle cx="408.5" cy="392.5" r="4" fill="#e74c3c" stroke="white" opacity="1.0"/>
<circle cx="434.2" cy="393.9" r="4" fill="#e74c3c" stroke="white" opacity="1.0"/>
<circle cx="460.0" cy="399.3" r="4" fill="#e74c3c" stroke="white" opacity="1.0"/>
<circle cx="485.8" cy="399.3" r="4" fill="#e74c3c" stroke="white" opacity="1.0"/>
<circle cx="511.7" cy="396.6" r="4" fill="#e74c3c" stroke="white" opacity="1.0"/>
<circle cx="537.5" cy="392.5" r="4" fill="#e74c3c" stroke="white" opacity="1.0"/>
<circle cx="563.3" cy="388.4" r="4" fill="#e74c3c" stroke="white" opacity="1.0"/>
<circle cx="589.1" cy="388.4" r="4" fill="#e74c3c" stroke="white" opacity="1.0"/>
<circle cx="614.8" cy="402.1" r="4" fill="#e74c3c" stroke="white" opacity="1.0"/>
<circle cx="640.6" cy="406.2" r="4" fill="#e74c3c" stroke="white" opacity="1.0"/>
<circle cx="666.5" cy="395.2" r="4" fill="#e74c3c" stroke="white" opacity="1.0"/>
<circle cx="692.4" cy="404.8" r="4" fill="#e74c3c" stroke="white" opacity="1.0"/>
<circle cx="718.1" cy="396.6" r="4" fill="#e74c3c" stroke="white" opacity="1.0"/>
<circle cx="743.9" cy="398.0" r="4" fill="#e74c3c" stroke="white" opacity="1.0"/>
<circle cx="769.6" cy="389.8" r="4" fill="#e74c3c" stroke="white" opacity="1.0"/>
<circle cx="795.4" cy="387.1" r="4" fill="#e74c3c" stroke="white" opacity="1.0"/>
<circle cx="821.3" cy="395.2" r="4" fill="#e74c3c" stroke="white" opacity="1.0"/>
<circle cx="847.2" cy="414.3" r="4" fill="#e74c3c" stroke="white" opacity="1.0"/>
<circle cx="872.9" cy="406.2" r="4" fill="#e74c3c" stroke="white" opacity="1.0"/>
<circle cx="898.6" cy="406.2" r="4" fill="#e74c3c" stroke="white" opacity="1.0"/>
<circle cx="924.4" cy="400.7" r="4" fill="#e74c3c" stroke="white" opacity="1.0"/>
<circle cx="950.2" cy="391.1" r="4" fill="#e74c3c" stroke="white" opacity="1.0"/>
<circle cx="976.1" cy="387.1" r="4" fill="#e74c3c" stroke="white" opacity="1.0"/>
<circle cx="1001.9" cy="383.0" r="4" fill="#e74c3c" stroke="white" opacity="1.0"/>
<circle cx="1027.7" cy="380.2" r="4" fill="#e74c3c" stroke="white" opacity="1.0"/>
<circle cx="1053.5" cy="376.1" r="4" fill="#e74c3c" stroke="white" opacity="1.0"/>
</g>
<g class="legend-item" data-mode="AUTO_PFM" data-chip="21988" data-temp="0" data-reg="DC2DC_ANA">
<rect x="1116.0" y="69.0" width="22.0" height="4.0" fill="#3498db" stroke="none" stroke-width="1" opacity="1.0" rx="2"/>
<circle cx="1127.0" cy="71.0" r="4" fill="#3498db" stroke="none" opacity="1.0"/>
<text x="1144.0" y="76.0" font-size="9" font-weight="normal" text-anchor="start" fill="#333" font-family="Arial,sans-serif">Chip 21988 | T=0°C</text>
</g>
<g class="legend-item" data-mode="AUTO_PFM" data-chip="21988" data-temp="25" data-reg="DC2DC_ANA">
<rect x="1116.0" y="86.0" width="22.0" height="4.0" fill="#e67e22" stroke="none" stroke-width="1" opacity="1.0" rx="2"/>
<circle cx="1127.0" cy="88.0" r="4" fill="#e67e22" stroke="none" opacity="1.0"/>
<text x="1144.0" y="93.0" font-size="9" font-weight="normal" text-anchor="start" fill="#333" font-family="Arial,sans-serif">Chip 21988 | T=25°C</text>
</g>
<g class="legend-item" data-mode="AUTO_PFM" data-chip="21988" data-temp="80" data-reg="DC2DC_ANA">
<rect x="1116.0" y="103.0" width="22.0" height="4.0" fill="#2ecc71" stroke="none" stroke-width="1" opacity="1.0" rx="2"/>
<circle cx="1127.0" cy="105.0" r="4" fill="#2ecc71" stroke="none" opacity="1.0"/>
<text x="1144.0" y="110.0" font-size="9" font-weight="normal" text-anchor="start" fill="#333" font-family="Arial,sans-serif">Chip 21988 | T=80°C</text>
</g>
<g class="legend-item" data-mode="AUTO_PFM" data-chip="31927" data-temp="0" data-reg="DC2DC_ANA">
<rect x="1116.0" y="120.0" width="22.0" height="4.0" fill="#9b59b6" stroke="none" stroke-width="1" opacity="1.0" rx="2"/>
<circle cx="1127.0" cy="122.0" r="4" fill="#9b59b6" stroke="none" opacity="1.0"/>
<text x="1144.0" y="127.0" font-size="9" font-weight="normal" text-anchor="start" fill="#333" font-family="Arial,sans-serif">Chip 31927 | T=0°C</text>
</g>
<g class="legend-item" data-mode="AUTO_PFM" data-chip="31927" data-temp="25" data-reg="DC2DC_ANA">
<rect x="1116.0" y="137.0" width="22.0" height="4.0" fill="#1abc9c" stroke="none" stroke-width="1" opacity="1.0" rx="2"/>
<circle cx="1127.0" cy="139.0" r="4" fill="#1abc9c" stroke="none" opacity="1.0"/>
<text x="1144.0" y="144.0" font-size="9" font-weight="normal" text-anchor="start" fill="#333" font-family="Arial,sans-serif">Chip 31927 | T=25°C</text>
</g>
<g class="legend-item" data-mode="AUTO_PFM" data-chip="31927" data-temp="80" data-reg="DC2DC_ANA">
<rect x="1116.0" y="154.0" width="22.0" height="4.0" fill="#e74c3c" stroke="none" stroke-width="1" opacity="1.0" rx="2"/>
<circle cx="1127.0" cy="156.0" r="4" fill="#e74c3c" stroke="none" opacity="1.0"/>
<text x="1144.0" y="161.0" font-size="9" font-weight="normal" text-anchor="start" fill="#333" font-family="Arial,sans-serif">Chip 31927 | T=80°C</text>
</g>
<rect class="cursor-overlay" x="78.0" y="68.0" width="1022.0" height="372.0" fill="transparent" style="cursor:default" data-xmin="2.44629" data-xmax="3.63451" data-ymin="1.19182" data-ymax="1.21908" data-pl="78.0" data-pr="1100.0" data-pt="68.0" data-pb="440.0"/>
<g class="cursor-layer" style="pointer-events:none;display:none"><line class="cur-v" x1="0" y1="68.0" x2="0" y2="440.0" stroke="#e74c3c" stroke-width="1.2" stroke-dasharray="5,3"/><line class="cur-h" x1="78.0" y1="0" x2="1100.0" y2="0" stroke="#e74c3c" stroke-width="1.2" stroke-dasharray="5,3"/><rect class="cur-tip-bg" x="0" y="0" width="148" height="44" rx="5" fill="#1a252f" stroke="#34495e" stroke-width="1" opacity="0.92"/><text class="cur-tip-x" x="0" y="0" font-size="11" font-family="Arial,sans-serif" fill="#ecf0f1"/><text class="cur-tip-y" x="0" y="0" font-size="11" font-family="Arial,sans-serif" fill="#2ecc71"/></g>
</svg>