<svg xmlns="http://www.w3.org/2000/svg" width="1400" height="520" viewBox="0 0 1400 520">
<rect width="1400" height="520" fill="#ffffff"/>
<text x="700.0" y="28.0" font-size="16" font-weight="bold" text-anchor="middle" fill="#2c3e50" font-family="Arial,sans-serif">Static Line Regulation — Digital DC2DC  Vout=0.8V  [PWM]  Iload=3.0A</text>
<line x1="78.0" y1="68.0" x2="78.0" y2="440.0" stroke="#999" stroke-width="1"/>
<line x1="73.0" y1="440.0" x2="78.0" y2="440.0" stroke="#999" stroke-width="1"/>
<line x1="78.0" y1="440.0" x2="1100.0" y2="440.0" stroke="#e8e8e8" stroke-width="0.7" stroke-dasharray="4,3"/>
<text x="70.0" y="444.0" font-size="9" font-weight="normal" text-anchor="end" fill="#888" font-family="Arial,sans-serif">0.795</text>
<line x1="73.0" y1="365.6" x2="78.0" y2="365.6" stroke="#999" stroke-width="1"/>
<line x1="78.0" y1="365.6" x2="1100.0" y2="365.6" stroke="#e8e8e8" stroke-width="0.7" stroke-dasharray="4,3"/>
<text x="70.0" y="369.6" font-size="9" font-weight="normal" text-anchor="end" fill="#888" font-family="Arial,sans-serif">0.797</text>
<line x1="73.0" y1="291.2" x2="78.0" y2="291.2" stroke="#999" stroke-width="1"/>
<line x1="78.0" y1="291.2" x2="1100.0" y2="291.2" stroke="#e8e8e8" stroke-width="0.7" stroke-dasharray="4,3"/>
<text x="70.0" y="295.2" font-size="9" font-weight="normal" text-anchor="end" fill="#888" font-family="Arial,sans-serif">0.799</text>
<line x1="73.0" y1="216.8" x2="78.0" y2="216.8" stroke="#999" stroke-width="1"/>
<line x1="78.0" y1="216.8" x2="1100.0" y2="216.8" stroke="#e8e8e8" stroke-width="0.7" stroke-dasharray="4,3"/>
<text x="70.0" y="220.8" font-size="9" font-weight="normal" text-anchor="end" fill="#888" font-family="Arial,sans-serif">0.801</text>
<line x1="73.0" y1="142.4" x2="78.0" y2="142.4" stroke="#999" stroke-width="1"/>
<line x1="78.0" y1="142.4" x2="1100.0" y2="142.4" stroke="#e8e8e8" stroke-width="0.7" stroke-dasharray="4,3"/>
<text x="70.0" y="146.4" font-size="9" font-weight="normal" text-anchor="end" fill="#888" font-family="Arial,sans-serif">0.803</text>
<line x1="73.0" y1="68.0" x2="78.0" y2="68.0" stroke="#999" stroke-width="1"/>
<line x1="78.0" y1="68.0" x2="1100.0" y2="68.0" stroke="#e8e8e8" stroke-width="0.7" stroke-dasharray="4,3"/>
<text x="70.0" y="72.0" font-size="9" font-weight="normal" text-anchor="end" fill="#888" font-family="Arial,sans-serif">0.805</text>
<line x1="78.0" y1="440.0" x2="1100.0" y2="440.0" stroke="#999" stroke-width="1"/>
<line x1="78.0" y1="440.0" x2="78.0" y2="445.0" stroke="#999" stroke-width="1"/>
<line x1="78.0" y1="68.0" x2="78.0" y2="440.0" stroke="#e8e8e8" stroke-width="0.7" stroke-dasharray="4,3"/>
<text x="78.0" y="456.0" font-size="9" font-weight="normal" text-anchor="middle" fill="#888" font-family="Arial,sans-serif">2.45</text>
<line x1="224.0" y1="440.0" x2="224.0" y2="445.0" stroke="#999" stroke-width="1"/>
<line x1="224.0" y1="68.0" x2="224.0" y2="440.0" stroke="#e8e8e8" stroke-width="0.7" stroke-dasharray="4,3"/>
<text x="224.0" y="456.0" font-size="9" font-weight="normal" text-anchor="middle" fill="#888" font-family="Arial,sans-serif">2.62</text>
<line x1="370.0" y1="440.0" x2="370.0" y2="445.0" stroke="#999" stroke-width="1"/>
<line x1="370.0" y1="68.0" x2="370.0" y2="440.0" stroke="#e8e8e8" stroke-width="0.7" stroke-dasharray="4,3"/>
<text x="370.0" y="456.0" font-size="9" font-weight="normal" text-anchor="middle" fill="#888" font-family="Arial,sans-serif">2.79</text>
<line x1="516.0" y1="440.0" x2="516.0" y2="445.0" stroke="#999" stroke-width="1"/>
<line x1="516.0" y1="68.0" x2="516.0" y2="440.0" stroke="#e8e8e8" stroke-width="0.7" stroke-dasharray="4,3"/>
<text x="516.0" y="456.0" font-size="9" font-weight="normal" text-anchor="middle" fill="#888" font-family="Arial,sans-serif">2.96</text>
<line x1="662.0" y1="440.0" x2="662.0" y2="445.0" stroke="#999" stroke-width="1"/>
<line x1="662.0" y1="68.0" x2="662.0" y2="440.0" stroke="#e8e8e8" stroke-width="0.7" stroke-dasharray="4,3"/>
<text x="662.0" y="456.0" font-size="9" font-weight="normal" text-anchor="middle" fill="#888" font-family="Arial,sans-serif">3.13</text>
<line x1="808.0" y1="440.0" x2="808.0" y2="445.0" stroke="#999" stroke-width="1"/>
<line x1="808.0" y1="68.0" x2="808.0" y2="440.0" stroke="#e8e8e8" stroke-width="0.7" stroke-dasharray="4,3"/>
<text x="808.0" y="456.0" font-size="9" font-weight="normal" text-anchor="middle" fill="#888" font-family="Arial,sans-serif">3.3</text>
<line x1="954.0" y1="440.0" x2="954.0" y2="445.0" stroke="#999" stroke-width="1"/>
<line x1="954.0" y1="68.0" x2="954.0" y2="440.0" stroke="#e8e8e8" stroke-width="0.7" stroke-dasharray="4,3"/>
<text x="954.0" y="456.0" font-size="9" font-weight="normal" text-anchor="middle" fill="#888" font-family="Arial,sans-serif">3.46</text>
<line x1="1100.0" y1="440.0" x2="1100.0" y2="445.0" stroke="#999" stroke-width="1"/>
<line x1="1100.0" y1="68.0" x2="1100.0" y2="440.0" stroke="#e8e8e8" stroke-width="0.7" stroke-dasharray="4,3"/>
<text x="1100.0" y="456.0" font-size="9" font-weight="normal" text-anchor="middle" fill="#888" font-family="Arial,sans-serif">3.63</text>
<text x="16.0" y="254.0" font-size="11" font-weight="normal" text-anchor="middle" fill="#555" font-family="Arial,sans-serif" transform="rotate(-90,16,254.0)">Output Voltage  Vout [V]</text>
<text x="589.0" y="510.0" font-size="11" font-weight="normal" text-anchor="middle" fill="#555" font-family="Arial,sans-serif">Input Voltage  Vin [V]</text>
<g class="series pmic-series" data-mode="PWM" data-chip="21988" data-temp="0" data-reg="DC2DC_DIG">
<path d="M 124.5,112.5 L 150.3,120.1 L 176.1,120.1 L 201.9,120.1 L 227.7,108.7 L 253.6,112.5 L 279.3,108.7 L 305.1,112.5 L 330.9,93.7 L 356.9,105.0 L 382.6,105.0 L 408.4,112.5 L 434.1,105.0 L 460.0,105.0 L 485.7,112.5 L 511.7,108.7 L 537.4,120.1 L 563.2,105.0 L 589.0,101.2 L 614.8,108.7 L 640.7,101.2 L 666.5,112.5 L 692.4,105.0 L 718.2,108.7 L 744.0,112.5 L 769.6,105.0 L 795.4,108.7 L 821.3,123.8 L 847.1,112.5 L 872.8,120.1 L 898.6,116.3 L 924.4,120.1 L 950.2,120.1 L 976.1,112.5 L 1001.8,105.0 L 1027.7,112.5 L 1053.5,108.7" fill="none" stroke="#3498db" stroke-width="2.2" stroke-linejoin="round" opacity="0.9"/>
<circle cx="124.5" cy="112.5" r="4" fill="#3498db" stroke="white" opacity="1.0"/>
<circle cx="150.3" cy="120.1" r="4" fill="#3498db" stroke="white" opacity="1.0"/>
<circle cx="176.1" cy="120.1" r="4" fill="#3498db" stroke="white" opacity="1.0"/>
<circle cx="201.9" cy="120.1" r="4" fill="#3498db" stroke="white" opacity="1.0"/>
<circle cx="227.7" cy="108.7" r="4" fill="#3498db" stroke="white" opacity="1.0"/>
<circle cx="253.6" cy="112.5" r="4" fill="#3498db" stroke="white" opacity="1.0"/>
<circle cx="279.3" cy="108.7" r="4" fill="#3498db" stroke="white" opacity="1.0"/>
<circle cx="305.1" cy="112.5" r="4" fill="#3498db" stroke="white" opacity="1.0"/>
<circle cx="330.9" cy="93.7" r="4" fill="#3498db" stroke="white" opacity="1.0"/>
<circle cx="356.9" cy="105.0" r="4" fill="#3498db" stroke="white" opacity="1.0"/>
<circle cx="382.6" cy="105.0" r="4" fill="#3498db" stroke="white" opacity="1.0"/>
<circle cx="408.4" cy="112.5" r="4" fill="#3498db" stroke="white" opacity="1.0"/>
<circle cx="434.1" cy="105.0" r="4" fill="#3498db" stroke="white" opacity="1.0"/>
<circle cx="460.0" cy="105.0" r="4" fill="#3498db" stroke="white" opacity="1.0"/>
<circle cx="485.7" cy="112.5" r="4" fill="#3498db" stroke="white" opacity="1.0"/>
<circle cx="511.7" cy="108.7" r="4" fill="#3498db" stroke="white" opacity="1.0"/>
<circle cx="537.4" cy="120.1" r="4" fill="#3498db" stroke="white" opacity="1.0"/>
<circle cx="563.2" cy="105.0" r="4" fill="#3498db" stroke="white" opacity="1.0"/>
<circle cx="589.0" cy="101.2" r="4" fill="#3498db" stroke="white" opacity="1.0"/>
<circle cx="614.8" cy="108.7" r="4" fill="#3498db" stroke="white" opacity="1.0"/>
<circle cx="640.7" cy="101.2" r="4" fill="#3498db" stroke="white" opacity="1.0"/>
<circle cx="666.5" cy="112.5" r="4" fill="#3498db" stroke="white" opacity="1.0"/>
<circle cx="692.4" cy="105.0" r="4" fill="#3498db" stroke="white" opacity="1.0"/>
<circle cx="718.2" cy="108.7" r="4" fill="#3498db" stroke="white" opacity="1.0"/>
<circle cx="744.0" cy="112.5" r="4" fill="#3498db" stroke="white" opacity="1.0"/>
<circle cx="769.6" cy="105.0" r="4" fill="#3498db" stroke="white" opacity="1.0"/>
<circle cx="795.4" cy="108.7" r="4" fill="#3498db" stroke="white" opacity="1.0"/>
<circle cx="821.3" cy="123.8" r="4" fill="#3498db" stroke="white" opacity="1.0"/>
<circle cx="847.1" cy="112.5" r="4" fill="#3498db" stroke="white" opacity="1.0"/>
<circle cx="872.8" cy="120.1" r="4" fill="#3498db" stroke="white" opacity="1.0"/>
<circle cx="898.6" cy="116.3" r="4" fill="#3498db" stroke="white" opacity="1.0"/>
<circle cx="924.4" cy="120.1" r="4" fill="#3498db" stroke="white" opacity="1.0"/>
<circle cx="950.2" cy="120.1" r="4" fill="#3498db" stroke="white" opacity="1.0"/>
<circle cx="976.1" cy="112.5" r="4" fill="#3498db" stroke="white" opacity="1.0"/>
<circle cx="1001.8" cy="105.0" r="4" fill="#3498db" stroke="white" opacity="1.0"/>
<circle cx="1027.7" cy="112.5" r="4" fill="#3498db" stroke="white" opacity="1.0"/>
<circle cx="1053.5" cy="108.7" r="4" fill="#3498db" stroke="white" opacity="1.0"/>
</g>
<g class="series pmic-series" data-mode="PWM" data-chip="21988" data-temp="25" data-reg="DC2DC_DIG">
<path d="M 124.5,282.3 L 150.3,274.8 L 176.1,278.5 L 201.9,278.5 L 227.8,282.3 L 253.6,282.3 L 279.3,274.8 L 305.1,278.5 L 330.9,282.3 L 356.9,286.1 L 382.6,282.3 L 408.4,271.0 L 434.1,278.5 L 460.0,271.0 L 485.7,278.5 L 511.7,278.5 L 537.5,282.3 L 563.2,274.8 L 589.0,278.5 L 614.8,286.1 L 640.7,278.5 L 666.5,282.3 L 692.4,274.8 L 718.2,282.3 L 744.0,278.5 L 769.5,282.3 L 795.4,286.1 L 821.3,289.8 L 847.1,274.8 L 872.8,278.5 L 898.6,286.1 L 924.4,278.5 L 950.2,289.8 L 976.1,286.1 L 1001.8,289.8 L 1027.7,282.3 L 1053.5,289.8" fill="none" stroke="#e67e22" stroke-width="2.2" stroke-linejoin="round" opacity="0.9"/>
<circle cx="124.5" cy="282.3" r="4" fill="#e67e22" stroke="white" opacity="1.0"/>
<circle cx="150.3" cy="274.8" r="4" fill="#e67e22" stroke="white" opacity="1.0"/>
<circle cx="176.1" cy="278.5" r="4" fill="#e67e22" stroke="white" opacity="1.0"/>
<circle cx="201.9" cy="278.5" r="4" fill="#e67e22" stroke="white" opacity="1.0"/>
<circle cx="227.8" cy="282.3" r="4" fill="#e67e22" stroke="white" opacity="1.0"/>
<circle cx="253.6" cy="282.3" r="4" fill="#e67e22" stroke="white" opacity="1.0"/>
<circle cx="279.3" cy="274.8" r="4" fill="#e67e22" stroke="white" opacity="1.0"/>
<circle cx="305.1" cy="278.5" r="4" fill="#e67e22" stroke="white" opacity="1.0"/>
<circle cx="330.9" cy="282.3" r="4" fill="#e67e22" stroke="white" opacity="1.0"/>
<circle cx="356.9" cy="286.1" r="4" fill="#e67e22" stroke="white" opacity="1.0"/>
<circle cx="382.6" cy="282.3" r="4" fill="#e67e22" stroke="white" opacity="1.0"/>
<circle cx="408.4" cy="271.0" r="4" fill="#e67e22" stroke="white" opacity="1.0"/>
<circle cx="434.1" cy="278.5" r="4" fill="#e67e22" stroke="white" opacity="1.0"/>
<circle cx="460.0" cy="271.0" r="4" fill="#e67e22" stroke="white" opacity="1.0"/>
<circle cx="485.7" cy="278.5" r="4" fill="#e67e22" stroke="white" opacity="1.0"/>
<circle cx="511.7" cy="278.5" r="4" fill="#e67e22" stroke="white" opacity="1.0"/>
<circle cx="537.5" cy="282.3" r="4" fill="#e67e22" stroke="white" opacity="1.0"/>
<circle cx="563.2" cy="274.8" r="4" fill="#e67e22" stroke="white" opacity="1.0"/>
<circle cx="589.0" cy="278.5" r="4" fill="#e67e22" stroke="white" opacity="1.0"/>
<circle cx="614.8" cy="286.1" r="4" fill="#e67e22" stroke="white" opacity="1.0"/>
<circle cx="640.7" cy="278.5" r="4" fill="#e67e22" stroke="white" opacity="1.0"/>
<circle cx="666.5" cy="282.3" r="4" fill="#e67e22" stroke="white" opacity="1.0"/>
<circle cx="692.4" cy="274.8" r="4" fill="#e67e22" stroke="white" opacity="1.0"/>
<circle cx="718.2" cy="282.3" r="4" fill="#e67e22" stroke="white" opacity="1.0"/>
<circle cx="744.0" cy="278.5" r="4" fill="#e67e22" stroke="white" opacity="1.0"/>
<circle cx="769.5" cy="282.3" r="4" fill="#e67e22" stroke="white" opacity="1.0"/>
<circle cx="795.4" cy="286.1" r="4" fill="#e67e22" stroke="white" opacity="1.0"/>
<circle cx="821.3" cy="289.8" r="4" fill="#e67e22" stroke="white" opacity="1.0"/>
<circle cx="847.1" cy="274.8" r="4" fill="#e67e22" stroke="white" opacity="1.0"/>
<circle cx="872.8" cy="278.5" r="4" fill="#e67e22" stroke="white" opacity="1.0"/>
<circle cx="898.6" cy="286.1" r="4" fill="#e67e22" stroke="white" opacity="1.0"/>
<circle cx="924.4" cy="278.5" r="4" fill="#e67e22" stroke="white" opacity="1.0"/>
<circle cx="950.2" cy="289.8" r="4" fill="#e67e22" stroke="white" opacity="1.0"/>
<circle cx="976.1" cy="286.1" r="4" fill="#e67e22" stroke="white" opacity="1.0"/>
<circle cx="1001.8" cy="289.8" r="4" fill="#e67e22" stroke="white" opacity="1.0"/>
<circle cx="1027.7" cy="282.3" r="4" fill="#e67e22" stroke="white" opacity="1.0"/>
<circle cx="1053.5" cy="289.8" r="4" fill="#e67e22" stroke="white" opacity="1.0"/>
</g>
<g class="series pmic-series" data-mode="PWM" data-chip="21988" data-temp="80" data-reg="DC2DC_DIG">
<path d="M 124.5,188.0 L 150.3,176.7 L 176.1,184.2 L 201.9,180.4 L 227.8,176.7 L 253.6,169.1 L 279.3,172.9 L 305.0,180.4 L 330.9,172.9 L 356.9,169.1 L 382.6,169.1 L 408.4,169.1 L 434.1,180.4 L 459.9,176.7 L 485.6,180.4 L 511.7,180.4 L 537.4,184.2 L 563.2,169.1 L 589.0,176.7 L 614.8,176.7 L 640.6,176.7 L 666.5,180.4 L 692.4,184.2 L 718.1,176.7 L 743.9,172.9 L 769.5,176.7 L 795.4,172.9 L 821.3,169.1 L 847.1,176.7 L 872.8,176.7 L 898.6,169.1 L 924.5,176.7 L 950.2,184.2 L 976.1,161.6 L 1001.9,165.3 L 1027.8,169.1 L 1053.5,180.4" fill="none" stroke="#2ecc71" stroke-width="2.2" stroke-linejoin="round" opacity="0.9"/>
<circle cx="124.5" cy="188.0" r="4" fill="#2ecc71" stroke="white" opacity="1.0"/>
<circle cx="150.3" cy="176.7" r="4" fill="#2ecc71" stroke="white" opacity="1.0"/>
<circle cx="176.1" cy="184.2" r="4" fill="#2ecc71" stroke="white" opacity="1.0"/>
<circle cx="201.9" cy="180.4" r="4" fill="#2ecc71" stroke="white" opacity="1.0"/>
<circle cx="227.8" cy="176.7" r="4" fill="#2ecc71" stroke="white" opacity="1.0"/>
<circle cx="253.6" cy="169.1" r="4" fill="#2ecc71" stroke="white" opacity="1.0"/>
<circle cx="279.3" cy="172.9" r="4" fill="#2ecc71" stroke="white" opacity="1.0"/>
<circle cx="305.0" cy="180.4" r="4" fill="#2ecc71" stroke="white" opacity="1.0"/>
<circle cx="330.9" cy="172.9" r="4" fill="#2ecc71" stroke="white" opacity="1.0"/>
<circle cx="356.9" cy="169.1" r="4" fill="#2ecc71" stroke="white" opacity="1.0"/>
<circle cx="382.6" cy="169.1" r="4" fill="#2ecc71" stroke="white" opacity="1.0"/>
<circle cx="408.4" cy="169.1" r="4" fill="#2ecc71" stroke="white" opacity="1.0"/>
<circle cx="434.1" cy="180.4" r="4" fill="#2ecc71" stroke="white" opacity="1.0"/>
<circle cx="459.9" cy="176.7" r="4" fill="#2ecc71" stroke="white" opacity="1.0"/>
<circle cx="485.6" cy="180.4" r="4" fill="#2ecc71" stroke="white" opacity="1.0"/>
<circle cx="511.7" cy="180.4" r="4" fill="#2ecc71" stroke="white" opacity="1.0"/>
<circle cx="537.4" cy="184.2" r="4" fill="#2ecc71" stroke="white" opacity="1.0"/>
<circle cx="563.2" cy="169.1" r="4" fill="#2ecc71" stroke="white" opacity="1.0"/>
<circle cx="589.0" cy="176.7" r="4" fill="#2ecc71" stroke="white" opacity="1.0"/>
<circle cx="614.8" cy="176.7" r="4" fill="#2ecc71" stroke="white" opacity="1.0"/>
<circle cx="640.6" cy="176.7" r="4" fill="#2ecc71" stroke="white" opacity="1.0"/>
<circle cx="666.5" cy="180.4" r="4" fill="#2ecc71" stroke="white" opacity="1.0"/>
<circle cx="692.4" cy="184.2" r="4" fill="#2ecc71" stroke="white" opacity="1.0"/>
<circle cx="718.1" cy="176.7" r="4" fill="#2ecc71" stroke="white" opacity="1.0"/>
<circle cx="743.9" cy="172.9" r="4" fill="#2ecc71" stroke="white" opacity="1.0"/>
<circle cx="769.5" cy="176.7" r="4" fill="#2ecc71" stroke="white" opacity="1.0"/>
<circle cx="795.4" cy="172.9" r="4" fill="#2ecc71" stroke="white" opacity="1.0"/>
<circle cx="821.3" cy="169.1" r="4" fill="#2ecc71" stroke="white" opacity="1.0"/>
<circle cx="847.1" cy="176.7" r="4" fill="#2ecc71" stroke="white" opacity="1.0"/>
<circle cx="872.8" cy="176.7" r="4" fill="#2ecc71" stroke="white" opacity="1.0"/>
<circle cx="898.6" cy="169.1" r="4" fill="#2ecc71" stroke="white" opacity="1.0"/>
<circle cx="924.5" cy="176.7" r="4" fill="#2ecc71" stroke="white" opacity="1.0"/>
<circle cx="950.2" cy="184.2" r="4" fill="#2ecc71" stroke="white" opacity="1.0"/>
<circle cx="976.1" cy="161.6" r="4" fill="#2ecc71" stroke="white" opacity="1.0"/>
<circle cx="1001.9" cy="165.3" r="4" fill="#2ecc71" stroke="white" opacity="1.0"/>
<circle cx="1027.8" cy="169.1" r="4" fill="#2ecc71" stroke="white" opacity="1.0"/>
<circle cx="1053.5" cy="180.4" r="4" fill="#2ecc71" stroke="white" opacity="1.0"/>
</g>
<g class="series pmic-series" data-mode="PWM" data-chip="31927" data-temp="0" data-reg="DC2DC_DIG">
<path d="M 124.5,410.6 L 150.3,406.8 L 176.1,410.6 L 201.9,403.0 L 227.8,414.3 L 253.6,403.0 L 279.3,410.6 L 305.0,410.6 L 330.9,414.3 L 356.9,403.0 L 382.6,414.3 L 408.4,410.6 L 434.1,399.3 L 459.9,399.3 L 485.6,403.0 L 511.7,403.0 L 537.4,406.8 L 563.2,403.0 L 589.0,406.8 L 614.8,414.3 L 640.7,399.3 L 666.5,403.0 L 692.4,399.3 L 718.2,406.8 L 744.0,403.0 L 769.6,406.8 L 795.5,391.7 L 821.4,403.0 L 847.2,403.0 L 872.8,406.8 L 898.7,410.6 L 924.5,410.6 L 950.2,414.3 L 976.1,406.8 L 1001.9,406.8 L 1027.7,395.5 L 1053.5,406.8" fill="none" stroke="#9b59b6" stroke-width="2.2" stroke-linejoin="round" opacity="0.9"/>
<circle cx="124.5" cy="410.6" r="4" fill="#9b59b6" stroke="white" opacity="1.0"/>
<circle cx="150.3" cy="406.8" r="4" fill="#9b59b6" stroke="white" opacity="1.0"/>
<circle cx="176.1" cy="410.6" r="4" fill="#9b59b6" stroke="white" opacity="1.0"/>
<circle cx="201.9" cy="403.0" r="4" fill="#9b59b6" stroke="white" opacity="1.0"/>
<circle cx="227.8" cy="414.3" r="4" fill="#9b59b6" stroke="white" opacity="1.0"/>
<circle cx="253.6" cy="403.0" r="4" fill="#9b59b6" stroke="white" opacity="1.0"/>
<circle cx="279.3" cy="410.6" r="4" fill="#9b59b6" stroke="white" opacity="1.0"/>
<circle cx="305.0" cy="410.6" r="4" fill="#9b59b6" stroke="white" opacity="1.0"/>
<circle cx="330.9" cy="414.3" r="4" fill="#9b59b6" stroke="white" opacity="1.0"/>
<circle cx="356.9" cy="403.0" r="4" fill="#9b59b6" stroke="white" opacity="1.0"/>
<circle cx="382.6" cy="414.3" r="4" fill="#9b59b6" stroke="white" opacity="1.0"/>
<circle cx="408.4" cy="410.6" r="4" fill="#9b59b6" stroke="white" opacity="1.0"/>
<circle cx="434.1" cy="399.3" r="4" fill="#9b59b6" stroke="white" opacity="1.0"/>
<circle cx="459.9" cy="399.3" r="4" fill="#9b59b6" stroke="white" opacity="1.0"/>
<circle cx="485.6" cy="403.0" r="4" fill="#9b59b6" stroke="white" opacity="1.0"/>
<circle cx="511.7" cy="403.0" r="4" fill="#9b59b6" stroke="white" opacity="1.0"/>
<circle cx="537.4" cy="406.8" r="4" fill="#9b59b6" stroke="white" opacity="1.0"/>
<circle cx="563.2" cy="403.0" r="4" fill="#9b59b6" stroke="white" opacity="1.0"/>
<circle cx="589.0" cy="406.8" r="4" fill="#9b59b6" stroke="white" opacity="1.0"/>
<circle cx="614.8" cy="414.3" r="4" fill="#9b59b6" stroke="white" opacity="1.0"/>
<circle cx="640.7" cy="399.3" r="4" fill="#9b59b6" stroke="white" opacity="1.0"/>
<circle cx="666.5" cy="403.0" r="4" fill="#9b59b6" stroke="white" opacity="1.0"/>
<circle cx="692.4" cy="399.3" r="4" fill="#9b59b6" stroke="white" opacity="1.0"/>
<circle cx="718.2" cy="406.8" r="4" fill="#9b59b6" stroke="white" opacity="1.0"/>
<circle cx="744.0" cy="403.0" r="4" fill="#9b59b6" stroke="white" opacity="1.0"/>
<circle cx="769.6" cy="406.8" r="4" fill="#9b59b6" stroke="white" opacity="1.0"/>
<circle cx="795.5" cy="391.7" r="4" fill="#9b59b6" stroke="white" opacity="1.0"/>
<circle cx="821.4" cy="403.0" r="4" fill="#9b59b6" stroke="white" opacity="1.0"/>
<circle cx="847.2" cy="403.0" r="4" fill="#9b59b6" stroke="white" opacity="1.0"/>
<circle cx="872.8" cy="406.8" r="4" fill="#9b59b6" stroke="white" opacity="1.0"/>
<circle cx="898.7" cy="410.6" r="4" fill="#9b59b6" stroke="white" opacity="1.0"/>
<circle cx="924.5" cy="410.6" r="4" fill="#9b59b6" stroke="white" opacity="1.0"/>
<circle cx="950.2" cy="414.3" r="4" fill="#9b59b6" stroke="white" opacity="1.0"/>
<circle cx="976.1" cy="406.8" r="4" fill="#9b59b6" stroke="white" opacity="1.0"/>
<circle cx="1001.9" cy="406.8" r="4" fill="#9b59b6" stroke="white" opacity="1.0"/>
<circle cx="1027.7" cy="395.5" r="4" fill="#9b59b6" stroke="white" opacity="1.0"/>
<circle cx="1053.5" cy="406.8" r="4" fill="#9b59b6" stroke="white" opacity="1.0"/>
</g>
<g class="series pmic-series" data-mode="PWM" data-chip="31927" data-temp="25" data-reg="DC2DC_DIG">
<path d="M 124.5,361.5 L 150.3,365.3 L 176.1,357.8 L 201.9,350.2 L 227.8,357.8 L 253.6,365.3 L 279.3,361.5 L 305.0,361.5 L 330.9,357.8 L 356.9,361.5 L 382.6,357.8 L 408.4,357.8 L 434.1,350.2 L 459.9,346.4 L 485.6,350.2 L 511.7,361.5 L 537.4,350.2 L 563.2,350.2 L 589.0,350.2 L 614.8,350.2 L 640.6,354.0 L 666.5,354.0 L 692.4,342.7 L 718.2,350.2 L 744.0,350.2 L 769.6,354.0 L 795.4,361.5 L 821.4,361.5 L 847.2,357.8 L 872.8,361.5 L 898.6,365.3 L 924.5,361.5 L 950.2,365.3 L 976.1,357.8 L 1001.9,346.4 L 1027.7,357.8 L 1053.5,361.5" fill="none" stroke="#1abc9c" stroke-width="2.2" stroke-linejoin="round" opacity="0.9"/>
<circle cx="124.5" cy="361.5" r="4" fill="#1abc9c" stroke="white" opacity="1.0"/>
<circle cx="150.3" cy="365.3" r="4" fill="#1abc9c" stroke="white" opacity="1.0"/>
<circle cx="176.1" cy="357.8" r="4" fill="#1abc9c" stroke="white" opacity="1.0"/>
<circle cx="201.9" cy="350.2" r="4" fill="#1abc9c" stroke="white" opacity="1.0"/>
<circle cx="227.8" cy="357.8" r="4" fill="#1abc9c" stroke="white" opacity="1.0"/>
<circle cx="253.6" cy="365.3" r="4" fill="#1abc9c" stroke="white" opacity="1.0"/>
<circle cx="279.3" cy="361.5" r="4" fill="#1abc9c" stroke="white" opacity="1.0"/>
<circle cx="305.0" cy="361.5" r="4" fill="#1abc9c" stroke="white" opacity="1.0"/>
<circle cx="330.9" cy="357.8" r="4" fill="#1abc9c" stroke="white" opacity="1.0"/>
<circle cx="356.9" cy="361.5" r="4" fill="#1abc9c" stroke="white" opacity="1.0"/>
<circle cx="382.6" cy="357.8" r="4" fill="#1abc9c" stroke="white" opacity="1.0"/>
<circle cx="408.4" cy="357.8" r="4" fill="#1abc9c" stroke="white" opacity="1.0"/>
<circle cx="434.1" cy="350.2" r="4" fill="#1abc9c" stroke="white" opacity="1.0"/>
<circle cx="459.9" cy="346.4" r="4" fill="#1abc9c" stroke="white" opacity="1.0"/>
<circle cx="485.6" cy="350.2" r="4" fill="#1abc9c" stroke="white" opacity="1.0"/>
<circle cx="511.7" cy="361.5" r="4" fill="#1abc9c" stroke="white" opacity="1.0"/>
<circle cx="537.4" cy="350.2" r="4" fill="#1abc9c" stroke="white" opacity="1.0"/>
<circle cx="563.2" cy="350.2" r="4" fill="#1abc9c" stroke="white" opacity="1.0"/>
<circle cx="589.0" cy="350.2" r="4" fill="#1abc9c" stroke="white" opacity="1.0"/>
<circle cx="614.8" cy="350.2" r="4" fill="#1abc9c" stroke="white" opacity="1.0"/>
<circle cx="640.6" cy="354.0" r="4" fill="#1abc9c" stroke="white" opacity="1.0"/>
<circle cx="666.5" cy="354.0" r="4" fill="#1abc9c" stroke="white" opacity="1.0"/>
<circle cx="692.4" cy="342.7" r="4" fill="#1abc9c" stroke="white" opacity="1.0"/>
<circle cx="718.2" cy="350.2" r="4" fill="#1abc9c" stroke="white" opacity="1.0"/>
<circle cx="744.0" cy="350.2" r="4" fill="#1abc9c" stroke="white" opacity="1.0"/>
<circle cx="769.6" cy="354.0" r="4" fill="#1abc9c" stroke="white" opacity="1.0"/>
<circle cx="795.4" cy="361.5" r="4" fill="#1abc9c" stroke="white" opacity="1.0"/>
<circle cx="821.4" cy="361.5" r="4" fill="#1abc9c" stroke="white" opacity="1.0"/>
<circle cx="847.2" cy="357.8" r="4" fill="#1abc9c" stroke="white" opacity="1.0"/>
<circle cx="872.8" cy="361.5" r="4" fill="#1abc9c" stroke="white" opacity="1.0"/>
<circle cx="898.6" cy="365.3" r="4" fill="#1abc9c" stroke="white" opacity="1.0"/>
<circle cx="924.5" cy="361.5" r="4" fill="#1abc9c" stroke="white" opacity="1.0"/>
<circle cx="950.2" cy="365.3" r="4" fill="#1abc9c" stroke="white" opacity="1.0"/>
<circle cx="976.1" cy="357.8" r="4" fill="#1abc9c" stroke="white" opacity="1.0"/>
<circle cx="1001.9" cy="346.4" r="4" fill="#1abc9c" stroke="white" opacity="1.0"/>
<circle cx="1027.7" cy="357.8" r="4" fill="#1abc9c" stroke="white" opacity="1.0"/>
<circle cx="1053.5" cy="361.5" r="4" fill="#1abc9c" stroke="white" opacity="1.0"/>
</g>
<g class="series pmic-series" data-mode="PWM" data-chip="31927" data-temp="80" data-reg="DC2DC_DIG">
<path d="M 124.5,289.8 L 150.3,286.1 L 176.1,289.8 L 201.9,286.1 L 227.8,293.6 L 253.6,297.4 L 279.3,293.6 L 305.0,274.8 L 330.9,282.3 L 356.9,278.5 L 382.6,278.5 L 408.4,282.3 L 434.1,274.8 L 459.9,286.1 L 485.6,282.3 L 511.7,267.2 L 537.4,271.0 L 563.2,286.1 L 589.0,278.5 L 614.8,282.3 L 640.7,278.5 L 666.5,274.8 L 692.4,278.5 L 718.2,271.0 L 744.0,282.3 L 769.6,274.8 L 795.5,293.6 L 821.4,278.5 L 847.2,278.5 L 872.8,271.0 L 898.6,274.8 L 924.5,267.2 L 950.2,278.5 L 976.1,274.8 L 1001.9,282.3 L 1027.7,286.1 L 1053.5,286.1" fill="none" stroke="#e74c3c" stroke-width="2.2" stroke-linejoin="round" opacity="0.9"/>
<circle cx="124.5" cy="289.8" r="4" fill="#e74c3c" stroke="white" opacity="1.0"/>
<circle cx="150.3" cy="286.1" r="4" fill="#e74c3c" stroke="white" opacity="1.0"/>
<circle cx="176.1" cy="289.8" r="4" fill="#e74c3c" stroke="white" opacity="1.0"/>
<circle cx="201.9" cy="286.1" r="4" fill="#e74c3c" stroke="white" opacity="1.0"/>
<circle cx="227.8" cy="293.6" r="4" fill="#e74c3c" stroke="white" opacity="1.0"/>
<circle cx="253.6" cy="297.4" r="4" fill="#e74c3c" stroke="white" opacity="1.0"/>
<circle cx="279.3" cy="293.6" r="4" fill="#e74c3c" stroke="white" opacity="1.0"/>
<circle cx="305.0" cy="274.8" r="4" fill="#e74c3c" stroke="white" opacity="1.0"/>
<circle cx="330.9" cy="282.3" r="4" fill="#e74c3c" stroke="white" opacity="1.0"/>
<circle cx="356.9" cy="278.5" r="4" fill="#e74c3c" stroke="white" opacity="1.0"/>
<circle cx="382.6" cy="278.5" r="4" fill="#e74c3c" stroke="white" opacity="1.0"/>
<circle cx="408.4" cy="282.3" r="4" fill="#e74c3c" stroke="white" opacity="1.0"/>
<circle cx="434.1" cy="274.8" r="4" fill="#e74c3c" stroke="white" opacity="1.0"/>
<circle cx="459.9" cy="286.1" r="4" fill="#e74c3c" stroke="white" opacity="1.0"/>
<circle cx="485.6" cy="282.3" r="4" fill="#e74c3c" stroke="white" opacity="1.0"/>
<circle cx="511.7" cy="267.2" r="4" fill="#e74c3c" stroke="white" opacity="1.0"/>
<circle cx="537.4" cy="271.0" r="4" fill="#e74c3c" stroke="white" opacity="1.0"/>
<circle cx="563.2" cy="286.1" r="4" fill="#e74c3c" stroke="white" opacity="1.0"/>
<circle cx="589.0" cy="278.5" r="4" fill="#e74c3c" stroke="white" opacity="1.0"/>
<circle cx="614.8" cy="282.3" r="4" fill="#e74c3c" stroke="white" opacity="1.0"/>
<circle cx="640.7" cy="278.5" r="4" fill="#e74c3c" stroke="white" opacity="1.0"/>
<circle cx="666.5" cy="274.8" r="4" fill="#e74c3c" stroke="white" opacity="1.0"/>
<circle cx="692.4" cy="278.5" r="4" fill="#e74c3c" stroke="white" opacity="1.0"/>
<circle cx="718.2" cy="271.0" r="4" fill="#e74c3c" stroke="white" opacity="1.0"/>
<circle cx="744.0" cy="282.3" r="4" fill="#e74c3c" stroke="white" opacity="1.0"/>
<circle cx="769.6" cy="274.8" r="4" fill="#e74c3c" stroke="white" opacity="1.0"/>
<circle cx="795.5" cy="293.6" r="4" fill="#e74c3c" stroke="white" opacity="1.0"/>
<circle cx="821.4" cy="278.5" r="4" fill="#e74c3c" stroke="white" opacity="1.0"/>
<circle cx="847.2" cy="278.5" r="4" fill="#e74c3c" stroke="white" opacity="1.0"/>
<circle cx="872.8" cy="271.0" r="4" fill="#e74c3c" stroke="white" opacity="1.0"/>
<circle cx="898.6" cy="274.8" r="4" fill="#e74c3c" stroke="white" opacity="1.0"/>
<circle cx="924.5" cy="267.2" r="4" fill="#e74c3c" stroke="white" opacity="1.0"/>
<circle cx="950.2" cy="278.5" r="4" fill="#e74c3c" stroke="white" opacity="1.0"/>
<circle cx="976.1" cy="274.8" r="4" fill="#e74c3c" stroke="white" opacity="1.0"/>
<circle cx="1001.9" cy="282.3" r="4" fill="#e74c3c" stroke="white" opacity="1.0"/>
<circle cx="1027.7" cy="286.1" r="4" fill="#e74c3c" stroke="white" opacity="1.0"/>
<circle cx="1053.5" cy="286.1" r="4" fill="#e74c3c" stroke="white" opacity="1.0"/>
</g>
<g class="legend-item" data-mode="PWM" data-chip="21988" data-temp="0" data-reg="DC2DC_DIG">
<rect x="1116.0" y="69.0" width="22.0" height="4.0" fill="#3498db" stroke="none" stroke-width="1" opacity="1.0" rx="2"/>
<circle cx="1127.0" cy="71.0" r="4" fill="#3498db" stroke="none" opacity="1.0"/>
<text x="1144.0" y="76.0" font-size="9" font-weight="normal" text-anchor="start" fill="#333" font-family="Arial,sans-serif">Chip 21988 | T=0°C</text>
</g>
<g class="legend-item" data-mode="PWM" data-chip="21988" data-temp="25" data-reg="DC2DC_DIG">
<rect x="1116.0" y="86.0" width="22.0" height="4.0" fill="#e67e22" stroke="none" stroke-width="1" opacity="1.0" rx="2"/>
<circle cx="1127.0" cy="88.0" r="4" fill="#e67e22" stroke="none" opacity="1.0"/>
<text x="1144.0" y="93.0" font-size="9" font-weight="normal" text-anchor="start" fill="#333" font-family="Arial,sans-serif">Chip 21988 | T=25°C</text>
</g>
<g class="legend-item" data-mode="PWM" data-chip="21988" data-temp="80" data-reg="DC2DC_DIG">
<rect x="1116.0" y="103.0" width="22.0" height="4.0" fill="#2ecc71" stroke="none" stroke-width="1" opacity="1.0" rx="2"/>
<circle cx="1127.0" cy="105.0" r="4" fill="#2ecc71" stroke="none" opacity="1.0"/>
<text x="1144.0" y="110.0" font-size="9" font-weight="normal" text-anchor="start" fill="#333" font-family="Arial,sans-serif">Chip 21988 | T=80°C</text>
</g>
<g class="legend-item" data-mode="PWM" data-chip="31927" data-temp="0" data-reg="DC2DC_DIG">
<rect x="1116.0" y="120.0" width="22.0" height="4.0" fill="#9b59b6" stroke="none" stroke-width="1" opacity="1.0" rx="2"/>
<circle cx="1127.0" cy="122.0" r="4" fill="#9b59b6" stroke="none" opacity="1.0"/>
<text x="1144.0" y="127.0" font-size="9" font-weight="normal" text-anchor="start" fill="#333" font-family="Arial,sans-serif">Chip 31927 | T=0°C</text>
</g>
<g class="legend-item" data-mode="PWM" data-chip="31927" data-temp="25" data-reg="DC2DC_DIG">
<rect x="1116.0" y="137.0" width="22.0" height="4.0" fill="#1abc9c" stroke="none" stroke-width="1" opacity="1.0" rx="2"/>
<circle cx="1127.0" cy="139.0" r="4" fill="#1abc9c" stroke="none" opacity="1.0"/>
<text x="1144.0" y="144.0" font-size="9" font-weight="normal" text-anchor="start" fill="#333" font-family="Arial,sans-serif">Chip 31927 | T=25°C</text>
</g>
<g class="legend-item" data-mode="PWM" data-chip="31927" data-temp="80" data-reg="DC2DC_DIG">
<rect x="1116.0" y="154.0" width="22.0" height="4.0" fill="#e74c3c" stroke="none" stroke-width="1" opacity="1.0" rx="2"/>
<circle cx="1127.0" cy="156.0" r="4" fill="#e74c3c" stroke="none" opacity="1.0"/>
<text x="1144.0" y="161.0" font-size="9" font-weight="normal" text-anchor="start" fill="#333" font-family="Arial,sans-serif">Chip 31927 | T=80°C</text>
</g>
<rect class="cursor-overlay" x="78.0" y="68.0" width="1022.0" height="372.0" fill="transparent" style="cursor:default" data-xmin="2.446395" data-xmax="3.634505" data-ymin="0.79492" data-ymax="0.80478" data-pl="78.0" data-pr="1100.0" data-pt="68.0" data-pb="440.0"/>
<g class="cursor-layer" style="pointer-events:none;display:none"><line class="cur-v" x1="0" y1="68.0" x2="0" y2="440.0" stroke="#e74c3c" stroke-width="1.2" stroke-dasharray="5,3"/><line class="cur-h" x1="78.0" y1="0" x2="1100.0" y2="0" stroke="#e74c3c" stroke-width="1.2" stroke-dasharray="5,3"/><rect class="cur-tip-bg" x="0" y="0" width="148" height="44" rx="5" fill="#1a252f" stroke="#34495e" stroke-width="1" opacity="0.92"/><text class="cur-tip-x" x="0" y="0" font-size="11" font-family="Arial,sans-serif" fill="#ecf0f1"/><text class="cur-tip-y" x="0" y="0" font-size="11" font-family="Arial,sans-serif" fill="#2ecc71"/></g>
</svg>