<svg xmlns="http://www.w3.org/2000/svg" width="1400" height="520" viewBox="0 0 1400 520">
<rect width="1400" height="520" fill="#ffffff"/>
<text x="700.0" y="28.0" font-size="16" font-weight="bold" text-anchor="middle" fill="#2c3e50" font-family="Arial,sans-serif">Static Line Regulation — Analog DC2DC  Vout=1.2V  [AUTO_PFM]  Iload=100µA</text>
<line x1="78.0" y1="68.0" x2="78.0" y2="440.0" stroke="#999" stroke-width="1"/>
<line x1="73.0" y1="440.0" x2="78.0" y2="440.0" stroke="#999" stroke-width="1"/>
<line x1="78.0" y1="440.0" x2="1100.0" y2="440.0" stroke="#e8e8e8" stroke-width="0.7" stroke-dasharray="4,3"/>
<text x="70.0" y="444.0" font-size="9" font-weight="normal" text-anchor="end" fill="#888" font-family="Arial,sans-serif">1.19</text>
<line x1="73.0" y1="365.6" x2="78.0" y2="365.6" stroke="#999" stroke-width="1"/>
<line x1="78.0" y1="365.6" x2="1100.0" y2="365.6" stroke="#e8e8e8" stroke-width="0.7" stroke-dasharray="4,3"/>
<text x="70.0" y="369.6" font-size="9" font-weight="normal" text-anchor="end" fill="#888" font-family="Arial,sans-serif">1.2</text>
<line x1="73.0" y1="291.2" x2="78.0" y2="291.2" stroke="#999" stroke-width="1"/>
<line x1="78.0" y1="291.2" x2="1100.0" y2="291.2" stroke="#e8e8e8" stroke-width="0.7" stroke-dasharray="4,3"/>
<text x="70.0" y="295.2" font-size="9" font-weight="normal" text-anchor="end" fill="#888" font-family="Arial,sans-serif">1.2</text>
<line x1="73.0" y1="216.8" x2="78.0" y2="216.8" stroke="#999" stroke-width="1"/>
<line x1="78.0" y1="216.8" x2="1100.0" y2="216.8" stroke="#e8e8e8" stroke-width="0.7" stroke-dasharray="4,3"/>
<text x="70.0" y="220.8" font-size="9" font-weight="normal" text-anchor="end" fill="#888" font-family="Arial,sans-serif">1.21</text>
<line x1="73.0" y1="142.4" x2="78.0" y2="142.4" stroke="#999" stroke-width="1"/>
<line x1="78.0" y1="142.4" x2="1100.0" y2="142.4" stroke="#e8e8e8" stroke-width="0.7" stroke-dasharray="4,3"/>
<text x="70.0" y="146.4" font-size="9" font-weight="normal" text-anchor="end" fill="#888" font-family="Arial,sans-serif">1.21</text>
<line x1="73.0" y1="68.0" x2="78.0" y2="68.0" stroke="#999" stroke-width="1"/>
<line x1="78.0" y1="68.0" x2="1100.0" y2="68.0" stroke="#e8e8e8" stroke-width="0.7" stroke-dasharray="4,3"/>
<text x="70.0" y="72.0" font-size="9" font-weight="normal" text-anchor="end" fill="#888" font-family="Arial,sans-serif">1.22</text>
<line x1="78.0" y1="440.0" x2="1100.0" y2="440.0" stroke="#999" stroke-width="1"/>
<line x1="78.0" y1="440.0" x2="78.0" y2="445.0" stroke="#999" stroke-width="1"/>
<line x1="78.0" y1="68.0" x2="78.0" y2="440.0" stroke="#e8e8e8" stroke-width="0.7" stroke-dasharray="4,3"/>
<text x="78.0" y="456.0" font-size="9" font-weight="normal" text-anchor="middle" fill="#888" font-family="Arial,sans-serif">2.45</text>
<line x1="224.0" y1="440.0" x2="224.0" y2="445.0" stroke="#999" stroke-width="1"/>
<line x1="224.0" y1="68.0" x2="224.0" y2="440.0" stroke="#e8e8e8" stroke-width="0.7" stroke-dasharray="4,3"/>
<text x="224.0" y="456.0" font-size="9" font-weight="normal" text-anchor="middle" fill="#888" font-family="Arial,sans-serif">2.62</text>
<line x1="370.0" y1="440.0" x2="370.0" y2="445.0" stroke="#999" stroke-width="1"/>
<line x1="370.0" y1="68.0" x2="370.0" y2="440.0" stroke="#e8e8e8" stroke-width="0.7" stroke-dasharray="4,3"/>
<text x="370.0" y="456.0" font-size="9" font-weight="normal" text-anchor="middle" fill="#888" font-family="Arial,sans-serif">2.79</text>
<line x1="516.0" y1="440.0" x2="516.0" y2="445.0" stroke="#999" stroke-width="1"/>
<line x1="516.0" y1="68.0" x2="516.0" y2="440.0" stroke="#e8e8e8" stroke-width="0.7" stroke-dasharray="4,3"/>
<text x="516.0" y="456.0" font-size="9" font-weight="normal" text-anchor="middle" fill="#888" font-family="Arial,sans-serif">2.96</text>
<line x1="662.0" y1="440.0" x2="662.0" y2="445.0" stroke="#999" stroke-width="1"/>
<line x1="662.0" y1="68.0" x2="662.0" y2="440.0" stroke="#e8e8e8" stroke-width="0.7" stroke-dasharray="4,3"/>
<text x="662.0" y="456.0" font-size="9" font-weight="normal" text-anchor="middle" fill="#888" font-family="Arial,sans-serif">3.13</text>
<line x1="808.0" y1="440.0" x2="808.0" y2="445.0" stroke="#999" stroke-width="1"/>
<line x1="808.0" y1="68.0" x2="808.0" y2="440.0" stroke="#e8e8e8" stroke-width="0.7" stroke-dasharray="4,3"/>
<text x="808.0" y="456.0" font-size="9" font-weight="normal" text-anchor="middle" fill="#888" font-family="Arial,sans-serif">3.3</text>
<line x1="954.0" y1="440.0" x2="954.0" y2="445.0" stroke="#999" stroke-width="1"/>
<line x1="954.0" y1="68.0" x2="954.0" y2="440.0" stroke="#e8e8e8" stroke-width="0.7" stroke-dasharray="4,3"/>
<text x="954.0" y="456.0" font-size="9" font-weight="normal" text-anchor="middle" fill="#888" font-family="Arial,sans-serif">3.46</text>
<line x1="1100.0" y1="440.0" x2="1100.0" y2="445.0" stroke="#999" stroke-width="1"/>
<line x1="1100.0" y1="68.0" x2="1100.0" y2="440.0" stroke="#e8e8e8" stroke-width="0.7" stroke-dasharray="4,3"/>
<text x="1100.0" y="456.0" font-size="9" font-weight="normal" text-anchor="middle" fill="#888" font-family="Arial,sans-serif">3.63</text>
<text x="16.0" y="254.0" font-size="11" font-weight="normal" text-anchor="middle" fill="#555" font-family="Arial,sans-serif" transform="rotate(-90,16,254.0)">Output Voltage  Vout [V]</text>
<text x="589.0" y="510.0" font-size="11" font-weight="normal" text-anchor="middle" fill="#555" font-family="Arial,sans-serif">Input Voltage  Vin [V]</text>
<g class="series pmic-series" data-mode="AUTO_PFM" data-chip="21988" data-temp="0" data-reg="DC2DC_ANA">
<path d="M 124.5,217.2 L 150.3,204.7 L 176.1,195.0 L 202.0,213.0 L 227.8,207.5 L 253.6,201.9 L 279.4,201.9 L 305.2,214.4 L 330.9,211.7 L 356.9,206.1 L 382.7,199.2 L 408.5,197.8 L 434.2,211.7 L 460.0,213.0 L 485.8,208.9 L 511.7,204.7 L 537.5,195.0 L 563.3,200.6 L 589.1,214.4 L 614.8,213.0 L 640.6,208.9 L 666.6,201.9 L 692.4,200.6 L 718.2,195.0 L 743.9,196.4 L 769.7,213.0 L 795.4,214.4 L 821.4,204.7 L 847.2,208.9 L 872.9,204.7 L 898.6,200.6 L 924.5,193.6 L 950.2,190.8 L 976.1,192.2 L 1001.9,185.3 L 1027.7,192.2 L 1053.5,215.8" fill="none" stroke="#3498db" stroke-width="2.2" stroke-linejoin="round" opacity="0.9"/>
<circle cx="124.5" cy="217.2" r="4" fill="#3498db" stroke="white" opacity="1.0"/>
<circle cx="150.3" cy="204.7" r="4" fill="#3498db" stroke="white" opacity="1.0"/>
<circle cx="176.1" cy="195.0" r="4" fill="#3498db" stroke="white" opacity="1.0"/>
<circle cx="202.0" cy="213.0" r="4" fill="#3498db" stroke="white" opacity="1.0"/>
<circle cx="227.8" cy="207.5" r="4" fill="#3498db" stroke="white" opacity="1.0"/>
<circle cx="253.6" cy="201.9" r="4" fill="#3498db" stroke="white" opacity="1.0"/>
<circle cx="279.4" cy="201.9" r="4" fill="#3498db" stroke="white" opacity="1.0"/>
<circle cx="305.2" cy="214.4" r="4" fill="#3498db" stroke="white" opacity="1.0"/>
<circle cx="330.9" cy="211.7" r="4" fill="#3498db" stroke="white" opacity="1.0"/>
<circle cx="356.9" cy="206.1" r="4" fill="#3498db" stroke="white" opacity="1.0"/>
<circle cx="382.7" cy="199.2" r="4" fill="#3498db" stroke="white" opacity="1.0"/>
<circle cx="408.5" cy="197.8" r="4" fill="#3498db" stroke="white" opacity="1.0"/>
<circle cx="434.2" cy="211.7" r="4" fill="#3498db" stroke="white" opacity="1.0"/>
<circle cx="460.0" cy="213.0" r="4" fill="#3498db" stroke="white" opacity="1.0"/>
<circle cx="485.8" cy="208.9" r="4" fill="#3498db" stroke="white" opacity="1.0"/>
<circle cx="511.7" cy="204.7" r="4" fill="#3498db" stroke="white" opacity="1.0"/>
<circle cx="537.5" cy="195.0" r="4" fill="#3498db" stroke="white" opacity="1.0"/>
<circle cx="563.3" cy="200.6" r="4" fill="#3498db" stroke="white" opacity="1.0"/>
<circle cx="589.1" cy="214.4" r="4" fill="#3498db" stroke="white" opacity="1.0"/>
<circle cx="614.8" cy="213.0" r="4" fill="#3498db" stroke="white" opacity="1.0"/>
<circle cx="640.6" cy="208.9" r="4" fill="#3498db" stroke="white" opacity="1.0"/>
<circle cx="666.6" cy="201.9" r="4" fill="#3498db" stroke="white" opacity="1.0"/>
<circle cx="692.4" cy="200.6" r="4" fill="#3498db" stroke="white" opacity="1.0"/>
<circle cx="718.2" cy="195.0" r="4" fill="#3498db" stroke="white" opacity="1.0"/>
<circle cx="743.9" cy="196.4" r="4" fill="#3498db" stroke="white" opacity="1.0"/>
<circle cx="769.7" cy="213.0" r="4" fill="#3498db" stroke="white" opacity="1.0"/>
<circle cx="795.4" cy="214.4" r="4" fill="#3498db" stroke="white" opacity="1.0"/>
<circle cx="821.4" cy="204.7" r="4" fill="#3498db" stroke="white" opacity="1.0"/>
<circle cx="847.2" cy="208.9" r="4" fill="#3498db" stroke="white" opacity="1.0"/>
<circle cx="872.9" cy="204.7" r="4" fill="#3498db" stroke="white" opacity="1.0"/>
<circle cx="898.6" cy="200.6" r="4" fill="#3498db" stroke="white" opacity="1.0"/>
<circle cx="924.5" cy="193.6" r="4" fill="#3498db" stroke="white" opacity="1.0"/>
<circle cx="950.2" cy="190.8" r="4" fill="#3498db" stroke="white" opacity="1.0"/>
<circle cx="976.1" cy="192.2" r="4" fill="#3498db" stroke="white" opacity="1.0"/>
<circle cx="1001.9" cy="185.3" r="4" fill="#3498db" stroke="white" opacity="1.0"/>
<circle cx="1027.7" cy="192.2" r="4" fill="#3498db" stroke="white" opacity="1.0"/>
<circle cx="1053.5" cy="215.8" r="4" fill="#3498db" stroke="white" opacity="1.0"/>
</g>
<g class="series pmic-series" data-mode="AUTO_PFM" data-chip="21988" data-temp="25" data-reg="DC2DC_ANA">
<path d="M 124.5,181.1 L 150.3,188.1 L 176.1,182.5 L 202.0,193.6 L 227.8,186.7 L 253.6,182.5 L 279.4,189.4 L 305.2,193.6 L 331.0,179.7 L 356.9,174.2 L 382.7,178.3 L 408.5,190.8 L 434.2,189.4 L 460.0,181.1 L 485.8,179.7 L 511.8,185.3 L 537.5,196.4 L 563.3,195.0 L 589.1,186.7 L 614.8,185.3 L 640.6,185.3 L 666.6,186.7 L 692.4,207.5 L 718.2,199.2 L 743.9,199.2 L 769.7,192.2 L 795.4,188.1 L 821.4,182.5 L 847.2,181.1 L 872.9,177.0 L 898.6,189.4 L 924.5,190.8 L 950.2,182.5 L 976.1,181.1 L 1001.9,177.0 L 1027.7,175.6 L 1053.5,177.0" fill="none" stroke="#e67e22" stroke-width="2.2" stroke-linejoin="round" opacity="0.9"/>
<circle cx="124.5" cy="181.1" r="4" fill="#e67e22" stroke="white" opacity="1.0"/>
<circle cx="150.3" cy="188.1" r="4" fill="#e67e22" stroke="white" opacity="1.0"/>
<circle cx="176.1" cy="182.5" r="4" fill="#e67e22" stroke="white" opacity="1.0"/>
<circle cx="202.0" cy="193.6" r="4" fill="#e67e22" stroke="white" opacity="1.0"/>
<circle cx="227.8" cy="186.7" r="4" fill="#e67e22" stroke="white" opacity="1.0"/>
<circle cx="253.6" cy="182.5" r="4" fill="#e67e22" stroke="white" opacity="1.0"/>
<circle cx="279.4" cy="189.4" r="4" fill="#e67e22" stroke="white" opacity="1.0"/>
<circle cx="305.2" cy="193.6" r="4" fill="#e67e22" stroke="white" opacity="1.0"/>
<circle cx="331.0" cy="179.7" r="4" fill="#e67e22" stroke="white" opacity="1.0"/>
<circle cx="356.9" cy="174.2" r="4" fill="#e67e22" stroke="white" opacity="1.0"/>
<circle cx="382.7" cy="178.3" r="4" fill="#e67e22" stroke="white" opacity="1.0"/>
<circle cx="408.5" cy="190.8" r="4" fill="#e67e22" stroke="white" opacity="1.0"/>
<circle cx="434.2" cy="189.4" r="4" fill="#e67e22" stroke="white" opacity="1.0"/>
<circle cx="460.0" cy="181.1" r="4" fill="#e67e22" stroke="white" opacity="1.0"/>
<circle cx="485.8" cy="179.7" r="4" fill="#e67e22" stroke="white" opacity="1.0"/>
<circle cx="511.8" cy="185.3" r="4" fill="#e67e22" stroke="white" opacity="1.0"/>
<circle cx="537.5" cy="196.4" r="4" fill="#e67e22" stroke="white" opacity="1.0"/>
<circle cx="563.3" cy="195.0" r="4" fill="#e67e22" stroke="white" opacity="1.0"/>
<circle cx="589.1" cy="186.7" r="4" fill="#e67e22" stroke="white" opacity="1.0"/>
<circle cx="614.8" cy="185.3" r="4" fill="#e67e22" stroke="white" opacity="1.0"/>
<circle cx="640.6" cy="185.3" r="4" fill="#e67e22" stroke="white" opacity="1.0"/>
<circle cx="666.6" cy="186.7" r="4" fill="#e67e22" stroke="white" opacity="1.0"/>
<circle cx="692.4" cy="207.5" r="4" fill="#e67e22" stroke="white" opacity="1.0"/>
<circle cx="718.2" cy="199.2" r="4" fill="#e67e22" stroke="white" opacity="1.0"/>
<circle cx="743.9" cy="199.2" r="4" fill="#e67e22" stroke="white" opacity="1.0"/>
<circle cx="769.7" cy="192.2" r="4" fill="#e67e22" stroke="white" opacity="1.0"/>
<circle cx="795.4" cy="188.1" r="4" fill="#e67e22" stroke="white" opacity="1.0"/>
<circle cx="821.4" cy="182.5" r="4" fill="#e67e22" stroke="white" opacity="1.0"/>
<circle cx="847.2" cy="181.1" r="4" fill="#e67e22" stroke="white" opacity="1.0"/>
<circle cx="872.9" cy="177.0" r="4" fill="#e67e22" stroke="white" opacity="1.0"/>
<circle cx="898.6" cy="189.4" r="4" fill="#e67e22" stroke="white" opacity="1.0"/>
<circle cx="924.5" cy="190.8" r="4" fill="#e67e22" stroke="white" opacity="1.0"/>
<circle cx="950.2" cy="182.5" r="4" fill="#e67e22" stroke="white" opacity="1.0"/>
<circle cx="976.1" cy="181.1" r="4" fill="#e67e22" stroke="white" opacity="1.0"/>
<circle cx="1001.9" cy="177.0" r="4" fill="#e67e22" stroke="white" opacity="1.0"/>
<circle cx="1027.7" cy="175.6" r="4" fill="#e67e22" stroke="white" opacity="1.0"/>
<circle cx="1053.5" cy="177.0" r="4" fill="#e67e22" stroke="white" opacity="1.0"/>
</g>
<g class="series pmic-series" data-mode="AUTO_PFM" data-chip="21988" data-temp="80" data-reg="DC2DC_ANA">
<path d="M 124.5,122.8 L 150.3,118.6 L 176.1,128.4 L 202.0,118.6 L 227.8,115.9 L 253.6,110.3 L 279.4,124.2 L 305.1,121.4 L 331.0,114.5 L 356.8,106.1 L 382.7,122.8 L 408.5,111.7 L 434.2,117.3 L 460.0,108.9 L 485.8,108.9 L 511.7,115.9 L 537.5,120.0 L 563.2,115.9 L 589.1,108.9 L 614.8,104.8 L 640.6,100.6 L 666.5,108.9 L 692.4,125.6 L 718.2,120.0 L 743.9,111.7 L 769.6,104.8 L 795.4,100.6 L 821.4,100.6 L 847.1,93.7 L 872.9,110.3 L 898.6,128.4 L 924.4,124.2 L 950.2,122.8 L 976.1,115.9 L 1001.9,104.8 L 1027.7,100.6 L 1053.5,104.8" fill="none" stroke="#2ecc71" stroke-width="2.2" stroke-linejoin="round" opacity="0.9"/>
<circle cx="124.5" cy="122.8" r="4" fill="#2ecc71" stroke="white" opacity="1.0"/>
<circle cx="150.3" cy="118.6" r="4" fill="#2ecc71" stroke="white" opacity="1.0"/>
<circle cx="176.1" cy="128.4" r="4" fill="#2ecc71" stroke="white" opacity="1.0"/>
<circle cx="202.0" cy="118.6" r="4" fill="#2ecc71" stroke="white" opacity="1.0"/>
<circle cx="227.8" cy="115.9" r="4" fill="#2ecc71" stroke="white" opacity="1.0"/>
<circle cx="253.6" cy="110.3" r="4" fill="#2ecc71" stroke="white" opacity="1.0"/>
<circle cx="279.4" cy="124.2" r="4" fill="#2ecc71" stroke="white" opacity="1.0"/>
<circle cx="305.1" cy="121.4" r="4" fill="#2ecc71" stroke="white" opacity="1.0"/>
<circle cx="331.0" cy="114.5" r="4" fill="#2ecc71" stroke="white" opacity="1.0"/>
<circle cx="356.8" cy="106.1" r="4" fill="#2ecc71" stroke="white" opacity="1.0"/>
<circle cx="382.7" cy="122.8" r="4" fill="#2ecc71" stroke="white" opacity="1.0"/>
<circle cx="408.5" cy="111.7" r="4" fill="#2ecc71" stroke="white" opacity="1.0"/>
<circle cx="434.2" cy="117.3" r="4" fill="#2ecc71" stroke="white" opacity="1.0"/>
<circle cx="460.0" cy="108.9" r="4" fill="#2ecc71" stroke="white" opacity="1.0"/>
<circle cx="485.8" cy="108.9" r="4" fill="#2ecc71" stroke="white" opacity="1.0"/>
<circle cx="511.7" cy="115.9" r="4" fill="#2ecc71" stroke="white" opacity="1.0"/>
<circle cx="537.5" cy="120.0" r="4" fill="#2ecc71" stroke="white" opacity="1.0"/>
<circle cx="563.2" cy="115.9" r="4" fill="#2ecc71" stroke="white" opacity="1.0"/>
<circle cx="589.1" cy="108.9" r="4" fill="#2ecc71" stroke="white" opacity="1.0"/>
<circle cx="614.8" cy="104.8" r="4" fill="#2ecc71" stroke="white" opacity="1.0"/>
<circle cx="640.6" cy="100.6" r="4" fill="#2ecc71" stroke="white" opacity="1.0"/>
<circle cx="666.5" cy="108.9" r="4" fill="#2ecc71" stroke="white" opacity="1.0"/>
<circle cx="692.4" cy="125.6" r="4" fill="#2ecc71" stroke="white" opacity="1.0"/>
<circle cx="718.2" cy="120.0" r="4" fill="#2ecc71" stroke="white" opacity="1.0"/>
<circle cx="743.9" cy="111.7" r="4" fill="#2ecc71" stroke="white" opacity="1.0"/>
<circle cx="769.6" cy="104.8" r="4" fill="#2ecc71" stroke="white" opacity="1.0"/>
<circle cx="795.4" cy="100.6" r="4" fill="#2ecc71" stroke="white" opacity="1.0"/>
<circle cx="821.4" cy="100.6" r="4" fill="#2ecc71" stroke="white" opacity="1.0"/>
<circle cx="847.1" cy="93.7" r="4" fill="#2ecc71" stroke="white" opacity="1.0"/>
<circle cx="872.9" cy="110.3" r="4" fill="#2ecc71" stroke="white" opacity="1.0"/>
<circle cx="898.6" cy="128.4" r="4" fill="#2ecc71" stroke="white" opacity="1.0"/>
<circle cx="924.4" cy="124.2" r="4" fill="#2ecc71" stroke="white" opacity="1.0"/>
<circle cx="950.2" cy="122.8" r="4" fill="#2ecc71" stroke="white" opacity="1.0"/>
<circle cx="976.1" cy="115.9" r="4" fill="#2ecc71" stroke="white" opacity="1.0"/>
<circle cx="1001.9" cy="104.8" r="4" fill="#2ecc71" stroke="white" opacity="1.0"/>
<circle cx="1027.7" cy="100.6" r="4" fill="#2ecc71" stroke="white" opacity="1.0"/>
<circle cx="1053.5" cy="104.8" r="4" fill="#2ecc71" stroke="white" opacity="1.0"/>
</g>
<g class="series pmic-series" data-mode="AUTO_PFM" data-chip="31927" data-temp="0" data-reg="DC2DC_ANA">
<path d="M 124.5,132.5 L 150.3,133.9 L 176.1,131.1 L 202.0,127.0 L 227.8,145.0 L 253.6,129.8 L 279.4,132.5 L 305.1,121.4 L 330.9,127.0 L 356.8,145.0 L 382.7,142.2 L 408.5,136.7 L 434.2,127.0 L 460.0,121.4 L 485.8,129.8 L 511.7,139.5 L 537.5,129.8 L 563.3,132.5 L 589.1,122.8 L 614.8,124.2 L 640.6,117.3 L 666.5,114.5 L 692.3,118.6 L 718.2,140.9 L 743.9,135.3 L 769.6,131.1 L 795.4,128.4 L 821.3,118.6 L 847.1,122.8 L 872.8,110.3 L 898.6,108.9 L 924.4,113.1 L 950.2,117.3 L 976.1,140.9 L 1001.9,132.5 L 1027.7,129.8 L 1053.5,135.3" fill="none" stroke="#9b59b6" stroke-width="2.2" stroke-linejoin="round" opacity="0.9"/>
<circle cx="124.5" cy="132.5" r="4" fill="#9b59b6" stroke="white" opacity="1.0"/>
<circle cx="150.3" cy="133.9" r="4" fill="#9b59b6" stroke="white" opacity="1.0"/>
<circle cx="176.1" cy="131.1" r="4" fill="#9b59b6" stroke="white" opacity="1.0"/>
<circle cx="202.0" cy="127.0" r="4" fill="#9b59b6" stroke="white" opacity="1.0"/>
<circle cx="227.8" cy="145.0" r="4" fill="#9b59b6" stroke="white" opacity="1.0"/>
<circle cx="253.6" cy="129.8" r="4" fill="#9b59b6" stroke="white" opacity="1.0"/>
<circle cx="279.4" cy="132.5" r="4" fill="#9b59b6" stroke="white" opacity="1.0"/>
<circle cx="305.1" cy="121.4" r="4" fill="#9b59b6" stroke="white" opacity="1.0"/>
<circle cx="330.9" cy="127.0" r="4" fill="#9b59b6" stroke="white" opacity="1.0"/>
<circle cx="356.8" cy="145.0" r="4" fill="#9b59b6" stroke="white" opacity="1.0"/>
<circle cx="382.7" cy="142.2" r="4" fill="#9b59b6" stroke="white" opacity="1.0"/>
<circle cx="408.5" cy="136.7" r="4" fill="#9b59b6" stroke="white" opacity="1.0"/>
<circle cx="434.2" cy="127.0" r="4" fill="#9b59b6" stroke="white" opacity="1.0"/>
<circle cx="460.0" cy="121.4" r="4" fill="#9b59b6" stroke="white" opacity="1.0"/>
<circle cx="485.8" cy="129.8" r="4" fill="#9b59b6" stroke="white" opacity="1.0"/>
<circle cx="511.7" cy="139.5" r="4" fill="#9b59b6" stroke="white" opacity="1.0"/>
<circle cx="537.5" cy="129.8" r="4" fill="#9b59b6" stroke="white" opacity="1.0"/>
<circle cx="563.3" cy="132.5" r="4" fill="#9b59b6" stroke="white" opacity="1.0"/>
<circle cx="589.1" cy="122.8" r="4" fill="#9b59b6" stroke="white" opacity="1.0"/>
<circle cx="614.8" cy="124.2" r="4" fill="#9b59b6" stroke="white" opacity="1.0"/>
<circle cx="640.6" cy="117.3" r="4" fill="#9b59b6" stroke="white" opacity="1.0"/>
<circle cx="666.5" cy="114.5" r="4" fill="#9b59b6" stroke="white" opacity="1.0"/>
<circle cx="692.3" cy="118.6" r="4" fill="#9b59b6" stroke="white" opacity="1.0"/>
<circle cx="718.2" cy="140.9" r="4" fill="#9b59b6" stroke="white" opacity="1.0"/>
<circle cx="743.9" cy="135.3" r="4" fill="#9b59b6" stroke="white" opacity="1.0"/>
<circle cx="769.6" cy="131.1" r="4" fill="#9b59b6" stroke="white" opacity="1.0"/>
<circle cx="795.4" cy="128.4" r="4" fill="#9b59b6" stroke="white" opacity="1.0"/>
<circle cx="821.3" cy="118.6" r="4" fill="#9b59b6" stroke="white" opacity="1.0"/>
<circle cx="847.1" cy="122.8" r="4" fill="#9b59b6" stroke="white" opacity="1.0"/>
<circle cx="872.8" cy="110.3" r="4" fill="#9b59b6" stroke="white" opacity="1.0"/>
<circle cx="898.6" cy="108.9" r="4" fill="#9b59b6" stroke="white" opacity="1.0"/>
<circle cx="924.4" cy="113.1" r="4" fill="#9b59b6" stroke="white" opacity="1.0"/>
<circle cx="950.2" cy="117.3" r="4" fill="#9b59b6" stroke="white" opacity="1.0"/>
<circle cx="976.1" cy="140.9" r="4" fill="#9b59b6" stroke="white" opacity="1.0"/>
<circle cx="1001.9" cy="132.5" r="4" fill="#9b59b6" stroke="white" opacity="1.0"/>
<circle cx="1027.7" cy="129.8" r="4" fill="#9b59b6" stroke="white" opacity="1.0"/>
<circle cx="1053.5" cy="135.3" r="4" fill="#9b59b6" stroke="white" opacity="1.0"/>
</g>
<g class="series pmic-series" data-mode="AUTO_PFM" data-chip="31927" data-temp="25" data-reg="DC2DC_ANA">
<path d="M 124.5,333.8 L 150.3,336.6 L 176.1,329.7 L 202.0,342.2 L 227.8,329.7 L 253.6,328.3 L 279.4,326.9 L 305.1,326.9 L 330.9,339.4 L 356.8,325.5 L 382.7,329.7 L 408.5,318.6 L 434.2,329.7 L 460.0,332.4 L 485.8,328.3 L 511.7,328.3 L 537.5,319.9 L 563.2,317.2 L 589.1,314.4 L 614.8,332.4 L 640.6,332.4 L 666.5,326.9 L 692.3,322.7 L 718.1,326.9 L 743.9,314.4 L 769.6,307.4 L 795.4,303.3 L 821.3,319.9 L 847.1,339.4 L 872.8,328.3 L 898.6,326.9 L 924.4,318.6 L 950.2,319.9 L 976.1,321.3 L 1001.9,315.8 L 1027.7,311.6 L 1053.5,313.0" fill="none" stroke="#1abc9c" stroke-width="2.2" stroke-linejoin="round" opacity="0.9"/>
<circle cx="124.5" cy="333.8" r="4" fill="#1abc9c" stroke="white" opacity="1.0"/>
<circle cx="150.3" cy="336.6" r="4" fill="#1abc9c" stroke="white" opacity="1.0"/>
<circle cx="176.1" cy="329.7" r="4" fill="#1abc9c" stroke="white" opacity="1.0"/>
<circle cx="202.0" cy="342.2" r="4" fill="#1abc9c" stroke="white" opacity="1.0"/>
<circle cx="227.8" cy="329.7" r="4" fill="#1abc9c" stroke="white" opacity="1.0"/>
<circle cx="253.6" cy="328.3" r="4" fill="#1abc9c" stroke="white" opacity="1.0"/>
<circle cx="279.4" cy="326.9" r="4" fill="#1abc9c" stroke="white" opacity="1.0"/>
<circle cx="305.1" cy="326.9" r="4" fill="#1abc9c" stroke="white" opacity="1.0"/>
<circle cx="330.9" cy="339.4" r="4" fill="#1abc9c" stroke="white" opacity="1.0"/>
<circle cx="356.8" cy="325.5" r="4" fill="#1abc9c" stroke="white" opacity="1.0"/>
<circle cx="382.7" cy="329.7" r="4" fill="#1abc9c" stroke="white" opacity="1.0"/>
<circle cx="408.5" cy="318.6" r="4" fill="#1abc9c" stroke="white" opacity="1.0"/>
<circle cx="434.2" cy="329.7" r="4" fill="#1abc9c" stroke="white" opacity="1.0"/>
<circle cx="460.0" cy="332.4" r="4" fill="#1abc9c" stroke="white" opacity="1.0"/>
<circle cx="485.8" cy="328.3" r="4" fill="#1abc9c" stroke="white" opacity="1.0"/>
<circle cx="511.7" cy="328.3" r="4" fill="#1abc9c" stroke="white" opacity="1.0"/>
<circle cx="537.5" cy="319.9" r="4" fill="#1abc9c" stroke="white" opacity="1.0"/>
<circle cx="563.2" cy="317.2" r="4" fill="#1abc9c" stroke="white" opacity="1.0"/>
<circle cx="589.1" cy="314.4" r="4" fill="#1abc9c" stroke="white" opacity="1.0"/>
<circle cx="614.8" cy="332.4" r="4" fill="#1abc9c" stroke="white" opacity="1.0"/>
<circle cx="640.6" cy="332.4" r="4" fill="#1abc9c" stroke="white" opacity="1.0"/>
<circle cx="666.5" cy="326.9" r="4" fill="#1abc9c" stroke="white" opacity="1.0"/>
<circle cx="692.3" cy="322.7" r="4" fill="#1abc9c" stroke="white" opacity="1.0"/>
<circle cx="718.1" cy="326.9" r="4" fill="#1abc9c" stroke="white" opacity="1.0"/>
<circle cx="743.9" cy="314.4" r="4" fill="#1abc9c" stroke="white" opacity="1.0"/>
<circle cx="769.6" cy="307.4" r="4" fill="#1abc9c" stroke="white" opacity="1.0"/>
<circle cx="795.4" cy="303.3" r="4" fill="#1abc9c" stroke="white" opacity="1.0"/>
<circle cx="821.3" cy="319.9" r="4" fill="#1abc9c" stroke="white" opacity="1.0"/>
<circle cx="847.1" cy="339.4" r="4" fill="#1abc9c" stroke="white" opacity="1.0"/>
<circle cx="872.8" cy="328.3" r="4" fill="#1abc9c" stroke="white" opacity="1.0"/>
<circle cx="898.6" cy="326.9" r="4" fill="#1abc9c" stroke="white" opacity="1.0"/>
<circle cx="924.4" cy="318.6" r="4" fill="#1abc9c" stroke="white" opacity="1.0"/>
<circle cx="950.2" cy="319.9" r="4" fill="#1abc9c" stroke="white" opacity="1.0"/>
<circle cx="976.1" cy="321.3" r="4" fill="#1abc9c" stroke="white" opacity="1.0"/>
<circle cx="1001.9" cy="315.8" r="4" fill="#1abc9c" stroke="white" opacity="1.0"/>
<circle cx="1027.7" cy="311.6" r="4" fill="#1abc9c" stroke="white" opacity="1.0"/>
<circle cx="1053.5" cy="313.0" r="4" fill="#1abc9c" stroke="white" opacity="1.0"/>
</g>
<g class="series pmic-series" data-mode="AUTO_PFM" data-chip="31927" data-temp="80" data-reg="DC2DC_ANA">
<path d="M 124.5,393.5 L 150.3,401.9 L 176.1,394.9 L 202.0,388.0 L 227.8,407.4 L 253.6,400.5 L 279.4,400.5 L 305.1,397.7 L 331.0,403.2 L 356.9,406.0 L 382.7,396.3 L 408.5,389.4 L 434.2,388.0 L 460.0,407.4 L 485.8,408.8 L 511.7,404.6 L 537.5,404.6 L 563.3,403.2 L 589.1,390.7 L 614.8,400.5 L 640.6,414.3 L 666.5,411.6 L 692.4,406.0 L 718.2,403.2 L 743.9,397.7 L 769.7,392.1 L 795.4,389.4 L 821.3,389.4 L 847.2,407.4 L 872.9,399.1 L 898.6,394.9 L 924.4,390.7 L 950.2,381.0 L 976.1,383.8 L 1001.9,385.2 L 1027.7,386.6 L 1053.5,374.1" fill="none" stroke="#e74c3c" stroke-width="2.2" stroke-linejoin="round" opacity="0.9"/>
<circle cx="124.5" cy="393.5" r="4" fill="#e74c3c" stroke="white" opacity="1.0"/>
<circle cx="150.3" cy="401.9" r="4" fill="#e74c3c" stroke="white" opacity="1.0"/>
<circle cx="176.1" cy="394.9" r="4" fill="#e74c3c" stroke="white" opacity="1.0"/>
<circle cx="202.0" cy="388.0" r="4" fill="#e74c3c" stroke="white" opacity="1.0"/>
<circle cx="227.8" cy="407.4" r="4" fill="#e74c3c" stroke="white" opacity="1.0"/>
<circle cx="253.6" cy="400.5" r="4" fill="#e74c3c" stroke="white" opacity="1.0"/>
<circle cx="279.4" cy="400.5" r="4" fill="#e74c3c" stroke="white" opacity="1.0"/>
<circle cx="305.1" cy="397.7" r="4" fill="#e74c3c" stroke="white" opacity="1.0"/>
<circle cx="331.0" cy="403.2" r="4" fill="#e74c3c" stroke="white" opacity="1.0"/>
<circle cx="356.9" cy="406.0" r="4" fill="#e74c3c" stroke="white" opacity="1.0"/>
<circle cx="382.7" cy="396.3" r="4" fill="#e74c3c" stroke="white" opacity="1.0"/>
<circle cx="408.5" cy="389.4" r="4" fill="#e74c3c" stroke="white" opacity="1.0"/>
<circle cx="434.2" cy="388.0" r="4" fill="#e74c3c" stroke="white" opacity="1.0"/>
<circle cx="460.0" cy="407.4" r="4" fill="#e74c3c" stroke="white" opacity="1.0"/>
<circle cx="485.8" cy="408.8" r="4" fill="#e74c3c" stroke="white" opacity="1.0"/>
<circle cx="511.7" cy="404.6" r="4" fill="#e74c3c" stroke="white" opacity="1.0"/>
<circle cx="537.5" cy="404.6" r="4" fill="#e74c3c" stroke="white" opacity="1.0"/>
<circle cx="563.3" cy="403.2" r="4" fill="#e74c3c" stroke="white" opacity="1.0"/>
<circle cx="589.1" cy="390.7" r="4" fill="#e74c3c" stroke="white" opacity="1.0"/>
<circle cx="614.8" cy="400.5" r="4" fill="#e74c3c" stroke="white" opacity="1.0"/>
<circle cx="640.6" cy="414.3" r="4" fill="#e74c3c" stroke="white" opacity="1.0"/>
<circle cx="666.5" cy="411.6" r="4" fill="#e74c3c" stroke="white" opacity="1.0"/>
<circle cx="692.4" cy="406.0" r="4" fill="#e74c3c" stroke="white" opacity="1.0"/>
<circle cx="718.2" cy="403.2" r="4" fill="#e74c3c" stroke="white" opacity="1.0"/>
<circle cx="743.9" cy="397.7" r="4" fill="#e74c3c" stroke="white" opacity="1.0"/>
<circle cx="769.7" cy="392.1" r="4" fill="#e74c3c" stroke="white" opacity="1.0"/>
<circle cx="795.4" cy="389.4" r="4" fill="#e74c3c" stroke="white" opacity="1.0"/>
<circle cx="821.3" cy="389.4" r="4" fill="#e74c3c" stroke="white" opacity="1.0"/>
<circle cx="847.2" cy="407.4" r="4" fill="#e74c3c" stroke="white" opacity="1.0"/>
<circle cx="872.9" cy="399.1" r="4" fill="#e74c3c" stroke="white" opacity="1.0"/>
<circle cx="898.6" cy="394.9" r="4" fill="#e74c3c" stroke="white" opacity="1.0"/>
<circle cx="924.4" cy="390.7" r="4" fill="#e74c3c" stroke="white" opacity="1.0"/>
<circle cx="950.2" cy="381.0" r="4" fill="#e74c3c" stroke="white" opacity="1.0"/>
<circle cx="976.1" cy="383.8" r="4" fill="#e74c3c" stroke="white" opacity="1.0"/>
<circle cx="1001.9" cy="385.2" r="4" fill="#e74c3c" stroke="white" opacity="1.0"/>
<circle cx="1027.7" cy="386.6" r="4" fill="#e74c3c" stroke="white" opacity="1.0"/>
<circle cx="1053.5" cy="374.1" r="4" fill="#e74c3c" stroke="white" opacity="1.0"/>
</g>
<g class="legend-item" data-mode="AUTO_PFM" data-chip="21988" data-temp="0" data-reg="DC2DC_ANA">
<rect x="1116.0" y="69.0" width="22.0" height="4.0" fill="#3498db" stroke="none" stroke-width="1" opacity="1.0" rx="2"/>
<circle cx="1127.0" cy="71.0" r="4" fill="#3498db" stroke="none" opacity="1.0"/>
<text x="1144.0" y="76.0" font-size="9" font-weight="normal" text-anchor="start" fill="#333" font-family="Arial,sans-serif">Chip 21988 | T=0°C</text>
</g>
<g class="legend-item" data-mode="AUTO_PFM" data-chip="21988" data-temp="25" data-reg="DC2DC_ANA">
<rect x="1116.0" y="86.0" width="22.0" height="4.0" fill="#e67e22" stroke="none" stroke-width="1" opacity="1.0" rx="2"/>
<circle cx="1127.0" cy="88.0" r="4" fill="#e67e22" stroke="none" opacity="1.0"/>
<text x="1144.0" y="93.0" font-size="9" font-weight="normal" text-anchor="start" fill="#333" font-family="Arial,sans-serif">Chip 21988 | T=25°C</text>
</g>
<g class="legend-item" data-mode="AUTO_PFM" data-chip="21988" data-temp="80" data-reg="DC2DC_ANA">
<rect x="1116.0" y="103.0" width="22.0" height="4.0" fill="#2ecc71" stroke="none" stroke-width="1" opacity="1.0" rx="2"/>
<circle cx="1127.0" cy="105.0" r="4" fill="#2ecc71" stroke="none" opacity="1.0"/>
<text x="1144.0" y="110.0" font-size="9" font-weight="normal" text-anchor="start" fill="#333" font-family="Arial,sans-serif">Chip 21988 | T=80°C</text>
</g>
<g class="legend-item" data-mode="AUTO_PFM" data-chip="31927" data-temp="0" data-reg="DC2DC_ANA">
<rect x="1116.0" y="120.0" width="22.0" height="4.0" fill="#9b59b6" stroke="none" stroke-width="1" opacity="1.0" rx="2"/>
<circle cx="1127.0" cy="122.0" r="4" fill="#9b59b6" stroke="none" opacity="1.0"/>
<text x="1144.0" y="127.0" font-size="9" font-weight="normal" text-anchor="start" fill="#333" font-family="Arial,sans-serif">Chip 31927 | T=0°C</text>
</g>
<g class="legend-item" data-mode="AUTO_PFM" data-chip="31927" data-temp="25" data-reg="DC2DC_ANA">
<rect x="1116.0" y="137.0" width="22.0" height="4.0" fill="#1abc9c" stroke="none" stroke-width="1" opacity="1.0" rx="2"/>
<circle cx="1127.0" cy="139.0" r="4" fill="#1abc9c" stroke="none" opacity="1.0"/>
<text x="1144.0" y="144.0" font-size="9" font-weight="normal" text-anchor="start" fill="#333" font-family="Arial,sans-serif">Chip 31927 | T=25°C</text>
</g>
<g class="legend-item" data-mode="AUTO_PFM" data-chip="31927" data-temp="80" data-reg="DC2DC_ANA">
<rect x="1116.0" y="154.0" width="22.0" height="4.0" fill="#e74c3c" stroke="none" stroke-width="1" opacity="1.0" rx="2"/>
<circle cx="1127.0" cy="156.0" r="4" fill="#e74c3c" stroke="none" opacity="1.0"/>
<text x="1144.0" y="161.0" font-size="9" font-weight="normal" text-anchor="start" fill="#333" font-family="Arial,sans-serif">Chip 31927 | T=80°C</text>
</g>
<rect class="cursor-overlay" x="78.0" y="68.0" width="1022.0" height="372.0" fill="transparent" style="cursor:default" data-xmin="2.44629" data-xmax="3.63451" data-ymin="1.192252" data-ymax="1.219048" data-pl="78.0" data-pr="1100.0" data-pt="68.0" data-pb="440.0"/>
<g class="cursor-layer" style="pointer-events:none;display:none"><line class="cur-v" x1="0" y1="68.0" x2="0" y2="440.0" stroke="#e74c3c" stroke-width="1.2" stroke-dasharray="5,3"/><line class="cur-h" x1="78.0" y1="0" x2="1100.0" y2="0" stroke="#e74c3c" stroke-width="1.2" stroke-dasharray="5,3"/><rect class="cur-tip-bg" x="0" y="0" width="148" height="44" rx="5" fill="#1a252f" stroke="#34495e" stroke-width="1" opacity="0.92"/><text class="cur-tip-x" x="0" y="0" font-size="11" font-family="Arial,sans-serif" fill="#ecf0f1"/><text class="cur-tip-y" x="0" y="0" font-size="11" font-family="Arial,sans-serif" fill="#2ecc71"/></g>
</svg>