<svg xmlns="http://www.w3.org/2000/svg" width="1400" height="520" viewBox="0 0 1400 520">
<rect width="1400" height="520" fill="#ffffff"/>
<text x="700.0" y="28.0" font-size="16" font-weight="bold" text-anchor="middle" fill="#2c3e50" font-family="Arial,sans-serif">Static Line Regulation — Digital DC2DC  Vout=0.7V  [AUTO_PFM]  Iload=200mA</text>
<line x1="78.0" y1="68.0" x2="78.0" y2="440.0" stroke="#999" stroke-width="1"/>
<line x1="73.0" y1="440.0" x2="78.0" y2="440.0" stroke="#999" stroke-width="1"/>
<line x1="78.0" y1="440.0" x2="1100.0" y2="440.0" stroke="#e8e8e8" stroke-width="0.7" stroke-dasharray="4,3"/>
<text x="70.0" y="444.0" font-size="9" font-weight="normal" text-anchor="end" fill="#888" font-family="Arial,sans-serif">0.704</text>
<line x1="73.0" y1="365.6" x2="78.0" y2="365.6" stroke="#999" stroke-width="1"/>
<line x1="78.0" y1="365.6" x2="1100.0" y2="365.6" stroke="#e8e8e8" stroke-width="0.7" stroke-dasharray="4,3"/>
<text x="70.0" y="369.6" font-size="9" font-weight="normal" text-anchor="end" fill="#888" font-family="Arial,sans-serif">0.708</text>
<line x1="73.0" y1="291.2" x2="78.0" y2="291.2" stroke="#999" stroke-width="1"/>
<line x1="78.0" y1="291.2" x2="1100.0" y2="291.2" stroke="#e8e8e8" stroke-width="0.7" stroke-dasharray="4,3"/>
<text x="70.0" y="295.2" font-size="9" font-weight="normal" text-anchor="end" fill="#888" font-family="Arial,sans-serif">0.711</text>
<line x1="73.0" y1="216.8" x2="78.0" y2="216.8" stroke="#999" stroke-width="1"/>
<line x1="78.0" y1="216.8" x2="1100.0" y2="216.8" stroke="#e8e8e8" stroke-width="0.7" stroke-dasharray="4,3"/>
<text x="70.0" y="220.8" font-size="9" font-weight="normal" text-anchor="end" fill="#888" font-family="Arial,sans-serif">0.714</text>
<line x1="73.0" y1="142.4" x2="78.0" y2="142.4" stroke="#999" stroke-width="1"/>
<line x1="78.0" y1="142.4" x2="1100.0" y2="142.4" stroke="#e8e8e8" stroke-width="0.7" stroke-dasharray="4,3"/>
<text x="70.0" y="146.4" font-size="9" font-weight="normal" text-anchor="end" fill="#888" font-family="Arial,sans-serif">0.718</text>
<line x1="73.0" y1="68.0" x2="78.0" y2="68.0" stroke="#999" stroke-width="1"/>
<line x1="78.0" y1="68.0" x2="1100.0" y2="68.0" stroke="#e8e8e8" stroke-width="0.7" stroke-dasharray="4,3"/>
<text x="70.0" y="72.0" font-size="9" font-weight="normal" text-anchor="end" fill="#888" font-family="Arial,sans-serif">0.721</text>
<line x1="78.0" y1="440.0" x2="1100.0" y2="440.0" stroke="#999" stroke-width="1"/>
<line x1="78.0" y1="440.0" x2="78.0" y2="445.0" stroke="#999" stroke-width="1"/>
<line x1="78.0" y1="68.0" x2="78.0" y2="440.0" stroke="#e8e8e8" stroke-width="0.7" stroke-dasharray="4,3"/>
<text x="78.0" y="456.0" font-size="9" font-weight="normal" text-anchor="middle" fill="#888" font-family="Arial,sans-serif">2.45</text>
<line x1="224.0" y1="440.0" x2="224.0" y2="445.0" stroke="#999" stroke-width="1"/>
<line x1="224.0" y1="68.0" x2="224.0" y2="440.0" stroke="#e8e8e8" stroke-width="0.7" stroke-dasharray="4,3"/>
<text x="224.0" y="456.0" font-size="9" font-weight="normal" text-anchor="middle" fill="#888" font-family="Arial,sans-serif">2.62</text>
<line x1="370.0" y1="440.0" x2="370.0" y2="445.0" stroke="#999" stroke-width="1"/>
<line x1="370.0" y1="68.0" x2="370.0" y2="440.0" stroke="#e8e8e8" stroke-width="0.7" stroke-dasharray="4,3"/>
<text x="370.0" y="456.0" font-size="9" font-weight="normal" text-anchor="middle" fill="#888" font-family="Arial,sans-serif">2.79</text>
<line x1="516.0" y1="440.0" x2="516.0" y2="445.0" stroke="#999" stroke-width="1"/>
<line x1="516.0" y1="68.0" x2="516.0" y2="440.0" stroke="#e8e8e8" stroke-width="0.7" stroke-dasharray="4,3"/>
<text x="516.0" y="456.0" font-size="9" font-weight="normal" text-anchor="middle" fill="#888" font-family="Arial,sans-serif">2.96</text>
<line x1="662.0" y1="440.0" x2="662.0" y2="445.0" stroke="#999" stroke-width="1"/>
<line x1="662.0" y1="68.0" x2="662.0" y2="440.0" stroke="#e8e8e8" stroke-width="0.7" stroke-dasharray="4,3"/>
<text x="662.0" y="456.0" font-size="9" font-weight="normal" text-anchor="middle" fill="#888" font-family="Arial,sans-serif">3.13</text>
<line x1="808.0" y1="440.0" x2="808.0" y2="445.0" stroke="#999" stroke-width="1"/>
<line x1="808.0" y1="68.0" x2="808.0" y2="440.0" stroke="#e8e8e8" stroke-width="0.7" stroke-dasharray="4,3"/>
<text x="808.0" y="456.0" font-size="9" font-weight="normal" text-anchor="middle" fill="#888" font-family="Arial,sans-serif">3.3</text>
<line x1="954.0" y1="440.0" x2="954.0" y2="445.0" stroke="#999" stroke-width="1"/>
<line x1="954.0" y1="68.0" x2="954.0" y2="440.0" stroke="#e8e8e8" stroke-width="0.7" stroke-dasharray="4,3"/>
<text x="954.0" y="456.0" font-size="9" font-weight="normal" text-anchor="middle" fill="#888" font-family="Arial,sans-serif">3.46</text>
<line x1="1100.0" y1="440.0" x2="1100.0" y2="445.0" stroke="#999" stroke-width="1"/>
<line x1="1100.0" y1="68.0" x2="1100.0" y2="440.0" stroke="#e8e8e8" stroke-width="0.7" stroke-dasharray="4,3"/>
<text x="1100.0" y="456.0" font-size="9" font-weight="normal" text-anchor="middle" fill="#888" font-family="Arial,sans-serif">3.63</text>
<text x="16.0" y="254.0" font-size="11" font-weight="normal" text-anchor="middle" fill="#555" font-family="Arial,sans-serif" transform="rotate(-90,16,254.0)">Output Voltage  Vout [V]</text>
<text x="589.0" y="510.0" font-size="11" font-weight="normal" text-anchor="middle" fill="#555" font-family="Arial,sans-serif">Input Voltage  Vin [V]</text>
<g class="series pmic-series" data-mode="AUTO_PFM" data-chip="21988" data-temp="0" data-reg="DC2DC_DIG">
<path d="M 124.5,126.8 L 150.2,126.8 L 176.0,118.0 L 201.9,129.0 L 227.7,120.2 L 253.5,109.1 L 279.3,115.8 L 305.0,124.6 L 330.8,122.4 L 356.8,120.2 L 382.6,111.3 L 408.4,111.3 L 434.1,126.8 L 459.9,122.4 L 485.6,113.6 L 511.6,113.6 L 537.4,104.7 L 563.2,106.9 L 589.0,122.4 L 614.8,131.3 L 640.6,120.2 L 666.5,118.0 L 692.4,115.8 L 718.2,113.6 L 743.9,104.7 L 769.6,104.7 L 795.4,129.0 L 821.3,126.8 L 847.1,122.4 L 872.8,120.2 L 898.6,113.6 L 924.5,106.9 L 950.2,104.7 L 976.1,95.9 L 1001.9,95.9 L 1027.7,93.7 L 1053.5,122.4" fill="none" stroke="#3498db" stroke-width="2.2" stroke-linejoin="round" opacity="0.9"/>
<circle cx="124.5" cy="126.8" r="4" fill="#3498db" stroke="white" opacity="1.0"/>
<circle cx="150.2" cy="126.8" r="4" fill="#3498db" stroke="white" opacity="1.0"/>
<circle cx="176.0" cy="118.0" r="4" fill="#3498db" stroke="white" opacity="1.0"/>
<circle cx="201.9" cy="129.0" r="4" fill="#3498db" stroke="white" opacity="1.0"/>
<circle cx="227.7" cy="120.2" r="4" fill="#3498db" stroke="white" opacity="1.0"/>
<circle cx="253.5" cy="109.1" r="4" fill="#3498db" stroke="white" opacity="1.0"/>
<circle cx="279.3" cy="115.8" r="4" fill="#3498db" stroke="white" opacity="1.0"/>
<circle cx="305.0" cy="124.6" r="4" fill="#3498db" stroke="white" opacity="1.0"/>
<circle cx="330.8" cy="122.4" r="4" fill="#3498db" stroke="white" opacity="1.0"/>
<circle cx="356.8" cy="120.2" r="4" fill="#3498db" stroke="white" opacity="1.0"/>
<circle cx="382.6" cy="111.3" r="4" fill="#3498db" stroke="white" opacity="1.0"/>
<circle cx="408.4" cy="111.3" r="4" fill="#3498db" stroke="white" opacity="1.0"/>
<circle cx="434.1" cy="126.8" r="4" fill="#3498db" stroke="white" opacity="1.0"/>
<circle cx="459.9" cy="122.4" r="4" fill="#3498db" stroke="white" opacity="1.0"/>
<circle cx="485.6" cy="113.6" r="4" fill="#3498db" stroke="white" opacity="1.0"/>
<circle cx="511.6" cy="113.6" r="4" fill="#3498db" stroke="white" opacity="1.0"/>
<circle cx="537.4" cy="104.7" r="4" fill="#3498db" stroke="white" opacity="1.0"/>
<circle cx="563.2" cy="106.9" r="4" fill="#3498db" stroke="white" opacity="1.0"/>
<circle cx="589.0" cy="122.4" r="4" fill="#3498db" stroke="white" opacity="1.0"/>
<circle cx="614.8" cy="131.3" r="4" fill="#3498db" stroke="white" opacity="1.0"/>
<circle cx="640.6" cy="120.2" r="4" fill="#3498db" stroke="white" opacity="1.0"/>
<circle cx="666.5" cy="118.0" r="4" fill="#3498db" stroke="white" opacity="1.0"/>
<circle cx="692.4" cy="115.8" r="4" fill="#3498db" stroke="white" opacity="1.0"/>
<circle cx="718.2" cy="113.6" r="4" fill="#3498db" stroke="white" opacity="1.0"/>
<circle cx="743.9" cy="104.7" r="4" fill="#3498db" stroke="white" opacity="1.0"/>
<circle cx="769.6" cy="104.7" r="4" fill="#3498db" stroke="white" opacity="1.0"/>
<circle cx="795.4" cy="129.0" r="4" fill="#3498db" stroke="white" opacity="1.0"/>
<circle cx="821.3" cy="126.8" r="4" fill="#3498db" stroke="white" opacity="1.0"/>
<circle cx="847.1" cy="122.4" r="4" fill="#3498db" stroke="white" opacity="1.0"/>
<circle cx="872.8" cy="120.2" r="4" fill="#3498db" stroke="white" opacity="1.0"/>
<circle cx="898.6" cy="113.6" r="4" fill="#3498db" stroke="white" opacity="1.0"/>
<circle cx="924.5" cy="106.9" r="4" fill="#3498db" stroke="white" opacity="1.0"/>
<circle cx="950.2" cy="104.7" r="4" fill="#3498db" stroke="white" opacity="1.0"/>
<circle cx="976.1" cy="95.9" r="4" fill="#3498db" stroke="white" opacity="1.0"/>
<circle cx="1001.9" cy="95.9" r="4" fill="#3498db" stroke="white" opacity="1.0"/>
<circle cx="1027.7" cy="93.7" r="4" fill="#3498db" stroke="white" opacity="1.0"/>
<circle cx="1053.5" cy="122.4" r="4" fill="#3498db" stroke="white" opacity="1.0"/>
</g>
<g class="series pmic-series" data-mode="AUTO_PFM" data-chip="21988" data-temp="25" data-reg="DC2DC_DIG">
<path d="M 124.5,204.2 L 150.3,210.9 L 176.1,199.8 L 201.9,199.8 L 227.7,217.5 L 253.5,206.4 L 279.3,199.8 L 305.0,202.0 L 330.9,210.9 L 356.8,204.2 L 382.6,197.6 L 408.4,199.8 L 434.1,191.0 L 459.9,199.8 L 485.7,204.2 L 511.7,202.0 L 537.4,197.6 L 563.2,188.8 L 589.0,186.5 L 614.8,184.3 L 640.6,208.7 L 666.5,206.4 L 692.4,202.0 L 718.2,195.4 L 743.9,193.2 L 769.6,191.0 L 795.4,184.3 L 821.4,188.8 L 847.2,210.9 L 872.8,208.7 L 898.6,199.8 L 924.5,199.8 L 950.2,195.4 L 976.1,197.6 L 1001.9,184.3 L 1027.7,179.9 L 1053.5,175.5" fill="none" stroke="#e67e22" stroke-width="2.2" stroke-linejoin="round" opacity="0.9"/>
<circle cx="124.5" cy="204.2" r="4" fill="#e67e22" stroke="white" opacity="1.0"/>
<circle cx="150.3" cy="210.9" r="4" fill="#e67e22" stroke="white" opacity="1.0"/>
<circle cx="176.1" cy="199.8" r="4" fill="#e67e22" stroke="white" opacity="1.0"/>
<circle cx="201.9" cy="199.8" r="4" fill="#e67e22" stroke="white" opacity="1.0"/>
<circle cx="227.7" cy="217.5" r="4" fill="#e67e22" stroke="white" opacity="1.0"/>
<circle cx="253.5" cy="206.4" r="4" fill="#e67e22" stroke="white" opacity="1.0"/>
<circle cx="279.3" cy="199.8" r="4" fill="#e67e22" stroke="white" opacity="1.0"/>
<circle cx="305.0" cy="202.0" r="4" fill="#e67e22" stroke="white" opacity="1.0"/>
<circle cx="330.9" cy="210.9" r="4" fill="#e67e22" stroke="white" opacity="1.0"/>
<circle cx="356.8" cy="204.2" r="4" fill="#e67e22" stroke="white" opacity="1.0"/>
<circle cx="382.6" cy="197.6" r="4" fill="#e67e22" stroke="white" opacity="1.0"/>
<circle cx="408.4" cy="199.8" r="4" fill="#e67e22" stroke="white" opacity="1.0"/>
<circle cx="434.1" cy="191.0" r="4" fill="#e67e22" stroke="white" opacity="1.0"/>
<circle cx="459.9" cy="199.8" r="4" fill="#e67e22" stroke="white" opacity="1.0"/>
<circle cx="485.7" cy="204.2" r="4" fill="#e67e22" stroke="white" opacity="1.0"/>
<circle cx="511.7" cy="202.0" r="4" fill="#e67e22" stroke="white" opacity="1.0"/>
<circle cx="537.4" cy="197.6" r="4" fill="#e67e22" stroke="white" opacity="1.0"/>
<circle cx="563.2" cy="188.8" r="4" fill="#e67e22" stroke="white" opacity="1.0"/>
<circle cx="589.0" cy="186.5" r="4" fill="#e67e22" stroke="white" opacity="1.0"/>
<circle cx="614.8" cy="184.3" r="4" fill="#e67e22" stroke="white" opacity="1.0"/>
<circle cx="640.6" cy="208.7" r="4" fill="#e67e22" stroke="white" opacity="1.0"/>
<circle cx="666.5" cy="206.4" r="4" fill="#e67e22" stroke="white" opacity="1.0"/>
<circle cx="692.4" cy="202.0" r="4" fill="#e67e22" stroke="white" opacity="1.0"/>
<circle cx="718.2" cy="195.4" r="4" fill="#e67e22" stroke="white" opacity="1.0"/>
<circle cx="743.9" cy="193.2" r="4" fill="#e67e22" stroke="white" opacity="1.0"/>
<circle cx="769.6" cy="191.0" r="4" fill="#e67e22" stroke="white" opacity="1.0"/>
<circle cx="795.4" cy="184.3" r="4" fill="#e67e22" stroke="white" opacity="1.0"/>
<circle cx="821.4" cy="188.8" r="4" fill="#e67e22" stroke="white" opacity="1.0"/>
<circle cx="847.2" cy="210.9" r="4" fill="#e67e22" stroke="white" opacity="1.0"/>
<circle cx="872.8" cy="208.7" r="4" fill="#e67e22" stroke="white" opacity="1.0"/>
<circle cx="898.6" cy="199.8" r="4" fill="#e67e22" stroke="white" opacity="1.0"/>
<circle cx="924.5" cy="199.8" r="4" fill="#e67e22" stroke="white" opacity="1.0"/>
<circle cx="950.2" cy="195.4" r="4" fill="#e67e22" stroke="white" opacity="1.0"/>
<circle cx="976.1" cy="197.6" r="4" fill="#e67e22" stroke="white" opacity="1.0"/>
<circle cx="1001.9" cy="184.3" r="4" fill="#e67e22" stroke="white" opacity="1.0"/>
<circle cx="1027.7" cy="179.9" r="4" fill="#e67e22" stroke="white" opacity="1.0"/>
<circle cx="1053.5" cy="175.5" r="4" fill="#e67e22" stroke="white" opacity="1.0"/>
</g>
<g class="series pmic-series" data-mode="AUTO_PFM" data-chip="21988" data-temp="80" data-reg="DC2DC_DIG">
<path d="M 124.5,148.9 L 150.2,135.7 L 176.0,129.0 L 201.9,144.5 L 227.7,140.1 L 253.5,142.3 L 279.3,129.0 L 305.0,144.5 L 330.9,146.7 L 356.8,144.5 L 382.6,135.7 L 408.4,126.8 L 434.1,140.1 L 459.9,144.5 L 485.7,135.7 L 511.7,129.0 L 537.4,131.3 L 563.2,118.0 L 589.0,133.5 L 614.8,142.3 L 640.6,142.3 L 666.5,131.3 L 692.4,129.0 L 718.2,122.4 L 743.9,118.0 L 769.6,115.8 L 795.4,135.7 L 821.4,140.1 L 847.2,140.1 L 872.8,131.3 L 898.6,131.3 L 924.5,124.6 L 950.2,118.0 L 976.1,113.6 L 1001.9,113.6 L 1027.7,111.3 L 1053.5,100.3" fill="none" stroke="#2ecc71" stroke-width="2.2" stroke-linejoin="round" opacity="0.9"/>
<circle cx="124.5" cy="148.9" r="4" fill="#2ecc71" stroke="white" opacity="1.0"/>
<circle cx="150.2" cy="135.7" r="4" fill="#2ecc71" stroke="white" opacity="1.0"/>
<circle cx="176.0" cy="129.0" r="4" fill="#2ecc71" stroke="white" opacity="1.0"/>
<circle cx="201.9" cy="144.5" r="4" fill="#2ecc71" stroke="white" opacity="1.0"/>
<circle cx="227.7" cy="140.1" r="4" fill="#2ecc71" stroke="white" opacity="1.0"/>
<circle cx="253.5" cy="142.3" r="4" fill="#2ecc71" stroke="white" opacity="1.0"/>
<circle cx="279.3" cy="129.0" r="4" fill="#2ecc71" stroke="white" opacity="1.0"/>
<circle cx="305.0" cy="144.5" r="4" fill="#2ecc71" stroke="white" opacity="1.0"/>
<circle cx="330.9" cy="146.7" r="4" fill="#2ecc71" stroke="white" opacity="1.0"/>
<circle cx="356.8" cy="144.5" r="4" fill="#2ecc71" stroke="white" opacity="1.0"/>
<circle cx="382.6" cy="135.7" r="4" fill="#2ecc71" stroke="white" opacity="1.0"/>
<circle cx="408.4" cy="126.8" r="4" fill="#2ecc71" stroke="white" opacity="1.0"/>
<circle cx="434.1" cy="140.1" r="4" fill="#2ecc71" stroke="white" opacity="1.0"/>
<circle cx="459.9" cy="144.5" r="4" fill="#2ecc71" stroke="white" opacity="1.0"/>
<circle cx="485.7" cy="135.7" r="4" fill="#2ecc71" stroke="white" opacity="1.0"/>
<circle cx="511.7" cy="129.0" r="4" fill="#2ecc71" stroke="white" opacity="1.0"/>
<circle cx="537.4" cy="131.3" r="4" fill="#2ecc71" stroke="white" opacity="1.0"/>
<circle cx="563.2" cy="118.0" r="4" fill="#2ecc71" stroke="white" opacity="1.0"/>
<circle cx="589.0" cy="133.5" r="4" fill="#2ecc71" stroke="white" opacity="1.0"/>
<circle cx="614.8" cy="142.3" r="4" fill="#2ecc71" stroke="white" opacity="1.0"/>
<circle cx="640.6" cy="142.3" r="4" fill="#2ecc71" stroke="white" opacity="1.0"/>
<circle cx="666.5" cy="131.3" r="4" fill="#2ecc71" stroke="white" opacity="1.0"/>
<circle cx="692.4" cy="129.0" r="4" fill="#2ecc71" stroke="white" opacity="1.0"/>
<circle cx="718.2" cy="122.4" r="4" fill="#2ecc71" stroke="white" opacity="1.0"/>
<circle cx="743.9" cy="118.0" r="4" fill="#2ecc71" stroke="white" opacity="1.0"/>
<circle cx="769.6" cy="115.8" r="4" fill="#2ecc71" stroke="white" opacity="1.0"/>
<circle cx="795.4" cy="135.7" r="4" fill="#2ecc71" stroke="white" opacity="1.0"/>
<circle cx="821.4" cy="140.1" r="4" fill="#2ecc71" stroke="white" opacity="1.0"/>
<circle cx="847.2" cy="140.1" r="4" fill="#2ecc71" stroke="white" opacity="1.0"/>
<circle cx="872.8" cy="131.3" r="4" fill="#2ecc71" stroke="white" opacity="1.0"/>
<circle cx="898.6" cy="131.3" r="4" fill="#2ecc71" stroke="white" opacity="1.0"/>
<circle cx="924.5" cy="124.6" r="4" fill="#2ecc71" stroke="white" opacity="1.0"/>
<circle cx="950.2" cy="118.0" r="4" fill="#2ecc71" stroke="white" opacity="1.0"/>
<circle cx="976.1" cy="113.6" r="4" fill="#2ecc71" stroke="white" opacity="1.0"/>
<circle cx="1001.9" cy="113.6" r="4" fill="#2ecc71" stroke="white" opacity="1.0"/>
<circle cx="1027.7" cy="111.3" r="4" fill="#2ecc71" stroke="white" opacity="1.0"/>
<circle cx="1053.5" cy="100.3" r="4" fill="#2ecc71" stroke="white" opacity="1.0"/>
</g>
<g class="series pmic-series" data-mode="AUTO_PFM" data-chip="31927" data-temp="0" data-reg="DC2DC_DIG">
<path d="M 124.5,398.9 L 150.2,414.3 L 176.0,392.2 L 201.9,394.4 L 227.7,407.7 L 253.5,401.1 L 279.3,394.4 L 305.0,401.1 L 330.8,396.7 L 356.8,394.4 L 382.6,394.4 L 408.4,407.7 L 434.1,394.4 L 459.9,394.4 L 485.6,387.8 L 511.6,398.9 L 537.4,405.5 L 563.2,392.2 L 589.0,385.6 L 614.8,381.2 L 640.6,387.8 L 666.5,409.9 L 692.4,401.1 L 718.1,396.7 L 743.9,392.2 L 769.6,379.0 L 795.4,383.4 L 821.3,398.9 L 847.1,407.7 L 872.8,398.9 L 898.6,398.9 L 924.4,387.8 L 950.2,379.0 L 976.1,374.5 L 1001.9,390.0 L 1027.7,405.5 L 1053.5,405.5" fill="none" stroke="#9b59b6" stroke-width="2.2" stroke-linejoin="round" opacity="0.9"/>
<circle cx="124.5" cy="398.9" r="4" fill="#9b59b6" stroke="white" opacity="1.0"/>
<circle cx="150.2" cy="414.3" r="4" fill="#9b59b6" stroke="white" opacity="1.0"/>
<circle cx="176.0" cy="392.2" r="4" fill="#9b59b6" stroke="white" opacity="1.0"/>
<circle cx="201.9" cy="394.4" r="4" fill="#9b59b6" stroke="white" opacity="1.0"/>
<circle cx="227.7" cy="407.7" r="4" fill="#9b59b6" stroke="white" opacity="1.0"/>
<circle cx="253.5" cy="401.1" r="4" fill="#9b59b6" stroke="white" opacity="1.0"/>
<circle cx="279.3" cy="394.4" r="4" fill="#9b59b6" stroke="white" opacity="1.0"/>
<circle cx="305.0" cy="401.1" r="4" fill="#9b59b6" stroke="white" opacity="1.0"/>
<circle cx="330.8" cy="396.7" r="4" fill="#9b59b6" stroke="white" opacity="1.0"/>
<circle cx="356.8" cy="394.4" r="4" fill="#9b59b6" stroke="white" opacity="1.0"/>
<circle cx="382.6" cy="394.4" r="4" fill="#9b59b6" stroke="white" opacity="1.0"/>
<circle cx="408.4" cy="407.7" r="4" fill="#9b59b6" stroke="white" opacity="1.0"/>
<circle cx="434.1" cy="394.4" r="4" fill="#9b59b6" stroke="white" opacity="1.0"/>
<circle cx="459.9" cy="394.4" r="4" fill="#9b59b6" stroke="white" opacity="1.0"/>
<circle cx="485.6" cy="387.8" r="4" fill="#9b59b6" stroke="white" opacity="1.0"/>
<circle cx="511.6" cy="398.9" r="4" fill="#9b59b6" stroke="white" opacity="1.0"/>
<circle cx="537.4" cy="405.5" r="4" fill="#9b59b6" stroke="white" opacity="1.0"/>
<circle cx="563.2" cy="392.2" r="4" fill="#9b59b6" stroke="white" opacity="1.0"/>
<circle cx="589.0" cy="385.6" r="4" fill="#9b59b6" stroke="white" opacity="1.0"/>
<circle cx="614.8" cy="381.2" r="4" fill="#9b59b6" stroke="white" opacity="1.0"/>
<circle cx="640.6" cy="387.8" r="4" fill="#9b59b6" stroke="white" opacity="1.0"/>
<circle cx="666.5" cy="409.9" r="4" fill="#9b59b6" stroke="white" opacity="1.0"/>
<circle cx="692.4" cy="401.1" r="4" fill="#9b59b6" stroke="white" opacity="1.0"/>
<circle cx="718.1" cy="396.7" r="4" fill="#9b59b6" stroke="white" opacity="1.0"/>
<circle cx="743.9" cy="392.2" r="4" fill="#9b59b6" stroke="white" opacity="1.0"/>
<circle cx="769.6" cy="379.0" r="4" fill="#9b59b6" stroke="white" opacity="1.0"/>
<circle cx="795.4" cy="383.4" r="4" fill="#9b59b6" stroke="white" opacity="1.0"/>
<circle cx="821.3" cy="398.9" r="4" fill="#9b59b6" stroke="white" opacity="1.0"/>
<circle cx="847.1" cy="407.7" r="4" fill="#9b59b6" stroke="white" opacity="1.0"/>
<circle cx="872.8" cy="398.9" r="4" fill="#9b59b6" stroke="white" opacity="1.0"/>
<circle cx="898.6" cy="398.9" r="4" fill="#9b59b6" stroke="white" opacity="1.0"/>
<circle cx="924.4" cy="387.8" r="4" fill="#9b59b6" stroke="white" opacity="1.0"/>
<circle cx="950.2" cy="379.0" r="4" fill="#9b59b6" stroke="white" opacity="1.0"/>
<circle cx="976.1" cy="374.5" r="4" fill="#9b59b6" stroke="white" opacity="1.0"/>
<circle cx="1001.9" cy="390.0" r="4" fill="#9b59b6" stroke="white" opacity="1.0"/>
<circle cx="1027.7" cy="405.5" r="4" fill="#9b59b6" stroke="white" opacity="1.0"/>
<circle cx="1053.5" cy="405.5" r="4" fill="#9b59b6" stroke="white" opacity="1.0"/>
</g>
<g class="series pmic-series" data-mode="AUTO_PFM" data-chip="31927" data-temp="25" data-reg="DC2DC_DIG">
<path d="M 124.5,343.6 L 150.2,348.0 L 176.0,341.4 L 201.9,336.9 L 227.7,345.8 L 253.5,339.1 L 279.3,339.1 L 305.0,345.8 L 330.9,341.4 L 356.8,334.7 L 382.6,341.4 L 408.4,343.6 L 434.1,343.6 L 459.9,330.3 L 485.6,334.7 L 511.6,345.8 L 537.4,343.6 L 563.2,334.7 L 589.0,330.3 L 614.8,339.1 L 640.6,343.6 L 666.5,336.9 L 692.4,330.3 L 718.2,323.7 L 743.9,321.5 L 769.6,341.4 L 795.4,339.1 L 821.3,330.3 L 847.1,323.7 L 872.8,321.5 L 898.6,323.7 L 924.5,323.7 L 950.2,341.4 L 976.1,334.7 L 1001.9,328.1 L 1027.7,328.1 L 1053.5,325.9" fill="none" stroke="#1abc9c" stroke-width="2.2" stroke-linejoin="round" opacity="0.9"/>
<circle cx="124.5" cy="343.6" r="4" fill="#1abc9c" stroke="white" opacity="1.0"/>
<circle cx="150.2" cy="348.0" r="4" fill="#1abc9c" stroke="white" opacity="1.0"/>
<circle cx="176.0" cy="341.4" r="4" fill="#1abc9c" stroke="white" opacity="1.0"/>
<circle cx="201.9" cy="336.9" r="4" fill="#1abc9c" stroke="white" opacity="1.0"/>
<circle cx="227.7" cy="345.8" r="4" fill="#1abc9c" stroke="white" opacity="1.0"/>
<circle cx="253.5" cy="339.1" r="4" fill="#1abc9c" stroke="white" opacity="1.0"/>
<circle cx="279.3" cy="339.1" r="4" fill="#1abc9c" stroke="white" opacity="1.0"/>
<circle cx="305.0" cy="345.8" r="4" fill="#1abc9c" stroke="white" opacity="1.0"/>
<circle cx="330.9" cy="341.4" r="4" fill="#1abc9c" stroke="white" opacity="1.0"/>
<circle cx="356.8" cy="334.7" r="4" fill="#1abc9c" stroke="white" opacity="1.0"/>
<circle cx="382.6" cy="341.4" r="4" fill="#1abc9c" stroke="white" opacity="1.0"/>
<circle cx="408.4" cy="343.6" r="4" fill="#1abc9c" stroke="white" opacity="1.0"/>
<circle cx="434.1" cy="343.6" r="4" fill="#1abc9c" stroke="white" opacity="1.0"/>
<circle cx="459.9" cy="330.3" r="4" fill="#1abc9c" stroke="white" opacity="1.0"/>
<circle cx="485.6" cy="334.7" r="4" fill="#1abc9c" stroke="white" opacity="1.0"/>
<circle cx="511.6" cy="345.8" r="4" fill="#1abc9c" stroke="white" opacity="1.0"/>
<circle cx="537.4" cy="343.6" r="4" fill="#1abc9c" stroke="white" opacity="1.0"/>
<circle cx="563.2" cy="334.7" r="4" fill="#1abc9c" stroke="white" opacity="1.0"/>
<circle cx="589.0" cy="330.3" r="4" fill="#1abc9c" stroke="white" opacity="1.0"/>
<circle cx="614.8" cy="339.1" r="4" fill="#1abc9c" stroke="white" opacity="1.0"/>
<circle cx="640.6" cy="343.6" r="4" fill="#1abc9c" stroke="white" opacity="1.0"/>
<circle cx="666.5" cy="336.9" r="4" fill="#1abc9c" stroke="white" opacity="1.0"/>
<circle cx="692.4" cy="330.3" r="4" fill="#1abc9c" stroke="white" opacity="1.0"/>
<circle cx="718.2" cy="323.7" r="4" fill="#1abc9c" stroke="white" opacity="1.0"/>
<circle cx="743.9" cy="321.5" r="4" fill="#1abc9c" stroke="white" opacity="1.0"/>
<circle cx="769.6" cy="341.4" r="4" fill="#1abc9c" stroke="white" opacity="1.0"/>
<circle cx="795.4" cy="339.1" r="4" fill="#1abc9c" stroke="white" opacity="1.0"/>
<circle cx="821.3" cy="330.3" r="4" fill="#1abc9c" stroke="white" opacity="1.0"/>
<circle cx="847.1" cy="323.7" r="4" fill="#1abc9c" stroke="white" opacity="1.0"/>
<circle cx="872.8" cy="321.5" r="4" fill="#1abc9c" stroke="white" opacity="1.0"/>
<circle cx="898.6" cy="323.7" r="4" fill="#1abc9c" stroke="white" opacity="1.0"/>
<circle cx="924.5" cy="323.7" r="4" fill="#1abc9c" stroke="white" opacity="1.0"/>
<circle cx="950.2" cy="341.4" r="4" fill="#1abc9c" stroke="white" opacity="1.0"/>
<circle cx="976.1" cy="334.7" r="4" fill="#1abc9c" stroke="white" opacity="1.0"/>
<circle cx="1001.9" cy="328.1" r="4" fill="#1abc9c" stroke="white" opacity="1.0"/>
<circle cx="1027.7" cy="328.1" r="4" fill="#1abc9c" stroke="white" opacity="1.0"/>
<circle cx="1053.5" cy="325.9" r="4" fill="#1abc9c" stroke="white" opacity="1.0"/>
</g>
<g class="series pmic-series" data-mode="AUTO_PFM" data-chip="31927" data-temp="80" data-reg="DC2DC_DIG">
<path d="M 124.5,272.8 L 150.2,281.6 L 176.0,275.0 L 201.9,270.6 L 227.7,270.6 L 253.5,264.0 L 279.3,264.0 L 305.0,279.4 L 330.9,272.8 L 356.8,268.4 L 382.6,277.2 L 408.4,277.2 L 434.1,272.8 L 459.9,272.8 L 485.6,281.6 L 511.6,279.4 L 537.4,272.8 L 563.2,266.2 L 589.0,264.0 L 614.8,279.4 L 640.6,275.0 L 666.5,270.6 L 692.4,259.5 L 718.2,255.1 L 743.9,264.0 L 769.6,277.2 L 795.4,277.2 L 821.4,277.2 L 847.2,275.0 L 872.9,268.4 L 898.6,257.3 L 924.4,279.4 L 950.2,279.4 L 976.1,275.0 L 1001.9,268.4 L 1027.7,264.0 L 1053.5,255.1" fill="none" stroke="#e74c3c" stroke-width="2.2" stroke-linejoin="round" opacity="0.9"/>
<circle cx="124.5" cy="272.8" r="4" fill="#e74c3c" stroke="white" opacity="1.0"/>
<circle cx="150.2" cy="281.6" r="4" fill="#e74c3c" stroke="white" opacity="1.0"/>
<circle cx="176.0" cy="275.0" r="4" fill="#e74c3c" stroke="white" opacity="1.0"/>
<circle cx="201.9" cy="270.6" r="4" fill="#e74c3c" stroke="white" opacity="1.0"/>
<circle cx="227.7" cy="270.6" r="4" fill="#e74c3c" stroke="white" opacity="1.0"/>
<circle cx="253.5" cy="264.0" r="4" fill="#e74c3c" stroke="white" opacity="1.0"/>
<circle cx="279.3" cy="264.0" r="4" fill="#e74c3c" stroke="white" opacity="1.0"/>
<circle cx="305.0" cy="279.4" r="4" fill="#e74c3c" stroke="white" opacity="1.0"/>
<circle cx="330.9" cy="272.8" r="4" fill="#e74c3c" stroke="white" opacity="1.0"/>
<circle cx="356.8" cy="268.4" r="4" fill="#e74c3c" stroke="white" opacity="1.0"/>
<circle cx="382.6" cy="277.2" r="4" fill="#e74c3c" stroke="white" opacity="1.0"/>
<circle cx="408.4" cy="277.2" r="4" fill="#e74c3c" stroke="white" opacity="1.0"/>
<circle cx="434.1" cy="272.8" r="4" fill="#e74c3c" stroke="white" opacity="1.0"/>
<circle cx="459.9" cy="272.8" r="4" fill="#e74c3c" stroke="white" opacity="1.0"/>
<circle cx="485.6" cy="281.6" r="4" fill="#e74c3c" stroke="white" opacity="1.0"/>
<circle cx="511.6" cy="279.4" r="4" fill="#e74c3c" stroke="white" opacity="1.0"/>
<circle cx="537.4" cy="272.8" r="4" fill="#e74c3c" stroke="white" opacity="1.0"/>
<circle cx="563.2" cy="266.2" r="4" fill="#e74c3c" stroke="white" opacity="1.0"/>
<circle cx="589.0" cy="264.0" r="4" fill="#e74c3c" stroke="white" opacity="1.0"/>
<circle cx="614.8" cy="279.4" r="4" fill="#e74c3c" stroke="white" opacity="1.0"/>
<circle cx="640.6" cy="275.0" r="4" fill="#e74c3c" stroke="white" opacity="1.0"/>
<circle cx="666.5" cy="270.6" r="4" fill="#e74c3c" stroke="white" opacity="1.0"/>
<circle cx="692.4" cy="259.5" r="4" fill="#e74c3c" stroke="white" opacity="1.0"/>
<circle cx="718.2" cy="255.1" r="4" fill="#e74c3c" stroke="white" opacity="1.0"/>
<circle cx="743.9" cy="264.0" r="4" fill="#e74c3c" stroke="white" opacity="1.0"/>
<circle cx="769.6" cy="277.2" r="4" fill="#e74c3c" stroke="white" opacity="1.0"/>
<circle cx="795.4" cy="277.2" r="4" fill="#e74c3c" stroke="white" opacity="1.0"/>
<circle cx="821.4" cy="277.2" r="4" fill="#e74c3c" stroke="white" opacity="1.0"/>
<circle cx="847.2" cy="275.0" r="4" fill="#e74c3c" stroke="white" opacity="1.0"/>
<circle cx="872.9" cy="268.4" r="4" fill="#e74c3c" stroke="white" opacity="1.0"/>
<circle cx="898.6" cy="257.3" r="4" fill="#e74c3c" stroke="white" opacity="1.0"/>
<circle cx="924.4" cy="279.4" r="4" fill="#e74c3c" stroke="white" opacity="1.0"/>
<circle cx="950.2" cy="279.4" r="4" fill="#e74c3c" stroke="white" opacity="1.0"/>
<circle cx="976.1" cy="275.0" r="4" fill="#e74c3c" stroke="white" opacity="1.0"/>
<circle cx="1001.9" cy="268.4" r="4" fill="#e74c3c" stroke="white" opacity="1.0"/>
<circle cx="1027.7" cy="264.0" r="4" fill="#e74c3c" stroke="white" opacity="1.0"/>
<circle cx="1053.5" cy="255.1" r="4" fill="#e74c3c" stroke="white" opacity="1.0"/>
</g>
<g class="legend-item" data-mode="AUTO_PFM" data-chip="21988" data-temp="0" data-reg="DC2DC_DIG">
<rect x="1116.0" y="69.0" width="22.0" height="4.0" fill="#3498db" stroke="none" stroke-width="1" opacity="1.0" rx="2"/>
<circle cx="1127.0" cy="71.0" r="4" fill="#3498db" stroke="none" opacity="1.0"/>
<text x="1144.0" y="76.0" font-size="9" font-weight="normal" text-anchor="start" fill="#333" font-family="Arial,sans-serif">Chip 21988 | T=0°C</text>
</g>
<g class="legend-item" data-mode="AUTO_PFM" data-chip="21988" data-temp="25" data-reg="DC2DC_DIG">
<rect x="1116.0" y="86.0" width="22.0" height="4.0" fill="#e67e22" stroke="none" stroke-width="1" opacity="1.0" rx="2"/>
<circle cx="1127.0" cy="88.0" r="4" fill="#e67e22" stroke="none" opacity="1.0"/>
<text x="1144.0" y="93.0" font-size="9" font-weight="normal" text-anchor="start" fill="#333" font-family="Arial,sans-serif">Chip 21988 | T=25°C</text>
</g>
<g class="legend-item" data-mode="AUTO_PFM" data-chip="21988" data-temp="80" data-reg="DC2DC_DIG">
<rect x="1116.0" y="103.0" width="22.0" height="4.0" fill="#2ecc71" stroke="none" stroke-width="1" opacity="1.0" rx="2"/>
<circle cx="1127.0" cy="105.0" r="4" fill="#2ecc71" stroke="none" opacity="1.0"/>
<text x="1144.0" y="110.0" font-size="9" font-weight="normal" text-anchor="start" fill="#333" font-family="Arial,sans-serif">Chip 21988 | T=80°C</text>
</g>
<g class="legend-item" data-mode="AUTO_PFM" data-chip="31927" data-temp="0" data-reg="DC2DC_DIG">
<rect x="1116.0" y="120.0" width="22.0" height="4.0" fill="#9b59b6" stroke="none" stroke-width="1" opacity="1.0" rx="2"/>
<circle cx="1127.0" cy="122.0" r="4" fill="#9b59b6" stroke="none" opacity="1.0"/>
<text x="1144.0" y="127.0" font-size="9" font-weight="normal" text-anchor="start" fill="#333" font-family="Arial,sans-serif">Chip 31927 | T=0°C</text>
</g>
<g class="legend-item" data-mode="AUTO_PFM" data-chip="31927" data-temp="25" data-reg="DC2DC_DIG">
<rect x="1116.0" y="137.0" width="22.0" height="4.0" fill="#1abc9c" stroke="none" stroke-width="1" opacity="1.0" rx="2"/>
<circle cx="1127.0" cy="139.0" r="4" fill="#1abc9c" stroke="none" opacity="1.0"/>
<text x="1144.0" y="144.0" font-size="9" font-weight="normal" text-anchor="start" fill="#333" font-family="Arial,sans-serif">Chip 31927 | T=25°C</text>
</g>
<g class="legend-item" data-mode="AUTO_PFM" data-chip="31927" data-temp="80" data-reg="DC2DC_DIG">
<rect x="1116.0" y="154.0" width="22.0" height="4.0" fill="#e74c3c" stroke="none" stroke-width="1" opacity="1.0" rx="2"/>
<circle cx="1127.0" cy="156.0" r="4" fill="#e74c3c" stroke="none" opacity="1.0"/>
<text x="1144.0" y="161.0" font-size="9" font-weight="normal" text-anchor="start" fill="#333" font-family="Arial,sans-serif">Chip 31927 | T=80°C</text>
</g>
<rect class="cursor-overlay" x="78.0" y="68.0" width="1022.0" height="372.0" fill="transparent" style="cursor:default" data-xmin="2.446395" data-xmax="3.634505" data-ymin="0.70424" data-ymax="0.72106" data-pl="78.0" data-pr="1100.0" data-pt="68.0" data-pb="440.0"/>
<g class="cursor-layer" style="pointer-events:none;display:none"><line class="cur-v" x1="0" y1="68.0" x2="0" y2="440.0" stroke="#e74c3c" stroke-width="1.2" stroke-dasharray="5,3"/><line class="cur-h" x1="78.0" y1="0" x2="1100.0" y2="0" stroke="#e74c3c" stroke-width="1.2" stroke-dasharray="5,3"/><rect class="cur-tip-bg" x="0" y="0" width="148" height="44" rx="5" fill="#1a252f" stroke="#34495e" stroke-width="1" opacity="0.92"/><text class="cur-tip-x" x="0" y="0" font-size="11" font-family="Arial,sans-serif" fill="#ecf0f1"/><text class="cur-tip-y" x="0" y="0" font-size="11" font-family="Arial,sans-serif" fill="#2ecc71"/></g>
</svg>