<svg xmlns="http://www.w3.org/2000/svg" width="1400" height="520" viewBox="0 0 1400 520">
<rect width="1400" height="520" fill="#ffffff"/>
<text x="700.0" y="28.0" font-size="16" font-weight="bold" text-anchor="middle" fill="#2c3e50" font-family="Arial,sans-serif">Static Line Regulation — Digital DC2DC  Vout=0.7V  [PFM]  Iload=100µA</text>
<line x1="78.0" y1="68.0" x2="78.0" y2="440.0" stroke="#999" stroke-width="1"/>
<line x1="73.0" y1="440.0" x2="78.0" y2="440.0" stroke="#999" stroke-width="1"/>
<line x1="78.0" y1="440.0" x2="1100.0" y2="440.0" stroke="#e8e8e8" stroke-width="0.7" stroke-dasharray="4,3"/>
<text x="70.0" y="444.0" font-size="9" font-weight="normal" text-anchor="end" fill="#888" font-family="Arial,sans-serif">0.705</text>
<line x1="73.0" y1="365.6" x2="78.0" y2="365.6" stroke="#999" stroke-width="1"/>
<line x1="78.0" y1="365.6" x2="1100.0" y2="365.6" stroke="#e8e8e8" stroke-width="0.7" stroke-dasharray="4,3"/>
<text x="70.0" y="369.6" font-size="9" font-weight="normal" text-anchor="end" fill="#888" font-family="Arial,sans-serif">0.708</text>
<line x1="73.0" y1="291.2" x2="78.0" y2="291.2" stroke="#999" stroke-width="1"/>
<line x1="78.0" y1="291.2" x2="1100.0" y2="291.2" stroke="#e8e8e8" stroke-width="0.7" stroke-dasharray="4,3"/>
<text x="70.0" y="295.2" font-size="9" font-weight="normal" text-anchor="end" fill="#888" font-family="Arial,sans-serif">0.712</text>
<line x1="73.0" y1="216.8" x2="78.0" y2="216.8" stroke="#999" stroke-width="1"/>
<line x1="78.0" y1="216.8" x2="1100.0" y2="216.8" stroke="#e8e8e8" stroke-width="0.7" stroke-dasharray="4,3"/>
<text x="70.0" y="220.8" font-size="9" font-weight="normal" text-anchor="end" fill="#888" font-family="Arial,sans-serif">0.715</text>
<line x1="73.0" y1="142.4" x2="78.0" y2="142.4" stroke="#999" stroke-width="1"/>
<line x1="78.0" y1="142.4" x2="1100.0" y2="142.4" stroke="#e8e8e8" stroke-width="0.7" stroke-dasharray="4,3"/>
<text x="70.0" y="146.4" font-size="9" font-weight="normal" text-anchor="end" fill="#888" font-family="Arial,sans-serif">0.719</text>
<line x1="73.0" y1="68.0" x2="78.0" y2="68.0" stroke="#999" stroke-width="1"/>
<line x1="78.0" y1="68.0" x2="1100.0" y2="68.0" stroke="#e8e8e8" stroke-width="0.7" stroke-dasharray="4,3"/>
<text x="70.0" y="72.0" font-size="9" font-weight="normal" text-anchor="end" fill="#888" font-family="Arial,sans-serif">0.722</text>
<line x1="78.0" y1="440.0" x2="1100.0" y2="440.0" stroke="#999" stroke-width="1"/>
<line x1="78.0" y1="440.0" x2="78.0" y2="445.0" stroke="#999" stroke-width="1"/>
<line x1="78.0" y1="68.0" x2="78.0" y2="440.0" stroke="#e8e8e8" stroke-width="0.7" stroke-dasharray="4,3"/>
<text x="78.0" y="456.0" font-size="9" font-weight="normal" text-anchor="middle" fill="#888" font-family="Arial,sans-serif">2.45</text>
<line x1="224.0" y1="440.0" x2="224.0" y2="445.0" stroke="#999" stroke-width="1"/>
<line x1="224.0" y1="68.0" x2="224.0" y2="440.0" stroke="#e8e8e8" stroke-width="0.7" stroke-dasharray="4,3"/>
<text x="224.0" y="456.0" font-size="9" font-weight="normal" text-anchor="middle" fill="#888" font-family="Arial,sans-serif">2.62</text>
<line x1="370.0" y1="440.0" x2="370.0" y2="445.0" stroke="#999" stroke-width="1"/>
<line x1="370.0" y1="68.0" x2="370.0" y2="440.0" stroke="#e8e8e8" stroke-width="0.7" stroke-dasharray="4,3"/>
<text x="370.0" y="456.0" font-size="9" font-weight="normal" text-anchor="middle" fill="#888" font-family="Arial,sans-serif">2.79</text>
<line x1="516.0" y1="440.0" x2="516.0" y2="445.0" stroke="#999" stroke-width="1"/>
<line x1="516.0" y1="68.0" x2="516.0" y2="440.0" stroke="#e8e8e8" stroke-width="0.7" stroke-dasharray="4,3"/>
<text x="516.0" y="456.0" font-size="9" font-weight="normal" text-anchor="middle" fill="#888" font-family="Arial,sans-serif">2.96</text>
<line x1="662.0" y1="440.0" x2="662.0" y2="445.0" stroke="#999" stroke-width="1"/>
<line x1="662.0" y1="68.0" x2="662.0" y2="440.0" stroke="#e8e8e8" stroke-width="0.7" stroke-dasharray="4,3"/>
<text x="662.0" y="456.0" font-size="9" font-weight="normal" text-anchor="middle" fill="#888" font-family="Arial,sans-serif">3.13</text>
<line x1="808.0" y1="440.0" x2="808.0" y2="445.0" stroke="#999" stroke-width="1"/>
<line x1="808.0" y1="68.0" x2="808.0" y2="440.0" stroke="#e8e8e8" stroke-width="0.7" stroke-dasharray="4,3"/>
<text x="808.0" y="456.0" font-size="9" font-weight="normal" text-anchor="middle" fill="#888" font-family="Arial,sans-serif">3.3</text>
<line x1="954.0" y1="440.0" x2="954.0" y2="445.0" stroke="#999" stroke-width="1"/>
<line x1="954.0" y1="68.0" x2="954.0" y2="440.0" stroke="#e8e8e8" stroke-width="0.7" stroke-dasharray="4,3"/>
<text x="954.0" y="456.0" font-size="9" font-weight="normal" text-anchor="middle" fill="#888" font-family="Arial,sans-serif">3.46</text>
<line x1="1100.0" y1="440.0" x2="1100.0" y2="445.0" stroke="#999" stroke-width="1"/>
<line x1="1100.0" y1="68.0" x2="1100.0" y2="440.0" stroke="#e8e8e8" stroke-width="0.7" stroke-dasharray="4,3"/>
<text x="1100.0" y="456.0" font-size="9" font-weight="normal" text-anchor="middle" fill="#888" font-family="Arial,sans-serif">3.63</text>
<text x="16.0" y="254.0" font-size="11" font-weight="normal" text-anchor="middle" fill="#555" font-family="Arial,sans-serif" transform="rotate(-90,16,254.0)">Output Voltage  Vout [V]</text>
<text x="589.0" y="510.0" font-size="11" font-weight="normal" text-anchor="middle" fill="#555" font-family="Arial,sans-serif">Input Voltage  Vin [V]</text>
<g class="series pmic-series" data-mode="PFM" data-chip="21988" data-temp="0" data-reg="DC2DC_DIG">
<path d="M 124.5,138.9 L 150.2,121.6 L 176.1,128.1 L 201.9,132.4 L 227.7,141.0 L 253.5,130.2 L 279.3,130.2 L 305.0,134.5 L 330.9,138.9 L 356.8,130.2 L 382.6,136.7 L 408.4,119.5 L 434.1,130.2 L 459.9,138.9 L 485.6,132.4 L 511.7,130.2 L 537.4,125.9 L 563.2,119.5 L 589.0,115.2 L 614.8,136.7 L 640.6,130.2 L 666.5,121.6 L 692.4,123.8 L 718.2,115.2 L 743.9,113.0 L 769.6,102.3 L 795.4,119.5 L 821.4,132.4 L 847.2,128.1 L 872.8,115.2 L 898.6,121.6 L 924.5,119.5 L 950.2,110.9 L 976.1,98.0 L 1001.9,104.4 L 1027.7,93.7 L 1053.5,108.7" fill="none" stroke="#3498db" stroke-width="2.2" stroke-linejoin="round" opacity="0.9"/>
<circle cx="124.5" cy="138.9" r="4" fill="#3498db" stroke="white" opacity="1.0"/>
<circle cx="150.2" cy="121.6" r="4" fill="#3498db" stroke="white" opacity="1.0"/>
<circle cx="176.1" cy="128.1" r="4" fill="#3498db" stroke="white" opacity="1.0"/>
<circle cx="201.9" cy="132.4" r="4" fill="#3498db" stroke="white" opacity="1.0"/>
<circle cx="227.7" cy="141.0" r="4" fill="#3498db" stroke="white" opacity="1.0"/>
<circle cx="253.5" cy="130.2" r="4" fill="#3498db" stroke="white" opacity="1.0"/>
<circle cx="279.3" cy="130.2" r="4" fill="#3498db" stroke="white" opacity="1.0"/>
<circle cx="305.0" cy="134.5" r="4" fill="#3498db" stroke="white" opacity="1.0"/>
<circle cx="330.9" cy="138.9" r="4" fill="#3498db" stroke="white" opacity="1.0"/>
<circle cx="356.8" cy="130.2" r="4" fill="#3498db" stroke="white" opacity="1.0"/>
<circle cx="382.6" cy="136.7" r="4" fill="#3498db" stroke="white" opacity="1.0"/>
<circle cx="408.4" cy="119.5" r="4" fill="#3498db" stroke="white" opacity="1.0"/>
<circle cx="434.1" cy="130.2" r="4" fill="#3498db" stroke="white" opacity="1.0"/>
<circle cx="459.9" cy="138.9" r="4" fill="#3498db" stroke="white" opacity="1.0"/>
<circle cx="485.6" cy="132.4" r="4" fill="#3498db" stroke="white" opacity="1.0"/>
<circle cx="511.7" cy="130.2" r="4" fill="#3498db" stroke="white" opacity="1.0"/>
<circle cx="537.4" cy="125.9" r="4" fill="#3498db" stroke="white" opacity="1.0"/>
<circle cx="563.2" cy="119.5" r="4" fill="#3498db" stroke="white" opacity="1.0"/>
<circle cx="589.0" cy="115.2" r="4" fill="#3498db" stroke="white" opacity="1.0"/>
<circle cx="614.8" cy="136.7" r="4" fill="#3498db" stroke="white" opacity="1.0"/>
<circle cx="640.6" cy="130.2" r="4" fill="#3498db" stroke="white" opacity="1.0"/>
<circle cx="666.5" cy="121.6" r="4" fill="#3498db" stroke="white" opacity="1.0"/>
<circle cx="692.4" cy="123.8" r="4" fill="#3498db" stroke="white" opacity="1.0"/>
<circle cx="718.2" cy="115.2" r="4" fill="#3498db" stroke="white" opacity="1.0"/>
<circle cx="743.9" cy="113.0" r="4" fill="#3498db" stroke="white" opacity="1.0"/>
<circle cx="769.6" cy="102.3" r="4" fill="#3498db" stroke="white" opacity="1.0"/>
<circle cx="795.4" cy="119.5" r="4" fill="#3498db" stroke="white" opacity="1.0"/>
<circle cx="821.4" cy="132.4" r="4" fill="#3498db" stroke="white" opacity="1.0"/>
<circle cx="847.2" cy="128.1" r="4" fill="#3498db" stroke="white" opacity="1.0"/>
<circle cx="872.8" cy="115.2" r="4" fill="#3498db" stroke="white" opacity="1.0"/>
<circle cx="898.6" cy="121.6" r="4" fill="#3498db" stroke="white" opacity="1.0"/>
<circle cx="924.5" cy="119.5" r="4" fill="#3498db" stroke="white" opacity="1.0"/>
<circle cx="950.2" cy="110.9" r="4" fill="#3498db" stroke="white" opacity="1.0"/>
<circle cx="976.1" cy="98.0" r="4" fill="#3498db" stroke="white" opacity="1.0"/>
<circle cx="1001.9" cy="104.4" r="4" fill="#3498db" stroke="white" opacity="1.0"/>
<circle cx="1027.7" cy="93.7" r="4" fill="#3498db" stroke="white" opacity="1.0"/>
<circle cx="1053.5" cy="108.7" r="4" fill="#3498db" stroke="white" opacity="1.0"/>
</g>
<g class="series pmic-series" data-mode="PFM" data-chip="21988" data-temp="25" data-reg="DC2DC_DIG">
<path d="M 124.5,220.6 L 150.2,220.6 L 176.0,224.9 L 201.9,216.3 L 227.7,216.3 L 253.5,220.6 L 279.3,218.5 L 305.0,214.2 L 330.9,209.9 L 356.8,222.8 L 382.6,214.2 L 408.4,214.2 L 434.1,209.9 L 459.9,205.6 L 485.7,218.5 L 511.7,224.9 L 537.4,224.9 L 563.2,222.8 L 589.0,212.0 L 614.8,207.7 L 640.6,212.0 L 666.5,224.9 L 692.4,220.6 L 718.2,218.5 L 744.0,218.5 L 769.6,212.0 L 795.4,207.7 L 821.4,201.3 L 847.2,209.9 L 872.9,227.1 L 898.6,224.9 L 924.5,218.5 L 950.2,216.3 L 976.1,209.9 L 1001.9,205.6 L 1027.7,197.0 L 1053.5,201.3" fill="none" stroke="#e67e22" stroke-width="2.2" stroke-linejoin="round" opacity="0.9"/>
<circle cx="124.5" cy="220.6" r="4" fill="#e67e22" stroke="white" opacity="1.0"/>
<circle cx="150.2" cy="220.6" r="4" fill="#e67e22" stroke="white" opacity="1.0"/>
<circle cx="176.0" cy="224.9" r="4" fill="#e67e22" stroke="white" opacity="1.0"/>
<circle cx="201.9" cy="216.3" r="4" fill="#e67e22" stroke="white" opacity="1.0"/>
<circle cx="227.7" cy="216.3" r="4" fill="#e67e22" stroke="white" opacity="1.0"/>
<circle cx="253.5" cy="220.6" r="4" fill="#e67e22" stroke="white" opacity="1.0"/>
<circle cx="279.3" cy="218.5" r="4" fill="#e67e22" stroke="white" opacity="1.0"/>
<circle cx="305.0" cy="214.2" r="4" fill="#e67e22" stroke="white" opacity="1.0"/>
<circle cx="330.9" cy="209.9" r="4" fill="#e67e22" stroke="white" opacity="1.0"/>
<circle cx="356.8" cy="222.8" r="4" fill="#e67e22" stroke="white" opacity="1.0"/>
<circle cx="382.6" cy="214.2" r="4" fill="#e67e22" stroke="white" opacity="1.0"/>
<circle cx="408.4" cy="214.2" r="4" fill="#e67e22" stroke="white" opacity="1.0"/>
<circle cx="434.1" cy="209.9" r="4" fill="#e67e22" stroke="white" opacity="1.0"/>
<circle cx="459.9" cy="205.6" r="4" fill="#e67e22" stroke="white" opacity="1.0"/>
<circle cx="485.7" cy="218.5" r="4" fill="#e67e22" stroke="white" opacity="1.0"/>
<circle cx="511.7" cy="224.9" r="4" fill="#e67e22" stroke="white" opacity="1.0"/>
<circle cx="537.4" cy="224.9" r="4" fill="#e67e22" stroke="white" opacity="1.0"/>
<circle cx="563.2" cy="222.8" r="4" fill="#e67e22" stroke="white" opacity="1.0"/>
<circle cx="589.0" cy="212.0" r="4" fill="#e67e22" stroke="white" opacity="1.0"/>
<circle cx="614.8" cy="207.7" r="4" fill="#e67e22" stroke="white" opacity="1.0"/>
<circle cx="640.6" cy="212.0" r="4" fill="#e67e22" stroke="white" opacity="1.0"/>
<circle cx="666.5" cy="224.9" r="4" fill="#e67e22" stroke="white" opacity="1.0"/>
<circle cx="692.4" cy="220.6" r="4" fill="#e67e22" stroke="white" opacity="1.0"/>
<circle cx="718.2" cy="218.5" r="4" fill="#e67e22" stroke="white" opacity="1.0"/>
<circle cx="744.0" cy="218.5" r="4" fill="#e67e22" stroke="white" opacity="1.0"/>
<circle cx="769.6" cy="212.0" r="4" fill="#e67e22" stroke="white" opacity="1.0"/>
<circle cx="795.4" cy="207.7" r="4" fill="#e67e22" stroke="white" opacity="1.0"/>
<circle cx="821.4" cy="201.3" r="4" fill="#e67e22" stroke="white" opacity="1.0"/>
<circle cx="847.2" cy="209.9" r="4" fill="#e67e22" stroke="white" opacity="1.0"/>
<circle cx="872.9" cy="227.1" r="4" fill="#e67e22" stroke="white" opacity="1.0"/>
<circle cx="898.6" cy="224.9" r="4" fill="#e67e22" stroke="white" opacity="1.0"/>
<circle cx="924.5" cy="218.5" r="4" fill="#e67e22" stroke="white" opacity="1.0"/>
<circle cx="950.2" cy="216.3" r="4" fill="#e67e22" stroke="white" opacity="1.0"/>
<circle cx="976.1" cy="209.9" r="4" fill="#e67e22" stroke="white" opacity="1.0"/>
<circle cx="1001.9" cy="205.6" r="4" fill="#e67e22" stroke="white" opacity="1.0"/>
<circle cx="1027.7" cy="197.0" r="4" fill="#e67e22" stroke="white" opacity="1.0"/>
<circle cx="1053.5" cy="201.3" r="4" fill="#e67e22" stroke="white" opacity="1.0"/>
</g>
<g class="series pmic-series" data-mode="PFM" data-chip="21988" data-temp="80" data-reg="DC2DC_DIG">
<path d="M 124.5,153.9 L 150.2,147.5 L 176.0,143.2 L 201.9,156.1 L 227.7,151.8 L 253.5,147.5 L 279.3,145.3 L 305.1,151.8 L 330.9,156.1 L 356.8,151.8 L 382.6,141.0 L 408.4,141.0 L 434.1,158.2 L 459.9,162.5 L 485.6,151.8 L 511.7,149.6 L 537.4,132.4 L 563.2,132.4 L 589.0,136.7 L 614.8,158.2 L 640.6,164.7 L 666.5,153.9 L 692.4,149.6 L 718.2,138.9 L 743.9,143.2 L 769.6,132.4 L 795.4,141.0 L 821.4,158.2 L 847.2,160.4 L 872.8,156.1 L 898.6,149.6 L 924.4,147.5 L 950.2,143.2 L 976.1,134.5 L 1001.8,134.5 L 1027.7,128.1 L 1053.5,119.5" fill="none" stroke="#2ecc71" stroke-width="2.2" stroke-linejoin="round" opacity="0.9"/>
<circle cx="124.5" cy="153.9" r="4" fill="#2ecc71" stroke="white" opacity="1.0"/>
<circle cx="150.2" cy="147.5" r="4" fill="#2ecc71" stroke="white" opacity="1.0"/>
<circle cx="176.0" cy="143.2" r="4" fill="#2ecc71" stroke="white" opacity="1.0"/>
<circle cx="201.9" cy="156.1" r="4" fill="#2ecc71" stroke="white" opacity="1.0"/>
<circle cx="227.7" cy="151.8" r="4" fill="#2ecc71" stroke="white" opacity="1.0"/>
<circle cx="253.5" cy="147.5" r="4" fill="#2ecc71" stroke="white" opacity="1.0"/>
<circle cx="279.3" cy="145.3" r="4" fill="#2ecc71" stroke="white" opacity="1.0"/>
<circle cx="305.1" cy="151.8" r="4" fill="#2ecc71" stroke="white" opacity="1.0"/>
<circle cx="330.9" cy="156.1" r="4" fill="#2ecc71" stroke="white" opacity="1.0"/>
<circle cx="356.8" cy="151.8" r="4" fill="#2ecc71" stroke="white" opacity="1.0"/>
<circle cx="382.6" cy="141.0" r="4" fill="#2ecc71" stroke="white" opacity="1.0"/>
<circle cx="408.4" cy="141.0" r="4" fill="#2ecc71" stroke="white" opacity="1.0"/>
<circle cx="434.1" cy="158.2" r="4" fill="#2ecc71" stroke="white" opacity="1.0"/>
<circle cx="459.9" cy="162.5" r="4" fill="#2ecc71" stroke="white" opacity="1.0"/>
<circle cx="485.6" cy="151.8" r="4" fill="#2ecc71" stroke="white" opacity="1.0"/>
<circle cx="511.7" cy="149.6" r="4" fill="#2ecc71" stroke="white" opacity="1.0"/>
<circle cx="537.4" cy="132.4" r="4" fill="#2ecc71" stroke="white" opacity="1.0"/>
<circle cx="563.2" cy="132.4" r="4" fill="#2ecc71" stroke="white" opacity="1.0"/>
<circle cx="589.0" cy="136.7" r="4" fill="#2ecc71" stroke="white" opacity="1.0"/>
<circle cx="614.8" cy="158.2" r="4" fill="#2ecc71" stroke="white" opacity="1.0"/>
<circle cx="640.6" cy="164.7" r="4" fill="#2ecc71" stroke="white" opacity="1.0"/>
<circle cx="666.5" cy="153.9" r="4" fill="#2ecc71" stroke="white" opacity="1.0"/>
<circle cx="692.4" cy="149.6" r="4" fill="#2ecc71" stroke="white" opacity="1.0"/>
<circle cx="718.2" cy="138.9" r="4" fill="#2ecc71" stroke="white" opacity="1.0"/>
<circle cx="743.9" cy="143.2" r="4" fill="#2ecc71" stroke="white" opacity="1.0"/>
<circle cx="769.6" cy="132.4" r="4" fill="#2ecc71" stroke="white" opacity="1.0"/>
<circle cx="795.4" cy="141.0" r="4" fill="#2ecc71" stroke="white" opacity="1.0"/>
<circle cx="821.4" cy="158.2" r="4" fill="#2ecc71" stroke="white" opacity="1.0"/>
<circle cx="847.2" cy="160.4" r="4" fill="#2ecc71" stroke="white" opacity="1.0"/>
<circle cx="872.8" cy="156.1" r="4" fill="#2ecc71" stroke="white" opacity="1.0"/>
<circle cx="898.6" cy="149.6" r="4" fill="#2ecc71" stroke="white" opacity="1.0"/>
<circle cx="924.4" cy="147.5" r="4" fill="#2ecc71" stroke="white" opacity="1.0"/>
<circle cx="950.2" cy="143.2" r="4" fill="#2ecc71" stroke="white" opacity="1.0"/>
<circle cx="976.1" cy="134.5" r="4" fill="#2ecc71" stroke="white" opacity="1.0"/>
<circle cx="1001.8" cy="134.5" r="4" fill="#2ecc71" stroke="white" opacity="1.0"/>
<circle cx="1027.7" cy="128.1" r="4" fill="#2ecc71" stroke="white" opacity="1.0"/>
<circle cx="1053.5" cy="119.5" r="4" fill="#2ecc71" stroke="white" opacity="1.0"/>
</g>
<g class="series pmic-series" data-mode="PFM" data-chip="31927" data-temp="0" data-reg="DC2DC_DIG">
<path d="M 124.5,407.9 L 150.2,405.7 L 176.0,412.2 L 201.9,405.7 L 227.7,405.7 L 253.5,414.3 L 279.3,403.6 L 305.0,401.4 L 330.9,412.2 L 356.8,410.0 L 382.6,410.0 L 408.4,401.4 L 434.1,403.6 L 459.9,399.3 L 485.6,392.8 L 511.6,388.5 L 537.4,399.3 L 563.2,405.7 L 589.0,397.1 L 614.8,392.8 L 640.6,390.7 L 666.5,403.6 L 692.3,412.2 L 718.2,403.6 L 743.9,399.3 L 769.6,386.4 L 795.4,390.7 L 821.3,399.3 L 847.1,407.9 L 872.8,399.3 L 898.6,397.1 L 924.4,392.8 L 950.2,388.5 L 976.1,384.2 L 1001.9,379.9 L 1027.7,399.3 L 1053.5,407.9" fill="none" stroke="#9b59b6" stroke-width="2.2" stroke-linejoin="round" opacity="0.9"/>
<circle cx="124.5" cy="407.9" r="4" fill="#9b59b6" stroke="white" opacity="1.0"/>
<circle cx="150.2" cy="405.7" r="4" fill="#9b59b6" stroke="white" opacity="1.0"/>
<circle cx="176.0" cy="412.2" r="4" fill="#9b59b6" stroke="white" opacity="1.0"/>
<circle cx="201.9" cy="405.7" r="4" fill="#9b59b6" stroke="white" opacity="1.0"/>
<circle cx="227.7" cy="405.7" r="4" fill="#9b59b6" stroke="white" opacity="1.0"/>
<circle cx="253.5" cy="414.3" r="4" fill="#9b59b6" stroke="white" opacity="1.0"/>
<circle cx="279.3" cy="403.6" r="4" fill="#9b59b6" stroke="white" opacity="1.0"/>
<circle cx="305.0" cy="401.4" r="4" fill="#9b59b6" stroke="white" opacity="1.0"/>
<circle cx="330.9" cy="412.2" r="4" fill="#9b59b6" stroke="white" opacity="1.0"/>
<circle cx="356.8" cy="410.0" r="4" fill="#9b59b6" stroke="white" opacity="1.0"/>
<circle cx="382.6" cy="410.0" r="4" fill="#9b59b6" stroke="white" opacity="1.0"/>
<circle cx="408.4" cy="401.4" r="4" fill="#9b59b6" stroke="white" opacity="1.0"/>
<circle cx="434.1" cy="403.6" r="4" fill="#9b59b6" stroke="white" opacity="1.0"/>
<circle cx="459.9" cy="399.3" r="4" fill="#9b59b6" stroke="white" opacity="1.0"/>
<circle cx="485.6" cy="392.8" r="4" fill="#9b59b6" stroke="white" opacity="1.0"/>
<circle cx="511.6" cy="388.5" r="4" fill="#9b59b6" stroke="white" opacity="1.0"/>
<circle cx="537.4" cy="399.3" r="4" fill="#9b59b6" stroke="white" opacity="1.0"/>
<circle cx="563.2" cy="405.7" r="4" fill="#9b59b6" stroke="white" opacity="1.0"/>
<circle cx="589.0" cy="397.1" r="4" fill="#9b59b6" stroke="white" opacity="1.0"/>
<circle cx="614.8" cy="392.8" r="4" fill="#9b59b6" stroke="white" opacity="1.0"/>
<circle cx="640.6" cy="390.7" r="4" fill="#9b59b6" stroke="white" opacity="1.0"/>
<circle cx="666.5" cy="403.6" r="4" fill="#9b59b6" stroke="white" opacity="1.0"/>
<circle cx="692.3" cy="412.2" r="4" fill="#9b59b6" stroke="white" opacity="1.0"/>
<circle cx="718.2" cy="403.6" r="4" fill="#9b59b6" stroke="white" opacity="1.0"/>
<circle cx="743.9" cy="399.3" r="4" fill="#9b59b6" stroke="white" opacity="1.0"/>
<circle cx="769.6" cy="386.4" r="4" fill="#9b59b6" stroke="white" opacity="1.0"/>
<circle cx="795.4" cy="390.7" r="4" fill="#9b59b6" stroke="white" opacity="1.0"/>
<circle cx="821.3" cy="399.3" r="4" fill="#9b59b6" stroke="white" opacity="1.0"/>
<circle cx="847.1" cy="407.9" r="4" fill="#9b59b6" stroke="white" opacity="1.0"/>
<circle cx="872.8" cy="399.3" r="4" fill="#9b59b6" stroke="white" opacity="1.0"/>
<circle cx="898.6" cy="397.1" r="4" fill="#9b59b6" stroke="white" opacity="1.0"/>
<circle cx="924.4" cy="392.8" r="4" fill="#9b59b6" stroke="white" opacity="1.0"/>
<circle cx="950.2" cy="388.5" r="4" fill="#9b59b6" stroke="white" opacity="1.0"/>
<circle cx="976.1" cy="384.2" r="4" fill="#9b59b6" stroke="white" opacity="1.0"/>
<circle cx="1001.9" cy="379.9" r="4" fill="#9b59b6" stroke="white" opacity="1.0"/>
<circle cx="1027.7" cy="399.3" r="4" fill="#9b59b6" stroke="white" opacity="1.0"/>
<circle cx="1053.5" cy="407.9" r="4" fill="#9b59b6" stroke="white" opacity="1.0"/>
</g>
<g class="series pmic-series" data-mode="PFM" data-chip="31927" data-temp="25" data-reg="DC2DC_DIG">
<path d="M 124.5,373.5 L 150.2,371.3 L 176.0,371.3 L 201.9,358.4 L 227.7,360.5 L 253.5,367.0 L 279.3,358.4 L 305.0,358.4 L 330.9,367.0 L 356.8,354.1 L 382.6,349.8 L 408.4,358.4 L 434.1,362.7 L 459.9,351.9 L 485.7,354.1 L 511.7,358.4 L 537.4,362.7 L 563.2,356.2 L 589.0,354.1 L 614.8,347.6 L 640.6,364.8 L 666.5,364.8 L 692.4,358.4 L 718.2,351.9 L 743.9,339.0 L 769.6,349.8 L 795.4,362.7 L 821.3,360.5 L 847.2,351.9 L 872.8,345.5 L 898.6,341.2 L 924.4,336.9 L 950.2,360.5 L 976.1,358.4 L 1001.9,356.2 L 1027.7,349.8 L 1053.5,347.6" fill="none" stroke="#1abc9c" stroke-width="2.2" stroke-linejoin="round" opacity="0.9"/>
<circle cx="124.5" cy="373.5" r="4" fill="#1abc9c" stroke="white" opacity="1.0"/>
<circle cx="150.2" cy="371.3" r="4" fill="#1abc9c" stroke="white" opacity="1.0"/>
<circle cx="176.0" cy="371.3" r="4" fill="#1abc9c" stroke="white" opacity="1.0"/>
<circle cx="201.9" cy="358.4" r="4" fill="#1abc9c" stroke="white" opacity="1.0"/>
<circle cx="227.7" cy="360.5" r="4" fill="#1abc9c" stroke="white" opacity="1.0"/>
<circle cx="253.5" cy="367.0" r="4" fill="#1abc9c" stroke="white" opacity="1.0"/>
<circle cx="279.3" cy="358.4" r="4" fill="#1abc9c" stroke="white" opacity="1.0"/>
<circle cx="305.0" cy="358.4" r="4" fill="#1abc9c" stroke="white" opacity="1.0"/>
<circle cx="330.9" cy="367.0" r="4" fill="#1abc9c" stroke="white" opacity="1.0"/>
<circle cx="356.8" cy="354.1" r="4" fill="#1abc9c" stroke="white" opacity="1.0"/>
<circle cx="382.6" cy="349.8" r="4" fill="#1abc9c" stroke="white" opacity="1.0"/>
<circle cx="408.4" cy="358.4" r="4" fill="#1abc9c" stroke="white" opacity="1.0"/>
<circle cx="434.1" cy="362.7" r="4" fill="#1abc9c" stroke="white" opacity="1.0"/>
<circle cx="459.9" cy="351.9" r="4" fill="#1abc9c" stroke="white" opacity="1.0"/>
<circle cx="485.7" cy="354.1" r="4" fill="#1abc9c" stroke="white" opacity="1.0"/>
<circle cx="511.7" cy="358.4" r="4" fill="#1abc9c" stroke="white" opacity="1.0"/>
<circle cx="537.4" cy="362.7" r="4" fill="#1abc9c" stroke="white" opacity="1.0"/>
<circle cx="563.2" cy="356.2" r="4" fill="#1abc9c" stroke="white" opacity="1.0"/>
<circle cx="589.0" cy="354.1" r="4" fill="#1abc9c" stroke="white" opacity="1.0"/>
<circle cx="614.8" cy="347.6" r="4" fill="#1abc9c" stroke="white" opacity="1.0"/>
<circle cx="640.6" cy="364.8" r="4" fill="#1abc9c" stroke="white" opacity="1.0"/>
<circle cx="666.5" cy="364.8" r="4" fill="#1abc9c" stroke="white" opacity="1.0"/>
<circle cx="692.4" cy="358.4" r="4" fill="#1abc9c" stroke="white" opacity="1.0"/>
<circle cx="718.2" cy="351.9" r="4" fill="#1abc9c" stroke="white" opacity="1.0"/>
<circle cx="743.9" cy="339.0" r="4" fill="#1abc9c" stroke="white" opacity="1.0"/>
<circle cx="769.6" cy="349.8" r="4" fill="#1abc9c" stroke="white" opacity="1.0"/>
<circle cx="795.4" cy="362.7" r="4" fill="#1abc9c" stroke="white" opacity="1.0"/>
<circle cx="821.3" cy="360.5" r="4" fill="#1abc9c" stroke="white" opacity="1.0"/>
<circle cx="847.2" cy="351.9" r="4" fill="#1abc9c" stroke="white" opacity="1.0"/>
<circle cx="872.8" cy="345.5" r="4" fill="#1abc9c" stroke="white" opacity="1.0"/>
<circle cx="898.6" cy="341.2" r="4" fill="#1abc9c" stroke="white" opacity="1.0"/>
<circle cx="924.4" cy="336.9" r="4" fill="#1abc9c" stroke="white" opacity="1.0"/>
<circle cx="950.2" cy="360.5" r="4" fill="#1abc9c" stroke="white" opacity="1.0"/>
<circle cx="976.1" cy="358.4" r="4" fill="#1abc9c" stroke="white" opacity="1.0"/>
<circle cx="1001.9" cy="356.2" r="4" fill="#1abc9c" stroke="white" opacity="1.0"/>
<circle cx="1027.7" cy="349.8" r="4" fill="#1abc9c" stroke="white" opacity="1.0"/>
<circle cx="1053.5" cy="347.6" r="4" fill="#1abc9c" stroke="white" opacity="1.0"/>
</g>
<g class="series pmic-series" data-mode="PFM" data-chip="31927" data-temp="80" data-reg="DC2DC_DIG">
<path d="M 124.5,308.9 L 150.3,300.3 L 176.0,300.3 L 201.9,304.6 L 227.7,306.7 L 253.5,302.4 L 279.3,289.5 L 305.0,304.6 L 330.9,302.4 L 356.8,287.4 L 382.6,289.5 L 408.4,302.4 L 434.1,291.7 L 459.9,293.8 L 485.7,283.1 L 511.7,300.3 L 537.4,304.6 L 563.2,300.3 L 589.0,293.8 L 614.8,296.0 L 640.6,308.9 L 666.5,298.1 L 692.4,296.0 L 718.2,289.5 L 743.9,280.9 L 769.6,298.1 L 795.4,302.4 L 821.4,300.3 L 847.2,289.5 L 872.9,285.2 L 898.6,278.8 L 924.4,278.8 L 950.2,296.0 L 976.1,304.6 L 1001.9,298.1 L 1027.7,293.8 L 1053.5,283.1" fill="none" stroke="#e74c3c" stroke-width="2.2" stroke-linejoin="round" opacity="0.9"/>
<circle cx="124.5" cy="308.9" r="4" fill="#e74c3c" stroke="white" opacity="1.0"/>
<circle cx="150.3" cy="300.3" r="4" fill="#e74c3c" stroke="white" opacity="1.0"/>
<circle cx="176.0" cy="300.3" r="4" fill="#e74c3c" stroke="white" opacity="1.0"/>
<circle cx="201.9" cy="304.6" r="4" fill="#e74c3c" stroke="white" opacity="1.0"/>
<circle cx="227.7" cy="306.7" r="4" fill="#e74c3c" stroke="white" opacity="1.0"/>
<circle cx="253.5" cy="302.4" r="4" fill="#e74c3c" stroke="white" opacity="1.0"/>
<circle cx="279.3" cy="289.5" r="4" fill="#e74c3c" stroke="white" opacity="1.0"/>
<circle cx="305.0" cy="304.6" r="4" fill="#e74c3c" stroke="white" opacity="1.0"/>
<circle cx="330.9" cy="302.4" r="4" fill="#e74c3c" stroke="white" opacity="1.0"/>
<circle cx="356.8" cy="287.4" r="4" fill="#e74c3c" stroke="white" opacity="1.0"/>
<circle cx="382.6" cy="289.5" r="4" fill="#e74c3c" stroke="white" opacity="1.0"/>
<circle cx="408.4" cy="302.4" r="4" fill="#e74c3c" stroke="white" opacity="1.0"/>
<circle cx="434.1" cy="291.7" r="4" fill="#e74c3c" stroke="white" opacity="1.0"/>
<circle cx="459.9" cy="293.8" r="4" fill="#e74c3c" stroke="white" opacity="1.0"/>
<circle cx="485.7" cy="283.1" r="4" fill="#e74c3c" stroke="white" opacity="1.0"/>
<circle cx="511.7" cy="300.3" r="4" fill="#e74c3c" stroke="white" opacity="1.0"/>
<circle cx="537.4" cy="304.6" r="4" fill="#e74c3c" stroke="white" opacity="1.0"/>
<circle cx="563.2" cy="300.3" r="4" fill="#e74c3c" stroke="white" opacity="1.0"/>
<circle cx="589.0" cy="293.8" r="4" fill="#e74c3c" stroke="white" opacity="1.0"/>
<circle cx="614.8" cy="296.0" r="4" fill="#e74c3c" stroke="white" opacity="1.0"/>
<circle cx="640.6" cy="308.9" r="4" fill="#e74c3c" stroke="white" opacity="1.0"/>
<circle cx="666.5" cy="298.1" r="4" fill="#e74c3c" stroke="white" opacity="1.0"/>
<circle cx="692.4" cy="296.0" r="4" fill="#e74c3c" stroke="white" opacity="1.0"/>
<circle cx="718.2" cy="289.5" r="4" fill="#e74c3c" stroke="white" opacity="1.0"/>
<circle cx="743.9" cy="280.9" r="4" fill="#e74c3c" stroke="white" opacity="1.0"/>
<circle cx="769.6" cy="298.1" r="4" fill="#e74c3c" stroke="white" opacity="1.0"/>
<circle cx="795.4" cy="302.4" r="4" fill="#e74c3c" stroke="white" opacity="1.0"/>
<circle cx="821.4" cy="300.3" r="4" fill="#e74c3c" stroke="white" opacity="1.0"/>
<circle cx="847.2" cy="289.5" r="4" fill="#e74c3c" stroke="white" opacity="1.0"/>
<circle cx="872.9" cy="285.2" r="4" fill="#e74c3c" stroke="white" opacity="1.0"/>
<circle cx="898.6" cy="278.8" r="4" fill="#e74c3c" stroke="white" opacity="1.0"/>
<circle cx="924.4" cy="278.8" r="4" fill="#e74c3c" stroke="white" opacity="1.0"/>
<circle cx="950.2" cy="296.0" r="4" fill="#e74c3c" stroke="white" opacity="1.0"/>
<circle cx="976.1" cy="304.6" r="4" fill="#e74c3c" stroke="white" opacity="1.0"/>
<circle cx="1001.9" cy="298.1" r="4" fill="#e74c3c" stroke="white" opacity="1.0"/>
<circle cx="1027.7" cy="293.8" r="4" fill="#e74c3c" stroke="white" opacity="1.0"/>
<circle cx="1053.5" cy="283.1" r="4" fill="#e74c3c" stroke="white" opacity="1.0"/>
</g>
<g class="legend-item" data-mode="PFM" data-chip="21988" data-temp="0" data-reg="DC2DC_DIG">
<rect x="1116.0" y="69.0" width="22.0" height="4.0" fill="#3498db" stroke="none" stroke-width="1" opacity="1.0" rx="2"/>
<circle cx="1127.0" cy="71.0" r="4" fill="#3498db" stroke="none" opacity="1.0"/>
<text x="1144.0" y="76.0" font-size="9" font-weight="normal" text-anchor="start" fill="#333" font-family="Arial,sans-serif">Chip 21988 | T=0°C</text>
</g>
<g class="legend-item" data-mode="PFM" data-chip="21988" data-temp="25" data-reg="DC2DC_DIG">
<rect x="1116.0" y="86.0" width="22.0" height="4.0" fill="#e67e22" stroke="none" stroke-width="1" opacity="1.0" rx="2"/>
<circle cx="1127.0" cy="88.0" r="4" fill="#e67e22" stroke="none" opacity="1.0"/>
<text x="1144.0" y="93.0" font-size="9" font-weight="normal" text-anchor="start" fill="#333" font-family="Arial,sans-serif">Chip 21988 | T=25°C</text>
</g>
<g class="legend-item" data-mode="PFM" data-chip="21988" data-temp="80" data-reg="DC2DC_DIG">
<rect x="1116.0" y="103.0" width="22.0" height="4.0" fill="#2ecc71" stroke="none" stroke-width="1" opacity="1.0" rx="2"/>
<circle cx="1127.0" cy="105.0" r="4" fill="#2ecc71" stroke="none" opacity="1.0"/>
<text x="1144.0" y="110.0" font-size="9" font-weight="normal" text-anchor="start" fill="#333" font-family="Arial,sans-serif">Chip 21988 | T=80°C</text>
</g>
<g class="legend-item" data-mode="PFM" data-chip="31927" data-temp="0" data-reg="DC2DC_DIG">
<rect x="1116.0" y="120.0" width="22.0" height="4.0" fill="#9b59b6" stroke="none" stroke-width="1" opacity="1.0" rx="2"/>
<circle cx="1127.0" cy="122.0" r="4" fill="#9b59b6" stroke="none" opacity="1.0"/>
<text x="1144.0" y="127.0" font-size="9" font-weight="normal" text-anchor="start" fill="#333" font-family="Arial,sans-serif">Chip 31927 | T=0°C</text>
</g>
<g class="legend-item" data-mode="PFM" data-chip="31927" data-temp="25" data-reg="DC2DC_DIG">
<rect x="1116.0" y="137.0" width="22.0" height="4.0" fill="#1abc9c" stroke="none" stroke-width="1" opacity="1.0" rx="2"/>
<circle cx="1127.0" cy="139.0" r="4" fill="#1abc9c" stroke="none" opacity="1.0"/>
<text x="1144.0" y="144.0" font-size="9" font-weight="normal" text-anchor="start" fill="#333" font-family="Arial,sans-serif">Chip 31927 | T=25°C</text>
</g>
<g class="legend-item" data-mode="PFM" data-chip="31927" data-temp="80" data-reg="DC2DC_DIG">
<rect x="1116.0" y="154.0" width="22.0" height="4.0" fill="#e74c3c" stroke="none" stroke-width="1" opacity="1.0" rx="2"/>
<circle cx="1127.0" cy="156.0" r="4" fill="#e74c3c" stroke="none" opacity="1.0"/>
<text x="1144.0" y="161.0" font-size="9" font-weight="normal" text-anchor="start" fill="#333" font-family="Arial,sans-serif">Chip 31927 | T=80°C</text>
</g>
<rect class="cursor-overlay" x="78.0" y="68.0" width="1022.0" height="372.0" fill="transparent" style="cursor:default" data-xmin="2.446395" data-xmax="3.634505" data-ymin="0.704708" data-ymax="0.721992" data-pl="78.0" data-pr="1100.0" data-pt="68.0" data-pb="440.0"/>
<g class="cursor-layer" style="pointer-events:none;display:none"><line class="cur-v" x1="0" y1="68.0" x2="0" y2="440.0" stroke="#e74c3c" stroke-width="1.2" stroke-dasharray="5,3"/><line class="cur-h" x1="78.0" y1="0" x2="1100.0" y2="0" stroke="#e74c3c" stroke-width="1.2" stroke-dasharray="5,3"/><rect class="cur-tip-bg" x="0" y="0" width="148" height="44" rx="5" fill="#1a252f" stroke="#34495e" stroke-width="1" opacity="0.92"/><text class="cur-tip-x" x="0" y="0" font-size="11" font-family="Arial,sans-serif" fill="#ecf0f1"/><text class="cur-tip-y" x="0" y="0" font-size="11" font-family="Arial,sans-serif" fill="#2ecc71"/></g>
</svg>