<svg xmlns="http://www.w3.org/2000/svg" width="1400" height="520" viewBox="0 0 1400 520">
<rect width="1400" height="520" fill="#ffffff"/>
<text x="700.0" y="28.0" font-size="16" font-weight="bold" text-anchor="middle" fill="#2c3e50" font-family="Arial,sans-serif">Static Line Regulation — Analog DC2DC  Vout=1V  [AUTO_PFM]  Iload=100µA</text>
<line x1="78.0" y1="68.0" x2="78.0" y2="440.0" stroke="#999" stroke-width="1"/>
<line x1="73.0" y1="440.0" x2="78.0" y2="440.0" stroke="#999" stroke-width="1"/>
<line x1="78.0" y1="440.0" x2="1100.0" y2="440.0" stroke="#e8e8e8" stroke-width="0.7" stroke-dasharray="4,3"/>
<text x="70.0" y="444.0" font-size="9" font-weight="normal" text-anchor="end" fill="#888" font-family="Arial,sans-serif">1.01</text>
<line x1="73.0" y1="365.6" x2="78.0" y2="365.6" stroke="#999" stroke-width="1"/>
<line x1="78.0" y1="365.6" x2="1100.0" y2="365.6" stroke="#e8e8e8" stroke-width="0.7" stroke-dasharray="4,3"/>
<text x="70.0" y="369.6" font-size="9" font-weight="normal" text-anchor="end" fill="#888" font-family="Arial,sans-serif">1.01</text>
<line x1="73.0" y1="291.2" x2="78.0" y2="291.2" stroke="#999" stroke-width="1"/>
<line x1="78.0" y1="291.2" x2="1100.0" y2="291.2" stroke="#e8e8e8" stroke-width="0.7" stroke-dasharray="4,3"/>
<text x="70.0" y="295.2" font-size="9" font-weight="normal" text-anchor="end" fill="#888" font-family="Arial,sans-serif">1.02</text>
<line x1="73.0" y1="216.8" x2="78.0" y2="216.8" stroke="#999" stroke-width="1"/>
<line x1="78.0" y1="216.8" x2="1100.0" y2="216.8" stroke="#e8e8e8" stroke-width="0.7" stroke-dasharray="4,3"/>
<text x="70.0" y="220.8" font-size="9" font-weight="normal" text-anchor="end" fill="#888" font-family="Arial,sans-serif">1.02</text>
<line x1="73.0" y1="142.4" x2="78.0" y2="142.4" stroke="#999" stroke-width="1"/>
<line x1="78.0" y1="142.4" x2="1100.0" y2="142.4" stroke="#e8e8e8" stroke-width="0.7" stroke-dasharray="4,3"/>
<text x="70.0" y="146.4" font-size="9" font-weight="normal" text-anchor="end" fill="#888" font-family="Arial,sans-serif">1.03</text>
<line x1="73.0" y1="68.0" x2="78.0" y2="68.0" stroke="#999" stroke-width="1"/>
<line x1="78.0" y1="68.0" x2="1100.0" y2="68.0" stroke="#e8e8e8" stroke-width="0.7" stroke-dasharray="4,3"/>
<text x="70.0" y="72.0" font-size="9" font-weight="normal" text-anchor="end" fill="#888" font-family="Arial,sans-serif">1.04</text>
<line x1="78.0" y1="440.0" x2="1100.0" y2="440.0" stroke="#999" stroke-width="1"/>
<line x1="78.0" y1="440.0" x2="78.0" y2="445.0" stroke="#999" stroke-width="1"/>
<line x1="78.0" y1="68.0" x2="78.0" y2="440.0" stroke="#e8e8e8" stroke-width="0.7" stroke-dasharray="4,3"/>
<text x="78.0" y="456.0" font-size="9" font-weight="normal" text-anchor="middle" fill="#888" font-family="Arial,sans-serif">2.45</text>
<line x1="224.0" y1="440.0" x2="224.0" y2="445.0" stroke="#999" stroke-width="1"/>
<line x1="224.0" y1="68.0" x2="224.0" y2="440.0" stroke="#e8e8e8" stroke-width="0.7" stroke-dasharray="4,3"/>
<text x="224.0" y="456.0" font-size="9" font-weight="normal" text-anchor="middle" fill="#888" font-family="Arial,sans-serif">2.62</text>
<line x1="370.0" y1="440.0" x2="370.0" y2="445.0" stroke="#999" stroke-width="1"/>
<line x1="370.0" y1="68.0" x2="370.0" y2="440.0" stroke="#e8e8e8" stroke-width="0.7" stroke-dasharray="4,3"/>
<text x="370.0" y="456.0" font-size="9" font-weight="normal" text-anchor="middle" fill="#888" font-family="Arial,sans-serif">2.79</text>
<line x1="516.0" y1="440.0" x2="516.0" y2="445.0" stroke="#999" stroke-width="1"/>
<line x1="516.0" y1="68.0" x2="516.0" y2="440.0" stroke="#e8e8e8" stroke-width="0.7" stroke-dasharray="4,3"/>
<text x="516.0" y="456.0" font-size="9" font-weight="normal" text-anchor="middle" fill="#888" font-family="Arial,sans-serif">2.96</text>
<line x1="662.0" y1="440.0" x2="662.0" y2="445.0" stroke="#999" stroke-width="1"/>
<line x1="662.0" y1="68.0" x2="662.0" y2="440.0" stroke="#e8e8e8" stroke-width="0.7" stroke-dasharray="4,3"/>
<text x="662.0" y="456.0" font-size="9" font-weight="normal" text-anchor="middle" fill="#888" font-family="Arial,sans-serif">3.13</text>
<line x1="808.0" y1="440.0" x2="808.0" y2="445.0" stroke="#999" stroke-width="1"/>
<line x1="808.0" y1="68.0" x2="808.0" y2="440.0" stroke="#e8e8e8" stroke-width="0.7" stroke-dasharray="4,3"/>
<text x="808.0" y="456.0" font-size="9" font-weight="normal" text-anchor="middle" fill="#888" font-family="Arial,sans-serif">3.3</text>
<line x1="954.0" y1="440.0" x2="954.0" y2="445.0" stroke="#999" stroke-width="1"/>
<line x1="954.0" y1="68.0" x2="954.0" y2="440.0" stroke="#e8e8e8" stroke-width="0.7" stroke-dasharray="4,3"/>
<text x="954.0" y="456.0" font-size="9" font-weight="normal" text-anchor="middle" fill="#888" font-family="Arial,sans-serif">3.46</text>
<line x1="1100.0" y1="440.0" x2="1100.0" y2="445.0" stroke="#999" stroke-width="1"/>
<line x1="1100.0" y1="68.0" x2="1100.0" y2="440.0" stroke="#e8e8e8" stroke-width="0.7" stroke-dasharray="4,3"/>
<text x="1100.0" y="456.0" font-size="9" font-weight="normal" text-anchor="middle" fill="#888" font-family="Arial,sans-serif">3.63</text>
<text x="16.0" y="254.0" font-size="11" font-weight="normal" text-anchor="middle" fill="#555" font-family="Arial,sans-serif" transform="rotate(-90,16,254.0)">Output Voltage  Vout [V]</text>
<text x="589.0" y="510.0" font-size="11" font-weight="normal" text-anchor="middle" fill="#555" font-family="Arial,sans-serif">Input Voltage  Vin [V]</text>
<g class="series pmic-series" data-mode="AUTO_PFM" data-chip="21988" data-temp="0" data-reg="DC2DC_ANA">
<path d="M 124.5,156.5 L 150.3,145.2 L 176.1,145.2 L 202.0,157.8 L 227.8,151.5 L 253.6,152.8 L 279.4,142.7 L 305.1,155.3 L 331.0,152.8 L 356.8,152.8 L 382.7,142.7 L 408.5,147.7 L 434.2,150.2 L 460.0,155.3 L 485.8,150.2 L 511.7,146.5 L 537.5,144.0 L 563.3,137.7 L 589.1,145.2 L 614.8,161.6 L 640.6,152.8 L 666.6,151.5 L 692.4,146.5 L 718.2,149.0 L 743.9,138.9 L 769.6,136.4 L 795.4,138.9 L 821.4,150.2 L 847.2,156.5 L 872.9,154.0 L 898.6,145.2 L 924.5,146.5 L 950.2,144.0 L 976.1,140.2 L 1001.9,136.4 L 1027.7,133.9 L 1053.5,128.9" fill="none" stroke="#3498db" stroke-width="2.2" stroke-linejoin="round" opacity="0.9"/>
<circle cx="124.5" cy="156.5" r="4" fill="#3498db" stroke="white" opacity="1.0"/>
<circle cx="150.3" cy="145.2" r="4" fill="#3498db" stroke="white" opacity="1.0"/>
<circle cx="176.1" cy="145.2" r="4" fill="#3498db" stroke="white" opacity="1.0"/>
<circle cx="202.0" cy="157.8" r="4" fill="#3498db" stroke="white" opacity="1.0"/>
<circle cx="227.8" cy="151.5" r="4" fill="#3498db" stroke="white" opacity="1.0"/>
<circle cx="253.6" cy="152.8" r="4" fill="#3498db" stroke="white" opacity="1.0"/>
<circle cx="279.4" cy="142.7" r="4" fill="#3498db" stroke="white" opacity="1.0"/>
<circle cx="305.1" cy="155.3" r="4" fill="#3498db" stroke="white" opacity="1.0"/>
<circle cx="331.0" cy="152.8" r="4" fill="#3498db" stroke="white" opacity="1.0"/>
<circle cx="356.8" cy="152.8" r="4" fill="#3498db" stroke="white" opacity="1.0"/>
<circle cx="382.7" cy="142.7" r="4" fill="#3498db" stroke="white" opacity="1.0"/>
<circle cx="408.5" cy="147.7" r="4" fill="#3498db" stroke="white" opacity="1.0"/>
<circle cx="434.2" cy="150.2" r="4" fill="#3498db" stroke="white" opacity="1.0"/>
<circle cx="460.0" cy="155.3" r="4" fill="#3498db" stroke="white" opacity="1.0"/>
<circle cx="485.8" cy="150.2" r="4" fill="#3498db" stroke="white" opacity="1.0"/>
<circle cx="511.7" cy="146.5" r="4" fill="#3498db" stroke="white" opacity="1.0"/>
<circle cx="537.5" cy="144.0" r="4" fill="#3498db" stroke="white" opacity="1.0"/>
<circle cx="563.3" cy="137.7" r="4" fill="#3498db" stroke="white" opacity="1.0"/>
<circle cx="589.1" cy="145.2" r="4" fill="#3498db" stroke="white" opacity="1.0"/>
<circle cx="614.8" cy="161.6" r="4" fill="#3498db" stroke="white" opacity="1.0"/>
<circle cx="640.6" cy="152.8" r="4" fill="#3498db" stroke="white" opacity="1.0"/>
<circle cx="666.6" cy="151.5" r="4" fill="#3498db" stroke="white" opacity="1.0"/>
<circle cx="692.4" cy="146.5" r="4" fill="#3498db" stroke="white" opacity="1.0"/>
<circle cx="718.2" cy="149.0" r="4" fill="#3498db" stroke="white" opacity="1.0"/>
<circle cx="743.9" cy="138.9" r="4" fill="#3498db" stroke="white" opacity="1.0"/>
<circle cx="769.6" cy="136.4" r="4" fill="#3498db" stroke="white" opacity="1.0"/>
<circle cx="795.4" cy="138.9" r="4" fill="#3498db" stroke="white" opacity="1.0"/>
<circle cx="821.4" cy="150.2" r="4" fill="#3498db" stroke="white" opacity="1.0"/>
<circle cx="847.2" cy="156.5" r="4" fill="#3498db" stroke="white" opacity="1.0"/>
<circle cx="872.9" cy="154.0" r="4" fill="#3498db" stroke="white" opacity="1.0"/>
<circle cx="898.6" cy="145.2" r="4" fill="#3498db" stroke="white" opacity="1.0"/>
<circle cx="924.5" cy="146.5" r="4" fill="#3498db" stroke="white" opacity="1.0"/>
<circle cx="950.2" cy="144.0" r="4" fill="#3498db" stroke="white" opacity="1.0"/>
<circle cx="976.1" cy="140.2" r="4" fill="#3498db" stroke="white" opacity="1.0"/>
<circle cx="1001.9" cy="136.4" r="4" fill="#3498db" stroke="white" opacity="1.0"/>
<circle cx="1027.7" cy="133.9" r="4" fill="#3498db" stroke="white" opacity="1.0"/>
<circle cx="1053.5" cy="128.9" r="4" fill="#3498db" stroke="white" opacity="1.0"/>
</g>
<g class="series pmic-series" data-mode="AUTO_PFM" data-chip="21988" data-temp="25" data-reg="DC2DC_ANA">
<path d="M 124.5,147.7 L 150.3,146.5 L 176.1,141.4 L 202.0,155.3 L 227.8,144.0 L 253.6,135.2 L 279.4,144.0 L 305.2,155.3 L 331.0,149.0 L 356.9,144.0 L 382.7,137.7 L 408.5,150.2 L 434.2,150.2 L 460.0,142.7 L 485.8,140.2 L 511.7,138.9 L 537.5,137.7 L 563.2,150.2 L 589.1,146.5 L 614.8,150.2 L 640.6,138.9 L 666.6,133.9 L 692.4,126.4 L 718.2,141.4 L 743.9,147.7 L 769.6,142.7 L 795.4,135.2 L 821.4,133.9 L 847.2,131.4 L 872.9,128.9 L 898.6,123.8 L 924.5,127.6 L 950.2,138.9 L 976.1,147.7 L 1001.9,145.2 L 1027.7,141.4 L 1053.5,135.2" fill="none" stroke="#e67e22" stroke-width="2.2" stroke-linejoin="round" opacity="0.9"/>
<circle cx="124.5" cy="147.7" r="4" fill="#e67e22" stroke="white" opacity="1.0"/>
<circle cx="150.3" cy="146.5" r="4" fill="#e67e22" stroke="white" opacity="1.0"/>
<circle cx="176.1" cy="141.4" r="4" fill="#e67e22" stroke="white" opacity="1.0"/>
<circle cx="202.0" cy="155.3" r="4" fill="#e67e22" stroke="white" opacity="1.0"/>
<circle cx="227.8" cy="144.0" r="4" fill="#e67e22" stroke="white" opacity="1.0"/>
<circle cx="253.6" cy="135.2" r="4" fill="#e67e22" stroke="white" opacity="1.0"/>
<circle cx="279.4" cy="144.0" r="4" fill="#e67e22" stroke="white" opacity="1.0"/>
<circle cx="305.2" cy="155.3" r="4" fill="#e67e22" stroke="white" opacity="1.0"/>
<circle cx="331.0" cy="149.0" r="4" fill="#e67e22" stroke="white" opacity="1.0"/>
<circle cx="356.9" cy="144.0" r="4" fill="#e67e22" stroke="white" opacity="1.0"/>
<circle cx="382.7" cy="137.7" r="4" fill="#e67e22" stroke="white" opacity="1.0"/>
<circle cx="408.5" cy="150.2" r="4" fill="#e67e22" stroke="white" opacity="1.0"/>
<circle cx="434.2" cy="150.2" r="4" fill="#e67e22" stroke="white" opacity="1.0"/>
<circle cx="460.0" cy="142.7" r="4" fill="#e67e22" stroke="white" opacity="1.0"/>
<circle cx="485.8" cy="140.2" r="4" fill="#e67e22" stroke="white" opacity="1.0"/>
<circle cx="511.7" cy="138.9" r="4" fill="#e67e22" stroke="white" opacity="1.0"/>
<circle cx="537.5" cy="137.7" r="4" fill="#e67e22" stroke="white" opacity="1.0"/>
<circle cx="563.2" cy="150.2" r="4" fill="#e67e22" stroke="white" opacity="1.0"/>
<circle cx="589.1" cy="146.5" r="4" fill="#e67e22" stroke="white" opacity="1.0"/>
<circle cx="614.8" cy="150.2" r="4" fill="#e67e22" stroke="white" opacity="1.0"/>
<circle cx="640.6" cy="138.9" r="4" fill="#e67e22" stroke="white" opacity="1.0"/>
<circle cx="666.6" cy="133.9" r="4" fill="#e67e22" stroke="white" opacity="1.0"/>
<circle cx="692.4" cy="126.4" r="4" fill="#e67e22" stroke="white" opacity="1.0"/>
<circle cx="718.2" cy="141.4" r="4" fill="#e67e22" stroke="white" opacity="1.0"/>
<circle cx="743.9" cy="147.7" r="4" fill="#e67e22" stroke="white" opacity="1.0"/>
<circle cx="769.6" cy="142.7" r="4" fill="#e67e22" stroke="white" opacity="1.0"/>
<circle cx="795.4" cy="135.2" r="4" fill="#e67e22" stroke="white" opacity="1.0"/>
<circle cx="821.4" cy="133.9" r="4" fill="#e67e22" stroke="white" opacity="1.0"/>
<circle cx="847.2" cy="131.4" r="4" fill="#e67e22" stroke="white" opacity="1.0"/>
<circle cx="872.9" cy="128.9" r="4" fill="#e67e22" stroke="white" opacity="1.0"/>
<circle cx="898.6" cy="123.8" r="4" fill="#e67e22" stroke="white" opacity="1.0"/>
<circle cx="924.5" cy="127.6" r="4" fill="#e67e22" stroke="white" opacity="1.0"/>
<circle cx="950.2" cy="138.9" r="4" fill="#e67e22" stroke="white" opacity="1.0"/>
<circle cx="976.1" cy="147.7" r="4" fill="#e67e22" stroke="white" opacity="1.0"/>
<circle cx="1001.9" cy="145.2" r="4" fill="#e67e22" stroke="white" opacity="1.0"/>
<circle cx="1027.7" cy="141.4" r="4" fill="#e67e22" stroke="white" opacity="1.0"/>
<circle cx="1053.5" cy="135.2" r="4" fill="#e67e22" stroke="white" opacity="1.0"/>
</g>
<g class="series pmic-series" data-mode="AUTO_PFM" data-chip="21988" data-temp="80" data-reg="DC2DC_ANA">
<path d="M 124.5,110.0 L 150.3,111.3 L 176.1,117.5 L 202.0,112.5 L 227.8,111.3 L 253.6,115.0 L 279.4,118.8 L 305.1,117.5 L 331.0,106.2 L 356.9,102.5 L 382.7,112.5 L 408.5,115.0 L 434.2,110.0 L 460.0,108.7 L 485.8,99.9 L 511.7,111.3 L 537.5,120.1 L 563.2,112.5 L 589.1,108.7 L 614.8,106.2 L 640.6,102.5 L 666.5,98.7 L 692.4,108.7 L 718.2,121.3 L 743.9,110.0 L 769.6,110.0 L 795.4,99.9 L 821.4,101.2 L 847.2,94.9 L 872.8,94.9 L 898.6,93.7 L 924.5,106.2 L 950.2,117.5 L 976.1,112.5 L 1001.9,111.3 L 1027.7,108.7 L 1053.5,103.7" fill="none" stroke="#2ecc71" stroke-width="2.2" stroke-linejoin="round" opacity="0.9"/>
<circle cx="124.5" cy="110.0" r="4" fill="#2ecc71" stroke="white" opacity="1.0"/>
<circle cx="150.3" cy="111.3" r="4" fill="#2ecc71" stroke="white" opacity="1.0"/>
<circle cx="176.1" cy="117.5" r="4" fill="#2ecc71" stroke="white" opacity="1.0"/>
<circle cx="202.0" cy="112.5" r="4" fill="#2ecc71" stroke="white" opacity="1.0"/>
<circle cx="227.8" cy="111.3" r="4" fill="#2ecc71" stroke="white" opacity="1.0"/>
<circle cx="253.6" cy="115.0" r="4" fill="#2ecc71" stroke="white" opacity="1.0"/>
<circle cx="279.4" cy="118.8" r="4" fill="#2ecc71" stroke="white" opacity="1.0"/>
<circle cx="305.1" cy="117.5" r="4" fill="#2ecc71" stroke="white" opacity="1.0"/>
<circle cx="331.0" cy="106.2" r="4" fill="#2ecc71" stroke="white" opacity="1.0"/>
<circle cx="356.9" cy="102.5" r="4" fill="#2ecc71" stroke="white" opacity="1.0"/>
<circle cx="382.7" cy="112.5" r="4" fill="#2ecc71" stroke="white" opacity="1.0"/>
<circle cx="408.5" cy="115.0" r="4" fill="#2ecc71" stroke="white" opacity="1.0"/>
<circle cx="434.2" cy="110.0" r="4" fill="#2ecc71" stroke="white" opacity="1.0"/>
<circle cx="460.0" cy="108.7" r="4" fill="#2ecc71" stroke="white" opacity="1.0"/>
<circle cx="485.8" cy="99.9" r="4" fill="#2ecc71" stroke="white" opacity="1.0"/>
<circle cx="511.7" cy="111.3" r="4" fill="#2ecc71" stroke="white" opacity="1.0"/>
<circle cx="537.5" cy="120.1" r="4" fill="#2ecc71" stroke="white" opacity="1.0"/>
<circle cx="563.2" cy="112.5" r="4" fill="#2ecc71" stroke="white" opacity="1.0"/>
<circle cx="589.1" cy="108.7" r="4" fill="#2ecc71" stroke="white" opacity="1.0"/>
<circle cx="614.8" cy="106.2" r="4" fill="#2ecc71" stroke="white" opacity="1.0"/>
<circle cx="640.6" cy="102.5" r="4" fill="#2ecc71" stroke="white" opacity="1.0"/>
<circle cx="666.5" cy="98.7" r="4" fill="#2ecc71" stroke="white" opacity="1.0"/>
<circle cx="692.4" cy="108.7" r="4" fill="#2ecc71" stroke="white" opacity="1.0"/>
<circle cx="718.2" cy="121.3" r="4" fill="#2ecc71" stroke="white" opacity="1.0"/>
<circle cx="743.9" cy="110.0" r="4" fill="#2ecc71" stroke="white" opacity="1.0"/>
<circle cx="769.6" cy="110.0" r="4" fill="#2ecc71" stroke="white" opacity="1.0"/>
<circle cx="795.4" cy="99.9" r="4" fill="#2ecc71" stroke="white" opacity="1.0"/>
<circle cx="821.4" cy="101.2" r="4" fill="#2ecc71" stroke="white" opacity="1.0"/>
<circle cx="847.2" cy="94.9" r="4" fill="#2ecc71" stroke="white" opacity="1.0"/>
<circle cx="872.8" cy="94.9" r="4" fill="#2ecc71" stroke="white" opacity="1.0"/>
<circle cx="898.6" cy="93.7" r="4" fill="#2ecc71" stroke="white" opacity="1.0"/>
<circle cx="924.5" cy="106.2" r="4" fill="#2ecc71" stroke="white" opacity="1.0"/>
<circle cx="950.2" cy="117.5" r="4" fill="#2ecc71" stroke="white" opacity="1.0"/>
<circle cx="976.1" cy="112.5" r="4" fill="#2ecc71" stroke="white" opacity="1.0"/>
<circle cx="1001.9" cy="111.3" r="4" fill="#2ecc71" stroke="white" opacity="1.0"/>
<circle cx="1027.7" cy="108.7" r="4" fill="#2ecc71" stroke="white" opacity="1.0"/>
<circle cx="1053.5" cy="103.7" r="4" fill="#2ecc71" stroke="white" opacity="1.0"/>
</g>
<g class="series pmic-series" data-mode="AUTO_PFM" data-chip="31927" data-temp="0" data-reg="DC2DC_ANA">
<path d="M 124.5,179.2 L 150.3,185.5 L 176.1,182.9 L 202.0,179.2 L 227.8,186.7 L 253.6,175.4 L 279.4,175.4 L 305.1,164.1 L 331.0,171.6 L 356.9,171.6 L 382.7,184.2 L 408.5,180.4 L 434.2,170.4 L 460.0,169.1 L 485.8,166.6 L 511.7,175.4 L 537.5,180.4 L 563.3,180.4 L 589.1,174.1 L 614.8,176.7 L 640.6,171.6 L 666.5,166.6 L 692.4,162.8 L 718.2,167.9 L 743.9,175.4 L 769.6,179.2 L 795.4,177.9 L 821.3,175.4 L 847.2,177.9 L 872.8,166.6 L 898.6,167.9 L 924.4,165.3 L 950.2,165.3 L 976.1,155.3 L 1001.9,152.8 L 1027.7,165.3 L 1053.5,176.7" fill="none" stroke="#9b59b6" stroke-width="2.2" stroke-linejoin="round" opacity="0.9"/>
<circle cx="124.5" cy="179.2" r="4" fill="#9b59b6" stroke="white" opacity="1.0"/>
<circle cx="150.3" cy="185.5" r="4" fill="#9b59b6" stroke="white" opacity="1.0"/>
<circle cx="176.1" cy="182.9" r="4" fill="#9b59b6" stroke="white" opacity="1.0"/>
<circle cx="202.0" cy="179.2" r="4" fill="#9b59b6" stroke="white" opacity="1.0"/>
<circle cx="227.8" cy="186.7" r="4" fill="#9b59b6" stroke="white" opacity="1.0"/>
<circle cx="253.6" cy="175.4" r="4" fill="#9b59b6" stroke="white" opacity="1.0"/>
<circle cx="279.4" cy="175.4" r="4" fill="#9b59b6" stroke="white" opacity="1.0"/>
<circle cx="305.1" cy="164.1" r="4" fill="#9b59b6" stroke="white" opacity="1.0"/>
<circle cx="331.0" cy="171.6" r="4" fill="#9b59b6" stroke="white" opacity="1.0"/>
<circle cx="356.9" cy="171.6" r="4" fill="#9b59b6" stroke="white" opacity="1.0"/>
<circle cx="382.7" cy="184.2" r="4" fill="#9b59b6" stroke="white" opacity="1.0"/>
<circle cx="408.5" cy="180.4" r="4" fill="#9b59b6" stroke="white" opacity="1.0"/>
<circle cx="434.2" cy="170.4" r="4" fill="#9b59b6" stroke="white" opacity="1.0"/>
<circle cx="460.0" cy="169.1" r="4" fill="#9b59b6" stroke="white" opacity="1.0"/>
<circle cx="485.8" cy="166.6" r="4" fill="#9b59b6" stroke="white" opacity="1.0"/>
<circle cx="511.7" cy="175.4" r="4" fill="#9b59b6" stroke="white" opacity="1.0"/>
<circle cx="537.5" cy="180.4" r="4" fill="#9b59b6" stroke="white" opacity="1.0"/>
<circle cx="563.3" cy="180.4" r="4" fill="#9b59b6" stroke="white" opacity="1.0"/>
<circle cx="589.1" cy="174.1" r="4" fill="#9b59b6" stroke="white" opacity="1.0"/>
<circle cx="614.8" cy="176.7" r="4" fill="#9b59b6" stroke="white" opacity="1.0"/>
<circle cx="640.6" cy="171.6" r="4" fill="#9b59b6" stroke="white" opacity="1.0"/>
<circle cx="666.5" cy="166.6" r="4" fill="#9b59b6" stroke="white" opacity="1.0"/>
<circle cx="692.4" cy="162.8" r="4" fill="#9b59b6" stroke="white" opacity="1.0"/>
<circle cx="718.2" cy="167.9" r="4" fill="#9b59b6" stroke="white" opacity="1.0"/>
<circle cx="743.9" cy="175.4" r="4" fill="#9b59b6" stroke="white" opacity="1.0"/>
<circle cx="769.6" cy="179.2" r="4" fill="#9b59b6" stroke="white" opacity="1.0"/>
<circle cx="795.4" cy="177.9" r="4" fill="#9b59b6" stroke="white" opacity="1.0"/>
<circle cx="821.3" cy="175.4" r="4" fill="#9b59b6" stroke="white" opacity="1.0"/>
<circle cx="847.2" cy="177.9" r="4" fill="#9b59b6" stroke="white" opacity="1.0"/>
<circle cx="872.8" cy="166.6" r="4" fill="#9b59b6" stroke="white" opacity="1.0"/>
<circle cx="898.6" cy="167.9" r="4" fill="#9b59b6" stroke="white" opacity="1.0"/>
<circle cx="924.4" cy="165.3" r="4" fill="#9b59b6" stroke="white" opacity="1.0"/>
<circle cx="950.2" cy="165.3" r="4" fill="#9b59b6" stroke="white" opacity="1.0"/>
<circle cx="976.1" cy="155.3" r="4" fill="#9b59b6" stroke="white" opacity="1.0"/>
<circle cx="1001.9" cy="152.8" r="4" fill="#9b59b6" stroke="white" opacity="1.0"/>
<circle cx="1027.7" cy="165.3" r="4" fill="#9b59b6" stroke="white" opacity="1.0"/>
<circle cx="1053.5" cy="176.7" r="4" fill="#9b59b6" stroke="white" opacity="1.0"/>
</g>
<g class="series pmic-series" data-mode="AUTO_PFM" data-chip="31927" data-temp="25" data-reg="DC2DC_ANA">
<path d="M 124.5,354.0 L 150.3,356.5 L 176.1,347.7 L 202.0,346.4 L 227.8,352.7 L 253.6,352.7 L 279.4,342.7 L 305.1,345.2 L 330.9,361.5 L 356.8,357.8 L 382.7,352.7 L 408.5,350.2 L 434.2,346.4 L 459.9,347.7 L 485.8,354.0 L 511.7,348.9 L 537.5,346.4 L 563.2,343.9 L 589.0,341.4 L 614.8,342.7 L 640.6,348.9 L 666.5,357.8 L 692.3,356.5 L 718.1,352.7 L 743.9,343.9 L 769.6,343.9 L 795.4,340.1 L 821.3,337.6 L 847.1,335.1 L 872.8,342.7 L 898.6,360.3 L 924.4,351.5 L 950.2,348.9 L 976.1,342.7 L 1001.9,342.7 L 1027.7,343.9 L 1053.5,336.4" fill="none" stroke="#1abc9c" stroke-width="2.2" stroke-linejoin="round" opacity="0.9"/>
<circle cx="124.5" cy="354.0" r="4" fill="#1abc9c" stroke="white" opacity="1.0"/>
<circle cx="150.3" cy="356.5" r="4" fill="#1abc9c" stroke="white" opacity="1.0"/>
<circle cx="176.1" cy="347.7" r="4" fill="#1abc9c" stroke="white" opacity="1.0"/>
<circle cx="202.0" cy="346.4" r="4" fill="#1abc9c" stroke="white" opacity="1.0"/>
<circle cx="227.8" cy="352.7" r="4" fill="#1abc9c" stroke="white" opacity="1.0"/>
<circle cx="253.6" cy="352.7" r="4" fill="#1abc9c" stroke="white" opacity="1.0"/>
<circle cx="279.4" cy="342.7" r="4" fill="#1abc9c" stroke="white" opacity="1.0"/>
<circle cx="305.1" cy="345.2" r="4" fill="#1abc9c" stroke="white" opacity="1.0"/>
<circle cx="330.9" cy="361.5" r="4" fill="#1abc9c" stroke="white" opacity="1.0"/>
<circle cx="356.8" cy="357.8" r="4" fill="#1abc9c" stroke="white" opacity="1.0"/>
<circle cx="382.7" cy="352.7" r="4" fill="#1abc9c" stroke="white" opacity="1.0"/>
<circle cx="408.5" cy="350.2" r="4" fill="#1abc9c" stroke="white" opacity="1.0"/>
<circle cx="434.2" cy="346.4" r="4" fill="#1abc9c" stroke="white" opacity="1.0"/>
<circle cx="459.9" cy="347.7" r="4" fill="#1abc9c" stroke="white" opacity="1.0"/>
<circle cx="485.8" cy="354.0" r="4" fill="#1abc9c" stroke="white" opacity="1.0"/>
<circle cx="511.7" cy="348.9" r="4" fill="#1abc9c" stroke="white" opacity="1.0"/>
<circle cx="537.5" cy="346.4" r="4" fill="#1abc9c" stroke="white" opacity="1.0"/>
<circle cx="563.2" cy="343.9" r="4" fill="#1abc9c" stroke="white" opacity="1.0"/>
<circle cx="589.0" cy="341.4" r="4" fill="#1abc9c" stroke="white" opacity="1.0"/>
<circle cx="614.8" cy="342.7" r="4" fill="#1abc9c" stroke="white" opacity="1.0"/>
<circle cx="640.6" cy="348.9" r="4" fill="#1abc9c" stroke="white" opacity="1.0"/>
<circle cx="666.5" cy="357.8" r="4" fill="#1abc9c" stroke="white" opacity="1.0"/>
<circle cx="692.3" cy="356.5" r="4" fill="#1abc9c" stroke="white" opacity="1.0"/>
<circle cx="718.1" cy="352.7" r="4" fill="#1abc9c" stroke="white" opacity="1.0"/>
<circle cx="743.9" cy="343.9" r="4" fill="#1abc9c" stroke="white" opacity="1.0"/>
<circle cx="769.6" cy="343.9" r="4" fill="#1abc9c" stroke="white" opacity="1.0"/>
<circle cx="795.4" cy="340.1" r="4" fill="#1abc9c" stroke="white" opacity="1.0"/>
<circle cx="821.3" cy="337.6" r="4" fill="#1abc9c" stroke="white" opacity="1.0"/>
<circle cx="847.1" cy="335.1" r="4" fill="#1abc9c" stroke="white" opacity="1.0"/>
<circle cx="872.8" cy="342.7" r="4" fill="#1abc9c" stroke="white" opacity="1.0"/>
<circle cx="898.6" cy="360.3" r="4" fill="#1abc9c" stroke="white" opacity="1.0"/>
<circle cx="924.4" cy="351.5" r="4" fill="#1abc9c" stroke="white" opacity="1.0"/>
<circle cx="950.2" cy="348.9" r="4" fill="#1abc9c" stroke="white" opacity="1.0"/>
<circle cx="976.1" cy="342.7" r="4" fill="#1abc9c" stroke="white" opacity="1.0"/>
<circle cx="1001.9" cy="342.7" r="4" fill="#1abc9c" stroke="white" opacity="1.0"/>
<circle cx="1027.7" cy="343.9" r="4" fill="#1abc9c" stroke="white" opacity="1.0"/>
<circle cx="1053.5" cy="336.4" r="4" fill="#1abc9c" stroke="white" opacity="1.0"/>
</g>
<g class="series pmic-series" data-mode="AUTO_PFM" data-chip="31927" data-temp="80" data-reg="DC2DC_ANA">
<path d="M 124.5,405.5 L 150.3,410.6 L 176.1,403.0 L 202.0,400.5 L 227.8,409.3 L 253.6,404.3 L 279.4,399.3 L 305.1,399.3 L 330.9,401.8 L 356.8,410.6 L 382.7,405.5 L 408.5,406.8 L 434.2,404.3 L 460.0,400.5 L 485.8,406.8 L 511.7,405.5 L 537.5,410.6 L 563.3,401.8 L 589.1,399.3 L 614.8,399.3 L 640.6,396.7 L 666.5,411.8 L 692.4,406.8 L 718.2,409.3 L 743.9,409.3 L 769.7,400.5 L 795.4,398.0 L 821.3,391.7 L 847.1,390.5 L 872.9,399.3 L 898.6,414.3 L 924.4,410.6 L 950.2,406.8 L 976.1,403.0 L 1001.9,401.8 L 1027.7,398.0 L 1053.5,398.0" fill="none" stroke="#e74c3c" stroke-width="2.2" stroke-linejoin="round" opacity="0.9"/>
<circle cx="124.5" cy="405.5" r="4" fill="#e74c3c" stroke="white" opacity="1.0"/>
<circle cx="150.3" cy="410.6" r="4" fill="#e74c3c" stroke="white" opacity="1.0"/>
<circle cx="176.1" cy="403.0" r="4" fill="#e74c3c" stroke="white" opacity="1.0"/>
<circle cx="202.0" cy="400.5" r="4" fill="#e74c3c" stroke="white" opacity="1.0"/>
<circle cx="227.8" cy="409.3" r="4" fill="#e74c3c" stroke="white" opacity="1.0"/>
<circle cx="253.6" cy="404.3" r="4" fill="#e74c3c" stroke="white" opacity="1.0"/>
<circle cx="279.4" cy="399.3" r="4" fill="#e74c3c" stroke="white" opacity="1.0"/>
<circle cx="305.1" cy="399.3" r="4" fill="#e74c3c" stroke="white" opacity="1.0"/>
<circle cx="330.9" cy="401.8" r="4" fill="#e74c3c" stroke="white" opacity="1.0"/>
<circle cx="356.8" cy="410.6" r="4" fill="#e74c3c" stroke="white" opacity="1.0"/>
<circle cx="382.7" cy="405.5" r="4" fill="#e74c3c" stroke="white" opacity="1.0"/>
<circle cx="408.5" cy="406.8" r="4" fill="#e74c3c" stroke="white" opacity="1.0"/>
<circle cx="434.2" cy="404.3" r="4" fill="#e74c3c" stroke="white" opacity="1.0"/>
<circle cx="460.0" cy="400.5" r="4" fill="#e74c3c" stroke="white" opacity="1.0"/>
<circle cx="485.8" cy="406.8" r="4" fill="#e74c3c" stroke="white" opacity="1.0"/>
<circle cx="511.7" cy="405.5" r="4" fill="#e74c3c" stroke="white" opacity="1.0"/>
<circle cx="537.5" cy="410.6" r="4" fill="#e74c3c" stroke="white" opacity="1.0"/>
<circle cx="563.3" cy="401.8" r="4" fill="#e74c3c" stroke="white" opacity="1.0"/>
<circle cx="589.1" cy="399.3" r="4" fill="#e74c3c" stroke="white" opacity="1.0"/>
<circle cx="614.8" cy="399.3" r="4" fill="#e74c3c" stroke="white" opacity="1.0"/>
<circle cx="640.6" cy="396.7" r="4" fill="#e74c3c" stroke="white" opacity="1.0"/>
<circle cx="666.5" cy="411.8" r="4" fill="#e74c3c" stroke="white" opacity="1.0"/>
<circle cx="692.4" cy="406.8" r="4" fill="#e74c3c" stroke="white" opacity="1.0"/>
<circle cx="718.2" cy="409.3" r="4" fill="#e74c3c" stroke="white" opacity="1.0"/>
<circle cx="743.9" cy="409.3" r="4" fill="#e74c3c" stroke="white" opacity="1.0"/>
<circle cx="769.7" cy="400.5" r="4" fill="#e74c3c" stroke="white" opacity="1.0"/>
<circle cx="795.4" cy="398.0" r="4" fill="#e74c3c" stroke="white" opacity="1.0"/>
<circle cx="821.3" cy="391.7" r="4" fill="#e74c3c" stroke="white" opacity="1.0"/>
<circle cx="847.1" cy="390.5" r="4" fill="#e74c3c" stroke="white" opacity="1.0"/>
<circle cx="872.9" cy="399.3" r="4" fill="#e74c3c" stroke="white" opacity="1.0"/>
<circle cx="898.6" cy="414.3" r="4" fill="#e74c3c" stroke="white" opacity="1.0"/>
<circle cx="924.4" cy="410.6" r="4" fill="#e74c3c" stroke="white" opacity="1.0"/>
<circle cx="950.2" cy="406.8" r="4" fill="#e74c3c" stroke="white" opacity="1.0"/>
<circle cx="976.1" cy="403.0" r="4" fill="#e74c3c" stroke="white" opacity="1.0"/>
<circle cx="1001.9" cy="401.8" r="4" fill="#e74c3c" stroke="white" opacity="1.0"/>
<circle cx="1027.7" cy="398.0" r="4" fill="#e74c3c" stroke="white" opacity="1.0"/>
<circle cx="1053.5" cy="398.0" r="4" fill="#e74c3c" stroke="white" opacity="1.0"/>
</g>
<g class="legend-item" data-mode="AUTO_PFM" data-chip="21988" data-temp="0" data-reg="DC2DC_ANA">
<rect x="1116.0" y="69.0" width="22.0" height="4.0" fill="#3498db" stroke="none" stroke-width="1" opacity="1.0" rx="2"/>
<circle cx="1127.0" cy="71.0" r="4" fill="#3498db" stroke="none" opacity="1.0"/>
<text x="1144.0" y="76.0" font-size="9" font-weight="normal" text-anchor="start" fill="#333" font-family="Arial,sans-serif">Chip 21988 | T=0°C</text>
</g>
<g class="legend-item" data-mode="AUTO_PFM" data-chip="21988" data-temp="25" data-reg="DC2DC_ANA">
<rect x="1116.0" y="86.0" width="22.0" height="4.0" fill="#e67e22" stroke="none" stroke-width="1" opacity="1.0" rx="2"/>
<circle cx="1127.0" cy="88.0" r="4" fill="#e67e22" stroke="none" opacity="1.0"/>
<text x="1144.0" y="93.0" font-size="9" font-weight="normal" text-anchor="start" fill="#333" font-family="Arial,sans-serif">Chip 21988 | T=25°C</text>
</g>
<g class="legend-item" data-mode="AUTO_PFM" data-chip="21988" data-temp="80" data-reg="DC2DC_ANA">
<rect x="1116.0" y="103.0" width="22.0" height="4.0" fill="#2ecc71" stroke="none" stroke-width="1" opacity="1.0" rx="2"/>
<circle cx="1127.0" cy="105.0" r="4" fill="#2ecc71" stroke="none" opacity="1.0"/>
<text x="1144.0" y="110.0" font-size="9" font-weight="normal" text-anchor="start" fill="#333" font-family="Arial,sans-serif">Chip 21988 | T=80°C</text>
</g>
<g class="legend-item" data-mode="AUTO_PFM" data-chip="31927" data-temp="0" data-reg="DC2DC_ANA">
<rect x="1116.0" y="120.0" width="22.0" height="4.0" fill="#9b59b6" stroke="none" stroke-width="1" opacity="1.0" rx="2"/>
<circle cx="1127.0" cy="122.0" r="4" fill="#9b59b6" stroke="none" opacity="1.0"/>
<text x="1144.0" y="127.0" font-size="9" font-weight="normal" text-anchor="start" fill="#333" font-family="Arial,sans-serif">Chip 31927 | T=0°C</text>
</g>
<g class="legend-item" data-mode="AUTO_PFM" data-chip="31927" data-temp="25" data-reg="DC2DC_ANA">
<rect x="1116.0" y="137.0" width="22.0" height="4.0" fill="#1abc9c" stroke="none" stroke-width="1" opacity="1.0" rx="2"/>
<circle cx="1127.0" cy="139.0" r="4" fill="#1abc9c" stroke="none" opacity="1.0"/>
<text x="1144.0" y="144.0" font-size="9" font-weight="normal" text-anchor="start" fill="#333" font-family="Arial,sans-serif">Chip 31927 | T=25°C</text>
</g>
<g class="legend-item" data-mode="AUTO_PFM" data-chip="31927" data-temp="80" data-reg="DC2DC_ANA">
<rect x="1116.0" y="154.0" width="22.0" height="4.0" fill="#e74c3c" stroke="none" stroke-width="1" opacity="1.0" rx="2"/>
<circle cx="1127.0" cy="156.0" r="4" fill="#e74c3c" stroke="none" opacity="1.0"/>
<text x="1144.0" y="161.0" font-size="9" font-weight="normal" text-anchor="start" fill="#333" font-family="Arial,sans-serif">Chip 31927 | T=80°C</text>
</g>
<rect class="cursor-overlay" x="78.0" y="68.0" width="1022.0" height="372.0" fill="transparent" style="cursor:default" data-xmin="2.44629" data-xmax="3.63451" data-ymin="1.00576" data-ymax="1.03534" data-pl="78.0" data-pr="1100.0" data-pt="68.0" data-pb="440.0"/>
<g class="cursor-layer" style="pointer-events:none;display:none"><line class="cur-v" x1="0" y1="68.0" x2="0" y2="440.0" stroke="#e74c3c" stroke-width="1.2" stroke-dasharray="5,3"/><line class="cur-h" x1="78.0" y1="0" x2="1100.0" y2="0" stroke="#e74c3c" stroke-width="1.2" stroke-dasharray="5,3"/><rect class="cur-tip-bg" x="0" y="0" width="148" height="44" rx="5" fill="#1a252f" stroke="#34495e" stroke-width="1" opacity="0.92"/><text class="cur-tip-x" x="0" y="0" font-size="11" font-family="Arial,sans-serif" fill="#ecf0f1"/><text class="cur-tip-y" x="0" y="0" font-size="11" font-family="Arial,sans-serif" fill="#2ecc71"/></g>
</svg>