<svg xmlns="http://www.w3.org/2000/svg" width="1400" height="560" viewBox="0 0 1400 560">
<rect width="1400" height="560" fill="#ffffff"/>
<text x="700.0" y="28.0" font-size="16" font-weight="bold" text-anchor="middle" fill="#2c3e50" font-family="Arial,sans-serif">Transient — Analog DC2DC  Vout=1.2V  [PWM]  Load 25mA→800mA  — Undershoot</text>
<line x1="78.0" y1="68.0" x2="78.0" y2="480.0" stroke="#999" stroke-width="1"/>
<line x1="73.0" y1="480.0" x2="78.0" y2="480.0" stroke="#999" stroke-width="1"/>
<line x1="78.0" y1="480.0" x2="1100.0" y2="480.0" stroke="#e8e8e8" stroke-width="0.7" stroke-dasharray="4,3"/>
<text x="70.0" y="484.0" font-size="9" font-weight="normal" text-anchor="end" fill="#888" font-family="Arial,sans-serif">0</text>
<line x1="73.0" y1="471.4" x2="78.0" y2="471.4" stroke="#999" stroke-width="1"/>
<line x1="78.0" y1="471.4" x2="1100.0" y2="471.4" stroke="#e8e8e8" stroke-width="0.7" stroke-dasharray="4,3"/>
<text x="70.0" y="475.4" font-size="9" font-weight="normal" text-anchor="end" fill="#888" font-family="Arial,sans-serif">5</text>
<line x1="73.0" y1="462.9" x2="78.0" y2="462.9" stroke="#999" stroke-width="1"/>
<line x1="78.0" y1="462.9" x2="1100.0" y2="462.9" stroke="#e8e8e8" stroke-width="0.7" stroke-dasharray="4,3"/>
<text x="70.0" y="466.9" font-size="9" font-weight="normal" text-anchor="end" fill="#888" font-family="Arial,sans-serif">10</text>
<line x1="73.0" y1="454.3" x2="78.0" y2="454.3" stroke="#999" stroke-width="1"/>
<line x1="78.0" y1="454.3" x2="1100.0" y2="454.3" stroke="#e8e8e8" stroke-width="0.7" stroke-dasharray="4,3"/>
<text x="70.0" y="458.3" font-size="9" font-weight="normal" text-anchor="end" fill="#888" font-family="Arial,sans-serif">15</text>
<line x1="73.0" y1="445.7" x2="78.0" y2="445.7" stroke="#999" stroke-width="1"/>
<line x1="78.0" y1="445.7" x2="1100.0" y2="445.7" stroke="#e8e8e8" stroke-width="0.7" stroke-dasharray="4,3"/>
<text x="70.0" y="449.7" font-size="9" font-weight="normal" text-anchor="end" fill="#888" font-family="Arial,sans-serif">20</text>
<line x1="73.0" y1="437.1" x2="78.0" y2="437.1" stroke="#999" stroke-width="1"/>
<line x1="78.0" y1="437.1" x2="1100.0" y2="437.1" stroke="#e8e8e8" stroke-width="0.7" stroke-dasharray="4,3"/>
<text x="70.0" y="441.1" font-size="9" font-weight="normal" text-anchor="end" fill="#888" font-family="Arial,sans-serif">25</text>
<line x1="73.0" y1="428.6" x2="78.0" y2="428.6" stroke="#999" stroke-width="1"/>
<line x1="78.0" y1="428.6" x2="1100.0" y2="428.6" stroke="#e8e8e8" stroke-width="0.7" stroke-dasharray="4,3"/>
<text x="70.0" y="432.6" font-size="9" font-weight="normal" text-anchor="end" fill="#888" font-family="Arial,sans-serif">30</text>
<line x1="73.0" y1="420.0" x2="78.0" y2="420.0" stroke="#999" stroke-width="1"/>
<line x1="78.0" y1="420.0" x2="1100.0" y2="420.0" stroke="#e8e8e8" stroke-width="0.7" stroke-dasharray="4,3"/>
<text x="70.0" y="424.0" font-size="9" font-weight="normal" text-anchor="end" fill="#888" font-family="Arial,sans-serif">35</text>
<line x1="73.0" y1="411.4" x2="78.0" y2="411.4" stroke="#999" stroke-width="1"/>
<line x1="78.0" y1="411.4" x2="1100.0" y2="411.4" stroke="#e8e8e8" stroke-width="0.7" stroke-dasharray="4,3"/>
<text x="70.0" y="415.4" font-size="9" font-weight="normal" text-anchor="end" fill="#888" font-family="Arial,sans-serif">40</text>
<line x1="73.0" y1="402.8" x2="78.0" y2="402.8" stroke="#999" stroke-width="1"/>
<line x1="78.0" y1="402.8" x2="1100.0" y2="402.8" stroke="#e8e8e8" stroke-width="0.7" stroke-dasharray="4,3"/>
<text x="70.0" y="406.8" font-size="9" font-weight="normal" text-anchor="end" fill="#888" font-family="Arial,sans-serif">45</text>
<line x1="73.0" y1="394.3" x2="78.0" y2="394.3" stroke="#999" stroke-width="1"/>
<line x1="78.0" y1="394.3" x2="1100.0" y2="394.3" stroke="#e8e8e8" stroke-width="0.7" stroke-dasharray="4,3"/>
<text x="70.0" y="398.3" font-size="9" font-weight="normal" text-anchor="end" fill="#888" font-family="Arial,sans-serif">50</text>
<line x1="73.0" y1="385.7" x2="78.0" y2="385.7" stroke="#999" stroke-width="1"/>
<line x1="78.0" y1="385.7" x2="1100.0" y2="385.7" stroke="#e8e8e8" stroke-width="0.7" stroke-dasharray="4,3"/>
<text x="70.0" y="389.7" font-size="9" font-weight="normal" text-anchor="end" fill="#888" font-family="Arial,sans-serif">55</text>
<line x1="73.0" y1="377.1" x2="78.0" y2="377.1" stroke="#999" stroke-width="1"/>
<line x1="78.0" y1="377.1" x2="1100.0" y2="377.1" stroke="#e8e8e8" stroke-width="0.7" stroke-dasharray="4,3"/>
<text x="70.0" y="381.1" font-size="9" font-weight="normal" text-anchor="end" fill="#888" font-family="Arial,sans-serif">60</text>
<line x1="73.0" y1="368.5" x2="78.0" y2="368.5" stroke="#999" stroke-width="1"/>
<line x1="78.0" y1="368.5" x2="1100.0" y2="368.5" stroke="#e8e8e8" stroke-width="0.7" stroke-dasharray="4,3"/>
<text x="70.0" y="372.5" font-size="9" font-weight="normal" text-anchor="end" fill="#888" font-family="Arial,sans-serif">65</text>
<line x1="73.0" y1="360.0" x2="78.0" y2="360.0" stroke="#999" stroke-width="1"/>
<line x1="78.0" y1="360.0" x2="1100.0" y2="360.0" stroke="#e8e8e8" stroke-width="0.7" stroke-dasharray="4,3"/>
<text x="70.0" y="364.0" font-size="9" font-weight="normal" text-anchor="end" fill="#888" font-family="Arial,sans-serif">70</text>
<line x1="73.0" y1="351.4" x2="78.0" y2="351.4" stroke="#999" stroke-width="1"/>
<line x1="78.0" y1="351.4" x2="1100.0" y2="351.4" stroke="#e8e8e8" stroke-width="0.7" stroke-dasharray="4,3"/>
<text x="70.0" y="355.4" font-size="9" font-weight="normal" text-anchor="end" fill="#888" font-family="Arial,sans-serif">75</text>
<line x1="73.0" y1="342.8" x2="78.0" y2="342.8" stroke="#999" stroke-width="1"/>
<line x1="78.0" y1="342.8" x2="1100.0" y2="342.8" stroke="#e8e8e8" stroke-width="0.7" stroke-dasharray="4,3"/>
<text x="70.0" y="346.8" font-size="9" font-weight="normal" text-anchor="end" fill="#888" font-family="Arial,sans-serif">80</text>
<line x1="73.0" y1="334.2" x2="78.0" y2="334.2" stroke="#999" stroke-width="1"/>
<line x1="78.0" y1="334.2" x2="1100.0" y2="334.2" stroke="#e8e8e8" stroke-width="0.7" stroke-dasharray="4,3"/>
<text x="70.0" y="338.2" font-size="9" font-weight="normal" text-anchor="end" fill="#888" font-family="Arial,sans-serif">85</text>
<line x1="73.0" y1="325.7" x2="78.0" y2="325.7" stroke="#999" stroke-width="1"/>
<line x1="78.0" y1="325.7" x2="1100.0" y2="325.7" stroke="#e8e8e8" stroke-width="0.7" stroke-dasharray="4,3"/>
<text x="70.0" y="329.7" font-size="9" font-weight="normal" text-anchor="end" fill="#888" font-family="Arial,sans-serif">90</text>
<line x1="73.0" y1="317.1" x2="78.0" y2="317.1" stroke="#999" stroke-width="1"/>
<line x1="78.0" y1="317.1" x2="1100.0" y2="317.1" stroke="#e8e8e8" stroke-width="0.7" stroke-dasharray="4,3"/>
<text x="70.0" y="321.1" font-size="9" font-weight="normal" text-anchor="end" fill="#888" font-family="Arial,sans-serif">95</text>
<line x1="73.0" y1="308.5" x2="78.0" y2="308.5" stroke="#999" stroke-width="1"/>
<line x1="78.0" y1="308.5" x2="1100.0" y2="308.5" stroke="#e8e8e8" stroke-width="0.7" stroke-dasharray="4,3"/>
<text x="70.0" y="312.5" font-size="9" font-weight="normal" text-anchor="end" fill="#888" font-family="Arial,sans-serif">100</text>
<line x1="73.0" y1="299.9" x2="78.0" y2="299.9" stroke="#999" stroke-width="1"/>
<line x1="78.0" y1="299.9" x2="1100.0" y2="299.9" stroke="#e8e8e8" stroke-width="0.7" stroke-dasharray="4,3"/>
<text x="70.0" y="303.9" font-size="9" font-weight="normal" text-anchor="end" fill="#888" font-family="Arial,sans-serif">105</text>
<line x1="73.0" y1="291.4" x2="78.0" y2="291.4" stroke="#999" stroke-width="1"/>
<line x1="78.0" y1="291.4" x2="1100.0" y2="291.4" stroke="#e8e8e8" stroke-width="0.7" stroke-dasharray="4,3"/>
<text x="70.0" y="295.4" font-size="9" font-weight="normal" text-anchor="end" fill="#888" font-family="Arial,sans-serif">110</text>
<line x1="73.0" y1="282.8" x2="78.0" y2="282.8" stroke="#999" stroke-width="1"/>
<line x1="78.0" y1="282.8" x2="1100.0" y2="282.8" stroke="#e8e8e8" stroke-width="0.7" stroke-dasharray="4,3"/>
<text x="70.0" y="286.8" font-size="9" font-weight="normal" text-anchor="end" fill="#888" font-family="Arial,sans-serif">115</text>
<line x1="73.0" y1="274.2" x2="78.0" y2="274.2" stroke="#999" stroke-width="1"/>
<line x1="78.0" y1="274.2" x2="1100.0" y2="274.2" stroke="#e8e8e8" stroke-width="0.7" stroke-dasharray="4,3"/>
<text x="70.0" y="278.2" font-size="9" font-weight="normal" text-anchor="end" fill="#888" font-family="Arial,sans-serif">120</text>
<line x1="73.0" y1="265.6" x2="78.0" y2="265.6" stroke="#999" stroke-width="1"/>
<line x1="78.0" y1="265.6" x2="1100.0" y2="265.6" stroke="#e8e8e8" stroke-width="0.7" stroke-dasharray="4,3"/>
<text x="70.0" y="269.6" font-size="9" font-weight="normal" text-anchor="end" fill="#888" font-family="Arial,sans-serif">125</text>
<line x1="73.0" y1="257.1" x2="78.0" y2="257.1" stroke="#999" stroke-width="1"/>
<line x1="78.0" y1="257.1" x2="1100.0" y2="257.1" stroke="#e8e8e8" stroke-width="0.7" stroke-dasharray="4,3"/>
<text x="70.0" y="261.1" font-size="9" font-weight="normal" text-anchor="end" fill="#888" font-family="Arial,sans-serif">130</text>
<line x1="73.0" y1="248.5" x2="78.0" y2="248.5" stroke="#999" stroke-width="1"/>
<line x1="78.0" y1="248.5" x2="1100.0" y2="248.5" stroke="#e8e8e8" stroke-width="0.7" stroke-dasharray="4,3"/>
<text x="70.0" y="252.5" font-size="9" font-weight="normal" text-anchor="end" fill="#888" font-family="Arial,sans-serif">135</text>
<line x1="73.0" y1="239.9" x2="78.0" y2="239.9" stroke="#999" stroke-width="1"/>
<line x1="78.0" y1="239.9" x2="1100.0" y2="239.9" stroke="#e8e8e8" stroke-width="0.7" stroke-dasharray="4,3"/>
<text x="70.0" y="243.9" font-size="9" font-weight="normal" text-anchor="end" fill="#888" font-family="Arial,sans-serif">140</text>
<line x1="73.0" y1="231.3" x2="78.0" y2="231.3" stroke="#999" stroke-width="1"/>
<line x1="78.0" y1="231.3" x2="1100.0" y2="231.3" stroke="#e8e8e8" stroke-width="0.7" stroke-dasharray="4,3"/>
<text x="70.0" y="235.3" font-size="9" font-weight="normal" text-anchor="end" fill="#888" font-family="Arial,sans-serif">145</text>
<line x1="73.0" y1="222.8" x2="78.0" y2="222.8" stroke="#999" stroke-width="1"/>
<line x1="78.0" y1="222.8" x2="1100.0" y2="222.8" stroke="#e8e8e8" stroke-width="0.7" stroke-dasharray="4,3"/>
<text x="70.0" y="226.8" font-size="9" font-weight="normal" text-anchor="end" fill="#888" font-family="Arial,sans-serif">150</text>
<line x1="73.0" y1="214.2" x2="78.0" y2="214.2" stroke="#999" stroke-width="1"/>
<line x1="78.0" y1="214.2" x2="1100.0" y2="214.2" stroke="#e8e8e8" stroke-width="0.7" stroke-dasharray="4,3"/>
<text x="70.0" y="218.2" font-size="9" font-weight="normal" text-anchor="end" fill="#888" font-family="Arial,sans-serif">155</text>
<line x1="73.0" y1="205.6" x2="78.0" y2="205.6" stroke="#999" stroke-width="1"/>
<line x1="78.0" y1="205.6" x2="1100.0" y2="205.6" stroke="#e8e8e8" stroke-width="0.7" stroke-dasharray="4,3"/>
<text x="70.0" y="209.6" font-size="9" font-weight="normal" text-anchor="end" fill="#888" font-family="Arial,sans-serif">160</text>
<line x1="73.0" y1="197.0" x2="78.0" y2="197.0" stroke="#999" stroke-width="1"/>
<line x1="78.0" y1="197.0" x2="1100.0" y2="197.0" stroke="#e8e8e8" stroke-width="0.7" stroke-dasharray="4,3"/>
<text x="70.0" y="201.0" font-size="9" font-weight="normal" text-anchor="end" fill="#888" font-family="Arial,sans-serif">165</text>
<line x1="73.0" y1="188.5" x2="78.0" y2="188.5" stroke="#999" stroke-width="1"/>
<line x1="78.0" y1="188.5" x2="1100.0" y2="188.5" stroke="#e8e8e8" stroke-width="0.7" stroke-dasharray="4,3"/>
<text x="70.0" y="192.5" font-size="9" font-weight="normal" text-anchor="end" fill="#888" font-family="Arial,sans-serif">170</text>
<line x1="73.0" y1="179.9" x2="78.0" y2="179.9" stroke="#999" stroke-width="1"/>
<line x1="78.0" y1="179.9" x2="1100.0" y2="179.9" stroke="#e8e8e8" stroke-width="0.7" stroke-dasharray="4,3"/>
<text x="70.0" y="183.9" font-size="9" font-weight="normal" text-anchor="end" fill="#888" font-family="Arial,sans-serif">175</text>
<line x1="73.0" y1="171.3" x2="78.0" y2="171.3" stroke="#999" stroke-width="1"/>
<line x1="78.0" y1="171.3" x2="1100.0" y2="171.3" stroke="#e8e8e8" stroke-width="0.7" stroke-dasharray="4,3"/>
<text x="70.0" y="175.3" font-size="9" font-weight="normal" text-anchor="end" fill="#888" font-family="Arial,sans-serif">180</text>
<line x1="73.0" y1="162.7" x2="78.0" y2="162.7" stroke="#999" stroke-width="1"/>
<line x1="78.0" y1="162.7" x2="1100.0" y2="162.7" stroke="#e8e8e8" stroke-width="0.7" stroke-dasharray="4,3"/>
<text x="70.0" y="166.7" font-size="9" font-weight="normal" text-anchor="end" fill="#888" font-family="Arial,sans-serif">185</text>
<line x1="73.0" y1="154.2" x2="78.0" y2="154.2" stroke="#999" stroke-width="1"/>
<line x1="78.0" y1="154.2" x2="1100.0" y2="154.2" stroke="#e8e8e8" stroke-width="0.7" stroke-dasharray="4,3"/>
<text x="70.0" y="158.2" font-size="9" font-weight="normal" text-anchor="end" fill="#888" font-family="Arial,sans-serif">190</text>
<line x1="73.0" y1="145.6" x2="78.0" y2="145.6" stroke="#999" stroke-width="1"/>
<line x1="78.0" y1="145.6" x2="1100.0" y2="145.6" stroke="#e8e8e8" stroke-width="0.7" stroke-dasharray="4,3"/>
<text x="70.0" y="149.6" font-size="9" font-weight="normal" text-anchor="end" fill="#888" font-family="Arial,sans-serif">195</text>
<line x1="73.0" y1="137.0" x2="78.0" y2="137.0" stroke="#999" stroke-width="1"/>
<line x1="78.0" y1="137.0" x2="1100.0" y2="137.0" stroke="#e8e8e8" stroke-width="0.7" stroke-dasharray="4,3"/>
<text x="70.0" y="141.0" font-size="9" font-weight="normal" text-anchor="end" fill="#888" font-family="Arial,sans-serif">200</text>
<line x1="73.0" y1="128.4" x2="78.0" y2="128.4" stroke="#999" stroke-width="1"/>
<line x1="78.0" y1="128.4" x2="1100.0" y2="128.4" stroke="#e8e8e8" stroke-width="0.7" stroke-dasharray="4,3"/>
<text x="70.0" y="132.4" font-size="9" font-weight="normal" text-anchor="end" fill="#888" font-family="Arial,sans-serif">205</text>
<line x1="73.0" y1="119.9" x2="78.0" y2="119.9" stroke="#999" stroke-width="1"/>
<line x1="78.0" y1="119.9" x2="1100.0" y2="119.9" stroke="#e8e8e8" stroke-width="0.7" stroke-dasharray="4,3"/>
<text x="70.0" y="123.9" font-size="9" font-weight="normal" text-anchor="end" fill="#888" font-family="Arial,sans-serif">210</text>
<line x1="73.0" y1="111.3" x2="78.0" y2="111.3" stroke="#999" stroke-width="1"/>
<line x1="78.0" y1="111.3" x2="1100.0" y2="111.3" stroke="#e8e8e8" stroke-width="0.7" stroke-dasharray="4,3"/>
<text x="70.0" y="115.3" font-size="9" font-weight="normal" text-anchor="end" fill="#888" font-family="Arial,sans-serif">215</text>
<line x1="73.0" y1="102.7" x2="78.0" y2="102.7" stroke="#999" stroke-width="1"/>
<line x1="78.0" y1="102.7" x2="1100.0" y2="102.7" stroke="#e8e8e8" stroke-width="0.7" stroke-dasharray="4,3"/>
<text x="70.0" y="106.7" font-size="9" font-weight="normal" text-anchor="end" fill="#888" font-family="Arial,sans-serif">220</text>
<line x1="73.0" y1="94.2" x2="78.0" y2="94.2" stroke="#999" stroke-width="1"/>
<line x1="78.0" y1="94.2" x2="1100.0" y2="94.2" stroke="#e8e8e8" stroke-width="0.7" stroke-dasharray="4,3"/>
<text x="70.0" y="98.2" font-size="9" font-weight="normal" text-anchor="end" fill="#888" font-family="Arial,sans-serif">225</text>
<line x1="73.0" y1="85.6" x2="78.0" y2="85.6" stroke="#999" stroke-width="1"/>
<line x1="78.0" y1="85.6" x2="1100.0" y2="85.6" stroke="#e8e8e8" stroke-width="0.7" stroke-dasharray="4,3"/>
<text x="70.0" y="89.6" font-size="9" font-weight="normal" text-anchor="end" fill="#888" font-family="Arial,sans-serif">230</text>
<line x1="73.0" y1="77.0" x2="78.0" y2="77.0" stroke="#999" stroke-width="1"/>
<line x1="78.0" y1="77.0" x2="1100.0" y2="77.0" stroke="#e8e8e8" stroke-width="0.7" stroke-dasharray="4,3"/>
<text x="70.0" y="81.0" font-size="9" font-weight="normal" text-anchor="end" fill="#888" font-family="Arial,sans-serif">235</text>
<line x1="73.0" y1="68.4" x2="78.0" y2="68.4" stroke="#999" stroke-width="1"/>
<line x1="78.0" y1="68.4" x2="1100.0" y2="68.4" stroke="#e8e8e8" stroke-width="0.7" stroke-dasharray="4,3"/>
<text x="70.0" y="72.4" font-size="9" font-weight="normal" text-anchor="end" fill="#888" font-family="Arial,sans-serif">240</text>
<line x1="78.0" y1="480.0" x2="1100.0" y2="480.0" stroke="#999" stroke-width="1"/>
<line x1="333.5" y1="480.0" x2="333.5" y2="485.0" stroke="#999" stroke-width="1"/>
<line x1="333.5" y1="68.0" x2="333.5" y2="480.0" stroke="#e8e8e8" stroke-width="0.7" stroke-dasharray="4,3"/>
<text x="333.5" y="496.0" font-size="10" font-weight="normal" text-anchor="middle" fill="#888" font-family="Arial,sans-serif">3.135</text>
<line x1="589.0" y1="480.0" x2="589.0" y2="485.0" stroke="#999" stroke-width="1"/>
<line x1="589.0" y1="68.0" x2="589.0" y2="480.0" stroke="#e8e8e8" stroke-width="0.7" stroke-dasharray="4,3"/>
<text x="589.0" y="496.0" font-size="10" font-weight="normal" text-anchor="middle" fill="#888" font-family="Arial,sans-serif">3.3</text>
<line x1="844.5" y1="480.0" x2="844.5" y2="485.0" stroke="#999" stroke-width="1"/>
<line x1="844.5" y1="68.0" x2="844.5" y2="480.0" stroke="#e8e8e8" stroke-width="0.7" stroke-dasharray="4,3"/>
<text x="844.5" y="496.0" font-size="10" font-weight="normal" text-anchor="middle" fill="#888" font-family="Arial,sans-serif">3.465</text>
<text x="16.0" y="274.0" font-size="11" font-weight="normal" text-anchor="middle" fill="#555" font-family="Arial,sans-serif" transform="rotate(-90,16,274.0)">Undershoot [mV]</text>
<text x="589.0" y="550.0" font-size="11" font-weight="normal" text-anchor="middle" fill="#555" font-family="Arial,sans-serif">Vin Setpoint [V]</text>
<g class="series pmic-series" data-mode="PWM" data-chip="21988" data-temp="0" data-reg="DC2DC_ANA">
<path d="M 321.0,408.1 L 576.5,405.6 L 832.0,409.2" fill="none" stroke="#3498db" stroke-width="1.8" stroke-dasharray="5,3" opacity="0.6"/>
<circle cx="321.0" cy="408.1" r="6" fill="#3498db" stroke="white" opacity="1.0"/>
<circle cx="576.5" cy="405.6" r="6" fill="#3498db" stroke="white" opacity="1.0"/>
<circle cx="832.0" cy="409.2" r="6" fill="#3498db" stroke="white" opacity="1.0"/>
</g>
<g class="series pmic-series" data-mode="PWM" data-chip="21988" data-temp="25" data-reg="DC2DC_ANA">
<path d="M 326.0,413.5 L 581.5,417.6 L 837.0,416.2" fill="none" stroke="#e67e22" stroke-width="1.8" stroke-dasharray="5,3" opacity="0.6"/>
<circle cx="326.0" cy="413.5" r="6" fill="#e67e22" stroke="white" opacity="1.0"/>
<circle cx="581.5" cy="417.6" r="6" fill="#e67e22" stroke="white" opacity="1.0"/>
<circle cx="837.0" cy="416.2" r="6" fill="#e67e22" stroke="white" opacity="1.0"/>
</g>
<g class="series pmic-series" data-mode="PWM" data-chip="21988" data-temp="80" data-reg="DC2DC_ANA">
<path d="M 331.0,434.7 L 586.5,434.0 L 842.0,434.9" fill="none" stroke="#2ecc71" stroke-width="1.8" stroke-dasharray="5,3" opacity="0.6"/>
<circle cx="331.0" cy="434.7" r="6" fill="#2ecc71" stroke="white" opacity="1.0"/>
<circle cx="586.5" cy="434.0" r="6" fill="#2ecc71" stroke="white" opacity="1.0"/>
<circle cx="842.0" cy="434.9" r="6" fill="#2ecc71" stroke="white" opacity="1.0"/>
</g>
<g class="series pmic-series" data-mode="PWM" data-chip="31927" data-temp="0" data-reg="DC2DC_ANA">
<path d="M 336.0,412.1 L 591.5,411.2 L 847.0,414.3" fill="none" stroke="#9b59b6" stroke-width="1.8" stroke-dasharray="5,3" opacity="0.6"/>
<circle cx="336.0" cy="412.1" r="6" fill="#9b59b6" stroke="white" opacity="1.0"/>
<circle cx="591.5" cy="411.2" r="6" fill="#9b59b6" stroke="white" opacity="1.0"/>
<circle cx="847.0" cy="414.3" r="6" fill="#9b59b6" stroke="white" opacity="1.0"/>
</g>
<g class="series pmic-series" data-mode="PWM" data-chip="31927" data-temp="25" data-reg="DC2DC_ANA">
<path d="M 341.0,385.5 L 596.5,386.9 L 852.0,390.8" fill="none" stroke="#1abc9c" stroke-width="1.8" stroke-dasharray="5,3" opacity="0.6"/>
<circle cx="341.0" cy="385.5" r="6" fill="#1abc9c" stroke="white" opacity="1.0"/>
<circle cx="596.5" cy="386.9" r="6" fill="#1abc9c" stroke="white" opacity="1.0"/>
<circle cx="852.0" cy="390.8" r="6" fill="#1abc9c" stroke="white" opacity="1.0"/>
</g>
<g class="series pmic-series" data-mode="PWM" data-chip="31927" data-temp="80" data-reg="DC2DC_ANA">
<path d="M 346.0,101.4 L 601.5,111.0 L 857.0,107.2" fill="none" stroke="#e74c3c" stroke-width="1.8" stroke-dasharray="5,3" opacity="0.6"/>
<circle cx="346.0" cy="101.4" r="6" fill="#e74c3c" stroke="white" opacity="1.0"/>
<circle cx="601.5" cy="111.0" r="6" fill="#e74c3c" stroke="white" opacity="1.0"/>
<circle cx="857.0" cy="107.2" r="6" fill="#e74c3c" stroke="white" opacity="1.0"/>
</g>
<g class="legend-item" data-mode="PWM" data-chip="21988" data-temp="0" data-reg="DC2DC_ANA">
<rect x="1116.0" y="69.0" width="18.0" height="4.0" fill="#3498db" stroke="none" stroke-width="1" opacity="1.0" rx="2"/>
<circle cx="1125.0" cy="71.0" r="5" fill="#3498db" stroke="none" opacity="1.0"/>
<text x="1140.0" y="76.0" font-size="9" font-weight="normal" text-anchor="start" fill="#333" font-family="Arial,sans-serif">Ch21988 | T=0°C | step↑</text>
</g>
<g class="legend-item" data-mode="PWM" data-chip="21988" data-temp="25" data-reg="DC2DC_ANA">
<rect x="1116.0" y="86.0" width="18.0" height="4.0" fill="#e67e22" stroke="none" stroke-width="1" opacity="1.0" rx="2"/>
<circle cx="1125.0" cy="88.0" r="5" fill="#e67e22" stroke="none" opacity="1.0"/>
<text x="1140.0" y="93.0" font-size="9" font-weight="normal" text-anchor="start" fill="#333" font-family="Arial,sans-serif">Ch21988 | T=25°C | step↑</text>
</g>
<g class="legend-item" data-mode="PWM" data-chip="21988" data-temp="80" data-reg="DC2DC_ANA">
<rect x="1116.0" y="103.0" width="18.0" height="4.0" fill="#2ecc71" stroke="none" stroke-width="1" opacity="1.0" rx="2"/>
<circle cx="1125.0" cy="105.0" r="5" fill="#2ecc71" stroke="none" opacity="1.0"/>
<text x="1140.0" y="110.0" font-size="9" font-weight="normal" text-anchor="start" fill="#333" font-family="Arial,sans-serif">Ch21988 | T=80°C | step↑</text>
</g>
<g class="legend-item" data-mode="PWM" data-chip="31927" data-temp="0" data-reg="DC2DC_ANA">
<rect x="1116.0" y="120.0" width="18.0" height="4.0" fill="#9b59b6" stroke="none" stroke-width="1" opacity="1.0" rx="2"/>
<circle cx="1125.0" cy="122.0" r="5" fill="#9b59b6" stroke="none" opacity="1.0"/>
<text x="1140.0" y="127.0" font-size="9" font-weight="normal" text-anchor="start" fill="#333" font-family="Arial,sans-serif">Ch31927 | T=0°C | step↑</text>
</g>
<g class="legend-item" data-mode="PWM" data-chip="31927" data-temp="25" data-reg="DC2DC_ANA">
<rect x="1116.0" y="137.0" width="18.0" height="4.0" fill="#1abc9c" stroke="none" stroke-width="1" opacity="1.0" rx="2"/>
<circle cx="1125.0" cy="139.0" r="5" fill="#1abc9c" stroke="none" opacity="1.0"/>
<text x="1140.0" y="144.0" font-size="9" font-weight="normal" text-anchor="start" fill="#333" font-family="Arial,sans-serif">Ch31927 | T=25°C | step↑</text>
</g>
<g class="legend-item" data-mode="PWM" data-chip="31927" data-temp="80" data-reg="DC2DC_ANA">
<rect x="1116.0" y="154.0" width="18.0" height="4.0" fill="#e74c3c" stroke="none" stroke-width="1" opacity="1.0" rx="2"/>
<circle cx="1125.0" cy="156.0" r="5" fill="#e74c3c" stroke="none" opacity="1.0"/>
<text x="1140.0" y="161.0" font-size="9" font-weight="normal" text-anchor="start" fill="#333" font-family="Arial,sans-serif">Ch31927 | T=80°C | step↑</text>
</g>
<rect class="cursor-overlay" x="78.0" y="68.0" width="1022.0" height="412.0" fill="transparent" style="cursor:default" data-xmin="78" data-xmax="1100" data-ymin="0" data-ymax="240.25" data-pl="78.0" data-pr="1100.0" data-pt="68.0" data-pb="480.0"/>
<g class="cursor-layer" style="pointer-events:none;display:none"><line class="cur-v" x1="0" y1="68.0" x2="0" y2="480.0" stroke="#e74c3c" stroke-width="1.2" stroke-dasharray="5,3"/><line class="cur-h" x1="78.0" y1="0" x2="1100.0" y2="0" stroke="#e74c3c" stroke-width="1.2" stroke-dasharray="5,3"/><rect class="cur-tip-bg" x="0" y="0" width="148" height="44" rx="5" fill="#1a252f" stroke="#34495e" stroke-width="1" opacity="0.92"/><text class="cur-tip-x" x="0" y="0" font-size="11" font-family="Arial,sans-serif" fill="#ecf0f1"/><text class="cur-tip-y" x="0" y="0" font-size="11" font-family="Arial,sans-serif" fill="#2ecc71"/></g>
</svg>