<svg xmlns="http://www.w3.org/2000/svg" width="1400" height="520" viewBox="0 0 1400 520">
<rect width="1400" height="520" fill="#ffffff"/>
<text x="700.0" y="28.0" font-size="16" font-weight="bold" text-anchor="middle" fill="#2c3e50" font-family="Arial,sans-serif">Static Line Regulation — Analog DC2DC  Vout=1V  [PWM]  Iload=3.0A</text>
<line x1="78.0" y1="68.0" x2="78.0" y2="440.0" stroke="#999" stroke-width="1"/>
<line x1="73.0" y1="440.0" x2="78.0" y2="440.0" stroke="#999" stroke-width="1"/>
<line x1="78.0" y1="440.0" x2="1100.0" y2="440.0" stroke="#e8e8e8" stroke-width="0.7" stroke-dasharray="4,3"/>
<text x="70.0" y="444.0" font-size="9" font-weight="normal" text-anchor="end" fill="#888" font-family="Arial,sans-serif">0.99</text>
<line x1="73.0" y1="365.6" x2="78.0" y2="365.6" stroke="#999" stroke-width="1"/>
<line x1="78.0" y1="365.6" x2="1100.0" y2="365.6" stroke="#e8e8e8" stroke-width="0.7" stroke-dasharray="4,3"/>
<text x="70.0" y="369.6" font-size="9" font-weight="normal" text-anchor="end" fill="#888" font-family="Arial,sans-serif">0.996</text>
<line x1="73.0" y1="291.2" x2="78.0" y2="291.2" stroke="#999" stroke-width="1"/>
<line x1="78.0" y1="291.2" x2="1100.0" y2="291.2" stroke="#e8e8e8" stroke-width="0.7" stroke-dasharray="4,3"/>
<text x="70.0" y="295.2" font-size="9" font-weight="normal" text-anchor="end" fill="#888" font-family="Arial,sans-serif">1</text>
<line x1="73.0" y1="216.8" x2="78.0" y2="216.8" stroke="#999" stroke-width="1"/>
<line x1="78.0" y1="216.8" x2="1100.0" y2="216.8" stroke="#e8e8e8" stroke-width="0.7" stroke-dasharray="4,3"/>
<text x="70.0" y="220.8" font-size="9" font-weight="normal" text-anchor="end" fill="#888" font-family="Arial,sans-serif">1.01</text>
<line x1="73.0" y1="142.4" x2="78.0" y2="142.4" stroke="#999" stroke-width="1"/>
<line x1="78.0" y1="142.4" x2="1100.0" y2="142.4" stroke="#e8e8e8" stroke-width="0.7" stroke-dasharray="4,3"/>
<text x="70.0" y="146.4" font-size="9" font-weight="normal" text-anchor="end" fill="#888" font-family="Arial,sans-serif">1.01</text>
<line x1="73.0" y1="68.0" x2="78.0" y2="68.0" stroke="#999" stroke-width="1"/>
<line x1="78.0" y1="68.0" x2="1100.0" y2="68.0" stroke="#e8e8e8" stroke-width="0.7" stroke-dasharray="4,3"/>
<text x="70.0" y="72.0" font-size="9" font-weight="normal" text-anchor="end" fill="#888" font-family="Arial,sans-serif">1.02</text>
<line x1="78.0" y1="440.0" x2="1100.0" y2="440.0" stroke="#999" stroke-width="1"/>
<line x1="78.0" y1="440.0" x2="78.0" y2="445.0" stroke="#999" stroke-width="1"/>
<line x1="78.0" y1="68.0" x2="78.0" y2="440.0" stroke="#e8e8e8" stroke-width="0.7" stroke-dasharray="4,3"/>
<text x="78.0" y="456.0" font-size="9" font-weight="normal" text-anchor="middle" fill="#888" font-family="Arial,sans-serif">2.45</text>
<line x1="224.0" y1="440.0" x2="224.0" y2="445.0" stroke="#999" stroke-width="1"/>
<line x1="224.0" y1="68.0" x2="224.0" y2="440.0" stroke="#e8e8e8" stroke-width="0.7" stroke-dasharray="4,3"/>
<text x="224.0" y="456.0" font-size="9" font-weight="normal" text-anchor="middle" fill="#888" font-family="Arial,sans-serif">2.62</text>
<line x1="370.0" y1="440.0" x2="370.0" y2="445.0" stroke="#999" stroke-width="1"/>
<line x1="370.0" y1="68.0" x2="370.0" y2="440.0" stroke="#e8e8e8" stroke-width="0.7" stroke-dasharray="4,3"/>
<text x="370.0" y="456.0" font-size="9" font-weight="normal" text-anchor="middle" fill="#888" font-family="Arial,sans-serif">2.79</text>
<line x1="516.0" y1="440.0" x2="516.0" y2="445.0" stroke="#999" stroke-width="1"/>
<line x1="516.0" y1="68.0" x2="516.0" y2="440.0" stroke="#e8e8e8" stroke-width="0.7" stroke-dasharray="4,3"/>
<text x="516.0" y="456.0" font-size="9" font-weight="normal" text-anchor="middle" fill="#888" font-family="Arial,sans-serif">2.96</text>
<line x1="662.0" y1="440.0" x2="662.0" y2="445.0" stroke="#999" stroke-width="1"/>
<line x1="662.0" y1="68.0" x2="662.0" y2="440.0" stroke="#e8e8e8" stroke-width="0.7" stroke-dasharray="4,3"/>
<text x="662.0" y="456.0" font-size="9" font-weight="normal" text-anchor="middle" fill="#888" font-family="Arial,sans-serif">3.13</text>
<line x1="808.0" y1="440.0" x2="808.0" y2="445.0" stroke="#999" stroke-width="1"/>
<line x1="808.0" y1="68.0" x2="808.0" y2="440.0" stroke="#e8e8e8" stroke-width="0.7" stroke-dasharray="4,3"/>
<text x="808.0" y="456.0" font-size="9" font-weight="normal" text-anchor="middle" fill="#888" font-family="Arial,sans-serif">3.3</text>
<line x1="954.0" y1="440.0" x2="954.0" y2="445.0" stroke="#999" stroke-width="1"/>
<line x1="954.0" y1="68.0" x2="954.0" y2="440.0" stroke="#e8e8e8" stroke-width="0.7" stroke-dasharray="4,3"/>
<text x="954.0" y="456.0" font-size="9" font-weight="normal" text-anchor="middle" fill="#888" font-family="Arial,sans-serif">3.46</text>
<line x1="1100.0" y1="440.0" x2="1100.0" y2="445.0" stroke="#999" stroke-width="1"/>
<line x1="1100.0" y1="68.0" x2="1100.0" y2="440.0" stroke="#e8e8e8" stroke-width="0.7" stroke-dasharray="4,3"/>
<text x="1100.0" y="456.0" font-size="9" font-weight="normal" text-anchor="middle" fill="#888" font-family="Arial,sans-serif">3.63</text>
<text x="16.0" y="254.0" font-size="11" font-weight="normal" text-anchor="middle" fill="#555" font-family="Arial,sans-serif" transform="rotate(-90,16,254.0)">Output Voltage  Vout [V]</text>
<text x="589.0" y="510.0" font-size="11" font-weight="normal" text-anchor="middle" fill="#555" font-family="Arial,sans-serif">Input Voltage  Vin [V]</text>
<g class="series pmic-series" data-mode="PWM" data-chip="21988" data-temp="0" data-reg="DC2DC_ANA">
<path d="M 124.5,104.2 L 150.3,105.5 L 176.1,102.9 L 201.9,102.9 L 227.8,105.5 L 253.6,100.2 L 279.3,100.2 L 305.0,96.3 L 330.9,97.6 L 356.9,96.3 L 382.6,96.3 L 408.4,102.9 L 434.1,98.9 L 459.9,98.9 L 485.6,100.2 L 511.7,100.2 L 537.4,96.3 L 563.2,96.3 L 589.0,102.9 L 614.8,95.0 L 640.6,98.9 L 666.5,98.9 L 692.3,101.5 L 718.1,100.2 L 743.9,100.2 L 769.5,97.6 L 795.4,98.9 L 821.4,102.9 L 847.2,102.9 L 872.8,102.9 L 898.7,102.9 L 924.5,98.9 L 950.2,102.9 L 976.2,104.2 L 1001.9,100.2 L 1027.8,104.2 L 1053.5,100.2" fill="none" stroke="#3498db" stroke-width="2.2" stroke-linejoin="round" opacity="0.9"/>
<circle cx="124.5" cy="104.2" r="4" fill="#3498db" stroke="white" opacity="1.0"/>
<circle cx="150.3" cy="105.5" r="4" fill="#3498db" stroke="white" opacity="1.0"/>
<circle cx="176.1" cy="102.9" r="4" fill="#3498db" stroke="white" opacity="1.0"/>
<circle cx="201.9" cy="102.9" r="4" fill="#3498db" stroke="white" opacity="1.0"/>
<circle cx="227.8" cy="105.5" r="4" fill="#3498db" stroke="white" opacity="1.0"/>
<circle cx="253.6" cy="100.2" r="4" fill="#3498db" stroke="white" opacity="1.0"/>
<circle cx="279.3" cy="100.2" r="4" fill="#3498db" stroke="white" opacity="1.0"/>
<circle cx="305.0" cy="96.3" r="4" fill="#3498db" stroke="white" opacity="1.0"/>
<circle cx="330.9" cy="97.6" r="4" fill="#3498db" stroke="white" opacity="1.0"/>
<circle cx="356.9" cy="96.3" r="4" fill="#3498db" stroke="white" opacity="1.0"/>
<circle cx="382.6" cy="96.3" r="4" fill="#3498db" stroke="white" opacity="1.0"/>
<circle cx="408.4" cy="102.9" r="4" fill="#3498db" stroke="white" opacity="1.0"/>
<circle cx="434.1" cy="98.9" r="4" fill="#3498db" stroke="white" opacity="1.0"/>
<circle cx="459.9" cy="98.9" r="4" fill="#3498db" stroke="white" opacity="1.0"/>
<circle cx="485.6" cy="100.2" r="4" fill="#3498db" stroke="white" opacity="1.0"/>
<circle cx="511.7" cy="100.2" r="4" fill="#3498db" stroke="white" opacity="1.0"/>
<circle cx="537.4" cy="96.3" r="4" fill="#3498db" stroke="white" opacity="1.0"/>
<circle cx="563.2" cy="96.3" r="4" fill="#3498db" stroke="white" opacity="1.0"/>
<circle cx="589.0" cy="102.9" r="4" fill="#3498db" stroke="white" opacity="1.0"/>
<circle cx="614.8" cy="95.0" r="4" fill="#3498db" stroke="white" opacity="1.0"/>
<circle cx="640.6" cy="98.9" r="4" fill="#3498db" stroke="white" opacity="1.0"/>
<circle cx="666.5" cy="98.9" r="4" fill="#3498db" stroke="white" opacity="1.0"/>
<circle cx="692.3" cy="101.5" r="4" fill="#3498db" stroke="white" opacity="1.0"/>
<circle cx="718.1" cy="100.2" r="4" fill="#3498db" stroke="white" opacity="1.0"/>
<circle cx="743.9" cy="100.2" r="4" fill="#3498db" stroke="white" opacity="1.0"/>
<circle cx="769.5" cy="97.6" r="4" fill="#3498db" stroke="white" opacity="1.0"/>
<circle cx="795.4" cy="98.9" r="4" fill="#3498db" stroke="white" opacity="1.0"/>
<circle cx="821.4" cy="102.9" r="4" fill="#3498db" stroke="white" opacity="1.0"/>
<circle cx="847.2" cy="102.9" r="4" fill="#3498db" stroke="white" opacity="1.0"/>
<circle cx="872.8" cy="102.9" r="4" fill="#3498db" stroke="white" opacity="1.0"/>
<circle cx="898.7" cy="102.9" r="4" fill="#3498db" stroke="white" opacity="1.0"/>
<circle cx="924.5" cy="98.9" r="4" fill="#3498db" stroke="white" opacity="1.0"/>
<circle cx="950.2" cy="102.9" r="4" fill="#3498db" stroke="white" opacity="1.0"/>
<circle cx="976.2" cy="104.2" r="4" fill="#3498db" stroke="white" opacity="1.0"/>
<circle cx="1001.9" cy="100.2" r="4" fill="#3498db" stroke="white" opacity="1.0"/>
<circle cx="1027.8" cy="104.2" r="4" fill="#3498db" stroke="white" opacity="1.0"/>
<circle cx="1053.5" cy="100.2" r="4" fill="#3498db" stroke="white" opacity="1.0"/>
</g>
<g class="series pmic-series" data-mode="PWM" data-chip="21988" data-temp="25" data-reg="DC2DC_ANA">
<path d="M 201.9,131.8 L 227.8,127.8 L 253.6,125.2 L 279.3,130.5 L 305.0,129.1 L 330.9,129.1 L 356.9,130.5 L 382.6,129.1 L 408.4,127.8 L 434.1,131.8 L 459.9,126.5 L 485.6,126.5 L 511.7,127.8 L 537.4,129.1 L 563.2,127.8 L 589.0,125.2 L 614.8,130.5 L 640.6,123.9 L 666.5,126.5 L 692.4,127.8 L 718.1,126.5 L 743.9,129.1 L 769.5,127.8 L 795.4,127.8 L 821.3,125.2 L 847.2,125.2 L 872.8,130.5 L 898.6,126.5 L 924.5,126.5 L 950.2,127.8 L 976.2,129.1 L 1001.9,129.1 L 1027.8,123.9 L 1053.5,121.3" fill="none" stroke="#e67e22" stroke-width="2.2" stroke-linejoin="round" opacity="0.9"/>
<circle cx="201.9" cy="131.8" r="4" fill="#e67e22" stroke="white" opacity="1.0"/>
<circle cx="227.8" cy="127.8" r="4" fill="#e67e22" stroke="white" opacity="1.0"/>
<circle cx="253.6" cy="125.2" r="4" fill="#e67e22" stroke="white" opacity="1.0"/>
<circle cx="279.3" cy="130.5" r="4" fill="#e67e22" stroke="white" opacity="1.0"/>
<circle cx="305.0" cy="129.1" r="4" fill="#e67e22" stroke="white" opacity="1.0"/>
<circle cx="330.9" cy="129.1" r="4" fill="#e67e22" stroke="white" opacity="1.0"/>
<circle cx="356.9" cy="130.5" r="4" fill="#e67e22" stroke="white" opacity="1.0"/>
<circle cx="382.6" cy="129.1" r="4" fill="#e67e22" stroke="white" opacity="1.0"/>
<circle cx="408.4" cy="127.8" r="4" fill="#e67e22" stroke="white" opacity="1.0"/>
<circle cx="434.1" cy="131.8" r="4" fill="#e67e22" stroke="white" opacity="1.0"/>
<circle cx="459.9" cy="126.5" r="4" fill="#e67e22" stroke="white" opacity="1.0"/>
<circle cx="485.6" cy="126.5" r="4" fill="#e67e22" stroke="white" opacity="1.0"/>
<circle cx="511.7" cy="127.8" r="4" fill="#e67e22" stroke="white" opacity="1.0"/>
<circle cx="537.4" cy="129.1" r="4" fill="#e67e22" stroke="white" opacity="1.0"/>
<circle cx="563.2" cy="127.8" r="4" fill="#e67e22" stroke="white" opacity="1.0"/>
<circle cx="589.0" cy="125.2" r="4" fill="#e67e22" stroke="white" opacity="1.0"/>
<circle cx="614.8" cy="130.5" r="4" fill="#e67e22" stroke="white" opacity="1.0"/>
<circle cx="640.6" cy="123.9" r="4" fill="#e67e22" stroke="white" opacity="1.0"/>
<circle cx="666.5" cy="126.5" r="4" fill="#e67e22" stroke="white" opacity="1.0"/>
<circle cx="692.4" cy="127.8" r="4" fill="#e67e22" stroke="white" opacity="1.0"/>
<circle cx="718.1" cy="126.5" r="4" fill="#e67e22" stroke="white" opacity="1.0"/>
<circle cx="743.9" cy="129.1" r="4" fill="#e67e22" stroke="white" opacity="1.0"/>
<circle cx="769.5" cy="127.8" r="4" fill="#e67e22" stroke="white" opacity="1.0"/>
<circle cx="795.4" cy="127.8" r="4" fill="#e67e22" stroke="white" opacity="1.0"/>
<circle cx="821.3" cy="125.2" r="4" fill="#e67e22" stroke="white" opacity="1.0"/>
<circle cx="847.2" cy="125.2" r="4" fill="#e67e22" stroke="white" opacity="1.0"/>
<circle cx="872.8" cy="130.5" r="4" fill="#e67e22" stroke="white" opacity="1.0"/>
<circle cx="898.6" cy="126.5" r="4" fill="#e67e22" stroke="white" opacity="1.0"/>
<circle cx="924.5" cy="126.5" r="4" fill="#e67e22" stroke="white" opacity="1.0"/>
<circle cx="950.2" cy="127.8" r="4" fill="#e67e22" stroke="white" opacity="1.0"/>
<circle cx="976.2" cy="129.1" r="4" fill="#e67e22" stroke="white" opacity="1.0"/>
<circle cx="1001.9" cy="129.1" r="4" fill="#e67e22" stroke="white" opacity="1.0"/>
<circle cx="1027.8" cy="123.9" r="4" fill="#e67e22" stroke="white" opacity="1.0"/>
<circle cx="1053.5" cy="121.3" r="4" fill="#e67e22" stroke="white" opacity="1.0"/>
</g>
<g class="series pmic-series" data-mode="PWM" data-chip="21988" data-temp="80" data-reg="DC2DC_ANA">
<path d="M 124.5,131.8 L 150.3,127.8 L 176.1,131.8 L 201.9,129.1 L 227.8,134.4 L 253.6,133.1 L 279.3,134.4 L 305.0,130.5 L 330.8,134.4 L 356.9,133.1 L 382.6,134.4 L 408.4,134.4 L 434.1,135.7 L 459.9,130.5 L 485.6,129.1 L 511.7,133.1 L 537.4,131.8 L 563.2,126.5 L 589.0,123.9 L 614.8,126.5 L 640.6,127.8 L 666.5,127.8 L 692.4,126.5 L 718.1,122.6 L 743.9,129.1 L 769.5,127.8 L 795.4,129.1 L 821.3,129.1 L 847.2,127.8 L 872.8,129.1 L 898.6,123.9 L 924.5,122.6 L 950.2,126.5 L 976.2,130.5 L 1001.9,130.5 L 1027.8,126.5 L 1053.5,125.2" fill="none" stroke="#2ecc71" stroke-width="2.2" stroke-linejoin="round" opacity="0.9"/>
<circle cx="124.5" cy="131.8" r="4" fill="#2ecc71" stroke="white" opacity="1.0"/>
<circle cx="150.3" cy="127.8" r="4" fill="#2ecc71" stroke="white" opacity="1.0"/>
<circle cx="176.1" cy="131.8" r="4" fill="#2ecc71" stroke="white" opacity="1.0"/>
<circle cx="201.9" cy="129.1" r="4" fill="#2ecc71" stroke="white" opacity="1.0"/>
<circle cx="227.8" cy="134.4" r="4" fill="#2ecc71" stroke="white" opacity="1.0"/>
<circle cx="253.6" cy="133.1" r="4" fill="#2ecc71" stroke="white" opacity="1.0"/>
<circle cx="279.3" cy="134.4" r="4" fill="#2ecc71" stroke="white" opacity="1.0"/>
<circle cx="305.0" cy="130.5" r="4" fill="#2ecc71" stroke="white" opacity="1.0"/>
<circle cx="330.8" cy="134.4" r="4" fill="#2ecc71" stroke="white" opacity="1.0"/>
<circle cx="356.9" cy="133.1" r="4" fill="#2ecc71" stroke="white" opacity="1.0"/>
<circle cx="382.6" cy="134.4" r="4" fill="#2ecc71" stroke="white" opacity="1.0"/>
<circle cx="408.4" cy="134.4" r="4" fill="#2ecc71" stroke="white" opacity="1.0"/>
<circle cx="434.1" cy="135.7" r="4" fill="#2ecc71" stroke="white" opacity="1.0"/>
<circle cx="459.9" cy="130.5" r="4" fill="#2ecc71" stroke="white" opacity="1.0"/>
<circle cx="485.6" cy="129.1" r="4" fill="#2ecc71" stroke="white" opacity="1.0"/>
<circle cx="511.7" cy="133.1" r="4" fill="#2ecc71" stroke="white" opacity="1.0"/>
<circle cx="537.4" cy="131.8" r="4" fill="#2ecc71" stroke="white" opacity="1.0"/>
<circle cx="563.2" cy="126.5" r="4" fill="#2ecc71" stroke="white" opacity="1.0"/>
<circle cx="589.0" cy="123.9" r="4" fill="#2ecc71" stroke="white" opacity="1.0"/>
<circle cx="614.8" cy="126.5" r="4" fill="#2ecc71" stroke="white" opacity="1.0"/>
<circle cx="640.6" cy="127.8" r="4" fill="#2ecc71" stroke="white" opacity="1.0"/>
<circle cx="666.5" cy="127.8" r="4" fill="#2ecc71" stroke="white" opacity="1.0"/>
<circle cx="692.4" cy="126.5" r="4" fill="#2ecc71" stroke="white" opacity="1.0"/>
<circle cx="718.1" cy="122.6" r="4" fill="#2ecc71" stroke="white" opacity="1.0"/>
<circle cx="743.9" cy="129.1" r="4" fill="#2ecc71" stroke="white" opacity="1.0"/>
<circle cx="769.5" cy="127.8" r="4" fill="#2ecc71" stroke="white" opacity="1.0"/>
<circle cx="795.4" cy="129.1" r="4" fill="#2ecc71" stroke="white" opacity="1.0"/>
<circle cx="821.3" cy="129.1" r="4" fill="#2ecc71" stroke="white" opacity="1.0"/>
<circle cx="847.2" cy="127.8" r="4" fill="#2ecc71" stroke="white" opacity="1.0"/>
<circle cx="872.8" cy="129.1" r="4" fill="#2ecc71" stroke="white" opacity="1.0"/>
<circle cx="898.6" cy="123.9" r="4" fill="#2ecc71" stroke="white" opacity="1.0"/>
<circle cx="924.5" cy="122.6" r="4" fill="#2ecc71" stroke="white" opacity="1.0"/>
<circle cx="950.2" cy="126.5" r="4" fill="#2ecc71" stroke="white" opacity="1.0"/>
<circle cx="976.2" cy="130.5" r="4" fill="#2ecc71" stroke="white" opacity="1.0"/>
<circle cx="1001.9" cy="130.5" r="4" fill="#2ecc71" stroke="white" opacity="1.0"/>
<circle cx="1027.8" cy="126.5" r="4" fill="#2ecc71" stroke="white" opacity="1.0"/>
<circle cx="1053.5" cy="125.2" r="4" fill="#2ecc71" stroke="white" opacity="1.0"/>
</g>
<g class="series pmic-series" data-mode="PWM" data-chip="31927" data-temp="0" data-reg="DC2DC_ANA">
<path d="M 124.5,102.9 L 150.3,101.5 L 176.1,105.5 L 201.9,100.2 L 227.8,105.5 L 253.6,98.9 L 279.3,104.2 L 305.0,102.9 L 330.9,109.4 L 356.9,102.9 L 382.6,105.5 L 408.4,105.5 L 434.1,101.5 L 459.9,105.5 L 485.6,104.2 L 511.7,104.2 L 537.3,100.2 L 563.2,96.3 L 589.0,102.9 L 614.8,105.5 L 640.6,98.9 L 666.5,105.5 L 692.3,97.6 L 718.1,97.6 L 743.9,102.9 L 769.5,100.2 L 795.4,98.9 L 821.3,102.9 L 847.1,102.9 L 872.8,97.6 L 898.6,104.2 L 924.5,93.7 L 950.2,95.0 L 976.1,95.0 L 1001.9,97.6 L 1027.7,101.5 L 1053.5,96.3" fill="none" stroke="#9b59b6" stroke-width="2.2" stroke-linejoin="round" opacity="0.9"/>
<circle cx="124.5" cy="102.9" r="4" fill="#9b59b6" stroke="white" opacity="1.0"/>
<circle cx="150.3" cy="101.5" r="4" fill="#9b59b6" stroke="white" opacity="1.0"/>
<circle cx="176.1" cy="105.5" r="4" fill="#9b59b6" stroke="white" opacity="1.0"/>
<circle cx="201.9" cy="100.2" r="4" fill="#9b59b6" stroke="white" opacity="1.0"/>
<circle cx="227.8" cy="105.5" r="4" fill="#9b59b6" stroke="white" opacity="1.0"/>
<circle cx="253.6" cy="98.9" r="4" fill="#9b59b6" stroke="white" opacity="1.0"/>
<circle cx="279.3" cy="104.2" r="4" fill="#9b59b6" stroke="white" opacity="1.0"/>
<circle cx="305.0" cy="102.9" r="4" fill="#9b59b6" stroke="white" opacity="1.0"/>
<circle cx="330.9" cy="109.4" r="4" fill="#9b59b6" stroke="white" opacity="1.0"/>
<circle cx="356.9" cy="102.9" r="4" fill="#9b59b6" stroke="white" opacity="1.0"/>
<circle cx="382.6" cy="105.5" r="4" fill="#9b59b6" stroke="white" opacity="1.0"/>
<circle cx="408.4" cy="105.5" r="4" fill="#9b59b6" stroke="white" opacity="1.0"/>
<circle cx="434.1" cy="101.5" r="4" fill="#9b59b6" stroke="white" opacity="1.0"/>
<circle cx="459.9" cy="105.5" r="4" fill="#9b59b6" stroke="white" opacity="1.0"/>
<circle cx="485.6" cy="104.2" r="4" fill="#9b59b6" stroke="white" opacity="1.0"/>
<circle cx="511.7" cy="104.2" r="4" fill="#9b59b6" stroke="white" opacity="1.0"/>
<circle cx="537.3" cy="100.2" r="4" fill="#9b59b6" stroke="white" opacity="1.0"/>
<circle cx="563.2" cy="96.3" r="4" fill="#9b59b6" stroke="white" opacity="1.0"/>
<circle cx="589.0" cy="102.9" r="4" fill="#9b59b6" stroke="white" opacity="1.0"/>
<circle cx="614.8" cy="105.5" r="4" fill="#9b59b6" stroke="white" opacity="1.0"/>
<circle cx="640.6" cy="98.9" r="4" fill="#9b59b6" stroke="white" opacity="1.0"/>
<circle cx="666.5" cy="105.5" r="4" fill="#9b59b6" stroke="white" opacity="1.0"/>
<circle cx="692.3" cy="97.6" r="4" fill="#9b59b6" stroke="white" opacity="1.0"/>
<circle cx="718.1" cy="97.6" r="4" fill="#9b59b6" stroke="white" opacity="1.0"/>
<circle cx="743.9" cy="102.9" r="4" fill="#9b59b6" stroke="white" opacity="1.0"/>
<circle cx="769.5" cy="100.2" r="4" fill="#9b59b6" stroke="white" opacity="1.0"/>
<circle cx="795.4" cy="98.9" r="4" fill="#9b59b6" stroke="white" opacity="1.0"/>
<circle cx="821.3" cy="102.9" r="4" fill="#9b59b6" stroke="white" opacity="1.0"/>
<circle cx="847.1" cy="102.9" r="4" fill="#9b59b6" stroke="white" opacity="1.0"/>
<circle cx="872.8" cy="97.6" r="4" fill="#9b59b6" stroke="white" opacity="1.0"/>
<circle cx="898.6" cy="104.2" r="4" fill="#9b59b6" stroke="white" opacity="1.0"/>
<circle cx="924.5" cy="93.7" r="4" fill="#9b59b6" stroke="white" opacity="1.0"/>
<circle cx="950.2" cy="95.0" r="4" fill="#9b59b6" stroke="white" opacity="1.0"/>
<circle cx="976.1" cy="95.0" r="4" fill="#9b59b6" stroke="white" opacity="1.0"/>
<circle cx="1001.9" cy="97.6" r="4" fill="#9b59b6" stroke="white" opacity="1.0"/>
<circle cx="1027.7" cy="101.5" r="4" fill="#9b59b6" stroke="white" opacity="1.0"/>
<circle cx="1053.5" cy="96.3" r="4" fill="#9b59b6" stroke="white" opacity="1.0"/>
</g>
<g class="series pmic-series" data-mode="PWM" data-chip="31927" data-temp="25" data-reg="DC2DC_ANA">
<path d="M 124.5,318.4 L 150.3,317.1 L 176.1,311.8 L 201.9,317.1 L 227.8,319.7 L 253.6,313.1 L 279.3,317.1 L 305.0,317.1 L 330.9,319.7 L 356.9,313.1 L 382.6,318.4 L 408.4,319.7 L 434.1,321.0 L 459.9,315.8 L 485.6,319.7 L 511.7,319.7 L 537.4,318.4 L 563.2,322.3 L 589.0,315.8 L 614.8,314.5 L 640.6,323.7 L 666.5,321.0 L 692.3,314.5 L 718.1,321.0 L 743.9,314.5 L 769.5,314.5 L 795.3,321.0 L 821.3,321.0 L 847.1,314.5 L 872.7,314.5 L 898.5,313.1 L 924.4,314.5 L 950.2,314.5 L 976.1,317.1 L 1001.8,310.5 L 1027.7,311.8 L 1053.5,311.8" fill="none" stroke="#1abc9c" stroke-width="2.2" stroke-linejoin="round" opacity="0.9"/>
<circle cx="124.5" cy="318.4" r="4" fill="#1abc9c" stroke="white" opacity="1.0"/>
<circle cx="150.3" cy="317.1" r="4" fill="#1abc9c" stroke="white" opacity="1.0"/>
<circle cx="176.1" cy="311.8" r="4" fill="#1abc9c" stroke="white" opacity="1.0"/>
<circle cx="201.9" cy="317.1" r="4" fill="#1abc9c" stroke="white" opacity="1.0"/>
<circle cx="227.8" cy="319.7" r="4" fill="#1abc9c" stroke="white" opacity="1.0"/>
<circle cx="253.6" cy="313.1" r="4" fill="#1abc9c" stroke="white" opacity="1.0"/>
<circle cx="279.3" cy="317.1" r="4" fill="#1abc9c" stroke="white" opacity="1.0"/>
<circle cx="305.0" cy="317.1" r="4" fill="#1abc9c" stroke="white" opacity="1.0"/>
<circle cx="330.9" cy="319.7" r="4" fill="#1abc9c" stroke="white" opacity="1.0"/>
<circle cx="356.9" cy="313.1" r="4" fill="#1abc9c" stroke="white" opacity="1.0"/>
<circle cx="382.6" cy="318.4" r="4" fill="#1abc9c" stroke="white" opacity="1.0"/>
<circle cx="408.4" cy="319.7" r="4" fill="#1abc9c" stroke="white" opacity="1.0"/>
<circle cx="434.1" cy="321.0" r="4" fill="#1abc9c" stroke="white" opacity="1.0"/>
<circle cx="459.9" cy="315.8" r="4" fill="#1abc9c" stroke="white" opacity="1.0"/>
<circle cx="485.6" cy="319.7" r="4" fill="#1abc9c" stroke="white" opacity="1.0"/>
<circle cx="511.7" cy="319.7" r="4" fill="#1abc9c" stroke="white" opacity="1.0"/>
<circle cx="537.4" cy="318.4" r="4" fill="#1abc9c" stroke="white" opacity="1.0"/>
<circle cx="563.2" cy="322.3" r="4" fill="#1abc9c" stroke="white" opacity="1.0"/>
<circle cx="589.0" cy="315.8" r="4" fill="#1abc9c" stroke="white" opacity="1.0"/>
<circle cx="614.8" cy="314.5" r="4" fill="#1abc9c" stroke="white" opacity="1.0"/>
<circle cx="640.6" cy="323.7" r="4" fill="#1abc9c" stroke="white" opacity="1.0"/>
<circle cx="666.5" cy="321.0" r="4" fill="#1abc9c" stroke="white" opacity="1.0"/>
<circle cx="692.3" cy="314.5" r="4" fill="#1abc9c" stroke="white" opacity="1.0"/>
<circle cx="718.1" cy="321.0" r="4" fill="#1abc9c" stroke="white" opacity="1.0"/>
<circle cx="743.9" cy="314.5" r="4" fill="#1abc9c" stroke="white" opacity="1.0"/>
<circle cx="769.5" cy="314.5" r="4" fill="#1abc9c" stroke="white" opacity="1.0"/>
<circle cx="795.3" cy="321.0" r="4" fill="#1abc9c" stroke="white" opacity="1.0"/>
<circle cx="821.3" cy="321.0" r="4" fill="#1abc9c" stroke="white" opacity="1.0"/>
<circle cx="847.1" cy="314.5" r="4" fill="#1abc9c" stroke="white" opacity="1.0"/>
<circle cx="872.7" cy="314.5" r="4" fill="#1abc9c" stroke="white" opacity="1.0"/>
<circle cx="898.5" cy="313.1" r="4" fill="#1abc9c" stroke="white" opacity="1.0"/>
<circle cx="924.4" cy="314.5" r="4" fill="#1abc9c" stroke="white" opacity="1.0"/>
<circle cx="950.2" cy="314.5" r="4" fill="#1abc9c" stroke="white" opacity="1.0"/>
<circle cx="976.1" cy="317.1" r="4" fill="#1abc9c" stroke="white" opacity="1.0"/>
<circle cx="1001.8" cy="310.5" r="4" fill="#1abc9c" stroke="white" opacity="1.0"/>
<circle cx="1027.7" cy="311.8" r="4" fill="#1abc9c" stroke="white" opacity="1.0"/>
<circle cx="1053.5" cy="311.8" r="4" fill="#1abc9c" stroke="white" opacity="1.0"/>
</g>
<g class="series pmic-series" data-mode="PWM" data-chip="31927" data-temp="80" data-reg="DC2DC_ANA">
<path d="M 124.5,410.4 L 150.3,411.7 L 176.1,407.8 L 201.9,399.9 L 227.8,409.1 L 253.6,407.8 L 279.3,409.1 L 305.0,407.8 L 330.9,407.8 L 356.9,410.4 L 382.6,401.2 L 408.4,410.4 L 434.1,409.1 L 459.9,409.1 L 485.6,407.8 L 511.7,410.4 L 537.4,410.4 L 563.2,410.4 L 589.0,407.8 L 614.8,406.5 L 640.6,405.1 L 666.5,410.4 L 692.4,407.8 L 718.1,407.8 L 743.9,407.8 L 769.5,405.1 L 795.4,407.8 L 821.3,403.8 L 847.1,414.3 L 872.8,410.4 L 898.6,406.5 L 924.5,406.5 L 950.2,399.9 L 976.1,403.8 L 1001.9,407.8 L 1027.8,401.2 L 1053.5,403.8" fill="none" stroke="#e74c3c" stroke-width="2.2" stroke-linejoin="round" opacity="0.9"/>
<circle cx="124.5" cy="410.4" r="4" fill="#e74c3c" stroke="white" opacity="1.0"/>
<circle cx="150.3" cy="411.7" r="4" fill="#e74c3c" stroke="white" opacity="1.0"/>
<circle cx="176.1" cy="407.8" r="4" fill="#e74c3c" stroke="white" opacity="1.0"/>
<circle cx="201.9" cy="399.9" r="4" fill="#e74c3c" stroke="white" opacity="1.0"/>
<circle cx="227.8" cy="409.1" r="4" fill="#e74c3c" stroke="white" opacity="1.0"/>
<circle cx="253.6" cy="407.8" r="4" fill="#e74c3c" stroke="white" opacity="1.0"/>
<circle cx="279.3" cy="409.1" r="4" fill="#e74c3c" stroke="white" opacity="1.0"/>
<circle cx="305.0" cy="407.8" r="4" fill="#e74c3c" stroke="white" opacity="1.0"/>
<circle cx="330.9" cy="407.8" r="4" fill="#e74c3c" stroke="white" opacity="1.0"/>
<circle cx="356.9" cy="410.4" r="4" fill="#e74c3c" stroke="white" opacity="1.0"/>
<circle cx="382.6" cy="401.2" r="4" fill="#e74c3c" stroke="white" opacity="1.0"/>
<circle cx="408.4" cy="410.4" r="4" fill="#e74c3c" stroke="white" opacity="1.0"/>
<circle cx="434.1" cy="409.1" r="4" fill="#e74c3c" stroke="white" opacity="1.0"/>
<circle cx="459.9" cy="409.1" r="4" fill="#e74c3c" stroke="white" opacity="1.0"/>
<circle cx="485.6" cy="407.8" r="4" fill="#e74c3c" stroke="white" opacity="1.0"/>
<circle cx="511.7" cy="410.4" r="4" fill="#e74c3c" stroke="white" opacity="1.0"/>
<circle cx="537.4" cy="410.4" r="4" fill="#e74c3c" stroke="white" opacity="1.0"/>
<circle cx="563.2" cy="410.4" r="4" fill="#e74c3c" stroke="white" opacity="1.0"/>
<circle cx="589.0" cy="407.8" r="4" fill="#e74c3c" stroke="white" opacity="1.0"/>
<circle cx="614.8" cy="406.5" r="4" fill="#e74c3c" stroke="white" opacity="1.0"/>
<circle cx="640.6" cy="405.1" r="4" fill="#e74c3c" stroke="white" opacity="1.0"/>
<circle cx="666.5" cy="410.4" r="4" fill="#e74c3c" stroke="white" opacity="1.0"/>
<circle cx="692.4" cy="407.8" r="4" fill="#e74c3c" stroke="white" opacity="1.0"/>
<circle cx="718.1" cy="407.8" r="4" fill="#e74c3c" stroke="white" opacity="1.0"/>
<circle cx="743.9" cy="407.8" r="4" fill="#e74c3c" stroke="white" opacity="1.0"/>
<circle cx="769.5" cy="405.1" r="4" fill="#e74c3c" stroke="white" opacity="1.0"/>
<circle cx="795.4" cy="407.8" r="4" fill="#e74c3c" stroke="white" opacity="1.0"/>
<circle cx="821.3" cy="403.8" r="4" fill="#e74c3c" stroke="white" opacity="1.0"/>
<circle cx="847.1" cy="414.3" r="4" fill="#e74c3c" stroke="white" opacity="1.0"/>
<circle cx="872.8" cy="410.4" r="4" fill="#e74c3c" stroke="white" opacity="1.0"/>
<circle cx="898.6" cy="406.5" r="4" fill="#e74c3c" stroke="white" opacity="1.0"/>
<circle cx="924.5" cy="406.5" r="4" fill="#e74c3c" stroke="white" opacity="1.0"/>
<circle cx="950.2" cy="399.9" r="4" fill="#e74c3c" stroke="white" opacity="1.0"/>
<circle cx="976.1" cy="403.8" r="4" fill="#e74c3c" stroke="white" opacity="1.0"/>
<circle cx="1001.9" cy="407.8" r="4" fill="#e74c3c" stroke="white" opacity="1.0"/>
<circle cx="1027.8" cy="401.2" r="4" fill="#e74c3c" stroke="white" opacity="1.0"/>
<circle cx="1053.5" cy="403.8" r="4" fill="#e74c3c" stroke="white" opacity="1.0"/>
</g>
<g class="legend-item" data-mode="PWM" data-chip="21988" data-temp="0" data-reg="DC2DC_ANA">
<rect x="1116.0" y="69.0" width="22.0" height="4.0" fill="#3498db" stroke="none" stroke-width="1" opacity="1.0" rx="2"/>
<circle cx="1127.0" cy="71.0" r="4" fill="#3498db" stroke="none" opacity="1.0"/>
<text x="1144.0" y="76.0" font-size="9" font-weight="normal" text-anchor="start" fill="#333" font-family="Arial,sans-serif">Chip 21988 | T=0°C</text>
</g>
<g class="legend-item" data-mode="PWM" data-chip="21988" data-temp="25" data-reg="DC2DC_ANA">
<rect x="1116.0" y="86.0" width="22.0" height="4.0" fill="#e67e22" stroke="none" stroke-width="1" opacity="1.0" rx="2"/>
<circle cx="1127.0" cy="88.0" r="4" fill="#e67e22" stroke="none" opacity="1.0"/>
<text x="1144.0" y="93.0" font-size="9" font-weight="normal" text-anchor="start" fill="#333" font-family="Arial,sans-serif">Chip 21988 | T=25°C</text>
</g>
<g class="legend-item" data-mode="PWM" data-chip="21988" data-temp="80" data-reg="DC2DC_ANA">
<rect x="1116.0" y="103.0" width="22.0" height="4.0" fill="#2ecc71" stroke="none" stroke-width="1" opacity="1.0" rx="2"/>
<circle cx="1127.0" cy="105.0" r="4" fill="#2ecc71" stroke="none" opacity="1.0"/>
<text x="1144.0" y="110.0" font-size="9" font-weight="normal" text-anchor="start" fill="#333" font-family="Arial,sans-serif">Chip 21988 | T=80°C</text>
</g>
<g class="legend-item" data-mode="PWM" data-chip="31927" data-temp="0" data-reg="DC2DC_ANA">
<rect x="1116.0" y="120.0" width="22.0" height="4.0" fill="#9b59b6" stroke="none" stroke-width="1" opacity="1.0" rx="2"/>
<circle cx="1127.0" cy="122.0" r="4" fill="#9b59b6" stroke="none" opacity="1.0"/>
<text x="1144.0" y="127.0" font-size="9" font-weight="normal" text-anchor="start" fill="#333" font-family="Arial,sans-serif">Chip 31927 | T=0°C</text>
</g>
<g class="legend-item" data-mode="PWM" data-chip="31927" data-temp="25" data-reg="DC2DC_ANA">
<rect x="1116.0" y="137.0" width="22.0" height="4.0" fill="#1abc9c" stroke="none" stroke-width="1" opacity="1.0" rx="2"/>
<circle cx="1127.0" cy="139.0" r="4" fill="#1abc9c" stroke="none" opacity="1.0"/>
<text x="1144.0" y="144.0" font-size="9" font-weight="normal" text-anchor="start" fill="#333" font-family="Arial,sans-serif">Chip 31927 | T=25°C</text>
</g>
<g class="legend-item" data-mode="PWM" data-chip="31927" data-temp="80" data-reg="DC2DC_ANA">
<rect x="1116.0" y="154.0" width="22.0" height="4.0" fill="#e74c3c" stroke="none" stroke-width="1" opacity="1.0" rx="2"/>
<circle cx="1127.0" cy="156.0" r="4" fill="#e74c3c" stroke="none" opacity="1.0"/>
<text x="1144.0" y="161.0" font-size="9" font-weight="normal" text-anchor="start" fill="#333" font-family="Arial,sans-serif">Chip 31927 | T=80°C</text>
</g>
<rect class="cursor-overlay" x="78.0" y="68.0" width="1022.0" height="372.0" fill="transparent" style="cursor:default" data-xmin="2.446395" data-xmax="3.634505" data-ymin="0.989848" data-ymax="1.018152" data-pl="78.0" data-pr="1100.0" data-pt="68.0" data-pb="440.0"/>
<g class="cursor-layer" style="pointer-events:none;display:none"><line class="cur-v" x1="0" y1="68.0" x2="0" y2="440.0" stroke="#e74c3c" stroke-width="1.2" stroke-dasharray="5,3"/><line class="cur-h" x1="78.0" y1="0" x2="1100.0" y2="0" stroke="#e74c3c" stroke-width="1.2" stroke-dasharray="5,3"/><rect class="cur-tip-bg" x="0" y="0" width="148" height="44" rx="5" fill="#1a252f" stroke="#34495e" stroke-width="1" opacity="0.92"/><text class="cur-tip-x" x="0" y="0" font-size="11" font-family="Arial,sans-serif" fill="#ecf0f1"/><text class="cur-tip-y" x="0" y="0" font-size="11" font-family="Arial,sans-serif" fill="#2ecc71"/></g>
</svg>