<svg xmlns="http://www.w3.org/2000/svg" width="1400" height="560" viewBox="0 0 1400 560">
<rect width="1400" height="560" fill="#ffffff"/>
<text x="700.0" y="28.0" font-size="16" font-weight="bold" text-anchor="middle" fill="#2c3e50" font-family="Arial,sans-serif">Transient — Analog DC2DC  Vout=1.2V  [PWM]  Load 400mA→2.0A  — Undershoot</text>
<line x1="78.0" y1="68.0" x2="78.0" y2="480.0" stroke="#999" stroke-width="1"/>
<line x1="73.0" y1="480.0" x2="78.0" y2="480.0" stroke="#999" stroke-width="1"/>
<line x1="78.0" y1="480.0" x2="1100.0" y2="480.0" stroke="#e8e8e8" stroke-width="0.7" stroke-dasharray="4,3"/>
<text x="70.0" y="484.0" font-size="9" font-weight="normal" text-anchor="end" fill="#888" font-family="Arial,sans-serif">0</text>
<line x1="73.0" y1="472.7" x2="78.0" y2="472.7" stroke="#999" stroke-width="1"/>
<line x1="78.0" y1="472.7" x2="1100.0" y2="472.7" stroke="#e8e8e8" stroke-width="0.7" stroke-dasharray="4,3"/>
<text x="70.0" y="476.7" font-size="9" font-weight="normal" text-anchor="end" fill="#888" font-family="Arial,sans-serif">5</text>
<line x1="73.0" y1="465.3" x2="78.0" y2="465.3" stroke="#999" stroke-width="1"/>
<line x1="78.0" y1="465.3" x2="1100.0" y2="465.3" stroke="#e8e8e8" stroke-width="0.7" stroke-dasharray="4,3"/>
<text x="70.0" y="469.3" font-size="9" font-weight="normal" text-anchor="end" fill="#888" font-family="Arial,sans-serif">10</text>
<line x1="73.0" y1="458.0" x2="78.0" y2="458.0" stroke="#999" stroke-width="1"/>
<line x1="78.0" y1="458.0" x2="1100.0" y2="458.0" stroke="#e8e8e8" stroke-width="0.7" stroke-dasharray="4,3"/>
<text x="70.0" y="462.0" font-size="9" font-weight="normal" text-anchor="end" fill="#888" font-family="Arial,sans-serif">15</text>
<line x1="73.0" y1="450.7" x2="78.0" y2="450.7" stroke="#999" stroke-width="1"/>
<line x1="78.0" y1="450.7" x2="1100.0" y2="450.7" stroke="#e8e8e8" stroke-width="0.7" stroke-dasharray="4,3"/>
<text x="70.0" y="454.7" font-size="9" font-weight="normal" text-anchor="end" fill="#888" font-family="Arial,sans-serif">20</text>
<line x1="73.0" y1="443.3" x2="78.0" y2="443.3" stroke="#999" stroke-width="1"/>
<line x1="78.0" y1="443.3" x2="1100.0" y2="443.3" stroke="#e8e8e8" stroke-width="0.7" stroke-dasharray="4,3"/>
<text x="70.0" y="447.3" font-size="9" font-weight="normal" text-anchor="end" fill="#888" font-family="Arial,sans-serif">25</text>
<line x1="73.0" y1="436.0" x2="78.0" y2="436.0" stroke="#999" stroke-width="1"/>
<line x1="78.0" y1="436.0" x2="1100.0" y2="436.0" stroke="#e8e8e8" stroke-width="0.7" stroke-dasharray="4,3"/>
<text x="70.0" y="440.0" font-size="9" font-weight="normal" text-anchor="end" fill="#888" font-family="Arial,sans-serif">30</text>
<line x1="73.0" y1="428.7" x2="78.0" y2="428.7" stroke="#999" stroke-width="1"/>
<line x1="78.0" y1="428.7" x2="1100.0" y2="428.7" stroke="#e8e8e8" stroke-width="0.7" stroke-dasharray="4,3"/>
<text x="70.0" y="432.7" font-size="9" font-weight="normal" text-anchor="end" fill="#888" font-family="Arial,sans-serif">35</text>
<line x1="73.0" y1="421.3" x2="78.0" y2="421.3" stroke="#999" stroke-width="1"/>
<line x1="78.0" y1="421.3" x2="1100.0" y2="421.3" stroke="#e8e8e8" stroke-width="0.7" stroke-dasharray="4,3"/>
<text x="70.0" y="425.3" font-size="9" font-weight="normal" text-anchor="end" fill="#888" font-family="Arial,sans-serif">40</text>
<line x1="73.0" y1="414.0" x2="78.0" y2="414.0" stroke="#999" stroke-width="1"/>
<line x1="78.0" y1="414.0" x2="1100.0" y2="414.0" stroke="#e8e8e8" stroke-width="0.7" stroke-dasharray="4,3"/>
<text x="70.0" y="418.0" font-size="9" font-weight="normal" text-anchor="end" fill="#888" font-family="Arial,sans-serif">45</text>
<line x1="73.0" y1="406.7" x2="78.0" y2="406.7" stroke="#999" stroke-width="1"/>
<line x1="78.0" y1="406.7" x2="1100.0" y2="406.7" stroke="#e8e8e8" stroke-width="0.7" stroke-dasharray="4,3"/>
<text x="70.0" y="410.7" font-size="9" font-weight="normal" text-anchor="end" fill="#888" font-family="Arial,sans-serif">50</text>
<line x1="73.0" y1="399.3" x2="78.0" y2="399.3" stroke="#999" stroke-width="1"/>
<line x1="78.0" y1="399.3" x2="1100.0" y2="399.3" stroke="#e8e8e8" stroke-width="0.7" stroke-dasharray="4,3"/>
<text x="70.0" y="403.3" font-size="9" font-weight="normal" text-anchor="end" fill="#888" font-family="Arial,sans-serif">55</text>
<line x1="73.0" y1="392.0" x2="78.0" y2="392.0" stroke="#999" stroke-width="1"/>
<line x1="78.0" y1="392.0" x2="1100.0" y2="392.0" stroke="#e8e8e8" stroke-width="0.7" stroke-dasharray="4,3"/>
<text x="70.0" y="396.0" font-size="9" font-weight="normal" text-anchor="end" fill="#888" font-family="Arial,sans-serif">60</text>
<line x1="73.0" y1="384.7" x2="78.0" y2="384.7" stroke="#999" stroke-width="1"/>
<line x1="78.0" y1="384.7" x2="1100.0" y2="384.7" stroke="#e8e8e8" stroke-width="0.7" stroke-dasharray="4,3"/>
<text x="70.0" y="388.7" font-size="9" font-weight="normal" text-anchor="end" fill="#888" font-family="Arial,sans-serif">65</text>
<line x1="73.0" y1="377.3" x2="78.0" y2="377.3" stroke="#999" stroke-width="1"/>
<line x1="78.0" y1="377.3" x2="1100.0" y2="377.3" stroke="#e8e8e8" stroke-width="0.7" stroke-dasharray="4,3"/>
<text x="70.0" y="381.3" font-size="9" font-weight="normal" text-anchor="end" fill="#888" font-family="Arial,sans-serif">70</text>
<line x1="73.0" y1="370.0" x2="78.0" y2="370.0" stroke="#999" stroke-width="1"/>
<line x1="78.0" y1="370.0" x2="1100.0" y2="370.0" stroke="#e8e8e8" stroke-width="0.7" stroke-dasharray="4,3"/>
<text x="70.0" y="374.0" font-size="9" font-weight="normal" text-anchor="end" fill="#888" font-family="Arial,sans-serif">75</text>
<line x1="73.0" y1="362.7" x2="78.0" y2="362.7" stroke="#999" stroke-width="1"/>
<line x1="78.0" y1="362.7" x2="1100.0" y2="362.7" stroke="#e8e8e8" stroke-width="0.7" stroke-dasharray="4,3"/>
<text x="70.0" y="366.7" font-size="9" font-weight="normal" text-anchor="end" fill="#888" font-family="Arial,sans-serif">80</text>
<line x1="73.0" y1="355.3" x2="78.0" y2="355.3" stroke="#999" stroke-width="1"/>
<line x1="78.0" y1="355.3" x2="1100.0" y2="355.3" stroke="#e8e8e8" stroke-width="0.7" stroke-dasharray="4,3"/>
<text x="70.0" y="359.3" font-size="9" font-weight="normal" text-anchor="end" fill="#888" font-family="Arial,sans-serif">85</text>
<line x1="73.0" y1="348.0" x2="78.0" y2="348.0" stroke="#999" stroke-width="1"/>
<line x1="78.0" y1="348.0" x2="1100.0" y2="348.0" stroke="#e8e8e8" stroke-width="0.7" stroke-dasharray="4,3"/>
<text x="70.0" y="352.0" font-size="9" font-weight="normal" text-anchor="end" fill="#888" font-family="Arial,sans-serif">90</text>
<line x1="73.0" y1="340.7" x2="78.0" y2="340.7" stroke="#999" stroke-width="1"/>
<line x1="78.0" y1="340.7" x2="1100.0" y2="340.7" stroke="#e8e8e8" stroke-width="0.7" stroke-dasharray="4,3"/>
<text x="70.0" y="344.7" font-size="9" font-weight="normal" text-anchor="end" fill="#888" font-family="Arial,sans-serif">95</text>
<line x1="73.0" y1="333.3" x2="78.0" y2="333.3" stroke="#999" stroke-width="1"/>
<line x1="78.0" y1="333.3" x2="1100.0" y2="333.3" stroke="#e8e8e8" stroke-width="0.7" stroke-dasharray="4,3"/>
<text x="70.0" y="337.3" font-size="9" font-weight="normal" text-anchor="end" fill="#888" font-family="Arial,sans-serif">100</text>
<line x1="73.0" y1="326.0" x2="78.0" y2="326.0" stroke="#999" stroke-width="1"/>
<line x1="78.0" y1="326.0" x2="1100.0" y2="326.0" stroke="#e8e8e8" stroke-width="0.7" stroke-dasharray="4,3"/>
<text x="70.0" y="330.0" font-size="9" font-weight="normal" text-anchor="end" fill="#888" font-family="Arial,sans-serif">105</text>
<line x1="73.0" y1="318.7" x2="78.0" y2="318.7" stroke="#999" stroke-width="1"/>
<line x1="78.0" y1="318.7" x2="1100.0" y2="318.7" stroke="#e8e8e8" stroke-width="0.7" stroke-dasharray="4,3"/>
<text x="70.0" y="322.7" font-size="9" font-weight="normal" text-anchor="end" fill="#888" font-family="Arial,sans-serif">110</text>
<line x1="73.0" y1="311.3" x2="78.0" y2="311.3" stroke="#999" stroke-width="1"/>
<line x1="78.0" y1="311.3" x2="1100.0" y2="311.3" stroke="#e8e8e8" stroke-width="0.7" stroke-dasharray="4,3"/>
<text x="70.0" y="315.3" font-size="9" font-weight="normal" text-anchor="end" fill="#888" font-family="Arial,sans-serif">115</text>
<line x1="73.0" y1="304.0" x2="78.0" y2="304.0" stroke="#999" stroke-width="1"/>
<line x1="78.0" y1="304.0" x2="1100.0" y2="304.0" stroke="#e8e8e8" stroke-width="0.7" stroke-dasharray="4,3"/>
<text x="70.0" y="308.0" font-size="9" font-weight="normal" text-anchor="end" fill="#888" font-family="Arial,sans-serif">120</text>
<line x1="73.0" y1="296.7" x2="78.0" y2="296.7" stroke="#999" stroke-width="1"/>
<line x1="78.0" y1="296.7" x2="1100.0" y2="296.7" stroke="#e8e8e8" stroke-width="0.7" stroke-dasharray="4,3"/>
<text x="70.0" y="300.7" font-size="9" font-weight="normal" text-anchor="end" fill="#888" font-family="Arial,sans-serif">125</text>
<line x1="73.0" y1="289.3" x2="78.0" y2="289.3" stroke="#999" stroke-width="1"/>
<line x1="78.0" y1="289.3" x2="1100.0" y2="289.3" stroke="#e8e8e8" stroke-width="0.7" stroke-dasharray="4,3"/>
<text x="70.0" y="293.3" font-size="9" font-weight="normal" text-anchor="end" fill="#888" font-family="Arial,sans-serif">130</text>
<line x1="73.0" y1="282.0" x2="78.0" y2="282.0" stroke="#999" stroke-width="1"/>
<line x1="78.0" y1="282.0" x2="1100.0" y2="282.0" stroke="#e8e8e8" stroke-width="0.7" stroke-dasharray="4,3"/>
<text x="70.0" y="286.0" font-size="9" font-weight="normal" text-anchor="end" fill="#888" font-family="Arial,sans-serif">135</text>
<line x1="73.0" y1="274.7" x2="78.0" y2="274.7" stroke="#999" stroke-width="1"/>
<line x1="78.0" y1="274.7" x2="1100.0" y2="274.7" stroke="#e8e8e8" stroke-width="0.7" stroke-dasharray="4,3"/>
<text x="70.0" y="278.7" font-size="9" font-weight="normal" text-anchor="end" fill="#888" font-family="Arial,sans-serif">140</text>
<line x1="73.0" y1="267.3" x2="78.0" y2="267.3" stroke="#999" stroke-width="1"/>
<line x1="78.0" y1="267.3" x2="1100.0" y2="267.3" stroke="#e8e8e8" stroke-width="0.7" stroke-dasharray="4,3"/>
<text x="70.0" y="271.3" font-size="9" font-weight="normal" text-anchor="end" fill="#888" font-family="Arial,sans-serif">145</text>
<line x1="73.0" y1="260.0" x2="78.0" y2="260.0" stroke="#999" stroke-width="1"/>
<line x1="78.0" y1="260.0" x2="1100.0" y2="260.0" stroke="#e8e8e8" stroke-width="0.7" stroke-dasharray="4,3"/>
<text x="70.0" y="264.0" font-size="9" font-weight="normal" text-anchor="end" fill="#888" font-family="Arial,sans-serif">150</text>
<line x1="73.0" y1="252.7" x2="78.0" y2="252.7" stroke="#999" stroke-width="1"/>
<line x1="78.0" y1="252.7" x2="1100.0" y2="252.7" stroke="#e8e8e8" stroke-width="0.7" stroke-dasharray="4,3"/>
<text x="70.0" y="256.7" font-size="9" font-weight="normal" text-anchor="end" fill="#888" font-family="Arial,sans-serif">155</text>
<line x1="73.0" y1="245.3" x2="78.0" y2="245.3" stroke="#999" stroke-width="1"/>
<line x1="78.0" y1="245.3" x2="1100.0" y2="245.3" stroke="#e8e8e8" stroke-width="0.7" stroke-dasharray="4,3"/>
<text x="70.0" y="249.3" font-size="9" font-weight="normal" text-anchor="end" fill="#888" font-family="Arial,sans-serif">160</text>
<line x1="73.0" y1="238.0" x2="78.0" y2="238.0" stroke="#999" stroke-width="1"/>
<line x1="78.0" y1="238.0" x2="1100.0" y2="238.0" stroke="#e8e8e8" stroke-width="0.7" stroke-dasharray="4,3"/>
<text x="70.0" y="242.0" font-size="9" font-weight="normal" text-anchor="end" fill="#888" font-family="Arial,sans-serif">165</text>
<line x1="73.0" y1="230.7" x2="78.0" y2="230.7" stroke="#999" stroke-width="1"/>
<line x1="78.0" y1="230.7" x2="1100.0" y2="230.7" stroke="#e8e8e8" stroke-width="0.7" stroke-dasharray="4,3"/>
<text x="70.0" y="234.7" font-size="9" font-weight="normal" text-anchor="end" fill="#888" font-family="Arial,sans-serif">170</text>
<line x1="73.0" y1="223.3" x2="78.0" y2="223.3" stroke="#999" stroke-width="1"/>
<line x1="78.0" y1="223.3" x2="1100.0" y2="223.3" stroke="#e8e8e8" stroke-width="0.7" stroke-dasharray="4,3"/>
<text x="70.0" y="227.3" font-size="9" font-weight="normal" text-anchor="end" fill="#888" font-family="Arial,sans-serif">175</text>
<line x1="73.0" y1="216.0" x2="78.0" y2="216.0" stroke="#999" stroke-width="1"/>
<line x1="78.0" y1="216.0" x2="1100.0" y2="216.0" stroke="#e8e8e8" stroke-width="0.7" stroke-dasharray="4,3"/>
<text x="70.0" y="220.0" font-size="9" font-weight="normal" text-anchor="end" fill="#888" font-family="Arial,sans-serif">180</text>
<line x1="73.0" y1="208.7" x2="78.0" y2="208.7" stroke="#999" stroke-width="1"/>
<line x1="78.0" y1="208.7" x2="1100.0" y2="208.7" stroke="#e8e8e8" stroke-width="0.7" stroke-dasharray="4,3"/>
<text x="70.0" y="212.7" font-size="9" font-weight="normal" text-anchor="end" fill="#888" font-family="Arial,sans-serif">185</text>
<line x1="73.0" y1="201.3" x2="78.0" y2="201.3" stroke="#999" stroke-width="1"/>
<line x1="78.0" y1="201.3" x2="1100.0" y2="201.3" stroke="#e8e8e8" stroke-width="0.7" stroke-dasharray="4,3"/>
<text x="70.0" y="205.3" font-size="9" font-weight="normal" text-anchor="end" fill="#888" font-family="Arial,sans-serif">190</text>
<line x1="73.0" y1="194.0" x2="78.0" y2="194.0" stroke="#999" stroke-width="1"/>
<line x1="78.0" y1="194.0" x2="1100.0" y2="194.0" stroke="#e8e8e8" stroke-width="0.7" stroke-dasharray="4,3"/>
<text x="70.0" y="198.0" font-size="9" font-weight="normal" text-anchor="end" fill="#888" font-family="Arial,sans-serif">195</text>
<line x1="73.0" y1="186.7" x2="78.0" y2="186.7" stroke="#999" stroke-width="1"/>
<line x1="78.0" y1="186.7" x2="1100.0" y2="186.7" stroke="#e8e8e8" stroke-width="0.7" stroke-dasharray="4,3"/>
<text x="70.0" y="190.7" font-size="9" font-weight="normal" text-anchor="end" fill="#888" font-family="Arial,sans-serif">200</text>
<line x1="73.0" y1="179.3" x2="78.0" y2="179.3" stroke="#999" stroke-width="1"/>
<line x1="78.0" y1="179.3" x2="1100.0" y2="179.3" stroke="#e8e8e8" stroke-width="0.7" stroke-dasharray="4,3"/>
<text x="70.0" y="183.3" font-size="9" font-weight="normal" text-anchor="end" fill="#888" font-family="Arial,sans-serif">205</text>
<line x1="73.0" y1="172.0" x2="78.0" y2="172.0" stroke="#999" stroke-width="1"/>
<line x1="78.0" y1="172.0" x2="1100.0" y2="172.0" stroke="#e8e8e8" stroke-width="0.7" stroke-dasharray="4,3"/>
<text x="70.0" y="176.0" font-size="9" font-weight="normal" text-anchor="end" fill="#888" font-family="Arial,sans-serif">210</text>
<line x1="73.0" y1="164.7" x2="78.0" y2="164.7" stroke="#999" stroke-width="1"/>
<line x1="78.0" y1="164.7" x2="1100.0" y2="164.7" stroke="#e8e8e8" stroke-width="0.7" stroke-dasharray="4,3"/>
<text x="70.0" y="168.7" font-size="9" font-weight="normal" text-anchor="end" fill="#888" font-family="Arial,sans-serif">215</text>
<line x1="73.0" y1="157.3" x2="78.0" y2="157.3" stroke="#999" stroke-width="1"/>
<line x1="78.0" y1="157.3" x2="1100.0" y2="157.3" stroke="#e8e8e8" stroke-width="0.7" stroke-dasharray="4,3"/>
<text x="70.0" y="161.3" font-size="9" font-weight="normal" text-anchor="end" fill="#888" font-family="Arial,sans-serif">220</text>
<line x1="73.0" y1="150.0" x2="78.0" y2="150.0" stroke="#999" stroke-width="1"/>
<line x1="78.0" y1="150.0" x2="1100.0" y2="150.0" stroke="#e8e8e8" stroke-width="0.7" stroke-dasharray="4,3"/>
<text x="70.0" y="154.0" font-size="9" font-weight="normal" text-anchor="end" fill="#888" font-family="Arial,sans-serif">225</text>
<line x1="73.0" y1="142.7" x2="78.0" y2="142.7" stroke="#999" stroke-width="1"/>
<line x1="78.0" y1="142.7" x2="1100.0" y2="142.7" stroke="#e8e8e8" stroke-width="0.7" stroke-dasharray="4,3"/>
<text x="70.0" y="146.7" font-size="9" font-weight="normal" text-anchor="end" fill="#888" font-family="Arial,sans-serif">230</text>
<line x1="73.0" y1="135.3" x2="78.0" y2="135.3" stroke="#999" stroke-width="1"/>
<line x1="78.0" y1="135.3" x2="1100.0" y2="135.3" stroke="#e8e8e8" stroke-width="0.7" stroke-dasharray="4,3"/>
<text x="70.0" y="139.3" font-size="9" font-weight="normal" text-anchor="end" fill="#888" font-family="Arial,sans-serif">235</text>
<line x1="73.0" y1="128.0" x2="78.0" y2="128.0" stroke="#999" stroke-width="1"/>
<line x1="78.0" y1="128.0" x2="1100.0" y2="128.0" stroke="#e8e8e8" stroke-width="0.7" stroke-dasharray="4,3"/>
<text x="70.0" y="132.0" font-size="9" font-weight="normal" text-anchor="end" fill="#888" font-family="Arial,sans-serif">240</text>
<line x1="73.0" y1="120.7" x2="78.0" y2="120.7" stroke="#999" stroke-width="1"/>
<line x1="78.0" y1="120.7" x2="1100.0" y2="120.7" stroke="#e8e8e8" stroke-width="0.7" stroke-dasharray="4,3"/>
<text x="70.0" y="124.7" font-size="9" font-weight="normal" text-anchor="end" fill="#888" font-family="Arial,sans-serif">245</text>
<line x1="73.0" y1="113.3" x2="78.0" y2="113.3" stroke="#999" stroke-width="1"/>
<line x1="78.0" y1="113.3" x2="1100.0" y2="113.3" stroke="#e8e8e8" stroke-width="0.7" stroke-dasharray="4,3"/>
<text x="70.0" y="117.3" font-size="9" font-weight="normal" text-anchor="end" fill="#888" font-family="Arial,sans-serif">250</text>
<line x1="73.0" y1="106.0" x2="78.0" y2="106.0" stroke="#999" stroke-width="1"/>
<line x1="78.0" y1="106.0" x2="1100.0" y2="106.0" stroke="#e8e8e8" stroke-width="0.7" stroke-dasharray="4,3"/>
<text x="70.0" y="110.0" font-size="9" font-weight="normal" text-anchor="end" fill="#888" font-family="Arial,sans-serif">255</text>
<line x1="73.0" y1="98.7" x2="78.0" y2="98.7" stroke="#999" stroke-width="1"/>
<line x1="78.0" y1="98.7" x2="1100.0" y2="98.7" stroke="#e8e8e8" stroke-width="0.7" stroke-dasharray="4,3"/>
<text x="70.0" y="102.7" font-size="9" font-weight="normal" text-anchor="end" fill="#888" font-family="Arial,sans-serif">260</text>
<line x1="73.0" y1="91.3" x2="78.0" y2="91.3" stroke="#999" stroke-width="1"/>
<line x1="78.0" y1="91.3" x2="1100.0" y2="91.3" stroke="#e8e8e8" stroke-width="0.7" stroke-dasharray="4,3"/>
<text x="70.0" y="95.3" font-size="9" font-weight="normal" text-anchor="end" fill="#888" font-family="Arial,sans-serif">265</text>
<line x1="73.0" y1="84.0" x2="78.0" y2="84.0" stroke="#999" stroke-width="1"/>
<line x1="78.0" y1="84.0" x2="1100.0" y2="84.0" stroke="#e8e8e8" stroke-width="0.7" stroke-dasharray="4,3"/>
<text x="70.0" y="88.0" font-size="9" font-weight="normal" text-anchor="end" fill="#888" font-family="Arial,sans-serif">270</text>
<line x1="73.0" y1="76.7" x2="78.0" y2="76.7" stroke="#999" stroke-width="1"/>
<line x1="78.0" y1="76.7" x2="1100.0" y2="76.7" stroke="#e8e8e8" stroke-width="0.7" stroke-dasharray="4,3"/>
<text x="70.0" y="80.7" font-size="9" font-weight="normal" text-anchor="end" fill="#888" font-family="Arial,sans-serif">275</text>
<line x1="73.0" y1="69.3" x2="78.0" y2="69.3" stroke="#999" stroke-width="1"/>
<line x1="78.0" y1="69.3" x2="1100.0" y2="69.3" stroke="#e8e8e8" stroke-width="0.7" stroke-dasharray="4,3"/>
<text x="70.0" y="73.3" font-size="9" font-weight="normal" text-anchor="end" fill="#888" font-family="Arial,sans-serif">280</text>
<line x1="78.0" y1="480.0" x2="1100.0" y2="480.0" stroke="#999" stroke-width="1"/>
<line x1="333.5" y1="480.0" x2="333.5" y2="485.0" stroke="#999" stroke-width="1"/>
<line x1="333.5" y1="68.0" x2="333.5" y2="480.0" stroke="#e8e8e8" stroke-width="0.7" stroke-dasharray="4,3"/>
<text x="333.5" y="496.0" font-size="10" font-weight="normal" text-anchor="middle" fill="#888" font-family="Arial,sans-serif">3.135</text>
<line x1="589.0" y1="480.0" x2="589.0" y2="485.0" stroke="#999" stroke-width="1"/>
<line x1="589.0" y1="68.0" x2="589.0" y2="480.0" stroke="#e8e8e8" stroke-width="0.7" stroke-dasharray="4,3"/>
<text x="589.0" y="496.0" font-size="10" font-weight="normal" text-anchor="middle" fill="#888" font-family="Arial,sans-serif">3.3</text>
<line x1="844.5" y1="480.0" x2="844.5" y2="485.0" stroke="#999" stroke-width="1"/>
<line x1="844.5" y1="68.0" x2="844.5" y2="480.0" stroke="#e8e8e8" stroke-width="0.7" stroke-dasharray="4,3"/>
<text x="844.5" y="496.0" font-size="10" font-weight="normal" text-anchor="middle" fill="#888" font-family="Arial,sans-serif">3.465</text>
<text x="16.0" y="274.0" font-size="11" font-weight="normal" text-anchor="middle" fill="#555" font-family="Arial,sans-serif" transform="rotate(-90,16,274.0)">Undershoot [mV]</text>
<text x="589.0" y="550.0" font-size="11" font-weight="normal" text-anchor="middle" fill="#555" font-family="Arial,sans-serif">Vin Setpoint [V]</text>
<g class="series pmic-series" data-mode="PWM" data-chip="21988" data-temp="0" data-reg="DC2DC_ANA">
<path d="M 321.0,375.9 L 576.5,372.4 L 832.0,370.6" fill="none" stroke="#3498db" stroke-width="1.8" stroke-dasharray="5,3" opacity="0.6"/>
<circle cx="321.0" cy="375.9" r="6" fill="#3498db" stroke="white" opacity="1.0"/>
<circle cx="576.5" cy="372.4" r="6" fill="#3498db" stroke="white" opacity="1.0"/>
<circle cx="832.0" cy="370.6" r="6" fill="#3498db" stroke="white" opacity="1.0"/>
</g>
<g class="series pmic-series" data-mode="PWM" data-chip="21988" data-temp="25" data-reg="DC2DC_ANA">
<path d="M 326.0,379.2 L 581.5,380.4 L 837.0,379.7" fill="none" stroke="#e67e22" stroke-width="1.8" stroke-dasharray="5,3" opacity="0.6"/>
<circle cx="326.0" cy="379.2" r="6" fill="#e67e22" stroke="white" opacity="1.0"/>
<circle cx="581.5" cy="380.4" r="6" fill="#e67e22" stroke="white" opacity="1.0"/>
<circle cx="837.0" cy="379.7" r="6" fill="#e67e22" stroke="white" opacity="1.0"/>
</g>
<g class="series pmic-series" data-mode="PWM" data-chip="21988" data-temp="80" data-reg="DC2DC_ANA">
<path d="M 331.0,394.6 L 586.5,395.5 L 842.0,395.8" fill="none" stroke="#2ecc71" stroke-width="1.8" stroke-dasharray="5,3" opacity="0.6"/>
<circle cx="331.0" cy="394.6" r="6" fill="#2ecc71" stroke="white" opacity="1.0"/>
<circle cx="586.5" cy="395.5" r="6" fill="#2ecc71" stroke="white" opacity="1.0"/>
<circle cx="842.0" cy="395.8" r="6" fill="#2ecc71" stroke="white" opacity="1.0"/>
</g>
<g class="series pmic-series" data-mode="PWM" data-chip="31927" data-temp="0" data-reg="DC2DC_ANA">
<path d="M 336.0,369.7 L 591.5,370.6 L 847.0,370.0" fill="none" stroke="#9b59b6" stroke-width="1.8" stroke-dasharray="5,3" opacity="0.6"/>
<circle cx="336.0" cy="369.7" r="6" fill="#9b59b6" stroke="white" opacity="1.0"/>
<circle cx="591.5" cy="370.6" r="6" fill="#9b59b6" stroke="white" opacity="1.0"/>
<circle cx="847.0" cy="370.0" r="6" fill="#9b59b6" stroke="white" opacity="1.0"/>
</g>
<g class="series pmic-series" data-mode="PWM" data-chip="31927" data-temp="25" data-reg="DC2DC_ANA">
<path d="M 341.0,345.8 L 596.5,347.0 L 852.0,345.2" fill="none" stroke="#1abc9c" stroke-width="1.8" stroke-dasharray="5,3" opacity="0.6"/>
<circle cx="341.0" cy="345.8" r="6" fill="#1abc9c" stroke="white" opacity="1.0"/>
<circle cx="596.5" cy="347.0" r="6" fill="#1abc9c" stroke="white" opacity="1.0"/>
<circle cx="852.0" cy="345.2" r="6" fill="#1abc9c" stroke="white" opacity="1.0"/>
</g>
<g class="series pmic-series" data-mode="PWM" data-chip="31927" data-temp="80" data-reg="DC2DC_ANA">
<path d="M 346.0,97.8 L 601.5,99.1 L 857.0,103.7" fill="none" stroke="#e74c3c" stroke-width="1.8" stroke-dasharray="5,3" opacity="0.6"/>
<circle cx="346.0" cy="97.8" r="6" fill="#e74c3c" stroke="white" opacity="1.0"/>
<circle cx="601.5" cy="99.1" r="6" fill="#e74c3c" stroke="white" opacity="1.0"/>
<circle cx="857.0" cy="103.7" r="6" fill="#e74c3c" stroke="white" opacity="1.0"/>
</g>
<g class="legend-item" data-mode="PWM" data-chip="21988" data-temp="0" data-reg="DC2DC_ANA">
<rect x="1116.0" y="69.0" width="18.0" height="4.0" fill="#3498db" stroke="none" stroke-width="1" opacity="1.0" rx="2"/>
<circle cx="1125.0" cy="71.0" r="5" fill="#3498db" stroke="none" opacity="1.0"/>
<text x="1140.0" y="76.0" font-size="9" font-weight="normal" text-anchor="start" fill="#333" font-family="Arial,sans-serif">Ch21988 | T=0°C | step↑</text>
</g>
<g class="legend-item" data-mode="PWM" data-chip="21988" data-temp="25" data-reg="DC2DC_ANA">
<rect x="1116.0" y="86.0" width="18.0" height="4.0" fill="#e67e22" stroke="none" stroke-width="1" opacity="1.0" rx="2"/>
<circle cx="1125.0" cy="88.0" r="5" fill="#e67e22" stroke="none" opacity="1.0"/>
<text x="1140.0" y="93.0" font-size="9" font-weight="normal" text-anchor="start" fill="#333" font-family="Arial,sans-serif">Ch21988 | T=25°C | step↑</text>
</g>
<g class="legend-item" data-mode="PWM" data-chip="21988" data-temp="80" data-reg="DC2DC_ANA">
<rect x="1116.0" y="103.0" width="18.0" height="4.0" fill="#2ecc71" stroke="none" stroke-width="1" opacity="1.0" rx="2"/>
<circle cx="1125.0" cy="105.0" r="5" fill="#2ecc71" stroke="none" opacity="1.0"/>
<text x="1140.0" y="110.0" font-size="9" font-weight="normal" text-anchor="start" fill="#333" font-family="Arial,sans-serif">Ch21988 | T=80°C | step↑</text>
</g>
<g class="legend-item" data-mode="PWM" data-chip="31927" data-temp="0" data-reg="DC2DC_ANA">
<rect x="1116.0" y="120.0" width="18.0" height="4.0" fill="#9b59b6" stroke="none" stroke-width="1" opacity="1.0" rx="2"/>
<circle cx="1125.0" cy="122.0" r="5" fill="#9b59b6" stroke="none" opacity="1.0"/>
<text x="1140.0" y="127.0" font-size="9" font-weight="normal" text-anchor="start" fill="#333" font-family="Arial,sans-serif">Ch31927 | T=0°C | step↑</text>
</g>
<g class="legend-item" data-mode="PWM" data-chip="31927" data-temp="25" data-reg="DC2DC_ANA">
<rect x="1116.0" y="137.0" width="18.0" height="4.0" fill="#1abc9c" stroke="none" stroke-width="1" opacity="1.0" rx="2"/>
<circle cx="1125.0" cy="139.0" r="5" fill="#1abc9c" stroke="none" opacity="1.0"/>
<text x="1140.0" y="144.0" font-size="9" font-weight="normal" text-anchor="start" fill="#333" font-family="Arial,sans-serif">Ch31927 | T=25°C | step↑</text>
</g>
<g class="legend-item" data-mode="PWM" data-chip="31927" data-temp="80" data-reg="DC2DC_ANA">
<rect x="1116.0" y="154.0" width="18.0" height="4.0" fill="#e74c3c" stroke="none" stroke-width="1" opacity="1.0" rx="2"/>
<circle cx="1125.0" cy="156.0" r="5" fill="#e74c3c" stroke="none" opacity="1.0"/>
<text x="1140.0" y="161.0" font-size="9" font-weight="normal" text-anchor="start" fill="#333" font-family="Arial,sans-serif">Ch31927 | T=80°C | step↑</text>
</g>
<rect class="cursor-overlay" x="78.0" y="68.0" width="1022.0" height="412.0" fill="transparent" style="cursor:default" data-xmin="78" data-xmax="1100" data-ymin="0" data-ymax="280.92" data-pl="78.0" data-pr="1100.0" data-pt="68.0" data-pb="480.0"/>
<g class="cursor-layer" style="pointer-events:none;display:none"><line class="cur-v" x1="0" y1="68.0" x2="0" y2="480.0" stroke="#e74c3c" stroke-width="1.2" stroke-dasharray="5,3"/><line class="cur-h" x1="78.0" y1="0" x2="1100.0" y2="0" stroke="#e74c3c" stroke-width="1.2" stroke-dasharray="5,3"/><rect class="cur-tip-bg" x="0" y="0" width="148" height="44" rx="5" fill="#1a252f" stroke="#34495e" stroke-width="1" opacity="0.92"/><text class="cur-tip-x" x="0" y="0" font-size="11" font-family="Arial,sans-serif" fill="#ecf0f1"/><text class="cur-tip-y" x="0" y="0" font-size="11" font-family="Arial,sans-serif" fill="#2ecc71"/></g>
</svg>