<svg xmlns="http://www.w3.org/2000/svg" width="600" height="430" viewBox="0 0 600 430">
<rect width="600" height="430" fill="#ffffff"/>
<text x="300.0" y="28.0" font-size="16" font-weight="bold" text-anchor="middle" fill="#2c3e50" font-family="Arial,sans-serif">VOH - Measured vs Spec (V)</text>
<line x1="70.0" y1="370.0" x2="510.0" y2="370.0" stroke="#999" stroke-width="1"/>
<line x1="70.0" y1="55.0" x2="70.0" y2="370.0" stroke="#999" stroke-width="1"/>
<line x1="65.0" y1="370.0" x2="70.0" y2="370.0" stroke="#999" stroke-width="1"/>
<line x1="70.0" y1="370.0" x2="510.0" y2="370.0" stroke="#e0e0e0" stroke-width="0.8" stroke-dasharray="3,3"/>
<text x="62.0" y="374.0" font-size="9" font-weight="normal" text-anchor="end" fill="#7f8c8d" font-family="Arial,sans-serif">2.27</text>
<line x1="65.0" y1="307.0" x2="70.0" y2="307.0" stroke="#999" stroke-width="1"/>
<line x1="70.0" y1="307.0" x2="510.0" y2="307.0" stroke="#e0e0e0" stroke-width="0.8" stroke-dasharray="3,3"/>
<text x="62.0" y="311.0" font-size="9" font-weight="normal" text-anchor="end" fill="#7f8c8d" font-family="Arial,sans-serif">2.54</text>
<line x1="65.0" y1="244.0" x2="70.0" y2="244.0" stroke="#999" stroke-width="1"/>
<line x1="70.0" y1="244.0" x2="510.0" y2="244.0" stroke="#e0e0e0" stroke-width="0.8" stroke-dasharray="3,3"/>
<text x="62.0" y="248.0" font-size="9" font-weight="normal" text-anchor="end" fill="#7f8c8d" font-family="Arial,sans-serif">2.81</text>
<line x1="65.0" y1="181.0" x2="70.0" y2="181.0" stroke="#999" stroke-width="1"/>
<line x1="70.0" y1="181.0" x2="510.0" y2="181.0" stroke="#e0e0e0" stroke-width="0.8" stroke-dasharray="3,3"/>
<text x="62.0" y="185.0" font-size="9" font-weight="normal" text-anchor="end" fill="#7f8c8d" font-family="Arial,sans-serif">3.08</text>
<line x1="65.0" y1="118.0" x2="70.0" y2="118.0" stroke="#999" stroke-width="1"/>
<line x1="70.0" y1="118.0" x2="510.0" y2="118.0" stroke="#e0e0e0" stroke-width="0.8" stroke-dasharray="3,3"/>
<text x="62.0" y="122.0" font-size="9" font-weight="normal" text-anchor="end" fill="#7f8c8d" font-family="Arial,sans-serif">3.34</text>
<line x1="65.0" y1="55.0" x2="70.0" y2="55.0" stroke="#999" stroke-width="1"/>
<line x1="70.0" y1="55.0" x2="510.0" y2="55.0" stroke="#e0e0e0" stroke-width="0.8" stroke-dasharray="3,3"/>
<text x="62.0" y="59.0" font-size="9" font-weight="normal" text-anchor="end" fill="#7f8c8d" font-family="Arial,sans-serif">3.61</text>
<text x="14.0" y="215.0" font-size="11" font-weight="normal" text-anchor="middle" fill="#7f8c8d" font-family="Arial,sans-serif" transform="rotate(-90,14,215.0)">Value (V)</text>
<rect x="181.7" y="146.5" width="70.0" height="41.1" fill="#3498db" stroke="#3498db" stroke-width="1.5" opacity="0.25" rx="2"/>
<line x1="181.7" y1="170.2" x2="251.7" y2="170.2" stroke="#3498db" stroke-width="2.5"/>
<line x1="216.7" y1="187.6" x2="216.7" y2="236.7" stroke="#3498db" stroke-width="1"/>
<line x1="216.7" y1="146.5" x2="216.7" y2="85.5" stroke="#3498db" stroke-width="1"/>
<line x1="199.2" y1="236.7" x2="234.2" y2="236.7" stroke="#3498db" stroke-width="1"/>
<line x1="199.2" y1="85.5" x2="234.2" y2="85.5" stroke="#3498db" stroke-width="1"/>
<text x="216.7" y="388.0" font-size="11" font-weight="normal" text-anchor="middle" fill="#333" font-family="Arial,sans-serif">Flow1</text>
<rect x="515.0" y="55.0" width="10.0" height="10.0" fill="#3498db" stroke="none" stroke-width="1" opacity="0.7" rx="2"/>
<text x="528.0" y="64.0" font-size="9" font-weight="normal" text-anchor="start" fill="#333" font-family="Arial,sans-serif">Flow1</text>
<rect x="328.3" y="176.1" width="70.0" height="42.5" fill="#e67e22" stroke="#e67e22" stroke-width="1.5" opacity="0.25" rx="2"/>
<line x1="328.3" y1="184.9" x2="398.3" y2="184.9" stroke="#e67e22" stroke-width="2.5"/>
<line x1="363.3" y1="218.6" x2="363.3" y2="240.0" stroke="#e67e22" stroke-width="1"/>
<line x1="363.3" y1="176.1" x2="363.3" y2="125.1" stroke="#e67e22" stroke-width="1"/>
<line x1="345.8" y1="240.0" x2="380.8" y2="240.0" stroke="#e67e22" stroke-width="1"/>
<line x1="345.8" y1="125.1" x2="380.8" y2="125.1" stroke="#e67e22" stroke-width="1"/>
<circle cx="363.3" cy="313.2" r="3" fill="#e67e22" stroke="none" opacity="0.8"/>
<text x="363.3" y="388.0" font-size="11" font-weight="normal" text-anchor="middle" fill="#333" font-family="Arial,sans-serif">Flow2</text>
<rect x="515.0" y="73.0" width="10.0" height="10.0" fill="#e67e22" stroke="none" stroke-width="1" opacity="0.7" rx="2"/>
<text x="528.0" y="82.0" font-size="9" font-weight="normal" text-anchor="start" fill="#333" font-family="Arial,sans-serif">Flow2</text>
<line x1="70.0" y1="339.5" x2="510.0" y2="339.5" stroke="#e74c3c" stroke-width="1.8" stroke-dasharray="6,4"/>
<text x="513.0" y="343.5" font-size="9" font-weight="normal" text-anchor="start" fill="#e74c3c" font-family="Arial,sans-serif">Min:2.4</text>
</svg>