<svg xmlns="http://www.w3.org/2000/svg" width="850" height="400" viewBox="0 0 850 400">
<rect width="850" height="400" fill="#ffffff"/>
<text x="425.0" y="28.0" font-size="16" font-weight="bold" text-anchor="middle" fill="#2c3e50" font-family="Arial,sans-serif">Fall_Time - Per-DUT Results (ns)</text>
<line x1="70.0" y1="320.0" x2="820.0" y2="320.0" stroke="#999" stroke-width="1"/>
<line x1="70.0" y1="55.0" x2="70.0" y2="320.0" stroke="#999" stroke-width="1"/>
<line x1="65.0" y1="320.0" x2="70.0" y2="320.0" stroke="#999" stroke-width="1"/>
<line x1="70.0" y1="320.0" x2="820.0" y2="320.0" stroke="#e0e0e0" stroke-width="0.8" stroke-dasharray="3,3"/>
<text x="62.0" y="324.0" font-size="9" font-weight="normal" text-anchor="end" fill="#7f8c8d" font-family="Arial,sans-serif">0.565</text>
<line x1="65.0" y1="267.0" x2="70.0" y2="267.0" stroke="#999" stroke-width="1"/>
<line x1="70.0" y1="267.0" x2="820.0" y2="267.0" stroke="#e0e0e0" stroke-width="0.8" stroke-dasharray="3,3"/>
<text x="62.0" y="271.0" font-size="9" font-weight="normal" text-anchor="end" fill="#7f8c8d" font-family="Arial,sans-serif">1.55</text>
<line x1="65.0" y1="214.0" x2="70.0" y2="214.0" stroke="#999" stroke-width="1"/>
<line x1="70.0" y1="214.0" x2="820.0" y2="214.0" stroke="#e0e0e0" stroke-width="0.8" stroke-dasharray="3,3"/>
<text x="62.0" y="218.0" font-size="9" font-weight="normal" text-anchor="end" fill="#7f8c8d" font-family="Arial,sans-serif">2.53</text>
<line x1="65.0" y1="161.0" x2="70.0" y2="161.0" stroke="#999" stroke-width="1"/>
<line x1="70.0" y1="161.0" x2="820.0" y2="161.0" stroke="#e0e0e0" stroke-width="0.8" stroke-dasharray="3,3"/>
<text x="62.0" y="165.0" font-size="9" font-weight="normal" text-anchor="end" fill="#7f8c8d" font-family="Arial,sans-serif">3.51</text>
<line x1="65.0" y1="108.0" x2="70.0" y2="108.0" stroke="#999" stroke-width="1"/>
<line x1="70.0" y1="108.0" x2="820.0" y2="108.0" stroke="#e0e0e0" stroke-width="0.8" stroke-dasharray="3,3"/>
<text x="62.0" y="112.0" font-size="9" font-weight="normal" text-anchor="end" fill="#7f8c8d" font-family="Arial,sans-serif">4.49</text>
<line x1="65.0" y1="55.0" x2="70.0" y2="55.0" stroke="#999" stroke-width="1"/>
<line x1="70.0" y1="55.0" x2="820.0" y2="55.0" stroke="#e0e0e0" stroke-width="0.8" stroke-dasharray="3,3"/>
<text x="62.0" y="59.0" font-size="9" font-weight="normal" text-anchor="end" fill="#7f8c8d" font-family="Arial,sans-serif">5.48</text>
<text x="14.0" y="200.0" font-size="11" font-weight="normal" text-anchor="middle" fill="#7f8c8d" font-family="Arial,sans-serif" transform="rotate(-90,14,200.0)">Value (ns)</text>
<circle cx="85.0" cy="244.8" r="4" fill="#2ecc71" stroke="none" opacity="0.78"/>
<circle cx="115.0" cy="245.7" r="4" fill="#2ecc71" stroke="none" opacity="0.78"/>
<circle cx="145.0" cy="263.5" r="4" fill="#2ecc71" stroke="none" opacity="0.78"/>
<circle cx="175.0" cy="223.3" r="4" fill="#2ecc71" stroke="none" opacity="0.78"/>
<circle cx="205.0" cy="247.9" r="4" fill="#2ecc71" stroke="none" opacity="0.78"/>
<circle cx="235.0" cy="236.2" r="4" fill="#2ecc71" stroke="none" opacity="0.78"/>
<circle cx="265.0" cy="285.3" r="4" fill="#2ecc71" stroke="none" opacity="0.78"/>
<circle cx="295.0" cy="235.5" r="4" fill="#2ecc71" stroke="none" opacity="0.78"/>
<circle cx="325.0" cy="253.0" r="4" fill="#2ecc71" stroke="none" opacity="0.78"/>
<circle cx="355.0" cy="220.1" r="4" fill="#2ecc71" stroke="none" opacity="0.78"/>
<circle cx="385.0" cy="216.1" r="4" fill="#2ecc71" stroke="none" opacity="0.78"/>
<circle cx="415.0" cy="264.6" r="4" fill="#2ecc71" stroke="none" opacity="0.78"/>
<circle cx="445.0" cy="230.2" r="4" fill="#2ecc71" stroke="none" opacity="0.78"/>
<circle cx="475.0" cy="269.0" r="4" fill="#2ecc71" stroke="none" opacity="0.78"/>
<circle cx="505.0" cy="225.6" r="4" fill="#2ecc71" stroke="none" opacity="0.78"/>
<circle cx="535.0" cy="240.6" r="4" fill="#2ecc71" stroke="none" opacity="0.78"/>
<circle cx="565.0" cy="247.5" r="4" fill="#2ecc71" stroke="none" opacity="0.78"/>
<circle cx="595.0" cy="248.7" r="4" fill="#2ecc71" stroke="none" opacity="0.78"/>
<circle cx="625.0" cy="243.1" r="4" fill="#2ecc71" stroke="none" opacity="0.78"/>
<circle cx="655.0" cy="250.4" r="4" fill="#2ecc71" stroke="none" opacity="0.78"/>
<circle cx="685.0" cy="241.8" r="4" fill="#2ecc71" stroke="none" opacity="0.78"/>
<circle cx="715.0" cy="237.3" r="4" fill="#2ecc71" stroke="none" opacity="0.78"/>
<circle cx="745.0" cy="242.1" r="4" fill="#2ecc71" stroke="none" opacity="0.78"/>
<circle cx="775.0" cy="222.7" r="4" fill="#2ecc71" stroke="none" opacity="0.78"/>
<circle cx="805.0" cy="220.7" r="4" fill="#2ecc71" stroke="none" opacity="0.78"/>
<circle cx="88.0" cy="247.0" r="4" fill="#2ecc71" stroke="none" opacity="0.78"/>
<circle cx="118.0" cy="269.5" r="4" fill="#2ecc71" stroke="none" opacity="0.78"/>
<circle cx="148.0" cy="204.2" r="4" fill="#2ecc71" stroke="none" opacity="0.78"/>
<circle cx="178.0" cy="188.9" r="4" fill="#2ecc71" stroke="none" opacity="0.78"/>
<circle cx="208.0" cy="198.6" r="4" fill="#2ecc71" stroke="none" opacity="0.78"/>
<circle cx="238.0" cy="197.7" r="4" fill="#2ecc71" stroke="none" opacity="0.78"/>
<circle cx="268.0" cy="195.3" r="4" fill="#2ecc71" stroke="none" opacity="0.78"/>
<circle cx="298.0" cy="221.1" r="4" fill="#2ecc71" stroke="none" opacity="0.78"/>
<circle cx="328.0" cy="267.0" r="4" fill="#2ecc71" stroke="none" opacity="0.78"/>
<circle cx="358.0" cy="243.8" r="4" fill="#2ecc71" stroke="none" opacity="0.78"/>
<circle cx="388.0" cy="280.7" r="4" fill="#2ecc71" stroke="none" opacity="0.78"/>
<circle cx="418.0" cy="294.4" r="4" fill="#2ecc71" stroke="none" opacity="0.78"/>
<circle cx="448.0" cy="289.2" r="4" fill="#2ecc71" stroke="none" opacity="0.78"/>
<circle cx="478.0" cy="210.9" r="4" fill="#2ecc71" stroke="none" opacity="0.78"/>
<circle cx="508.0" cy="283.8" r="4" fill="#2ecc71" stroke="none" opacity="0.78"/>
<circle cx="538.0" cy="171.8" r="4" fill="#2ecc71" stroke="none" opacity="0.78"/>
<circle cx="568.0" cy="252.9" r="4" fill="#2ecc71" stroke="none" opacity="0.78"/>
<circle cx="598.0" cy="175.8" r="4" fill="#2ecc71" stroke="none" opacity="0.78"/>
<circle cx="628.0" cy="243.7" r="4" fill="#2ecc71" stroke="none" opacity="0.78"/>
<circle cx="658.0" cy="209.9" r="4" fill="#2ecc71" stroke="none" opacity="0.78"/>
<circle cx="688.0" cy="214.3" r="4" fill="#2ecc71" stroke="none" opacity="0.78"/>
<circle cx="718.0" cy="247.7" r="4" fill="#2ecc71" stroke="none" opacity="0.78"/>
<circle cx="748.0" cy="179.6" r="4" fill="#2ecc71" stroke="none" opacity="0.78"/>
<circle cx="778.0" cy="199.9" r="4" fill="#2ecc71" stroke="none" opacity="0.78"/>
<circle cx="808.0" cy="314.5" r="4" fill="#2ecc71" stroke="none" opacity="0.78"/>
<text x="85.0" y="336.0" font-size="8" font-weight="normal" text-anchor="end" fill="#333" font-family="Arial,sans-serif" transform="rotate(-45,85.0,336)">DUT_001</text>
<text x="115.0" y="336.0" font-size="8" font-weight="normal" text-anchor="end" fill="#333" font-family="Arial,sans-serif" transform="rotate(-45,115.0,336)">DUT_002</text>
<text x="145.0" y="336.0" font-size="8" font-weight="normal" text-anchor="end" fill="#333" font-family="Arial,sans-serif" transform="rotate(-45,145.0,336)">DUT_003</text>
<text x="175.0" y="336.0" font-size="8" font-weight="normal" text-anchor="end" fill="#333" font-family="Arial,sans-serif" transform="rotate(-45,175.0,336)">DUT_004</text>
<text x="205.0" y="336.0" font-size="8" font-weight="normal" text-anchor="end" fill="#333" font-family="Arial,sans-serif" transform="rotate(-45,205.0,336)">DUT_005</text>
<text x="235.0" y="336.0" font-size="8" font-weight="normal" text-anchor="end" fill="#333" font-family="Arial,sans-serif" transform="rotate(-45,235.0,336)">DUT_006</text>
<text x="265.0" y="336.0" font-size="8" font-weight="normal" text-anchor="end" fill="#333" font-family="Arial,sans-serif" transform="rotate(-45,265.0,336)">DUT_007</text>
<text x="295.0" y="336.0" font-size="8" font-weight="normal" text-anchor="end" fill="#333" font-family="Arial,sans-serif" transform="rotate(-45,295.0,336)">DUT_008</text>
<text x="325.0" y="336.0" font-size="8" font-weight="normal" text-anchor="end" fill="#333" font-family="Arial,sans-serif" transform="rotate(-45,325.0,336)">DUT_009</text>
<text x="355.0" y="336.0" font-size="8" font-weight="normal" text-anchor="end" fill="#333" font-family="Arial,sans-serif" transform="rotate(-45,355.0,336)">DUT_010</text>
<text x="385.0" y="336.0" font-size="8" font-weight="normal" text-anchor="end" fill="#333" font-family="Arial,sans-serif" transform="rotate(-45,385.0,336)">DUT_011</text>
<text x="415.0" y="336.0" font-size="8" font-weight="normal" text-anchor="end" fill="#333" font-family="Arial,sans-serif" transform="rotate(-45,415.0,336)">DUT_012</text>
<text x="445.0" y="336.0" font-size="8" font-weight="normal" text-anchor="end" fill="#333" font-family="Arial,sans-serif" transform="rotate(-45,445.0,336)">DUT_013</text>
<text x="475.0" y="336.0" font-size="8" font-weight="normal" text-anchor="end" fill="#333" font-family="Arial,sans-serif" transform="rotate(-45,475.0,336)">DUT_014</text>
<text x="505.0" y="336.0" font-size="8" font-weight="normal" text-anchor="end" fill="#333" font-family="Arial,sans-serif" transform="rotate(-45,505.0,336)">DUT_015</text>
<text x="535.0" y="336.0" font-size="8" font-weight="normal" text-anchor="end" fill="#333" font-family="Arial,sans-serif" transform="rotate(-45,535.0,336)">DUT_016</text>
<text x="565.0" y="336.0" font-size="8" font-weight="normal" text-anchor="end" fill="#333" font-family="Arial,sans-serif" transform="rotate(-45,565.0,336)">DUT_017</text>
<text x="595.0" y="336.0" font-size="8" font-weight="normal" text-anchor="end" fill="#333" font-family="Arial,sans-serif" transform="rotate(-45,595.0,336)">DUT_018</text>
<text x="625.0" y="336.0" font-size="8" font-weight="normal" text-anchor="end" fill="#333" font-family="Arial,sans-serif" transform="rotate(-45,625.0,336)">DUT_019</text>
<text x="655.0" y="336.0" font-size="8" font-weight="normal" text-anchor="end" fill="#333" font-family="Arial,sans-serif" transform="rotate(-45,655.0,336)">DUT_020</text>
<text x="685.0" y="336.0" font-size="8" font-weight="normal" text-anchor="end" fill="#333" font-family="Arial,sans-serif" transform="rotate(-45,685.0,336)">DUT_021</text>
<text x="715.0" y="336.0" font-size="8" font-weight="normal" text-anchor="end" fill="#333" font-family="Arial,sans-serif" transform="rotate(-45,715.0,336)">DUT_022</text>
<text x="745.0" y="336.0" font-size="8" font-weight="normal" text-anchor="end" fill="#333" font-family="Arial,sans-serif" transform="rotate(-45,745.0,336)">DUT_023</text>
<text x="775.0" y="336.0" font-size="8" font-weight="normal" text-anchor="end" fill="#333" font-family="Arial,sans-serif" transform="rotate(-45,775.0,336)">DUT_024</text>
<text x="805.0" y="336.0" font-size="8" font-weight="normal" text-anchor="end" fill="#333" font-family="Arial,sans-serif" transform="rotate(-45,805.0,336)">DUT_025</text>
<line x1="70.0" y1="80.6" x2="820.0" y2="80.6" stroke="#e74c3c" stroke-width="1.8" stroke-dasharray="4,4"/>
<circle cx="76.0" cy="33.0" r="5" fill="#3498db" stroke="none" opacity="0.78"/>
<text x="84.0" y="37.0" font-size="10" font-weight="normal" text-anchor="start" fill="#333" font-family="Arial,sans-serif">Flow1</text>
<circle cx="176.0" cy="33.0" r="5" fill="#e67e22" stroke="none" opacity="0.78"/>
<text x="184.0" y="37.0" font-size="10" font-weight="normal" text-anchor="start" fill="#333" font-family="Arial,sans-serif">Flow2</text>
<circle cx="276.0" cy="33.0" r="5" fill="#2ecc71" stroke="none" opacity="0.78"/>
<text x="284.0" y="37.0" font-size="10" font-weight="normal" text-anchor="start" fill="#333" font-family="Arial,sans-serif">Pass</text>
<circle cx="376.0" cy="33.0" r="5" fill="#e74c3c" stroke="none" opacity="0.78"/>
<text x="384.0" y="37.0" font-size="10" font-weight="normal" text-anchor="start" fill="#333" font-family="Arial,sans-serif">Fail</text>
</svg>