<svg xmlns="http://www.w3.org/2000/svg" width="1400" height="520" viewBox="0 0 1400 520">
<rect width="1400" height="520" fill="#ffffff"/>
<text x="700.0" y="28.0" font-size="16" font-weight="bold" text-anchor="middle" fill="#2c3e50" font-family="Arial,sans-serif">Static Line Regulation — Digital DC2DC  Vout=0.8V  [PFM]  Iload=200mA</text>
<line x1="78.0" y1="68.0" x2="78.0" y2="440.0" stroke="#999" stroke-width="1"/>
<line x1="73.0" y1="440.0" x2="78.0" y2="440.0" stroke="#999" stroke-width="1"/>
<line x1="78.0" y1="440.0" x2="1100.0" y2="440.0" stroke="#e8e8e8" stroke-width="0.7" stroke-dasharray="4,3"/>
<text x="70.0" y="444.0" font-size="9" font-weight="normal" text-anchor="end" fill="#888" font-family="Arial,sans-serif">-0.00368</text>
<line x1="73.0" y1="365.6" x2="78.0" y2="365.6" stroke="#999" stroke-width="1"/>
<line x1="78.0" y1="365.6" x2="1100.0" y2="365.6" stroke="#e8e8e8" stroke-width="0.7" stroke-dasharray="4,3"/>
<text x="70.0" y="369.6" font-size="9" font-weight="normal" text-anchor="end" fill="#888" font-family="Arial,sans-serif">-0.00345</text>
<line x1="73.0" y1="291.2" x2="78.0" y2="291.2" stroke="#999" stroke-width="1"/>
<line x1="78.0" y1="291.2" x2="1100.0" y2="291.2" stroke="#e8e8e8" stroke-width="0.7" stroke-dasharray="4,3"/>
<text x="70.0" y="295.2" font-size="9" font-weight="normal" text-anchor="end" fill="#888" font-family="Arial,sans-serif">-0.00322</text>
<line x1="73.0" y1="216.8" x2="78.0" y2="216.8" stroke="#999" stroke-width="1"/>
<line x1="78.0" y1="216.8" x2="1100.0" y2="216.8" stroke="#e8e8e8" stroke-width="0.7" stroke-dasharray="4,3"/>
<text x="70.0" y="220.8" font-size="9" font-weight="normal" text-anchor="end" fill="#888" font-family="Arial,sans-serif">-0.00298</text>
<line x1="73.0" y1="142.4" x2="78.0" y2="142.4" stroke="#999" stroke-width="1"/>
<line x1="78.0" y1="142.4" x2="1100.0" y2="142.4" stroke="#e8e8e8" stroke-width="0.7" stroke-dasharray="4,3"/>
<text x="70.0" y="146.4" font-size="9" font-weight="normal" text-anchor="end" fill="#888" font-family="Arial,sans-serif">-0.00275</text>
<line x1="73.0" y1="68.0" x2="78.0" y2="68.0" stroke="#999" stroke-width="1"/>
<line x1="78.0" y1="68.0" x2="1100.0" y2="68.0" stroke="#e8e8e8" stroke-width="0.7" stroke-dasharray="4,3"/>
<text x="70.0" y="72.0" font-size="9" font-weight="normal" text-anchor="end" fill="#888" font-family="Arial,sans-serif">-0.00252</text>
<line x1="78.0" y1="440.0" x2="1100.0" y2="440.0" stroke="#999" stroke-width="1"/>
<line x1="78.0" y1="440.0" x2="78.0" y2="445.0" stroke="#999" stroke-width="1"/>
<line x1="78.0" y1="68.0" x2="78.0" y2="440.0" stroke="#e8e8e8" stroke-width="0.7" stroke-dasharray="4,3"/>
<text x="78.0" y="456.0" font-size="9" font-weight="normal" text-anchor="middle" fill="#888" font-family="Arial,sans-serif">2.45</text>
<line x1="224.0" y1="440.0" x2="224.0" y2="445.0" stroke="#999" stroke-width="1"/>
<line x1="224.0" y1="68.0" x2="224.0" y2="440.0" stroke="#e8e8e8" stroke-width="0.7" stroke-dasharray="4,3"/>
<text x="224.0" y="456.0" font-size="9" font-weight="normal" text-anchor="middle" fill="#888" font-family="Arial,sans-serif">2.62</text>
<line x1="370.0" y1="440.0" x2="370.0" y2="445.0" stroke="#999" stroke-width="1"/>
<line x1="370.0" y1="68.0" x2="370.0" y2="440.0" stroke="#e8e8e8" stroke-width="0.7" stroke-dasharray="4,3"/>
<text x="370.0" y="456.0" font-size="9" font-weight="normal" text-anchor="middle" fill="#888" font-family="Arial,sans-serif">2.79</text>
<line x1="516.0" y1="440.0" x2="516.0" y2="445.0" stroke="#999" stroke-width="1"/>
<line x1="516.0" y1="68.0" x2="516.0" y2="440.0" stroke="#e8e8e8" stroke-width="0.7" stroke-dasharray="4,3"/>
<text x="516.0" y="456.0" font-size="9" font-weight="normal" text-anchor="middle" fill="#888" font-family="Arial,sans-serif">2.96</text>
<line x1="662.0" y1="440.0" x2="662.0" y2="445.0" stroke="#999" stroke-width="1"/>
<line x1="662.0" y1="68.0" x2="662.0" y2="440.0" stroke="#e8e8e8" stroke-width="0.7" stroke-dasharray="4,3"/>
<text x="662.0" y="456.0" font-size="9" font-weight="normal" text-anchor="middle" fill="#888" font-family="Arial,sans-serif">3.13</text>
<line x1="808.0" y1="440.0" x2="808.0" y2="445.0" stroke="#999" stroke-width="1"/>
<line x1="808.0" y1="68.0" x2="808.0" y2="440.0" stroke="#e8e8e8" stroke-width="0.7" stroke-dasharray="4,3"/>
<text x="808.0" y="456.0" font-size="9" font-weight="normal" text-anchor="middle" fill="#888" font-family="Arial,sans-serif">3.29</text>
<line x1="954.0" y1="440.0" x2="954.0" y2="445.0" stroke="#999" stroke-width="1"/>
<line x1="954.0" y1="68.0" x2="954.0" y2="440.0" stroke="#e8e8e8" stroke-width="0.7" stroke-dasharray="4,3"/>
<text x="954.0" y="456.0" font-size="9" font-weight="normal" text-anchor="middle" fill="#888" font-family="Arial,sans-serif">3.46</text>
<line x1="1100.0" y1="440.0" x2="1100.0" y2="445.0" stroke="#999" stroke-width="1"/>
<line x1="1100.0" y1="68.0" x2="1100.0" y2="440.0" stroke="#e8e8e8" stroke-width="0.7" stroke-dasharray="4,3"/>
<text x="1100.0" y="456.0" font-size="9" font-weight="normal" text-anchor="middle" fill="#888" font-family="Arial,sans-serif">3.63</text>
<text x="16.0" y="254.0" font-size="11" font-weight="normal" text-anchor="middle" fill="#555" font-family="Arial,sans-serif" transform="rotate(-90,16,254.0)">Output Voltage  Vout [V]</text>
<text x="589.0" y="510.0" font-size="11" font-weight="normal" text-anchor="middle" fill="#555" font-family="Arial,sans-serif">Input Voltage  Vin [V]</text>
<g class="series pmic-series" data-mode="PFM" data-chip="21988" data-temp="0" data-reg="DC2DC_DIG">
<path d="M 124.5,318.1 L 150.2,318.1 L 176.0,286.1 L 201.9,318.1 L 227.7,350.2 L 253.5,318.1 L 279.2,318.1 L 305.0,350.2 L 330.8,318.1 L 356.9,350.2 L 382.6,286.1 L 408.4,318.1 L 434.2,286.1 L 460.0,286.1 L 485.7,318.1 L 511.7,318.1 L 537.5,286.1 L 563.2,286.1 L 589.0,286.1 L 614.8,286.1 L 640.6,254.0 L 666.5,254.0 L 692.4,286.1 L 718.1,254.0 L 743.9,254.0 L 769.6,221.9 L 795.5,221.9 L 821.4,254.0 L 847.2,221.9 L 872.9,221.9 L 898.7,286.1 L 924.6,221.9 L 950.2,221.9 L 976.2,221.9 L 1001.9,286.1 L 1027.8,286.1 L 1053.5,254.0" fill="none" stroke="#3498db" stroke-width="2.2" stroke-linejoin="round" opacity="0.9"/>
<circle cx="124.5" cy="318.1" r="4" fill="#3498db" stroke="white" opacity="1.0"/>
<circle cx="150.2" cy="318.1" r="4" fill="#3498db" stroke="white" opacity="1.0"/>
<circle cx="176.0" cy="286.1" r="4" fill="#3498db" stroke="white" opacity="1.0"/>
<circle cx="201.9" cy="318.1" r="4" fill="#3498db" stroke="white" opacity="1.0"/>
<circle cx="227.7" cy="350.2" r="4" fill="#3498db" stroke="white" opacity="1.0"/>
<circle cx="253.5" cy="318.1" r="4" fill="#3498db" stroke="white" opacity="1.0"/>
<circle cx="279.2" cy="318.1" r="4" fill="#3498db" stroke="white" opacity="1.0"/>
<circle cx="305.0" cy="350.2" r="4" fill="#3498db" stroke="white" opacity="1.0"/>
<circle cx="330.8" cy="318.1" r="4" fill="#3498db" stroke="white" opacity="1.0"/>
<circle cx="356.9" cy="350.2" r="4" fill="#3498db" stroke="white" opacity="1.0"/>
<circle cx="382.6" cy="286.1" r="4" fill="#3498db" stroke="white" opacity="1.0"/>
<circle cx="408.4" cy="318.1" r="4" fill="#3498db" stroke="white" opacity="1.0"/>
<circle cx="434.2" cy="286.1" r="4" fill="#3498db" stroke="white" opacity="1.0"/>
<circle cx="460.0" cy="286.1" r="4" fill="#3498db" stroke="white" opacity="1.0"/>
<circle cx="485.7" cy="318.1" r="4" fill="#3498db" stroke="white" opacity="1.0"/>
<circle cx="511.7" cy="318.1" r="4" fill="#3498db" stroke="white" opacity="1.0"/>
<circle cx="537.5" cy="286.1" r="4" fill="#3498db" stroke="white" opacity="1.0"/>
<circle cx="563.2" cy="286.1" r="4" fill="#3498db" stroke="white" opacity="1.0"/>
<circle cx="589.0" cy="286.1" r="4" fill="#3498db" stroke="white" opacity="1.0"/>
<circle cx="614.8" cy="286.1" r="4" fill="#3498db" stroke="white" opacity="1.0"/>
<circle cx="640.6" cy="254.0" r="4" fill="#3498db" stroke="white" opacity="1.0"/>
<circle cx="666.5" cy="254.0" r="4" fill="#3498db" stroke="white" opacity="1.0"/>
<circle cx="692.4" cy="286.1" r="4" fill="#3498db" stroke="white" opacity="1.0"/>
<circle cx="718.1" cy="254.0" r="4" fill="#3498db" stroke="white" opacity="1.0"/>
<circle cx="743.9" cy="254.0" r="4" fill="#3498db" stroke="white" opacity="1.0"/>
<circle cx="769.6" cy="221.9" r="4" fill="#3498db" stroke="white" opacity="1.0"/>
<circle cx="795.5" cy="221.9" r="4" fill="#3498db" stroke="white" opacity="1.0"/>
<circle cx="821.4" cy="254.0" r="4" fill="#3498db" stroke="white" opacity="1.0"/>
<circle cx="847.2" cy="221.9" r="4" fill="#3498db" stroke="white" opacity="1.0"/>
<circle cx="872.9" cy="221.9" r="4" fill="#3498db" stroke="white" opacity="1.0"/>
<circle cx="898.7" cy="286.1" r="4" fill="#3498db" stroke="white" opacity="1.0"/>
<circle cx="924.6" cy="221.9" r="4" fill="#3498db" stroke="white" opacity="1.0"/>
<circle cx="950.2" cy="221.9" r="4" fill="#3498db" stroke="white" opacity="1.0"/>
<circle cx="976.2" cy="221.9" r="4" fill="#3498db" stroke="white" opacity="1.0"/>
<circle cx="1001.9" cy="286.1" r="4" fill="#3498db" stroke="white" opacity="1.0"/>
<circle cx="1027.8" cy="286.1" r="4" fill="#3498db" stroke="white" opacity="1.0"/>
<circle cx="1053.5" cy="254.0" r="4" fill="#3498db" stroke="white" opacity="1.0"/>
</g>
<g class="series pmic-series" data-mode="PFM" data-chip="21988" data-temp="25" data-reg="DC2DC_DIG">
<path d="M 124.5,221.9 L 150.2,254.0 L 176.0,221.9 L 201.8,221.9 L 227.7,189.9 L 253.5,157.8 L 279.2,221.9 L 305.0,221.9 L 330.8,221.9 L 356.8,189.9 L 382.5,157.8 L 408.4,93.7 L 434.2,189.9 L 460.0,189.9 L 485.7,221.9 L 511.7,254.0 L 537.5,189.9 L 563.2,221.9 L 589.0,189.9 L 614.8,221.9 L 640.6,254.0 L 666.5,254.0 L 692.4,221.9 L 718.1,189.9 L 743.9,254.0 L 769.6,221.9 L 795.5,189.9 L 821.4,254.0 L 847.2,221.9 L 872.9,286.1 L 898.7,254.0 L 924.6,221.9 L 950.2,254.0 L 976.2,254.0 L 1001.9,286.1 L 1027.8,254.0 L 1053.5,254.0" fill="none" stroke="#e67e22" stroke-width="2.2" stroke-linejoin="round" opacity="0.9"/>
<circle cx="124.5" cy="221.9" r="4" fill="#e67e22" stroke="white" opacity="1.0"/>
<circle cx="150.2" cy="254.0" r="4" fill="#e67e22" stroke="white" opacity="1.0"/>
<circle cx="176.0" cy="221.9" r="4" fill="#e67e22" stroke="white" opacity="1.0"/>
<circle cx="201.8" cy="221.9" r="4" fill="#e67e22" stroke="white" opacity="1.0"/>
<circle cx="227.7" cy="189.9" r="4" fill="#e67e22" stroke="white" opacity="1.0"/>
<circle cx="253.5" cy="157.8" r="4" fill="#e67e22" stroke="white" opacity="1.0"/>
<circle cx="279.2" cy="221.9" r="4" fill="#e67e22" stroke="white" opacity="1.0"/>
<circle cx="305.0" cy="221.9" r="4" fill="#e67e22" stroke="white" opacity="1.0"/>
<circle cx="330.8" cy="221.9" r="4" fill="#e67e22" stroke="white" opacity="1.0"/>
<circle cx="356.8" cy="189.9" r="4" fill="#e67e22" stroke="white" opacity="1.0"/>
<circle cx="382.5" cy="157.8" r="4" fill="#e67e22" stroke="white" opacity="1.0"/>
<circle cx="408.4" cy="93.7" r="4" fill="#e67e22" stroke="white" opacity="1.0"/>
<circle cx="434.2" cy="189.9" r="4" fill="#e67e22" stroke="white" opacity="1.0"/>
<circle cx="460.0" cy="189.9" r="4" fill="#e67e22" stroke="white" opacity="1.0"/>
<circle cx="485.7" cy="221.9" r="4" fill="#e67e22" stroke="white" opacity="1.0"/>
<circle cx="511.7" cy="254.0" r="4" fill="#e67e22" stroke="white" opacity="1.0"/>
<circle cx="537.5" cy="189.9" r="4" fill="#e67e22" stroke="white" opacity="1.0"/>
<circle cx="563.2" cy="221.9" r="4" fill="#e67e22" stroke="white" opacity="1.0"/>
<circle cx="589.0" cy="189.9" r="4" fill="#e67e22" stroke="white" opacity="1.0"/>
<circle cx="614.8" cy="221.9" r="4" fill="#e67e22" stroke="white" opacity="1.0"/>
<circle cx="640.6" cy="254.0" r="4" fill="#e67e22" stroke="white" opacity="1.0"/>
<circle cx="666.5" cy="254.0" r="4" fill="#e67e22" stroke="white" opacity="1.0"/>
<circle cx="692.4" cy="221.9" r="4" fill="#e67e22" stroke="white" opacity="1.0"/>
<circle cx="718.1" cy="189.9" r="4" fill="#e67e22" stroke="white" opacity="1.0"/>
<circle cx="743.9" cy="254.0" r="4" fill="#e67e22" stroke="white" opacity="1.0"/>
<circle cx="769.6" cy="221.9" r="4" fill="#e67e22" stroke="white" opacity="1.0"/>
<circle cx="795.5" cy="189.9" r="4" fill="#e67e22" stroke="white" opacity="1.0"/>
<circle cx="821.4" cy="254.0" r="4" fill="#e67e22" stroke="white" opacity="1.0"/>
<circle cx="847.2" cy="221.9" r="4" fill="#e67e22" stroke="white" opacity="1.0"/>
<circle cx="872.9" cy="286.1" r="4" fill="#e67e22" stroke="white" opacity="1.0"/>
<circle cx="898.7" cy="254.0" r="4" fill="#e67e22" stroke="white" opacity="1.0"/>
<circle cx="924.6" cy="221.9" r="4" fill="#e67e22" stroke="white" opacity="1.0"/>
<circle cx="950.2" cy="254.0" r="4" fill="#e67e22" stroke="white" opacity="1.0"/>
<circle cx="976.2" cy="254.0" r="4" fill="#e67e22" stroke="white" opacity="1.0"/>
<circle cx="1001.9" cy="286.1" r="4" fill="#e67e22" stroke="white" opacity="1.0"/>
<circle cx="1027.8" cy="254.0" r="4" fill="#e67e22" stroke="white" opacity="1.0"/>
<circle cx="1053.5" cy="254.0" r="4" fill="#e67e22" stroke="white" opacity="1.0"/>
</g>
<g class="series pmic-series" data-mode="PFM" data-chip="21988" data-temp="80" data-reg="DC2DC_DIG">
<path d="M 124.5,286.1 L 150.2,286.1 L 176.0,286.1 L 201.8,318.1 L 227.7,318.1 L 253.5,286.1 L 279.2,350.2 L 305.0,318.1 L 330.8,350.2 L 356.8,318.1 L 382.6,350.2 L 408.4,350.2 L 434.2,286.1 L 460.0,286.1 L 485.7,286.1 L 511.7,318.1 L 537.5,318.1 L 563.3,254.0 L 589.0,318.1 L 614.8,318.1 L 640.6,318.1 L 666.5,350.2 L 692.4,286.1 L 718.1,350.2 L 743.9,318.1 L 769.6,318.1 L 795.5,286.1 L 821.4,318.1 L 847.2,318.1 L 872.9,286.1 L 898.7,286.1 L 924.5,286.1 L 950.2,286.1 L 976.2,254.0 L 1001.9,318.1 L 1027.8,286.1 L 1053.5,318.1" fill="none" stroke="#2ecc71" stroke-width="2.2" stroke-linejoin="round" opacity="0.9"/>
<circle cx="124.5" cy="286.1" r="4" fill="#2ecc71" stroke="white" opacity="1.0"/>
<circle cx="150.2" cy="286.1" r="4" fill="#2ecc71" stroke="white" opacity="1.0"/>
<circle cx="176.0" cy="286.1" r="4" fill="#2ecc71" stroke="white" opacity="1.0"/>
<circle cx="201.8" cy="318.1" r="4" fill="#2ecc71" stroke="white" opacity="1.0"/>
<circle cx="227.7" cy="318.1" r="4" fill="#2ecc71" stroke="white" opacity="1.0"/>
<circle cx="253.5" cy="286.1" r="4" fill="#2ecc71" stroke="white" opacity="1.0"/>
<circle cx="279.2" cy="350.2" r="4" fill="#2ecc71" stroke="white" opacity="1.0"/>
<circle cx="305.0" cy="318.1" r="4" fill="#2ecc71" stroke="white" opacity="1.0"/>
<circle cx="330.8" cy="350.2" r="4" fill="#2ecc71" stroke="white" opacity="1.0"/>
<circle cx="356.8" cy="318.1" r="4" fill="#2ecc71" stroke="white" opacity="1.0"/>
<circle cx="382.6" cy="350.2" r="4" fill="#2ecc71" stroke="white" opacity="1.0"/>
<circle cx="408.4" cy="350.2" r="4" fill="#2ecc71" stroke="white" opacity="1.0"/>
<circle cx="434.2" cy="286.1" r="4" fill="#2ecc71" stroke="white" opacity="1.0"/>
<circle cx="460.0" cy="286.1" r="4" fill="#2ecc71" stroke="white" opacity="1.0"/>
<circle cx="485.7" cy="286.1" r="4" fill="#2ecc71" stroke="white" opacity="1.0"/>
<circle cx="511.7" cy="318.1" r="4" fill="#2ecc71" stroke="white" opacity="1.0"/>
<circle cx="537.5" cy="318.1" r="4" fill="#2ecc71" stroke="white" opacity="1.0"/>
<circle cx="563.3" cy="254.0" r="4" fill="#2ecc71" stroke="white" opacity="1.0"/>
<circle cx="589.0" cy="318.1" r="4" fill="#2ecc71" stroke="white" opacity="1.0"/>
<circle cx="614.8" cy="318.1" r="4" fill="#2ecc71" stroke="white" opacity="1.0"/>
<circle cx="640.6" cy="318.1" r="4" fill="#2ecc71" stroke="white" opacity="1.0"/>
<circle cx="666.5" cy="350.2" r="4" fill="#2ecc71" stroke="white" opacity="1.0"/>
<circle cx="692.4" cy="286.1" r="4" fill="#2ecc71" stroke="white" opacity="1.0"/>
<circle cx="718.1" cy="350.2" r="4" fill="#2ecc71" stroke="white" opacity="1.0"/>
<circle cx="743.9" cy="318.1" r="4" fill="#2ecc71" stroke="white" opacity="1.0"/>
<circle cx="769.6" cy="318.1" r="4" fill="#2ecc71" stroke="white" opacity="1.0"/>
<circle cx="795.5" cy="286.1" r="4" fill="#2ecc71" stroke="white" opacity="1.0"/>
<circle cx="821.4" cy="318.1" r="4" fill="#2ecc71" stroke="white" opacity="1.0"/>
<circle cx="847.2" cy="318.1" r="4" fill="#2ecc71" stroke="white" opacity="1.0"/>
<circle cx="872.9" cy="286.1" r="4" fill="#2ecc71" stroke="white" opacity="1.0"/>
<circle cx="898.7" cy="286.1" r="4" fill="#2ecc71" stroke="white" opacity="1.0"/>
<circle cx="924.5" cy="286.1" r="4" fill="#2ecc71" stroke="white" opacity="1.0"/>
<circle cx="950.2" cy="286.1" r="4" fill="#2ecc71" stroke="white" opacity="1.0"/>
<circle cx="976.2" cy="254.0" r="4" fill="#2ecc71" stroke="white" opacity="1.0"/>
<circle cx="1001.9" cy="318.1" r="4" fill="#2ecc71" stroke="white" opacity="1.0"/>
<circle cx="1027.8" cy="286.1" r="4" fill="#2ecc71" stroke="white" opacity="1.0"/>
<circle cx="1053.5" cy="318.1" r="4" fill="#2ecc71" stroke="white" opacity="1.0"/>
</g>
<g class="series pmic-series" data-mode="PFM" data-chip="31927" data-temp="0" data-reg="DC2DC_DIG">
<path d="M 124.5,382.3 L 150.2,318.1 L 176.0,318.1 L 201.8,318.1 L 227.7,318.1 L 279.2,414.3 L 305.0,382.3 L 330.8,350.2 L 356.8,318.1 L 382.5,350.2 L 408.3,382.3 L 434.1,318.1 L 460.0,350.2 L 485.7,318.1 L 511.7,350.2 L 537.5,286.1 L 563.2,254.0 L 589.0,286.1 L 614.8,286.1 L 640.6,350.2 L 666.5,318.1 L 692.4,350.2 L 718.1,350.2 L 743.9,414.3 L 769.6,382.3 L 795.5,350.2 L 821.4,318.1 L 847.2,382.3 L 872.9,350.2 L 898.7,350.2 L 924.5,318.1 L 950.2,318.1 L 976.2,286.1 L 1001.9,350.2 L 1027.8,318.1 L 1053.5,350.2" fill="none" stroke="#9b59b6" stroke-width="2.2" stroke-linejoin="round" opacity="0.9"/>
<circle cx="124.5" cy="382.3" r="4" fill="#9b59b6" stroke="white" opacity="1.0"/>
<circle cx="150.2" cy="318.1" r="4" fill="#9b59b6" stroke="white" opacity="1.0"/>
<circle cx="176.0" cy="318.1" r="4" fill="#9b59b6" stroke="white" opacity="1.0"/>
<circle cx="201.8" cy="318.1" r="4" fill="#9b59b6" stroke="white" opacity="1.0"/>
<circle cx="227.7" cy="318.1" r="4" fill="#9b59b6" stroke="white" opacity="1.0"/>
<circle cx="279.2" cy="414.3" r="4" fill="#9b59b6" stroke="white" opacity="1.0"/>
<circle cx="305.0" cy="382.3" r="4" fill="#9b59b6" stroke="white" opacity="1.0"/>
<circle cx="330.8" cy="350.2" r="4" fill="#9b59b6" stroke="white" opacity="1.0"/>
<circle cx="356.8" cy="318.1" r="4" fill="#9b59b6" stroke="white" opacity="1.0"/>
<circle cx="382.5" cy="350.2" r="4" fill="#9b59b6" stroke="white" opacity="1.0"/>
<circle cx="408.3" cy="382.3" r="4" fill="#9b59b6" stroke="white" opacity="1.0"/>
<circle cx="434.1" cy="318.1" r="4" fill="#9b59b6" stroke="white" opacity="1.0"/>
<circle cx="460.0" cy="350.2" r="4" fill="#9b59b6" stroke="white" opacity="1.0"/>
<circle cx="485.7" cy="318.1" r="4" fill="#9b59b6" stroke="white" opacity="1.0"/>
<circle cx="511.7" cy="350.2" r="4" fill="#9b59b6" stroke="white" opacity="1.0"/>
<circle cx="537.5" cy="286.1" r="4" fill="#9b59b6" stroke="white" opacity="1.0"/>
<circle cx="563.2" cy="254.0" r="4" fill="#9b59b6" stroke="white" opacity="1.0"/>
<circle cx="589.0" cy="286.1" r="4" fill="#9b59b6" stroke="white" opacity="1.0"/>
<circle cx="614.8" cy="286.1" r="4" fill="#9b59b6" stroke="white" opacity="1.0"/>
<circle cx="640.6" cy="350.2" r="4" fill="#9b59b6" stroke="white" opacity="1.0"/>
<circle cx="666.5" cy="318.1" r="4" fill="#9b59b6" stroke="white" opacity="1.0"/>
<circle cx="692.4" cy="350.2" r="4" fill="#9b59b6" stroke="white" opacity="1.0"/>
<circle cx="718.1" cy="350.2" r="4" fill="#9b59b6" stroke="white" opacity="1.0"/>
<circle cx="743.9" cy="414.3" r="4" fill="#9b59b6" stroke="white" opacity="1.0"/>
<circle cx="769.6" cy="382.3" r="4" fill="#9b59b6" stroke="white" opacity="1.0"/>
<circle cx="795.5" cy="350.2" r="4" fill="#9b59b6" stroke="white" opacity="1.0"/>
<circle cx="821.4" cy="318.1" r="4" fill="#9b59b6" stroke="white" opacity="1.0"/>
<circle cx="847.2" cy="382.3" r="4" fill="#9b59b6" stroke="white" opacity="1.0"/>
<circle cx="872.9" cy="350.2" r="4" fill="#9b59b6" stroke="white" opacity="1.0"/>
<circle cx="898.7" cy="350.2" r="4" fill="#9b59b6" stroke="white" opacity="1.0"/>
<circle cx="924.5" cy="318.1" r="4" fill="#9b59b6" stroke="white" opacity="1.0"/>
<circle cx="950.2" cy="318.1" r="4" fill="#9b59b6" stroke="white" opacity="1.0"/>
<circle cx="976.2" cy="286.1" r="4" fill="#9b59b6" stroke="white" opacity="1.0"/>
<circle cx="1001.9" cy="350.2" r="4" fill="#9b59b6" stroke="white" opacity="1.0"/>
<circle cx="1027.8" cy="318.1" r="4" fill="#9b59b6" stroke="white" opacity="1.0"/>
<circle cx="1053.5" cy="350.2" r="4" fill="#9b59b6" stroke="white" opacity="1.0"/>
</g>
<g class="series pmic-series" data-mode="PFM" data-chip="31927" data-temp="25" data-reg="DC2DC_DIG">
<path d="M 124.5,382.3 L 150.2,382.3 L 176.0,382.3 L 201.9,382.3 L 227.7,350.2 L 253.5,414.3 L 279.3,382.3 L 305.0,414.3 L 330.8,350.2 L 356.8,382.3 L 382.6,350.2 L 408.4,350.2 L 434.2,350.2 L 460.0,350.2 L 485.7,382.3 L 511.7,414.3 L 537.5,414.3 L 563.2,350.2 L 589.0,414.3 L 614.8,382.3 L 640.6,350.2 L 666.5,382.3 L 692.3,318.1 L 718.1,414.3 L 743.9,382.3 L 769.6,382.3 L 795.5,350.2 L 821.4,350.2 L 847.2,350.2 L 872.9,350.2 L 898.7,318.1 L 924.6,318.1 L 950.2,350.2 L 976.2,350.2 L 1001.9,382.3 L 1027.8,414.3 L 1053.5,350.2" fill="none" stroke="#1abc9c" stroke-width="2.2" stroke-linejoin="round" opacity="0.9"/>
<circle cx="124.5" cy="382.3" r="4" fill="#1abc9c" stroke="white" opacity="1.0"/>
<circle cx="150.2" cy="382.3" r="4" fill="#1abc9c" stroke="white" opacity="1.0"/>
<circle cx="176.0" cy="382.3" r="4" fill="#1abc9c" stroke="white" opacity="1.0"/>
<circle cx="201.9" cy="382.3" r="4" fill="#1abc9c" stroke="white" opacity="1.0"/>
<circle cx="227.7" cy="350.2" r="4" fill="#1abc9c" stroke="white" opacity="1.0"/>
<circle cx="253.5" cy="414.3" r="4" fill="#1abc9c" stroke="white" opacity="1.0"/>
<circle cx="279.3" cy="382.3" r="4" fill="#1abc9c" stroke="white" opacity="1.0"/>
<circle cx="305.0" cy="414.3" r="4" fill="#1abc9c" stroke="white" opacity="1.0"/>
<circle cx="330.8" cy="350.2" r="4" fill="#1abc9c" stroke="white" opacity="1.0"/>
<circle cx="356.8" cy="382.3" r="4" fill="#1abc9c" stroke="white" opacity="1.0"/>
<circle cx="382.6" cy="350.2" r="4" fill="#1abc9c" stroke="white" opacity="1.0"/>
<circle cx="408.4" cy="350.2" r="4" fill="#1abc9c" stroke="white" opacity="1.0"/>
<circle cx="434.2" cy="350.2" r="4" fill="#1abc9c" stroke="white" opacity="1.0"/>
<circle cx="460.0" cy="350.2" r="4" fill="#1abc9c" stroke="white" opacity="1.0"/>
<circle cx="485.7" cy="382.3" r="4" fill="#1abc9c" stroke="white" opacity="1.0"/>
<circle cx="511.7" cy="414.3" r="4" fill="#1abc9c" stroke="white" opacity="1.0"/>
<circle cx="537.5" cy="414.3" r="4" fill="#1abc9c" stroke="white" opacity="1.0"/>
<circle cx="563.2" cy="350.2" r="4" fill="#1abc9c" stroke="white" opacity="1.0"/>
<circle cx="589.0" cy="414.3" r="4" fill="#1abc9c" stroke="white" opacity="1.0"/>
<circle cx="614.8" cy="382.3" r="4" fill="#1abc9c" stroke="white" opacity="1.0"/>
<circle cx="640.6" cy="350.2" r="4" fill="#1abc9c" stroke="white" opacity="1.0"/>
<circle cx="666.5" cy="382.3" r="4" fill="#1abc9c" stroke="white" opacity="1.0"/>
<circle cx="692.3" cy="318.1" r="4" fill="#1abc9c" stroke="white" opacity="1.0"/>
<circle cx="718.1" cy="414.3" r="4" fill="#1abc9c" stroke="white" opacity="1.0"/>
<circle cx="743.9" cy="382.3" r="4" fill="#1abc9c" stroke="white" opacity="1.0"/>
<circle cx="769.6" cy="382.3" r="4" fill="#1abc9c" stroke="white" opacity="1.0"/>
<circle cx="795.5" cy="350.2" r="4" fill="#1abc9c" stroke="white" opacity="1.0"/>
<circle cx="821.4" cy="350.2" r="4" fill="#1abc9c" stroke="white" opacity="1.0"/>
<circle cx="847.2" cy="350.2" r="4" fill="#1abc9c" stroke="white" opacity="1.0"/>
<circle cx="872.9" cy="350.2" r="4" fill="#1abc9c" stroke="white" opacity="1.0"/>
<circle cx="898.7" cy="318.1" r="4" fill="#1abc9c" stroke="white" opacity="1.0"/>
<circle cx="924.6" cy="318.1" r="4" fill="#1abc9c" stroke="white" opacity="1.0"/>
<circle cx="950.2" cy="350.2" r="4" fill="#1abc9c" stroke="white" opacity="1.0"/>
<circle cx="976.2" cy="350.2" r="4" fill="#1abc9c" stroke="white" opacity="1.0"/>
<circle cx="1001.9" cy="382.3" r="4" fill="#1abc9c" stroke="white" opacity="1.0"/>
<circle cx="1027.8" cy="414.3" r="4" fill="#1abc9c" stroke="white" opacity="1.0"/>
<circle cx="1053.5" cy="350.2" r="4" fill="#1abc9c" stroke="white" opacity="1.0"/>
</g>
<g class="series pmic-series" data-mode="PFM" data-chip="31927" data-temp="80" data-reg="DC2DC_DIG">
<path d="M 124.5,254.0 L 150.2,254.0 L 176.0,254.0 L 201.9,254.0 L 227.7,254.0 L 253.5,254.0 L 279.2,286.1 L 305.0,286.1 L 330.8,286.1 L 356.8,286.1 L 382.6,286.1 L 408.4,254.0 L 434.2,318.1 L 460.0,318.1 L 485.7,286.1 L 511.7,286.1 L 537.5,254.0 L 563.3,221.9 L 589.0,286.1 L 614.8,350.2 L 640.6,318.1 L 666.5,286.1 L 692.4,318.1 L 718.1,254.0 L 743.9,318.1 L 769.6,254.0 L 795.5,286.1 L 821.4,318.1 L 847.3,254.0 L 872.9,318.1 L 898.7,286.1 L 924.6,318.1 L 950.2,286.1 L 976.2,318.1 L 1001.9,286.1 L 1027.8,286.1 L 1053.5,286.1" fill="none" stroke="#e74c3c" stroke-width="2.2" stroke-linejoin="round" opacity="0.9"/>
<circle cx="124.5" cy="254.0" r="4" fill="#e74c3c" stroke="white" opacity="1.0"/>
<circle cx="150.2" cy="254.0" r="4" fill="#e74c3c" stroke="white" opacity="1.0"/>
<circle cx="176.0" cy="254.0" r="4" fill="#e74c3c" stroke="white" opacity="1.0"/>
<circle cx="201.9" cy="254.0" r="4" fill="#e74c3c" stroke="white" opacity="1.0"/>
<circle cx="227.7" cy="254.0" r="4" fill="#e74c3c" stroke="white" opacity="1.0"/>
<circle cx="253.5" cy="254.0" r="4" fill="#e74c3c" stroke="white" opacity="1.0"/>
<circle cx="279.2" cy="286.1" r="4" fill="#e74c3c" stroke="white" opacity="1.0"/>
<circle cx="305.0" cy="286.1" r="4" fill="#e74c3c" stroke="white" opacity="1.0"/>
<circle cx="330.8" cy="286.1" r="4" fill="#e74c3c" stroke="white" opacity="1.0"/>
<circle cx="356.8" cy="286.1" r="4" fill="#e74c3c" stroke="white" opacity="1.0"/>
<circle cx="382.6" cy="286.1" r="4" fill="#e74c3c" stroke="white" opacity="1.0"/>
<circle cx="408.4" cy="254.0" r="4" fill="#e74c3c" stroke="white" opacity="1.0"/>
<circle cx="434.2" cy="318.1" r="4" fill="#e74c3c" stroke="white" opacity="1.0"/>
<circle cx="460.0" cy="318.1" r="4" fill="#e74c3c" stroke="white" opacity="1.0"/>
<circle cx="485.7" cy="286.1" r="4" fill="#e74c3c" stroke="white" opacity="1.0"/>
<circle cx="511.7" cy="286.1" r="4" fill="#e74c3c" stroke="white" opacity="1.0"/>
<circle cx="537.5" cy="254.0" r="4" fill="#e74c3c" stroke="white" opacity="1.0"/>
<circle cx="563.3" cy="221.9" r="4" fill="#e74c3c" stroke="white" opacity="1.0"/>
<circle cx="589.0" cy="286.1" r="4" fill="#e74c3c" stroke="white" opacity="1.0"/>
<circle cx="614.8" cy="350.2" r="4" fill="#e74c3c" stroke="white" opacity="1.0"/>
<circle cx="640.6" cy="318.1" r="4" fill="#e74c3c" stroke="white" opacity="1.0"/>
<circle cx="666.5" cy="286.1" r="4" fill="#e74c3c" stroke="white" opacity="1.0"/>
<circle cx="692.4" cy="318.1" r="4" fill="#e74c3c" stroke="white" opacity="1.0"/>
<circle cx="718.1" cy="254.0" r="4" fill="#e74c3c" stroke="white" opacity="1.0"/>
<circle cx="743.9" cy="318.1" r="4" fill="#e74c3c" stroke="white" opacity="1.0"/>
<circle cx="769.6" cy="254.0" r="4" fill="#e74c3c" stroke="white" opacity="1.0"/>
<circle cx="795.5" cy="286.1" r="4" fill="#e74c3c" stroke="white" opacity="1.0"/>
<circle cx="821.4" cy="318.1" r="4" fill="#e74c3c" stroke="white" opacity="1.0"/>
<circle cx="847.3" cy="254.0" r="4" fill="#e74c3c" stroke="white" opacity="1.0"/>
<circle cx="872.9" cy="318.1" r="4" fill="#e74c3c" stroke="white" opacity="1.0"/>
<circle cx="898.7" cy="286.1" r="4" fill="#e74c3c" stroke="white" opacity="1.0"/>
<circle cx="924.6" cy="318.1" r="4" fill="#e74c3c" stroke="white" opacity="1.0"/>
<circle cx="950.2" cy="286.1" r="4" fill="#e74c3c" stroke="white" opacity="1.0"/>
<circle cx="976.2" cy="318.1" r="4" fill="#e74c3c" stroke="white" opacity="1.0"/>
<circle cx="1001.9" cy="286.1" r="4" fill="#e74c3c" stroke="white" opacity="1.0"/>
<circle cx="1027.8" cy="286.1" r="4" fill="#e74c3c" stroke="white" opacity="1.0"/>
<circle cx="1053.5" cy="286.1" r="4" fill="#e74c3c" stroke="white" opacity="1.0"/>
</g>
<g class="legend-item" data-mode="PFM" data-chip="21988" data-temp="0" data-reg="DC2DC_DIG">
<rect x="1116.0" y="69.0" width="22.0" height="4.0" fill="#3498db" stroke="none" stroke-width="1" opacity="1.0" rx="2"/>
<circle cx="1127.0" cy="71.0" r="4" fill="#3498db" stroke="none" opacity="1.0"/>
<text x="1144.0" y="76.0" font-size="9" font-weight="normal" text-anchor="start" fill="#333" font-family="Arial,sans-serif">Chip 21988 | T=0°C</text>
</g>
<g class="legend-item" data-mode="PFM" data-chip="21988" data-temp="25" data-reg="DC2DC_DIG">
<rect x="1116.0" y="86.0" width="22.0" height="4.0" fill="#e67e22" stroke="none" stroke-width="1" opacity="1.0" rx="2"/>
<circle cx="1127.0" cy="88.0" r="4" fill="#e67e22" stroke="none" opacity="1.0"/>
<text x="1144.0" y="93.0" font-size="9" font-weight="normal" text-anchor="start" fill="#333" font-family="Arial,sans-serif">Chip 21988 | T=25°C</text>
</g>
<g class="legend-item" data-mode="PFM" data-chip="21988" data-temp="80" data-reg="DC2DC_DIG">
<rect x="1116.0" y="103.0" width="22.0" height="4.0" fill="#2ecc71" stroke="none" stroke-width="1" opacity="1.0" rx="2"/>
<circle cx="1127.0" cy="105.0" r="4" fill="#2ecc71" stroke="none" opacity="1.0"/>
<text x="1144.0" y="110.0" font-size="9" font-weight="normal" text-anchor="start" fill="#333" font-family="Arial,sans-serif">Chip 21988 | T=80°C</text>
</g>
<g class="legend-item" data-mode="PFM" data-chip="31927" data-temp="0" data-reg="DC2DC_DIG">
<rect x="1116.0" y="120.0" width="22.0" height="4.0" fill="#9b59b6" stroke="none" stroke-width="1" opacity="1.0" rx="2"/>
<circle cx="1127.0" cy="122.0" r="4" fill="#9b59b6" stroke="none" opacity="1.0"/>
<text x="1144.0" y="127.0" font-size="9" font-weight="normal" text-anchor="start" fill="#333" font-family="Arial,sans-serif">Chip 31927 | T=0°C</text>
</g>
<g class="legend-item" data-mode="PFM" data-chip="31927" data-temp="25" data-reg="DC2DC_DIG">
<rect x="1116.0" y="137.0" width="22.0" height="4.0" fill="#1abc9c" stroke="none" stroke-width="1" opacity="1.0" rx="2"/>
<circle cx="1127.0" cy="139.0" r="4" fill="#1abc9c" stroke="none" opacity="1.0"/>
<text x="1144.0" y="144.0" font-size="9" font-weight="normal" text-anchor="start" fill="#333" font-family="Arial,sans-serif">Chip 31927 | T=25°C</text>
</g>
<g class="legend-item" data-mode="PFM" data-chip="31927" data-temp="80" data-reg="DC2DC_DIG">
<rect x="1116.0" y="154.0" width="22.0" height="4.0" fill="#e74c3c" stroke="none" stroke-width="1" opacity="1.0" rx="2"/>
<circle cx="1127.0" cy="156.0" r="4" fill="#e74c3c" stroke="none" opacity="1.0"/>
<text x="1144.0" y="161.0" font-size="9" font-weight="normal" text-anchor="start" fill="#333" font-family="Arial,sans-serif">Chip 31927 | T=80°C</text>
</g>
<rect class="cursor-overlay" x="78.0" y="68.0" width="1022.0" height="372.0" fill="transparent" style="cursor:default" data-xmin="2.4463" data-xmax="3.6343" data-ymin="-0.00368" data-ymax="-0.00252" data-pl="78.0" data-pr="1100.0" data-pt="68.0" data-pb="440.0"/>
<g class="cursor-layer" style="pointer-events:none;display:none"><line class="cur-v" x1="0" y1="68.0" x2="0" y2="440.0" stroke="#e74c3c" stroke-width="1.2" stroke-dasharray="5,3"/><line class="cur-h" x1="78.0" y1="0" x2="1100.0" y2="0" stroke="#e74c3c" stroke-width="1.2" stroke-dasharray="5,3"/><rect class="cur-tip-bg" x="0" y="0" width="148" height="44" rx="5" fill="#1a252f" stroke="#34495e" stroke-width="1" opacity="0.92"/><text class="cur-tip-x" x="0" y="0" font-size="11" font-family="Arial,sans-serif" fill="#ecf0f1"/><text class="cur-tip-y" x="0" y="0" font-size="11" font-family="Arial,sans-serif" fill="#2ecc71"/></g>
</svg>