<svg xmlns="http://www.w3.org/2000/svg" width="1400" height="520" viewBox="0 0 1400 520">
<rect width="1400" height="520" fill="#ffffff"/>
<text x="700.0" y="28.0" font-size="16" font-weight="bold" text-anchor="middle" fill="#2c3e50" font-family="Arial,sans-serif">Static Line Regulation — Analog DC2DC  Vout=1.2V  [PFM]  Iload=100µA</text>
<line x1="78.0" y1="68.0" x2="78.0" y2="440.0" stroke="#999" stroke-width="1"/>
<line x1="73.0" y1="440.0" x2="78.0" y2="440.0" stroke="#999" stroke-width="1"/>
<line x1="78.0" y1="440.0" x2="1100.0" y2="440.0" stroke="#e8e8e8" stroke-width="0.7" stroke-dasharray="4,3"/>
<text x="70.0" y="444.0" font-size="9" font-weight="normal" text-anchor="end" fill="#888" font-family="Arial,sans-serif">1.19</text>
<line x1="73.0" y1="365.6" x2="78.0" y2="365.6" stroke="#999" stroke-width="1"/>
<line x1="78.0" y1="365.6" x2="1100.0" y2="365.6" stroke="#e8e8e8" stroke-width="0.7" stroke-dasharray="4,3"/>
<text x="70.0" y="369.6" font-size="9" font-weight="normal" text-anchor="end" fill="#888" font-family="Arial,sans-serif">1.2</text>
<line x1="73.0" y1="291.2" x2="78.0" y2="291.2" stroke="#999" stroke-width="1"/>
<line x1="78.0" y1="291.2" x2="1100.0" y2="291.2" stroke="#e8e8e8" stroke-width="0.7" stroke-dasharray="4,3"/>
<text x="70.0" y="295.2" font-size="9" font-weight="normal" text-anchor="end" fill="#888" font-family="Arial,sans-serif">1.2</text>
<line x1="73.0" y1="216.8" x2="78.0" y2="216.8" stroke="#999" stroke-width="1"/>
<line x1="78.0" y1="216.8" x2="1100.0" y2="216.8" stroke="#e8e8e8" stroke-width="0.7" stroke-dasharray="4,3"/>
<text x="70.0" y="220.8" font-size="9" font-weight="normal" text-anchor="end" fill="#888" font-family="Arial,sans-serif">1.21</text>
<line x1="73.0" y1="142.4" x2="78.0" y2="142.4" stroke="#999" stroke-width="1"/>
<line x1="78.0" y1="142.4" x2="1100.0" y2="142.4" stroke="#e8e8e8" stroke-width="0.7" stroke-dasharray="4,3"/>
<text x="70.0" y="146.4" font-size="9" font-weight="normal" text-anchor="end" fill="#888" font-family="Arial,sans-serif">1.21</text>
<line x1="73.0" y1="68.0" x2="78.0" y2="68.0" stroke="#999" stroke-width="1"/>
<line x1="78.0" y1="68.0" x2="1100.0" y2="68.0" stroke="#e8e8e8" stroke-width="0.7" stroke-dasharray="4,3"/>
<text x="70.0" y="72.0" font-size="9" font-weight="normal" text-anchor="end" fill="#888" font-family="Arial,sans-serif">1.22</text>
<line x1="78.0" y1="440.0" x2="1100.0" y2="440.0" stroke="#999" stroke-width="1"/>
<line x1="78.0" y1="440.0" x2="78.0" y2="445.0" stroke="#999" stroke-width="1"/>
<line x1="78.0" y1="68.0" x2="78.0" y2="440.0" stroke="#e8e8e8" stroke-width="0.7" stroke-dasharray="4,3"/>
<text x="78.0" y="456.0" font-size="9" font-weight="normal" text-anchor="middle" fill="#888" font-family="Arial,sans-serif">2.45</text>
<line x1="224.0" y1="440.0" x2="224.0" y2="445.0" stroke="#999" stroke-width="1"/>
<line x1="224.0" y1="68.0" x2="224.0" y2="440.0" stroke="#e8e8e8" stroke-width="0.7" stroke-dasharray="4,3"/>
<text x="224.0" y="456.0" font-size="9" font-weight="normal" text-anchor="middle" fill="#888" font-family="Arial,sans-serif">2.62</text>
<line x1="370.0" y1="440.0" x2="370.0" y2="445.0" stroke="#999" stroke-width="1"/>
<line x1="370.0" y1="68.0" x2="370.0" y2="440.0" stroke="#e8e8e8" stroke-width="0.7" stroke-dasharray="4,3"/>
<text x="370.0" y="456.0" font-size="9" font-weight="normal" text-anchor="middle" fill="#888" font-family="Arial,sans-serif">2.79</text>
<line x1="516.0" y1="440.0" x2="516.0" y2="445.0" stroke="#999" stroke-width="1"/>
<line x1="516.0" y1="68.0" x2="516.0" y2="440.0" stroke="#e8e8e8" stroke-width="0.7" stroke-dasharray="4,3"/>
<text x="516.0" y="456.0" font-size="9" font-weight="normal" text-anchor="middle" fill="#888" font-family="Arial,sans-serif">2.96</text>
<line x1="662.0" y1="440.0" x2="662.0" y2="445.0" stroke="#999" stroke-width="1"/>
<line x1="662.0" y1="68.0" x2="662.0" y2="440.0" stroke="#e8e8e8" stroke-width="0.7" stroke-dasharray="4,3"/>
<text x="662.0" y="456.0" font-size="9" font-weight="normal" text-anchor="middle" fill="#888" font-family="Arial,sans-serif">3.13</text>
<line x1="808.0" y1="440.0" x2="808.0" y2="445.0" stroke="#999" stroke-width="1"/>
<line x1="808.0" y1="68.0" x2="808.0" y2="440.0" stroke="#e8e8e8" stroke-width="0.7" stroke-dasharray="4,3"/>
<text x="808.0" y="456.0" font-size="9" font-weight="normal" text-anchor="middle" fill="#888" font-family="Arial,sans-serif">3.3</text>
<line x1="954.0" y1="440.0" x2="954.0" y2="445.0" stroke="#999" stroke-width="1"/>
<line x1="954.0" y1="68.0" x2="954.0" y2="440.0" stroke="#e8e8e8" stroke-width="0.7" stroke-dasharray="4,3"/>
<text x="954.0" y="456.0" font-size="9" font-weight="normal" text-anchor="middle" fill="#888" font-family="Arial,sans-serif">3.46</text>
<line x1="1100.0" y1="440.0" x2="1100.0" y2="445.0" stroke="#999" stroke-width="1"/>
<line x1="1100.0" y1="68.0" x2="1100.0" y2="440.0" stroke="#e8e8e8" stroke-width="0.7" stroke-dasharray="4,3"/>
<text x="1100.0" y="456.0" font-size="9" font-weight="normal" text-anchor="middle" fill="#888" font-family="Arial,sans-serif">3.63</text>
<text x="16.0" y="254.0" font-size="11" font-weight="normal" text-anchor="middle" fill="#555" font-family="Arial,sans-serif" transform="rotate(-90,16,254.0)">Output Voltage  Vout [V]</text>
<text x="589.0" y="510.0" font-size="11" font-weight="normal" text-anchor="middle" fill="#555" font-family="Arial,sans-serif">Input Voltage  Vin [V]</text>
<g class="series pmic-series" data-mode="PFM" data-chip="21988" data-temp="0" data-reg="DC2DC_ANA">
<path d="M 124.5,204.0 L 150.2,202.5 L 176.0,196.6 L 201.9,209.9 L 227.7,209.9 L 253.5,212.8 L 279.3,204.0 L 305.1,211.3 L 330.9,211.3 L 356.7,209.9 L 382.6,204.0 L 408.4,201.0 L 434.1,218.7 L 459.9,212.8 L 485.7,214.3 L 511.6,202.5 L 537.4,198.1 L 563.2,201.0 L 589.0,211.3 L 614.8,209.9 L 640.6,211.3 L 666.5,202.5 L 692.4,198.1 L 718.2,198.1 L 743.9,190.7 L 769.6,214.3 L 795.4,215.8 L 821.4,208.4 L 847.2,199.6 L 872.9,198.1 L 898.6,195.2 L 924.5,192.2 L 950.2,192.2 L 976.1,183.4 L 1001.9,183.4 L 1027.7,181.9 L 1053.5,211.3" fill="none" stroke="#3498db" stroke-width="2.2" stroke-linejoin="round" opacity="0.9"/>
<circle cx="124.5" cy="204.0" r="4" fill="#3498db" stroke="white" opacity="1.0"/>
<circle cx="150.2" cy="202.5" r="4" fill="#3498db" stroke="white" opacity="1.0"/>
<circle cx="176.0" cy="196.6" r="4" fill="#3498db" stroke="white" opacity="1.0"/>
<circle cx="201.9" cy="209.9" r="4" fill="#3498db" stroke="white" opacity="1.0"/>
<circle cx="227.7" cy="209.9" r="4" fill="#3498db" stroke="white" opacity="1.0"/>
<circle cx="253.5" cy="212.8" r="4" fill="#3498db" stroke="white" opacity="1.0"/>
<circle cx="279.3" cy="204.0" r="4" fill="#3498db" stroke="white" opacity="1.0"/>
<circle cx="305.1" cy="211.3" r="4" fill="#3498db" stroke="white" opacity="1.0"/>
<circle cx="330.9" cy="211.3" r="4" fill="#3498db" stroke="white" opacity="1.0"/>
<circle cx="356.7" cy="209.9" r="4" fill="#3498db" stroke="white" opacity="1.0"/>
<circle cx="382.6" cy="204.0" r="4" fill="#3498db" stroke="white" opacity="1.0"/>
<circle cx="408.4" cy="201.0" r="4" fill="#3498db" stroke="white" opacity="1.0"/>
<circle cx="434.1" cy="218.7" r="4" fill="#3498db" stroke="white" opacity="1.0"/>
<circle cx="459.9" cy="212.8" r="4" fill="#3498db" stroke="white" opacity="1.0"/>
<circle cx="485.7" cy="214.3" r="4" fill="#3498db" stroke="white" opacity="1.0"/>
<circle cx="511.6" cy="202.5" r="4" fill="#3498db" stroke="white" opacity="1.0"/>
<circle cx="537.4" cy="198.1" r="4" fill="#3498db" stroke="white" opacity="1.0"/>
<circle cx="563.2" cy="201.0" r="4" fill="#3498db" stroke="white" opacity="1.0"/>
<circle cx="589.0" cy="211.3" r="4" fill="#3498db" stroke="white" opacity="1.0"/>
<circle cx="614.8" cy="209.9" r="4" fill="#3498db" stroke="white" opacity="1.0"/>
<circle cx="640.6" cy="211.3" r="4" fill="#3498db" stroke="white" opacity="1.0"/>
<circle cx="666.5" cy="202.5" r="4" fill="#3498db" stroke="white" opacity="1.0"/>
<circle cx="692.4" cy="198.1" r="4" fill="#3498db" stroke="white" opacity="1.0"/>
<circle cx="718.2" cy="198.1" r="4" fill="#3498db" stroke="white" opacity="1.0"/>
<circle cx="743.9" cy="190.7" r="4" fill="#3498db" stroke="white" opacity="1.0"/>
<circle cx="769.6" cy="214.3" r="4" fill="#3498db" stroke="white" opacity="1.0"/>
<circle cx="795.4" cy="215.8" r="4" fill="#3498db" stroke="white" opacity="1.0"/>
<circle cx="821.4" cy="208.4" r="4" fill="#3498db" stroke="white" opacity="1.0"/>
<circle cx="847.2" cy="199.6" r="4" fill="#3498db" stroke="white" opacity="1.0"/>
<circle cx="872.9" cy="198.1" r="4" fill="#3498db" stroke="white" opacity="1.0"/>
<circle cx="898.6" cy="195.2" r="4" fill="#3498db" stroke="white" opacity="1.0"/>
<circle cx="924.5" cy="192.2" r="4" fill="#3498db" stroke="white" opacity="1.0"/>
<circle cx="950.2" cy="192.2" r="4" fill="#3498db" stroke="white" opacity="1.0"/>
<circle cx="976.1" cy="183.4" r="4" fill="#3498db" stroke="white" opacity="1.0"/>
<circle cx="1001.9" cy="183.4" r="4" fill="#3498db" stroke="white" opacity="1.0"/>
<circle cx="1027.7" cy="181.9" r="4" fill="#3498db" stroke="white" opacity="1.0"/>
<circle cx="1053.5" cy="211.3" r="4" fill="#3498db" stroke="white" opacity="1.0"/>
</g>
<g class="series pmic-series" data-mode="PFM" data-chip="21988" data-temp="25" data-reg="DC2DC_ANA">
<path d="M 124.5,189.3 L 150.2,193.7 L 176.0,187.8 L 201.9,192.2 L 227.7,193.7 L 253.5,181.9 L 279.3,192.2 L 305.1,190.7 L 330.9,187.8 L 356.8,184.9 L 382.6,181.9 L 408.4,195.2 L 434.1,186.3 L 459.9,181.9 L 485.7,174.6 L 511.6,181.9 L 537.4,195.2 L 563.2,193.7 L 589.0,190.7 L 614.8,183.4 L 640.6,176.0 L 666.5,171.6 L 692.4,186.3 L 718.2,187.8 L 743.9,183.4 L 769.6,179.0 L 795.4,183.4 L 821.4,176.0 L 847.2,165.7 L 872.9,167.2 L 898.6,177.5 L 924.5,192.2 L 950.2,193.7 L 976.1,184.9 L 1001.9,180.4 L 1027.7,173.1 L 1053.5,167.2" fill="none" stroke="#e67e22" stroke-width="2.2" stroke-linejoin="round" opacity="0.9"/>
<circle cx="124.5" cy="189.3" r="4" fill="#e67e22" stroke="white" opacity="1.0"/>
<circle cx="150.2" cy="193.7" r="4" fill="#e67e22" stroke="white" opacity="1.0"/>
<circle cx="176.0" cy="187.8" r="4" fill="#e67e22" stroke="white" opacity="1.0"/>
<circle cx="201.9" cy="192.2" r="4" fill="#e67e22" stroke="white" opacity="1.0"/>
<circle cx="227.7" cy="193.7" r="4" fill="#e67e22" stroke="white" opacity="1.0"/>
<circle cx="253.5" cy="181.9" r="4" fill="#e67e22" stroke="white" opacity="1.0"/>
<circle cx="279.3" cy="192.2" r="4" fill="#e67e22" stroke="white" opacity="1.0"/>
<circle cx="305.1" cy="190.7" r="4" fill="#e67e22" stroke="white" opacity="1.0"/>
<circle cx="330.9" cy="187.8" r="4" fill="#e67e22" stroke="white" opacity="1.0"/>
<circle cx="356.8" cy="184.9" r="4" fill="#e67e22" stroke="white" opacity="1.0"/>
<circle cx="382.6" cy="181.9" r="4" fill="#e67e22" stroke="white" opacity="1.0"/>
<circle cx="408.4" cy="195.2" r="4" fill="#e67e22" stroke="white" opacity="1.0"/>
<circle cx="434.1" cy="186.3" r="4" fill="#e67e22" stroke="white" opacity="1.0"/>
<circle cx="459.9" cy="181.9" r="4" fill="#e67e22" stroke="white" opacity="1.0"/>
<circle cx="485.7" cy="174.6" r="4" fill="#e67e22" stroke="white" opacity="1.0"/>
<circle cx="511.6" cy="181.9" r="4" fill="#e67e22" stroke="white" opacity="1.0"/>
<circle cx="537.4" cy="195.2" r="4" fill="#e67e22" stroke="white" opacity="1.0"/>
<circle cx="563.2" cy="193.7" r="4" fill="#e67e22" stroke="white" opacity="1.0"/>
<circle cx="589.0" cy="190.7" r="4" fill="#e67e22" stroke="white" opacity="1.0"/>
<circle cx="614.8" cy="183.4" r="4" fill="#e67e22" stroke="white" opacity="1.0"/>
<circle cx="640.6" cy="176.0" r="4" fill="#e67e22" stroke="white" opacity="1.0"/>
<circle cx="666.5" cy="171.6" r="4" fill="#e67e22" stroke="white" opacity="1.0"/>
<circle cx="692.4" cy="186.3" r="4" fill="#e67e22" stroke="white" opacity="1.0"/>
<circle cx="718.2" cy="187.8" r="4" fill="#e67e22" stroke="white" opacity="1.0"/>
<circle cx="743.9" cy="183.4" r="4" fill="#e67e22" stroke="white" opacity="1.0"/>
<circle cx="769.6" cy="179.0" r="4" fill="#e67e22" stroke="white" opacity="1.0"/>
<circle cx="795.4" cy="183.4" r="4" fill="#e67e22" stroke="white" opacity="1.0"/>
<circle cx="821.4" cy="176.0" r="4" fill="#e67e22" stroke="white" opacity="1.0"/>
<circle cx="847.2" cy="165.7" r="4" fill="#e67e22" stroke="white" opacity="1.0"/>
<circle cx="872.9" cy="167.2" r="4" fill="#e67e22" stroke="white" opacity="1.0"/>
<circle cx="898.6" cy="177.5" r="4" fill="#e67e22" stroke="white" opacity="1.0"/>
<circle cx="924.5" cy="192.2" r="4" fill="#e67e22" stroke="white" opacity="1.0"/>
<circle cx="950.2" cy="193.7" r="4" fill="#e67e22" stroke="white" opacity="1.0"/>
<circle cx="976.1" cy="184.9" r="4" fill="#e67e22" stroke="white" opacity="1.0"/>
<circle cx="1001.9" cy="180.4" r="4" fill="#e67e22" stroke="white" opacity="1.0"/>
<circle cx="1027.7" cy="173.1" r="4" fill="#e67e22" stroke="white" opacity="1.0"/>
<circle cx="1053.5" cy="167.2" r="4" fill="#e67e22" stroke="white" opacity="1.0"/>
</g>
<g class="series pmic-series" data-mode="PFM" data-chip="21988" data-temp="80" data-reg="DC2DC_ANA">
<path d="M 124.5,120.1 L 150.2,118.7 L 176.0,121.6 L 201.9,123.1 L 227.7,118.7 L 253.5,114.2 L 279.3,130.4 L 305.1,117.2 L 330.9,112.8 L 356.7,114.2 L 382.6,126.0 L 408.4,118.7 L 434.1,114.2 L 459.9,112.8 L 485.7,105.4 L 511.6,120.1 L 537.4,127.5 L 563.2,118.7 L 589.0,120.1 L 614.8,111.3 L 640.6,105.4 L 666.5,106.9 L 692.4,118.7 L 718.2,121.6 L 743.9,118.7 L 769.6,109.8 L 795.4,104.0 L 821.4,99.5 L 847.1,93.7 L 872.9,101.0 L 898.6,134.8 L 924.4,121.6 L 950.2,121.6 L 976.1,114.2 L 1001.9,117.2 L 1027.7,109.8 L 1053.5,106.9" fill="none" stroke="#2ecc71" stroke-width="2.2" stroke-linejoin="round" opacity="0.9"/>
<circle cx="124.5" cy="120.1" r="4" fill="#2ecc71" stroke="white" opacity="1.0"/>
<circle cx="150.2" cy="118.7" r="4" fill="#2ecc71" stroke="white" opacity="1.0"/>
<circle cx="176.0" cy="121.6" r="4" fill="#2ecc71" stroke="white" opacity="1.0"/>
<circle cx="201.9" cy="123.1" r="4" fill="#2ecc71" stroke="white" opacity="1.0"/>
<circle cx="227.7" cy="118.7" r="4" fill="#2ecc71" stroke="white" opacity="1.0"/>
<circle cx="253.5" cy="114.2" r="4" fill="#2ecc71" stroke="white" opacity="1.0"/>
<circle cx="279.3" cy="130.4" r="4" fill="#2ecc71" stroke="white" opacity="1.0"/>
<circle cx="305.1" cy="117.2" r="4" fill="#2ecc71" stroke="white" opacity="1.0"/>
<circle cx="330.9" cy="112.8" r="4" fill="#2ecc71" stroke="white" opacity="1.0"/>
<circle cx="356.7" cy="114.2" r="4" fill="#2ecc71" stroke="white" opacity="1.0"/>
<circle cx="382.6" cy="126.0" r="4" fill="#2ecc71" stroke="white" opacity="1.0"/>
<circle cx="408.4" cy="118.7" r="4" fill="#2ecc71" stroke="white" opacity="1.0"/>
<circle cx="434.1" cy="114.2" r="4" fill="#2ecc71" stroke="white" opacity="1.0"/>
<circle cx="459.9" cy="112.8" r="4" fill="#2ecc71" stroke="white" opacity="1.0"/>
<circle cx="485.7" cy="105.4" r="4" fill="#2ecc71" stroke="white" opacity="1.0"/>
<circle cx="511.6" cy="120.1" r="4" fill="#2ecc71" stroke="white" opacity="1.0"/>
<circle cx="537.4" cy="127.5" r="4" fill="#2ecc71" stroke="white" opacity="1.0"/>
<circle cx="563.2" cy="118.7" r="4" fill="#2ecc71" stroke="white" opacity="1.0"/>
<circle cx="589.0" cy="120.1" r="4" fill="#2ecc71" stroke="white" opacity="1.0"/>
<circle cx="614.8" cy="111.3" r="4" fill="#2ecc71" stroke="white" opacity="1.0"/>
<circle cx="640.6" cy="105.4" r="4" fill="#2ecc71" stroke="white" opacity="1.0"/>
<circle cx="666.5" cy="106.9" r="4" fill="#2ecc71" stroke="white" opacity="1.0"/>
<circle cx="692.4" cy="118.7" r="4" fill="#2ecc71" stroke="white" opacity="1.0"/>
<circle cx="718.2" cy="121.6" r="4" fill="#2ecc71" stroke="white" opacity="1.0"/>
<circle cx="743.9" cy="118.7" r="4" fill="#2ecc71" stroke="white" opacity="1.0"/>
<circle cx="769.6" cy="109.8" r="4" fill="#2ecc71" stroke="white" opacity="1.0"/>
<circle cx="795.4" cy="104.0" r="4" fill="#2ecc71" stroke="white" opacity="1.0"/>
<circle cx="821.4" cy="99.5" r="4" fill="#2ecc71" stroke="white" opacity="1.0"/>
<circle cx="847.1" cy="93.7" r="4" fill="#2ecc71" stroke="white" opacity="1.0"/>
<circle cx="872.9" cy="101.0" r="4" fill="#2ecc71" stroke="white" opacity="1.0"/>
<circle cx="898.6" cy="134.8" r="4" fill="#2ecc71" stroke="white" opacity="1.0"/>
<circle cx="924.4" cy="121.6" r="4" fill="#2ecc71" stroke="white" opacity="1.0"/>
<circle cx="950.2" cy="121.6" r="4" fill="#2ecc71" stroke="white" opacity="1.0"/>
<circle cx="976.1" cy="114.2" r="4" fill="#2ecc71" stroke="white" opacity="1.0"/>
<circle cx="1001.9" cy="117.2" r="4" fill="#2ecc71" stroke="white" opacity="1.0"/>
<circle cx="1027.7" cy="109.8" r="4" fill="#2ecc71" stroke="white" opacity="1.0"/>
<circle cx="1053.5" cy="106.9" r="4" fill="#2ecc71" stroke="white" opacity="1.0"/>
</g>
<g class="series pmic-series" data-mode="PFM" data-chip="31927" data-temp="0" data-reg="DC2DC_ANA">
<path d="M 124.5,124.5 L 150.2,133.4 L 176.0,130.4 L 201.9,134.8 L 227.7,131.9 L 253.5,131.9 L 279.3,129.0 L 305.0,136.3 L 330.8,120.1 L 356.7,129.0 L 382.6,134.8 L 408.4,127.5 L 434.1,124.5 L 459.9,129.0 L 485.7,129.0 L 511.6,129.0 L 537.4,131.9 L 563.2,124.5 L 589.0,127.5 L 614.8,123.1 L 640.6,120.1 L 666.5,106.9 L 692.4,112.8 L 718.1,127.5 L 743.9,123.1 L 769.6,130.4 L 795.4,118.7 L 821.3,114.2 L 847.1,121.6 L 872.9,111.3 L 898.6,108.4 L 924.4,114.2 L 950.2,114.2 L 976.1,133.4 L 1001.9,133.4 L 1027.7,129.0 L 1053.5,129.0" fill="none" stroke="#9b59b6" stroke-width="2.2" stroke-linejoin="round" opacity="0.9"/>
<circle cx="124.5" cy="124.5" r="4" fill="#9b59b6" stroke="white" opacity="1.0"/>
<circle cx="150.2" cy="133.4" r="4" fill="#9b59b6" stroke="white" opacity="1.0"/>
<circle cx="176.0" cy="130.4" r="4" fill="#9b59b6" stroke="white" opacity="1.0"/>
<circle cx="201.9" cy="134.8" r="4" fill="#9b59b6" stroke="white" opacity="1.0"/>
<circle cx="227.7" cy="131.9" r="4" fill="#9b59b6" stroke="white" opacity="1.0"/>
<circle cx="253.5" cy="131.9" r="4" fill="#9b59b6" stroke="white" opacity="1.0"/>
<circle cx="279.3" cy="129.0" r="4" fill="#9b59b6" stroke="white" opacity="1.0"/>
<circle cx="305.0" cy="136.3" r="4" fill="#9b59b6" stroke="white" opacity="1.0"/>
<circle cx="330.8" cy="120.1" r="4" fill="#9b59b6" stroke="white" opacity="1.0"/>
<circle cx="356.7" cy="129.0" r="4" fill="#9b59b6" stroke="white" opacity="1.0"/>
<circle cx="382.6" cy="134.8" r="4" fill="#9b59b6" stroke="white" opacity="1.0"/>
<circle cx="408.4" cy="127.5" r="4" fill="#9b59b6" stroke="white" opacity="1.0"/>
<circle cx="434.1" cy="124.5" r="4" fill="#9b59b6" stroke="white" opacity="1.0"/>
<circle cx="459.9" cy="129.0" r="4" fill="#9b59b6" stroke="white" opacity="1.0"/>
<circle cx="485.7" cy="129.0" r="4" fill="#9b59b6" stroke="white" opacity="1.0"/>
<circle cx="511.6" cy="129.0" r="4" fill="#9b59b6" stroke="white" opacity="1.0"/>
<circle cx="537.4" cy="131.9" r="4" fill="#9b59b6" stroke="white" opacity="1.0"/>
<circle cx="563.2" cy="124.5" r="4" fill="#9b59b6" stroke="white" opacity="1.0"/>
<circle cx="589.0" cy="127.5" r="4" fill="#9b59b6" stroke="white" opacity="1.0"/>
<circle cx="614.8" cy="123.1" r="4" fill="#9b59b6" stroke="white" opacity="1.0"/>
<circle cx="640.6" cy="120.1" r="4" fill="#9b59b6" stroke="white" opacity="1.0"/>
<circle cx="666.5" cy="106.9" r="4" fill="#9b59b6" stroke="white" opacity="1.0"/>
<circle cx="692.4" cy="112.8" r="4" fill="#9b59b6" stroke="white" opacity="1.0"/>
<circle cx="718.1" cy="127.5" r="4" fill="#9b59b6" stroke="white" opacity="1.0"/>
<circle cx="743.9" cy="123.1" r="4" fill="#9b59b6" stroke="white" opacity="1.0"/>
<circle cx="769.6" cy="130.4" r="4" fill="#9b59b6" stroke="white" opacity="1.0"/>
<circle cx="795.4" cy="118.7" r="4" fill="#9b59b6" stroke="white" opacity="1.0"/>
<circle cx="821.3" cy="114.2" r="4" fill="#9b59b6" stroke="white" opacity="1.0"/>
<circle cx="847.1" cy="121.6" r="4" fill="#9b59b6" stroke="white" opacity="1.0"/>
<circle cx="872.9" cy="111.3" r="4" fill="#9b59b6" stroke="white" opacity="1.0"/>
<circle cx="898.6" cy="108.4" r="4" fill="#9b59b6" stroke="white" opacity="1.0"/>
<circle cx="924.4" cy="114.2" r="4" fill="#9b59b6" stroke="white" opacity="1.0"/>
<circle cx="950.2" cy="114.2" r="4" fill="#9b59b6" stroke="white" opacity="1.0"/>
<circle cx="976.1" cy="133.4" r="4" fill="#9b59b6" stroke="white" opacity="1.0"/>
<circle cx="1001.9" cy="133.4" r="4" fill="#9b59b6" stroke="white" opacity="1.0"/>
<circle cx="1027.7" cy="129.0" r="4" fill="#9b59b6" stroke="white" opacity="1.0"/>
<circle cx="1053.5" cy="129.0" r="4" fill="#9b59b6" stroke="white" opacity="1.0"/>
</g>
<g class="series pmic-series" data-mode="PFM" data-chip="31927" data-temp="25" data-reg="DC2DC_ANA">
<path d="M 124.5,321.7 L 150.2,326.1 L 176.0,324.6 L 201.9,320.2 L 227.7,323.1 L 253.5,323.1 L 279.3,320.2 L 305.0,315.8 L 330.8,321.7 L 356.8,317.3 L 382.6,315.8 L 408.4,314.3 L 434.1,305.5 L 459.9,321.7 L 485.7,323.1 L 511.6,317.3 L 537.4,311.4 L 563.2,309.9 L 589.0,308.4 L 614.8,312.8 L 640.6,314.3 L 666.5,314.3 L 692.4,320.2 L 718.1,315.8 L 743.9,315.8 L 769.6,305.5 L 795.4,304.0 L 821.3,308.4 L 847.1,320.2 L 872.9,326.1 L 898.6,320.2 L 924.4,314.3 L 950.2,315.8 L 976.1,308.4 L 1001.9,302.5 L 1027.7,299.6 L 1053.5,301.1" fill="none" stroke="#1abc9c" stroke-width="2.2" stroke-linejoin="round" opacity="0.9"/>
<circle cx="124.5" cy="321.7" r="4" fill="#1abc9c" stroke="white" opacity="1.0"/>
<circle cx="150.2" cy="326.1" r="4" fill="#1abc9c" stroke="white" opacity="1.0"/>
<circle cx="176.0" cy="324.6" r="4" fill="#1abc9c" stroke="white" opacity="1.0"/>
<circle cx="201.9" cy="320.2" r="4" fill="#1abc9c" stroke="white" opacity="1.0"/>
<circle cx="227.7" cy="323.1" r="4" fill="#1abc9c" stroke="white" opacity="1.0"/>
<circle cx="253.5" cy="323.1" r="4" fill="#1abc9c" stroke="white" opacity="1.0"/>
<circle cx="279.3" cy="320.2" r="4" fill="#1abc9c" stroke="white" opacity="1.0"/>
<circle cx="305.0" cy="315.8" r="4" fill="#1abc9c" stroke="white" opacity="1.0"/>
<circle cx="330.8" cy="321.7" r="4" fill="#1abc9c" stroke="white" opacity="1.0"/>
<circle cx="356.8" cy="317.3" r="4" fill="#1abc9c" stroke="white" opacity="1.0"/>
<circle cx="382.6" cy="315.8" r="4" fill="#1abc9c" stroke="white" opacity="1.0"/>
<circle cx="408.4" cy="314.3" r="4" fill="#1abc9c" stroke="white" opacity="1.0"/>
<circle cx="434.1" cy="305.5" r="4" fill="#1abc9c" stroke="white" opacity="1.0"/>
<circle cx="459.9" cy="321.7" r="4" fill="#1abc9c" stroke="white" opacity="1.0"/>
<circle cx="485.7" cy="323.1" r="4" fill="#1abc9c" stroke="white" opacity="1.0"/>
<circle cx="511.6" cy="317.3" r="4" fill="#1abc9c" stroke="white" opacity="1.0"/>
<circle cx="537.4" cy="311.4" r="4" fill="#1abc9c" stroke="white" opacity="1.0"/>
<circle cx="563.2" cy="309.9" r="4" fill="#1abc9c" stroke="white" opacity="1.0"/>
<circle cx="589.0" cy="308.4" r="4" fill="#1abc9c" stroke="white" opacity="1.0"/>
<circle cx="614.8" cy="312.8" r="4" fill="#1abc9c" stroke="white" opacity="1.0"/>
<circle cx="640.6" cy="314.3" r="4" fill="#1abc9c" stroke="white" opacity="1.0"/>
<circle cx="666.5" cy="314.3" r="4" fill="#1abc9c" stroke="white" opacity="1.0"/>
<circle cx="692.4" cy="320.2" r="4" fill="#1abc9c" stroke="white" opacity="1.0"/>
<circle cx="718.1" cy="315.8" r="4" fill="#1abc9c" stroke="white" opacity="1.0"/>
<circle cx="743.9" cy="315.8" r="4" fill="#1abc9c" stroke="white" opacity="1.0"/>
<circle cx="769.6" cy="305.5" r="4" fill="#1abc9c" stroke="white" opacity="1.0"/>
<circle cx="795.4" cy="304.0" r="4" fill="#1abc9c" stroke="white" opacity="1.0"/>
<circle cx="821.3" cy="308.4" r="4" fill="#1abc9c" stroke="white" opacity="1.0"/>
<circle cx="847.1" cy="320.2" r="4" fill="#1abc9c" stroke="white" opacity="1.0"/>
<circle cx="872.9" cy="326.1" r="4" fill="#1abc9c" stroke="white" opacity="1.0"/>
<circle cx="898.6" cy="320.2" r="4" fill="#1abc9c" stroke="white" opacity="1.0"/>
<circle cx="924.4" cy="314.3" r="4" fill="#1abc9c" stroke="white" opacity="1.0"/>
<circle cx="950.2" cy="315.8" r="4" fill="#1abc9c" stroke="white" opacity="1.0"/>
<circle cx="976.1" cy="308.4" r="4" fill="#1abc9c" stroke="white" opacity="1.0"/>
<circle cx="1001.9" cy="302.5" r="4" fill="#1abc9c" stroke="white" opacity="1.0"/>
<circle cx="1027.7" cy="299.6" r="4" fill="#1abc9c" stroke="white" opacity="1.0"/>
<circle cx="1053.5" cy="301.1" r="4" fill="#1abc9c" stroke="white" opacity="1.0"/>
</g>
<g class="series pmic-series" data-mode="PFM" data-chip="31927" data-temp="80" data-reg="DC2DC_ANA">
<path d="M 124.5,414.3 L 150.2,408.5 L 176.0,395.2 L 201.9,389.3 L 227.7,412.9 L 253.5,411.4 L 279.3,405.5 L 305.0,395.2 L 330.9,402.6 L 356.8,399.6 L 382.6,407.0 L 408.4,407.0 L 434.1,407.0 L 459.9,414.3 L 485.7,414.3 L 511.6,412.9 L 537.4,405.5 L 563.2,401.1 L 589.0,396.7 L 614.8,387.9 L 640.6,407.0 L 666.5,407.0 L 692.4,405.5 L 718.1,402.6 L 743.9,398.2 L 769.6,389.3 L 795.4,389.3 L 821.3,393.8 L 847.1,408.5 L 872.9,411.4 L 898.6,409.9 L 924.4,396.7 L 950.2,399.6 L 976.1,398.2 L 1001.9,389.3 L 1027.7,386.4 L 1053.5,387.9" fill="none" stroke="#e74c3c" stroke-width="2.2" stroke-linejoin="round" opacity="0.9"/>
<circle cx="124.5" cy="414.3" r="4" fill="#e74c3c" stroke="white" opacity="1.0"/>
<circle cx="150.2" cy="408.5" r="4" fill="#e74c3c" stroke="white" opacity="1.0"/>
<circle cx="176.0" cy="395.2" r="4" fill="#e74c3c" stroke="white" opacity="1.0"/>
<circle cx="201.9" cy="389.3" r="4" fill="#e74c3c" stroke="white" opacity="1.0"/>
<circle cx="227.7" cy="412.9" r="4" fill="#e74c3c" stroke="white" opacity="1.0"/>
<circle cx="253.5" cy="411.4" r="4" fill="#e74c3c" stroke="white" opacity="1.0"/>
<circle cx="279.3" cy="405.5" r="4" fill="#e74c3c" stroke="white" opacity="1.0"/>
<circle cx="305.0" cy="395.2" r="4" fill="#e74c3c" stroke="white" opacity="1.0"/>
<circle cx="330.9" cy="402.6" r="4" fill="#e74c3c" stroke="white" opacity="1.0"/>
<circle cx="356.8" cy="399.6" r="4" fill="#e74c3c" stroke="white" opacity="1.0"/>
<circle cx="382.6" cy="407.0" r="4" fill="#e74c3c" stroke="white" opacity="1.0"/>
<circle cx="408.4" cy="407.0" r="4" fill="#e74c3c" stroke="white" opacity="1.0"/>
<circle cx="434.1" cy="407.0" r="4" fill="#e74c3c" stroke="white" opacity="1.0"/>
<circle cx="459.9" cy="414.3" r="4" fill="#e74c3c" stroke="white" opacity="1.0"/>
<circle cx="485.7" cy="414.3" r="4" fill="#e74c3c" stroke="white" opacity="1.0"/>
<circle cx="511.6" cy="412.9" r="4" fill="#e74c3c" stroke="white" opacity="1.0"/>
<circle cx="537.4" cy="405.5" r="4" fill="#e74c3c" stroke="white" opacity="1.0"/>
<circle cx="563.2" cy="401.1" r="4" fill="#e74c3c" stroke="white" opacity="1.0"/>
<circle cx="589.0" cy="396.7" r="4" fill="#e74c3c" stroke="white" opacity="1.0"/>
<circle cx="614.8" cy="387.9" r="4" fill="#e74c3c" stroke="white" opacity="1.0"/>
<circle cx="640.6" cy="407.0" r="4" fill="#e74c3c" stroke="white" opacity="1.0"/>
<circle cx="666.5" cy="407.0" r="4" fill="#e74c3c" stroke="white" opacity="1.0"/>
<circle cx="692.4" cy="405.5" r="4" fill="#e74c3c" stroke="white" opacity="1.0"/>
<circle cx="718.1" cy="402.6" r="4" fill="#e74c3c" stroke="white" opacity="1.0"/>
<circle cx="743.9" cy="398.2" r="4" fill="#e74c3c" stroke="white" opacity="1.0"/>
<circle cx="769.6" cy="389.3" r="4" fill="#e74c3c" stroke="white" opacity="1.0"/>
<circle cx="795.4" cy="389.3" r="4" fill="#e74c3c" stroke="white" opacity="1.0"/>
<circle cx="821.3" cy="393.8" r="4" fill="#e74c3c" stroke="white" opacity="1.0"/>
<circle cx="847.1" cy="408.5" r="4" fill="#e74c3c" stroke="white" opacity="1.0"/>
<circle cx="872.9" cy="411.4" r="4" fill="#e74c3c" stroke="white" opacity="1.0"/>
<circle cx="898.6" cy="409.9" r="4" fill="#e74c3c" stroke="white" opacity="1.0"/>
<circle cx="924.4" cy="396.7" r="4" fill="#e74c3c" stroke="white" opacity="1.0"/>
<circle cx="950.2" cy="399.6" r="4" fill="#e74c3c" stroke="white" opacity="1.0"/>
<circle cx="976.1" cy="398.2" r="4" fill="#e74c3c" stroke="white" opacity="1.0"/>
<circle cx="1001.9" cy="389.3" r="4" fill="#e74c3c" stroke="white" opacity="1.0"/>
<circle cx="1027.7" cy="386.4" r="4" fill="#e74c3c" stroke="white" opacity="1.0"/>
<circle cx="1053.5" cy="387.9" r="4" fill="#e74c3c" stroke="white" opacity="1.0"/>
</g>
<g class="legend-item" data-mode="PFM" data-chip="21988" data-temp="0" data-reg="DC2DC_ANA">
<rect x="1116.0" y="69.0" width="22.0" height="4.0" fill="#3498db" stroke="none" stroke-width="1" opacity="1.0" rx="2"/>
<circle cx="1127.0" cy="71.0" r="4" fill="#3498db" stroke="none" opacity="1.0"/>
<text x="1144.0" y="76.0" font-size="9" font-weight="normal" text-anchor="start" fill="#333" font-family="Arial,sans-serif">Chip 21988 | T=0°C</text>
</g>
<g class="legend-item" data-mode="PFM" data-chip="21988" data-temp="25" data-reg="DC2DC_ANA">
<rect x="1116.0" y="86.0" width="22.0" height="4.0" fill="#e67e22" stroke="none" stroke-width="1" opacity="1.0" rx="2"/>
<circle cx="1127.0" cy="88.0" r="4" fill="#e67e22" stroke="none" opacity="1.0"/>
<text x="1144.0" y="93.0" font-size="9" font-weight="normal" text-anchor="start" fill="#333" font-family="Arial,sans-serif">Chip 21988 | T=25°C</text>
</g>
<g class="legend-item" data-mode="PFM" data-chip="21988" data-temp="80" data-reg="DC2DC_ANA">
<rect x="1116.0" y="103.0" width="22.0" height="4.0" fill="#2ecc71" stroke="none" stroke-width="1" opacity="1.0" rx="2"/>
<circle cx="1127.0" cy="105.0" r="4" fill="#2ecc71" stroke="none" opacity="1.0"/>
<text x="1144.0" y="110.0" font-size="9" font-weight="normal" text-anchor="start" fill="#333" font-family="Arial,sans-serif">Chip 21988 | T=80°C</text>
</g>
<g class="legend-item" data-mode="PFM" data-chip="31927" data-temp="0" data-reg="DC2DC_ANA">
<rect x="1116.0" y="120.0" width="22.0" height="4.0" fill="#9b59b6" stroke="none" stroke-width="1" opacity="1.0" rx="2"/>
<circle cx="1127.0" cy="122.0" r="4" fill="#9b59b6" stroke="none" opacity="1.0"/>
<text x="1144.0" y="127.0" font-size="9" font-weight="normal" text-anchor="start" fill="#333" font-family="Arial,sans-serif">Chip 31927 | T=0°C</text>
</g>
<g class="legend-item" data-mode="PFM" data-chip="31927" data-temp="25" data-reg="DC2DC_ANA">
<rect x="1116.0" y="137.0" width="22.0" height="4.0" fill="#1abc9c" stroke="none" stroke-width="1" opacity="1.0" rx="2"/>
<circle cx="1127.0" cy="139.0" r="4" fill="#1abc9c" stroke="none" opacity="1.0"/>
<text x="1144.0" y="144.0" font-size="9" font-weight="normal" text-anchor="start" fill="#333" font-family="Arial,sans-serif">Chip 31927 | T=25°C</text>
</g>
<g class="legend-item" data-mode="PFM" data-chip="31927" data-temp="80" data-reg="DC2DC_ANA">
<rect x="1116.0" y="154.0" width="22.0" height="4.0" fill="#e74c3c" stroke="none" stroke-width="1" opacity="1.0" rx="2"/>
<circle cx="1127.0" cy="156.0" r="4" fill="#e74c3c" stroke="none" opacity="1.0"/>
<text x="1144.0" y="161.0" font-size="9" font-weight="normal" text-anchor="start" fill="#333" font-family="Arial,sans-serif">Chip 31927 | T=80°C</text>
</g>
<rect class="cursor-overlay" x="78.0" y="68.0" width="1022.0" height="372.0" fill="transparent" style="cursor:default" data-xmin="2.446395" data-xmax="3.634505" data-ymin="1.192856" data-ymax="1.218144" data-pl="78.0" data-pr="1100.0" data-pt="68.0" data-pb="440.0"/>
<g class="cursor-layer" style="pointer-events:none;display:none"><line class="cur-v" x1="0" y1="68.0" x2="0" y2="440.0" stroke="#e74c3c" stroke-width="1.2" stroke-dasharray="5,3"/><line class="cur-h" x1="78.0" y1="0" x2="1100.0" y2="0" stroke="#e74c3c" stroke-width="1.2" stroke-dasharray="5,3"/><rect class="cur-tip-bg" x="0" y="0" width="148" height="44" rx="5" fill="#1a252f" stroke="#34495e" stroke-width="1" opacity="0.92"/><text class="cur-tip-x" x="0" y="0" font-size="11" font-family="Arial,sans-serif" fill="#ecf0f1"/><text class="cur-tip-y" x="0" y="0" font-size="11" font-family="Arial,sans-serif" fill="#2ecc71"/></g>
</svg>