<svg xmlns="http://www.w3.org/2000/svg" width="1400" height="520" viewBox="0 0 1400 520">
<rect width="1400" height="520" fill="#ffffff"/>
<text x="700.0" y="28.0" font-size="16" font-weight="bold" text-anchor="middle" fill="#2c3e50" font-family="Arial,sans-serif">Static Line Regulation — Analog DC2DC  Vout=1.2V  [PWM]  Iload=3.0A</text>
<line x1="78.0" y1="68.0" x2="78.0" y2="440.0" stroke="#999" stroke-width="1"/>
<line x1="73.0" y1="440.0" x2="78.0" y2="440.0" stroke="#999" stroke-width="1"/>
<line x1="78.0" y1="440.0" x2="1100.0" y2="440.0" stroke="#e8e8e8" stroke-width="0.7" stroke-dasharray="4,3"/>
<text x="70.0" y="444.0" font-size="9" font-weight="normal" text-anchor="end" fill="#888" font-family="Arial,sans-serif">1.18</text>
<line x1="73.0" y1="365.6" x2="78.0" y2="365.6" stroke="#999" stroke-width="1"/>
<line x1="78.0" y1="365.6" x2="1100.0" y2="365.6" stroke="#e8e8e8" stroke-width="0.7" stroke-dasharray="4,3"/>
<text x="70.0" y="369.6" font-size="9" font-weight="normal" text-anchor="end" fill="#888" font-family="Arial,sans-serif">1.18</text>
<line x1="73.0" y1="291.2" x2="78.0" y2="291.2" stroke="#999" stroke-width="1"/>
<line x1="78.0" y1="291.2" x2="1100.0" y2="291.2" stroke="#e8e8e8" stroke-width="0.7" stroke-dasharray="4,3"/>
<text x="70.0" y="295.2" font-size="9" font-weight="normal" text-anchor="end" fill="#888" font-family="Arial,sans-serif">1.19</text>
<line x1="73.0" y1="216.8" x2="78.0" y2="216.8" stroke="#999" stroke-width="1"/>
<line x1="78.0" y1="216.8" x2="1100.0" y2="216.8" stroke="#e8e8e8" stroke-width="0.7" stroke-dasharray="4,3"/>
<text x="70.0" y="220.8" font-size="9" font-weight="normal" text-anchor="end" fill="#888" font-family="Arial,sans-serif">1.2</text>
<line x1="73.0" y1="142.4" x2="78.0" y2="142.4" stroke="#999" stroke-width="1"/>
<line x1="78.0" y1="142.4" x2="1100.0" y2="142.4" stroke="#e8e8e8" stroke-width="0.7" stroke-dasharray="4,3"/>
<text x="70.0" y="146.4" font-size="9" font-weight="normal" text-anchor="end" fill="#888" font-family="Arial,sans-serif">1.2</text>
<line x1="73.0" y1="68.0" x2="78.0" y2="68.0" stroke="#999" stroke-width="1"/>
<line x1="78.0" y1="68.0" x2="1100.0" y2="68.0" stroke="#e8e8e8" stroke-width="0.7" stroke-dasharray="4,3"/>
<text x="70.0" y="72.0" font-size="9" font-weight="normal" text-anchor="end" fill="#888" font-family="Arial,sans-serif">1.21</text>
<line x1="78.0" y1="440.0" x2="1100.0" y2="440.0" stroke="#999" stroke-width="1"/>
<line x1="78.0" y1="440.0" x2="78.0" y2="445.0" stroke="#999" stroke-width="1"/>
<line x1="78.0" y1="68.0" x2="78.0" y2="440.0" stroke="#e8e8e8" stroke-width="0.7" stroke-dasharray="4,3"/>
<text x="78.0" y="456.0" font-size="9" font-weight="normal" text-anchor="middle" fill="#888" font-family="Arial,sans-serif">2.45</text>
<line x1="224.0" y1="440.0" x2="224.0" y2="445.0" stroke="#999" stroke-width="1"/>
<line x1="224.0" y1="68.0" x2="224.0" y2="440.0" stroke="#e8e8e8" stroke-width="0.7" stroke-dasharray="4,3"/>
<text x="224.0" y="456.0" font-size="9" font-weight="normal" text-anchor="middle" fill="#888" font-family="Arial,sans-serif">2.62</text>
<line x1="370.0" y1="440.0" x2="370.0" y2="445.0" stroke="#999" stroke-width="1"/>
<line x1="370.0" y1="68.0" x2="370.0" y2="440.0" stroke="#e8e8e8" stroke-width="0.7" stroke-dasharray="4,3"/>
<text x="370.0" y="456.0" font-size="9" font-weight="normal" text-anchor="middle" fill="#888" font-family="Arial,sans-serif">2.79</text>
<line x1="516.0" y1="440.0" x2="516.0" y2="445.0" stroke="#999" stroke-width="1"/>
<line x1="516.0" y1="68.0" x2="516.0" y2="440.0" stroke="#e8e8e8" stroke-width="0.7" stroke-dasharray="4,3"/>
<text x="516.0" y="456.0" font-size="9" font-weight="normal" text-anchor="middle" fill="#888" font-family="Arial,sans-serif">2.96</text>
<line x1="662.0" y1="440.0" x2="662.0" y2="445.0" stroke="#999" stroke-width="1"/>
<line x1="662.0" y1="68.0" x2="662.0" y2="440.0" stroke="#e8e8e8" stroke-width="0.7" stroke-dasharray="4,3"/>
<text x="662.0" y="456.0" font-size="9" font-weight="normal" text-anchor="middle" fill="#888" font-family="Arial,sans-serif">3.13</text>
<line x1="808.0" y1="440.0" x2="808.0" y2="445.0" stroke="#999" stroke-width="1"/>
<line x1="808.0" y1="68.0" x2="808.0" y2="440.0" stroke="#e8e8e8" stroke-width="0.7" stroke-dasharray="4,3"/>
<text x="808.0" y="456.0" font-size="9" font-weight="normal" text-anchor="middle" fill="#888" font-family="Arial,sans-serif">3.3</text>
<line x1="954.0" y1="440.0" x2="954.0" y2="445.0" stroke="#999" stroke-width="1"/>
<line x1="954.0" y1="68.0" x2="954.0" y2="440.0" stroke="#e8e8e8" stroke-width="0.7" stroke-dasharray="4,3"/>
<text x="954.0" y="456.0" font-size="9" font-weight="normal" text-anchor="middle" fill="#888" font-family="Arial,sans-serif">3.46</text>
<line x1="1100.0" y1="440.0" x2="1100.0" y2="445.0" stroke="#999" stroke-width="1"/>
<line x1="1100.0" y1="68.0" x2="1100.0" y2="440.0" stroke="#e8e8e8" stroke-width="0.7" stroke-dasharray="4,3"/>
<text x="1100.0" y="456.0" font-size="9" font-weight="normal" text-anchor="middle" fill="#888" font-family="Arial,sans-serif">3.63</text>
<text x="16.0" y="254.0" font-size="11" font-weight="normal" text-anchor="middle" fill="#555" font-family="Arial,sans-serif" transform="rotate(-90,16,254.0)">Output Voltage  Vout [V]</text>
<text x="589.0" y="510.0" font-size="11" font-weight="normal" text-anchor="middle" fill="#555" font-family="Arial,sans-serif">Input Voltage  Vin [V]</text>
<g class="series pmic-series" data-mode="PWM" data-chip="21988" data-temp="0" data-reg="DC2DC_ANA">
<path d="M 124.5,195.6 L 150.2,195.6 L 176.0,196.9 L 201.9,201.0 L 227.7,198.3 L 253.5,192.9 L 279.3,199.6 L 305.0,198.3 L 330.8,191.5 L 356.8,190.1 L 382.5,196.9 L 408.4,190.1 L 434.1,191.5 L 459.9,194.2 L 485.6,192.9 L 511.7,196.9 L 537.4,194.2 L 563.2,194.2 L 589.0,195.6 L 614.8,186.1 L 640.7,190.1 L 666.5,188.8 L 692.4,192.9 L 718.2,191.5 L 744.0,196.9 L 769.6,192.9 L 795.5,198.3 L 821.4,190.1 L 847.2,194.2 L 872.9,194.2 L 898.7,192.9 L 924.6,191.5 L 950.2,190.1 L 976.2,192.9 L 1001.9,192.9 L 1027.8,191.5 L 1053.5,196.9" fill="none" stroke="#3498db" stroke-width="2.2" stroke-linejoin="round" opacity="0.9"/>
<circle cx="124.5" cy="195.6" r="4" fill="#3498db" stroke="white" opacity="1.0"/>
<circle cx="150.2" cy="195.6" r="4" fill="#3498db" stroke="white" opacity="1.0"/>
<circle cx="176.0" cy="196.9" r="4" fill="#3498db" stroke="white" opacity="1.0"/>
<circle cx="201.9" cy="201.0" r="4" fill="#3498db" stroke="white" opacity="1.0"/>
<circle cx="227.7" cy="198.3" r="4" fill="#3498db" stroke="white" opacity="1.0"/>
<circle cx="253.5" cy="192.9" r="4" fill="#3498db" stroke="white" opacity="1.0"/>
<circle cx="279.3" cy="199.6" r="4" fill="#3498db" stroke="white" opacity="1.0"/>
<circle cx="305.0" cy="198.3" r="4" fill="#3498db" stroke="white" opacity="1.0"/>
<circle cx="330.8" cy="191.5" r="4" fill="#3498db" stroke="white" opacity="1.0"/>
<circle cx="356.8" cy="190.1" r="4" fill="#3498db" stroke="white" opacity="1.0"/>
<circle cx="382.5" cy="196.9" r="4" fill="#3498db" stroke="white" opacity="1.0"/>
<circle cx="408.4" cy="190.1" r="4" fill="#3498db" stroke="white" opacity="1.0"/>
<circle cx="434.1" cy="191.5" r="4" fill="#3498db" stroke="white" opacity="1.0"/>
<circle cx="459.9" cy="194.2" r="4" fill="#3498db" stroke="white" opacity="1.0"/>
<circle cx="485.6" cy="192.9" r="4" fill="#3498db" stroke="white" opacity="1.0"/>
<circle cx="511.7" cy="196.9" r="4" fill="#3498db" stroke="white" opacity="1.0"/>
<circle cx="537.4" cy="194.2" r="4" fill="#3498db" stroke="white" opacity="1.0"/>
<circle cx="563.2" cy="194.2" r="4" fill="#3498db" stroke="white" opacity="1.0"/>
<circle cx="589.0" cy="195.6" r="4" fill="#3498db" stroke="white" opacity="1.0"/>
<circle cx="614.8" cy="186.1" r="4" fill="#3498db" stroke="white" opacity="1.0"/>
<circle cx="640.7" cy="190.1" r="4" fill="#3498db" stroke="white" opacity="1.0"/>
<circle cx="666.5" cy="188.8" r="4" fill="#3498db" stroke="white" opacity="1.0"/>
<circle cx="692.4" cy="192.9" r="4" fill="#3498db" stroke="white" opacity="1.0"/>
<circle cx="718.2" cy="191.5" r="4" fill="#3498db" stroke="white" opacity="1.0"/>
<circle cx="744.0" cy="196.9" r="4" fill="#3498db" stroke="white" opacity="1.0"/>
<circle cx="769.6" cy="192.9" r="4" fill="#3498db" stroke="white" opacity="1.0"/>
<circle cx="795.5" cy="198.3" r="4" fill="#3498db" stroke="white" opacity="1.0"/>
<circle cx="821.4" cy="190.1" r="4" fill="#3498db" stroke="white" opacity="1.0"/>
<circle cx="847.2" cy="194.2" r="4" fill="#3498db" stroke="white" opacity="1.0"/>
<circle cx="872.9" cy="194.2" r="4" fill="#3498db" stroke="white" opacity="1.0"/>
<circle cx="898.7" cy="192.9" r="4" fill="#3498db" stroke="white" opacity="1.0"/>
<circle cx="924.6" cy="191.5" r="4" fill="#3498db" stroke="white" opacity="1.0"/>
<circle cx="950.2" cy="190.1" r="4" fill="#3498db" stroke="white" opacity="1.0"/>
<circle cx="976.2" cy="192.9" r="4" fill="#3498db" stroke="white" opacity="1.0"/>
<circle cx="1001.9" cy="192.9" r="4" fill="#3498db" stroke="white" opacity="1.0"/>
<circle cx="1027.8" cy="191.5" r="4" fill="#3498db" stroke="white" opacity="1.0"/>
<circle cx="1053.5" cy="196.9" r="4" fill="#3498db" stroke="white" opacity="1.0"/>
</g>
<g class="series pmic-series" data-mode="PWM" data-chip="21988" data-temp="25" data-reg="DC2DC_ANA">
<path d="M 124.5,213.2 L 150.3,209.2 L 176.0,207.8 L 201.9,205.1 L 227.7,206.4 L 253.5,207.8 L 279.3,213.2 L 305.0,213.2 L 330.8,217.3 L 356.9,220.0 L 382.6,211.9 L 408.4,206.4 L 434.1,213.2 L 459.9,213.2 L 485.6,213.2 L 511.7,213.2 L 537.4,216.0 L 563.2,214.6 L 589.0,211.9 L 614.8,211.9 L 640.6,214.6 L 666.5,213.2 L 692.4,214.6 L 718.2,210.5 L 744.0,214.6 L 769.6,217.3 L 795.4,218.7 L 821.4,210.5 L 847.2,211.9 L 872.9,209.2 L 898.7,217.3 L 924.6,222.7 L 950.2,217.3 L 976.2,214.6 L 1001.9,218.7 L 1027.8,209.2 L 1053.5,207.8" fill="none" stroke="#e67e22" stroke-width="2.2" stroke-linejoin="round" opacity="0.9"/>
<circle cx="124.5" cy="213.2" r="4" fill="#e67e22" stroke="white" opacity="1.0"/>
<circle cx="150.3" cy="209.2" r="4" fill="#e67e22" stroke="white" opacity="1.0"/>
<circle cx="176.0" cy="207.8" r="4" fill="#e67e22" stroke="white" opacity="1.0"/>
<circle cx="201.9" cy="205.1" r="4" fill="#e67e22" stroke="white" opacity="1.0"/>
<circle cx="227.7" cy="206.4" r="4" fill="#e67e22" stroke="white" opacity="1.0"/>
<circle cx="253.5" cy="207.8" r="4" fill="#e67e22" stroke="white" opacity="1.0"/>
<circle cx="279.3" cy="213.2" r="4" fill="#e67e22" stroke="white" opacity="1.0"/>
<circle cx="305.0" cy="213.2" r="4" fill="#e67e22" stroke="white" opacity="1.0"/>
<circle cx="330.8" cy="217.3" r="4" fill="#e67e22" stroke="white" opacity="1.0"/>
<circle cx="356.9" cy="220.0" r="4" fill="#e67e22" stroke="white" opacity="1.0"/>
<circle cx="382.6" cy="211.9" r="4" fill="#e67e22" stroke="white" opacity="1.0"/>
<circle cx="408.4" cy="206.4" r="4" fill="#e67e22" stroke="white" opacity="1.0"/>
<circle cx="434.1" cy="213.2" r="4" fill="#e67e22" stroke="white" opacity="1.0"/>
<circle cx="459.9" cy="213.2" r="4" fill="#e67e22" stroke="white" opacity="1.0"/>
<circle cx="485.6" cy="213.2" r="4" fill="#e67e22" stroke="white" opacity="1.0"/>
<circle cx="511.7" cy="213.2" r="4" fill="#e67e22" stroke="white" opacity="1.0"/>
<circle cx="537.4" cy="216.0" r="4" fill="#e67e22" stroke="white" opacity="1.0"/>
<circle cx="563.2" cy="214.6" r="4" fill="#e67e22" stroke="white" opacity="1.0"/>
<circle cx="589.0" cy="211.9" r="4" fill="#e67e22" stroke="white" opacity="1.0"/>
<circle cx="614.8" cy="211.9" r="4" fill="#e67e22" stroke="white" opacity="1.0"/>
<circle cx="640.6" cy="214.6" r="4" fill="#e67e22" stroke="white" opacity="1.0"/>
<circle cx="666.5" cy="213.2" r="4" fill="#e67e22" stroke="white" opacity="1.0"/>
<circle cx="692.4" cy="214.6" r="4" fill="#e67e22" stroke="white" opacity="1.0"/>
<circle cx="718.2" cy="210.5" r="4" fill="#e67e22" stroke="white" opacity="1.0"/>
<circle cx="744.0" cy="214.6" r="4" fill="#e67e22" stroke="white" opacity="1.0"/>
<circle cx="769.6" cy="217.3" r="4" fill="#e67e22" stroke="white" opacity="1.0"/>
<circle cx="795.4" cy="218.7" r="4" fill="#e67e22" stroke="white" opacity="1.0"/>
<circle cx="821.4" cy="210.5" r="4" fill="#e67e22" stroke="white" opacity="1.0"/>
<circle cx="847.2" cy="211.9" r="4" fill="#e67e22" stroke="white" opacity="1.0"/>
<circle cx="872.9" cy="209.2" r="4" fill="#e67e22" stroke="white" opacity="1.0"/>
<circle cx="898.7" cy="217.3" r="4" fill="#e67e22" stroke="white" opacity="1.0"/>
<circle cx="924.6" cy="222.7" r="4" fill="#e67e22" stroke="white" opacity="1.0"/>
<circle cx="950.2" cy="217.3" r="4" fill="#e67e22" stroke="white" opacity="1.0"/>
<circle cx="976.2" cy="214.6" r="4" fill="#e67e22" stroke="white" opacity="1.0"/>
<circle cx="1001.9" cy="218.7" r="4" fill="#e67e22" stroke="white" opacity="1.0"/>
<circle cx="1027.8" cy="209.2" r="4" fill="#e67e22" stroke="white" opacity="1.0"/>
<circle cx="1053.5" cy="207.8" r="4" fill="#e67e22" stroke="white" opacity="1.0"/>
</g>
<g class="series pmic-series" data-mode="PWM" data-chip="21988" data-temp="80" data-reg="DC2DC_ANA">
<path d="M 124.5,180.6 L 150.2,186.1 L 176.0,184.7 L 201.9,183.3 L 227.7,179.3 L 253.5,186.1 L 279.2,180.6 L 305.0,179.3 L 330.8,183.3 L 356.8,184.7 L 382.5,177.9 L 408.4,182.0 L 434.1,183.3 L 459.9,180.6 L 485.6,184.7 L 511.7,182.0 L 537.4,183.3 L 563.2,182.0 L 589.0,176.5 L 614.8,183.3 L 640.6,176.5 L 666.5,171.1 L 692.4,172.5 L 718.2,175.2 L 744.0,175.2 L 769.6,176.5 L 795.5,171.1 L 821.4,169.8 L 847.2,173.8 L 872.8,175.2 L 898.7,169.8 L 924.5,171.1 L 950.2,169.8 L 976.2,168.4 L 1001.9,172.5 L 1027.8,171.1 L 1053.5,173.8" fill="none" stroke="#2ecc71" stroke-width="2.2" stroke-linejoin="round" opacity="0.9"/>
<circle cx="124.5" cy="180.6" r="4" fill="#2ecc71" stroke="white" opacity="1.0"/>
<circle cx="150.2" cy="186.1" r="4" fill="#2ecc71" stroke="white" opacity="1.0"/>
<circle cx="176.0" cy="184.7" r="4" fill="#2ecc71" stroke="white" opacity="1.0"/>
<circle cx="201.9" cy="183.3" r="4" fill="#2ecc71" stroke="white" opacity="1.0"/>
<circle cx="227.7" cy="179.3" r="4" fill="#2ecc71" stroke="white" opacity="1.0"/>
<circle cx="253.5" cy="186.1" r="4" fill="#2ecc71" stroke="white" opacity="1.0"/>
<circle cx="279.2" cy="180.6" r="4" fill="#2ecc71" stroke="white" opacity="1.0"/>
<circle cx="305.0" cy="179.3" r="4" fill="#2ecc71" stroke="white" opacity="1.0"/>
<circle cx="330.8" cy="183.3" r="4" fill="#2ecc71" stroke="white" opacity="1.0"/>
<circle cx="356.8" cy="184.7" r="4" fill="#2ecc71" stroke="white" opacity="1.0"/>
<circle cx="382.5" cy="177.9" r="4" fill="#2ecc71" stroke="white" opacity="1.0"/>
<circle cx="408.4" cy="182.0" r="4" fill="#2ecc71" stroke="white" opacity="1.0"/>
<circle cx="434.1" cy="183.3" r="4" fill="#2ecc71" stroke="white" opacity="1.0"/>
<circle cx="459.9" cy="180.6" r="4" fill="#2ecc71" stroke="white" opacity="1.0"/>
<circle cx="485.6" cy="184.7" r="4" fill="#2ecc71" stroke="white" opacity="1.0"/>
<circle cx="511.7" cy="182.0" r="4" fill="#2ecc71" stroke="white" opacity="1.0"/>
<circle cx="537.4" cy="183.3" r="4" fill="#2ecc71" stroke="white" opacity="1.0"/>
<circle cx="563.2" cy="182.0" r="4" fill="#2ecc71" stroke="white" opacity="1.0"/>
<circle cx="589.0" cy="176.5" r="4" fill="#2ecc71" stroke="white" opacity="1.0"/>
<circle cx="614.8" cy="183.3" r="4" fill="#2ecc71" stroke="white" opacity="1.0"/>
<circle cx="640.6" cy="176.5" r="4" fill="#2ecc71" stroke="white" opacity="1.0"/>
<circle cx="666.5" cy="171.1" r="4" fill="#2ecc71" stroke="white" opacity="1.0"/>
<circle cx="692.4" cy="172.5" r="4" fill="#2ecc71" stroke="white" opacity="1.0"/>
<circle cx="718.2" cy="175.2" r="4" fill="#2ecc71" stroke="white" opacity="1.0"/>
<circle cx="744.0" cy="175.2" r="4" fill="#2ecc71" stroke="white" opacity="1.0"/>
<circle cx="769.6" cy="176.5" r="4" fill="#2ecc71" stroke="white" opacity="1.0"/>
<circle cx="795.5" cy="171.1" r="4" fill="#2ecc71" stroke="white" opacity="1.0"/>
<circle cx="821.4" cy="169.8" r="4" fill="#2ecc71" stroke="white" opacity="1.0"/>
<circle cx="847.2" cy="173.8" r="4" fill="#2ecc71" stroke="white" opacity="1.0"/>
<circle cx="872.8" cy="175.2" r="4" fill="#2ecc71" stroke="white" opacity="1.0"/>
<circle cx="898.7" cy="169.8" r="4" fill="#2ecc71" stroke="white" opacity="1.0"/>
<circle cx="924.5" cy="171.1" r="4" fill="#2ecc71" stroke="white" opacity="1.0"/>
<circle cx="950.2" cy="169.8" r="4" fill="#2ecc71" stroke="white" opacity="1.0"/>
<circle cx="976.2" cy="168.4" r="4" fill="#2ecc71" stroke="white" opacity="1.0"/>
<circle cx="1001.9" cy="172.5" r="4" fill="#2ecc71" stroke="white" opacity="1.0"/>
<circle cx="1027.8" cy="171.1" r="4" fill="#2ecc71" stroke="white" opacity="1.0"/>
<circle cx="1053.5" cy="173.8" r="4" fill="#2ecc71" stroke="white" opacity="1.0"/>
</g>
<g class="series pmic-series" data-mode="PWM" data-chip="31927" data-temp="0" data-reg="DC2DC_ANA">
<path d="M 124.5,105.9 L 150.2,96.4 L 176.0,105.9 L 201.9,97.7 L 227.7,100.4 L 253.5,100.4 L 279.3,93.7 L 305.0,95.0 L 330.8,96.4 L 356.9,101.8 L 382.6,99.1 L 408.4,99.1 L 434.1,112.7 L 459.9,101.8 L 485.6,108.6 L 511.7,100.4 L 537.4,93.7 L 563.2,96.4 L 589.0,101.8 L 614.8,97.7 L 640.6,97.7 L 666.5,101.8 L 692.4,97.7 L 718.1,100.4 L 744.0,95.0 L 769.6,99.1 L 795.4,104.5 L 821.4,96.4 L 847.2,104.5 L 872.8,107.2 L 898.7,96.4 L 924.5,104.5 L 950.2,103.2 L 976.2,103.2 L 1001.9,104.5 L 1027.8,105.9 L 1053.5,101.8" fill="none" stroke="#9b59b6" stroke-width="2.2" stroke-linejoin="round" opacity="0.9"/>
<circle cx="124.5" cy="105.9" r="4" fill="#9b59b6" stroke="white" opacity="1.0"/>
<circle cx="150.2" cy="96.4" r="4" fill="#9b59b6" stroke="white" opacity="1.0"/>
<circle cx="176.0" cy="105.9" r="4" fill="#9b59b6" stroke="white" opacity="1.0"/>
<circle cx="201.9" cy="97.7" r="4" fill="#9b59b6" stroke="white" opacity="1.0"/>
<circle cx="227.7" cy="100.4" r="4" fill="#9b59b6" stroke="white" opacity="1.0"/>
<circle cx="253.5" cy="100.4" r="4" fill="#9b59b6" stroke="white" opacity="1.0"/>
<circle cx="279.3" cy="93.7" r="4" fill="#9b59b6" stroke="white" opacity="1.0"/>
<circle cx="305.0" cy="95.0" r="4" fill="#9b59b6" stroke="white" opacity="1.0"/>
<circle cx="330.8" cy="96.4" r="4" fill="#9b59b6" stroke="white" opacity="1.0"/>
<circle cx="356.9" cy="101.8" r="4" fill="#9b59b6" stroke="white" opacity="1.0"/>
<circle cx="382.6" cy="99.1" r="4" fill="#9b59b6" stroke="white" opacity="1.0"/>
<circle cx="408.4" cy="99.1" r="4" fill="#9b59b6" stroke="white" opacity="1.0"/>
<circle cx="434.1" cy="112.7" r="4" fill="#9b59b6" stroke="white" opacity="1.0"/>
<circle cx="459.9" cy="101.8" r="4" fill="#9b59b6" stroke="white" opacity="1.0"/>
<circle cx="485.6" cy="108.6" r="4" fill="#9b59b6" stroke="white" opacity="1.0"/>
<circle cx="511.7" cy="100.4" r="4" fill="#9b59b6" stroke="white" opacity="1.0"/>
<circle cx="537.4" cy="93.7" r="4" fill="#9b59b6" stroke="white" opacity="1.0"/>
<circle cx="563.2" cy="96.4" r="4" fill="#9b59b6" stroke="white" opacity="1.0"/>
<circle cx="589.0" cy="101.8" r="4" fill="#9b59b6" stroke="white" opacity="1.0"/>
<circle cx="614.8" cy="97.7" r="4" fill="#9b59b6" stroke="white" opacity="1.0"/>
<circle cx="640.6" cy="97.7" r="4" fill="#9b59b6" stroke="white" opacity="1.0"/>
<circle cx="666.5" cy="101.8" r="4" fill="#9b59b6" stroke="white" opacity="1.0"/>
<circle cx="692.4" cy="97.7" r="4" fill="#9b59b6" stroke="white" opacity="1.0"/>
<circle cx="718.1" cy="100.4" r="4" fill="#9b59b6" stroke="white" opacity="1.0"/>
<circle cx="744.0" cy="95.0" r="4" fill="#9b59b6" stroke="white" opacity="1.0"/>
<circle cx="769.6" cy="99.1" r="4" fill="#9b59b6" stroke="white" opacity="1.0"/>
<circle cx="795.4" cy="104.5" r="4" fill="#9b59b6" stroke="white" opacity="1.0"/>
<circle cx="821.4" cy="96.4" r="4" fill="#9b59b6" stroke="white" opacity="1.0"/>
<circle cx="847.2" cy="104.5" r="4" fill="#9b59b6" stroke="white" opacity="1.0"/>
<circle cx="872.8" cy="107.2" r="4" fill="#9b59b6" stroke="white" opacity="1.0"/>
<circle cx="898.7" cy="96.4" r="4" fill="#9b59b6" stroke="white" opacity="1.0"/>
<circle cx="924.5" cy="104.5" r="4" fill="#9b59b6" stroke="white" opacity="1.0"/>
<circle cx="950.2" cy="103.2" r="4" fill="#9b59b6" stroke="white" opacity="1.0"/>
<circle cx="976.2" cy="103.2" r="4" fill="#9b59b6" stroke="white" opacity="1.0"/>
<circle cx="1001.9" cy="104.5" r="4" fill="#9b59b6" stroke="white" opacity="1.0"/>
<circle cx="1027.8" cy="105.9" r="4" fill="#9b59b6" stroke="white" opacity="1.0"/>
<circle cx="1053.5" cy="101.8" r="4" fill="#9b59b6" stroke="white" opacity="1.0"/>
</g>
<g class="series pmic-series" data-mode="PWM" data-chip="31927" data-temp="25" data-reg="DC2DC_ANA">
<path d="M 124.5,311.1 L 150.2,311.1 L 176.0,321.9 L 201.8,313.8 L 227.7,313.8 L 253.5,320.6 L 279.2,316.5 L 305.0,316.5 L 330.8,315.1 L 356.8,317.9 L 382.5,321.9 L 408.3,317.9 L 434.0,309.7 L 459.9,312.4 L 485.6,313.8 L 511.6,315.1 L 537.3,313.8 L 563.2,308.4 L 589.0,309.7 L 614.8,315.1 L 640.6,316.5 L 666.5,305.6 L 692.4,313.8 L 718.1,308.4 L 743.9,311.1 L 769.5,305.6 L 795.4,307.0 L 821.3,315.1 L 847.2,320.6 L 872.8,309.7 L 898.6,313.8 L 924.5,312.4 L 950.2,309.7 L 976.1,312.4 L 1001.9,316.5 L 1027.8,311.1 L 1053.5,311.1" fill="none" stroke="#1abc9c" stroke-width="2.2" stroke-linejoin="round" opacity="0.9"/>
<circle cx="124.5" cy="311.1" r="4" fill="#1abc9c" stroke="white" opacity="1.0"/>
<circle cx="150.2" cy="311.1" r="4" fill="#1abc9c" stroke="white" opacity="1.0"/>
<circle cx="176.0" cy="321.9" r="4" fill="#1abc9c" stroke="white" opacity="1.0"/>
<circle cx="201.8" cy="313.8" r="4" fill="#1abc9c" stroke="white" opacity="1.0"/>
<circle cx="227.7" cy="313.8" r="4" fill="#1abc9c" stroke="white" opacity="1.0"/>
<circle cx="253.5" cy="320.6" r="4" fill="#1abc9c" stroke="white" opacity="1.0"/>
<circle cx="279.2" cy="316.5" r="4" fill="#1abc9c" stroke="white" opacity="1.0"/>
<circle cx="305.0" cy="316.5" r="4" fill="#1abc9c" stroke="white" opacity="1.0"/>
<circle cx="330.8" cy="315.1" r="4" fill="#1abc9c" stroke="white" opacity="1.0"/>
<circle cx="356.8" cy="317.9" r="4" fill="#1abc9c" stroke="white" opacity="1.0"/>
<circle cx="382.5" cy="321.9" r="4" fill="#1abc9c" stroke="white" opacity="1.0"/>
<circle cx="408.3" cy="317.9" r="4" fill="#1abc9c" stroke="white" opacity="1.0"/>
<circle cx="434.0" cy="309.7" r="4" fill="#1abc9c" stroke="white" opacity="1.0"/>
<circle cx="459.9" cy="312.4" r="4" fill="#1abc9c" stroke="white" opacity="1.0"/>
<circle cx="485.6" cy="313.8" r="4" fill="#1abc9c" stroke="white" opacity="1.0"/>
<circle cx="511.6" cy="315.1" r="4" fill="#1abc9c" stroke="white" opacity="1.0"/>
<circle cx="537.3" cy="313.8" r="4" fill="#1abc9c" stroke="white" opacity="1.0"/>
<circle cx="563.2" cy="308.4" r="4" fill="#1abc9c" stroke="white" opacity="1.0"/>
<circle cx="589.0" cy="309.7" r="4" fill="#1abc9c" stroke="white" opacity="1.0"/>
<circle cx="614.8" cy="315.1" r="4" fill="#1abc9c" stroke="white" opacity="1.0"/>
<circle cx="640.6" cy="316.5" r="4" fill="#1abc9c" stroke="white" opacity="1.0"/>
<circle cx="666.5" cy="305.6" r="4" fill="#1abc9c" stroke="white" opacity="1.0"/>
<circle cx="692.4" cy="313.8" r="4" fill="#1abc9c" stroke="white" opacity="1.0"/>
<circle cx="718.1" cy="308.4" r="4" fill="#1abc9c" stroke="white" opacity="1.0"/>
<circle cx="743.9" cy="311.1" r="4" fill="#1abc9c" stroke="white" opacity="1.0"/>
<circle cx="769.5" cy="305.6" r="4" fill="#1abc9c" stroke="white" opacity="1.0"/>
<circle cx="795.4" cy="307.0" r="4" fill="#1abc9c" stroke="white" opacity="1.0"/>
<circle cx="821.3" cy="315.1" r="4" fill="#1abc9c" stroke="white" opacity="1.0"/>
<circle cx="847.2" cy="320.6" r="4" fill="#1abc9c" stroke="white" opacity="1.0"/>
<circle cx="872.8" cy="309.7" r="4" fill="#1abc9c" stroke="white" opacity="1.0"/>
<circle cx="898.6" cy="313.8" r="4" fill="#1abc9c" stroke="white" opacity="1.0"/>
<circle cx="924.5" cy="312.4" r="4" fill="#1abc9c" stroke="white" opacity="1.0"/>
<circle cx="950.2" cy="309.7" r="4" fill="#1abc9c" stroke="white" opacity="1.0"/>
<circle cx="976.1" cy="312.4" r="4" fill="#1abc9c" stroke="white" opacity="1.0"/>
<circle cx="1001.9" cy="316.5" r="4" fill="#1abc9c" stroke="white" opacity="1.0"/>
<circle cx="1027.8" cy="311.1" r="4" fill="#1abc9c" stroke="white" opacity="1.0"/>
<circle cx="1053.5" cy="311.1" r="4" fill="#1abc9c" stroke="white" opacity="1.0"/>
</g>
<g class="series pmic-series" data-mode="PWM" data-chip="31927" data-temp="80" data-reg="DC2DC_ANA">
<path d="M 124.5,406.2 L 150.2,406.2 L 176.0,407.6 L 201.9,404.8 L 227.7,403.5 L 253.5,406.2 L 279.3,407.6 L 305.0,403.5 L 330.8,408.9 L 356.8,408.9 L 382.6,408.9 L 408.3,407.6 L 434.1,414.3 L 459.9,408.9 L 485.6,402.1 L 511.6,408.9 L 537.3,408.9 L 563.2,400.8 L 589.0,407.6 L 614.8,398.0 L 640.6,406.2 L 666.5,396.7 L 692.4,400.8 L 718.2,399.4 L 744.0,395.3 L 769.6,400.8 L 795.4,402.1 L 821.4,404.8 L 847.2,404.8 L 872.8,396.7 L 898.6,402.1 L 924.5,406.2 L 950.2,403.5 L 976.2,400.8 L 1001.9,396.7 L 1027.8,400.8 L 1053.5,400.8" fill="none" stroke="#e74c3c" stroke-width="2.2" stroke-linejoin="round" opacity="0.9"/>
<circle cx="124.5" cy="406.2" r="4" fill="#e74c3c" stroke="white" opacity="1.0"/>
<circle cx="150.2" cy="406.2" r="4" fill="#e74c3c" stroke="white" opacity="1.0"/>
<circle cx="176.0" cy="407.6" r="4" fill="#e74c3c" stroke="white" opacity="1.0"/>
<circle cx="201.9" cy="404.8" r="4" fill="#e74c3c" stroke="white" opacity="1.0"/>
<circle cx="227.7" cy="403.5" r="4" fill="#e74c3c" stroke="white" opacity="1.0"/>
<circle cx="253.5" cy="406.2" r="4" fill="#e74c3c" stroke="white" opacity="1.0"/>
<circle cx="279.3" cy="407.6" r="4" fill="#e74c3c" stroke="white" opacity="1.0"/>
<circle cx="305.0" cy="403.5" r="4" fill="#e74c3c" stroke="white" opacity="1.0"/>
<circle cx="330.8" cy="408.9" r="4" fill="#e74c3c" stroke="white" opacity="1.0"/>
<circle cx="356.8" cy="408.9" r="4" fill="#e74c3c" stroke="white" opacity="1.0"/>
<circle cx="382.6" cy="408.9" r="4" fill="#e74c3c" stroke="white" opacity="1.0"/>
<circle cx="408.3" cy="407.6" r="4" fill="#e74c3c" stroke="white" opacity="1.0"/>
<circle cx="434.1" cy="414.3" r="4" fill="#e74c3c" stroke="white" opacity="1.0"/>
<circle cx="459.9" cy="408.9" r="4" fill="#e74c3c" stroke="white" opacity="1.0"/>
<circle cx="485.6" cy="402.1" r="4" fill="#e74c3c" stroke="white" opacity="1.0"/>
<circle cx="511.6" cy="408.9" r="4" fill="#e74c3c" stroke="white" opacity="1.0"/>
<circle cx="537.3" cy="408.9" r="4" fill="#e74c3c" stroke="white" opacity="1.0"/>
<circle cx="563.2" cy="400.8" r="4" fill="#e74c3c" stroke="white" opacity="1.0"/>
<circle cx="589.0" cy="407.6" r="4" fill="#e74c3c" stroke="white" opacity="1.0"/>
<circle cx="614.8" cy="398.0" r="4" fill="#e74c3c" stroke="white" opacity="1.0"/>
<circle cx="640.6" cy="406.2" r="4" fill="#e74c3c" stroke="white" opacity="1.0"/>
<circle cx="666.5" cy="396.7" r="4" fill="#e74c3c" stroke="white" opacity="1.0"/>
<circle cx="692.4" cy="400.8" r="4" fill="#e74c3c" stroke="white" opacity="1.0"/>
<circle cx="718.2" cy="399.4" r="4" fill="#e74c3c" stroke="white" opacity="1.0"/>
<circle cx="744.0" cy="395.3" r="4" fill="#e74c3c" stroke="white" opacity="1.0"/>
<circle cx="769.6" cy="400.8" r="4" fill="#e74c3c" stroke="white" opacity="1.0"/>
<circle cx="795.4" cy="402.1" r="4" fill="#e74c3c" stroke="white" opacity="1.0"/>
<circle cx="821.4" cy="404.8" r="4" fill="#e74c3c" stroke="white" opacity="1.0"/>
<circle cx="847.2" cy="404.8" r="4" fill="#e74c3c" stroke="white" opacity="1.0"/>
<circle cx="872.8" cy="396.7" r="4" fill="#e74c3c" stroke="white" opacity="1.0"/>
<circle cx="898.6" cy="402.1" r="4" fill="#e74c3c" stroke="white" opacity="1.0"/>
<circle cx="924.5" cy="406.2" r="4" fill="#e74c3c" stroke="white" opacity="1.0"/>
<circle cx="950.2" cy="403.5" r="4" fill="#e74c3c" stroke="white" opacity="1.0"/>
<circle cx="976.2" cy="400.8" r="4" fill="#e74c3c" stroke="white" opacity="1.0"/>
<circle cx="1001.9" cy="396.7" r="4" fill="#e74c3c" stroke="white" opacity="1.0"/>
<circle cx="1027.8" cy="400.8" r="4" fill="#e74c3c" stroke="white" opacity="1.0"/>
<circle cx="1053.5" cy="400.8" r="4" fill="#e74c3c" stroke="white" opacity="1.0"/>
</g>
<g class="legend-item" data-mode="PWM" data-chip="21988" data-temp="0" data-reg="DC2DC_ANA">
<rect x="1116.0" y="69.0" width="22.0" height="4.0" fill="#3498db" stroke="none" stroke-width="1" opacity="1.0" rx="2"/>
<circle cx="1127.0" cy="71.0" r="4" fill="#3498db" stroke="none" opacity="1.0"/>
<text x="1144.0" y="76.0" font-size="9" font-weight="normal" text-anchor="start" fill="#333" font-family="Arial,sans-serif">Chip 21988 | T=0°C</text>
</g>
<g class="legend-item" data-mode="PWM" data-chip="21988" data-temp="25" data-reg="DC2DC_ANA">
<rect x="1116.0" y="86.0" width="22.0" height="4.0" fill="#e67e22" stroke="none" stroke-width="1" opacity="1.0" rx="2"/>
<circle cx="1127.0" cy="88.0" r="4" fill="#e67e22" stroke="none" opacity="1.0"/>
<text x="1144.0" y="93.0" font-size="9" font-weight="normal" text-anchor="start" fill="#333" font-family="Arial,sans-serif">Chip 21988 | T=25°C</text>
</g>
<g class="legend-item" data-mode="PWM" data-chip="21988" data-temp="80" data-reg="DC2DC_ANA">
<rect x="1116.0" y="103.0" width="22.0" height="4.0" fill="#2ecc71" stroke="none" stroke-width="1" opacity="1.0" rx="2"/>
<circle cx="1127.0" cy="105.0" r="4" fill="#2ecc71" stroke="none" opacity="1.0"/>
<text x="1144.0" y="110.0" font-size="9" font-weight="normal" text-anchor="start" fill="#333" font-family="Arial,sans-serif">Chip 21988 | T=80°C</text>
</g>
<g class="legend-item" data-mode="PWM" data-chip="31927" data-temp="0" data-reg="DC2DC_ANA">
<rect x="1116.0" y="120.0" width="22.0" height="4.0" fill="#9b59b6" stroke="none" stroke-width="1" opacity="1.0" rx="2"/>
<circle cx="1127.0" cy="122.0" r="4" fill="#9b59b6" stroke="none" opacity="1.0"/>
<text x="1144.0" y="127.0" font-size="9" font-weight="normal" text-anchor="start" fill="#333" font-family="Arial,sans-serif">Chip 31927 | T=0°C</text>
</g>
<g class="legend-item" data-mode="PWM" data-chip="31927" data-temp="25" data-reg="DC2DC_ANA">
<rect x="1116.0" y="137.0" width="22.0" height="4.0" fill="#1abc9c" stroke="none" stroke-width="1" opacity="1.0" rx="2"/>
<circle cx="1127.0" cy="139.0" r="4" fill="#1abc9c" stroke="none" opacity="1.0"/>
<text x="1144.0" y="144.0" font-size="9" font-weight="normal" text-anchor="start" fill="#333" font-family="Arial,sans-serif">Chip 31927 | T=25°C</text>
</g>
<g class="legend-item" data-mode="PWM" data-chip="31927" data-temp="80" data-reg="DC2DC_ANA">
<rect x="1116.0" y="154.0" width="22.0" height="4.0" fill="#e74c3c" stroke="none" stroke-width="1" opacity="1.0" rx="2"/>
<circle cx="1127.0" cy="156.0" r="4" fill="#e74c3c" stroke="none" opacity="1.0"/>
<text x="1144.0" y="161.0" font-size="9" font-weight="normal" text-anchor="start" fill="#333" font-family="Arial,sans-serif">Chip 31927 | T=80°C</text>
</g>
<rect class="cursor-overlay" x="78.0" y="68.0" width="1022.0" height="372.0" fill="transparent" style="cursor:default" data-xmin="2.446395" data-xmax="3.634505" data-ymin="1.178712" data-ymax="1.206088" data-pl="78.0" data-pr="1100.0" data-pt="68.0" data-pb="440.0"/>
<g class="cursor-layer" style="pointer-events:none;display:none"><line class="cur-v" x1="0" y1="68.0" x2="0" y2="440.0" stroke="#e74c3c" stroke-width="1.2" stroke-dasharray="5,3"/><line class="cur-h" x1="78.0" y1="0" x2="1100.0" y2="0" stroke="#e74c3c" stroke-width="1.2" stroke-dasharray="5,3"/><rect class="cur-tip-bg" x="0" y="0" width="148" height="44" rx="5" fill="#1a252f" stroke="#34495e" stroke-width="1" opacity="0.92"/><text class="cur-tip-x" x="0" y="0" font-size="11" font-family="Arial,sans-serif" fill="#ecf0f1"/><text class="cur-tip-y" x="0" y="0" font-size="11" font-family="Arial,sans-serif" fill="#2ecc71"/></g>
</svg>