<svg xmlns="http://www.w3.org/2000/svg" width="1400" height="560" viewBox="0 0 1400 560">
<rect width="1400" height="560" fill="#ffffff"/>
<text x="700.0" y="28.0" font-size="16" font-weight="bold" text-anchor="middle" fill="#2c3e50" font-family="Arial,sans-serif">Transient — Analog DC2DC  Vout=1V  [AUTO_PFM]  Load 25mA→800mA  — Undershoot</text>
<line x1="78.0" y1="68.0" x2="78.0" y2="480.0" stroke="#999" stroke-width="1"/>
<line x1="73.0" y1="480.0" x2="78.0" y2="480.0" stroke="#999" stroke-width="1"/>
<line x1="78.0" y1="480.0" x2="1100.0" y2="480.0" stroke="#e8e8e8" stroke-width="0.7" stroke-dasharray="4,3"/>
<text x="70.0" y="484.0" font-size="9" font-weight="normal" text-anchor="end" fill="#888" font-family="Arial,sans-serif">0.932</text>
<line x1="73.0" y1="397.6" x2="78.0" y2="397.6" stroke="#999" stroke-width="1"/>
<line x1="78.0" y1="397.6" x2="1100.0" y2="397.6" stroke="#e8e8e8" stroke-width="0.7" stroke-dasharray="4,3"/>
<text x="70.0" y="401.6" font-size="9" font-weight="normal" text-anchor="end" fill="#888" font-family="Arial,sans-serif">0.944</text>
<line x1="73.0" y1="315.2" x2="78.0" y2="315.2" stroke="#999" stroke-width="1"/>
<line x1="78.0" y1="315.2" x2="1100.0" y2="315.2" stroke="#e8e8e8" stroke-width="0.7" stroke-dasharray="4,3"/>
<text x="70.0" y="319.2" font-size="9" font-weight="normal" text-anchor="end" fill="#888" font-family="Arial,sans-serif">0.956</text>
<line x1="73.0" y1="232.8" x2="78.0" y2="232.8" stroke="#999" stroke-width="1"/>
<line x1="78.0" y1="232.8" x2="1100.0" y2="232.8" stroke="#e8e8e8" stroke-width="0.7" stroke-dasharray="4,3"/>
<text x="70.0" y="236.8" font-size="9" font-weight="normal" text-anchor="end" fill="#888" font-family="Arial,sans-serif">0.969</text>
<line x1="73.0" y1="150.4" x2="78.0" y2="150.4" stroke="#999" stroke-width="1"/>
<line x1="78.0" y1="150.4" x2="1100.0" y2="150.4" stroke="#e8e8e8" stroke-width="0.7" stroke-dasharray="4,3"/>
<text x="70.0" y="154.4" font-size="9" font-weight="normal" text-anchor="end" fill="#888" font-family="Arial,sans-serif">0.981</text>
<line x1="73.0" y1="68.0" x2="78.0" y2="68.0" stroke="#999" stroke-width="1"/>
<line x1="78.0" y1="68.0" x2="1100.0" y2="68.0" stroke="#e8e8e8" stroke-width="0.7" stroke-dasharray="4,3"/>
<text x="70.0" y="72.0" font-size="9" font-weight="normal" text-anchor="end" fill="#888" font-family="Arial,sans-serif">0.994</text>
<line x1="78.0" y1="480.0" x2="1100.0" y2="480.0" stroke="#999" stroke-width="1"/>
<line x1="333.5" y1="480.0" x2="333.5" y2="485.0" stroke="#999" stroke-width="1"/>
<line x1="333.5" y1="68.0" x2="333.5" y2="480.0" stroke="#e8e8e8" stroke-width="0.7" stroke-dasharray="4,3"/>
<text x="333.5" y="496.0" font-size="10" font-weight="normal" text-anchor="middle" fill="#888" font-family="Arial,sans-serif">3.135</text>
<line x1="589.0" y1="480.0" x2="589.0" y2="485.0" stroke="#999" stroke-width="1"/>
<line x1="589.0" y1="68.0" x2="589.0" y2="480.0" stroke="#e8e8e8" stroke-width="0.7" stroke-dasharray="4,3"/>
<text x="589.0" y="496.0" font-size="10" font-weight="normal" text-anchor="middle" fill="#888" font-family="Arial,sans-serif">3.3</text>
<line x1="844.5" y1="480.0" x2="844.5" y2="485.0" stroke="#999" stroke-width="1"/>
<line x1="844.5" y1="68.0" x2="844.5" y2="480.0" stroke="#e8e8e8" stroke-width="0.7" stroke-dasharray="4,3"/>
<text x="844.5" y="496.0" font-size="10" font-weight="normal" text-anchor="middle" fill="#888" font-family="Arial,sans-serif">3.465</text>
<text x="16.0" y="274.0" font-size="11" font-weight="normal" text-anchor="middle" fill="#555" font-family="Arial,sans-serif" transform="rotate(-90,16,274.0)">Vout Min [V]</text>
<text x="589.0" y="550.0" font-size="11" font-weight="normal" text-anchor="middle" fill="#555" font-family="Arial,sans-serif">Vin Setpoint [V]</text>
<g class="series pmic-series" data-mode="AUTO_PFM" data-chip="21988" data-temp="0" data-reg="DC2DC_ANA">
<path d="M 298.5,222.5 L 554.0,243.8 L 809.5,230.5" fill="none" stroke="#3498db" stroke-width="1.8" stroke-dasharray="5,3" opacity="0.6"/>
<circle cx="298.5" cy="222.5" r="6" fill="#3498db" stroke="white" opacity="1.0"/>
<circle cx="554.0" cy="243.8" r="6" fill="#3498db" stroke="white" opacity="1.0"/>
<circle cx="809.5" cy="230.5" r="6" fill="#3498db" stroke="white" opacity="1.0"/>
</g>
<g class="series pmic-series" data-mode="AUTO_PFM" data-chip="21988" data-temp="25" data-reg="DC2DC_ANA">
<path d="M 303.5,217.2 L 559.0,181.4 L 814.5,184.0" fill="none" stroke="#e67e22" stroke-width="1.8" stroke-dasharray="5,3" opacity="0.6"/>
<circle cx="303.5" cy="217.2" r="6" fill="#e67e22" stroke="white" opacity="1.0"/>
<circle cx="559.0" cy="181.4" r="6" fill="#e67e22" stroke="white" opacity="1.0"/>
<circle cx="814.5" cy="184.0" r="6" fill="#e67e22" stroke="white" opacity="1.0"/>
</g>
<g class="series pmic-series" data-mode="AUTO_PFM" data-chip="21988" data-temp="80" data-reg="DC2DC_ANA">
<path d="M 308.5,126.9 L 564.0,121.6 L 819.5,102.3" fill="none" stroke="#2ecc71" stroke-width="1.8" stroke-dasharray="5,3" opacity="0.6"/>
<circle cx="308.5" cy="126.9" r="6" fill="#2ecc71" stroke="white" opacity="1.0"/>
<circle cx="564.0" cy="121.6" r="6" fill="#2ecc71" stroke="white" opacity="1.0"/>
<circle cx="819.5" cy="102.3" r="6" fill="#2ecc71" stroke="white" opacity="1.0"/>
</g>
<g class="series pmic-series" data-mode="AUTO_PFM" data-chip="31927" data-temp="0" data-reg="DC2DC_ANA">
<path d="M 313.5,265.0 L 569.0,277.0 L 824.5,254.4" fill="none" stroke="#9b59b6" stroke-width="1.8" stroke-dasharray="5,3" opacity="0.6"/>
<circle cx="313.5" cy="265.0" r="6" fill="#9b59b6" stroke="white" opacity="1.0"/>
<circle cx="569.0" cy="277.0" r="6" fill="#9b59b6" stroke="white" opacity="1.0"/>
<circle cx="824.5" cy="254.4" r="6" fill="#9b59b6" stroke="white" opacity="1.0"/>
</g>
<g class="series pmic-series" data-mode="AUTO_PFM" data-chip="31927" data-temp="25" data-reg="DC2DC_ANA">
<path d="M 318.5,359.3 L 574.0,366.0 L 829.5,356.7" fill="none" stroke="#1abc9c" stroke-width="1.8" stroke-dasharray="5,3" opacity="0.6"/>
<circle cx="318.5" cy="359.3" r="6" fill="#1abc9c" stroke="white" opacity="1.0"/>
<circle cx="574.0" cy="366.0" r="6" fill="#1abc9c" stroke="white" opacity="1.0"/>
<circle cx="829.5" cy="356.7" r="6" fill="#1abc9c" stroke="white" opacity="1.0"/>
</g>
<g class="series pmic-series" data-mode="AUTO_PFM" data-chip="31927" data-temp="80" data-reg="DC2DC_ANA">
<path d="M 323.5,148.8 L 579.0,134.9 L 834.5,132.2" fill="none" stroke="#e74c3c" stroke-width="1.8" stroke-dasharray="5,3" opacity="0.6"/>
<circle cx="323.5" cy="148.8" r="6" fill="#e74c3c" stroke="white" opacity="1.0"/>
<circle cx="579.0" cy="134.9" r="6" fill="#e74c3c" stroke="white" opacity="1.0"/>
<circle cx="834.5" cy="132.2" r="6" fill="#e74c3c" stroke="white" opacity="1.0"/>
</g>
<g class="series pmic-series ref-overlay" data-mode="AUTO_PFM" data-chip="21988" data-temp="0" data-reg="DC2DC_ANA">
<path d="M 328.5,265.0 L 584.0,330.1 L 839.5,317.5" fill="none" stroke="#f39c12" stroke-width="1.8" stroke-dasharray="5,3" opacity="0.6"/>
<circle cx="328.5" cy="265.0" r="7.5" fill="none" stroke="#f39c12" opacity="1.0"/>
<circle cx="584.0" cy="330.1" r="7.5" fill="none" stroke="#f39c12" opacity="1.0"/>
<circle cx="839.5" cy="317.5" r="7.5" fill="none" stroke="#f39c12" opacity="1.0"/>
</g>
<g class="series pmic-series ref-overlay" data-mode="AUTO_PFM" data-chip="21988" data-temp="25" data-reg="DC2DC_ANA">
<path d="M 333.5,288.3 L 589.0,247.1 L 844.5,242.5" fill="none" stroke="#2980b9" stroke-width="1.8" stroke-dasharray="5,3" opacity="0.6"/>
<circle cx="333.5" cy="288.3" r="7.5" fill="none" stroke="#2980b9" opacity="1.0"/>
<circle cx="589.0" cy="247.1" r="7.5" fill="none" stroke="#2980b9" opacity="1.0"/>
<circle cx="844.5" cy="242.5" r="7.5" fill="none" stroke="#2980b9" opacity="1.0"/>
</g>
<g class="series pmic-series ref-overlay" data-mode="AUTO_PFM" data-chip="21988" data-temp="80" data-reg="DC2DC_ANA">
<path d="M 338.5,253.1 L 594.0,273.0 L 849.5,257.1" fill="none" stroke="#16a085" stroke-width="1.8" stroke-dasharray="5,3" opacity="0.6"/>
<circle cx="338.5" cy="253.1" r="7.5" fill="none" stroke="#16a085" opacity="1.0"/>
<circle cx="594.0" cy="273.0" r="7.5" fill="none" stroke="#16a085" opacity="1.0"/>
<circle cx="849.5" cy="257.1" r="7.5" fill="none" stroke="#16a085" opacity="1.0"/>
</g>
<g class="series pmic-series ref-overlay" data-mode="AUTO_PFM" data-chip="31927" data-temp="0" data-reg="DC2DC_ANA">
<path d="M 343.5,386.6 L 599.0,374.6 L 854.5,391.2" fill="none" stroke="#8e44ad" stroke-width="1.8" stroke-dasharray="5,3" opacity="0.6"/>
<circle cx="343.5" cy="386.6" r="7.5" fill="none" stroke="#8e44ad" opacity="1.0"/>
<circle cx="599.0" cy="374.6" r="7.5" fill="none" stroke="#8e44ad" opacity="1.0"/>
<circle cx="854.5" cy="391.2" r="7.5" fill="none" stroke="#8e44ad" opacity="1.0"/>
</g>
<g class="series pmic-series ref-overlay" data-mode="AUTO_PFM" data-chip="31927" data-temp="25" data-reg="DC2DC_ANA">
<path d="M 348.5,445.7 L 604.0,395.9 L 859.5,401.8" fill="none" stroke="#c0392b" stroke-width="1.8" stroke-dasharray="5,3" opacity="0.6"/>
<circle cx="348.5" cy="445.7" r="7.5" fill="none" stroke="#c0392b" opacity="1.0"/>
<circle cx="604.0" cy="395.9" r="7.5" fill="none" stroke="#c0392b" opacity="1.0"/>
<circle cx="859.5" cy="401.8" r="7.5" fill="none" stroke="#c0392b" opacity="1.0"/>
</g>
<g class="series pmic-series ref-overlay" data-mode="AUTO_PFM" data-chip="31927" data-temp="80" data-reg="DC2DC_ANA">
<path d="M 353.5,373.9 L 609.0,342.7 L 864.5,352.7" fill="none" stroke="#27ae60" stroke-width="1.8" stroke-dasharray="5,3" opacity="0.6"/>
<circle cx="353.5" cy="373.9" r="7.5" fill="none" stroke="#27ae60" opacity="1.0"/>
<circle cx="609.0" cy="342.7" r="7.5" fill="none" stroke="#27ae60" opacity="1.0"/>
<circle cx="864.5" cy="352.7" r="7.5" fill="none" stroke="#27ae60" opacity="1.0"/>
</g>
<g class="series pmic-series ref-overlay" data-mode="AUTO_PFM" data-chip="80233" data-temp="0" data-reg="DC2DC_ANA">
<path d="M 358.5,344.7 L 614.0,343.4 L 869.5,341.4" fill="none" stroke="#d35400" stroke-width="1.8" stroke-dasharray="5,3" opacity="0.6"/>
<circle cx="358.5" cy="344.7" r="7.5" fill="none" stroke="#d35400" opacity="1.0"/>
<circle cx="614.0" cy="343.4" r="7.5" fill="none" stroke="#d35400" opacity="1.0"/>
<circle cx="869.5" cy="341.4" r="7.5" fill="none" stroke="#d35400" opacity="1.0"/>
</g>
<g class="series pmic-series ref-overlay" data-mode="AUTO_PFM" data-chip="80233" data-temp="25" data-reg="DC2DC_ANA">
<path d="M 363.5,393.9 L 619.0,374.6 L 874.5,359.3" fill="none" stroke="#7f8c8d" stroke-width="1.8" stroke-dasharray="5,3" opacity="0.6"/>
<circle cx="363.5" cy="393.9" r="7.5" fill="none" stroke="#7f8c8d" opacity="1.0"/>
<circle cx="619.0" cy="374.6" r="7.5" fill="none" stroke="#7f8c8d" opacity="1.0"/>
<circle cx="874.5" cy="359.3" r="7.5" fill="none" stroke="#7f8c8d" opacity="1.0"/>
</g>
<g class="series pmic-series ref-overlay" data-mode="AUTO_PFM" data-chip="80233" data-temp="80" data-reg="DC2DC_ANA">
<path d="M 368.5,329.5 L 624.0,300.2 L 879.5,312.2" fill="none" stroke="#2c3e50" stroke-width="1.8" stroke-dasharray="5,3" opacity="0.6"/>
<circle cx="368.5" cy="329.5" r="7.5" fill="none" stroke="#2c3e50" opacity="1.0"/>
<circle cx="624.0" cy="300.2" r="7.5" fill="none" stroke="#2c3e50" opacity="1.0"/>
<circle cx="879.5" cy="312.2" r="7.5" fill="none" stroke="#2c3e50" opacity="1.0"/>
</g>
<g class="legend-item" data-mode="AUTO_PFM" data-chip="21988" data-temp="0" data-reg="DC2DC_ANA">
<rect x="1116.0" y="69.0" width="18.0" height="4.0" fill="#3498db" stroke="none" stroke-width="1" opacity="1.0" rx="2"/>
<circle cx="1125.0" cy="71.0" r="5" fill="#3498db" stroke="none" opacity="1.0"/>
<text x="1140.0" y="76.0" font-size="9" font-weight="normal" text-anchor="start" fill="#333" font-family="Arial,sans-serif">Ch21988 | T=0°C | step↑</text>
</g>
<g class="legend-item" data-mode="AUTO_PFM" data-chip="21988" data-temp="25" data-reg="DC2DC_ANA">
<rect x="1116.0" y="86.0" width="18.0" height="4.0" fill="#e67e22" stroke="none" stroke-width="1" opacity="1.0" rx="2"/>
<circle cx="1125.0" cy="88.0" r="5" fill="#e67e22" stroke="none" opacity="1.0"/>
<text x="1140.0" y="93.0" font-size="9" font-weight="normal" text-anchor="start" fill="#333" font-family="Arial,sans-serif">Ch21988 | T=25°C | step↑</text>
</g>
<g class="legend-item" data-mode="AUTO_PFM" data-chip="21988" data-temp="80" data-reg="DC2DC_ANA">
<rect x="1116.0" y="103.0" width="18.0" height="4.0" fill="#2ecc71" stroke="none" stroke-width="1" opacity="1.0" rx="2"/>
<circle cx="1125.0" cy="105.0" r="5" fill="#2ecc71" stroke="none" opacity="1.0"/>
<text x="1140.0" y="110.0" font-size="9" font-weight="normal" text-anchor="start" fill="#333" font-family="Arial,sans-serif">Ch21988 | T=80°C | step↑</text>
</g>
<g class="legend-item" data-mode="AUTO_PFM" data-chip="31927" data-temp="0" data-reg="DC2DC_ANA">
<rect x="1116.0" y="120.0" width="18.0" height="4.0" fill="#9b59b6" stroke="none" stroke-width="1" opacity="1.0" rx="2"/>
<circle cx="1125.0" cy="122.0" r="5" fill="#9b59b6" stroke="none" opacity="1.0"/>
<text x="1140.0" y="127.0" font-size="9" font-weight="normal" text-anchor="start" fill="#333" font-family="Arial,sans-serif">Ch31927 | T=0°C | step↑</text>
</g>
<g class="legend-item" data-mode="AUTO_PFM" data-chip="31927" data-temp="25" data-reg="DC2DC_ANA">
<rect x="1116.0" y="137.0" width="18.0" height="4.0" fill="#1abc9c" stroke="none" stroke-width="1" opacity="1.0" rx="2"/>
<circle cx="1125.0" cy="139.0" r="5" fill="#1abc9c" stroke="none" opacity="1.0"/>
<text x="1140.0" y="144.0" font-size="9" font-weight="normal" text-anchor="start" fill="#333" font-family="Arial,sans-serif">Ch31927 | T=25°C | step↑</text>
</g>
<g class="legend-item" data-mode="AUTO_PFM" data-chip="31927" data-temp="80" data-reg="DC2DC_ANA">
<rect x="1116.0" y="154.0" width="18.0" height="4.0" fill="#e74c3c" stroke="none" stroke-width="1" opacity="1.0" rx="2"/>
<circle cx="1125.0" cy="156.0" r="5" fill="#e74c3c" stroke="none" opacity="1.0"/>
<text x="1140.0" y="161.0" font-size="9" font-weight="normal" text-anchor="start" fill="#333" font-family="Arial,sans-serif">Ch31927 | T=80°C | step↑</text>
</g>
<g class="legend-item ref-overlay" data-mode="AUTO_PFM" data-chip="21988" data-temp="0" data-reg="DC2DC_ANA">
<rect x="1116.0" y="171.0" width="18.0" height="4.0" fill="#f39c12" stroke="none" stroke-width="1" opacity="1.0" rx="2"/>
<circle cx="1125.0" cy="173.0" r="6" fill="none" stroke="#f39c12" opacity="1.0"/>
<text x="1140.0" y="178.0" font-size="9" font-weight="normal" text-anchor="start" fill="#333" font-family="Arial,sans-serif">[REF] Ch21988 | T=0°C | step↑</text>
</g>
<g class="legend-item ref-overlay" data-mode="AUTO_PFM" data-chip="21988" data-temp="25" data-reg="DC2DC_ANA">
<rect x="1116.0" y="188.0" width="18.0" height="4.0" fill="#2980b9" stroke="none" stroke-width="1" opacity="1.0" rx="2"/>
<circle cx="1125.0" cy="190.0" r="6" fill="none" stroke="#2980b9" opacity="1.0"/>
<text x="1140.0" y="195.0" font-size="9" font-weight="normal" text-anchor="start" fill="#333" font-family="Arial,sans-serif">[REF] Ch21988 | T=25°C | step↑</text>
</g>
<g class="legend-item ref-overlay" data-mode="AUTO_PFM" data-chip="21988" data-temp="80" data-reg="DC2DC_ANA">
<rect x="1116.0" y="205.0" width="18.0" height="4.0" fill="#16a085" stroke="none" stroke-width="1" opacity="1.0" rx="2"/>
<circle cx="1125.0" cy="207.0" r="6" fill="none" stroke="#16a085" opacity="1.0"/>
<text x="1140.0" y="212.0" font-size="9" font-weight="normal" text-anchor="start" fill="#333" font-family="Arial,sans-serif">[REF] Ch21988 | T=80°C | step↑</text>
</g>
<g class="legend-item ref-overlay" data-mode="AUTO_PFM" data-chip="31927" data-temp="0" data-reg="DC2DC_ANA">
<rect x="1116.0" y="222.0" width="18.0" height="4.0" fill="#8e44ad" stroke="none" stroke-width="1" opacity="1.0" rx="2"/>
<circle cx="1125.0" cy="224.0" r="6" fill="none" stroke="#8e44ad" opacity="1.0"/>
<text x="1140.0" y="229.0" font-size="9" font-weight="normal" text-anchor="start" fill="#333" font-family="Arial,sans-serif">[REF] Ch31927 | T=0°C | step↑</text>
</g>
<g class="legend-item ref-overlay" data-mode="AUTO_PFM" data-chip="31927" data-temp="25" data-reg="DC2DC_ANA">
<rect x="1116.0" y="239.0" width="18.0" height="4.0" fill="#c0392b" stroke="none" stroke-width="1" opacity="1.0" rx="2"/>
<circle cx="1125.0" cy="241.0" r="6" fill="none" stroke="#c0392b" opacity="1.0"/>
<text x="1140.0" y="246.0" font-size="9" font-weight="normal" text-anchor="start" fill="#333" font-family="Arial,sans-serif">[REF] Ch31927 | T=25°C | step↑</text>
</g>
<g class="legend-item ref-overlay" data-mode="AUTO_PFM" data-chip="31927" data-temp="80" data-reg="DC2DC_ANA">
<rect x="1116.0" y="256.0" width="18.0" height="4.0" fill="#27ae60" stroke="none" stroke-width="1" opacity="1.0" rx="2"/>
<circle cx="1125.0" cy="258.0" r="6" fill="none" stroke="#27ae60" opacity="1.0"/>
<text x="1140.0" y="263.0" font-size="9" font-weight="normal" text-anchor="start" fill="#333" font-family="Arial,sans-serif">[REF] Ch31927 | T=80°C | step↑</text>
</g>
<g class="legend-item ref-overlay" data-mode="AUTO_PFM" data-chip="80233" data-temp="0" data-reg="DC2DC_ANA">
<rect x="1116.0" y="273.0" width="18.0" height="4.0" fill="#d35400" stroke="none" stroke-width="1" opacity="1.0" rx="2"/>
<circle cx="1125.0" cy="275.0" r="6" fill="none" stroke="#d35400" opacity="1.0"/>
<text x="1140.0" y="280.0" font-size="9" font-weight="normal" text-anchor="start" fill="#333" font-family="Arial,sans-serif">[REF] Ch80233 | T=0°C | step↑</text>
</g>
<g class="legend-item ref-overlay" data-mode="AUTO_PFM" data-chip="80233" data-temp="25" data-reg="DC2DC_ANA">
<rect x="1116.0" y="290.0" width="18.0" height="4.0" fill="#7f8c8d" stroke="none" stroke-width="1" opacity="1.0" rx="2"/>
<circle cx="1125.0" cy="292.0" r="6" fill="none" stroke="#7f8c8d" opacity="1.0"/>
<text x="1140.0" y="297.0" font-size="9" font-weight="normal" text-anchor="start" fill="#333" font-family="Arial,sans-serif">[REF] Ch80233 | T=25°C | step↑</text>
</g>
<g class="legend-item ref-overlay" data-mode="AUTO_PFM" data-chip="80233" data-temp="80" data-reg="DC2DC_ANA">
<rect x="1116.0" y="307.0" width="18.0" height="4.0" fill="#2c3e50" stroke="none" stroke-width="1" opacity="1.0" rx="2"/>
<circle cx="1125.0" cy="309.0" r="6" fill="none" stroke="#2c3e50" opacity="1.0"/>
<text x="1140.0" y="314.0" font-size="9" font-weight="normal" text-anchor="start" fill="#333" font-family="Arial,sans-serif">[REF] Ch80233 | T=80°C | step↑</text>
</g>
<rect class="cursor-overlay" x="78.0" y="68.0" width="1022.0" height="412.0" fill="transparent" style="cursor:default" data-xmin="78" data-xmax="1100" data-ymin="0.93163" data-ymax="0.99367" data-pl="78.0" data-pr="1100.0" data-pt="68.0" data-pb="480.0"/>
<g class="cursor-layer" style="pointer-events:none;display:none"><line class="cur-v" x1="0" y1="68.0" x2="0" y2="480.0" stroke="#e74c3c" stroke-width="1.2" stroke-dasharray="5,3"/><line class="cur-h" x1="78.0" y1="0" x2="1100.0" y2="0" stroke="#e74c3c" stroke-width="1.2" stroke-dasharray="5,3"/><rect class="cur-tip-bg" x="0" y="0" width="170" height="48" rx="4" fill="#1a252f" stroke="#34495e" stroke-width="1" opacity="0.92"/><text class="cur-tip-s" x="0" y="0" font-size="8" font-family="Arial,sans-serif" fill="#f1c40f"/><text class="cur-tip-x" x="0" y="0" font-size="9" font-family="Arial,sans-serif" fill="#ecf0f1"/><text class="cur-tip-y" x="0" y="0" font-size="9" font-family="Arial,sans-serif" fill="#2ecc71"/></g>
</svg>