<svg xmlns="http://www.w3.org/2000/svg" width="1400" height="520" viewBox="0 0 1400 520">
<rect width="1400" height="520" fill="#ffffff"/>
<text x="700.0" y="28.0" font-size="16" font-weight="bold" text-anchor="middle" fill="#2c3e50" font-family="Arial,sans-serif">Static Line Regulation — Digital DC2DC  Vout=0.8V  [PWM]  Iload=5mA</text>
<line x1="78.0" y1="68.0" x2="78.0" y2="440.0" stroke="#999" stroke-width="1"/>
<line x1="73.0" y1="440.0" x2="78.0" y2="440.0" stroke="#999" stroke-width="1"/>
<line x1="78.0" y1="440.0" x2="1100.0" y2="440.0" stroke="#e8e8e8" stroke-width="0.7" stroke-dasharray="4,3"/>
<text x="70.0" y="444.0" font-size="9" font-weight="normal" text-anchor="end" fill="#888" font-family="Arial,sans-serif">0.795</text>
<line x1="73.0" y1="365.6" x2="78.0" y2="365.6" stroke="#999" stroke-width="1"/>
<line x1="78.0" y1="365.6" x2="1100.0" y2="365.6" stroke="#e8e8e8" stroke-width="0.7" stroke-dasharray="4,3"/>
<text x="70.0" y="369.6" font-size="9" font-weight="normal" text-anchor="end" fill="#888" font-family="Arial,sans-serif">0.797</text>
<line x1="73.0" y1="291.2" x2="78.0" y2="291.2" stroke="#999" stroke-width="1"/>
<line x1="78.0" y1="291.2" x2="1100.0" y2="291.2" stroke="#e8e8e8" stroke-width="0.7" stroke-dasharray="4,3"/>
<text x="70.0" y="295.2" font-size="9" font-weight="normal" text-anchor="end" fill="#888" font-family="Arial,sans-serif">0.799</text>
<line x1="73.0" y1="216.8" x2="78.0" y2="216.8" stroke="#999" stroke-width="1"/>
<line x1="78.0" y1="216.8" x2="1100.0" y2="216.8" stroke="#e8e8e8" stroke-width="0.7" stroke-dasharray="4,3"/>
<text x="70.0" y="220.8" font-size="9" font-weight="normal" text-anchor="end" fill="#888" font-family="Arial,sans-serif">0.801</text>
<line x1="73.0" y1="142.4" x2="78.0" y2="142.4" stroke="#999" stroke-width="1"/>
<line x1="78.0" y1="142.4" x2="1100.0" y2="142.4" stroke="#e8e8e8" stroke-width="0.7" stroke-dasharray="4,3"/>
<text x="70.0" y="146.4" font-size="9" font-weight="normal" text-anchor="end" fill="#888" font-family="Arial,sans-serif">0.803</text>
<line x1="73.0" y1="68.0" x2="78.0" y2="68.0" stroke="#999" stroke-width="1"/>
<line x1="78.0" y1="68.0" x2="1100.0" y2="68.0" stroke="#e8e8e8" stroke-width="0.7" stroke-dasharray="4,3"/>
<text x="70.0" y="72.0" font-size="9" font-weight="normal" text-anchor="end" fill="#888" font-family="Arial,sans-serif">0.805</text>
<line x1="78.0" y1="440.0" x2="1100.0" y2="440.0" stroke="#999" stroke-width="1"/>
<line x1="78.0" y1="440.0" x2="78.0" y2="445.0" stroke="#999" stroke-width="1"/>
<line x1="78.0" y1="68.0" x2="78.0" y2="440.0" stroke="#e8e8e8" stroke-width="0.7" stroke-dasharray="4,3"/>
<text x="78.0" y="456.0" font-size="9" font-weight="normal" text-anchor="middle" fill="#888" font-family="Arial,sans-serif">2.45</text>
<line x1="224.0" y1="440.0" x2="224.0" y2="445.0" stroke="#999" stroke-width="1"/>
<line x1="224.0" y1="68.0" x2="224.0" y2="440.0" stroke="#e8e8e8" stroke-width="0.7" stroke-dasharray="4,3"/>
<text x="224.0" y="456.0" font-size="9" font-weight="normal" text-anchor="middle" fill="#888" font-family="Arial,sans-serif">2.62</text>
<line x1="370.0" y1="440.0" x2="370.0" y2="445.0" stroke="#999" stroke-width="1"/>
<line x1="370.0" y1="68.0" x2="370.0" y2="440.0" stroke="#e8e8e8" stroke-width="0.7" stroke-dasharray="4,3"/>
<text x="370.0" y="456.0" font-size="9" font-weight="normal" text-anchor="middle" fill="#888" font-family="Arial,sans-serif">2.79</text>
<line x1="516.0" y1="440.0" x2="516.0" y2="445.0" stroke="#999" stroke-width="1"/>
<line x1="516.0" y1="68.0" x2="516.0" y2="440.0" stroke="#e8e8e8" stroke-width="0.7" stroke-dasharray="4,3"/>
<text x="516.0" y="456.0" font-size="9" font-weight="normal" text-anchor="middle" fill="#888" font-family="Arial,sans-serif">2.96</text>
<line x1="662.0" y1="440.0" x2="662.0" y2="445.0" stroke="#999" stroke-width="1"/>
<line x1="662.0" y1="68.0" x2="662.0" y2="440.0" stroke="#e8e8e8" stroke-width="0.7" stroke-dasharray="4,3"/>
<text x="662.0" y="456.0" font-size="9" font-weight="normal" text-anchor="middle" fill="#888" font-family="Arial,sans-serif">3.13</text>
<line x1="808.0" y1="440.0" x2="808.0" y2="445.0" stroke="#999" stroke-width="1"/>
<line x1="808.0" y1="68.0" x2="808.0" y2="440.0" stroke="#e8e8e8" stroke-width="0.7" stroke-dasharray="4,3"/>
<text x="808.0" y="456.0" font-size="9" font-weight="normal" text-anchor="middle" fill="#888" font-family="Arial,sans-serif">3.3</text>
<line x1="954.0" y1="440.0" x2="954.0" y2="445.0" stroke="#999" stroke-width="1"/>
<line x1="954.0" y1="68.0" x2="954.0" y2="440.0" stroke="#e8e8e8" stroke-width="0.7" stroke-dasharray="4,3"/>
<text x="954.0" y="456.0" font-size="9" font-weight="normal" text-anchor="middle" fill="#888" font-family="Arial,sans-serif">3.46</text>
<line x1="1100.0" y1="440.0" x2="1100.0" y2="445.0" stroke="#999" stroke-width="1"/>
<line x1="1100.0" y1="68.0" x2="1100.0" y2="440.0" stroke="#e8e8e8" stroke-width="0.7" stroke-dasharray="4,3"/>
<text x="1100.0" y="456.0" font-size="9" font-weight="normal" text-anchor="middle" fill="#888" font-family="Arial,sans-serif">3.63</text>
<text x="16.0" y="254.0" font-size="11" font-weight="normal" text-anchor="middle" fill="#555" font-family="Arial,sans-serif" transform="rotate(-90,16,254.0)">Output Voltage  Vout [V]</text>
<text x="589.0" y="510.0" font-size="11" font-weight="normal" text-anchor="middle" fill="#555" font-family="Arial,sans-serif">Input Voltage  Vin [V]</text>
<g class="series pmic-series" data-label="Chip 21988 | T=0°C" data-color="#3498db" data-mode="PWM" data-chip="21988" data-temp="0" data-reg="DC2DC_DIG">
<path d="M 124.5,120.4 L 150.3,108.9 L 176.0,105.1 L 201.9,116.6 L 227.8,120.4 L 253.6,112.7 L 279.3,120.4 L 305.1,108.9 L 330.9,112.7 L 356.9,105.1 L 382.6,112.7 L 408.4,116.6 L 434.1,108.9 L 460.0,128.0 L 485.7,112.7 L 511.7,112.7 L 537.4,120.4 L 563.2,116.6 L 589.0,116.6 L 614.8,112.7 L 640.7,105.1 L 666.5,112.7 L 692.4,108.9 L 718.2,120.4 L 744.0,108.9 L 769.6,105.1 L 795.4,97.5 L 821.3,97.5 L 847.2,101.3 L 872.8,93.7 L 898.6,116.6 L 924.5,112.7 L 950.2,108.9 L 976.1,112.7 L 1001.8,108.9 L 1027.7,105.1 L 1053.5,105.1" fill="none" stroke="#3498db" stroke-width="2.2" stroke-linejoin="round" opacity="0.9"/>
<circle cx="124.5" cy="120.4" r="4" fill="#3498db" stroke="white" opacity="1.0"/>
<circle cx="150.3" cy="108.9" r="4" fill="#3498db" stroke="white" opacity="1.0"/>
<circle cx="176.0" cy="105.1" r="4" fill="#3498db" stroke="white" opacity="1.0"/>
<circle cx="201.9" cy="116.6" r="4" fill="#3498db" stroke="white" opacity="1.0"/>
<circle cx="227.8" cy="120.4" r="4" fill="#3498db" stroke="white" opacity="1.0"/>
<circle cx="253.6" cy="112.7" r="4" fill="#3498db" stroke="white" opacity="1.0"/>
<circle cx="279.3" cy="120.4" r="4" fill="#3498db" stroke="white" opacity="1.0"/>
<circle cx="305.1" cy="108.9" r="4" fill="#3498db" stroke="white" opacity="1.0"/>
<circle cx="330.9" cy="112.7" r="4" fill="#3498db" stroke="white" opacity="1.0"/>
<circle cx="356.9" cy="105.1" r="4" fill="#3498db" stroke="white" opacity="1.0"/>
<circle cx="382.6" cy="112.7" r="4" fill="#3498db" stroke="white" opacity="1.0"/>
<circle cx="408.4" cy="116.6" r="4" fill="#3498db" stroke="white" opacity="1.0"/>
<circle cx="434.1" cy="108.9" r="4" fill="#3498db" stroke="white" opacity="1.0"/>
<circle cx="460.0" cy="128.0" r="4" fill="#3498db" stroke="white" opacity="1.0"/>
<circle cx="485.7" cy="112.7" r="4" fill="#3498db" stroke="white" opacity="1.0"/>
<circle cx="511.7" cy="112.7" r="4" fill="#3498db" stroke="white" opacity="1.0"/>
<circle cx="537.4" cy="120.4" r="4" fill="#3498db" stroke="white" opacity="1.0"/>
<circle cx="563.2" cy="116.6" r="4" fill="#3498db" stroke="white" opacity="1.0"/>
<circle cx="589.0" cy="116.6" r="4" fill="#3498db" stroke="white" opacity="1.0"/>
<circle cx="614.8" cy="112.7" r="4" fill="#3498db" stroke="white" opacity="1.0"/>
<circle cx="640.7" cy="105.1" r="4" fill="#3498db" stroke="white" opacity="1.0"/>
<circle cx="666.5" cy="112.7" r="4" fill="#3498db" stroke="white" opacity="1.0"/>
<circle cx="692.4" cy="108.9" r="4" fill="#3498db" stroke="white" opacity="1.0"/>
<circle cx="718.2" cy="120.4" r="4" fill="#3498db" stroke="white" opacity="1.0"/>
<circle cx="744.0" cy="108.9" r="4" fill="#3498db" stroke="white" opacity="1.0"/>
<circle cx="769.6" cy="105.1" r="4" fill="#3498db" stroke="white" opacity="1.0"/>
<circle cx="795.4" cy="97.5" r="4" fill="#3498db" stroke="white" opacity="1.0"/>
<circle cx="821.3" cy="97.5" r="4" fill="#3498db" stroke="white" opacity="1.0"/>
<circle cx="847.2" cy="101.3" r="4" fill="#3498db" stroke="white" opacity="1.0"/>
<circle cx="872.8" cy="93.7" r="4" fill="#3498db" stroke="white" opacity="1.0"/>
<circle cx="898.6" cy="116.6" r="4" fill="#3498db" stroke="white" opacity="1.0"/>
<circle cx="924.5" cy="112.7" r="4" fill="#3498db" stroke="white" opacity="1.0"/>
<circle cx="950.2" cy="108.9" r="4" fill="#3498db" stroke="white" opacity="1.0"/>
<circle cx="976.1" cy="112.7" r="4" fill="#3498db" stroke="white" opacity="1.0"/>
<circle cx="1001.8" cy="108.9" r="4" fill="#3498db" stroke="white" opacity="1.0"/>
<circle cx="1027.7" cy="105.1" r="4" fill="#3498db" stroke="white" opacity="1.0"/>
<circle cx="1053.5" cy="105.1" r="4" fill="#3498db" stroke="white" opacity="1.0"/>
</g>
<g class="series pmic-series" data-label="Chip 21988 | T=25°C" data-color="#e67e22" data-mode="PWM" data-chip="21988" data-temp="25" data-reg="DC2DC_DIG">
<path d="M 124.5,284.5 L 150.3,265.5 L 176.1,269.3 L 201.9,276.9 L 227.8,280.7 L 253.6,276.9 L 279.3,288.4 L 305.1,280.7 L 330.9,269.3 L 356.9,276.9 L 382.6,276.9 L 408.4,280.7 L 434.1,280.7 L 460.0,284.5 L 485.6,273.1 L 511.7,280.7 L 537.4,269.3 L 563.2,269.3 L 589.0,284.5 L 614.8,280.7 L 640.7,276.9 L 666.5,276.9 L 692.4,276.9 L 718.2,273.1 L 744.0,276.9 L 769.6,284.5 L 795.4,284.5 L 821.3,280.7 L 847.1,269.3 L 872.8,276.9 L 898.6,273.1 L 924.4,265.5 L 950.2,269.3 L 976.1,265.5 L 1001.8,269.3 L 1027.7,292.2 L 1053.5,273.1" fill="none" stroke="#e67e22" stroke-width="2.2" stroke-linejoin="round" opacity="0.9"/>
<circle cx="124.5" cy="284.5" r="4" fill="#e67e22" stroke="white" opacity="1.0"/>
<circle cx="150.3" cy="265.5" r="4" fill="#e67e22" stroke="white" opacity="1.0"/>
<circle cx="176.1" cy="269.3" r="4" fill="#e67e22" stroke="white" opacity="1.0"/>
<circle cx="201.9" cy="276.9" r="4" fill="#e67e22" stroke="white" opacity="1.0"/>
<circle cx="227.8" cy="280.7" r="4" fill="#e67e22" stroke="white" opacity="1.0"/>
<circle cx="253.6" cy="276.9" r="4" fill="#e67e22" stroke="white" opacity="1.0"/>
<circle cx="279.3" cy="288.4" r="4" fill="#e67e22" stroke="white" opacity="1.0"/>
<circle cx="305.1" cy="280.7" r="4" fill="#e67e22" stroke="white" opacity="1.0"/>
<circle cx="330.9" cy="269.3" r="4" fill="#e67e22" stroke="white" opacity="1.0"/>
<circle cx="356.9" cy="276.9" r="4" fill="#e67e22" stroke="white" opacity="1.0"/>
<circle cx="382.6" cy="276.9" r="4" fill="#e67e22" stroke="white" opacity="1.0"/>
<circle cx="408.4" cy="280.7" r="4" fill="#e67e22" stroke="white" opacity="1.0"/>
<circle cx="434.1" cy="280.7" r="4" fill="#e67e22" stroke="white" opacity="1.0"/>
<circle cx="460.0" cy="284.5" r="4" fill="#e67e22" stroke="white" opacity="1.0"/>
<circle cx="485.6" cy="273.1" r="4" fill="#e67e22" stroke="white" opacity="1.0"/>
<circle cx="511.7" cy="280.7" r="4" fill="#e67e22" stroke="white" opacity="1.0"/>
<circle cx="537.4" cy="269.3" r="4" fill="#e67e22" stroke="white" opacity="1.0"/>
<circle cx="563.2" cy="269.3" r="4" fill="#e67e22" stroke="white" opacity="1.0"/>
<circle cx="589.0" cy="284.5" r="4" fill="#e67e22" stroke="white" opacity="1.0"/>
<circle cx="614.8" cy="280.7" r="4" fill="#e67e22" stroke="white" opacity="1.0"/>
<circle cx="640.7" cy="276.9" r="4" fill="#e67e22" stroke="white" opacity="1.0"/>
<circle cx="666.5" cy="276.9" r="4" fill="#e67e22" stroke="white" opacity="1.0"/>
<circle cx="692.4" cy="276.9" r="4" fill="#e67e22" stroke="white" opacity="1.0"/>
<circle cx="718.2" cy="273.1" r="4" fill="#e67e22" stroke="white" opacity="1.0"/>
<circle cx="744.0" cy="276.9" r="4" fill="#e67e22" stroke="white" opacity="1.0"/>
<circle cx="769.6" cy="284.5" r="4" fill="#e67e22" stroke="white" opacity="1.0"/>
<circle cx="795.4" cy="284.5" r="4" fill="#e67e22" stroke="white" opacity="1.0"/>
<circle cx="821.3" cy="280.7" r="4" fill="#e67e22" stroke="white" opacity="1.0"/>
<circle cx="847.1" cy="269.3" r="4" fill="#e67e22" stroke="white" opacity="1.0"/>
<circle cx="872.8" cy="276.9" r="4" fill="#e67e22" stroke="white" opacity="1.0"/>
<circle cx="898.6" cy="273.1" r="4" fill="#e67e22" stroke="white" opacity="1.0"/>
<circle cx="924.4" cy="265.5" r="4" fill="#e67e22" stroke="white" opacity="1.0"/>
<circle cx="950.2" cy="269.3" r="4" fill="#e67e22" stroke="white" opacity="1.0"/>
<circle cx="976.1" cy="265.5" r="4" fill="#e67e22" stroke="white" opacity="1.0"/>
<circle cx="1001.8" cy="269.3" r="4" fill="#e67e22" stroke="white" opacity="1.0"/>
<circle cx="1027.7" cy="292.2" r="4" fill="#e67e22" stroke="white" opacity="1.0"/>
<circle cx="1053.5" cy="273.1" r="4" fill="#e67e22" stroke="white" opacity="1.0"/>
</g>
<g class="series pmic-series" data-label="Chip 21988 | T=80°C" data-color="#2ecc71" data-mode="PWM" data-chip="21988" data-temp="80" data-reg="DC2DC_DIG">
<path d="M 124.5,166.2 L 176.1,154.7 L 201.9,158.6 L 227.8,162.4 L 253.6,162.4 L 279.3,158.6 L 305.0,158.6 L 330.9,154.7 L 356.9,158.6 L 382.6,162.4 L 408.4,170.0 L 434.1,154.7 L 459.9,162.4 L 485.6,166.2 L 511.7,170.0 L 537.4,173.8 L 563.2,162.4 L 589.0,162.4 L 614.8,170.0 L 640.6,166.2 L 666.5,173.8 L 692.4,166.2 L 718.1,166.2 L 743.9,166.2 L 769.5,166.2 L 795.4,162.4 L 821.3,173.8 L 847.1,166.2 L 872.8,158.6 L 898.6,170.0 L 924.5,170.0 L 950.2,166.2 L 976.1,166.2 L 1001.9,162.4 L 1027.8,166.2 L 1053.5,173.8" fill="none" stroke="#2ecc71" stroke-width="2.2" stroke-linejoin="round" opacity="0.9"/>
<circle cx="124.5" cy="166.2" r="4" fill="#2ecc71" stroke="white" opacity="1.0"/>
<circle cx="176.1" cy="154.7" r="4" fill="#2ecc71" stroke="white" opacity="1.0"/>
<circle cx="201.9" cy="158.6" r="4" fill="#2ecc71" stroke="white" opacity="1.0"/>
<circle cx="227.8" cy="162.4" r="4" fill="#2ecc71" stroke="white" opacity="1.0"/>
<circle cx="253.6" cy="162.4" r="4" fill="#2ecc71" stroke="white" opacity="1.0"/>
<circle cx="279.3" cy="158.6" r="4" fill="#2ecc71" stroke="white" opacity="1.0"/>
<circle cx="305.0" cy="158.6" r="4" fill="#2ecc71" stroke="white" opacity="1.0"/>
<circle cx="330.9" cy="154.7" r="4" fill="#2ecc71" stroke="white" opacity="1.0"/>
<circle cx="356.9" cy="158.6" r="4" fill="#2ecc71" stroke="white" opacity="1.0"/>
<circle cx="382.6" cy="162.4" r="4" fill="#2ecc71" stroke="white" opacity="1.0"/>
<circle cx="408.4" cy="170.0" r="4" fill="#2ecc71" stroke="white" opacity="1.0"/>
<circle cx="434.1" cy="154.7" r="4" fill="#2ecc71" stroke="white" opacity="1.0"/>
<circle cx="459.9" cy="162.4" r="4" fill="#2ecc71" stroke="white" opacity="1.0"/>
<circle cx="485.6" cy="166.2" r="4" fill="#2ecc71" stroke="white" opacity="1.0"/>
<circle cx="511.7" cy="170.0" r="4" fill="#2ecc71" stroke="white" opacity="1.0"/>
<circle cx="537.4" cy="173.8" r="4" fill="#2ecc71" stroke="white" opacity="1.0"/>
<circle cx="563.2" cy="162.4" r="4" fill="#2ecc71" stroke="white" opacity="1.0"/>
<circle cx="589.0" cy="162.4" r="4" fill="#2ecc71" stroke="white" opacity="1.0"/>
<circle cx="614.8" cy="170.0" r="4" fill="#2ecc71" stroke="white" opacity="1.0"/>
<circle cx="640.6" cy="166.2" r="4" fill="#2ecc71" stroke="white" opacity="1.0"/>
<circle cx="666.5" cy="173.8" r="4" fill="#2ecc71" stroke="white" opacity="1.0"/>
<circle cx="692.4" cy="166.2" r="4" fill="#2ecc71" stroke="white" opacity="1.0"/>
<circle cx="718.1" cy="166.2" r="4" fill="#2ecc71" stroke="white" opacity="1.0"/>
<circle cx="743.9" cy="166.2" r="4" fill="#2ecc71" stroke="white" opacity="1.0"/>
<circle cx="769.5" cy="166.2" r="4" fill="#2ecc71" stroke="white" opacity="1.0"/>
<circle cx="795.4" cy="162.4" r="4" fill="#2ecc71" stroke="white" opacity="1.0"/>
<circle cx="821.3" cy="173.8" r="4" fill="#2ecc71" stroke="white" opacity="1.0"/>
<circle cx="847.1" cy="166.2" r="4" fill="#2ecc71" stroke="white" opacity="1.0"/>
<circle cx="872.8" cy="158.6" r="4" fill="#2ecc71" stroke="white" opacity="1.0"/>
<circle cx="898.6" cy="170.0" r="4" fill="#2ecc71" stroke="white" opacity="1.0"/>
<circle cx="924.5" cy="170.0" r="4" fill="#2ecc71" stroke="white" opacity="1.0"/>
<circle cx="950.2" cy="166.2" r="4" fill="#2ecc71" stroke="white" opacity="1.0"/>
<circle cx="976.1" cy="166.2" r="4" fill="#2ecc71" stroke="white" opacity="1.0"/>
<circle cx="1001.9" cy="162.4" r="4" fill="#2ecc71" stroke="white" opacity="1.0"/>
<circle cx="1027.8" cy="166.2" r="4" fill="#2ecc71" stroke="white" opacity="1.0"/>
<circle cx="1053.5" cy="173.8" r="4" fill="#2ecc71" stroke="white" opacity="1.0"/>
</g>
<g class="series pmic-series" data-label="Chip 31927 | T=0°C" data-color="#9b59b6" data-mode="PWM" data-chip="31927" data-temp="0" data-reg="DC2DC_DIG">
<path d="M 124.5,399.1 L 150.3,395.3 L 176.1,402.9 L 201.9,395.3 L 227.8,402.9 L 253.6,399.1 L 279.3,387.6 L 305.0,402.9 L 330.9,395.3 L 356.9,414.3 L 382.6,402.9 L 408.4,406.7 L 434.1,406.7 L 459.9,406.7 L 485.6,395.3 L 511.7,399.1 L 537.4,402.9 L 563.2,395.3 L 589.0,391.4 L 614.8,380.0 L 640.6,395.3 L 666.5,391.4 L 692.4,383.8 L 718.2,395.3 L 744.0,391.4 L 769.6,399.1 L 795.4,399.1 L 821.4,387.6 L 847.2,380.0 L 872.8,399.1 L 898.6,402.9 L 924.5,399.1 L 950.2,402.9 L 976.1,406.7 L 1001.9,406.7 L 1027.7,402.9 L 1053.5,406.7" fill="none" stroke="#9b59b6" stroke-width="2.2" stroke-linejoin="round" opacity="0.9"/>
<circle cx="124.5" cy="399.1" r="4" fill="#9b59b6" stroke="white" opacity="1.0"/>
<circle cx="150.3" cy="395.3" r="4" fill="#9b59b6" stroke="white" opacity="1.0"/>
<circle cx="176.1" cy="402.9" r="4" fill="#9b59b6" stroke="white" opacity="1.0"/>
<circle cx="201.9" cy="395.3" r="4" fill="#9b59b6" stroke="white" opacity="1.0"/>
<circle cx="227.8" cy="402.9" r="4" fill="#9b59b6" stroke="white" opacity="1.0"/>
<circle cx="253.6" cy="399.1" r="4" fill="#9b59b6" stroke="white" opacity="1.0"/>
<circle cx="279.3" cy="387.6" r="4" fill="#9b59b6" stroke="white" opacity="1.0"/>
<circle cx="305.0" cy="402.9" r="4" fill="#9b59b6" stroke="white" opacity="1.0"/>
<circle cx="330.9" cy="395.3" r="4" fill="#9b59b6" stroke="white" opacity="1.0"/>
<circle cx="356.9" cy="414.3" r="4" fill="#9b59b6" stroke="white" opacity="1.0"/>
<circle cx="382.6" cy="402.9" r="4" fill="#9b59b6" stroke="white" opacity="1.0"/>
<circle cx="408.4" cy="406.7" r="4" fill="#9b59b6" stroke="white" opacity="1.0"/>
<circle cx="434.1" cy="406.7" r="4" fill="#9b59b6" stroke="white" opacity="1.0"/>
<circle cx="459.9" cy="406.7" r="4" fill="#9b59b6" stroke="white" opacity="1.0"/>
<circle cx="485.6" cy="395.3" r="4" fill="#9b59b6" stroke="white" opacity="1.0"/>
<circle cx="511.7" cy="399.1" r="4" fill="#9b59b6" stroke="white" opacity="1.0"/>
<circle cx="537.4" cy="402.9" r="4" fill="#9b59b6" stroke="white" opacity="1.0"/>
<circle cx="563.2" cy="395.3" r="4" fill="#9b59b6" stroke="white" opacity="1.0"/>
<circle cx="589.0" cy="391.4" r="4" fill="#9b59b6" stroke="white" opacity="1.0"/>
<circle cx="614.8" cy="380.0" r="4" fill="#9b59b6" stroke="white" opacity="1.0"/>
<circle cx="640.6" cy="395.3" r="4" fill="#9b59b6" stroke="white" opacity="1.0"/>
<circle cx="666.5" cy="391.4" r="4" fill="#9b59b6" stroke="white" opacity="1.0"/>
<circle cx="692.4" cy="383.8" r="4" fill="#9b59b6" stroke="white" opacity="1.0"/>
<circle cx="718.2" cy="395.3" r="4" fill="#9b59b6" stroke="white" opacity="1.0"/>
<circle cx="744.0" cy="391.4" r="4" fill="#9b59b6" stroke="white" opacity="1.0"/>
<circle cx="769.6" cy="399.1" r="4" fill="#9b59b6" stroke="white" opacity="1.0"/>
<circle cx="795.4" cy="399.1" r="4" fill="#9b59b6" stroke="white" opacity="1.0"/>
<circle cx="821.4" cy="387.6" r="4" fill="#9b59b6" stroke="white" opacity="1.0"/>
<circle cx="847.2" cy="380.0" r="4" fill="#9b59b6" stroke="white" opacity="1.0"/>
<circle cx="872.8" cy="399.1" r="4" fill="#9b59b6" stroke="white" opacity="1.0"/>
<circle cx="898.6" cy="402.9" r="4" fill="#9b59b6" stroke="white" opacity="1.0"/>
<circle cx="924.5" cy="399.1" r="4" fill="#9b59b6" stroke="white" opacity="1.0"/>
<circle cx="950.2" cy="402.9" r="4" fill="#9b59b6" stroke="white" opacity="1.0"/>
<circle cx="976.1" cy="406.7" r="4" fill="#9b59b6" stroke="white" opacity="1.0"/>
<circle cx="1001.9" cy="406.7" r="4" fill="#9b59b6" stroke="white" opacity="1.0"/>
<circle cx="1027.7" cy="402.9" r="4" fill="#9b59b6" stroke="white" opacity="1.0"/>
<circle cx="1053.5" cy="406.7" r="4" fill="#9b59b6" stroke="white" opacity="1.0"/>
</g>
<g class="series pmic-series" data-label="Chip 31927 | T=25°C" data-color="#1abc9c" data-mode="PWM" data-chip="31927" data-temp="25" data-reg="DC2DC_DIG">
<path d="M 124.5,360.9 L 150.3,357.1 L 176.1,360.9 L 201.9,357.1 L 227.8,357.1 L 253.6,357.1 L 279.3,353.3 L 305.1,364.7 L 330.9,357.1 L 356.9,357.1 L 382.6,353.3 L 408.4,357.1 L 434.1,357.1 L 459.9,341.8 L 485.6,349.4 L 511.7,349.4 L 537.4,364.7 L 563.2,364.7 L 589.0,368.5 L 614.8,360.9 L 640.6,357.1 L 666.5,353.3 L 692.4,357.1 L 718.2,353.3 L 744.0,349.4 L 769.6,353.3 L 795.4,364.7 L 821.4,360.9 L 847.2,360.9 L 872.8,364.7 L 898.6,360.9 L 924.5,357.1 L 950.2,353.3 L 976.1,349.4 L 1001.9,353.3 L 1027.7,357.1 L 1053.5,353.3" fill="none" stroke="#1abc9c" stroke-width="2.2" stroke-linejoin="round" opacity="0.9"/>
<circle cx="124.5" cy="360.9" r="4" fill="#1abc9c" stroke="white" opacity="1.0"/>
<circle cx="150.3" cy="357.1" r="4" fill="#1abc9c" stroke="white" opacity="1.0"/>
<circle cx="176.1" cy="360.9" r="4" fill="#1abc9c" stroke="white" opacity="1.0"/>
<circle cx="201.9" cy="357.1" r="4" fill="#1abc9c" stroke="white" opacity="1.0"/>
<circle cx="227.8" cy="357.1" r="4" fill="#1abc9c" stroke="white" opacity="1.0"/>
<circle cx="253.6" cy="357.1" r="4" fill="#1abc9c" stroke="white" opacity="1.0"/>
<circle cx="279.3" cy="353.3" r="4" fill="#1abc9c" stroke="white" opacity="1.0"/>
<circle cx="305.1" cy="364.7" r="4" fill="#1abc9c" stroke="white" opacity="1.0"/>
<circle cx="330.9" cy="357.1" r="4" fill="#1abc9c" stroke="white" opacity="1.0"/>
<circle cx="356.9" cy="357.1" r="4" fill="#1abc9c" stroke="white" opacity="1.0"/>
<circle cx="382.6" cy="353.3" r="4" fill="#1abc9c" stroke="white" opacity="1.0"/>
<circle cx="408.4" cy="357.1" r="4" fill="#1abc9c" stroke="white" opacity="1.0"/>
<circle cx="434.1" cy="357.1" r="4" fill="#1abc9c" stroke="white" opacity="1.0"/>
<circle cx="459.9" cy="341.8" r="4" fill="#1abc9c" stroke="white" opacity="1.0"/>
<circle cx="485.6" cy="349.4" r="4" fill="#1abc9c" stroke="white" opacity="1.0"/>
<circle cx="511.7" cy="349.4" r="4" fill="#1abc9c" stroke="white" opacity="1.0"/>
<circle cx="537.4" cy="364.7" r="4" fill="#1abc9c" stroke="white" opacity="1.0"/>
<circle cx="563.2" cy="364.7" r="4" fill="#1abc9c" stroke="white" opacity="1.0"/>
<circle cx="589.0" cy="368.5" r="4" fill="#1abc9c" stroke="white" opacity="1.0"/>
<circle cx="614.8" cy="360.9" r="4" fill="#1abc9c" stroke="white" opacity="1.0"/>
<circle cx="640.6" cy="357.1" r="4" fill="#1abc9c" stroke="white" opacity="1.0"/>
<circle cx="666.5" cy="353.3" r="4" fill="#1abc9c" stroke="white" opacity="1.0"/>
<circle cx="692.4" cy="357.1" r="4" fill="#1abc9c" stroke="white" opacity="1.0"/>
<circle cx="718.2" cy="353.3" r="4" fill="#1abc9c" stroke="white" opacity="1.0"/>
<circle cx="744.0" cy="349.4" r="4" fill="#1abc9c" stroke="white" opacity="1.0"/>
<circle cx="769.6" cy="353.3" r="4" fill="#1abc9c" stroke="white" opacity="1.0"/>
<circle cx="795.4" cy="364.7" r="4" fill="#1abc9c" stroke="white" opacity="1.0"/>
<circle cx="821.4" cy="360.9" r="4" fill="#1abc9c" stroke="white" opacity="1.0"/>
<circle cx="847.2" cy="360.9" r="4" fill="#1abc9c" stroke="white" opacity="1.0"/>
<circle cx="872.8" cy="364.7" r="4" fill="#1abc9c" stroke="white" opacity="1.0"/>
<circle cx="898.6" cy="360.9" r="4" fill="#1abc9c" stroke="white" opacity="1.0"/>
<circle cx="924.5" cy="357.1" r="4" fill="#1abc9c" stroke="white" opacity="1.0"/>
<circle cx="950.2" cy="353.3" r="4" fill="#1abc9c" stroke="white" opacity="1.0"/>
<circle cx="976.1" cy="349.4" r="4" fill="#1abc9c" stroke="white" opacity="1.0"/>
<circle cx="1001.9" cy="353.3" r="4" fill="#1abc9c" stroke="white" opacity="1.0"/>
<circle cx="1027.7" cy="357.1" r="4" fill="#1abc9c" stroke="white" opacity="1.0"/>
<circle cx="1053.5" cy="353.3" r="4" fill="#1abc9c" stroke="white" opacity="1.0"/>
</g>
<g class="series pmic-series" data-label="Chip 31927 | T=80°C" data-color="#e74c3c" data-mode="PWM" data-chip="31927" data-temp="80" data-reg="DC2DC_DIG">
<path d="M 124.5,315.1 L 150.3,307.4 L 176.1,296.0 L 201.9,307.4 L 227.8,299.8 L 253.6,311.3 L 279.3,299.8 L 305.0,292.2 L 330.9,292.2 L 356.9,296.0 L 382.6,303.6 L 408.4,307.4 L 434.1,299.8 L 460.0,296.0 L 485.6,288.4 L 511.7,292.2 L 537.4,299.8 L 563.2,299.8 L 589.0,296.0 L 614.8,296.0 L 640.7,288.4 L 666.5,292.2 L 692.4,296.0 L 718.2,303.6 L 744.0,299.8 L 769.6,292.2 L 795.4,296.0 L 821.4,296.0 L 847.2,288.4 L 872.8,299.8 L 898.6,296.0 L 924.5,299.8 L 950.2,307.4 L 976.1,299.8 L 1001.9,288.4 L 1027.7,288.4 L 1053.5,288.4" fill="none" stroke="#e74c3c" stroke-width="2.2" stroke-linejoin="round" opacity="0.9"/>
<circle cx="124.5" cy="315.1" r="4" fill="#e74c3c" stroke="white" opacity="1.0"/>
<circle cx="150.3" cy="307.4" r="4" fill="#e74c3c" stroke="white" opacity="1.0"/>
<circle cx="176.1" cy="296.0" r="4" fill="#e74c3c" stroke="white" opacity="1.0"/>
<circle cx="201.9" cy="307.4" r="4" fill="#e74c3c" stroke="white" opacity="1.0"/>
<circle cx="227.8" cy="299.8" r="4" fill="#e74c3c" stroke="white" opacity="1.0"/>
<circle cx="253.6" cy="311.3" r="4" fill="#e74c3c" stroke="white" opacity="1.0"/>
<circle cx="279.3" cy="299.8" r="4" fill="#e74c3c" stroke="white" opacity="1.0"/>
<circle cx="305.0" cy="292.2" r="4" fill="#e74c3c" stroke="white" opacity="1.0"/>
<circle cx="330.9" cy="292.2" r="4" fill="#e74c3c" stroke="white" opacity="1.0"/>
<circle cx="356.9" cy="296.0" r="4" fill="#e74c3c" stroke="white" opacity="1.0"/>
<circle cx="382.6" cy="303.6" r="4" fill="#e74c3c" stroke="white" opacity="1.0"/>
<circle cx="408.4" cy="307.4" r="4" fill="#e74c3c" stroke="white" opacity="1.0"/>
<circle cx="434.1" cy="299.8" r="4" fill="#e74c3c" stroke="white" opacity="1.0"/>
<circle cx="460.0" cy="296.0" r="4" fill="#e74c3c" stroke="white" opacity="1.0"/>
<circle cx="485.6" cy="288.4" r="4" fill="#e74c3c" stroke="white" opacity="1.0"/>
<circle cx="511.7" cy="292.2" r="4" fill="#e74c3c" stroke="white" opacity="1.0"/>
<circle cx="537.4" cy="299.8" r="4" fill="#e74c3c" stroke="white" opacity="1.0"/>
<circle cx="563.2" cy="299.8" r="4" fill="#e74c3c" stroke="white" opacity="1.0"/>
<circle cx="589.0" cy="296.0" r="4" fill="#e74c3c" stroke="white" opacity="1.0"/>
<circle cx="614.8" cy="296.0" r="4" fill="#e74c3c" stroke="white" opacity="1.0"/>
<circle cx="640.7" cy="288.4" r="4" fill="#e74c3c" stroke="white" opacity="1.0"/>
<circle cx="666.5" cy="292.2" r="4" fill="#e74c3c" stroke="white" opacity="1.0"/>
<circle cx="692.4" cy="296.0" r="4" fill="#e74c3c" stroke="white" opacity="1.0"/>
<circle cx="718.2" cy="303.6" r="4" fill="#e74c3c" stroke="white" opacity="1.0"/>
<circle cx="744.0" cy="299.8" r="4" fill="#e74c3c" stroke="white" opacity="1.0"/>
<circle cx="769.6" cy="292.2" r="4" fill="#e74c3c" stroke="white" opacity="1.0"/>
<circle cx="795.4" cy="296.0" r="4" fill="#e74c3c" stroke="white" opacity="1.0"/>
<circle cx="821.4" cy="296.0" r="4" fill="#e74c3c" stroke="white" opacity="1.0"/>
<circle cx="847.2" cy="288.4" r="4" fill="#e74c3c" stroke="white" opacity="1.0"/>
<circle cx="872.8" cy="299.8" r="4" fill="#e74c3c" stroke="white" opacity="1.0"/>
<circle cx="898.6" cy="296.0" r="4" fill="#e74c3c" stroke="white" opacity="1.0"/>
<circle cx="924.5" cy="299.8" r="4" fill="#e74c3c" stroke="white" opacity="1.0"/>
<circle cx="950.2" cy="307.4" r="4" fill="#e74c3c" stroke="white" opacity="1.0"/>
<circle cx="976.1" cy="299.8" r="4" fill="#e74c3c" stroke="white" opacity="1.0"/>
<circle cx="1001.9" cy="288.4" r="4" fill="#e74c3c" stroke="white" opacity="1.0"/>
<circle cx="1027.7" cy="288.4" r="4" fill="#e74c3c" stroke="white" opacity="1.0"/>
<circle cx="1053.5" cy="288.4" r="4" fill="#e74c3c" stroke="white" opacity="1.0"/>
</g>
<g class="legend-item" data-mode="PWM" data-chip="21988" data-temp="0" data-reg="DC2DC_DIG">
<rect x="1116.0" y="69.0" width="22.0" height="4.0" fill="#3498db" stroke="none" stroke-width="1" opacity="1.0" rx="2"/>
<circle cx="1127.0" cy="71.0" r="4" fill="#3498db" stroke="none" opacity="1.0"/>
<text x="1144.0" y="76.0" font-size="9" font-weight="normal" text-anchor="start" fill="#333" font-family="Arial,sans-serif">Chip 21988 | T=0°C</text>
</g>
<g class="legend-item" data-mode="PWM" data-chip="21988" data-temp="25" data-reg="DC2DC_DIG">
<rect x="1116.0" y="86.0" width="22.0" height="4.0" fill="#e67e22" stroke="none" stroke-width="1" opacity="1.0" rx="2"/>
<circle cx="1127.0" cy="88.0" r="4" fill="#e67e22" stroke="none" opacity="1.0"/>
<text x="1144.0" y="93.0" font-size="9" font-weight="normal" text-anchor="start" fill="#333" font-family="Arial,sans-serif">Chip 21988 | T=25°C</text>
</g>
<g class="legend-item" data-mode="PWM" data-chip="21988" data-temp="80" data-reg="DC2DC_DIG">
<rect x="1116.0" y="103.0" width="22.0" height="4.0" fill="#2ecc71" stroke="none" stroke-width="1" opacity="1.0" rx="2"/>
<circle cx="1127.0" cy="105.0" r="4" fill="#2ecc71" stroke="none" opacity="1.0"/>
<text x="1144.0" y="110.0" font-size="9" font-weight="normal" text-anchor="start" fill="#333" font-family="Arial,sans-serif">Chip 21988 | T=80°C</text>
</g>
<g class="legend-item" data-mode="PWM" data-chip="31927" data-temp="0" data-reg="DC2DC_DIG">
<rect x="1116.0" y="120.0" width="22.0" height="4.0" fill="#9b59b6" stroke="none" stroke-width="1" opacity="1.0" rx="2"/>
<circle cx="1127.0" cy="122.0" r="4" fill="#9b59b6" stroke="none" opacity="1.0"/>
<text x="1144.0" y="127.0" font-size="9" font-weight="normal" text-anchor="start" fill="#333" font-family="Arial,sans-serif">Chip 31927 | T=0°C</text>
</g>
<g class="legend-item" data-mode="PWM" data-chip="31927" data-temp="25" data-reg="DC2DC_DIG">
<rect x="1116.0" y="137.0" width="22.0" height="4.0" fill="#1abc9c" stroke="none" stroke-width="1" opacity="1.0" rx="2"/>
<circle cx="1127.0" cy="139.0" r="4" fill="#1abc9c" stroke="none" opacity="1.0"/>
<text x="1144.0" y="144.0" font-size="9" font-weight="normal" text-anchor="start" fill="#333" font-family="Arial,sans-serif">Chip 31927 | T=25°C</text>
</g>
<g class="legend-item" data-mode="PWM" data-chip="31927" data-temp="80" data-reg="DC2DC_DIG">
<rect x="1116.0" y="154.0" width="22.0" height="4.0" fill="#e74c3c" stroke="none" stroke-width="1" opacity="1.0" rx="2"/>
<circle cx="1127.0" cy="156.0" r="4" fill="#e74c3c" stroke="none" opacity="1.0"/>
<text x="1144.0" y="161.0" font-size="9" font-weight="normal" text-anchor="start" fill="#333" font-family="Arial,sans-serif">Chip 31927 | T=80°C</text>
</g>
<rect class="cursor-overlay" x="78.0" y="68.0" width="1022.0" height="372.0" fill="transparent" style="cursor:default" data-xmin="2.446395" data-xmax="3.634505" data-ymin="0.794928" data-ymax="0.804672" data-pl="78.0" data-pr="1100.0" data-pt="68.0" data-pb="440.0"/>
<g class="cursor-layer" style="pointer-events:none;display:none"><line class="cur-v" x1="0" y1="68.0" x2="0" y2="440.0" stroke="#e74c3c" stroke-width="1.2" stroke-dasharray="5,3"/><line class="cur-h" x1="78.0" y1="0" x2="1100.0" y2="0" stroke="#e74c3c" stroke-width="1.2" stroke-dasharray="5,3"/><rect class="cur-tip-bg" x="0" y="0" width="170" height="48" rx="4" fill="#1a252f" stroke="#34495e" stroke-width="1" opacity="0.92"/><text class="cur-tip-s" x="0" y="0" font-size="8" font-family="Arial,sans-serif" fill="#f1c40f"/><text class="cur-tip-x" x="0" y="0" font-size="9" font-family="Arial,sans-serif" fill="#ecf0f1"/><text class="cur-tip-y" x="0" y="0" font-size="9" font-family="Arial,sans-serif" fill="#2ecc71"/></g>
</svg>