<svg xmlns="http://www.w3.org/2000/svg" width="1400" height="520" viewBox="0 0 1400 520">
<rect width="1400" height="520" fill="#ffffff"/>
<text x="700.0" y="28.0" font-size="16" font-weight="bold" text-anchor="middle" fill="#2c3e50" font-family="Arial,sans-serif">Static Line Regulation — Digital DC2DC  Vout=0.7V  [PWM]  Iload=3.0A</text>
<line x1="78.0" y1="68.0" x2="78.0" y2="440.0" stroke="#999" stroke-width="1"/>
<line x1="73.0" y1="440.0" x2="78.0" y2="440.0" stroke="#999" stroke-width="1"/>
<line x1="78.0" y1="440.0" x2="1100.0" y2="440.0" stroke="#e8e8e8" stroke-width="0.7" stroke-dasharray="4,3"/>
<text x="70.0" y="444.0" font-size="9" font-weight="normal" text-anchor="end" fill="#888" font-family="Arial,sans-serif">0.694</text>
<line x1="73.0" y1="365.6" x2="78.0" y2="365.6" stroke="#999" stroke-width="1"/>
<line x1="78.0" y1="365.6" x2="1100.0" y2="365.6" stroke="#e8e8e8" stroke-width="0.7" stroke-dasharray="4,3"/>
<text x="70.0" y="369.6" font-size="9" font-weight="normal" text-anchor="end" fill="#888" font-family="Arial,sans-serif">0.696</text>
<line x1="73.0" y1="291.2" x2="78.0" y2="291.2" stroke="#999" stroke-width="1"/>
<line x1="78.0" y1="291.2" x2="1100.0" y2="291.2" stroke="#e8e8e8" stroke-width="0.7" stroke-dasharray="4,3"/>
<text x="70.0" y="295.2" font-size="9" font-weight="normal" text-anchor="end" fill="#888" font-family="Arial,sans-serif">0.699</text>
<line x1="73.0" y1="216.8" x2="78.0" y2="216.8" stroke="#999" stroke-width="1"/>
<line x1="78.0" y1="216.8" x2="1100.0" y2="216.8" stroke="#e8e8e8" stroke-width="0.7" stroke-dasharray="4,3"/>
<text x="70.0" y="220.8" font-size="9" font-weight="normal" text-anchor="end" fill="#888" font-family="Arial,sans-serif">0.702</text>
<line x1="73.0" y1="142.4" x2="78.0" y2="142.4" stroke="#999" stroke-width="1"/>
<line x1="78.0" y1="142.4" x2="1100.0" y2="142.4" stroke="#e8e8e8" stroke-width="0.7" stroke-dasharray="4,3"/>
<text x="70.0" y="146.4" font-size="9" font-weight="normal" text-anchor="end" fill="#888" font-family="Arial,sans-serif">0.705</text>
<line x1="73.0" y1="68.0" x2="78.0" y2="68.0" stroke="#999" stroke-width="1"/>
<line x1="78.0" y1="68.0" x2="1100.0" y2="68.0" stroke="#e8e8e8" stroke-width="0.7" stroke-dasharray="4,3"/>
<text x="70.0" y="72.0" font-size="9" font-weight="normal" text-anchor="end" fill="#888" font-family="Arial,sans-serif">0.708</text>
<line x1="78.0" y1="440.0" x2="1100.0" y2="440.0" stroke="#999" stroke-width="1"/>
<line x1="78.0" y1="440.0" x2="78.0" y2="445.0" stroke="#999" stroke-width="1"/>
<line x1="78.0" y1="68.0" x2="78.0" y2="440.0" stroke="#e8e8e8" stroke-width="0.7" stroke-dasharray="4,3"/>
<text x="78.0" y="456.0" font-size="9" font-weight="normal" text-anchor="middle" fill="#888" font-family="Arial,sans-serif">2.45</text>
<line x1="224.0" y1="440.0" x2="224.0" y2="445.0" stroke="#999" stroke-width="1"/>
<line x1="224.0" y1="68.0" x2="224.0" y2="440.0" stroke="#e8e8e8" stroke-width="0.7" stroke-dasharray="4,3"/>
<text x="224.0" y="456.0" font-size="9" font-weight="normal" text-anchor="middle" fill="#888" font-family="Arial,sans-serif">2.62</text>
<line x1="370.0" y1="440.0" x2="370.0" y2="445.0" stroke="#999" stroke-width="1"/>
<line x1="370.0" y1="68.0" x2="370.0" y2="440.0" stroke="#e8e8e8" stroke-width="0.7" stroke-dasharray="4,3"/>
<text x="370.0" y="456.0" font-size="9" font-weight="normal" text-anchor="middle" fill="#888" font-family="Arial,sans-serif">2.79</text>
<line x1="516.0" y1="440.0" x2="516.0" y2="445.0" stroke="#999" stroke-width="1"/>
<line x1="516.0" y1="68.0" x2="516.0" y2="440.0" stroke="#e8e8e8" stroke-width="0.7" stroke-dasharray="4,3"/>
<text x="516.0" y="456.0" font-size="9" font-weight="normal" text-anchor="middle" fill="#888" font-family="Arial,sans-serif">2.96</text>
<line x1="662.0" y1="440.0" x2="662.0" y2="445.0" stroke="#999" stroke-width="1"/>
<line x1="662.0" y1="68.0" x2="662.0" y2="440.0" stroke="#e8e8e8" stroke-width="0.7" stroke-dasharray="4,3"/>
<text x="662.0" y="456.0" font-size="9" font-weight="normal" text-anchor="middle" fill="#888" font-family="Arial,sans-serif">3.13</text>
<line x1="808.0" y1="440.0" x2="808.0" y2="445.0" stroke="#999" stroke-width="1"/>
<line x1="808.0" y1="68.0" x2="808.0" y2="440.0" stroke="#e8e8e8" stroke-width="0.7" stroke-dasharray="4,3"/>
<text x="808.0" y="456.0" font-size="9" font-weight="normal" text-anchor="middle" fill="#888" font-family="Arial,sans-serif">3.3</text>
<line x1="954.0" y1="440.0" x2="954.0" y2="445.0" stroke="#999" stroke-width="1"/>
<line x1="954.0" y1="68.0" x2="954.0" y2="440.0" stroke="#e8e8e8" stroke-width="0.7" stroke-dasharray="4,3"/>
<text x="954.0" y="456.0" font-size="9" font-weight="normal" text-anchor="middle" fill="#888" font-family="Arial,sans-serif">3.46</text>
<line x1="1100.0" y1="440.0" x2="1100.0" y2="445.0" stroke="#999" stroke-width="1"/>
<line x1="1100.0" y1="68.0" x2="1100.0" y2="440.0" stroke="#e8e8e8" stroke-width="0.7" stroke-dasharray="4,3"/>
<text x="1100.0" y="456.0" font-size="9" font-weight="normal" text-anchor="middle" fill="#888" font-family="Arial,sans-serif">3.63</text>
<text x="16.0" y="254.0" font-size="11" font-weight="normal" text-anchor="middle" fill="#555" font-family="Arial,sans-serif" transform="rotate(-90,16,254.0)">Output Voltage  Vout [V]</text>
<text x="589.0" y="510.0" font-size="11" font-weight="normal" text-anchor="middle" fill="#555" font-family="Arial,sans-serif">Input Voltage  Vin [V]</text>
<g class="series pmic-series" data-label="Chip 21988 | T=0°C" data-color="#3498db" data-mode="PWM" data-chip="21988" data-temp="0" data-reg="DC2DC_DIG">
<path d="M 124.5,104.0 L 150.3,104.0 L 176.1,104.0 L 201.9,109.2 L 227.8,106.6 L 253.6,106.6 L 279.3,106.6 L 305.1,104.0 L 330.9,104.0 L 356.9,104.0 L 382.6,98.8 L 408.4,98.8 L 434.1,104.0 L 459.9,96.2 L 485.6,93.7 L 511.7,98.8 L 537.4,96.2 L 563.2,98.8 L 589.0,106.6 L 614.8,101.4 L 640.7,104.0 L 666.5,101.4 L 692.4,104.0 L 718.2,101.4 L 744.0,101.4 L 769.6,101.4 L 795.5,106.6 L 821.4,106.6 L 847.2,101.4 L 872.8,109.2 L 898.6,109.2 L 924.5,104.0 L 950.2,98.8 L 976.1,104.0 L 1001.8,101.4 L 1027.7,109.2 L 1053.5,106.6" fill="none" stroke="#3498db" stroke-width="2.2" stroke-linejoin="round" opacity="0.9"/>
<circle cx="124.5" cy="104.0" r="4" fill="#3498db" stroke="white" opacity="1.0"/>
<circle cx="150.3" cy="104.0" r="4" fill="#3498db" stroke="white" opacity="1.0"/>
<circle cx="176.1" cy="104.0" r="4" fill="#3498db" stroke="white" opacity="1.0"/>
<circle cx="201.9" cy="109.2" r="4" fill="#3498db" stroke="white" opacity="1.0"/>
<circle cx="227.8" cy="106.6" r="4" fill="#3498db" stroke="white" opacity="1.0"/>
<circle cx="253.6" cy="106.6" r="4" fill="#3498db" stroke="white" opacity="1.0"/>
<circle cx="279.3" cy="106.6" r="4" fill="#3498db" stroke="white" opacity="1.0"/>
<circle cx="305.1" cy="104.0" r="4" fill="#3498db" stroke="white" opacity="1.0"/>
<circle cx="330.9" cy="104.0" r="4" fill="#3498db" stroke="white" opacity="1.0"/>
<circle cx="356.9" cy="104.0" r="4" fill="#3498db" stroke="white" opacity="1.0"/>
<circle cx="382.6" cy="98.8" r="4" fill="#3498db" stroke="white" opacity="1.0"/>
<circle cx="408.4" cy="98.8" r="4" fill="#3498db" stroke="white" opacity="1.0"/>
<circle cx="434.1" cy="104.0" r="4" fill="#3498db" stroke="white" opacity="1.0"/>
<circle cx="459.9" cy="96.2" r="4" fill="#3498db" stroke="white" opacity="1.0"/>
<circle cx="485.6" cy="93.7" r="4" fill="#3498db" stroke="white" opacity="1.0"/>
<circle cx="511.7" cy="98.8" r="4" fill="#3498db" stroke="white" opacity="1.0"/>
<circle cx="537.4" cy="96.2" r="4" fill="#3498db" stroke="white" opacity="1.0"/>
<circle cx="563.2" cy="98.8" r="4" fill="#3498db" stroke="white" opacity="1.0"/>
<circle cx="589.0" cy="106.6" r="4" fill="#3498db" stroke="white" opacity="1.0"/>
<circle cx="614.8" cy="101.4" r="4" fill="#3498db" stroke="white" opacity="1.0"/>
<circle cx="640.7" cy="104.0" r="4" fill="#3498db" stroke="white" opacity="1.0"/>
<circle cx="666.5" cy="101.4" r="4" fill="#3498db" stroke="white" opacity="1.0"/>
<circle cx="692.4" cy="104.0" r="4" fill="#3498db" stroke="white" opacity="1.0"/>
<circle cx="718.2" cy="101.4" r="4" fill="#3498db" stroke="white" opacity="1.0"/>
<circle cx="744.0" cy="101.4" r="4" fill="#3498db" stroke="white" opacity="1.0"/>
<circle cx="769.6" cy="101.4" r="4" fill="#3498db" stroke="white" opacity="1.0"/>
<circle cx="795.5" cy="106.6" r="4" fill="#3498db" stroke="white" opacity="1.0"/>
<circle cx="821.4" cy="106.6" r="4" fill="#3498db" stroke="white" opacity="1.0"/>
<circle cx="847.2" cy="101.4" r="4" fill="#3498db" stroke="white" opacity="1.0"/>
<circle cx="872.8" cy="109.2" r="4" fill="#3498db" stroke="white" opacity="1.0"/>
<circle cx="898.6" cy="109.2" r="4" fill="#3498db" stroke="white" opacity="1.0"/>
<circle cx="924.5" cy="104.0" r="4" fill="#3498db" stroke="white" opacity="1.0"/>
<circle cx="950.2" cy="98.8" r="4" fill="#3498db" stroke="white" opacity="1.0"/>
<circle cx="976.1" cy="104.0" r="4" fill="#3498db" stroke="white" opacity="1.0"/>
<circle cx="1001.8" cy="101.4" r="4" fill="#3498db" stroke="white" opacity="1.0"/>
<circle cx="1027.7" cy="109.2" r="4" fill="#3498db" stroke="white" opacity="1.0"/>
<circle cx="1053.5" cy="106.6" r="4" fill="#3498db" stroke="white" opacity="1.0"/>
</g>
<g class="series pmic-series" data-label="Chip 21988 | T=25°C" data-color="#e67e22" data-mode="PWM" data-chip="21988" data-temp="25" data-reg="DC2DC_DIG">
<path d="M 124.5,220.4 L 150.3,225.6 L 176.1,225.6 L 201.9,217.8 L 227.8,228.1 L 253.6,223.0 L 279.3,230.7 L 305.0,217.8 L 330.9,223.0 L 356.9,220.4 L 382.6,223.0 L 408.4,225.6 L 434.1,225.6 L 459.9,220.4 L 485.6,225.6 L 511.7,230.7 L 537.4,223.0 L 563.2,233.3 L 589.0,230.7 L 614.8,225.6 L 640.7,220.4 L 666.5,225.6 L 692.4,223.0 L 718.2,215.2 L 744.0,223.0 L 769.6,220.4 L 795.4,217.8 L 821.4,220.4 L 847.2,223.0 L 872.8,223.0 L 898.6,223.0 L 924.5,215.2 L 950.2,220.4 L 976.1,215.2 L 1001.8,223.0 L 1027.7,223.0 L 1053.5,230.7" fill="none" stroke="#e67e22" stroke-width="2.2" stroke-linejoin="round" opacity="0.9"/>
<circle cx="124.5" cy="220.4" r="4" fill="#e67e22" stroke="white" opacity="1.0"/>
<circle cx="150.3" cy="225.6" r="4" fill="#e67e22" stroke="white" opacity="1.0"/>
<circle cx="176.1" cy="225.6" r="4" fill="#e67e22" stroke="white" opacity="1.0"/>
<circle cx="201.9" cy="217.8" r="4" fill="#e67e22" stroke="white" opacity="1.0"/>
<circle cx="227.8" cy="228.1" r="4" fill="#e67e22" stroke="white" opacity="1.0"/>
<circle cx="253.6" cy="223.0" r="4" fill="#e67e22" stroke="white" opacity="1.0"/>
<circle cx="279.3" cy="230.7" r="4" fill="#e67e22" stroke="white" opacity="1.0"/>
<circle cx="305.0" cy="217.8" r="4" fill="#e67e22" stroke="white" opacity="1.0"/>
<circle cx="330.9" cy="223.0" r="4" fill="#e67e22" stroke="white" opacity="1.0"/>
<circle cx="356.9" cy="220.4" r="4" fill="#e67e22" stroke="white" opacity="1.0"/>
<circle cx="382.6" cy="223.0" r="4" fill="#e67e22" stroke="white" opacity="1.0"/>
<circle cx="408.4" cy="225.6" r="4" fill="#e67e22" stroke="white" opacity="1.0"/>
<circle cx="434.1" cy="225.6" r="4" fill="#e67e22" stroke="white" opacity="1.0"/>
<circle cx="459.9" cy="220.4" r="4" fill="#e67e22" stroke="white" opacity="1.0"/>
<circle cx="485.6" cy="225.6" r="4" fill="#e67e22" stroke="white" opacity="1.0"/>
<circle cx="511.7" cy="230.7" r="4" fill="#e67e22" stroke="white" opacity="1.0"/>
<circle cx="537.4" cy="223.0" r="4" fill="#e67e22" stroke="white" opacity="1.0"/>
<circle cx="563.2" cy="233.3" r="4" fill="#e67e22" stroke="white" opacity="1.0"/>
<circle cx="589.0" cy="230.7" r="4" fill="#e67e22" stroke="white" opacity="1.0"/>
<circle cx="614.8" cy="225.6" r="4" fill="#e67e22" stroke="white" opacity="1.0"/>
<circle cx="640.7" cy="220.4" r="4" fill="#e67e22" stroke="white" opacity="1.0"/>
<circle cx="666.5" cy="225.6" r="4" fill="#e67e22" stroke="white" opacity="1.0"/>
<circle cx="692.4" cy="223.0" r="4" fill="#e67e22" stroke="white" opacity="1.0"/>
<circle cx="718.2" cy="215.2" r="4" fill="#e67e22" stroke="white" opacity="1.0"/>
<circle cx="744.0" cy="223.0" r="4" fill="#e67e22" stroke="white" opacity="1.0"/>
<circle cx="769.6" cy="220.4" r="4" fill="#e67e22" stroke="white" opacity="1.0"/>
<circle cx="795.4" cy="217.8" r="4" fill="#e67e22" stroke="white" opacity="1.0"/>
<circle cx="821.4" cy="220.4" r="4" fill="#e67e22" stroke="white" opacity="1.0"/>
<circle cx="847.2" cy="223.0" r="4" fill="#e67e22" stroke="white" opacity="1.0"/>
<circle cx="872.8" cy="223.0" r="4" fill="#e67e22" stroke="white" opacity="1.0"/>
<circle cx="898.6" cy="223.0" r="4" fill="#e67e22" stroke="white" opacity="1.0"/>
<circle cx="924.5" cy="215.2" r="4" fill="#e67e22" stroke="white" opacity="1.0"/>
<circle cx="950.2" cy="220.4" r="4" fill="#e67e22" stroke="white" opacity="1.0"/>
<circle cx="976.1" cy="215.2" r="4" fill="#e67e22" stroke="white" opacity="1.0"/>
<circle cx="1001.8" cy="223.0" r="4" fill="#e67e22" stroke="white" opacity="1.0"/>
<circle cx="1027.7" cy="223.0" r="4" fill="#e67e22" stroke="white" opacity="1.0"/>
<circle cx="1053.5" cy="230.7" r="4" fill="#e67e22" stroke="white" opacity="1.0"/>
</g>
<g class="series pmic-series" data-label="Chip 21988 | T=80°C" data-color="#2ecc71" data-mode="PWM" data-chip="21988" data-temp="80" data-reg="DC2DC_DIG">
<path d="M 124.5,158.3 L 150.3,163.5 L 176.0,160.9 L 201.9,158.3 L 227.8,160.9 L 253.6,166.1 L 279.3,158.3 L 305.1,163.5 L 330.9,168.7 L 356.9,166.1 L 382.6,163.5 L 408.4,173.8 L 434.1,166.1 L 460.0,168.7 L 485.6,160.9 L 511.7,171.2 L 537.4,171.2 L 563.2,166.1 L 589.0,173.8 L 614.8,173.8 L 640.6,173.8 L 666.5,171.2 L 692.4,171.2 L 718.2,168.7 L 744.0,166.1 L 769.5,173.8 L 795.4,171.2 L 821.3,168.7 L 847.1,163.5 L 872.8,171.2 L 898.6,168.7 L 924.4,168.7 L 950.2,168.7 L 976.1,171.2 L 1001.8,171.2 L 1027.7,163.5 L 1053.5,171.2" fill="none" stroke="#2ecc71" stroke-width="2.2" stroke-linejoin="round" opacity="0.9"/>
<circle cx="124.5" cy="158.3" r="4" fill="#2ecc71" stroke="white" opacity="1.0"/>
<circle cx="150.3" cy="163.5" r="4" fill="#2ecc71" stroke="white" opacity="1.0"/>
<circle cx="176.0" cy="160.9" r="4" fill="#2ecc71" stroke="white" opacity="1.0"/>
<circle cx="201.9" cy="158.3" r="4" fill="#2ecc71" stroke="white" opacity="1.0"/>
<circle cx="227.8" cy="160.9" r="4" fill="#2ecc71" stroke="white" opacity="1.0"/>
<circle cx="253.6" cy="166.1" r="4" fill="#2ecc71" stroke="white" opacity="1.0"/>
<circle cx="279.3" cy="158.3" r="4" fill="#2ecc71" stroke="white" opacity="1.0"/>
<circle cx="305.1" cy="163.5" r="4" fill="#2ecc71" stroke="white" opacity="1.0"/>
<circle cx="330.9" cy="168.7" r="4" fill="#2ecc71" stroke="white" opacity="1.0"/>
<circle cx="356.9" cy="166.1" r="4" fill="#2ecc71" stroke="white" opacity="1.0"/>
<circle cx="382.6" cy="163.5" r="4" fill="#2ecc71" stroke="white" opacity="1.0"/>
<circle cx="408.4" cy="173.8" r="4" fill="#2ecc71" stroke="white" opacity="1.0"/>
<circle cx="434.1" cy="166.1" r="4" fill="#2ecc71" stroke="white" opacity="1.0"/>
<circle cx="460.0" cy="168.7" r="4" fill="#2ecc71" stroke="white" opacity="1.0"/>
<circle cx="485.6" cy="160.9" r="4" fill="#2ecc71" stroke="white" opacity="1.0"/>
<circle cx="511.7" cy="171.2" r="4" fill="#2ecc71" stroke="white" opacity="1.0"/>
<circle cx="537.4" cy="171.2" r="4" fill="#2ecc71" stroke="white" opacity="1.0"/>
<circle cx="563.2" cy="166.1" r="4" fill="#2ecc71" stroke="white" opacity="1.0"/>
<circle cx="589.0" cy="173.8" r="4" fill="#2ecc71" stroke="white" opacity="1.0"/>
<circle cx="614.8" cy="173.8" r="4" fill="#2ecc71" stroke="white" opacity="1.0"/>
<circle cx="640.6" cy="173.8" r="4" fill="#2ecc71" stroke="white" opacity="1.0"/>
<circle cx="666.5" cy="171.2" r="4" fill="#2ecc71" stroke="white" opacity="1.0"/>
<circle cx="692.4" cy="171.2" r="4" fill="#2ecc71" stroke="white" opacity="1.0"/>
<circle cx="718.2" cy="168.7" r="4" fill="#2ecc71" stroke="white" opacity="1.0"/>
<circle cx="744.0" cy="166.1" r="4" fill="#2ecc71" stroke="white" opacity="1.0"/>
<circle cx="769.5" cy="173.8" r="4" fill="#2ecc71" stroke="white" opacity="1.0"/>
<circle cx="795.4" cy="171.2" r="4" fill="#2ecc71" stroke="white" opacity="1.0"/>
<circle cx="821.3" cy="168.7" r="4" fill="#2ecc71" stroke="white" opacity="1.0"/>
<circle cx="847.1" cy="163.5" r="4" fill="#2ecc71" stroke="white" opacity="1.0"/>
<circle cx="872.8" cy="171.2" r="4" fill="#2ecc71" stroke="white" opacity="1.0"/>
<circle cx="898.6" cy="168.7" r="4" fill="#2ecc71" stroke="white" opacity="1.0"/>
<circle cx="924.4" cy="168.7" r="4" fill="#2ecc71" stroke="white" opacity="1.0"/>
<circle cx="950.2" cy="168.7" r="4" fill="#2ecc71" stroke="white" opacity="1.0"/>
<circle cx="976.1" cy="171.2" r="4" fill="#2ecc71" stroke="white" opacity="1.0"/>
<circle cx="1001.8" cy="171.2" r="4" fill="#2ecc71" stroke="white" opacity="1.0"/>
<circle cx="1027.7" cy="163.5" r="4" fill="#2ecc71" stroke="white" opacity="1.0"/>
<circle cx="1053.5" cy="171.2" r="4" fill="#2ecc71" stroke="white" opacity="1.0"/>
</g>
<g class="series pmic-series" data-label="Chip 31927 | T=0°C" data-color="#9b59b6" data-mode="PWM" data-chip="31927" data-temp="0" data-reg="DC2DC_DIG">
<path d="M 124.5,404.0 L 150.3,404.0 L 176.1,404.0 L 201.9,401.4 L 227.8,406.6 L 253.6,406.6 L 279.3,409.2 L 305.1,406.6 L 330.9,404.0 L 356.9,404.0 L 382.6,409.2 L 408.4,409.2 L 434.1,411.8 L 460.0,406.6 L 485.6,406.6 L 511.7,411.8 L 537.4,414.3 L 563.2,409.2 L 589.0,411.8 L 614.8,401.4 L 640.6,401.4 L 666.5,404.0 L 692.4,404.0 L 718.1,401.4 L 744.0,404.0 L 769.6,409.2 L 795.4,404.0 L 821.4,409.2 L 847.2,404.0 L 872.9,409.2 L 898.7,414.3 L 924.5,406.6 L 950.2,409.2 L 976.2,409.2 L 1001.9,404.0 L 1027.8,406.6 L 1053.5,414.3" fill="none" stroke="#9b59b6" stroke-width="2.2" stroke-linejoin="round" opacity="0.9"/>
<circle cx="124.5" cy="404.0" r="4" fill="#9b59b6" stroke="white" opacity="1.0"/>
<circle cx="150.3" cy="404.0" r="4" fill="#9b59b6" stroke="white" opacity="1.0"/>
<circle cx="176.1" cy="404.0" r="4" fill="#9b59b6" stroke="white" opacity="1.0"/>
<circle cx="201.9" cy="401.4" r="4" fill="#9b59b6" stroke="white" opacity="1.0"/>
<circle cx="227.8" cy="406.6" r="4" fill="#9b59b6" stroke="white" opacity="1.0"/>
<circle cx="253.6" cy="406.6" r="4" fill="#9b59b6" stroke="white" opacity="1.0"/>
<circle cx="279.3" cy="409.2" r="4" fill="#9b59b6" stroke="white" opacity="1.0"/>
<circle cx="305.1" cy="406.6" r="4" fill="#9b59b6" stroke="white" opacity="1.0"/>
<circle cx="330.9" cy="404.0" r="4" fill="#9b59b6" stroke="white" opacity="1.0"/>
<circle cx="356.9" cy="404.0" r="4" fill="#9b59b6" stroke="white" opacity="1.0"/>
<circle cx="382.6" cy="409.2" r="4" fill="#9b59b6" stroke="white" opacity="1.0"/>
<circle cx="408.4" cy="409.2" r="4" fill="#9b59b6" stroke="white" opacity="1.0"/>
<circle cx="434.1" cy="411.8" r="4" fill="#9b59b6" stroke="white" opacity="1.0"/>
<circle cx="460.0" cy="406.6" r="4" fill="#9b59b6" stroke="white" opacity="1.0"/>
<circle cx="485.6" cy="406.6" r="4" fill="#9b59b6" stroke="white" opacity="1.0"/>
<circle cx="511.7" cy="411.8" r="4" fill="#9b59b6" stroke="white" opacity="1.0"/>
<circle cx="537.4" cy="414.3" r="4" fill="#9b59b6" stroke="white" opacity="1.0"/>
<circle cx="563.2" cy="409.2" r="4" fill="#9b59b6" stroke="white" opacity="1.0"/>
<circle cx="589.0" cy="411.8" r="4" fill="#9b59b6" stroke="white" opacity="1.0"/>
<circle cx="614.8" cy="401.4" r="4" fill="#9b59b6" stroke="white" opacity="1.0"/>
<circle cx="640.6" cy="401.4" r="4" fill="#9b59b6" stroke="white" opacity="1.0"/>
<circle cx="666.5" cy="404.0" r="4" fill="#9b59b6" stroke="white" opacity="1.0"/>
<circle cx="692.4" cy="404.0" r="4" fill="#9b59b6" stroke="white" opacity="1.0"/>
<circle cx="718.1" cy="401.4" r="4" fill="#9b59b6" stroke="white" opacity="1.0"/>
<circle cx="744.0" cy="404.0" r="4" fill="#9b59b6" stroke="white" opacity="1.0"/>
<circle cx="769.6" cy="409.2" r="4" fill="#9b59b6" stroke="white" opacity="1.0"/>
<circle cx="795.4" cy="404.0" r="4" fill="#9b59b6" stroke="white" opacity="1.0"/>
<circle cx="821.4" cy="409.2" r="4" fill="#9b59b6" stroke="white" opacity="1.0"/>
<circle cx="847.2" cy="404.0" r="4" fill="#9b59b6" stroke="white" opacity="1.0"/>
<circle cx="872.9" cy="409.2" r="4" fill="#9b59b6" stroke="white" opacity="1.0"/>
<circle cx="898.7" cy="414.3" r="4" fill="#9b59b6" stroke="white" opacity="1.0"/>
<circle cx="924.5" cy="406.6" r="4" fill="#9b59b6" stroke="white" opacity="1.0"/>
<circle cx="950.2" cy="409.2" r="4" fill="#9b59b6" stroke="white" opacity="1.0"/>
<circle cx="976.2" cy="409.2" r="4" fill="#9b59b6" stroke="white" opacity="1.0"/>
<circle cx="1001.9" cy="404.0" r="4" fill="#9b59b6" stroke="white" opacity="1.0"/>
<circle cx="1027.8" cy="406.6" r="4" fill="#9b59b6" stroke="white" opacity="1.0"/>
<circle cx="1053.5" cy="414.3" r="4" fill="#9b59b6" stroke="white" opacity="1.0"/>
</g>
<g class="series pmic-series" data-label="Chip 31927 | T=25°C" data-color="#1abc9c" data-mode="PWM" data-chip="31927" data-temp="25" data-reg="DC2DC_DIG">
<path d="M 124.5,373.0 L 150.3,370.4 L 176.1,373.0 L 202.0,373.0 L 227.8,373.0 L 253.6,378.1 L 279.3,378.1 L 305.1,373.0 L 330.9,375.6 L 356.9,375.6 L 382.6,370.4 L 408.4,375.6 L 434.1,370.4 L 460.0,375.6 L 485.6,380.7 L 511.7,375.6 L 537.4,380.7 L 563.2,370.4 L 589.0,370.4 L 614.8,370.4 L 640.6,370.4 L 666.5,370.4 L 692.4,373.0 L 718.2,375.6 L 744.0,373.0 L 769.6,378.1 L 795.4,375.6 L 821.4,378.1 L 847.2,373.0 L 872.8,373.0 L 898.7,370.4 L 924.5,362.6 L 950.2,370.4 L 976.2,367.8 L 1001.9,365.2 L 1027.8,370.4 L 1053.5,367.8" fill="none" stroke="#1abc9c" stroke-width="2.2" stroke-linejoin="round" opacity="0.9"/>
<circle cx="124.5" cy="373.0" r="4" fill="#1abc9c" stroke="white" opacity="1.0"/>
<circle cx="150.3" cy="370.4" r="4" fill="#1abc9c" stroke="white" opacity="1.0"/>
<circle cx="176.1" cy="373.0" r="4" fill="#1abc9c" stroke="white" opacity="1.0"/>
<circle cx="202.0" cy="373.0" r="4" fill="#1abc9c" stroke="white" opacity="1.0"/>
<circle cx="227.8" cy="373.0" r="4" fill="#1abc9c" stroke="white" opacity="1.0"/>
<circle cx="253.6" cy="378.1" r="4" fill="#1abc9c" stroke="white" opacity="1.0"/>
<circle cx="279.3" cy="378.1" r="4" fill="#1abc9c" stroke="white" opacity="1.0"/>
<circle cx="305.1" cy="373.0" r="4" fill="#1abc9c" stroke="white" opacity="1.0"/>
<circle cx="330.9" cy="375.6" r="4" fill="#1abc9c" stroke="white" opacity="1.0"/>
<circle cx="356.9" cy="375.6" r="4" fill="#1abc9c" stroke="white" opacity="1.0"/>
<circle cx="382.6" cy="370.4" r="4" fill="#1abc9c" stroke="white" opacity="1.0"/>
<circle cx="408.4" cy="375.6" r="4" fill="#1abc9c" stroke="white" opacity="1.0"/>
<circle cx="434.1" cy="370.4" r="4" fill="#1abc9c" stroke="white" opacity="1.0"/>
<circle cx="460.0" cy="375.6" r="4" fill="#1abc9c" stroke="white" opacity="1.0"/>
<circle cx="485.6" cy="380.7" r="4" fill="#1abc9c" stroke="white" opacity="1.0"/>
<circle cx="511.7" cy="375.6" r="4" fill="#1abc9c" stroke="white" opacity="1.0"/>
<circle cx="537.4" cy="380.7" r="4" fill="#1abc9c" stroke="white" opacity="1.0"/>
<circle cx="563.2" cy="370.4" r="4" fill="#1abc9c" stroke="white" opacity="1.0"/>
<circle cx="589.0" cy="370.4" r="4" fill="#1abc9c" stroke="white" opacity="1.0"/>
<circle cx="614.8" cy="370.4" r="4" fill="#1abc9c" stroke="white" opacity="1.0"/>
<circle cx="640.6" cy="370.4" r="4" fill="#1abc9c" stroke="white" opacity="1.0"/>
<circle cx="666.5" cy="370.4" r="4" fill="#1abc9c" stroke="white" opacity="1.0"/>
<circle cx="692.4" cy="373.0" r="4" fill="#1abc9c" stroke="white" opacity="1.0"/>
<circle cx="718.2" cy="375.6" r="4" fill="#1abc9c" stroke="white" opacity="1.0"/>
<circle cx="744.0" cy="373.0" r="4" fill="#1abc9c" stroke="white" opacity="1.0"/>
<circle cx="769.6" cy="378.1" r="4" fill="#1abc9c" stroke="white" opacity="1.0"/>
<circle cx="795.4" cy="375.6" r="4" fill="#1abc9c" stroke="white" opacity="1.0"/>
<circle cx="821.4" cy="378.1" r="4" fill="#1abc9c" stroke="white" opacity="1.0"/>
<circle cx="847.2" cy="373.0" r="4" fill="#1abc9c" stroke="white" opacity="1.0"/>
<circle cx="872.8" cy="373.0" r="4" fill="#1abc9c" stroke="white" opacity="1.0"/>
<circle cx="898.7" cy="370.4" r="4" fill="#1abc9c" stroke="white" opacity="1.0"/>
<circle cx="924.5" cy="362.6" r="4" fill="#1abc9c" stroke="white" opacity="1.0"/>
<circle cx="950.2" cy="370.4" r="4" fill="#1abc9c" stroke="white" opacity="1.0"/>
<circle cx="976.2" cy="367.8" r="4" fill="#1abc9c" stroke="white" opacity="1.0"/>
<circle cx="1001.9" cy="365.2" r="4" fill="#1abc9c" stroke="white" opacity="1.0"/>
<circle cx="1027.8" cy="370.4" r="4" fill="#1abc9c" stroke="white" opacity="1.0"/>
<circle cx="1053.5" cy="367.8" r="4" fill="#1abc9c" stroke="white" opacity="1.0"/>
</g>
<g class="series pmic-series" data-label="Chip 31927 | T=80°C" data-color="#e74c3c" data-mode="PWM" data-chip="31927" data-temp="80" data-reg="DC2DC_DIG">
<path d="M 150.3,326.4 L 176.1,331.6 L 202.0,336.8 L 227.8,331.6 L 253.6,331.6 L 279.3,329.0 L 305.1,329.0 L 330.9,334.2 L 356.9,334.2 L 382.6,334.2 L 408.4,326.4 L 434.1,339.3 L 459.9,339.3 L 485.6,336.8 L 511.7,331.6 L 537.4,331.6 L 563.2,329.0 L 589.0,331.6 L 614.8,334.2 L 640.6,336.8 L 666.5,336.8 L 692.4,334.2 L 718.2,336.8 L 744.0,331.6 L 769.6,336.8 L 795.5,326.4 L 821.4,331.6 L 847.2,331.6 L 872.9,334.2 L 898.7,334.2 L 924.5,336.8 L 950.2,331.6 L 976.2,334.2 L 1001.9,331.6 L 1027.8,329.0 L 1053.5,334.2" fill="none" stroke="#e74c3c" stroke-width="2.2" stroke-linejoin="round" opacity="0.9"/>
<circle cx="150.3" cy="326.4" r="4" fill="#e74c3c" stroke="white" opacity="1.0"/>
<circle cx="176.1" cy="331.6" r="4" fill="#e74c3c" stroke="white" opacity="1.0"/>
<circle cx="202.0" cy="336.8" r="4" fill="#e74c3c" stroke="white" opacity="1.0"/>
<circle cx="227.8" cy="331.6" r="4" fill="#e74c3c" stroke="white" opacity="1.0"/>
<circle cx="253.6" cy="331.6" r="4" fill="#e74c3c" stroke="white" opacity="1.0"/>
<circle cx="279.3" cy="329.0" r="4" fill="#e74c3c" stroke="white" opacity="1.0"/>
<circle cx="305.1" cy="329.0" r="4" fill="#e74c3c" stroke="white" opacity="1.0"/>
<circle cx="330.9" cy="334.2" r="4" fill="#e74c3c" stroke="white" opacity="1.0"/>
<circle cx="356.9" cy="334.2" r="4" fill="#e74c3c" stroke="white" opacity="1.0"/>
<circle cx="382.6" cy="334.2" r="4" fill="#e74c3c" stroke="white" opacity="1.0"/>
<circle cx="408.4" cy="326.4" r="4" fill="#e74c3c" stroke="white" opacity="1.0"/>
<circle cx="434.1" cy="339.3" r="4" fill="#e74c3c" stroke="white" opacity="1.0"/>
<circle cx="459.9" cy="339.3" r="4" fill="#e74c3c" stroke="white" opacity="1.0"/>
<circle cx="485.6" cy="336.8" r="4" fill="#e74c3c" stroke="white" opacity="1.0"/>
<circle cx="511.7" cy="331.6" r="4" fill="#e74c3c" stroke="white" opacity="1.0"/>
<circle cx="537.4" cy="331.6" r="4" fill="#e74c3c" stroke="white" opacity="1.0"/>
<circle cx="563.2" cy="329.0" r="4" fill="#e74c3c" stroke="white" opacity="1.0"/>
<circle cx="589.0" cy="331.6" r="4" fill="#e74c3c" stroke="white" opacity="1.0"/>
<circle cx="614.8" cy="334.2" r="4" fill="#e74c3c" stroke="white" opacity="1.0"/>
<circle cx="640.6" cy="336.8" r="4" fill="#e74c3c" stroke="white" opacity="1.0"/>
<circle cx="666.5" cy="336.8" r="4" fill="#e74c3c" stroke="white" opacity="1.0"/>
<circle cx="692.4" cy="334.2" r="4" fill="#e74c3c" stroke="white" opacity="1.0"/>
<circle cx="718.2" cy="336.8" r="4" fill="#e74c3c" stroke="white" opacity="1.0"/>
<circle cx="744.0" cy="331.6" r="4" fill="#e74c3c" stroke="white" opacity="1.0"/>
<circle cx="769.6" cy="336.8" r="4" fill="#e74c3c" stroke="white" opacity="1.0"/>
<circle cx="795.5" cy="326.4" r="4" fill="#e74c3c" stroke="white" opacity="1.0"/>
<circle cx="821.4" cy="331.6" r="4" fill="#e74c3c" stroke="white" opacity="1.0"/>
<circle cx="847.2" cy="331.6" r="4" fill="#e74c3c" stroke="white" opacity="1.0"/>
<circle cx="872.9" cy="334.2" r="4" fill="#e74c3c" stroke="white" opacity="1.0"/>
<circle cx="898.7" cy="334.2" r="4" fill="#e74c3c" stroke="white" opacity="1.0"/>
<circle cx="924.5" cy="336.8" r="4" fill="#e74c3c" stroke="white" opacity="1.0"/>
<circle cx="950.2" cy="331.6" r="4" fill="#e74c3c" stroke="white" opacity="1.0"/>
<circle cx="976.2" cy="334.2" r="4" fill="#e74c3c" stroke="white" opacity="1.0"/>
<circle cx="1001.9" cy="331.6" r="4" fill="#e74c3c" stroke="white" opacity="1.0"/>
<circle cx="1027.8" cy="329.0" r="4" fill="#e74c3c" stroke="white" opacity="1.0"/>
<circle cx="1053.5" cy="334.2" r="4" fill="#e74c3c" stroke="white" opacity="1.0"/>
</g>
<g class="legend-item" data-mode="PWM" data-chip="21988" data-temp="0" data-reg="DC2DC_DIG">
<rect x="1116.0" y="69.0" width="22.0" height="4.0" fill="#3498db" stroke="none" stroke-width="1" opacity="1.0" rx="2"/>
<circle cx="1127.0" cy="71.0" r="4" fill="#3498db" stroke="none" opacity="1.0"/>
<text x="1144.0" y="76.0" font-size="9" font-weight="normal" text-anchor="start" fill="#333" font-family="Arial,sans-serif">Chip 21988 | T=0°C</text>
</g>
<g class="legend-item" data-mode="PWM" data-chip="21988" data-temp="25" data-reg="DC2DC_DIG">
<rect x="1116.0" y="86.0" width="22.0" height="4.0" fill="#e67e22" stroke="none" stroke-width="1" opacity="1.0" rx="2"/>
<circle cx="1127.0" cy="88.0" r="4" fill="#e67e22" stroke="none" opacity="1.0"/>
<text x="1144.0" y="93.0" font-size="9" font-weight="normal" text-anchor="start" fill="#333" font-family="Arial,sans-serif">Chip 21988 | T=25°C</text>
</g>
<g class="legend-item" data-mode="PWM" data-chip="21988" data-temp="80" data-reg="DC2DC_DIG">
<rect x="1116.0" y="103.0" width="22.0" height="4.0" fill="#2ecc71" stroke="none" stroke-width="1" opacity="1.0" rx="2"/>
<circle cx="1127.0" cy="105.0" r="4" fill="#2ecc71" stroke="none" opacity="1.0"/>
<text x="1144.0" y="110.0" font-size="9" font-weight="normal" text-anchor="start" fill="#333" font-family="Arial,sans-serif">Chip 21988 | T=80°C</text>
</g>
<g class="legend-item" data-mode="PWM" data-chip="31927" data-temp="0" data-reg="DC2DC_DIG">
<rect x="1116.0" y="120.0" width="22.0" height="4.0" fill="#9b59b6" stroke="none" stroke-width="1" opacity="1.0" rx="2"/>
<circle cx="1127.0" cy="122.0" r="4" fill="#9b59b6" stroke="none" opacity="1.0"/>
<text x="1144.0" y="127.0" font-size="9" font-weight="normal" text-anchor="start" fill="#333" font-family="Arial,sans-serif">Chip 31927 | T=0°C</text>
</g>
<g class="legend-item" data-mode="PWM" data-chip="31927" data-temp="25" data-reg="DC2DC_DIG">
<rect x="1116.0" y="137.0" width="22.0" height="4.0" fill="#1abc9c" stroke="none" stroke-width="1" opacity="1.0" rx="2"/>
<circle cx="1127.0" cy="139.0" r="4" fill="#1abc9c" stroke="none" opacity="1.0"/>
<text x="1144.0" y="144.0" font-size="9" font-weight="normal" text-anchor="start" fill="#333" font-family="Arial,sans-serif">Chip 31927 | T=25°C</text>
</g>
<g class="legend-item" data-mode="PWM" data-chip="31927" data-temp="80" data-reg="DC2DC_DIG">
<rect x="1116.0" y="154.0" width="22.0" height="4.0" fill="#e74c3c" stroke="none" stroke-width="1" opacity="1.0" rx="2"/>
<circle cx="1127.0" cy="156.0" r="4" fill="#e74c3c" stroke="none" opacity="1.0"/>
<text x="1144.0" y="161.0" font-size="9" font-weight="normal" text-anchor="start" fill="#333" font-family="Arial,sans-serif">Chip 31927 | T=80°C</text>
</g>
<rect class="cursor-overlay" x="78.0" y="68.0" width="1022.0" height="372.0" fill="transparent" style="cursor:default" data-xmin="2.446395" data-xmax="3.634505" data-ymin="0.693608" data-ymax="0.707992" data-pl="78.0" data-pr="1100.0" data-pt="68.0" data-pb="440.0"/>
<g class="cursor-layer" style="pointer-events:none;display:none"><line class="cur-v" x1="0" y1="68.0" x2="0" y2="440.0" stroke="#e74c3c" stroke-width="1.2" stroke-dasharray="5,3"/><line class="cur-h" x1="78.0" y1="0" x2="1100.0" y2="0" stroke="#e74c3c" stroke-width="1.2" stroke-dasharray="5,3"/><rect class="cur-tip-bg" x="0" y="0" width="170" height="48" rx="4" fill="#1a252f" stroke="#34495e" stroke-width="1" opacity="0.92"/><text class="cur-tip-s" x="0" y="0" font-size="8" font-family="Arial,sans-serif" fill="#f1c40f"/><text class="cur-tip-x" x="0" y="0" font-size="9" font-family="Arial,sans-serif" fill="#ecf0f1"/><text class="cur-tip-y" x="0" y="0" font-size="9" font-family="Arial,sans-serif" fill="#2ecc71"/></g>
</svg>