<svg xmlns="http://www.w3.org/2000/svg" width="1400" height="520" viewBox="0 0 1400 520">
<rect width="1400" height="520" fill="#ffffff"/>
<text x="700.0" y="28.0" font-size="16" font-weight="bold" text-anchor="middle" fill="#2c3e50" font-family="Arial,sans-serif">Static Line Regulation — Digital DC2DC  Vout=0.7V  [PWM]  Iload=5mA</text>
<line x1="78.0" y1="68.0" x2="78.0" y2="440.0" stroke="#999" stroke-width="1"/>
<line x1="73.0" y1="440.0" x2="78.0" y2="440.0" stroke="#999" stroke-width="1"/>
<line x1="78.0" y1="440.0" x2="1100.0" y2="440.0" stroke="#e8e8e8" stroke-width="0.7" stroke-dasharray="4,3"/>
<text x="70.0" y="444.0" font-size="9" font-weight="normal" text-anchor="end" fill="#888" font-family="Arial,sans-serif">0.694</text>
<line x1="73.0" y1="365.6" x2="78.0" y2="365.6" stroke="#999" stroke-width="1"/>
<line x1="78.0" y1="365.6" x2="1100.0" y2="365.6" stroke="#e8e8e8" stroke-width="0.7" stroke-dasharray="4,3"/>
<text x="70.0" y="369.6" font-size="9" font-weight="normal" text-anchor="end" fill="#888" font-family="Arial,sans-serif">0.697</text>
<line x1="73.0" y1="291.2" x2="78.0" y2="291.2" stroke="#999" stroke-width="1"/>
<line x1="78.0" y1="291.2" x2="1100.0" y2="291.2" stroke="#e8e8e8" stroke-width="0.7" stroke-dasharray="4,3"/>
<text x="70.0" y="295.2" font-size="9" font-weight="normal" text-anchor="end" fill="#888" font-family="Arial,sans-serif">0.699</text>
<line x1="73.0" y1="216.8" x2="78.0" y2="216.8" stroke="#999" stroke-width="1"/>
<line x1="78.0" y1="216.8" x2="1100.0" y2="216.8" stroke="#e8e8e8" stroke-width="0.7" stroke-dasharray="4,3"/>
<text x="70.0" y="220.8" font-size="9" font-weight="normal" text-anchor="end" fill="#888" font-family="Arial,sans-serif">0.702</text>
<line x1="73.0" y1="142.4" x2="78.0" y2="142.4" stroke="#999" stroke-width="1"/>
<line x1="78.0" y1="142.4" x2="1100.0" y2="142.4" stroke="#e8e8e8" stroke-width="0.7" stroke-dasharray="4,3"/>
<text x="70.0" y="146.4" font-size="9" font-weight="normal" text-anchor="end" fill="#888" font-family="Arial,sans-serif">0.705</text>
<line x1="73.0" y1="68.0" x2="78.0" y2="68.0" stroke="#999" stroke-width="1"/>
<line x1="78.0" y1="68.0" x2="1100.0" y2="68.0" stroke="#e8e8e8" stroke-width="0.7" stroke-dasharray="4,3"/>
<text x="70.0" y="72.0" font-size="9" font-weight="normal" text-anchor="end" fill="#888" font-family="Arial,sans-serif">0.708</text>
<line x1="78.0" y1="440.0" x2="1100.0" y2="440.0" stroke="#999" stroke-width="1"/>
<line x1="78.0" y1="440.0" x2="78.0" y2="445.0" stroke="#999" stroke-width="1"/>
<line x1="78.0" y1="68.0" x2="78.0" y2="440.0" stroke="#e8e8e8" stroke-width="0.7" stroke-dasharray="4,3"/>
<text x="78.0" y="456.0" font-size="9" font-weight="normal" text-anchor="middle" fill="#888" font-family="Arial,sans-serif">2.45</text>
<line x1="224.0" y1="440.0" x2="224.0" y2="445.0" stroke="#999" stroke-width="1"/>
<line x1="224.0" y1="68.0" x2="224.0" y2="440.0" stroke="#e8e8e8" stroke-width="0.7" stroke-dasharray="4,3"/>
<text x="224.0" y="456.0" font-size="9" font-weight="normal" text-anchor="middle" fill="#888" font-family="Arial,sans-serif">2.62</text>
<line x1="370.0" y1="440.0" x2="370.0" y2="445.0" stroke="#999" stroke-width="1"/>
<line x1="370.0" y1="68.0" x2="370.0" y2="440.0" stroke="#e8e8e8" stroke-width="0.7" stroke-dasharray="4,3"/>
<text x="370.0" y="456.0" font-size="9" font-weight="normal" text-anchor="middle" fill="#888" font-family="Arial,sans-serif">2.79</text>
<line x1="516.0" y1="440.0" x2="516.0" y2="445.0" stroke="#999" stroke-width="1"/>
<line x1="516.0" y1="68.0" x2="516.0" y2="440.0" stroke="#e8e8e8" stroke-width="0.7" stroke-dasharray="4,3"/>
<text x="516.0" y="456.0" font-size="9" font-weight="normal" text-anchor="middle" fill="#888" font-family="Arial,sans-serif">2.96</text>
<line x1="662.0" y1="440.0" x2="662.0" y2="445.0" stroke="#999" stroke-width="1"/>
<line x1="662.0" y1="68.0" x2="662.0" y2="440.0" stroke="#e8e8e8" stroke-width="0.7" stroke-dasharray="4,3"/>
<text x="662.0" y="456.0" font-size="9" font-weight="normal" text-anchor="middle" fill="#888" font-family="Arial,sans-serif">3.13</text>
<line x1="808.0" y1="440.0" x2="808.0" y2="445.0" stroke="#999" stroke-width="1"/>
<line x1="808.0" y1="68.0" x2="808.0" y2="440.0" stroke="#e8e8e8" stroke-width="0.7" stroke-dasharray="4,3"/>
<text x="808.0" y="456.0" font-size="9" font-weight="normal" text-anchor="middle" fill="#888" font-family="Arial,sans-serif">3.3</text>
<line x1="954.0" y1="440.0" x2="954.0" y2="445.0" stroke="#999" stroke-width="1"/>
<line x1="954.0" y1="68.0" x2="954.0" y2="440.0" stroke="#e8e8e8" stroke-width="0.7" stroke-dasharray="4,3"/>
<text x="954.0" y="456.0" font-size="9" font-weight="normal" text-anchor="middle" fill="#888" font-family="Arial,sans-serif">3.46</text>
<line x1="1100.0" y1="440.0" x2="1100.0" y2="445.0" stroke="#999" stroke-width="1"/>
<line x1="1100.0" y1="68.0" x2="1100.0" y2="440.0" stroke="#e8e8e8" stroke-width="0.7" stroke-dasharray="4,3"/>
<text x="1100.0" y="456.0" font-size="9" font-weight="normal" text-anchor="middle" fill="#888" font-family="Arial,sans-serif">3.63</text>
<text x="16.0" y="254.0" font-size="11" font-weight="normal" text-anchor="middle" fill="#555" font-family="Arial,sans-serif" transform="rotate(-90,16,254.0)">Output Voltage  Vout [V]</text>
<text x="589.0" y="510.0" font-size="11" font-weight="normal" text-anchor="middle" fill="#555" font-family="Arial,sans-serif">Input Voltage  Vin [V]</text>
<g class="series pmic-series" data-mode="PWM" data-chip="21988" data-temp="0" data-reg="DC2DC_DIG">
<path d="M 124.5,96.3 L 150.3,98.9 L 176.1,96.3 L 201.9,96.3 L 227.8,93.7 L 253.6,93.7 L 279.3,93.7 L 305.0,96.3 L 330.9,96.3 L 356.9,98.9 L 382.6,96.3 L 408.4,93.7 L 434.1,93.7 L 459.9,106.8 L 485.6,101.5 L 511.7,98.9 L 537.4,93.7 L 563.2,98.9 L 589.0,104.2 L 614.8,104.2 L 640.7,106.8 L 666.5,96.3 L 692.4,96.3 L 718.2,96.3 L 744.0,96.3 L 769.6,98.9 L 795.5,101.5 L 821.4,101.5 L 847.2,104.2 L 872.8,98.9 L 898.6,93.7 L 924.5,101.5 L 950.2,98.9 L 976.1,101.5 L 1001.8,96.3 L 1027.7,96.3 L 1053.5,101.5" fill="none" stroke="#3498db" stroke-width="2.2" stroke-linejoin="round" opacity="0.9"/>
<circle cx="124.5" cy="96.3" r="4" fill="#3498db" stroke="white" opacity="1.0"/>
<circle cx="150.3" cy="98.9" r="4" fill="#3498db" stroke="white" opacity="1.0"/>
<circle cx="176.1" cy="96.3" r="4" fill="#3498db" stroke="white" opacity="1.0"/>
<circle cx="201.9" cy="96.3" r="4" fill="#3498db" stroke="white" opacity="1.0"/>
<circle cx="227.8" cy="93.7" r="4" fill="#3498db" stroke="white" opacity="1.0"/>
<circle cx="253.6" cy="93.7" r="4" fill="#3498db" stroke="white" opacity="1.0"/>
<circle cx="279.3" cy="93.7" r="4" fill="#3498db" stroke="white" opacity="1.0"/>
<circle cx="305.0" cy="96.3" r="4" fill="#3498db" stroke="white" opacity="1.0"/>
<circle cx="330.9" cy="96.3" r="4" fill="#3498db" stroke="white" opacity="1.0"/>
<circle cx="356.9" cy="98.9" r="4" fill="#3498db" stroke="white" opacity="1.0"/>
<circle cx="382.6" cy="96.3" r="4" fill="#3498db" stroke="white" opacity="1.0"/>
<circle cx="408.4" cy="93.7" r="4" fill="#3498db" stroke="white" opacity="1.0"/>
<circle cx="434.1" cy="93.7" r="4" fill="#3498db" stroke="white" opacity="1.0"/>
<circle cx="459.9" cy="106.8" r="4" fill="#3498db" stroke="white" opacity="1.0"/>
<circle cx="485.6" cy="101.5" r="4" fill="#3498db" stroke="white" opacity="1.0"/>
<circle cx="511.7" cy="98.9" r="4" fill="#3498db" stroke="white" opacity="1.0"/>
<circle cx="537.4" cy="93.7" r="4" fill="#3498db" stroke="white" opacity="1.0"/>
<circle cx="563.2" cy="98.9" r="4" fill="#3498db" stroke="white" opacity="1.0"/>
<circle cx="589.0" cy="104.2" r="4" fill="#3498db" stroke="white" opacity="1.0"/>
<circle cx="614.8" cy="104.2" r="4" fill="#3498db" stroke="white" opacity="1.0"/>
<circle cx="640.7" cy="106.8" r="4" fill="#3498db" stroke="white" opacity="1.0"/>
<circle cx="666.5" cy="96.3" r="4" fill="#3498db" stroke="white" opacity="1.0"/>
<circle cx="692.4" cy="96.3" r="4" fill="#3498db" stroke="white" opacity="1.0"/>
<circle cx="718.2" cy="96.3" r="4" fill="#3498db" stroke="white" opacity="1.0"/>
<circle cx="744.0" cy="96.3" r="4" fill="#3498db" stroke="white" opacity="1.0"/>
<circle cx="769.6" cy="98.9" r="4" fill="#3498db" stroke="white" opacity="1.0"/>
<circle cx="795.5" cy="101.5" r="4" fill="#3498db" stroke="white" opacity="1.0"/>
<circle cx="821.4" cy="101.5" r="4" fill="#3498db" stroke="white" opacity="1.0"/>
<circle cx="847.2" cy="104.2" r="4" fill="#3498db" stroke="white" opacity="1.0"/>
<circle cx="872.8" cy="98.9" r="4" fill="#3498db" stroke="white" opacity="1.0"/>
<circle cx="898.6" cy="93.7" r="4" fill="#3498db" stroke="white" opacity="1.0"/>
<circle cx="924.5" cy="101.5" r="4" fill="#3498db" stroke="white" opacity="1.0"/>
<circle cx="950.2" cy="98.9" r="4" fill="#3498db" stroke="white" opacity="1.0"/>
<circle cx="976.1" cy="101.5" r="4" fill="#3498db" stroke="white" opacity="1.0"/>
<circle cx="1001.8" cy="96.3" r="4" fill="#3498db" stroke="white" opacity="1.0"/>
<circle cx="1027.7" cy="96.3" r="4" fill="#3498db" stroke="white" opacity="1.0"/>
<circle cx="1053.5" cy="101.5" r="4" fill="#3498db" stroke="white" opacity="1.0"/>
</g>
<g class="series pmic-series" data-mode="PWM" data-chip="21988" data-temp="25" data-reg="DC2DC_DIG">
<path d="M 124.5,222.5 L 150.3,222.5 L 176.1,227.7 L 201.9,225.1 L 227.8,227.7 L 253.6,235.6 L 279.3,227.7 L 305.0,222.5 L 330.9,227.7 L 356.9,227.7 L 382.6,222.5 L 408.4,227.7 L 434.1,227.7 L 460.0,225.1 L 485.6,225.1 L 511.7,227.7 L 537.4,217.2 L 563.2,225.1 L 589.0,227.7 L 614.8,233.0 L 640.7,235.6 L 666.5,230.3 L 692.4,225.1 L 718.2,227.7 L 744.0,238.2 L 769.6,227.7 L 795.4,225.1 L 821.4,230.3 L 847.2,230.3 L 872.8,230.3 L 898.6,233.0 L 924.5,227.7 L 950.2,230.3 L 976.1,230.3 L 1001.8,222.5 L 1027.7,225.1 L 1053.5,219.8" fill="none" stroke="#e67e22" stroke-width="2.2" stroke-linejoin="round" opacity="0.9"/>
<circle cx="124.5" cy="222.5" r="4" fill="#e67e22" stroke="white" opacity="1.0"/>
<circle cx="150.3" cy="222.5" r="4" fill="#e67e22" stroke="white" opacity="1.0"/>
<circle cx="176.1" cy="227.7" r="4" fill="#e67e22" stroke="white" opacity="1.0"/>
<circle cx="201.9" cy="225.1" r="4" fill="#e67e22" stroke="white" opacity="1.0"/>
<circle cx="227.8" cy="227.7" r="4" fill="#e67e22" stroke="white" opacity="1.0"/>
<circle cx="253.6" cy="235.6" r="4" fill="#e67e22" stroke="white" opacity="1.0"/>
<circle cx="279.3" cy="227.7" r="4" fill="#e67e22" stroke="white" opacity="1.0"/>
<circle cx="305.0" cy="222.5" r="4" fill="#e67e22" stroke="white" opacity="1.0"/>
<circle cx="330.9" cy="227.7" r="4" fill="#e67e22" stroke="white" opacity="1.0"/>
<circle cx="356.9" cy="227.7" r="4" fill="#e67e22" stroke="white" opacity="1.0"/>
<circle cx="382.6" cy="222.5" r="4" fill="#e67e22" stroke="white" opacity="1.0"/>
<circle cx="408.4" cy="227.7" r="4" fill="#e67e22" stroke="white" opacity="1.0"/>
<circle cx="434.1" cy="227.7" r="4" fill="#e67e22" stroke="white" opacity="1.0"/>
<circle cx="460.0" cy="225.1" r="4" fill="#e67e22" stroke="white" opacity="1.0"/>
<circle cx="485.6" cy="225.1" r="4" fill="#e67e22" stroke="white" opacity="1.0"/>
<circle cx="511.7" cy="227.7" r="4" fill="#e67e22" stroke="white" opacity="1.0"/>
<circle cx="537.4" cy="217.2" r="4" fill="#e67e22" stroke="white" opacity="1.0"/>
<circle cx="563.2" cy="225.1" r="4" fill="#e67e22" stroke="white" opacity="1.0"/>
<circle cx="589.0" cy="227.7" r="4" fill="#e67e22" stroke="white" opacity="1.0"/>
<circle cx="614.8" cy="233.0" r="4" fill="#e67e22" stroke="white" opacity="1.0"/>
<circle cx="640.7" cy="235.6" r="4" fill="#e67e22" stroke="white" opacity="1.0"/>
<circle cx="666.5" cy="230.3" r="4" fill="#e67e22" stroke="white" opacity="1.0"/>
<circle cx="692.4" cy="225.1" r="4" fill="#e67e22" stroke="white" opacity="1.0"/>
<circle cx="718.2" cy="227.7" r="4" fill="#e67e22" stroke="white" opacity="1.0"/>
<circle cx="744.0" cy="238.2" r="4" fill="#e67e22" stroke="white" opacity="1.0"/>
<circle cx="769.6" cy="227.7" r="4" fill="#e67e22" stroke="white" opacity="1.0"/>
<circle cx="795.4" cy="225.1" r="4" fill="#e67e22" stroke="white" opacity="1.0"/>
<circle cx="821.4" cy="230.3" r="4" fill="#e67e22" stroke="white" opacity="1.0"/>
<circle cx="847.2" cy="230.3" r="4" fill="#e67e22" stroke="white" opacity="1.0"/>
<circle cx="872.8" cy="230.3" r="4" fill="#e67e22" stroke="white" opacity="1.0"/>
<circle cx="898.6" cy="233.0" r="4" fill="#e67e22" stroke="white" opacity="1.0"/>
<circle cx="924.5" cy="227.7" r="4" fill="#e67e22" stroke="white" opacity="1.0"/>
<circle cx="950.2" cy="230.3" r="4" fill="#e67e22" stroke="white" opacity="1.0"/>
<circle cx="976.1" cy="230.3" r="4" fill="#e67e22" stroke="white" opacity="1.0"/>
<circle cx="1001.8" cy="222.5" r="4" fill="#e67e22" stroke="white" opacity="1.0"/>
<circle cx="1027.7" cy="225.1" r="4" fill="#e67e22" stroke="white" opacity="1.0"/>
<circle cx="1053.5" cy="219.8" r="4" fill="#e67e22" stroke="white" opacity="1.0"/>
</g>
<g class="series pmic-series" data-mode="PWM" data-chip="21988" data-temp="80" data-reg="DC2DC_DIG">
<path d="M 124.5,159.4 L 150.3,159.4 L 176.1,154.1 L 201.9,156.7 L 227.8,159.4 L 253.6,159.4 L 279.3,162.0 L 305.1,159.4 L 330.9,162.0 L 356.9,167.3 L 382.6,164.6 L 408.4,156.7 L 434.1,156.7 L 460.0,162.0 L 485.6,162.0 L 511.7,164.6 L 537.4,167.3 L 563.2,167.3 L 589.0,169.9 L 614.8,159.4 L 640.6,162.0 L 666.5,159.4 L 692.4,156.7 L 718.1,156.7 L 744.0,156.7 L 769.5,162.0 L 795.4,159.4 L 821.3,162.0 L 847.1,167.3 L 872.8,156.7 L 898.6,162.0 L 924.4,159.4 L 950.2,159.4 L 976.1,159.4 L 1001.8,156.7 L 1027.7,159.4 L 1053.5,154.1" fill="none" stroke="#2ecc71" stroke-width="2.2" stroke-linejoin="round" opacity="0.9"/>
<circle cx="124.5" cy="159.4" r="4" fill="#2ecc71" stroke="white" opacity="1.0"/>
<circle cx="150.3" cy="159.4" r="4" fill="#2ecc71" stroke="white" opacity="1.0"/>
<circle cx="176.1" cy="154.1" r="4" fill="#2ecc71" stroke="white" opacity="1.0"/>
<circle cx="201.9" cy="156.7" r="4" fill="#2ecc71" stroke="white" opacity="1.0"/>
<circle cx="227.8" cy="159.4" r="4" fill="#2ecc71" stroke="white" opacity="1.0"/>
<circle cx="253.6" cy="159.4" r="4" fill="#2ecc71" stroke="white" opacity="1.0"/>
<circle cx="279.3" cy="162.0" r="4" fill="#2ecc71" stroke="white" opacity="1.0"/>
<circle cx="305.1" cy="159.4" r="4" fill="#2ecc71" stroke="white" opacity="1.0"/>
<circle cx="330.9" cy="162.0" r="4" fill="#2ecc71" stroke="white" opacity="1.0"/>
<circle cx="356.9" cy="167.3" r="4" fill="#2ecc71" stroke="white" opacity="1.0"/>
<circle cx="382.6" cy="164.6" r="4" fill="#2ecc71" stroke="white" opacity="1.0"/>
<circle cx="408.4" cy="156.7" r="4" fill="#2ecc71" stroke="white" opacity="1.0"/>
<circle cx="434.1" cy="156.7" r="4" fill="#2ecc71" stroke="white" opacity="1.0"/>
<circle cx="460.0" cy="162.0" r="4" fill="#2ecc71" stroke="white" opacity="1.0"/>
<circle cx="485.6" cy="162.0" r="4" fill="#2ecc71" stroke="white" opacity="1.0"/>
<circle cx="511.7" cy="164.6" r="4" fill="#2ecc71" stroke="white" opacity="1.0"/>
<circle cx="537.4" cy="167.3" r="4" fill="#2ecc71" stroke="white" opacity="1.0"/>
<circle cx="563.2" cy="167.3" r="4" fill="#2ecc71" stroke="white" opacity="1.0"/>
<circle cx="589.0" cy="169.9" r="4" fill="#2ecc71" stroke="white" opacity="1.0"/>
<circle cx="614.8" cy="159.4" r="4" fill="#2ecc71" stroke="white" opacity="1.0"/>
<circle cx="640.6" cy="162.0" r="4" fill="#2ecc71" stroke="white" opacity="1.0"/>
<circle cx="666.5" cy="159.4" r="4" fill="#2ecc71" stroke="white" opacity="1.0"/>
<circle cx="692.4" cy="156.7" r="4" fill="#2ecc71" stroke="white" opacity="1.0"/>
<circle cx="718.1" cy="156.7" r="4" fill="#2ecc71" stroke="white" opacity="1.0"/>
<circle cx="744.0" cy="156.7" r="4" fill="#2ecc71" stroke="white" opacity="1.0"/>
<circle cx="769.5" cy="162.0" r="4" fill="#2ecc71" stroke="white" opacity="1.0"/>
<circle cx="795.4" cy="159.4" r="4" fill="#2ecc71" stroke="white" opacity="1.0"/>
<circle cx="821.3" cy="162.0" r="4" fill="#2ecc71" stroke="white" opacity="1.0"/>
<circle cx="847.1" cy="167.3" r="4" fill="#2ecc71" stroke="white" opacity="1.0"/>
<circle cx="872.8" cy="156.7" r="4" fill="#2ecc71" stroke="white" opacity="1.0"/>
<circle cx="898.6" cy="162.0" r="4" fill="#2ecc71" stroke="white" opacity="1.0"/>
<circle cx="924.4" cy="159.4" r="4" fill="#2ecc71" stroke="white" opacity="1.0"/>
<circle cx="950.2" cy="159.4" r="4" fill="#2ecc71" stroke="white" opacity="1.0"/>
<circle cx="976.1" cy="159.4" r="4" fill="#2ecc71" stroke="white" opacity="1.0"/>
<circle cx="1001.8" cy="156.7" r="4" fill="#2ecc71" stroke="white" opacity="1.0"/>
<circle cx="1027.7" cy="159.4" r="4" fill="#2ecc71" stroke="white" opacity="1.0"/>
<circle cx="1053.5" cy="154.1" r="4" fill="#2ecc71" stroke="white" opacity="1.0"/>
</g>
<g class="series pmic-series" data-mode="PWM" data-chip="31927" data-temp="0" data-reg="DC2DC_DIG">
<path d="M 124.5,414.3 L 150.3,411.7 L 176.1,414.3 L 201.9,411.7 L 227.8,409.1 L 253.6,411.7 L 279.3,406.5 L 305.1,406.5 L 330.9,409.1 L 356.9,409.1 L 382.6,406.5 L 408.4,403.8 L 434.1,403.8 L 460.0,409.1 L 485.7,401.2 L 511.7,409.1 L 537.4,406.5 L 563.2,411.7 L 589.0,403.8 L 614.8,406.5 L 640.6,403.8 L 666.5,406.5 L 692.4,411.7 L 718.2,403.8 L 744.0,406.5 L 769.6,409.1 L 795.4,406.5 L 821.4,403.8 L 847.2,409.1 L 872.8,403.8 L 898.6,411.7 L 924.5,406.5 L 950.2,411.7 L 976.2,406.5 L 1001.9,414.3 L 1027.8,406.5 L 1053.5,406.5" fill="none" stroke="#9b59b6" stroke-width="2.2" stroke-linejoin="round" opacity="0.9"/>
<circle cx="124.5" cy="414.3" r="4" fill="#9b59b6" stroke="white" opacity="1.0"/>
<circle cx="150.3" cy="411.7" r="4" fill="#9b59b6" stroke="white" opacity="1.0"/>
<circle cx="176.1" cy="414.3" r="4" fill="#9b59b6" stroke="white" opacity="1.0"/>
<circle cx="201.9" cy="411.7" r="4" fill="#9b59b6" stroke="white" opacity="1.0"/>
<circle cx="227.8" cy="409.1" r="4" fill="#9b59b6" stroke="white" opacity="1.0"/>
<circle cx="253.6" cy="411.7" r="4" fill="#9b59b6" stroke="white" opacity="1.0"/>
<circle cx="279.3" cy="406.5" r="4" fill="#9b59b6" stroke="white" opacity="1.0"/>
<circle cx="305.1" cy="406.5" r="4" fill="#9b59b6" stroke="white" opacity="1.0"/>
<circle cx="330.9" cy="409.1" r="4" fill="#9b59b6" stroke="white" opacity="1.0"/>
<circle cx="356.9" cy="409.1" r="4" fill="#9b59b6" stroke="white" opacity="1.0"/>
<circle cx="382.6" cy="406.5" r="4" fill="#9b59b6" stroke="white" opacity="1.0"/>
<circle cx="408.4" cy="403.8" r="4" fill="#9b59b6" stroke="white" opacity="1.0"/>
<circle cx="434.1" cy="403.8" r="4" fill="#9b59b6" stroke="white" opacity="1.0"/>
<circle cx="460.0" cy="409.1" r="4" fill="#9b59b6" stroke="white" opacity="1.0"/>
<circle cx="485.7" cy="401.2" r="4" fill="#9b59b6" stroke="white" opacity="1.0"/>
<circle cx="511.7" cy="409.1" r="4" fill="#9b59b6" stroke="white" opacity="1.0"/>
<circle cx="537.4" cy="406.5" r="4" fill="#9b59b6" stroke="white" opacity="1.0"/>
<circle cx="563.2" cy="411.7" r="4" fill="#9b59b6" stroke="white" opacity="1.0"/>
<circle cx="589.0" cy="403.8" r="4" fill="#9b59b6" stroke="white" opacity="1.0"/>
<circle cx="614.8" cy="406.5" r="4" fill="#9b59b6" stroke="white" opacity="1.0"/>
<circle cx="640.6" cy="403.8" r="4" fill="#9b59b6" stroke="white" opacity="1.0"/>
<circle cx="666.5" cy="406.5" r="4" fill="#9b59b6" stroke="white" opacity="1.0"/>
<circle cx="692.4" cy="411.7" r="4" fill="#9b59b6" stroke="white" opacity="1.0"/>
<circle cx="718.2" cy="403.8" r="4" fill="#9b59b6" stroke="white" opacity="1.0"/>
<circle cx="744.0" cy="406.5" r="4" fill="#9b59b6" stroke="white" opacity="1.0"/>
<circle cx="769.6" cy="409.1" r="4" fill="#9b59b6" stroke="white" opacity="1.0"/>
<circle cx="795.4" cy="406.5" r="4" fill="#9b59b6" stroke="white" opacity="1.0"/>
<circle cx="821.4" cy="403.8" r="4" fill="#9b59b6" stroke="white" opacity="1.0"/>
<circle cx="847.2" cy="409.1" r="4" fill="#9b59b6" stroke="white" opacity="1.0"/>
<circle cx="872.8" cy="403.8" r="4" fill="#9b59b6" stroke="white" opacity="1.0"/>
<circle cx="898.6" cy="411.7" r="4" fill="#9b59b6" stroke="white" opacity="1.0"/>
<circle cx="924.5" cy="406.5" r="4" fill="#9b59b6" stroke="white" opacity="1.0"/>
<circle cx="950.2" cy="411.7" r="4" fill="#9b59b6" stroke="white" opacity="1.0"/>
<circle cx="976.2" cy="406.5" r="4" fill="#9b59b6" stroke="white" opacity="1.0"/>
<circle cx="1001.9" cy="414.3" r="4" fill="#9b59b6" stroke="white" opacity="1.0"/>
<circle cx="1027.8" cy="406.5" r="4" fill="#9b59b6" stroke="white" opacity="1.0"/>
<circle cx="1053.5" cy="406.5" r="4" fill="#9b59b6" stroke="white" opacity="1.0"/>
</g>
<g class="series pmic-series" data-mode="PWM" data-chip="31927" data-temp="25" data-reg="DC2DC_DIG">
<path d="M 124.5,380.2 L 150.3,382.8 L 176.1,380.2 L 201.9,390.7 L 227.8,382.8 L 253.6,377.5 L 279.3,377.5 L 305.1,380.2 L 330.9,377.5 L 356.9,374.9 L 382.6,374.9 L 408.4,382.8 L 434.1,382.8 L 460.0,382.8 L 485.6,385.4 L 511.7,382.8 L 537.4,382.8 L 563.2,382.8 L 589.0,377.5 L 614.8,382.8 L 640.6,374.9 L 666.5,377.5 L 692.4,382.8 L 718.2,377.5 L 744.0,369.7 L 769.6,377.5 L 795.4,377.5 L 821.4,377.5 L 847.2,374.9 L 872.8,372.3 L 898.7,380.2 L 924.5,377.5 L 950.2,377.5 L 976.2,374.9 L 1001.9,377.5 L 1027.8,372.3 L 1053.5,372.3" fill="none" stroke="#1abc9c" stroke-width="2.2" stroke-linejoin="round" opacity="0.9"/>
<circle cx="124.5" cy="380.2" r="4" fill="#1abc9c" stroke="white" opacity="1.0"/>
<circle cx="150.3" cy="382.8" r="4" fill="#1abc9c" stroke="white" opacity="1.0"/>
<circle cx="176.1" cy="380.2" r="4" fill="#1abc9c" stroke="white" opacity="1.0"/>
<circle cx="201.9" cy="390.7" r="4" fill="#1abc9c" stroke="white" opacity="1.0"/>
<circle cx="227.8" cy="382.8" r="4" fill="#1abc9c" stroke="white" opacity="1.0"/>
<circle cx="253.6" cy="377.5" r="4" fill="#1abc9c" stroke="white" opacity="1.0"/>
<circle cx="279.3" cy="377.5" r="4" fill="#1abc9c" stroke="white" opacity="1.0"/>
<circle cx="305.1" cy="380.2" r="4" fill="#1abc9c" stroke="white" opacity="1.0"/>
<circle cx="330.9" cy="377.5" r="4" fill="#1abc9c" stroke="white" opacity="1.0"/>
<circle cx="356.9" cy="374.9" r="4" fill="#1abc9c" stroke="white" opacity="1.0"/>
<circle cx="382.6" cy="374.9" r="4" fill="#1abc9c" stroke="white" opacity="1.0"/>
<circle cx="408.4" cy="382.8" r="4" fill="#1abc9c" stroke="white" opacity="1.0"/>
<circle cx="434.1" cy="382.8" r="4" fill="#1abc9c" stroke="white" opacity="1.0"/>
<circle cx="460.0" cy="382.8" r="4" fill="#1abc9c" stroke="white" opacity="1.0"/>
<circle cx="485.6" cy="385.4" r="4" fill="#1abc9c" stroke="white" opacity="1.0"/>
<circle cx="511.7" cy="382.8" r="4" fill="#1abc9c" stroke="white" opacity="1.0"/>
<circle cx="537.4" cy="382.8" r="4" fill="#1abc9c" stroke="white" opacity="1.0"/>
<circle cx="563.2" cy="382.8" r="4" fill="#1abc9c" stroke="white" opacity="1.0"/>
<circle cx="589.0" cy="377.5" r="4" fill="#1abc9c" stroke="white" opacity="1.0"/>
<circle cx="614.8" cy="382.8" r="4" fill="#1abc9c" stroke="white" opacity="1.0"/>
<circle cx="640.6" cy="374.9" r="4" fill="#1abc9c" stroke="white" opacity="1.0"/>
<circle cx="666.5" cy="377.5" r="4" fill="#1abc9c" stroke="white" opacity="1.0"/>
<circle cx="692.4" cy="382.8" r="4" fill="#1abc9c" stroke="white" opacity="1.0"/>
<circle cx="718.2" cy="377.5" r="4" fill="#1abc9c" stroke="white" opacity="1.0"/>
<circle cx="744.0" cy="369.7" r="4" fill="#1abc9c" stroke="white" opacity="1.0"/>
<circle cx="769.6" cy="377.5" r="4" fill="#1abc9c" stroke="white" opacity="1.0"/>
<circle cx="795.4" cy="377.5" r="4" fill="#1abc9c" stroke="white" opacity="1.0"/>
<circle cx="821.4" cy="377.5" r="4" fill="#1abc9c" stroke="white" opacity="1.0"/>
<circle cx="847.2" cy="374.9" r="4" fill="#1abc9c" stroke="white" opacity="1.0"/>
<circle cx="872.8" cy="372.3" r="4" fill="#1abc9c" stroke="white" opacity="1.0"/>
<circle cx="898.7" cy="380.2" r="4" fill="#1abc9c" stroke="white" opacity="1.0"/>
<circle cx="924.5" cy="377.5" r="4" fill="#1abc9c" stroke="white" opacity="1.0"/>
<circle cx="950.2" cy="377.5" r="4" fill="#1abc9c" stroke="white" opacity="1.0"/>
<circle cx="976.2" cy="374.9" r="4" fill="#1abc9c" stroke="white" opacity="1.0"/>
<circle cx="1001.9" cy="377.5" r="4" fill="#1abc9c" stroke="white" opacity="1.0"/>
<circle cx="1027.8" cy="372.3" r="4" fill="#1abc9c" stroke="white" opacity="1.0"/>
<circle cx="1053.5" cy="372.3" r="4" fill="#1abc9c" stroke="white" opacity="1.0"/>
</g>
<g class="series pmic-series" data-mode="PWM" data-chip="31927" data-temp="80" data-reg="DC2DC_DIG">
<path d="M 124.5,327.6 L 150.3,327.6 L 176.1,332.9 L 202.0,327.6 L 227.8,335.5 L 253.6,335.5 L 279.3,330.2 L 305.1,330.2 L 330.9,332.9 L 356.9,327.6 L 382.6,330.2 L 408.4,335.5 L 434.1,338.1 L 459.9,327.6 L 485.6,330.2 L 511.7,327.6 L 537.4,335.5 L 563.2,325.0 L 589.0,335.5 L 614.8,332.9 L 640.6,325.0 L 666.5,335.5 L 692.4,322.3 L 718.2,325.0 L 744.0,335.5 L 769.6,327.6 L 795.4,335.5 L 821.4,335.5 L 847.2,338.1 L 872.9,330.2 L 898.7,332.9 L 924.5,335.5 L 950.2,330.2 L 976.2,340.7 L 1001.9,332.9 L 1027.8,332.9 L 1053.5,330.2" fill="none" stroke="#e74c3c" stroke-width="2.2" stroke-linejoin="round" opacity="0.9"/>
<circle cx="124.5" cy="327.6" r="4" fill="#e74c3c" stroke="white" opacity="1.0"/>
<circle cx="150.3" cy="327.6" r="4" fill="#e74c3c" stroke="white" opacity="1.0"/>
<circle cx="176.1" cy="332.9" r="4" fill="#e74c3c" stroke="white" opacity="1.0"/>
<circle cx="202.0" cy="327.6" r="4" fill="#e74c3c" stroke="white" opacity="1.0"/>
<circle cx="227.8" cy="335.5" r="4" fill="#e74c3c" stroke="white" opacity="1.0"/>
<circle cx="253.6" cy="335.5" r="4" fill="#e74c3c" stroke="white" opacity="1.0"/>
<circle cx="279.3" cy="330.2" r="4" fill="#e74c3c" stroke="white" opacity="1.0"/>
<circle cx="305.1" cy="330.2" r="4" fill="#e74c3c" stroke="white" opacity="1.0"/>
<circle cx="330.9" cy="332.9" r="4" fill="#e74c3c" stroke="white" opacity="1.0"/>
<circle cx="356.9" cy="327.6" r="4" fill="#e74c3c" stroke="white" opacity="1.0"/>
<circle cx="382.6" cy="330.2" r="4" fill="#e74c3c" stroke="white" opacity="1.0"/>
<circle cx="408.4" cy="335.5" r="4" fill="#e74c3c" stroke="white" opacity="1.0"/>
<circle cx="434.1" cy="338.1" r="4" fill="#e74c3c" stroke="white" opacity="1.0"/>
<circle cx="459.9" cy="327.6" r="4" fill="#e74c3c" stroke="white" opacity="1.0"/>
<circle cx="485.6" cy="330.2" r="4" fill="#e74c3c" stroke="white" opacity="1.0"/>
<circle cx="511.7" cy="327.6" r="4" fill="#e74c3c" stroke="white" opacity="1.0"/>
<circle cx="537.4" cy="335.5" r="4" fill="#e74c3c" stroke="white" opacity="1.0"/>
<circle cx="563.2" cy="325.0" r="4" fill="#e74c3c" stroke="white" opacity="1.0"/>
<circle cx="589.0" cy="335.5" r="4" fill="#e74c3c" stroke="white" opacity="1.0"/>
<circle cx="614.8" cy="332.9" r="4" fill="#e74c3c" stroke="white" opacity="1.0"/>
<circle cx="640.6" cy="325.0" r="4" fill="#e74c3c" stroke="white" opacity="1.0"/>
<circle cx="666.5" cy="335.5" r="4" fill="#e74c3c" stroke="white" opacity="1.0"/>
<circle cx="692.4" cy="322.3" r="4" fill="#e74c3c" stroke="white" opacity="1.0"/>
<circle cx="718.2" cy="325.0" r="4" fill="#e74c3c" stroke="white" opacity="1.0"/>
<circle cx="744.0" cy="335.5" r="4" fill="#e74c3c" stroke="white" opacity="1.0"/>
<circle cx="769.6" cy="327.6" r="4" fill="#e74c3c" stroke="white" opacity="1.0"/>
<circle cx="795.4" cy="335.5" r="4" fill="#e74c3c" stroke="white" opacity="1.0"/>
<circle cx="821.4" cy="335.5" r="4" fill="#e74c3c" stroke="white" opacity="1.0"/>
<circle cx="847.2" cy="338.1" r="4" fill="#e74c3c" stroke="white" opacity="1.0"/>
<circle cx="872.9" cy="330.2" r="4" fill="#e74c3c" stroke="white" opacity="1.0"/>
<circle cx="898.7" cy="332.9" r="4" fill="#e74c3c" stroke="white" opacity="1.0"/>
<circle cx="924.5" cy="335.5" r="4" fill="#e74c3c" stroke="white" opacity="1.0"/>
<circle cx="950.2" cy="330.2" r="4" fill="#e74c3c" stroke="white" opacity="1.0"/>
<circle cx="976.2" cy="340.7" r="4" fill="#e74c3c" stroke="white" opacity="1.0"/>
<circle cx="1001.9" cy="332.9" r="4" fill="#e74c3c" stroke="white" opacity="1.0"/>
<circle cx="1027.8" cy="332.9" r="4" fill="#e74c3c" stroke="white" opacity="1.0"/>
<circle cx="1053.5" cy="330.2" r="4" fill="#e74c3c" stroke="white" opacity="1.0"/>
</g>
<g class="legend-item" data-mode="PWM" data-chip="21988" data-temp="0" data-reg="DC2DC_DIG">
<rect x="1116.0" y="69.0" width="22.0" height="4.0" fill="#3498db" stroke="none" stroke-width="1" opacity="1.0" rx="2"/>
<circle cx="1127.0" cy="71.0" r="4" fill="#3498db" stroke="none" opacity="1.0"/>
<text x="1144.0" y="76.0" font-size="9" font-weight="normal" text-anchor="start" fill="#333" font-family="Arial,sans-serif">Chip 21988 | T=0°C</text>
</g>
<g class="legend-item" data-mode="PWM" data-chip="21988" data-temp="25" data-reg="DC2DC_DIG">
<rect x="1116.0" y="86.0" width="22.0" height="4.0" fill="#e67e22" stroke="none" stroke-width="1" opacity="1.0" rx="2"/>
<circle cx="1127.0" cy="88.0" r="4" fill="#e67e22" stroke="none" opacity="1.0"/>
<text x="1144.0" y="93.0" font-size="9" font-weight="normal" text-anchor="start" fill="#333" font-family="Arial,sans-serif">Chip 21988 | T=25°C</text>
</g>
<g class="legend-item" data-mode="PWM" data-chip="21988" data-temp="80" data-reg="DC2DC_DIG">
<rect x="1116.0" y="103.0" width="22.0" height="4.0" fill="#2ecc71" stroke="none" stroke-width="1" opacity="1.0" rx="2"/>
<circle cx="1127.0" cy="105.0" r="4" fill="#2ecc71" stroke="none" opacity="1.0"/>
<text x="1144.0" y="110.0" font-size="9" font-weight="normal" text-anchor="start" fill="#333" font-family="Arial,sans-serif">Chip 21988 | T=80°C</text>
</g>
<g class="legend-item" data-mode="PWM" data-chip="31927" data-temp="0" data-reg="DC2DC_DIG">
<rect x="1116.0" y="120.0" width="22.0" height="4.0" fill="#9b59b6" stroke="none" stroke-width="1" opacity="1.0" rx="2"/>
<circle cx="1127.0" cy="122.0" r="4" fill="#9b59b6" stroke="none" opacity="1.0"/>
<text x="1144.0" y="127.0" font-size="9" font-weight="normal" text-anchor="start" fill="#333" font-family="Arial,sans-serif">Chip 31927 | T=0°C</text>
</g>
<g class="legend-item" data-mode="PWM" data-chip="31927" data-temp="25" data-reg="DC2DC_DIG">
<rect x="1116.0" y="137.0" width="22.0" height="4.0" fill="#1abc9c" stroke="none" stroke-width="1" opacity="1.0" rx="2"/>
<circle cx="1127.0" cy="139.0" r="4" fill="#1abc9c" stroke="none" opacity="1.0"/>
<text x="1144.0" y="144.0" font-size="9" font-weight="normal" text-anchor="start" fill="#333" font-family="Arial,sans-serif">Chip 31927 | T=25°C</text>
</g>
<g class="legend-item" data-mode="PWM" data-chip="31927" data-temp="80" data-reg="DC2DC_DIG">
<rect x="1116.0" y="154.0" width="22.0" height="4.0" fill="#e74c3c" stroke="none" stroke-width="1" opacity="1.0" rx="2"/>
<circle cx="1127.0" cy="156.0" r="4" fill="#e74c3c" stroke="none" opacity="1.0"/>
<text x="1144.0" y="161.0" font-size="9" font-weight="normal" text-anchor="start" fill="#333" font-family="Arial,sans-serif">Chip 31927 | T=80°C</text>
</g>
<rect class="cursor-overlay" x="78.0" y="68.0" width="1022.0" height="372.0" fill="transparent" style="cursor:default" data-xmin="2.446395" data-xmax="3.634505" data-ymin="0.693724" data-ymax="0.707876" data-pl="78.0" data-pr="1100.0" data-pt="68.0" data-pb="440.0"/>
<g class="cursor-layer" style="pointer-events:none;display:none"><line class="cur-v" x1="0" y1="68.0" x2="0" y2="440.0" stroke="#e74c3c" stroke-width="1.2" stroke-dasharray="5,3"/><line class="cur-h" x1="78.0" y1="0" x2="1100.0" y2="0" stroke="#e74c3c" stroke-width="1.2" stroke-dasharray="5,3"/><rect class="cur-tip-bg" x="0" y="0" width="148" height="44" rx="5" fill="#1a252f" stroke="#34495e" stroke-width="1" opacity="0.92"/><text class="cur-tip-x" x="0" y="0" font-size="11" font-family="Arial,sans-serif" fill="#ecf0f1"/><text class="cur-tip-y" x="0" y="0" font-size="11" font-family="Arial,sans-serif" fill="#2ecc71"/></g>
</svg>