<svg xmlns="http://www.w3.org/2000/svg" width="1400" height="520" viewBox="0 0 1400 520">
<rect width="1400" height="520" fill="#ffffff"/>
<text x="700.0" y="28.0" font-size="16" font-weight="bold" text-anchor="middle" fill="#2c3e50" font-family="Arial,sans-serif">Static Line Regulation — Digital DC2DC  Vout=0.7V  [PFM]  Iload=200mA</text>
<line x1="78.0" y1="68.0" x2="78.0" y2="440.0" stroke="#999" stroke-width="1"/>
<line x1="73.0" y1="440.0" x2="78.0" y2="440.0" stroke="#999" stroke-width="1"/>
<line x1="78.0" y1="440.0" x2="1100.0" y2="440.0" stroke="#e8e8e8" stroke-width="0.7" stroke-dasharray="4,3"/>
<text x="70.0" y="444.0" font-size="9" font-weight="normal" text-anchor="end" fill="#888" font-family="Arial,sans-serif">0.705</text>
<line x1="73.0" y1="365.6" x2="78.0" y2="365.6" stroke="#999" stroke-width="1"/>
<line x1="78.0" y1="365.6" x2="1100.0" y2="365.6" stroke="#e8e8e8" stroke-width="0.7" stroke-dasharray="4,3"/>
<text x="70.0" y="369.6" font-size="9" font-weight="normal" text-anchor="end" fill="#888" font-family="Arial,sans-serif">0.708</text>
<line x1="73.0" y1="291.2" x2="78.0" y2="291.2" stroke="#999" stroke-width="1"/>
<line x1="78.0" y1="291.2" x2="1100.0" y2="291.2" stroke="#e8e8e8" stroke-width="0.7" stroke-dasharray="4,3"/>
<text x="70.0" y="295.2" font-size="9" font-weight="normal" text-anchor="end" fill="#888" font-family="Arial,sans-serif">0.711</text>
<line x1="73.0" y1="216.8" x2="78.0" y2="216.8" stroke="#999" stroke-width="1"/>
<line x1="78.0" y1="216.8" x2="1100.0" y2="216.8" stroke="#e8e8e8" stroke-width="0.7" stroke-dasharray="4,3"/>
<text x="70.0" y="220.8" font-size="9" font-weight="normal" text-anchor="end" fill="#888" font-family="Arial,sans-serif">0.715</text>
<line x1="73.0" y1="142.4" x2="78.0" y2="142.4" stroke="#999" stroke-width="1"/>
<line x1="78.0" y1="142.4" x2="1100.0" y2="142.4" stroke="#e8e8e8" stroke-width="0.7" stroke-dasharray="4,3"/>
<text x="70.0" y="146.4" font-size="9" font-weight="normal" text-anchor="end" fill="#888" font-family="Arial,sans-serif">0.718</text>
<line x1="73.0" y1="68.0" x2="78.0" y2="68.0" stroke="#999" stroke-width="1"/>
<line x1="78.0" y1="68.0" x2="1100.0" y2="68.0" stroke="#e8e8e8" stroke-width="0.7" stroke-dasharray="4,3"/>
<text x="70.0" y="72.0" font-size="9" font-weight="normal" text-anchor="end" fill="#888" font-family="Arial,sans-serif">0.721</text>
<line x1="78.0" y1="440.0" x2="1100.0" y2="440.0" stroke="#999" stroke-width="1"/>
<line x1="78.0" y1="440.0" x2="78.0" y2="445.0" stroke="#999" stroke-width="1"/>
<line x1="78.0" y1="68.0" x2="78.0" y2="440.0" stroke="#e8e8e8" stroke-width="0.7" stroke-dasharray="4,3"/>
<text x="78.0" y="456.0" font-size="9" font-weight="normal" text-anchor="middle" fill="#888" font-family="Arial,sans-serif">2.45</text>
<line x1="224.0" y1="440.0" x2="224.0" y2="445.0" stroke="#999" stroke-width="1"/>
<line x1="224.0" y1="68.0" x2="224.0" y2="440.0" stroke="#e8e8e8" stroke-width="0.7" stroke-dasharray="4,3"/>
<text x="224.0" y="456.0" font-size="9" font-weight="normal" text-anchor="middle" fill="#888" font-family="Arial,sans-serif">2.62</text>
<line x1="370.0" y1="440.0" x2="370.0" y2="445.0" stroke="#999" stroke-width="1"/>
<line x1="370.0" y1="68.0" x2="370.0" y2="440.0" stroke="#e8e8e8" stroke-width="0.7" stroke-dasharray="4,3"/>
<text x="370.0" y="456.0" font-size="9" font-weight="normal" text-anchor="middle" fill="#888" font-family="Arial,sans-serif">2.79</text>
<line x1="516.0" y1="440.0" x2="516.0" y2="445.0" stroke="#999" stroke-width="1"/>
<line x1="516.0" y1="68.0" x2="516.0" y2="440.0" stroke="#e8e8e8" stroke-width="0.7" stroke-dasharray="4,3"/>
<text x="516.0" y="456.0" font-size="9" font-weight="normal" text-anchor="middle" fill="#888" font-family="Arial,sans-serif">2.96</text>
<line x1="662.0" y1="440.0" x2="662.0" y2="445.0" stroke="#999" stroke-width="1"/>
<line x1="662.0" y1="68.0" x2="662.0" y2="440.0" stroke="#e8e8e8" stroke-width="0.7" stroke-dasharray="4,3"/>
<text x="662.0" y="456.0" font-size="9" font-weight="normal" text-anchor="middle" fill="#888" font-family="Arial,sans-serif">3.13</text>
<line x1="808.0" y1="440.0" x2="808.0" y2="445.0" stroke="#999" stroke-width="1"/>
<line x1="808.0" y1="68.0" x2="808.0" y2="440.0" stroke="#e8e8e8" stroke-width="0.7" stroke-dasharray="4,3"/>
<text x="808.0" y="456.0" font-size="9" font-weight="normal" text-anchor="middle" fill="#888" font-family="Arial,sans-serif">3.3</text>
<line x1="954.0" y1="440.0" x2="954.0" y2="445.0" stroke="#999" stroke-width="1"/>
<line x1="954.0" y1="68.0" x2="954.0" y2="440.0" stroke="#e8e8e8" stroke-width="0.7" stroke-dasharray="4,3"/>
<text x="954.0" y="456.0" font-size="9" font-weight="normal" text-anchor="middle" fill="#888" font-family="Arial,sans-serif">3.46</text>
<line x1="1100.0" y1="440.0" x2="1100.0" y2="445.0" stroke="#999" stroke-width="1"/>
<line x1="1100.0" y1="68.0" x2="1100.0" y2="440.0" stroke="#e8e8e8" stroke-width="0.7" stroke-dasharray="4,3"/>
<text x="1100.0" y="456.0" font-size="9" font-weight="normal" text-anchor="middle" fill="#888" font-family="Arial,sans-serif">3.63</text>
<text x="16.0" y="254.0" font-size="11" font-weight="normal" text-anchor="middle" fill="#555" font-family="Arial,sans-serif" transform="rotate(-90,16,254.0)">Output Voltage  Vout [V]</text>
<text x="589.0" y="510.0" font-size="11" font-weight="normal" text-anchor="middle" fill="#555" font-family="Arial,sans-serif">Input Voltage  Vin [V]</text>
<g class="series pmic-series" data-label="Chip 21988 | T=0°C" data-color="#3498db" data-mode="PFM" data-chip="21988" data-temp="0" data-reg="DC2DC_DIG">
<path d="M 124.5,120.9 L 150.3,125.5 L 176.0,123.2 L 201.9,125.5 L 227.7,120.9 L 253.5,116.4 L 279.3,118.7 L 305.0,132.3 L 330.9,125.5 L 356.8,125.5 L 382.6,109.6 L 408.4,107.3 L 434.1,123.2 L 459.9,120.9 L 485.6,118.7 L 511.7,107.3 L 537.4,102.8 L 563.2,107.3 L 589.0,130.0 L 614.8,125.5 L 640.6,125.5 L 666.5,116.4 L 692.4,114.1 L 718.2,109.6 L 743.9,100.5 L 769.6,102.8 L 795.4,127.8 L 821.4,125.5 L 847.1,123.2 L 872.8,118.7 L 898.6,107.3 L 924.5,102.8 L 950.2,100.5 L 976.1,95.9 L 1001.9,95.9 L 1027.7,93.7 L 1053.5,105.0" fill="none" stroke="#3498db" stroke-width="2.2" stroke-linejoin="round" opacity="0.9"/>
<circle cx="124.5" cy="120.9" r="4" fill="#3498db" stroke="white" opacity="1.0"/>
<circle cx="150.3" cy="125.5" r="4" fill="#3498db" stroke="white" opacity="1.0"/>
<circle cx="176.0" cy="123.2" r="4" fill="#3498db" stroke="white" opacity="1.0"/>
<circle cx="201.9" cy="125.5" r="4" fill="#3498db" stroke="white" opacity="1.0"/>
<circle cx="227.7" cy="120.9" r="4" fill="#3498db" stroke="white" opacity="1.0"/>
<circle cx="253.5" cy="116.4" r="4" fill="#3498db" stroke="white" opacity="1.0"/>
<circle cx="279.3" cy="118.7" r="4" fill="#3498db" stroke="white" opacity="1.0"/>
<circle cx="305.0" cy="132.3" r="4" fill="#3498db" stroke="white" opacity="1.0"/>
<circle cx="330.9" cy="125.5" r="4" fill="#3498db" stroke="white" opacity="1.0"/>
<circle cx="356.8" cy="125.5" r="4" fill="#3498db" stroke="white" opacity="1.0"/>
<circle cx="382.6" cy="109.6" r="4" fill="#3498db" stroke="white" opacity="1.0"/>
<circle cx="408.4" cy="107.3" r="4" fill="#3498db" stroke="white" opacity="1.0"/>
<circle cx="434.1" cy="123.2" r="4" fill="#3498db" stroke="white" opacity="1.0"/>
<circle cx="459.9" cy="120.9" r="4" fill="#3498db" stroke="white" opacity="1.0"/>
<circle cx="485.6" cy="118.7" r="4" fill="#3498db" stroke="white" opacity="1.0"/>
<circle cx="511.7" cy="107.3" r="4" fill="#3498db" stroke="white" opacity="1.0"/>
<circle cx="537.4" cy="102.8" r="4" fill="#3498db" stroke="white" opacity="1.0"/>
<circle cx="563.2" cy="107.3" r="4" fill="#3498db" stroke="white" opacity="1.0"/>
<circle cx="589.0" cy="130.0" r="4" fill="#3498db" stroke="white" opacity="1.0"/>
<circle cx="614.8" cy="125.5" r="4" fill="#3498db" stroke="white" opacity="1.0"/>
<circle cx="640.6" cy="125.5" r="4" fill="#3498db" stroke="white" opacity="1.0"/>
<circle cx="666.5" cy="116.4" r="4" fill="#3498db" stroke="white" opacity="1.0"/>
<circle cx="692.4" cy="114.1" r="4" fill="#3498db" stroke="white" opacity="1.0"/>
<circle cx="718.2" cy="109.6" r="4" fill="#3498db" stroke="white" opacity="1.0"/>
<circle cx="743.9" cy="100.5" r="4" fill="#3498db" stroke="white" opacity="1.0"/>
<circle cx="769.6" cy="102.8" r="4" fill="#3498db" stroke="white" opacity="1.0"/>
<circle cx="795.4" cy="127.8" r="4" fill="#3498db" stroke="white" opacity="1.0"/>
<circle cx="821.4" cy="125.5" r="4" fill="#3498db" stroke="white" opacity="1.0"/>
<circle cx="847.1" cy="123.2" r="4" fill="#3498db" stroke="white" opacity="1.0"/>
<circle cx="872.8" cy="118.7" r="4" fill="#3498db" stroke="white" opacity="1.0"/>
<circle cx="898.6" cy="107.3" r="4" fill="#3498db" stroke="white" opacity="1.0"/>
<circle cx="924.5" cy="102.8" r="4" fill="#3498db" stroke="white" opacity="1.0"/>
<circle cx="950.2" cy="100.5" r="4" fill="#3498db" stroke="white" opacity="1.0"/>
<circle cx="976.1" cy="95.9" r="4" fill="#3498db" stroke="white" opacity="1.0"/>
<circle cx="1001.9" cy="95.9" r="4" fill="#3498db" stroke="white" opacity="1.0"/>
<circle cx="1027.7" cy="93.7" r="4" fill="#3498db" stroke="white" opacity="1.0"/>
<circle cx="1053.5" cy="105.0" r="4" fill="#3498db" stroke="white" opacity="1.0"/>
</g>
<g class="series pmic-series" data-label="Chip 21988 | T=25°C" data-color="#e67e22" data-mode="PFM" data-chip="21988" data-temp="25" data-reg="DC2DC_DIG">
<path d="M 124.5,216.5 L 150.3,221.0 L 176.0,218.7 L 201.9,202.8 L 227.7,214.2 L 253.5,218.7 L 279.3,209.6 L 305.0,205.1 L 330.9,209.6 L 356.8,214.2 L 382.6,214.2 L 408.4,209.6 L 434.1,205.1 L 459.9,205.1 L 485.7,214.2 L 511.7,211.9 L 537.4,207.4 L 563.2,205.1 L 589.0,193.7 L 614.8,193.7 L 640.6,216.5 L 666.5,214.2 L 692.4,211.9 L 718.2,205.1 L 744.0,198.3 L 769.6,198.3 L 795.4,191.5 L 821.4,186.9 L 847.2,207.4 L 872.8,221.0 L 898.6,214.2 L 924.5,207.4 L 950.2,207.4 L 976.1,196.0 L 1001.9,193.7 L 1027.7,186.9 L 1053.5,184.6" fill="none" stroke="#e67e22" stroke-width="2.2" stroke-linejoin="round" opacity="0.9"/>
<circle cx="124.5" cy="216.5" r="4" fill="#e67e22" stroke="white" opacity="1.0"/>
<circle cx="150.3" cy="221.0" r="4" fill="#e67e22" stroke="white" opacity="1.0"/>
<circle cx="176.0" cy="218.7" r="4" fill="#e67e22" stroke="white" opacity="1.0"/>
<circle cx="201.9" cy="202.8" r="4" fill="#e67e22" stroke="white" opacity="1.0"/>
<circle cx="227.7" cy="214.2" r="4" fill="#e67e22" stroke="white" opacity="1.0"/>
<circle cx="253.5" cy="218.7" r="4" fill="#e67e22" stroke="white" opacity="1.0"/>
<circle cx="279.3" cy="209.6" r="4" fill="#e67e22" stroke="white" opacity="1.0"/>
<circle cx="305.0" cy="205.1" r="4" fill="#e67e22" stroke="white" opacity="1.0"/>
<circle cx="330.9" cy="209.6" r="4" fill="#e67e22" stroke="white" opacity="1.0"/>
<circle cx="356.8" cy="214.2" r="4" fill="#e67e22" stroke="white" opacity="1.0"/>
<circle cx="382.6" cy="214.2" r="4" fill="#e67e22" stroke="white" opacity="1.0"/>
<circle cx="408.4" cy="209.6" r="4" fill="#e67e22" stroke="white" opacity="1.0"/>
<circle cx="434.1" cy="205.1" r="4" fill="#e67e22" stroke="white" opacity="1.0"/>
<circle cx="459.9" cy="205.1" r="4" fill="#e67e22" stroke="white" opacity="1.0"/>
<circle cx="485.7" cy="214.2" r="4" fill="#e67e22" stroke="white" opacity="1.0"/>
<circle cx="511.7" cy="211.9" r="4" fill="#e67e22" stroke="white" opacity="1.0"/>
<circle cx="537.4" cy="207.4" r="4" fill="#e67e22" stroke="white" opacity="1.0"/>
<circle cx="563.2" cy="205.1" r="4" fill="#e67e22" stroke="white" opacity="1.0"/>
<circle cx="589.0" cy="193.7" r="4" fill="#e67e22" stroke="white" opacity="1.0"/>
<circle cx="614.8" cy="193.7" r="4" fill="#e67e22" stroke="white" opacity="1.0"/>
<circle cx="640.6" cy="216.5" r="4" fill="#e67e22" stroke="white" opacity="1.0"/>
<circle cx="666.5" cy="214.2" r="4" fill="#e67e22" stroke="white" opacity="1.0"/>
<circle cx="692.4" cy="211.9" r="4" fill="#e67e22" stroke="white" opacity="1.0"/>
<circle cx="718.2" cy="205.1" r="4" fill="#e67e22" stroke="white" opacity="1.0"/>
<circle cx="744.0" cy="198.3" r="4" fill="#e67e22" stroke="white" opacity="1.0"/>
<circle cx="769.6" cy="198.3" r="4" fill="#e67e22" stroke="white" opacity="1.0"/>
<circle cx="795.4" cy="191.5" r="4" fill="#e67e22" stroke="white" opacity="1.0"/>
<circle cx="821.4" cy="186.9" r="4" fill="#e67e22" stroke="white" opacity="1.0"/>
<circle cx="847.2" cy="207.4" r="4" fill="#e67e22" stroke="white" opacity="1.0"/>
<circle cx="872.8" cy="221.0" r="4" fill="#e67e22" stroke="white" opacity="1.0"/>
<circle cx="898.6" cy="214.2" r="4" fill="#e67e22" stroke="white" opacity="1.0"/>
<circle cx="924.5" cy="207.4" r="4" fill="#e67e22" stroke="white" opacity="1.0"/>
<circle cx="950.2" cy="207.4" r="4" fill="#e67e22" stroke="white" opacity="1.0"/>
<circle cx="976.1" cy="196.0" r="4" fill="#e67e22" stroke="white" opacity="1.0"/>
<circle cx="1001.9" cy="193.7" r="4" fill="#e67e22" stroke="white" opacity="1.0"/>
<circle cx="1027.7" cy="186.9" r="4" fill="#e67e22" stroke="white" opacity="1.0"/>
<circle cx="1053.5" cy="184.6" r="4" fill="#e67e22" stroke="white" opacity="1.0"/>
</g>
<g class="series pmic-series" data-label="Chip 21988 | T=80°C" data-color="#2ecc71" data-mode="PFM" data-chip="21988" data-temp="80" data-reg="DC2DC_DIG">
<path d="M 124.5,155.1 L 150.2,150.5 L 176.0,146.0 L 201.9,148.2 L 227.7,143.7 L 253.5,136.9 L 279.3,139.1 L 305.0,148.2 L 330.9,146.0 L 356.8,143.7 L 382.6,143.7 L 408.4,127.8 L 434.1,143.7 L 459.9,152.8 L 485.7,146.0 L 511.7,139.1 L 537.4,134.6 L 563.2,127.8 L 589.0,120.9 L 614.8,139.1 L 640.6,139.1 L 666.5,143.7 L 692.4,130.0 L 718.2,125.5 L 744.0,123.2 L 769.6,109.6 L 795.4,123.2 L 821.4,136.9 L 847.2,136.9 L 872.9,127.8 L 898.6,130.0 L 924.5,125.5 L 950.2,127.8 L 976.1,114.1 L 1001.9,116.4 L 1027.7,105.0 L 1053.5,102.8" fill="none" stroke="#2ecc71" stroke-width="2.2" stroke-linejoin="round" opacity="0.9"/>
<circle cx="124.5" cy="155.1" r="4" fill="#2ecc71" stroke="white" opacity="1.0"/>
<circle cx="150.2" cy="150.5" r="4" fill="#2ecc71" stroke="white" opacity="1.0"/>
<circle cx="176.0" cy="146.0" r="4" fill="#2ecc71" stroke="white" opacity="1.0"/>
<circle cx="201.9" cy="148.2" r="4" fill="#2ecc71" stroke="white" opacity="1.0"/>
<circle cx="227.7" cy="143.7" r="4" fill="#2ecc71" stroke="white" opacity="1.0"/>
<circle cx="253.5" cy="136.9" r="4" fill="#2ecc71" stroke="white" opacity="1.0"/>
<circle cx="279.3" cy="139.1" r="4" fill="#2ecc71" stroke="white" opacity="1.0"/>
<circle cx="305.0" cy="148.2" r="4" fill="#2ecc71" stroke="white" opacity="1.0"/>
<circle cx="330.9" cy="146.0" r="4" fill="#2ecc71" stroke="white" opacity="1.0"/>
<circle cx="356.8" cy="143.7" r="4" fill="#2ecc71" stroke="white" opacity="1.0"/>
<circle cx="382.6" cy="143.7" r="4" fill="#2ecc71" stroke="white" opacity="1.0"/>
<circle cx="408.4" cy="127.8" r="4" fill="#2ecc71" stroke="white" opacity="1.0"/>
<circle cx="434.1" cy="143.7" r="4" fill="#2ecc71" stroke="white" opacity="1.0"/>
<circle cx="459.9" cy="152.8" r="4" fill="#2ecc71" stroke="white" opacity="1.0"/>
<circle cx="485.7" cy="146.0" r="4" fill="#2ecc71" stroke="white" opacity="1.0"/>
<circle cx="511.7" cy="139.1" r="4" fill="#2ecc71" stroke="white" opacity="1.0"/>
<circle cx="537.4" cy="134.6" r="4" fill="#2ecc71" stroke="white" opacity="1.0"/>
<circle cx="563.2" cy="127.8" r="4" fill="#2ecc71" stroke="white" opacity="1.0"/>
<circle cx="589.0" cy="120.9" r="4" fill="#2ecc71" stroke="white" opacity="1.0"/>
<circle cx="614.8" cy="139.1" r="4" fill="#2ecc71" stroke="white" opacity="1.0"/>
<circle cx="640.6" cy="139.1" r="4" fill="#2ecc71" stroke="white" opacity="1.0"/>
<circle cx="666.5" cy="143.7" r="4" fill="#2ecc71" stroke="white" opacity="1.0"/>
<circle cx="692.4" cy="130.0" r="4" fill="#2ecc71" stroke="white" opacity="1.0"/>
<circle cx="718.2" cy="125.5" r="4" fill="#2ecc71" stroke="white" opacity="1.0"/>
<circle cx="744.0" cy="123.2" r="4" fill="#2ecc71" stroke="white" opacity="1.0"/>
<circle cx="769.6" cy="109.6" r="4" fill="#2ecc71" stroke="white" opacity="1.0"/>
<circle cx="795.4" cy="123.2" r="4" fill="#2ecc71" stroke="white" opacity="1.0"/>
<circle cx="821.4" cy="136.9" r="4" fill="#2ecc71" stroke="white" opacity="1.0"/>
<circle cx="847.2" cy="136.9" r="4" fill="#2ecc71" stroke="white" opacity="1.0"/>
<circle cx="872.9" cy="127.8" r="4" fill="#2ecc71" stroke="white" opacity="1.0"/>
<circle cx="898.6" cy="130.0" r="4" fill="#2ecc71" stroke="white" opacity="1.0"/>
<circle cx="924.5" cy="125.5" r="4" fill="#2ecc71" stroke="white" opacity="1.0"/>
<circle cx="950.2" cy="127.8" r="4" fill="#2ecc71" stroke="white" opacity="1.0"/>
<circle cx="976.1" cy="114.1" r="4" fill="#2ecc71" stroke="white" opacity="1.0"/>
<circle cx="1001.9" cy="116.4" r="4" fill="#2ecc71" stroke="white" opacity="1.0"/>
<circle cx="1027.7" cy="105.0" r="4" fill="#2ecc71" stroke="white" opacity="1.0"/>
<circle cx="1053.5" cy="102.8" r="4" fill="#2ecc71" stroke="white" opacity="1.0"/>
</g>
<g class="series pmic-series" data-label="Chip 31927 | T=0°C" data-color="#9b59b6" data-mode="PFM" data-chip="31927" data-temp="0" data-reg="DC2DC_DIG">
<path d="M 124.5,412.1 L 150.2,414.3 L 176.0,412.1 L 201.9,405.2 L 227.7,409.8 L 253.5,409.8 L 279.3,403.0 L 305.0,407.5 L 330.9,409.8 L 356.8,403.0 L 382.6,396.1 L 408.4,405.2 L 434.1,414.3 L 459.9,407.5 L 485.6,400.7 L 511.6,393.9 L 537.4,414.3 L 563.2,405.2 L 589.0,396.1 L 614.8,391.6 L 640.6,384.8 L 666.5,403.0 L 692.4,412.1 L 718.2,403.0 L 743.9,396.1 L 769.6,393.9 L 795.4,384.8 L 821.3,403.0 L 847.2,409.8 L 872.8,407.5 L 898.6,393.9 L 924.4,391.6 L 950.2,389.3 L 976.1,384.8 L 1001.9,380.2 L 1027.7,405.2 L 1053.5,407.5" fill="none" stroke="#9b59b6" stroke-width="2.2" stroke-linejoin="round" opacity="0.9"/>
<circle cx="124.5" cy="412.1" r="4" fill="#9b59b6" stroke="white" opacity="1.0"/>
<circle cx="150.2" cy="414.3" r="4" fill="#9b59b6" stroke="white" opacity="1.0"/>
<circle cx="176.0" cy="412.1" r="4" fill="#9b59b6" stroke="white" opacity="1.0"/>
<circle cx="201.9" cy="405.2" r="4" fill="#9b59b6" stroke="white" opacity="1.0"/>
<circle cx="227.7" cy="409.8" r="4" fill="#9b59b6" stroke="white" opacity="1.0"/>
<circle cx="253.5" cy="409.8" r="4" fill="#9b59b6" stroke="white" opacity="1.0"/>
<circle cx="279.3" cy="403.0" r="4" fill="#9b59b6" stroke="white" opacity="1.0"/>
<circle cx="305.0" cy="407.5" r="4" fill="#9b59b6" stroke="white" opacity="1.0"/>
<circle cx="330.9" cy="409.8" r="4" fill="#9b59b6" stroke="white" opacity="1.0"/>
<circle cx="356.8" cy="403.0" r="4" fill="#9b59b6" stroke="white" opacity="1.0"/>
<circle cx="382.6" cy="396.1" r="4" fill="#9b59b6" stroke="white" opacity="1.0"/>
<circle cx="408.4" cy="405.2" r="4" fill="#9b59b6" stroke="white" opacity="1.0"/>
<circle cx="434.1" cy="414.3" r="4" fill="#9b59b6" stroke="white" opacity="1.0"/>
<circle cx="459.9" cy="407.5" r="4" fill="#9b59b6" stroke="white" opacity="1.0"/>
<circle cx="485.6" cy="400.7" r="4" fill="#9b59b6" stroke="white" opacity="1.0"/>
<circle cx="511.6" cy="393.9" r="4" fill="#9b59b6" stroke="white" opacity="1.0"/>
<circle cx="537.4" cy="414.3" r="4" fill="#9b59b6" stroke="white" opacity="1.0"/>
<circle cx="563.2" cy="405.2" r="4" fill="#9b59b6" stroke="white" opacity="1.0"/>
<circle cx="589.0" cy="396.1" r="4" fill="#9b59b6" stroke="white" opacity="1.0"/>
<circle cx="614.8" cy="391.6" r="4" fill="#9b59b6" stroke="white" opacity="1.0"/>
<circle cx="640.6" cy="384.8" r="4" fill="#9b59b6" stroke="white" opacity="1.0"/>
<circle cx="666.5" cy="403.0" r="4" fill="#9b59b6" stroke="white" opacity="1.0"/>
<circle cx="692.4" cy="412.1" r="4" fill="#9b59b6" stroke="white" opacity="1.0"/>
<circle cx="718.2" cy="403.0" r="4" fill="#9b59b6" stroke="white" opacity="1.0"/>
<circle cx="743.9" cy="396.1" r="4" fill="#9b59b6" stroke="white" opacity="1.0"/>
<circle cx="769.6" cy="393.9" r="4" fill="#9b59b6" stroke="white" opacity="1.0"/>
<circle cx="795.4" cy="384.8" r="4" fill="#9b59b6" stroke="white" opacity="1.0"/>
<circle cx="821.3" cy="403.0" r="4" fill="#9b59b6" stroke="white" opacity="1.0"/>
<circle cx="847.2" cy="409.8" r="4" fill="#9b59b6" stroke="white" opacity="1.0"/>
<circle cx="872.8" cy="407.5" r="4" fill="#9b59b6" stroke="white" opacity="1.0"/>
<circle cx="898.6" cy="393.9" r="4" fill="#9b59b6" stroke="white" opacity="1.0"/>
<circle cx="924.4" cy="391.6" r="4" fill="#9b59b6" stroke="white" opacity="1.0"/>
<circle cx="950.2" cy="389.3" r="4" fill="#9b59b6" stroke="white" opacity="1.0"/>
<circle cx="976.1" cy="384.8" r="4" fill="#9b59b6" stroke="white" opacity="1.0"/>
<circle cx="1001.9" cy="380.2" r="4" fill="#9b59b6" stroke="white" opacity="1.0"/>
<circle cx="1027.7" cy="405.2" r="4" fill="#9b59b6" stroke="white" opacity="1.0"/>
<circle cx="1053.5" cy="407.5" r="4" fill="#9b59b6" stroke="white" opacity="1.0"/>
</g>
<g class="series pmic-series" data-label="Chip 31927 | T=25°C" data-color="#1abc9c" data-mode="PFM" data-chip="31927" data-temp="25" data-reg="DC2DC_DIG">
<path d="M 124.5,357.5 L 150.2,357.5 L 176.0,357.5 L 201.9,355.2 L 227.7,362.0 L 253.5,359.8 L 279.3,346.1 L 305.0,359.8 L 330.9,359.8 L 356.8,352.9 L 382.6,352.9 L 408.4,362.0 L 434.1,359.8 L 459.9,352.9 L 485.7,346.1 L 511.6,364.3 L 537.4,359.8 L 563.2,355.2 L 589.0,348.4 L 614.8,348.4 L 640.6,366.6 L 666.5,357.5 L 692.4,348.4 L 718.1,339.3 L 743.9,341.6 L 769.6,359.8 L 795.4,368.9 L 821.3,357.5 L 847.1,350.7 L 872.8,343.8 L 898.6,337.0 L 924.4,334.7 L 950.2,362.0 L 976.1,357.5 L 1001.9,350.7 L 1027.7,350.7 L 1053.5,343.8" fill="none" stroke="#1abc9c" stroke-width="2.2" stroke-linejoin="round" opacity="0.9"/>
<circle cx="124.5" cy="357.5" r="4" fill="#1abc9c" stroke="white" opacity="1.0"/>
<circle cx="150.2" cy="357.5" r="4" fill="#1abc9c" stroke="white" opacity="1.0"/>
<circle cx="176.0" cy="357.5" r="4" fill="#1abc9c" stroke="white" opacity="1.0"/>
<circle cx="201.9" cy="355.2" r="4" fill="#1abc9c" stroke="white" opacity="1.0"/>
<circle cx="227.7" cy="362.0" r="4" fill="#1abc9c" stroke="white" opacity="1.0"/>
<circle cx="253.5" cy="359.8" r="4" fill="#1abc9c" stroke="white" opacity="1.0"/>
<circle cx="279.3" cy="346.1" r="4" fill="#1abc9c" stroke="white" opacity="1.0"/>
<circle cx="305.0" cy="359.8" r="4" fill="#1abc9c" stroke="white" opacity="1.0"/>
<circle cx="330.9" cy="359.8" r="4" fill="#1abc9c" stroke="white" opacity="1.0"/>
<circle cx="356.8" cy="352.9" r="4" fill="#1abc9c" stroke="white" opacity="1.0"/>
<circle cx="382.6" cy="352.9" r="4" fill="#1abc9c" stroke="white" opacity="1.0"/>
<circle cx="408.4" cy="362.0" r="4" fill="#1abc9c" stroke="white" opacity="1.0"/>
<circle cx="434.1" cy="359.8" r="4" fill="#1abc9c" stroke="white" opacity="1.0"/>
<circle cx="459.9" cy="352.9" r="4" fill="#1abc9c" stroke="white" opacity="1.0"/>
<circle cx="485.7" cy="346.1" r="4" fill="#1abc9c" stroke="white" opacity="1.0"/>
<circle cx="511.6" cy="364.3" r="4" fill="#1abc9c" stroke="white" opacity="1.0"/>
<circle cx="537.4" cy="359.8" r="4" fill="#1abc9c" stroke="white" opacity="1.0"/>
<circle cx="563.2" cy="355.2" r="4" fill="#1abc9c" stroke="white" opacity="1.0"/>
<circle cx="589.0" cy="348.4" r="4" fill="#1abc9c" stroke="white" opacity="1.0"/>
<circle cx="614.8" cy="348.4" r="4" fill="#1abc9c" stroke="white" opacity="1.0"/>
<circle cx="640.6" cy="366.6" r="4" fill="#1abc9c" stroke="white" opacity="1.0"/>
<circle cx="666.5" cy="357.5" r="4" fill="#1abc9c" stroke="white" opacity="1.0"/>
<circle cx="692.4" cy="348.4" r="4" fill="#1abc9c" stroke="white" opacity="1.0"/>
<circle cx="718.1" cy="339.3" r="4" fill="#1abc9c" stroke="white" opacity="1.0"/>
<circle cx="743.9" cy="341.6" r="4" fill="#1abc9c" stroke="white" opacity="1.0"/>
<circle cx="769.6" cy="359.8" r="4" fill="#1abc9c" stroke="white" opacity="1.0"/>
<circle cx="795.4" cy="368.9" r="4" fill="#1abc9c" stroke="white" opacity="1.0"/>
<circle cx="821.3" cy="357.5" r="4" fill="#1abc9c" stroke="white" opacity="1.0"/>
<circle cx="847.1" cy="350.7" r="4" fill="#1abc9c" stroke="white" opacity="1.0"/>
<circle cx="872.8" cy="343.8" r="4" fill="#1abc9c" stroke="white" opacity="1.0"/>
<circle cx="898.6" cy="337.0" r="4" fill="#1abc9c" stroke="white" opacity="1.0"/>
<circle cx="924.4" cy="334.7" r="4" fill="#1abc9c" stroke="white" opacity="1.0"/>
<circle cx="950.2" cy="362.0" r="4" fill="#1abc9c" stroke="white" opacity="1.0"/>
<circle cx="976.1" cy="357.5" r="4" fill="#1abc9c" stroke="white" opacity="1.0"/>
<circle cx="1001.9" cy="350.7" r="4" fill="#1abc9c" stroke="white" opacity="1.0"/>
<circle cx="1027.7" cy="350.7" r="4" fill="#1abc9c" stroke="white" opacity="1.0"/>
<circle cx="1053.5" cy="343.8" r="4" fill="#1abc9c" stroke="white" opacity="1.0"/>
</g>
<g class="series pmic-series" data-label="Chip 31927 | T=80°C" data-color="#e74c3c" data-mode="PFM" data-chip="31927" data-temp="80" data-reg="DC2DC_DIG">
<path d="M 124.5,298.4 L 150.2,296.1 L 176.0,298.4 L 201.9,298.4 L 227.7,296.1 L 253.5,293.8 L 279.3,291.5 L 305.0,309.7 L 330.9,298.4 L 356.8,287.0 L 382.6,296.1 L 408.4,300.6 L 434.1,293.8 L 459.9,282.4 L 485.6,289.3 L 511.6,302.9 L 537.4,296.1 L 563.2,289.3 L 589.0,282.4 L 614.8,277.9 L 640.6,291.5 L 666.5,293.8 L 692.4,291.5 L 718.2,277.9 L 743.9,282.4 L 769.6,296.1 L 795.4,296.1 L 821.3,291.5 L 847.2,289.3 L 872.8,284.7 L 898.6,275.6 L 924.4,273.3 L 950.2,302.9 L 976.1,307.4 L 1001.9,291.5 L 1027.7,289.3 L 1053.5,284.7" fill="none" stroke="#e74c3c" stroke-width="2.2" stroke-linejoin="round" opacity="0.9"/>
<circle cx="124.5" cy="298.4" r="4" fill="#e74c3c" stroke="white" opacity="1.0"/>
<circle cx="150.2" cy="296.1" r="4" fill="#e74c3c" stroke="white" opacity="1.0"/>
<circle cx="176.0" cy="298.4" r="4" fill="#e74c3c" stroke="white" opacity="1.0"/>
<circle cx="201.9" cy="298.4" r="4" fill="#e74c3c" stroke="white" opacity="1.0"/>
<circle cx="227.7" cy="296.1" r="4" fill="#e74c3c" stroke="white" opacity="1.0"/>
<circle cx="253.5" cy="293.8" r="4" fill="#e74c3c" stroke="white" opacity="1.0"/>
<circle cx="279.3" cy="291.5" r="4" fill="#e74c3c" stroke="white" opacity="1.0"/>
<circle cx="305.0" cy="309.7" r="4" fill="#e74c3c" stroke="white" opacity="1.0"/>
<circle cx="330.9" cy="298.4" r="4" fill="#e74c3c" stroke="white" opacity="1.0"/>
<circle cx="356.8" cy="287.0" r="4" fill="#e74c3c" stroke="white" opacity="1.0"/>
<circle cx="382.6" cy="296.1" r="4" fill="#e74c3c" stroke="white" opacity="1.0"/>
<circle cx="408.4" cy="300.6" r="4" fill="#e74c3c" stroke="white" opacity="1.0"/>
<circle cx="434.1" cy="293.8" r="4" fill="#e74c3c" stroke="white" opacity="1.0"/>
<circle cx="459.9" cy="282.4" r="4" fill="#e74c3c" stroke="white" opacity="1.0"/>
<circle cx="485.6" cy="289.3" r="4" fill="#e74c3c" stroke="white" opacity="1.0"/>
<circle cx="511.6" cy="302.9" r="4" fill="#e74c3c" stroke="white" opacity="1.0"/>
<circle cx="537.4" cy="296.1" r="4" fill="#e74c3c" stroke="white" opacity="1.0"/>
<circle cx="563.2" cy="289.3" r="4" fill="#e74c3c" stroke="white" opacity="1.0"/>
<circle cx="589.0" cy="282.4" r="4" fill="#e74c3c" stroke="white" opacity="1.0"/>
<circle cx="614.8" cy="277.9" r="4" fill="#e74c3c" stroke="white" opacity="1.0"/>
<circle cx="640.6" cy="291.5" r="4" fill="#e74c3c" stroke="white" opacity="1.0"/>
<circle cx="666.5" cy="293.8" r="4" fill="#e74c3c" stroke="white" opacity="1.0"/>
<circle cx="692.4" cy="291.5" r="4" fill="#e74c3c" stroke="white" opacity="1.0"/>
<circle cx="718.2" cy="277.9" r="4" fill="#e74c3c" stroke="white" opacity="1.0"/>
<circle cx="743.9" cy="282.4" r="4" fill="#e74c3c" stroke="white" opacity="1.0"/>
<circle cx="769.6" cy="296.1" r="4" fill="#e74c3c" stroke="white" opacity="1.0"/>
<circle cx="795.4" cy="296.1" r="4" fill="#e74c3c" stroke="white" opacity="1.0"/>
<circle cx="821.3" cy="291.5" r="4" fill="#e74c3c" stroke="white" opacity="1.0"/>
<circle cx="847.2" cy="289.3" r="4" fill="#e74c3c" stroke="white" opacity="1.0"/>
<circle cx="872.8" cy="284.7" r="4" fill="#e74c3c" stroke="white" opacity="1.0"/>
<circle cx="898.6" cy="275.6" r="4" fill="#e74c3c" stroke="white" opacity="1.0"/>
<circle cx="924.4" cy="273.3" r="4" fill="#e74c3c" stroke="white" opacity="1.0"/>
<circle cx="950.2" cy="302.9" r="4" fill="#e74c3c" stroke="white" opacity="1.0"/>
<circle cx="976.1" cy="307.4" r="4" fill="#e74c3c" stroke="white" opacity="1.0"/>
<circle cx="1001.9" cy="291.5" r="4" fill="#e74c3c" stroke="white" opacity="1.0"/>
<circle cx="1027.7" cy="289.3" r="4" fill="#e74c3c" stroke="white" opacity="1.0"/>
<circle cx="1053.5" cy="284.7" r="4" fill="#e74c3c" stroke="white" opacity="1.0"/>
</g>
<g class="legend-item" data-mode="PFM" data-chip="21988" data-temp="0" data-reg="DC2DC_DIG">
<rect x="1116.0" y="69.0" width="22.0" height="4.0" fill="#3498db" stroke="none" stroke-width="1" opacity="1.0" rx="2"/>
<circle cx="1127.0" cy="71.0" r="4" fill="#3498db" stroke="none" opacity="1.0"/>
<text x="1144.0" y="76.0" font-size="9" font-weight="normal" text-anchor="start" fill="#333" font-family="Arial,sans-serif">Chip 21988 | T=0°C</text>
</g>
<g class="legend-item" data-mode="PFM" data-chip="21988" data-temp="25" data-reg="DC2DC_DIG">
<rect x="1116.0" y="86.0" width="22.0" height="4.0" fill="#e67e22" stroke="none" stroke-width="1" opacity="1.0" rx="2"/>
<circle cx="1127.0" cy="88.0" r="4" fill="#e67e22" stroke="none" opacity="1.0"/>
<text x="1144.0" y="93.0" font-size="9" font-weight="normal" text-anchor="start" fill="#333" font-family="Arial,sans-serif">Chip 21988 | T=25°C</text>
</g>
<g class="legend-item" data-mode="PFM" data-chip="21988" data-temp="80" data-reg="DC2DC_DIG">
<rect x="1116.0" y="103.0" width="22.0" height="4.0" fill="#2ecc71" stroke="none" stroke-width="1" opacity="1.0" rx="2"/>
<circle cx="1127.0" cy="105.0" r="4" fill="#2ecc71" stroke="none" opacity="1.0"/>
<text x="1144.0" y="110.0" font-size="9" font-weight="normal" text-anchor="start" fill="#333" font-family="Arial,sans-serif">Chip 21988 | T=80°C</text>
</g>
<g class="legend-item" data-mode="PFM" data-chip="31927" data-temp="0" data-reg="DC2DC_DIG">
<rect x="1116.0" y="120.0" width="22.0" height="4.0" fill="#9b59b6" stroke="none" stroke-width="1" opacity="1.0" rx="2"/>
<circle cx="1127.0" cy="122.0" r="4" fill="#9b59b6" stroke="none" opacity="1.0"/>
<text x="1144.0" y="127.0" font-size="9" font-weight="normal" text-anchor="start" fill="#333" font-family="Arial,sans-serif">Chip 31927 | T=0°C</text>
</g>
<g class="legend-item" data-mode="PFM" data-chip="31927" data-temp="25" data-reg="DC2DC_DIG">
<rect x="1116.0" y="137.0" width="22.0" height="4.0" fill="#1abc9c" stroke="none" stroke-width="1" opacity="1.0" rx="2"/>
<circle cx="1127.0" cy="139.0" r="4" fill="#1abc9c" stroke="none" opacity="1.0"/>
<text x="1144.0" y="144.0" font-size="9" font-weight="normal" text-anchor="start" fill="#333" font-family="Arial,sans-serif">Chip 31927 | T=25°C</text>
</g>
<g class="legend-item" data-mode="PFM" data-chip="31927" data-temp="80" data-reg="DC2DC_DIG">
<rect x="1116.0" y="154.0" width="22.0" height="4.0" fill="#e74c3c" stroke="none" stroke-width="1" opacity="1.0" rx="2"/>
<circle cx="1127.0" cy="156.0" r="4" fill="#e74c3c" stroke="none" opacity="1.0"/>
<text x="1144.0" y="161.0" font-size="9" font-weight="normal" text-anchor="start" fill="#333" font-family="Arial,sans-serif">Chip 31927 | T=80°C</text>
</g>
<rect class="cursor-overlay" x="78.0" y="68.0" width="1022.0" height="372.0" fill="transparent" style="cursor:default" data-xmin="2.446395" data-xmax="3.634505" data-ymin="0.704872" data-ymax="0.721228" data-pl="78.0" data-pr="1100.0" data-pt="68.0" data-pb="440.0"/>
<g class="cursor-layer" style="pointer-events:none;display:none"><line class="cur-v" x1="0" y1="68.0" x2="0" y2="440.0" stroke="#e74c3c" stroke-width="1.2" stroke-dasharray="5,3"/><line class="cur-h" x1="78.0" y1="0" x2="1100.0" y2="0" stroke="#e74c3c" stroke-width="1.2" stroke-dasharray="5,3"/><rect class="cur-tip-bg" x="0" y="0" width="170" height="48" rx="4" fill="#1a252f" stroke="#34495e" stroke-width="1" opacity="0.92"/><text class="cur-tip-s" x="0" y="0" font-size="8" font-family="Arial,sans-serif" fill="#f1c40f"/><text class="cur-tip-x" x="0" y="0" font-size="9" font-family="Arial,sans-serif" fill="#ecf0f1"/><text class="cur-tip-y" x="0" y="0" font-size="9" font-family="Arial,sans-serif" fill="#2ecc71"/></g>
</svg>