<svg xmlns="http://www.w3.org/2000/svg" width="1400" height="520" viewBox="0 0 1400 520">
<rect width="1400" height="520" fill="#ffffff"/>
<text x="700.0" y="28.0" font-size="16" font-weight="bold" text-anchor="middle" fill="#2c3e50" font-family="Arial,sans-serif">Static Line Regulation — Analog DC2DC  Vout=1V  [PFM]  Iload=100µA</text>
<line x1="78.0" y1="68.0" x2="78.0" y2="440.0" stroke="#999" stroke-width="1"/>
<line x1="73.0" y1="440.0" x2="78.0" y2="440.0" stroke="#999" stroke-width="1"/>
<line x1="78.0" y1="440.0" x2="1100.0" y2="440.0" stroke="#e8e8e8" stroke-width="0.7" stroke-dasharray="4,3"/>
<text x="70.0" y="444.0" font-size="9" font-weight="normal" text-anchor="end" fill="#888" font-family="Arial,sans-serif">1.01</text>
<line x1="73.0" y1="365.6" x2="78.0" y2="365.6" stroke="#999" stroke-width="1"/>
<line x1="78.0" y1="365.6" x2="1100.0" y2="365.6" stroke="#e8e8e8" stroke-width="0.7" stroke-dasharray="4,3"/>
<text x="70.0" y="369.6" font-size="9" font-weight="normal" text-anchor="end" fill="#888" font-family="Arial,sans-serif">1.01</text>
<line x1="73.0" y1="291.2" x2="78.0" y2="291.2" stroke="#999" stroke-width="1"/>
<line x1="78.0" y1="291.2" x2="1100.0" y2="291.2" stroke="#e8e8e8" stroke-width="0.7" stroke-dasharray="4,3"/>
<text x="70.0" y="295.2" font-size="9" font-weight="normal" text-anchor="end" fill="#888" font-family="Arial,sans-serif">1.02</text>
<line x1="73.0" y1="216.8" x2="78.0" y2="216.8" stroke="#999" stroke-width="1"/>
<line x1="78.0" y1="216.8" x2="1100.0" y2="216.8" stroke="#e8e8e8" stroke-width="0.7" stroke-dasharray="4,3"/>
<text x="70.0" y="220.8" font-size="9" font-weight="normal" text-anchor="end" fill="#888" font-family="Arial,sans-serif">1.02</text>
<line x1="73.0" y1="142.4" x2="78.0" y2="142.4" stroke="#999" stroke-width="1"/>
<line x1="78.0" y1="142.4" x2="1100.0" y2="142.4" stroke="#e8e8e8" stroke-width="0.7" stroke-dasharray="4,3"/>
<text x="70.0" y="146.4" font-size="9" font-weight="normal" text-anchor="end" fill="#888" font-family="Arial,sans-serif">1.03</text>
<line x1="73.0" y1="68.0" x2="78.0" y2="68.0" stroke="#999" stroke-width="1"/>
<line x1="78.0" y1="68.0" x2="1100.0" y2="68.0" stroke="#e8e8e8" stroke-width="0.7" stroke-dasharray="4,3"/>
<text x="70.0" y="72.0" font-size="9" font-weight="normal" text-anchor="end" fill="#888" font-family="Arial,sans-serif">1.03</text>
<line x1="78.0" y1="440.0" x2="1100.0" y2="440.0" stroke="#999" stroke-width="1"/>
<line x1="78.0" y1="440.0" x2="78.0" y2="445.0" stroke="#999" stroke-width="1"/>
<line x1="78.0" y1="68.0" x2="78.0" y2="440.0" stroke="#e8e8e8" stroke-width="0.7" stroke-dasharray="4,3"/>
<text x="78.0" y="456.0" font-size="9" font-weight="normal" text-anchor="middle" fill="#888" font-family="Arial,sans-serif">2.45</text>
<line x1="224.0" y1="440.0" x2="224.0" y2="445.0" stroke="#999" stroke-width="1"/>
<line x1="224.0" y1="68.0" x2="224.0" y2="440.0" stroke="#e8e8e8" stroke-width="0.7" stroke-dasharray="4,3"/>
<text x="224.0" y="456.0" font-size="9" font-weight="normal" text-anchor="middle" fill="#888" font-family="Arial,sans-serif">2.62</text>
<line x1="370.0" y1="440.0" x2="370.0" y2="445.0" stroke="#999" stroke-width="1"/>
<line x1="370.0" y1="68.0" x2="370.0" y2="440.0" stroke="#e8e8e8" stroke-width="0.7" stroke-dasharray="4,3"/>
<text x="370.0" y="456.0" font-size="9" font-weight="normal" text-anchor="middle" fill="#888" font-family="Arial,sans-serif">2.79</text>
<line x1="516.0" y1="440.0" x2="516.0" y2="445.0" stroke="#999" stroke-width="1"/>
<line x1="516.0" y1="68.0" x2="516.0" y2="440.0" stroke="#e8e8e8" stroke-width="0.7" stroke-dasharray="4,3"/>
<text x="516.0" y="456.0" font-size="9" font-weight="normal" text-anchor="middle" fill="#888" font-family="Arial,sans-serif">2.96</text>
<line x1="662.0" y1="440.0" x2="662.0" y2="445.0" stroke="#999" stroke-width="1"/>
<line x1="662.0" y1="68.0" x2="662.0" y2="440.0" stroke="#e8e8e8" stroke-width="0.7" stroke-dasharray="4,3"/>
<text x="662.0" y="456.0" font-size="9" font-weight="normal" text-anchor="middle" fill="#888" font-family="Arial,sans-serif">3.13</text>
<line x1="808.0" y1="440.0" x2="808.0" y2="445.0" stroke="#999" stroke-width="1"/>
<line x1="808.0" y1="68.0" x2="808.0" y2="440.0" stroke="#e8e8e8" stroke-width="0.7" stroke-dasharray="4,3"/>
<text x="808.0" y="456.0" font-size="9" font-weight="normal" text-anchor="middle" fill="#888" font-family="Arial,sans-serif">3.3</text>
<line x1="954.0" y1="440.0" x2="954.0" y2="445.0" stroke="#999" stroke-width="1"/>
<line x1="954.0" y1="68.0" x2="954.0" y2="440.0" stroke="#e8e8e8" stroke-width="0.7" stroke-dasharray="4,3"/>
<text x="954.0" y="456.0" font-size="9" font-weight="normal" text-anchor="middle" fill="#888" font-family="Arial,sans-serif">3.46</text>
<line x1="1100.0" y1="440.0" x2="1100.0" y2="445.0" stroke="#999" stroke-width="1"/>
<line x1="1100.0" y1="68.0" x2="1100.0" y2="440.0" stroke="#e8e8e8" stroke-width="0.7" stroke-dasharray="4,3"/>
<text x="1100.0" y="456.0" font-size="9" font-weight="normal" text-anchor="middle" fill="#888" font-family="Arial,sans-serif">3.63</text>
<text x="16.0" y="254.0" font-size="11" font-weight="normal" text-anchor="middle" fill="#555" font-family="Arial,sans-serif" transform="rotate(-90,16,254.0)">Output Voltage  Vout [V]</text>
<text x="589.0" y="510.0" font-size="11" font-weight="normal" text-anchor="middle" fill="#555" font-family="Arial,sans-serif">Input Voltage  Vin [V]</text>
<g class="series pmic-series" data-mode="PFM" data-chip="21988" data-temp="0" data-reg="DC2DC_ANA">
<path d="M 124.5,146.9 L 150.2,141.7 L 176.0,139.1 L 201.9,148.2 L 227.7,143.0 L 253.5,137.8 L 279.3,137.8 L 305.0,143.0 L 330.9,145.6 L 356.8,144.3 L 382.6,136.5 L 408.4,132.6 L 434.1,136.5 L 459.9,150.8 L 485.7,145.6 L 511.7,140.4 L 537.4,136.5 L 563.2,131.3 L 589.0,135.2 L 614.8,148.2 L 640.6,149.5 L 666.5,145.6 L 692.4,143.0 L 718.2,137.8 L 743.9,135.2 L 769.6,132.6 L 795.4,128.7 L 821.4,137.8 L 847.2,149.5 L 872.9,145.6 L 898.6,143.0 L 924.5,139.1 L 950.2,140.4 L 976.1,130.0 L 1001.9,130.0 L 1027.7,130.0 L 1053.5,126.1" fill="none" stroke="#3498db" stroke-width="2.2" stroke-linejoin="round" opacity="0.9"/>
<circle cx="124.5" cy="146.9" r="4" fill="#3498db" stroke="white" opacity="1.0"/>
<circle cx="150.2" cy="141.7" r="4" fill="#3498db" stroke="white" opacity="1.0"/>
<circle cx="176.0" cy="139.1" r="4" fill="#3498db" stroke="white" opacity="1.0"/>
<circle cx="201.9" cy="148.2" r="4" fill="#3498db" stroke="white" opacity="1.0"/>
<circle cx="227.7" cy="143.0" r="4" fill="#3498db" stroke="white" opacity="1.0"/>
<circle cx="253.5" cy="137.8" r="4" fill="#3498db" stroke="white" opacity="1.0"/>
<circle cx="279.3" cy="137.8" r="4" fill="#3498db" stroke="white" opacity="1.0"/>
<circle cx="305.0" cy="143.0" r="4" fill="#3498db" stroke="white" opacity="1.0"/>
<circle cx="330.9" cy="145.6" r="4" fill="#3498db" stroke="white" opacity="1.0"/>
<circle cx="356.8" cy="144.3" r="4" fill="#3498db" stroke="white" opacity="1.0"/>
<circle cx="382.6" cy="136.5" r="4" fill="#3498db" stroke="white" opacity="1.0"/>
<circle cx="408.4" cy="132.6" r="4" fill="#3498db" stroke="white" opacity="1.0"/>
<circle cx="434.1" cy="136.5" r="4" fill="#3498db" stroke="white" opacity="1.0"/>
<circle cx="459.9" cy="150.8" r="4" fill="#3498db" stroke="white" opacity="1.0"/>
<circle cx="485.7" cy="145.6" r="4" fill="#3498db" stroke="white" opacity="1.0"/>
<circle cx="511.7" cy="140.4" r="4" fill="#3498db" stroke="white" opacity="1.0"/>
<circle cx="537.4" cy="136.5" r="4" fill="#3498db" stroke="white" opacity="1.0"/>
<circle cx="563.2" cy="131.3" r="4" fill="#3498db" stroke="white" opacity="1.0"/>
<circle cx="589.0" cy="135.2" r="4" fill="#3498db" stroke="white" opacity="1.0"/>
<circle cx="614.8" cy="148.2" r="4" fill="#3498db" stroke="white" opacity="1.0"/>
<circle cx="640.6" cy="149.5" r="4" fill="#3498db" stroke="white" opacity="1.0"/>
<circle cx="666.5" cy="145.6" r="4" fill="#3498db" stroke="white" opacity="1.0"/>
<circle cx="692.4" cy="143.0" r="4" fill="#3498db" stroke="white" opacity="1.0"/>
<circle cx="718.2" cy="137.8" r="4" fill="#3498db" stroke="white" opacity="1.0"/>
<circle cx="743.9" cy="135.2" r="4" fill="#3498db" stroke="white" opacity="1.0"/>
<circle cx="769.6" cy="132.6" r="4" fill="#3498db" stroke="white" opacity="1.0"/>
<circle cx="795.4" cy="128.7" r="4" fill="#3498db" stroke="white" opacity="1.0"/>
<circle cx="821.4" cy="137.8" r="4" fill="#3498db" stroke="white" opacity="1.0"/>
<circle cx="847.2" cy="149.5" r="4" fill="#3498db" stroke="white" opacity="1.0"/>
<circle cx="872.9" cy="145.6" r="4" fill="#3498db" stroke="white" opacity="1.0"/>
<circle cx="898.6" cy="143.0" r="4" fill="#3498db" stroke="white" opacity="1.0"/>
<circle cx="924.5" cy="139.1" r="4" fill="#3498db" stroke="white" opacity="1.0"/>
<circle cx="950.2" cy="140.4" r="4" fill="#3498db" stroke="white" opacity="1.0"/>
<circle cx="976.1" cy="130.0" r="4" fill="#3498db" stroke="white" opacity="1.0"/>
<circle cx="1001.9" cy="130.0" r="4" fill="#3498db" stroke="white" opacity="1.0"/>
<circle cx="1027.7" cy="130.0" r="4" fill="#3498db" stroke="white" opacity="1.0"/>
<circle cx="1053.5" cy="126.1" r="4" fill="#3498db" stroke="white" opacity="1.0"/>
</g>
<g class="series pmic-series" data-mode="PFM" data-chip="21988" data-temp="25" data-reg="DC2DC_ANA">
<path d="M 124.5,135.2 L 150.2,127.4 L 176.0,127.4 L 201.9,137.8 L 227.7,128.7 L 253.5,126.1 L 279.3,128.7 L 305.0,140.4 L 330.9,135.2 L 356.8,133.9 L 382.6,127.4 L 408.4,132.6 L 434.1,139.1 L 459.9,136.5 L 485.7,130.0 L 511.6,127.4 L 537.4,130.0 L 563.2,140.4 L 589.0,143.0 L 614.8,136.5 L 640.6,124.8 L 666.5,127.4 L 692.4,124.8 L 718.2,132.6 L 743.9,146.9 L 769.6,145.6 L 795.4,141.7 L 821.4,139.1 L 847.2,131.3 L 872.8,126.1 L 898.6,124.8 L 924.5,122.2 L 950.2,133.9 L 976.1,146.9 L 1001.9,144.3 L 1027.7,145.6 L 1053.5,136.5" fill="none" stroke="#e67e22" stroke-width="2.2" stroke-linejoin="round" opacity="0.9"/>
<circle cx="124.5" cy="135.2" r="4" fill="#e67e22" stroke="white" opacity="1.0"/>
<circle cx="150.2" cy="127.4" r="4" fill="#e67e22" stroke="white" opacity="1.0"/>
<circle cx="176.0" cy="127.4" r="4" fill="#e67e22" stroke="white" opacity="1.0"/>
<circle cx="201.9" cy="137.8" r="4" fill="#e67e22" stroke="white" opacity="1.0"/>
<circle cx="227.7" cy="128.7" r="4" fill="#e67e22" stroke="white" opacity="1.0"/>
<circle cx="253.5" cy="126.1" r="4" fill="#e67e22" stroke="white" opacity="1.0"/>
<circle cx="279.3" cy="128.7" r="4" fill="#e67e22" stroke="white" opacity="1.0"/>
<circle cx="305.0" cy="140.4" r="4" fill="#e67e22" stroke="white" opacity="1.0"/>
<circle cx="330.9" cy="135.2" r="4" fill="#e67e22" stroke="white" opacity="1.0"/>
<circle cx="356.8" cy="133.9" r="4" fill="#e67e22" stroke="white" opacity="1.0"/>
<circle cx="382.6" cy="127.4" r="4" fill="#e67e22" stroke="white" opacity="1.0"/>
<circle cx="408.4" cy="132.6" r="4" fill="#e67e22" stroke="white" opacity="1.0"/>
<circle cx="434.1" cy="139.1" r="4" fill="#e67e22" stroke="white" opacity="1.0"/>
<circle cx="459.9" cy="136.5" r="4" fill="#e67e22" stroke="white" opacity="1.0"/>
<circle cx="485.7" cy="130.0" r="4" fill="#e67e22" stroke="white" opacity="1.0"/>
<circle cx="511.6" cy="127.4" r="4" fill="#e67e22" stroke="white" opacity="1.0"/>
<circle cx="537.4" cy="130.0" r="4" fill="#e67e22" stroke="white" opacity="1.0"/>
<circle cx="563.2" cy="140.4" r="4" fill="#e67e22" stroke="white" opacity="1.0"/>
<circle cx="589.0" cy="143.0" r="4" fill="#e67e22" stroke="white" opacity="1.0"/>
<circle cx="614.8" cy="136.5" r="4" fill="#e67e22" stroke="white" opacity="1.0"/>
<circle cx="640.6" cy="124.8" r="4" fill="#e67e22" stroke="white" opacity="1.0"/>
<circle cx="666.5" cy="127.4" r="4" fill="#e67e22" stroke="white" opacity="1.0"/>
<circle cx="692.4" cy="124.8" r="4" fill="#e67e22" stroke="white" opacity="1.0"/>
<circle cx="718.2" cy="132.6" r="4" fill="#e67e22" stroke="white" opacity="1.0"/>
<circle cx="743.9" cy="146.9" r="4" fill="#e67e22" stroke="white" opacity="1.0"/>
<circle cx="769.6" cy="145.6" r="4" fill="#e67e22" stroke="white" opacity="1.0"/>
<circle cx="795.4" cy="141.7" r="4" fill="#e67e22" stroke="white" opacity="1.0"/>
<circle cx="821.4" cy="139.1" r="4" fill="#e67e22" stroke="white" opacity="1.0"/>
<circle cx="847.2" cy="131.3" r="4" fill="#e67e22" stroke="white" opacity="1.0"/>
<circle cx="872.8" cy="126.1" r="4" fill="#e67e22" stroke="white" opacity="1.0"/>
<circle cx="898.6" cy="124.8" r="4" fill="#e67e22" stroke="white" opacity="1.0"/>
<circle cx="924.5" cy="122.2" r="4" fill="#e67e22" stroke="white" opacity="1.0"/>
<circle cx="950.2" cy="133.9" r="4" fill="#e67e22" stroke="white" opacity="1.0"/>
<circle cx="976.1" cy="146.9" r="4" fill="#e67e22" stroke="white" opacity="1.0"/>
<circle cx="1001.9" cy="144.3" r="4" fill="#e67e22" stroke="white" opacity="1.0"/>
<circle cx="1027.7" cy="145.6" r="4" fill="#e67e22" stroke="white" opacity="1.0"/>
<circle cx="1053.5" cy="136.5" r="4" fill="#e67e22" stroke="white" opacity="1.0"/>
</g>
<g class="series pmic-series" data-mode="PFM" data-chip="21988" data-temp="80" data-reg="DC2DC_ANA">
<path d="M 124.5,114.4 L 150.2,104.0 L 176.0,117.0 L 201.9,113.1 L 227.7,106.6 L 253.5,109.2 L 279.3,115.7 L 305.1,109.2 L 330.9,114.4 L 356.8,106.6 L 382.6,109.2 L 408.4,115.7 L 434.1,110.5 L 459.9,104.0 L 485.7,104.0 L 511.6,93.7 L 537.4,105.3 L 563.2,110.5 L 589.0,106.6 L 614.8,98.8 L 640.6,102.7 L 666.5,98.8 L 692.4,98.8 L 718.2,114.4 L 743.9,111.8 L 769.7,111.8 L 795.4,105.3 L 821.4,102.7 L 847.2,97.6 L 872.9,102.7 L 898.6,95.0 L 924.5,102.7 L 950.2,126.1 L 976.1,123.5 L 1001.9,115.7 L 1027.7,110.5 L 1053.5,107.9" fill="none" stroke="#2ecc71" stroke-width="2.2" stroke-linejoin="round" opacity="0.9"/>
<circle cx="124.5" cy="114.4" r="4" fill="#2ecc71" stroke="white" opacity="1.0"/>
<circle cx="150.2" cy="104.0" r="4" fill="#2ecc71" stroke="white" opacity="1.0"/>
<circle cx="176.0" cy="117.0" r="4" fill="#2ecc71" stroke="white" opacity="1.0"/>
<circle cx="201.9" cy="113.1" r="4" fill="#2ecc71" stroke="white" opacity="1.0"/>
<circle cx="227.7" cy="106.6" r="4" fill="#2ecc71" stroke="white" opacity="1.0"/>
<circle cx="253.5" cy="109.2" r="4" fill="#2ecc71" stroke="white" opacity="1.0"/>
<circle cx="279.3" cy="115.7" r="4" fill="#2ecc71" stroke="white" opacity="1.0"/>
<circle cx="305.1" cy="109.2" r="4" fill="#2ecc71" stroke="white" opacity="1.0"/>
<circle cx="330.9" cy="114.4" r="4" fill="#2ecc71" stroke="white" opacity="1.0"/>
<circle cx="356.8" cy="106.6" r="4" fill="#2ecc71" stroke="white" opacity="1.0"/>
<circle cx="382.6" cy="109.2" r="4" fill="#2ecc71" stroke="white" opacity="1.0"/>
<circle cx="408.4" cy="115.7" r="4" fill="#2ecc71" stroke="white" opacity="1.0"/>
<circle cx="434.1" cy="110.5" r="4" fill="#2ecc71" stroke="white" opacity="1.0"/>
<circle cx="459.9" cy="104.0" r="4" fill="#2ecc71" stroke="white" opacity="1.0"/>
<circle cx="485.7" cy="104.0" r="4" fill="#2ecc71" stroke="white" opacity="1.0"/>
<circle cx="511.6" cy="93.7" r="4" fill="#2ecc71" stroke="white" opacity="1.0"/>
<circle cx="537.4" cy="105.3" r="4" fill="#2ecc71" stroke="white" opacity="1.0"/>
<circle cx="563.2" cy="110.5" r="4" fill="#2ecc71" stroke="white" opacity="1.0"/>
<circle cx="589.0" cy="106.6" r="4" fill="#2ecc71" stroke="white" opacity="1.0"/>
<circle cx="614.8" cy="98.8" r="4" fill="#2ecc71" stroke="white" opacity="1.0"/>
<circle cx="640.6" cy="102.7" r="4" fill="#2ecc71" stroke="white" opacity="1.0"/>
<circle cx="666.5" cy="98.8" r="4" fill="#2ecc71" stroke="white" opacity="1.0"/>
<circle cx="692.4" cy="98.8" r="4" fill="#2ecc71" stroke="white" opacity="1.0"/>
<circle cx="718.2" cy="114.4" r="4" fill="#2ecc71" stroke="white" opacity="1.0"/>
<circle cx="743.9" cy="111.8" r="4" fill="#2ecc71" stroke="white" opacity="1.0"/>
<circle cx="769.7" cy="111.8" r="4" fill="#2ecc71" stroke="white" opacity="1.0"/>
<circle cx="795.4" cy="105.3" r="4" fill="#2ecc71" stroke="white" opacity="1.0"/>
<circle cx="821.4" cy="102.7" r="4" fill="#2ecc71" stroke="white" opacity="1.0"/>
<circle cx="847.2" cy="97.6" r="4" fill="#2ecc71" stroke="white" opacity="1.0"/>
<circle cx="872.9" cy="102.7" r="4" fill="#2ecc71" stroke="white" opacity="1.0"/>
<circle cx="898.6" cy="95.0" r="4" fill="#2ecc71" stroke="white" opacity="1.0"/>
<circle cx="924.5" cy="102.7" r="4" fill="#2ecc71" stroke="white" opacity="1.0"/>
<circle cx="950.2" cy="126.1" r="4" fill="#2ecc71" stroke="white" opacity="1.0"/>
<circle cx="976.1" cy="123.5" r="4" fill="#2ecc71" stroke="white" opacity="1.0"/>
<circle cx="1001.9" cy="115.7" r="4" fill="#2ecc71" stroke="white" opacity="1.0"/>
<circle cx="1027.7" cy="110.5" r="4" fill="#2ecc71" stroke="white" opacity="1.0"/>
<circle cx="1053.5" cy="107.9" r="4" fill="#2ecc71" stroke="white" opacity="1.0"/>
</g>
<g class="series pmic-series" data-mode="PFM" data-chip="31927" data-temp="0" data-reg="DC2DC_ANA">
<path d="M 124.5,174.2 L 150.2,188.4 L 176.0,183.2 L 201.9,176.7 L 227.7,184.5 L 253.5,183.2 L 279.3,178.0 L 305.0,180.6 L 330.8,166.4 L 356.7,171.6 L 382.6,180.6 L 408.4,176.7 L 434.1,178.0 L 459.9,172.9 L 485.7,166.4 L 511.6,163.8 L 537.4,175.5 L 563.2,176.7 L 589.0,180.6 L 614.8,181.9 L 640.6,171.6 L 666.5,166.4 L 692.4,166.4 L 718.2,161.2 L 743.9,170.3 L 769.6,184.5 L 795.4,181.9 L 821.3,176.7 L 847.2,178.0 L 872.8,178.0 L 898.6,171.6 L 924.4,169.0 L 950.2,163.8 L 976.1,159.9 L 1001.9,166.4 L 1027.7,174.2 L 1053.5,189.7" fill="none" stroke="#9b59b6" stroke-width="2.2" stroke-linejoin="round" opacity="0.9"/>
<circle cx="124.5" cy="174.2" r="4" fill="#9b59b6" stroke="white" opacity="1.0"/>
<circle cx="150.2" cy="188.4" r="4" fill="#9b59b6" stroke="white" opacity="1.0"/>
<circle cx="176.0" cy="183.2" r="4" fill="#9b59b6" stroke="white" opacity="1.0"/>
<circle cx="201.9" cy="176.7" r="4" fill="#9b59b6" stroke="white" opacity="1.0"/>
<circle cx="227.7" cy="184.5" r="4" fill="#9b59b6" stroke="white" opacity="1.0"/>
<circle cx="253.5" cy="183.2" r="4" fill="#9b59b6" stroke="white" opacity="1.0"/>
<circle cx="279.3" cy="178.0" r="4" fill="#9b59b6" stroke="white" opacity="1.0"/>
<circle cx="305.0" cy="180.6" r="4" fill="#9b59b6" stroke="white" opacity="1.0"/>
<circle cx="330.8" cy="166.4" r="4" fill="#9b59b6" stroke="white" opacity="1.0"/>
<circle cx="356.7" cy="171.6" r="4" fill="#9b59b6" stroke="white" opacity="1.0"/>
<circle cx="382.6" cy="180.6" r="4" fill="#9b59b6" stroke="white" opacity="1.0"/>
<circle cx="408.4" cy="176.7" r="4" fill="#9b59b6" stroke="white" opacity="1.0"/>
<circle cx="434.1" cy="178.0" r="4" fill="#9b59b6" stroke="white" opacity="1.0"/>
<circle cx="459.9" cy="172.9" r="4" fill="#9b59b6" stroke="white" opacity="1.0"/>
<circle cx="485.7" cy="166.4" r="4" fill="#9b59b6" stroke="white" opacity="1.0"/>
<circle cx="511.6" cy="163.8" r="4" fill="#9b59b6" stroke="white" opacity="1.0"/>
<circle cx="537.4" cy="175.5" r="4" fill="#9b59b6" stroke="white" opacity="1.0"/>
<circle cx="563.2" cy="176.7" r="4" fill="#9b59b6" stroke="white" opacity="1.0"/>
<circle cx="589.0" cy="180.6" r="4" fill="#9b59b6" stroke="white" opacity="1.0"/>
<circle cx="614.8" cy="181.9" r="4" fill="#9b59b6" stroke="white" opacity="1.0"/>
<circle cx="640.6" cy="171.6" r="4" fill="#9b59b6" stroke="white" opacity="1.0"/>
<circle cx="666.5" cy="166.4" r="4" fill="#9b59b6" stroke="white" opacity="1.0"/>
<circle cx="692.4" cy="166.4" r="4" fill="#9b59b6" stroke="white" opacity="1.0"/>
<circle cx="718.2" cy="161.2" r="4" fill="#9b59b6" stroke="white" opacity="1.0"/>
<circle cx="743.9" cy="170.3" r="4" fill="#9b59b6" stroke="white" opacity="1.0"/>
<circle cx="769.6" cy="184.5" r="4" fill="#9b59b6" stroke="white" opacity="1.0"/>
<circle cx="795.4" cy="181.9" r="4" fill="#9b59b6" stroke="white" opacity="1.0"/>
<circle cx="821.3" cy="176.7" r="4" fill="#9b59b6" stroke="white" opacity="1.0"/>
<circle cx="847.2" cy="178.0" r="4" fill="#9b59b6" stroke="white" opacity="1.0"/>
<circle cx="872.8" cy="178.0" r="4" fill="#9b59b6" stroke="white" opacity="1.0"/>
<circle cx="898.6" cy="171.6" r="4" fill="#9b59b6" stroke="white" opacity="1.0"/>
<circle cx="924.4" cy="169.0" r="4" fill="#9b59b6" stroke="white" opacity="1.0"/>
<circle cx="950.2" cy="163.8" r="4" fill="#9b59b6" stroke="white" opacity="1.0"/>
<circle cx="976.1" cy="159.9" r="4" fill="#9b59b6" stroke="white" opacity="1.0"/>
<circle cx="1001.9" cy="166.4" r="4" fill="#9b59b6" stroke="white" opacity="1.0"/>
<circle cx="1027.7" cy="174.2" r="4" fill="#9b59b6" stroke="white" opacity="1.0"/>
<circle cx="1053.5" cy="189.7" r="4" fill="#9b59b6" stroke="white" opacity="1.0"/>
</g>
<g class="series pmic-series" data-mode="PFM" data-chip="31927" data-temp="25" data-reg="DC2DC_ANA">
<path d="M 124.5,350.7 L 150.2,354.6 L 176.0,350.7 L 201.9,349.4 L 227.7,361.1 L 253.5,350.7 L 279.3,352.0 L 305.0,341.6 L 330.8,354.6 L 356.8,354.6 L 382.6,349.4 L 408.4,346.8 L 434.1,342.9 L 459.9,342.9 L 485.7,359.8 L 511.6,355.9 L 537.4,349.4 L 563.2,345.5 L 589.0,345.5 L 614.8,341.6 L 640.6,339.0 L 666.5,354.6 L 692.4,350.7 L 718.1,350.7 L 743.9,349.4 L 769.6,350.7 L 795.4,341.6 L 821.3,339.0 L 847.2,340.3 L 872.9,344.2 L 898.6,352.0 L 924.4,354.6 L 950.2,353.3 L 976.1,350.7 L 1001.9,341.6 L 1027.7,342.9 L 1053.5,344.2" fill="none" stroke="#1abc9c" stroke-width="2.2" stroke-linejoin="round" opacity="0.9"/>
<circle cx="124.5" cy="350.7" r="4" fill="#1abc9c" stroke="white" opacity="1.0"/>
<circle cx="150.2" cy="354.6" r="4" fill="#1abc9c" stroke="white" opacity="1.0"/>
<circle cx="176.0" cy="350.7" r="4" fill="#1abc9c" stroke="white" opacity="1.0"/>
<circle cx="201.9" cy="349.4" r="4" fill="#1abc9c" stroke="white" opacity="1.0"/>
<circle cx="227.7" cy="361.1" r="4" fill="#1abc9c" stroke="white" opacity="1.0"/>
<circle cx="253.5" cy="350.7" r="4" fill="#1abc9c" stroke="white" opacity="1.0"/>
<circle cx="279.3" cy="352.0" r="4" fill="#1abc9c" stroke="white" opacity="1.0"/>
<circle cx="305.0" cy="341.6" r="4" fill="#1abc9c" stroke="white" opacity="1.0"/>
<circle cx="330.8" cy="354.6" r="4" fill="#1abc9c" stroke="white" opacity="1.0"/>
<circle cx="356.8" cy="354.6" r="4" fill="#1abc9c" stroke="white" opacity="1.0"/>
<circle cx="382.6" cy="349.4" r="4" fill="#1abc9c" stroke="white" opacity="1.0"/>
<circle cx="408.4" cy="346.8" r="4" fill="#1abc9c" stroke="white" opacity="1.0"/>
<circle cx="434.1" cy="342.9" r="4" fill="#1abc9c" stroke="white" opacity="1.0"/>
<circle cx="459.9" cy="342.9" r="4" fill="#1abc9c" stroke="white" opacity="1.0"/>
<circle cx="485.7" cy="359.8" r="4" fill="#1abc9c" stroke="white" opacity="1.0"/>
<circle cx="511.6" cy="355.9" r="4" fill="#1abc9c" stroke="white" opacity="1.0"/>
<circle cx="537.4" cy="349.4" r="4" fill="#1abc9c" stroke="white" opacity="1.0"/>
<circle cx="563.2" cy="345.5" r="4" fill="#1abc9c" stroke="white" opacity="1.0"/>
<circle cx="589.0" cy="345.5" r="4" fill="#1abc9c" stroke="white" opacity="1.0"/>
<circle cx="614.8" cy="341.6" r="4" fill="#1abc9c" stroke="white" opacity="1.0"/>
<circle cx="640.6" cy="339.0" r="4" fill="#1abc9c" stroke="white" opacity="1.0"/>
<circle cx="666.5" cy="354.6" r="4" fill="#1abc9c" stroke="white" opacity="1.0"/>
<circle cx="692.4" cy="350.7" r="4" fill="#1abc9c" stroke="white" opacity="1.0"/>
<circle cx="718.1" cy="350.7" r="4" fill="#1abc9c" stroke="white" opacity="1.0"/>
<circle cx="743.9" cy="349.4" r="4" fill="#1abc9c" stroke="white" opacity="1.0"/>
<circle cx="769.6" cy="350.7" r="4" fill="#1abc9c" stroke="white" opacity="1.0"/>
<circle cx="795.4" cy="341.6" r="4" fill="#1abc9c" stroke="white" opacity="1.0"/>
<circle cx="821.3" cy="339.0" r="4" fill="#1abc9c" stroke="white" opacity="1.0"/>
<circle cx="847.2" cy="340.3" r="4" fill="#1abc9c" stroke="white" opacity="1.0"/>
<circle cx="872.9" cy="344.2" r="4" fill="#1abc9c" stroke="white" opacity="1.0"/>
<circle cx="898.6" cy="352.0" r="4" fill="#1abc9c" stroke="white" opacity="1.0"/>
<circle cx="924.4" cy="354.6" r="4" fill="#1abc9c" stroke="white" opacity="1.0"/>
<circle cx="950.2" cy="353.3" r="4" fill="#1abc9c" stroke="white" opacity="1.0"/>
<circle cx="976.1" cy="350.7" r="4" fill="#1abc9c" stroke="white" opacity="1.0"/>
<circle cx="1001.9" cy="341.6" r="4" fill="#1abc9c" stroke="white" opacity="1.0"/>
<circle cx="1027.7" cy="342.9" r="4" fill="#1abc9c" stroke="white" opacity="1.0"/>
<circle cx="1053.5" cy="344.2" r="4" fill="#1abc9c" stroke="white" opacity="1.0"/>
</g>
<g class="series pmic-series" data-mode="PFM" data-chip="31927" data-temp="80" data-reg="DC2DC_ANA">
<path d="M 124.5,400.1 L 150.2,404.0 L 176.0,402.7 L 201.9,402.7 L 227.7,407.9 L 253.5,409.2 L 279.3,404.0 L 305.0,398.8 L 330.8,402.7 L 356.7,414.3 L 382.6,410.4 L 408.4,406.6 L 434.1,397.5 L 459.9,394.9 L 485.7,405.3 L 511.6,410.4 L 537.4,409.2 L 563.2,402.7 L 589.0,406.6 L 614.8,397.5 L 640.6,398.8 L 666.5,414.3 L 692.3,407.9 L 718.1,409.2 L 743.9,402.7 L 769.6,398.8 L 795.4,397.5 L 821.3,394.9 L 847.2,393.6 L 872.8,396.2 L 898.6,409.2 L 924.4,405.3 L 950.2,405.3 L 976.1,400.1 L 1001.9,401.4 L 1027.7,398.8 L 1053.5,398.8" fill="none" stroke="#e74c3c" stroke-width="2.2" stroke-linejoin="round" opacity="0.9"/>
<circle cx="124.5" cy="400.1" r="4" fill="#e74c3c" stroke="white" opacity="1.0"/>
<circle cx="150.2" cy="404.0" r="4" fill="#e74c3c" stroke="white" opacity="1.0"/>
<circle cx="176.0" cy="402.7" r="4" fill="#e74c3c" stroke="white" opacity="1.0"/>
<circle cx="201.9" cy="402.7" r="4" fill="#e74c3c" stroke="white" opacity="1.0"/>
<circle cx="227.7" cy="407.9" r="4" fill="#e74c3c" stroke="white" opacity="1.0"/>
<circle cx="253.5" cy="409.2" r="4" fill="#e74c3c" stroke="white" opacity="1.0"/>
<circle cx="279.3" cy="404.0" r="4" fill="#e74c3c" stroke="white" opacity="1.0"/>
<circle cx="305.0" cy="398.8" r="4" fill="#e74c3c" stroke="white" opacity="1.0"/>
<circle cx="330.8" cy="402.7" r="4" fill="#e74c3c" stroke="white" opacity="1.0"/>
<circle cx="356.7" cy="414.3" r="4" fill="#e74c3c" stroke="white" opacity="1.0"/>
<circle cx="382.6" cy="410.4" r="4" fill="#e74c3c" stroke="white" opacity="1.0"/>
<circle cx="408.4" cy="406.6" r="4" fill="#e74c3c" stroke="white" opacity="1.0"/>
<circle cx="434.1" cy="397.5" r="4" fill="#e74c3c" stroke="white" opacity="1.0"/>
<circle cx="459.9" cy="394.9" r="4" fill="#e74c3c" stroke="white" opacity="1.0"/>
<circle cx="485.7" cy="405.3" r="4" fill="#e74c3c" stroke="white" opacity="1.0"/>
<circle cx="511.6" cy="410.4" r="4" fill="#e74c3c" stroke="white" opacity="1.0"/>
<circle cx="537.4" cy="409.2" r="4" fill="#e74c3c" stroke="white" opacity="1.0"/>
<circle cx="563.2" cy="402.7" r="4" fill="#e74c3c" stroke="white" opacity="1.0"/>
<circle cx="589.0" cy="406.6" r="4" fill="#e74c3c" stroke="white" opacity="1.0"/>
<circle cx="614.8" cy="397.5" r="4" fill="#e74c3c" stroke="white" opacity="1.0"/>
<circle cx="640.6" cy="398.8" r="4" fill="#e74c3c" stroke="white" opacity="1.0"/>
<circle cx="666.5" cy="414.3" r="4" fill="#e74c3c" stroke="white" opacity="1.0"/>
<circle cx="692.3" cy="407.9" r="4" fill="#e74c3c" stroke="white" opacity="1.0"/>
<circle cx="718.1" cy="409.2" r="4" fill="#e74c3c" stroke="white" opacity="1.0"/>
<circle cx="743.9" cy="402.7" r="4" fill="#e74c3c" stroke="white" opacity="1.0"/>
<circle cx="769.6" cy="398.8" r="4" fill="#e74c3c" stroke="white" opacity="1.0"/>
<circle cx="795.4" cy="397.5" r="4" fill="#e74c3c" stroke="white" opacity="1.0"/>
<circle cx="821.3" cy="394.9" r="4" fill="#e74c3c" stroke="white" opacity="1.0"/>
<circle cx="847.2" cy="393.6" r="4" fill="#e74c3c" stroke="white" opacity="1.0"/>
<circle cx="872.8" cy="396.2" r="4" fill="#e74c3c" stroke="white" opacity="1.0"/>
<circle cx="898.6" cy="409.2" r="4" fill="#e74c3c" stroke="white" opacity="1.0"/>
<circle cx="924.4" cy="405.3" r="4" fill="#e74c3c" stroke="white" opacity="1.0"/>
<circle cx="950.2" cy="405.3" r="4" fill="#e74c3c" stroke="white" opacity="1.0"/>
<circle cx="976.1" cy="400.1" r="4" fill="#e74c3c" stroke="white" opacity="1.0"/>
<circle cx="1001.9" cy="401.4" r="4" fill="#e74c3c" stroke="white" opacity="1.0"/>
<circle cx="1027.7" cy="398.8" r="4" fill="#e74c3c" stroke="white" opacity="1.0"/>
<circle cx="1053.5" cy="398.8" r="4" fill="#e74c3c" stroke="white" opacity="1.0"/>
</g>
<g class="legend-item" data-mode="PFM" data-chip="21988" data-temp="0" data-reg="DC2DC_ANA">
<rect x="1116.0" y="69.0" width="22.0" height="4.0" fill="#3498db" stroke="none" stroke-width="1" opacity="1.0" rx="2"/>
<circle cx="1127.0" cy="71.0" r="4" fill="#3498db" stroke="none" opacity="1.0"/>
<text x="1144.0" y="76.0" font-size="9" font-weight="normal" text-anchor="start" fill="#333" font-family="Arial,sans-serif">Chip 21988 | T=0°C</text>
</g>
<g class="legend-item" data-mode="PFM" data-chip="21988" data-temp="25" data-reg="DC2DC_ANA">
<rect x="1116.0" y="86.0" width="22.0" height="4.0" fill="#e67e22" stroke="none" stroke-width="1" opacity="1.0" rx="2"/>
<circle cx="1127.0" cy="88.0" r="4" fill="#e67e22" stroke="none" opacity="1.0"/>
<text x="1144.0" y="93.0" font-size="9" font-weight="normal" text-anchor="start" fill="#333" font-family="Arial,sans-serif">Chip 21988 | T=25°C</text>
</g>
<g class="legend-item" data-mode="PFM" data-chip="21988" data-temp="80" data-reg="DC2DC_ANA">
<rect x="1116.0" y="103.0" width="22.0" height="4.0" fill="#2ecc71" stroke="none" stroke-width="1" opacity="1.0" rx="2"/>
<circle cx="1127.0" cy="105.0" r="4" fill="#2ecc71" stroke="none" opacity="1.0"/>
<text x="1144.0" y="110.0" font-size="9" font-weight="normal" text-anchor="start" fill="#333" font-family="Arial,sans-serif">Chip 21988 | T=80°C</text>
</g>
<g class="legend-item" data-mode="PFM" data-chip="31927" data-temp="0" data-reg="DC2DC_ANA">
<rect x="1116.0" y="120.0" width="22.0" height="4.0" fill="#9b59b6" stroke="none" stroke-width="1" opacity="1.0" rx="2"/>
<circle cx="1127.0" cy="122.0" r="4" fill="#9b59b6" stroke="none" opacity="1.0"/>
<text x="1144.0" y="127.0" font-size="9" font-weight="normal" text-anchor="start" fill="#333" font-family="Arial,sans-serif">Chip 31927 | T=0°C</text>
</g>
<g class="legend-item" data-mode="PFM" data-chip="31927" data-temp="25" data-reg="DC2DC_ANA">
<rect x="1116.0" y="137.0" width="22.0" height="4.0" fill="#1abc9c" stroke="none" stroke-width="1" opacity="1.0" rx="2"/>
<circle cx="1127.0" cy="139.0" r="4" fill="#1abc9c" stroke="none" opacity="1.0"/>
<text x="1144.0" y="144.0" font-size="9" font-weight="normal" text-anchor="start" fill="#333" font-family="Arial,sans-serif">Chip 31927 | T=25°C</text>
</g>
<g class="legend-item" data-mode="PFM" data-chip="31927" data-temp="80" data-reg="DC2DC_ANA">
<rect x="1116.0" y="154.0" width="22.0" height="4.0" fill="#e74c3c" stroke="none" stroke-width="1" opacity="1.0" rx="2"/>
<circle cx="1127.0" cy="156.0" r="4" fill="#e74c3c" stroke="none" opacity="1.0"/>
<text x="1144.0" y="161.0" font-size="9" font-weight="normal" text-anchor="start" fill="#333" font-family="Arial,sans-serif">Chip 31927 | T=80°C</text>
</g>
<rect class="cursor-overlay" x="78.0" y="68.0" width="1022.0" height="372.0" fill="transparent" style="cursor:default" data-xmin="2.446395" data-xmax="3.634505" data-ymin="1.005824" data-ymax="1.034476" data-pl="78.0" data-pr="1100.0" data-pt="68.0" data-pb="440.0"/>
<g class="cursor-layer" style="pointer-events:none;display:none"><line class="cur-v" x1="0" y1="68.0" x2="0" y2="440.0" stroke="#e74c3c" stroke-width="1.2" stroke-dasharray="5,3"/><line class="cur-h" x1="78.0" y1="0" x2="1100.0" y2="0" stroke="#e74c3c" stroke-width="1.2" stroke-dasharray="5,3"/><rect class="cur-tip-bg" x="0" y="0" width="148" height="44" rx="5" fill="#1a252f" stroke="#34495e" stroke-width="1" opacity="0.92"/><text class="cur-tip-x" x="0" y="0" font-size="11" font-family="Arial,sans-serif" fill="#ecf0f1"/><text class="cur-tip-y" x="0" y="0" font-size="11" font-family="Arial,sans-serif" fill="#2ecc71"/></g>
</svg>