<svg xmlns="http://www.w3.org/2000/svg" width="1400" height="520" viewBox="0 0 1400 520">
<rect width="1400" height="520" fill="#ffffff"/>
<text x="700.0" y="28.0" font-size="16" font-weight="bold" text-anchor="middle" fill="#2c3e50" font-family="Arial,sans-serif">Static Line Regulation — Analog DC2DC  Vout=1.2V  [PFM]  Iload=200mA</text>
<line x1="78.0" y1="68.0" x2="78.0" y2="440.0" stroke="#999" stroke-width="1"/>
<line x1="73.0" y1="440.0" x2="78.0" y2="440.0" stroke="#999" stroke-width="1"/>
<line x1="78.0" y1="440.0" x2="1100.0" y2="440.0" stroke="#e8e8e8" stroke-width="0.7" stroke-dasharray="4,3"/>
<text x="70.0" y="444.0" font-size="9" font-weight="normal" text-anchor="end" fill="#888" font-family="Arial,sans-serif">1.19</text>
<line x1="73.0" y1="365.6" x2="78.0" y2="365.6" stroke="#999" stroke-width="1"/>
<line x1="78.0" y1="365.6" x2="1100.0" y2="365.6" stroke="#e8e8e8" stroke-width="0.7" stroke-dasharray="4,3"/>
<text x="70.0" y="369.6" font-size="9" font-weight="normal" text-anchor="end" fill="#888" font-family="Arial,sans-serif">1.2</text>
<line x1="73.0" y1="291.2" x2="78.0" y2="291.2" stroke="#999" stroke-width="1"/>
<line x1="78.0" y1="291.2" x2="1100.0" y2="291.2" stroke="#e8e8e8" stroke-width="0.7" stroke-dasharray="4,3"/>
<text x="70.0" y="295.2" font-size="9" font-weight="normal" text-anchor="end" fill="#888" font-family="Arial,sans-serif">1.2</text>
<line x1="73.0" y1="216.8" x2="78.0" y2="216.8" stroke="#999" stroke-width="1"/>
<line x1="78.0" y1="216.8" x2="1100.0" y2="216.8" stroke="#e8e8e8" stroke-width="0.7" stroke-dasharray="4,3"/>
<text x="70.0" y="220.8" font-size="9" font-weight="normal" text-anchor="end" fill="#888" font-family="Arial,sans-serif">1.21</text>
<line x1="73.0" y1="142.4" x2="78.0" y2="142.4" stroke="#999" stroke-width="1"/>
<line x1="78.0" y1="142.4" x2="1100.0" y2="142.4" stroke="#e8e8e8" stroke-width="0.7" stroke-dasharray="4,3"/>
<text x="70.0" y="146.4" font-size="9" font-weight="normal" text-anchor="end" fill="#888" font-family="Arial,sans-serif">1.21</text>
<line x1="73.0" y1="68.0" x2="78.0" y2="68.0" stroke="#999" stroke-width="1"/>
<line x1="78.0" y1="68.0" x2="1100.0" y2="68.0" stroke="#e8e8e8" stroke-width="0.7" stroke-dasharray="4,3"/>
<text x="70.0" y="72.0" font-size="9" font-weight="normal" text-anchor="end" fill="#888" font-family="Arial,sans-serif">1.22</text>
<line x1="78.0" y1="440.0" x2="1100.0" y2="440.0" stroke="#999" stroke-width="1"/>
<line x1="78.0" y1="440.0" x2="78.0" y2="445.0" stroke="#999" stroke-width="1"/>
<line x1="78.0" y1="68.0" x2="78.0" y2="440.0" stroke="#e8e8e8" stroke-width="0.7" stroke-dasharray="4,3"/>
<text x="78.0" y="456.0" font-size="9" font-weight="normal" text-anchor="middle" fill="#888" font-family="Arial,sans-serif">2.45</text>
<line x1="224.0" y1="440.0" x2="224.0" y2="445.0" stroke="#999" stroke-width="1"/>
<line x1="224.0" y1="68.0" x2="224.0" y2="440.0" stroke="#e8e8e8" stroke-width="0.7" stroke-dasharray="4,3"/>
<text x="224.0" y="456.0" font-size="9" font-weight="normal" text-anchor="middle" fill="#888" font-family="Arial,sans-serif">2.62</text>
<line x1="370.0" y1="440.0" x2="370.0" y2="445.0" stroke="#999" stroke-width="1"/>
<line x1="370.0" y1="68.0" x2="370.0" y2="440.0" stroke="#e8e8e8" stroke-width="0.7" stroke-dasharray="4,3"/>
<text x="370.0" y="456.0" font-size="9" font-weight="normal" text-anchor="middle" fill="#888" font-family="Arial,sans-serif">2.79</text>
<line x1="516.0" y1="440.0" x2="516.0" y2="445.0" stroke="#999" stroke-width="1"/>
<line x1="516.0" y1="68.0" x2="516.0" y2="440.0" stroke="#e8e8e8" stroke-width="0.7" stroke-dasharray="4,3"/>
<text x="516.0" y="456.0" font-size="9" font-weight="normal" text-anchor="middle" fill="#888" font-family="Arial,sans-serif">2.96</text>
<line x1="662.0" y1="440.0" x2="662.0" y2="445.0" stroke="#999" stroke-width="1"/>
<line x1="662.0" y1="68.0" x2="662.0" y2="440.0" stroke="#e8e8e8" stroke-width="0.7" stroke-dasharray="4,3"/>
<text x="662.0" y="456.0" font-size="9" font-weight="normal" text-anchor="middle" fill="#888" font-family="Arial,sans-serif">3.13</text>
<line x1="808.0" y1="440.0" x2="808.0" y2="445.0" stroke="#999" stroke-width="1"/>
<line x1="808.0" y1="68.0" x2="808.0" y2="440.0" stroke="#e8e8e8" stroke-width="0.7" stroke-dasharray="4,3"/>
<text x="808.0" y="456.0" font-size="9" font-weight="normal" text-anchor="middle" fill="#888" font-family="Arial,sans-serif">3.3</text>
<line x1="954.0" y1="440.0" x2="954.0" y2="445.0" stroke="#999" stroke-width="1"/>
<line x1="954.0" y1="68.0" x2="954.0" y2="440.0" stroke="#e8e8e8" stroke-width="0.7" stroke-dasharray="4,3"/>
<text x="954.0" y="456.0" font-size="9" font-weight="normal" text-anchor="middle" fill="#888" font-family="Arial,sans-serif">3.46</text>
<line x1="1100.0" y1="440.0" x2="1100.0" y2="445.0" stroke="#999" stroke-width="1"/>
<line x1="1100.0" y1="68.0" x2="1100.0" y2="440.0" stroke="#e8e8e8" stroke-width="0.7" stroke-dasharray="4,3"/>
<text x="1100.0" y="456.0" font-size="9" font-weight="normal" text-anchor="middle" fill="#888" font-family="Arial,sans-serif">3.63</text>
<text x="16.0" y="254.0" font-size="11" font-weight="normal" text-anchor="middle" fill="#555" font-family="Arial,sans-serif" transform="rotate(-90,16,254.0)">Output Voltage  Vout [V]</text>
<text x="589.0" y="510.0" font-size="11" font-weight="normal" text-anchor="middle" fill="#555" font-family="Arial,sans-serif">Input Voltage  Vin [V]</text>
<g class="series pmic-series" data-mode="PFM" data-chip="21988" data-temp="0" data-reg="DC2DC_ANA">
<path d="M 124.5,207.0 L 150.2,199.6 L 176.0,193.6 L 201.9,207.0 L 227.7,199.6 L 253.5,192.1 L 279.3,187.6 L 305.1,198.1 L 330.9,201.0 L 356.8,189.1 L 382.6,192.1 L 408.4,196.6 L 434.1,205.5 L 459.9,207.0 L 485.7,201.0 L 511.6,190.6 L 537.4,195.1 L 563.2,193.6 L 589.0,214.5 L 614.8,210.0 L 640.6,199.6 L 666.5,196.6 L 692.4,189.1 L 718.2,183.1 L 743.9,186.1 L 769.6,192.1 L 795.4,211.5 L 821.3,205.5 L 847.2,204.0 L 872.9,190.6 L 898.6,187.6 L 924.5,190.6 L 950.2,189.1 L 976.1,178.7 L 1001.9,177.2 L 1027.7,181.7 L 1053.5,208.5" fill="none" stroke="#3498db" stroke-width="2.2" stroke-linejoin="round" opacity="0.9"/>
<circle cx="124.5" cy="207.0" r="4" fill="#3498db" stroke="white" opacity="1.0"/>
<circle cx="150.2" cy="199.6" r="4" fill="#3498db" stroke="white" opacity="1.0"/>
<circle cx="176.0" cy="193.6" r="4" fill="#3498db" stroke="white" opacity="1.0"/>
<circle cx="201.9" cy="207.0" r="4" fill="#3498db" stroke="white" opacity="1.0"/>
<circle cx="227.7" cy="199.6" r="4" fill="#3498db" stroke="white" opacity="1.0"/>
<circle cx="253.5" cy="192.1" r="4" fill="#3498db" stroke="white" opacity="1.0"/>
<circle cx="279.3" cy="187.6" r="4" fill="#3498db" stroke="white" opacity="1.0"/>
<circle cx="305.1" cy="198.1" r="4" fill="#3498db" stroke="white" opacity="1.0"/>
<circle cx="330.9" cy="201.0" r="4" fill="#3498db" stroke="white" opacity="1.0"/>
<circle cx="356.8" cy="189.1" r="4" fill="#3498db" stroke="white" opacity="1.0"/>
<circle cx="382.6" cy="192.1" r="4" fill="#3498db" stroke="white" opacity="1.0"/>
<circle cx="408.4" cy="196.6" r="4" fill="#3498db" stroke="white" opacity="1.0"/>
<circle cx="434.1" cy="205.5" r="4" fill="#3498db" stroke="white" opacity="1.0"/>
<circle cx="459.9" cy="207.0" r="4" fill="#3498db" stroke="white" opacity="1.0"/>
<circle cx="485.7" cy="201.0" r="4" fill="#3498db" stroke="white" opacity="1.0"/>
<circle cx="511.6" cy="190.6" r="4" fill="#3498db" stroke="white" opacity="1.0"/>
<circle cx="537.4" cy="195.1" r="4" fill="#3498db" stroke="white" opacity="1.0"/>
<circle cx="563.2" cy="193.6" r="4" fill="#3498db" stroke="white" opacity="1.0"/>
<circle cx="589.0" cy="214.5" r="4" fill="#3498db" stroke="white" opacity="1.0"/>
<circle cx="614.8" cy="210.0" r="4" fill="#3498db" stroke="white" opacity="1.0"/>
<circle cx="640.6" cy="199.6" r="4" fill="#3498db" stroke="white" opacity="1.0"/>
<circle cx="666.5" cy="196.6" r="4" fill="#3498db" stroke="white" opacity="1.0"/>
<circle cx="692.4" cy="189.1" r="4" fill="#3498db" stroke="white" opacity="1.0"/>
<circle cx="718.2" cy="183.1" r="4" fill="#3498db" stroke="white" opacity="1.0"/>
<circle cx="743.9" cy="186.1" r="4" fill="#3498db" stroke="white" opacity="1.0"/>
<circle cx="769.6" cy="192.1" r="4" fill="#3498db" stroke="white" opacity="1.0"/>
<circle cx="795.4" cy="211.5" r="4" fill="#3498db" stroke="white" opacity="1.0"/>
<circle cx="821.3" cy="205.5" r="4" fill="#3498db" stroke="white" opacity="1.0"/>
<circle cx="847.2" cy="204.0" r="4" fill="#3498db" stroke="white" opacity="1.0"/>
<circle cx="872.9" cy="190.6" r="4" fill="#3498db" stroke="white" opacity="1.0"/>
<circle cx="898.6" cy="187.6" r="4" fill="#3498db" stroke="white" opacity="1.0"/>
<circle cx="924.5" cy="190.6" r="4" fill="#3498db" stroke="white" opacity="1.0"/>
<circle cx="950.2" cy="189.1" r="4" fill="#3498db" stroke="white" opacity="1.0"/>
<circle cx="976.1" cy="178.7" r="4" fill="#3498db" stroke="white" opacity="1.0"/>
<circle cx="1001.9" cy="177.2" r="4" fill="#3498db" stroke="white" opacity="1.0"/>
<circle cx="1027.7" cy="181.7" r="4" fill="#3498db" stroke="white" opacity="1.0"/>
<circle cx="1053.5" cy="208.5" r="4" fill="#3498db" stroke="white" opacity="1.0"/>
</g>
<g class="series pmic-series" data-mode="PFM" data-chip="21988" data-temp="25" data-reg="DC2DC_ANA">
<path d="M 124.5,184.6 L 150.2,177.2 L 176.0,172.7 L 201.9,183.1 L 227.7,175.7 L 253.5,171.2 L 279.3,181.7 L 305.1,180.2 L 330.9,171.2 L 356.7,168.2 L 382.6,169.7 L 408.4,180.2 L 434.1,178.7 L 459.9,172.7 L 485.7,166.7 L 511.6,165.3 L 537.4,180.2 L 563.2,177.2 L 589.0,172.7 L 614.8,168.2 L 640.6,172.7 L 666.5,165.3 L 692.4,190.6 L 718.2,184.6 L 743.9,178.7 L 769.7,181.7 L 795.4,183.1 L 821.4,180.2 L 847.2,174.2 L 872.9,166.7 L 898.6,180.2 L 924.4,189.1 L 950.2,187.6 L 976.1,184.6 L 1001.9,178.7 L 1027.7,178.7 L 1053.5,174.2" fill="none" stroke="#e67e22" stroke-width="2.2" stroke-linejoin="round" opacity="0.9"/>
<circle cx="124.5" cy="184.6" r="4" fill="#e67e22" stroke="white" opacity="1.0"/>
<circle cx="150.2" cy="177.2" r="4" fill="#e67e22" stroke="white" opacity="1.0"/>
<circle cx="176.0" cy="172.7" r="4" fill="#e67e22" stroke="white" opacity="1.0"/>
<circle cx="201.9" cy="183.1" r="4" fill="#e67e22" stroke="white" opacity="1.0"/>
<circle cx="227.7" cy="175.7" r="4" fill="#e67e22" stroke="white" opacity="1.0"/>
<circle cx="253.5" cy="171.2" r="4" fill="#e67e22" stroke="white" opacity="1.0"/>
<circle cx="279.3" cy="181.7" r="4" fill="#e67e22" stroke="white" opacity="1.0"/>
<circle cx="305.1" cy="180.2" r="4" fill="#e67e22" stroke="white" opacity="1.0"/>
<circle cx="330.9" cy="171.2" r="4" fill="#e67e22" stroke="white" opacity="1.0"/>
<circle cx="356.7" cy="168.2" r="4" fill="#e67e22" stroke="white" opacity="1.0"/>
<circle cx="382.6" cy="169.7" r="4" fill="#e67e22" stroke="white" opacity="1.0"/>
<circle cx="408.4" cy="180.2" r="4" fill="#e67e22" stroke="white" opacity="1.0"/>
<circle cx="434.1" cy="178.7" r="4" fill="#e67e22" stroke="white" opacity="1.0"/>
<circle cx="459.9" cy="172.7" r="4" fill="#e67e22" stroke="white" opacity="1.0"/>
<circle cx="485.7" cy="166.7" r="4" fill="#e67e22" stroke="white" opacity="1.0"/>
<circle cx="511.6" cy="165.3" r="4" fill="#e67e22" stroke="white" opacity="1.0"/>
<circle cx="537.4" cy="180.2" r="4" fill="#e67e22" stroke="white" opacity="1.0"/>
<circle cx="563.2" cy="177.2" r="4" fill="#e67e22" stroke="white" opacity="1.0"/>
<circle cx="589.0" cy="172.7" r="4" fill="#e67e22" stroke="white" opacity="1.0"/>
<circle cx="614.8" cy="168.2" r="4" fill="#e67e22" stroke="white" opacity="1.0"/>
<circle cx="640.6" cy="172.7" r="4" fill="#e67e22" stroke="white" opacity="1.0"/>
<circle cx="666.5" cy="165.3" r="4" fill="#e67e22" stroke="white" opacity="1.0"/>
<circle cx="692.4" cy="190.6" r="4" fill="#e67e22" stroke="white" opacity="1.0"/>
<circle cx="718.2" cy="184.6" r="4" fill="#e67e22" stroke="white" opacity="1.0"/>
<circle cx="743.9" cy="178.7" r="4" fill="#e67e22" stroke="white" opacity="1.0"/>
<circle cx="769.7" cy="181.7" r="4" fill="#e67e22" stroke="white" opacity="1.0"/>
<circle cx="795.4" cy="183.1" r="4" fill="#e67e22" stroke="white" opacity="1.0"/>
<circle cx="821.4" cy="180.2" r="4" fill="#e67e22" stroke="white" opacity="1.0"/>
<circle cx="847.2" cy="174.2" r="4" fill="#e67e22" stroke="white" opacity="1.0"/>
<circle cx="872.9" cy="166.7" r="4" fill="#e67e22" stroke="white" opacity="1.0"/>
<circle cx="898.6" cy="180.2" r="4" fill="#e67e22" stroke="white" opacity="1.0"/>
<circle cx="924.4" cy="189.1" r="4" fill="#e67e22" stroke="white" opacity="1.0"/>
<circle cx="950.2" cy="187.6" r="4" fill="#e67e22" stroke="white" opacity="1.0"/>
<circle cx="976.1" cy="184.6" r="4" fill="#e67e22" stroke="white" opacity="1.0"/>
<circle cx="1001.9" cy="178.7" r="4" fill="#e67e22" stroke="white" opacity="1.0"/>
<circle cx="1027.7" cy="178.7" r="4" fill="#e67e22" stroke="white" opacity="1.0"/>
<circle cx="1053.5" cy="174.2" r="4" fill="#e67e22" stroke="white" opacity="1.0"/>
</g>
<g class="series pmic-series" data-mode="PFM" data-chip="21988" data-temp="80" data-reg="DC2DC_ANA">
<path d="M 124.5,120.5 L 150.2,113.0 L 176.0,125.0 L 201.9,119.0 L 227.7,107.1 L 253.5,117.5 L 279.3,123.5 L 305.0,120.5 L 330.8,114.5 L 356.7,110.1 L 382.6,116.0 L 408.4,123.5 L 434.1,114.5 L 459.9,113.0 L 485.7,110.1 L 511.6,113.0 L 537.4,117.5 L 563.2,116.0 L 589.0,110.1 L 614.8,110.1 L 640.6,102.6 L 666.5,107.1 L 692.4,119.0 L 718.2,111.6 L 743.9,116.0 L 769.6,111.6 L 795.4,101.1 L 821.4,93.7 L 847.2,93.7 L 872.9,108.6 L 898.6,119.0 L 924.5,111.6 L 950.2,110.1 L 976.1,105.6 L 1001.9,104.1 L 1027.7,101.1 L 1053.5,95.1" fill="none" stroke="#2ecc71" stroke-width="2.2" stroke-linejoin="round" opacity="0.9"/>
<circle cx="124.5" cy="120.5" r="4" fill="#2ecc71" stroke="white" opacity="1.0"/>
<circle cx="150.2" cy="113.0" r="4" fill="#2ecc71" stroke="white" opacity="1.0"/>
<circle cx="176.0" cy="125.0" r="4" fill="#2ecc71" stroke="white" opacity="1.0"/>
<circle cx="201.9" cy="119.0" r="4" fill="#2ecc71" stroke="white" opacity="1.0"/>
<circle cx="227.7" cy="107.1" r="4" fill="#2ecc71" stroke="white" opacity="1.0"/>
<circle cx="253.5" cy="117.5" r="4" fill="#2ecc71" stroke="white" opacity="1.0"/>
<circle cx="279.3" cy="123.5" r="4" fill="#2ecc71" stroke="white" opacity="1.0"/>
<circle cx="305.0" cy="120.5" r="4" fill="#2ecc71" stroke="white" opacity="1.0"/>
<circle cx="330.8" cy="114.5" r="4" fill="#2ecc71" stroke="white" opacity="1.0"/>
<circle cx="356.7" cy="110.1" r="4" fill="#2ecc71" stroke="white" opacity="1.0"/>
<circle cx="382.6" cy="116.0" r="4" fill="#2ecc71" stroke="white" opacity="1.0"/>
<circle cx="408.4" cy="123.5" r="4" fill="#2ecc71" stroke="white" opacity="1.0"/>
<circle cx="434.1" cy="114.5" r="4" fill="#2ecc71" stroke="white" opacity="1.0"/>
<circle cx="459.9" cy="113.0" r="4" fill="#2ecc71" stroke="white" opacity="1.0"/>
<circle cx="485.7" cy="110.1" r="4" fill="#2ecc71" stroke="white" opacity="1.0"/>
<circle cx="511.6" cy="113.0" r="4" fill="#2ecc71" stroke="white" opacity="1.0"/>
<circle cx="537.4" cy="117.5" r="4" fill="#2ecc71" stroke="white" opacity="1.0"/>
<circle cx="563.2" cy="116.0" r="4" fill="#2ecc71" stroke="white" opacity="1.0"/>
<circle cx="589.0" cy="110.1" r="4" fill="#2ecc71" stroke="white" opacity="1.0"/>
<circle cx="614.8" cy="110.1" r="4" fill="#2ecc71" stroke="white" opacity="1.0"/>
<circle cx="640.6" cy="102.6" r="4" fill="#2ecc71" stroke="white" opacity="1.0"/>
<circle cx="666.5" cy="107.1" r="4" fill="#2ecc71" stroke="white" opacity="1.0"/>
<circle cx="692.4" cy="119.0" r="4" fill="#2ecc71" stroke="white" opacity="1.0"/>
<circle cx="718.2" cy="111.6" r="4" fill="#2ecc71" stroke="white" opacity="1.0"/>
<circle cx="743.9" cy="116.0" r="4" fill="#2ecc71" stroke="white" opacity="1.0"/>
<circle cx="769.6" cy="111.6" r="4" fill="#2ecc71" stroke="white" opacity="1.0"/>
<circle cx="795.4" cy="101.1" r="4" fill="#2ecc71" stroke="white" opacity="1.0"/>
<circle cx="821.4" cy="93.7" r="4" fill="#2ecc71" stroke="white" opacity="1.0"/>
<circle cx="847.2" cy="93.7" r="4" fill="#2ecc71" stroke="white" opacity="1.0"/>
<circle cx="872.9" cy="108.6" r="4" fill="#2ecc71" stroke="white" opacity="1.0"/>
<circle cx="898.6" cy="119.0" r="4" fill="#2ecc71" stroke="white" opacity="1.0"/>
<circle cx="924.5" cy="111.6" r="4" fill="#2ecc71" stroke="white" opacity="1.0"/>
<circle cx="950.2" cy="110.1" r="4" fill="#2ecc71" stroke="white" opacity="1.0"/>
<circle cx="976.1" cy="105.6" r="4" fill="#2ecc71" stroke="white" opacity="1.0"/>
<circle cx="1001.9" cy="104.1" r="4" fill="#2ecc71" stroke="white" opacity="1.0"/>
<circle cx="1027.7" cy="101.1" r="4" fill="#2ecc71" stroke="white" opacity="1.0"/>
<circle cx="1053.5" cy="95.1" r="4" fill="#2ecc71" stroke="white" opacity="1.0"/>
</g>
<g class="series pmic-series" data-mode="PFM" data-chip="31927" data-temp="0" data-reg="DC2DC_ANA">
<path d="M 124.5,128.0 L 150.2,136.9 L 176.0,123.5 L 201.9,117.5 L 227.7,132.4 L 253.5,133.9 L 279.3,123.5 L 305.0,114.5 L 330.8,116.0 L 356.7,141.4 L 382.6,133.9 L 408.4,119.0 L 434.1,114.5 L 459.9,113.0 L 485.7,110.1 L 511.6,132.4 L 537.4,130.9 L 563.2,119.0 L 589.0,117.5 L 614.8,105.6 L 640.6,101.1 L 666.5,107.1 L 692.4,110.1 L 718.2,123.5 L 743.9,120.5 L 769.6,116.0 L 795.4,120.5 L 821.3,120.5 L 847.1,110.1 L 872.9,99.6 L 898.6,99.6 L 924.4,99.6 L 950.2,108.6 L 976.1,129.5 L 1001.9,129.5 L 1027.7,123.5 L 1053.5,117.5" fill="none" stroke="#9b59b6" stroke-width="2.2" stroke-linejoin="round" opacity="0.9"/>
<circle cx="124.5" cy="128.0" r="4" fill="#9b59b6" stroke="white" opacity="1.0"/>
<circle cx="150.2" cy="136.9" r="4" fill="#9b59b6" stroke="white" opacity="1.0"/>
<circle cx="176.0" cy="123.5" r="4" fill="#9b59b6" stroke="white" opacity="1.0"/>
<circle cx="201.9" cy="117.5" r="4" fill="#9b59b6" stroke="white" opacity="1.0"/>
<circle cx="227.7" cy="132.4" r="4" fill="#9b59b6" stroke="white" opacity="1.0"/>
<circle cx="253.5" cy="133.9" r="4" fill="#9b59b6" stroke="white" opacity="1.0"/>
<circle cx="279.3" cy="123.5" r="4" fill="#9b59b6" stroke="white" opacity="1.0"/>
<circle cx="305.0" cy="114.5" r="4" fill="#9b59b6" stroke="white" opacity="1.0"/>
<circle cx="330.8" cy="116.0" r="4" fill="#9b59b6" stroke="white" opacity="1.0"/>
<circle cx="356.7" cy="141.4" r="4" fill="#9b59b6" stroke="white" opacity="1.0"/>
<circle cx="382.6" cy="133.9" r="4" fill="#9b59b6" stroke="white" opacity="1.0"/>
<circle cx="408.4" cy="119.0" r="4" fill="#9b59b6" stroke="white" opacity="1.0"/>
<circle cx="434.1" cy="114.5" r="4" fill="#9b59b6" stroke="white" opacity="1.0"/>
<circle cx="459.9" cy="113.0" r="4" fill="#9b59b6" stroke="white" opacity="1.0"/>
<circle cx="485.7" cy="110.1" r="4" fill="#9b59b6" stroke="white" opacity="1.0"/>
<circle cx="511.6" cy="132.4" r="4" fill="#9b59b6" stroke="white" opacity="1.0"/>
<circle cx="537.4" cy="130.9" r="4" fill="#9b59b6" stroke="white" opacity="1.0"/>
<circle cx="563.2" cy="119.0" r="4" fill="#9b59b6" stroke="white" opacity="1.0"/>
<circle cx="589.0" cy="117.5" r="4" fill="#9b59b6" stroke="white" opacity="1.0"/>
<circle cx="614.8" cy="105.6" r="4" fill="#9b59b6" stroke="white" opacity="1.0"/>
<circle cx="640.6" cy="101.1" r="4" fill="#9b59b6" stroke="white" opacity="1.0"/>
<circle cx="666.5" cy="107.1" r="4" fill="#9b59b6" stroke="white" opacity="1.0"/>
<circle cx="692.4" cy="110.1" r="4" fill="#9b59b6" stroke="white" opacity="1.0"/>
<circle cx="718.2" cy="123.5" r="4" fill="#9b59b6" stroke="white" opacity="1.0"/>
<circle cx="743.9" cy="120.5" r="4" fill="#9b59b6" stroke="white" opacity="1.0"/>
<circle cx="769.6" cy="116.0" r="4" fill="#9b59b6" stroke="white" opacity="1.0"/>
<circle cx="795.4" cy="120.5" r="4" fill="#9b59b6" stroke="white" opacity="1.0"/>
<circle cx="821.3" cy="120.5" r="4" fill="#9b59b6" stroke="white" opacity="1.0"/>
<circle cx="847.1" cy="110.1" r="4" fill="#9b59b6" stroke="white" opacity="1.0"/>
<circle cx="872.9" cy="99.6" r="4" fill="#9b59b6" stroke="white" opacity="1.0"/>
<circle cx="898.6" cy="99.6" r="4" fill="#9b59b6" stroke="white" opacity="1.0"/>
<circle cx="924.4" cy="99.6" r="4" fill="#9b59b6" stroke="white" opacity="1.0"/>
<circle cx="950.2" cy="108.6" r="4" fill="#9b59b6" stroke="white" opacity="1.0"/>
<circle cx="976.1" cy="129.5" r="4" fill="#9b59b6" stroke="white" opacity="1.0"/>
<circle cx="1001.9" cy="129.5" r="4" fill="#9b59b6" stroke="white" opacity="1.0"/>
<circle cx="1027.7" cy="123.5" r="4" fill="#9b59b6" stroke="white" opacity="1.0"/>
<circle cx="1053.5" cy="117.5" r="4" fill="#9b59b6" stroke="white" opacity="1.0"/>
</g>
<g class="series pmic-series" data-mode="PFM" data-chip="31927" data-temp="25" data-reg="DC2DC_ANA">
<path d="M 124.5,320.4 L 150.2,318.9 L 176.0,320.4 L 201.9,317.4 L 227.7,330.8 L 253.5,317.4 L 279.3,312.9 L 305.0,315.9 L 330.8,321.9 L 356.8,321.9 L 382.6,311.4 L 408.4,309.9 L 434.1,312.9 L 459.9,329.3 L 485.7,320.4 L 511.6,315.9 L 537.4,307.0 L 563.2,308.4 L 589.0,304.0 L 614.8,314.4 L 640.6,324.9 L 666.5,321.9 L 692.4,317.4 L 718.1,317.4 L 743.9,314.4 L 769.6,305.5 L 795.4,304.0 L 821.3,312.9 L 847.1,326.3 L 872.9,330.8 L 898.6,324.9 L 924.4,320.4 L 950.2,312.9 L 976.1,311.4 L 1001.9,308.4 L 1027.7,305.5 L 1053.5,296.5" fill="none" stroke="#1abc9c" stroke-width="2.2" stroke-linejoin="round" opacity="0.9"/>
<circle cx="124.5" cy="320.4" r="4" fill="#1abc9c" stroke="white" opacity="1.0"/>
<circle cx="150.2" cy="318.9" r="4" fill="#1abc9c" stroke="white" opacity="1.0"/>
<circle cx="176.0" cy="320.4" r="4" fill="#1abc9c" stroke="white" opacity="1.0"/>
<circle cx="201.9" cy="317.4" r="4" fill="#1abc9c" stroke="white" opacity="1.0"/>
<circle cx="227.7" cy="330.8" r="4" fill="#1abc9c" stroke="white" opacity="1.0"/>
<circle cx="253.5" cy="317.4" r="4" fill="#1abc9c" stroke="white" opacity="1.0"/>
<circle cx="279.3" cy="312.9" r="4" fill="#1abc9c" stroke="white" opacity="1.0"/>
<circle cx="305.0" cy="315.9" r="4" fill="#1abc9c" stroke="white" opacity="1.0"/>
<circle cx="330.8" cy="321.9" r="4" fill="#1abc9c" stroke="white" opacity="1.0"/>
<circle cx="356.8" cy="321.9" r="4" fill="#1abc9c" stroke="white" opacity="1.0"/>
<circle cx="382.6" cy="311.4" r="4" fill="#1abc9c" stroke="white" opacity="1.0"/>
<circle cx="408.4" cy="309.9" r="4" fill="#1abc9c" stroke="white" opacity="1.0"/>
<circle cx="434.1" cy="312.9" r="4" fill="#1abc9c" stroke="white" opacity="1.0"/>
<circle cx="459.9" cy="329.3" r="4" fill="#1abc9c" stroke="white" opacity="1.0"/>
<circle cx="485.7" cy="320.4" r="4" fill="#1abc9c" stroke="white" opacity="1.0"/>
<circle cx="511.6" cy="315.9" r="4" fill="#1abc9c" stroke="white" opacity="1.0"/>
<circle cx="537.4" cy="307.0" r="4" fill="#1abc9c" stroke="white" opacity="1.0"/>
<circle cx="563.2" cy="308.4" r="4" fill="#1abc9c" stroke="white" opacity="1.0"/>
<circle cx="589.0" cy="304.0" r="4" fill="#1abc9c" stroke="white" opacity="1.0"/>
<circle cx="614.8" cy="314.4" r="4" fill="#1abc9c" stroke="white" opacity="1.0"/>
<circle cx="640.6" cy="324.9" r="4" fill="#1abc9c" stroke="white" opacity="1.0"/>
<circle cx="666.5" cy="321.9" r="4" fill="#1abc9c" stroke="white" opacity="1.0"/>
<circle cx="692.4" cy="317.4" r="4" fill="#1abc9c" stroke="white" opacity="1.0"/>
<circle cx="718.1" cy="317.4" r="4" fill="#1abc9c" stroke="white" opacity="1.0"/>
<circle cx="743.9" cy="314.4" r="4" fill="#1abc9c" stroke="white" opacity="1.0"/>
<circle cx="769.6" cy="305.5" r="4" fill="#1abc9c" stroke="white" opacity="1.0"/>
<circle cx="795.4" cy="304.0" r="4" fill="#1abc9c" stroke="white" opacity="1.0"/>
<circle cx="821.3" cy="312.9" r="4" fill="#1abc9c" stroke="white" opacity="1.0"/>
<circle cx="847.1" cy="326.3" r="4" fill="#1abc9c" stroke="white" opacity="1.0"/>
<circle cx="872.9" cy="330.8" r="4" fill="#1abc9c" stroke="white" opacity="1.0"/>
<circle cx="898.6" cy="324.9" r="4" fill="#1abc9c" stroke="white" opacity="1.0"/>
<circle cx="924.4" cy="320.4" r="4" fill="#1abc9c" stroke="white" opacity="1.0"/>
<circle cx="950.2" cy="312.9" r="4" fill="#1abc9c" stroke="white" opacity="1.0"/>
<circle cx="976.1" cy="311.4" r="4" fill="#1abc9c" stroke="white" opacity="1.0"/>
<circle cx="1001.9" cy="308.4" r="4" fill="#1abc9c" stroke="white" opacity="1.0"/>
<circle cx="1027.7" cy="305.5" r="4" fill="#1abc9c" stroke="white" opacity="1.0"/>
<circle cx="1053.5" cy="296.5" r="4" fill="#1abc9c" stroke="white" opacity="1.0"/>
</g>
<g class="series pmic-series" data-mode="PFM" data-chip="31927" data-temp="80" data-reg="DC2DC_ANA">
<path d="M 124.5,402.4 L 150.2,406.9 L 176.0,400.9 L 201.9,411.4 L 227.7,414.3 L 253.5,406.9 L 279.3,390.5 L 305.0,400.9 L 330.8,406.9 L 356.7,403.9 L 382.6,400.9 L 408.4,399.4 L 434.1,399.4 L 459.9,405.4 L 485.7,409.9 L 511.6,403.9 L 537.4,403.9 L 563.2,395.0 L 589.0,395.0 L 614.8,389.0 L 640.6,402.4 L 666.5,406.9 L 692.4,396.4 L 718.1,390.5 L 743.9,383.0 L 769.6,384.5 L 795.4,374.1 L 821.3,386.0 L 847.1,405.4 L 872.9,403.9 L 898.6,399.4 L 924.4,396.4 L 950.2,393.5 L 976.1,389.0 L 1001.9,387.5 L 1027.7,386.0 L 1053.5,378.5" fill="none" stroke="#e74c3c" stroke-width="2.2" stroke-linejoin="round" opacity="0.9"/>
<circle cx="124.5" cy="402.4" r="4" fill="#e74c3c" stroke="white" opacity="1.0"/>
<circle cx="150.2" cy="406.9" r="4" fill="#e74c3c" stroke="white" opacity="1.0"/>
<circle cx="176.0" cy="400.9" r="4" fill="#e74c3c" stroke="white" opacity="1.0"/>
<circle cx="201.9" cy="411.4" r="4" fill="#e74c3c" stroke="white" opacity="1.0"/>
<circle cx="227.7" cy="414.3" r="4" fill="#e74c3c" stroke="white" opacity="1.0"/>
<circle cx="253.5" cy="406.9" r="4" fill="#e74c3c" stroke="white" opacity="1.0"/>
<circle cx="279.3" cy="390.5" r="4" fill="#e74c3c" stroke="white" opacity="1.0"/>
<circle cx="305.0" cy="400.9" r="4" fill="#e74c3c" stroke="white" opacity="1.0"/>
<circle cx="330.8" cy="406.9" r="4" fill="#e74c3c" stroke="white" opacity="1.0"/>
<circle cx="356.7" cy="403.9" r="4" fill="#e74c3c" stroke="white" opacity="1.0"/>
<circle cx="382.6" cy="400.9" r="4" fill="#e74c3c" stroke="white" opacity="1.0"/>
<circle cx="408.4" cy="399.4" r="4" fill="#e74c3c" stroke="white" opacity="1.0"/>
<circle cx="434.1" cy="399.4" r="4" fill="#e74c3c" stroke="white" opacity="1.0"/>
<circle cx="459.9" cy="405.4" r="4" fill="#e74c3c" stroke="white" opacity="1.0"/>
<circle cx="485.7" cy="409.9" r="4" fill="#e74c3c" stroke="white" opacity="1.0"/>
<circle cx="511.6" cy="403.9" r="4" fill="#e74c3c" stroke="white" opacity="1.0"/>
<circle cx="537.4" cy="403.9" r="4" fill="#e74c3c" stroke="white" opacity="1.0"/>
<circle cx="563.2" cy="395.0" r="4" fill="#e74c3c" stroke="white" opacity="1.0"/>
<circle cx="589.0" cy="395.0" r="4" fill="#e74c3c" stroke="white" opacity="1.0"/>
<circle cx="614.8" cy="389.0" r="4" fill="#e74c3c" stroke="white" opacity="1.0"/>
<circle cx="640.6" cy="402.4" r="4" fill="#e74c3c" stroke="white" opacity="1.0"/>
<circle cx="666.5" cy="406.9" r="4" fill="#e74c3c" stroke="white" opacity="1.0"/>
<circle cx="692.4" cy="396.4" r="4" fill="#e74c3c" stroke="white" opacity="1.0"/>
<circle cx="718.1" cy="390.5" r="4" fill="#e74c3c" stroke="white" opacity="1.0"/>
<circle cx="743.9" cy="383.0" r="4" fill="#e74c3c" stroke="white" opacity="1.0"/>
<circle cx="769.6" cy="384.5" r="4" fill="#e74c3c" stroke="white" opacity="1.0"/>
<circle cx="795.4" cy="374.1" r="4" fill="#e74c3c" stroke="white" opacity="1.0"/>
<circle cx="821.3" cy="386.0" r="4" fill="#e74c3c" stroke="white" opacity="1.0"/>
<circle cx="847.1" cy="405.4" r="4" fill="#e74c3c" stroke="white" opacity="1.0"/>
<circle cx="872.9" cy="403.9" r="4" fill="#e74c3c" stroke="white" opacity="1.0"/>
<circle cx="898.6" cy="399.4" r="4" fill="#e74c3c" stroke="white" opacity="1.0"/>
<circle cx="924.4" cy="396.4" r="4" fill="#e74c3c" stroke="white" opacity="1.0"/>
<circle cx="950.2" cy="393.5" r="4" fill="#e74c3c" stroke="white" opacity="1.0"/>
<circle cx="976.1" cy="389.0" r="4" fill="#e74c3c" stroke="white" opacity="1.0"/>
<circle cx="1001.9" cy="387.5" r="4" fill="#e74c3c" stroke="white" opacity="1.0"/>
<circle cx="1027.7" cy="386.0" r="4" fill="#e74c3c" stroke="white" opacity="1.0"/>
<circle cx="1053.5" cy="378.5" r="4" fill="#e74c3c" stroke="white" opacity="1.0"/>
</g>
<g class="legend-item" data-mode="PFM" data-chip="21988" data-temp="0" data-reg="DC2DC_ANA">
<rect x="1116.0" y="69.0" width="22.0" height="4.0" fill="#3498db" stroke="none" stroke-width="1" opacity="1.0" rx="2"/>
<circle cx="1127.0" cy="71.0" r="4" fill="#3498db" stroke="none" opacity="1.0"/>
<text x="1144.0" y="76.0" font-size="9" font-weight="normal" text-anchor="start" fill="#333" font-family="Arial,sans-serif">Chip 21988 | T=0°C</text>
</g>
<g class="legend-item" data-mode="PFM" data-chip="21988" data-temp="25" data-reg="DC2DC_ANA">
<rect x="1116.0" y="86.0" width="22.0" height="4.0" fill="#e67e22" stroke="none" stroke-width="1" opacity="1.0" rx="2"/>
<circle cx="1127.0" cy="88.0" r="4" fill="#e67e22" stroke="none" opacity="1.0"/>
<text x="1144.0" y="93.0" font-size="9" font-weight="normal" text-anchor="start" fill="#333" font-family="Arial,sans-serif">Chip 21988 | T=25°C</text>
</g>
<g class="legend-item" data-mode="PFM" data-chip="21988" data-temp="80" data-reg="DC2DC_ANA">
<rect x="1116.0" y="103.0" width="22.0" height="4.0" fill="#2ecc71" stroke="none" stroke-width="1" opacity="1.0" rx="2"/>
<circle cx="1127.0" cy="105.0" r="4" fill="#2ecc71" stroke="none" opacity="1.0"/>
<text x="1144.0" y="110.0" font-size="9" font-weight="normal" text-anchor="start" fill="#333" font-family="Arial,sans-serif">Chip 21988 | T=80°C</text>
</g>
<g class="legend-item" data-mode="PFM" data-chip="31927" data-temp="0" data-reg="DC2DC_ANA">
<rect x="1116.0" y="120.0" width="22.0" height="4.0" fill="#9b59b6" stroke="none" stroke-width="1" opacity="1.0" rx="2"/>
<circle cx="1127.0" cy="122.0" r="4" fill="#9b59b6" stroke="none" opacity="1.0"/>
<text x="1144.0" y="127.0" font-size="9" font-weight="normal" text-anchor="start" fill="#333" font-family="Arial,sans-serif">Chip 31927 | T=0°C</text>
</g>
<g class="legend-item" data-mode="PFM" data-chip="31927" data-temp="25" data-reg="DC2DC_ANA">
<rect x="1116.0" y="137.0" width="22.0" height="4.0" fill="#1abc9c" stroke="none" stroke-width="1" opacity="1.0" rx="2"/>
<circle cx="1127.0" cy="139.0" r="4" fill="#1abc9c" stroke="none" opacity="1.0"/>
<text x="1144.0" y="144.0" font-size="9" font-weight="normal" text-anchor="start" fill="#333" font-family="Arial,sans-serif">Chip 31927 | T=25°C</text>
</g>
<g class="legend-item" data-mode="PFM" data-chip="31927" data-temp="80" data-reg="DC2DC_ANA">
<rect x="1116.0" y="154.0" width="22.0" height="4.0" fill="#e74c3c" stroke="none" stroke-width="1" opacity="1.0" rx="2"/>
<circle cx="1127.0" cy="156.0" r="4" fill="#e74c3c" stroke="none" opacity="1.0"/>
<text x="1144.0" y="161.0" font-size="9" font-weight="normal" text-anchor="start" fill="#333" font-family="Arial,sans-serif">Chip 31927 | T=80°C</text>
</g>
<rect class="cursor-overlay" x="78.0" y="68.0" width="1022.0" height="372.0" fill="transparent" style="cursor:default" data-xmin="2.446395" data-xmax="3.634505" data-ymin="1.19288" data-ymax="1.21782" data-pl="78.0" data-pr="1100.0" data-pt="68.0" data-pb="440.0"/>
<g class="cursor-layer" style="pointer-events:none;display:none"><line class="cur-v" x1="0" y1="68.0" x2="0" y2="440.0" stroke="#e74c3c" stroke-width="1.2" stroke-dasharray="5,3"/><line class="cur-h" x1="78.0" y1="0" x2="1100.0" y2="0" stroke="#e74c3c" stroke-width="1.2" stroke-dasharray="5,3"/><rect class="cur-tip-bg" x="0" y="0" width="148" height="44" rx="5" fill="#1a252f" stroke="#34495e" stroke-width="1" opacity="0.92"/><text class="cur-tip-x" x="0" y="0" font-size="11" font-family="Arial,sans-serif" fill="#ecf0f1"/><text class="cur-tip-y" x="0" y="0" font-size="11" font-family="Arial,sans-serif" fill="#2ecc71"/></g>
</svg>