<svg xmlns="http://www.w3.org/2000/svg" width="1400" height="520" viewBox="0 0 1400 520">
<rect width="1400" height="520" fill="#ffffff"/>
<text x="700.0" y="28.0" font-size="16" font-weight="bold" text-anchor="middle" fill="#2c3e50" font-family="Arial,sans-serif">Static Line Regulation — Digital DC2DC  Vout=0.8V  [AUTO_PFM]  Iload=100µA</text>
<line x1="78.0" y1="68.0" x2="78.0" y2="440.0" stroke="#999" stroke-width="1"/>
<line x1="73.0" y1="440.0" x2="78.0" y2="440.0" stroke="#999" stroke-width="1"/>
<line x1="78.0" y1="440.0" x2="1100.0" y2="440.0" stroke="#e8e8e8" stroke-width="0.7" stroke-dasharray="4,3"/>
<text x="70.0" y="444.0" font-size="9" font-weight="normal" text-anchor="end" fill="#888" font-family="Arial,sans-serif">0.805</text>
<line x1="73.0" y1="365.6" x2="78.0" y2="365.6" stroke="#999" stroke-width="1"/>
<line x1="78.0" y1="365.6" x2="1100.0" y2="365.6" stroke="#e8e8e8" stroke-width="0.7" stroke-dasharray="4,3"/>
<text x="70.0" y="369.6" font-size="9" font-weight="normal" text-anchor="end" fill="#888" font-family="Arial,sans-serif">0.808</text>
<line x1="73.0" y1="291.2" x2="78.0" y2="291.2" stroke="#999" stroke-width="1"/>
<line x1="78.0" y1="291.2" x2="1100.0" y2="291.2" stroke="#e8e8e8" stroke-width="0.7" stroke-dasharray="4,3"/>
<text x="70.0" y="295.2" font-size="9" font-weight="normal" text-anchor="end" fill="#888" font-family="Arial,sans-serif">0.811</text>
<line x1="73.0" y1="216.8" x2="78.0" y2="216.8" stroke="#999" stroke-width="1"/>
<line x1="78.0" y1="216.8" x2="1100.0" y2="216.8" stroke="#e8e8e8" stroke-width="0.7" stroke-dasharray="4,3"/>
<text x="70.0" y="220.8" font-size="9" font-weight="normal" text-anchor="end" fill="#888" font-family="Arial,sans-serif">0.813</text>
<line x1="73.0" y1="142.4" x2="78.0" y2="142.4" stroke="#999" stroke-width="1"/>
<line x1="78.0" y1="142.4" x2="1100.0" y2="142.4" stroke="#e8e8e8" stroke-width="0.7" stroke-dasharray="4,3"/>
<text x="70.0" y="146.4" font-size="9" font-weight="normal" text-anchor="end" fill="#888" font-family="Arial,sans-serif">0.816</text>
<line x1="73.0" y1="68.0" x2="78.0" y2="68.0" stroke="#999" stroke-width="1"/>
<line x1="78.0" y1="68.0" x2="1100.0" y2="68.0" stroke="#e8e8e8" stroke-width="0.7" stroke-dasharray="4,3"/>
<text x="70.0" y="72.0" font-size="9" font-weight="normal" text-anchor="end" fill="#888" font-family="Arial,sans-serif">0.819</text>
<line x1="78.0" y1="440.0" x2="1100.0" y2="440.0" stroke="#999" stroke-width="1"/>
<line x1="78.0" y1="440.0" x2="78.0" y2="445.0" stroke="#999" stroke-width="1"/>
<line x1="78.0" y1="68.0" x2="78.0" y2="440.0" stroke="#e8e8e8" stroke-width="0.7" stroke-dasharray="4,3"/>
<text x="78.0" y="456.0" font-size="9" font-weight="normal" text-anchor="middle" fill="#888" font-family="Arial,sans-serif">2.45</text>
<line x1="224.0" y1="440.0" x2="224.0" y2="445.0" stroke="#999" stroke-width="1"/>
<line x1="224.0" y1="68.0" x2="224.0" y2="440.0" stroke="#e8e8e8" stroke-width="0.7" stroke-dasharray="4,3"/>
<text x="224.0" y="456.0" font-size="9" font-weight="normal" text-anchor="middle" fill="#888" font-family="Arial,sans-serif">2.62</text>
<line x1="370.0" y1="440.0" x2="370.0" y2="445.0" stroke="#999" stroke-width="1"/>
<line x1="370.0" y1="68.0" x2="370.0" y2="440.0" stroke="#e8e8e8" stroke-width="0.7" stroke-dasharray="4,3"/>
<text x="370.0" y="456.0" font-size="9" font-weight="normal" text-anchor="middle" fill="#888" font-family="Arial,sans-serif">2.79</text>
<line x1="516.0" y1="440.0" x2="516.0" y2="445.0" stroke="#999" stroke-width="1"/>
<line x1="516.0" y1="68.0" x2="516.0" y2="440.0" stroke="#e8e8e8" stroke-width="0.7" stroke-dasharray="4,3"/>
<text x="516.0" y="456.0" font-size="9" font-weight="normal" text-anchor="middle" fill="#888" font-family="Arial,sans-serif">2.96</text>
<line x1="662.0" y1="440.0" x2="662.0" y2="445.0" stroke="#999" stroke-width="1"/>
<line x1="662.0" y1="68.0" x2="662.0" y2="440.0" stroke="#e8e8e8" stroke-width="0.7" stroke-dasharray="4,3"/>
<text x="662.0" y="456.0" font-size="9" font-weight="normal" text-anchor="middle" fill="#888" font-family="Arial,sans-serif">3.13</text>
<line x1="808.0" y1="440.0" x2="808.0" y2="445.0" stroke="#999" stroke-width="1"/>
<line x1="808.0" y1="68.0" x2="808.0" y2="440.0" stroke="#e8e8e8" stroke-width="0.7" stroke-dasharray="4,3"/>
<text x="808.0" y="456.0" font-size="9" font-weight="normal" text-anchor="middle" fill="#888" font-family="Arial,sans-serif">3.3</text>
<line x1="954.0" y1="440.0" x2="954.0" y2="445.0" stroke="#999" stroke-width="1"/>
<line x1="954.0" y1="68.0" x2="954.0" y2="440.0" stroke="#e8e8e8" stroke-width="0.7" stroke-dasharray="4,3"/>
<text x="954.0" y="456.0" font-size="9" font-weight="normal" text-anchor="middle" fill="#888" font-family="Arial,sans-serif">3.46</text>
<line x1="1100.0" y1="440.0" x2="1100.0" y2="445.0" stroke="#999" stroke-width="1"/>
<line x1="1100.0" y1="68.0" x2="1100.0" y2="440.0" stroke="#e8e8e8" stroke-width="0.7" stroke-dasharray="4,3"/>
<text x="1100.0" y="456.0" font-size="9" font-weight="normal" text-anchor="middle" fill="#888" font-family="Arial,sans-serif">3.63</text>
<text x="16.0" y="254.0" font-size="11" font-weight="normal" text-anchor="middle" fill="#555" font-family="Arial,sans-serif" transform="rotate(-90,16,254.0)">Output Voltage  Vout [V]</text>
<text x="589.0" y="510.0" font-size="11" font-weight="normal" text-anchor="middle" fill="#555" font-family="Arial,sans-serif">Input Voltage  Vin [V]</text>
<g class="series pmic-series" data-label="Chip 21988 | T=0°C" data-color="#3498db" data-mode="AUTO_PFM" data-chip="21988" data-temp="0" data-reg="DC2DC_DIG">
<path d="M 124.5,131.1 L 150.2,139.1 L 176.0,125.7 L 201.9,131.1 L 227.7,125.7 L 253.5,117.7 L 279.3,120.4 L 305.0,136.4 L 330.9,123.1 L 356.8,120.4 L 382.6,115.0 L 408.4,141.8 L 434.1,136.4 L 459.9,125.7 L 485.7,120.4 L 511.7,115.0 L 537.4,107.0 L 563.2,125.7 L 589.0,128.4 L 614.8,123.1 L 640.6,123.1 L 666.5,120.4 L 692.4,112.4 L 718.2,107.0 L 744.0,125.7 L 769.6,149.8 L 795.4,136.4 L 821.4,123.1 L 847.2,123.1 L 872.8,107.0 L 898.6,101.7 L 924.5,93.7 L 950.2,93.7 L 976.1,93.7 L 1001.9,117.7 L 1027.7,131.1 L 1053.5,123.1" fill="none" stroke="#3498db" stroke-width="2.2" stroke-linejoin="round" opacity="0.9"/>
<circle cx="124.5" cy="131.1" r="4" fill="#3498db" stroke="white" opacity="1.0"/>
<circle cx="150.2" cy="139.1" r="4" fill="#3498db" stroke="white" opacity="1.0"/>
<circle cx="176.0" cy="125.7" r="4" fill="#3498db" stroke="white" opacity="1.0"/>
<circle cx="201.9" cy="131.1" r="4" fill="#3498db" stroke="white" opacity="1.0"/>
<circle cx="227.7" cy="125.7" r="4" fill="#3498db" stroke="white" opacity="1.0"/>
<circle cx="253.5" cy="117.7" r="4" fill="#3498db" stroke="white" opacity="1.0"/>
<circle cx="279.3" cy="120.4" r="4" fill="#3498db" stroke="white" opacity="1.0"/>
<circle cx="305.0" cy="136.4" r="4" fill="#3498db" stroke="white" opacity="1.0"/>
<circle cx="330.9" cy="123.1" r="4" fill="#3498db" stroke="white" opacity="1.0"/>
<circle cx="356.8" cy="120.4" r="4" fill="#3498db" stroke="white" opacity="1.0"/>
<circle cx="382.6" cy="115.0" r="4" fill="#3498db" stroke="white" opacity="1.0"/>
<circle cx="408.4" cy="141.8" r="4" fill="#3498db" stroke="white" opacity="1.0"/>
<circle cx="434.1" cy="136.4" r="4" fill="#3498db" stroke="white" opacity="1.0"/>
<circle cx="459.9" cy="125.7" r="4" fill="#3498db" stroke="white" opacity="1.0"/>
<circle cx="485.7" cy="120.4" r="4" fill="#3498db" stroke="white" opacity="1.0"/>
<circle cx="511.7" cy="115.0" r="4" fill="#3498db" stroke="white" opacity="1.0"/>
<circle cx="537.4" cy="107.0" r="4" fill="#3498db" stroke="white" opacity="1.0"/>
<circle cx="563.2" cy="125.7" r="4" fill="#3498db" stroke="white" opacity="1.0"/>
<circle cx="589.0" cy="128.4" r="4" fill="#3498db" stroke="white" opacity="1.0"/>
<circle cx="614.8" cy="123.1" r="4" fill="#3498db" stroke="white" opacity="1.0"/>
<circle cx="640.6" cy="123.1" r="4" fill="#3498db" stroke="white" opacity="1.0"/>
<circle cx="666.5" cy="120.4" r="4" fill="#3498db" stroke="white" opacity="1.0"/>
<circle cx="692.4" cy="112.4" r="4" fill="#3498db" stroke="white" opacity="1.0"/>
<circle cx="718.2" cy="107.0" r="4" fill="#3498db" stroke="white" opacity="1.0"/>
<circle cx="744.0" cy="125.7" r="4" fill="#3498db" stroke="white" opacity="1.0"/>
<circle cx="769.6" cy="149.8" r="4" fill="#3498db" stroke="white" opacity="1.0"/>
<circle cx="795.4" cy="136.4" r="4" fill="#3498db" stroke="white" opacity="1.0"/>
<circle cx="821.4" cy="123.1" r="4" fill="#3498db" stroke="white" opacity="1.0"/>
<circle cx="847.2" cy="123.1" r="4" fill="#3498db" stroke="white" opacity="1.0"/>
<circle cx="872.8" cy="107.0" r="4" fill="#3498db" stroke="white" opacity="1.0"/>
<circle cx="898.6" cy="101.7" r="4" fill="#3498db" stroke="white" opacity="1.0"/>
<circle cx="924.5" cy="93.7" r="4" fill="#3498db" stroke="white" opacity="1.0"/>
<circle cx="950.2" cy="93.7" r="4" fill="#3498db" stroke="white" opacity="1.0"/>
<circle cx="976.1" cy="93.7" r="4" fill="#3498db" stroke="white" opacity="1.0"/>
<circle cx="1001.9" cy="117.7" r="4" fill="#3498db" stroke="white" opacity="1.0"/>
<circle cx="1027.7" cy="131.1" r="4" fill="#3498db" stroke="white" opacity="1.0"/>
<circle cx="1053.5" cy="123.1" r="4" fill="#3498db" stroke="white" opacity="1.0"/>
</g>
<g class="series pmic-series" data-label="Chip 21988 | T=25°C" data-color="#e67e22" data-mode="AUTO_PFM" data-chip="21988" data-temp="25" data-reg="DC2DC_DIG">
<path d="M 124.5,219.3 L 150.3,229.9 L 176.0,213.9 L 201.9,205.9 L 227.7,229.9 L 253.5,221.9 L 279.3,211.2 L 305.0,205.9 L 330.9,227.3 L 356.8,219.3 L 382.6,219.3 L 408.4,205.9 L 434.1,211.2 L 459.9,219.3 L 485.7,221.9 L 511.6,211.2 L 537.4,208.6 L 563.2,197.9 L 589.0,195.2 L 614.8,224.6 L 640.6,216.6 L 666.5,219.3 L 692.4,213.9 L 718.2,211.2 L 743.9,200.6 L 769.6,203.2 L 795.4,208.6 L 821.4,229.9 L 847.2,232.6 L 872.8,227.3 L 898.6,219.3 L 924.5,208.6 L 950.2,200.6 L 976.1,195.2 L 1001.9,189.9 L 1027.7,184.5 L 1053.5,200.6" fill="none" stroke="#e67e22" stroke-width="2.2" stroke-linejoin="round" opacity="0.9"/>
<circle cx="124.5" cy="219.3" r="4" fill="#e67e22" stroke="white" opacity="1.0"/>
<circle cx="150.3" cy="229.9" r="4" fill="#e67e22" stroke="white" opacity="1.0"/>
<circle cx="176.0" cy="213.9" r="4" fill="#e67e22" stroke="white" opacity="1.0"/>
<circle cx="201.9" cy="205.9" r="4" fill="#e67e22" stroke="white" opacity="1.0"/>
<circle cx="227.7" cy="229.9" r="4" fill="#e67e22" stroke="white" opacity="1.0"/>
<circle cx="253.5" cy="221.9" r="4" fill="#e67e22" stroke="white" opacity="1.0"/>
<circle cx="279.3" cy="211.2" r="4" fill="#e67e22" stroke="white" opacity="1.0"/>
<circle cx="305.0" cy="205.9" r="4" fill="#e67e22" stroke="white" opacity="1.0"/>
<circle cx="330.9" cy="227.3" r="4" fill="#e67e22" stroke="white" opacity="1.0"/>
<circle cx="356.8" cy="219.3" r="4" fill="#e67e22" stroke="white" opacity="1.0"/>
<circle cx="382.6" cy="219.3" r="4" fill="#e67e22" stroke="white" opacity="1.0"/>
<circle cx="408.4" cy="205.9" r="4" fill="#e67e22" stroke="white" opacity="1.0"/>
<circle cx="434.1" cy="211.2" r="4" fill="#e67e22" stroke="white" opacity="1.0"/>
<circle cx="459.9" cy="219.3" r="4" fill="#e67e22" stroke="white" opacity="1.0"/>
<circle cx="485.7" cy="221.9" r="4" fill="#e67e22" stroke="white" opacity="1.0"/>
<circle cx="511.6" cy="211.2" r="4" fill="#e67e22" stroke="white" opacity="1.0"/>
<circle cx="537.4" cy="208.6" r="4" fill="#e67e22" stroke="white" opacity="1.0"/>
<circle cx="563.2" cy="197.9" r="4" fill="#e67e22" stroke="white" opacity="1.0"/>
<circle cx="589.0" cy="195.2" r="4" fill="#e67e22" stroke="white" opacity="1.0"/>
<circle cx="614.8" cy="224.6" r="4" fill="#e67e22" stroke="white" opacity="1.0"/>
<circle cx="640.6" cy="216.6" r="4" fill="#e67e22" stroke="white" opacity="1.0"/>
<circle cx="666.5" cy="219.3" r="4" fill="#e67e22" stroke="white" opacity="1.0"/>
<circle cx="692.4" cy="213.9" r="4" fill="#e67e22" stroke="white" opacity="1.0"/>
<circle cx="718.2" cy="211.2" r="4" fill="#e67e22" stroke="white" opacity="1.0"/>
<circle cx="743.9" cy="200.6" r="4" fill="#e67e22" stroke="white" opacity="1.0"/>
<circle cx="769.6" cy="203.2" r="4" fill="#e67e22" stroke="white" opacity="1.0"/>
<circle cx="795.4" cy="208.6" r="4" fill="#e67e22" stroke="white" opacity="1.0"/>
<circle cx="821.4" cy="229.9" r="4" fill="#e67e22" stroke="white" opacity="1.0"/>
<circle cx="847.2" cy="232.6" r="4" fill="#e67e22" stroke="white" opacity="1.0"/>
<circle cx="872.8" cy="227.3" r="4" fill="#e67e22" stroke="white" opacity="1.0"/>
<circle cx="898.6" cy="219.3" r="4" fill="#e67e22" stroke="white" opacity="1.0"/>
<circle cx="924.5" cy="208.6" r="4" fill="#e67e22" stroke="white" opacity="1.0"/>
<circle cx="950.2" cy="200.6" r="4" fill="#e67e22" stroke="white" opacity="1.0"/>
<circle cx="976.1" cy="195.2" r="4" fill="#e67e22" stroke="white" opacity="1.0"/>
<circle cx="1001.9" cy="189.9" r="4" fill="#e67e22" stroke="white" opacity="1.0"/>
<circle cx="1027.7" cy="184.5" r="4" fill="#e67e22" stroke="white" opacity="1.0"/>
<circle cx="1053.5" cy="200.6" r="4" fill="#e67e22" stroke="white" opacity="1.0"/>
</g>
<g class="series pmic-series" data-label="Chip 21988 | T=80°C" data-color="#2ecc71" data-mode="AUTO_PFM" data-chip="21988" data-temp="80" data-reg="DC2DC_DIG">
<path d="M 124.5,144.4 L 150.3,149.8 L 176.0,147.1 L 201.9,147.1 L 227.7,149.8 L 253.5,136.4 L 279.3,131.1 L 305.1,144.4 L 330.9,139.1 L 356.8,131.1 L 382.6,125.7 L 408.4,117.7 L 434.1,136.4 L 459.9,133.7 L 485.7,128.4 L 511.6,120.4 L 537.4,120.4 L 563.2,123.1 L 589.0,133.7 L 614.8,133.7 L 640.6,136.4 L 666.5,128.4 L 692.4,120.4 L 718.2,112.4 L 743.9,107.0 L 769.6,117.7 L 795.4,139.1 L 821.4,141.8 L 847.2,139.1 L 872.9,133.7 L 898.6,125.7 L 924.5,117.7 L 950.2,109.7 L 976.1,99.0 L 1001.9,101.7 L 1027.7,101.7 L 1053.5,136.4" fill="none" stroke="#2ecc71" stroke-width="2.2" stroke-linejoin="round" opacity="0.9"/>
<circle cx="124.5" cy="144.4" r="4" fill="#2ecc71" stroke="white" opacity="1.0"/>
<circle cx="150.3" cy="149.8" r="4" fill="#2ecc71" stroke="white" opacity="1.0"/>
<circle cx="176.0" cy="147.1" r="4" fill="#2ecc71" stroke="white" opacity="1.0"/>
<circle cx="201.9" cy="147.1" r="4" fill="#2ecc71" stroke="white" opacity="1.0"/>
<circle cx="227.7" cy="149.8" r="4" fill="#2ecc71" stroke="white" opacity="1.0"/>
<circle cx="253.5" cy="136.4" r="4" fill="#2ecc71" stroke="white" opacity="1.0"/>
<circle cx="279.3" cy="131.1" r="4" fill="#2ecc71" stroke="white" opacity="1.0"/>
<circle cx="305.1" cy="144.4" r="4" fill="#2ecc71" stroke="white" opacity="1.0"/>
<circle cx="330.9" cy="139.1" r="4" fill="#2ecc71" stroke="white" opacity="1.0"/>
<circle cx="356.8" cy="131.1" r="4" fill="#2ecc71" stroke="white" opacity="1.0"/>
<circle cx="382.6" cy="125.7" r="4" fill="#2ecc71" stroke="white" opacity="1.0"/>
<circle cx="408.4" cy="117.7" r="4" fill="#2ecc71" stroke="white" opacity="1.0"/>
<circle cx="434.1" cy="136.4" r="4" fill="#2ecc71" stroke="white" opacity="1.0"/>
<circle cx="459.9" cy="133.7" r="4" fill="#2ecc71" stroke="white" opacity="1.0"/>
<circle cx="485.7" cy="128.4" r="4" fill="#2ecc71" stroke="white" opacity="1.0"/>
<circle cx="511.6" cy="120.4" r="4" fill="#2ecc71" stroke="white" opacity="1.0"/>
<circle cx="537.4" cy="120.4" r="4" fill="#2ecc71" stroke="white" opacity="1.0"/>
<circle cx="563.2" cy="123.1" r="4" fill="#2ecc71" stroke="white" opacity="1.0"/>
<circle cx="589.0" cy="133.7" r="4" fill="#2ecc71" stroke="white" opacity="1.0"/>
<circle cx="614.8" cy="133.7" r="4" fill="#2ecc71" stroke="white" opacity="1.0"/>
<circle cx="640.6" cy="136.4" r="4" fill="#2ecc71" stroke="white" opacity="1.0"/>
<circle cx="666.5" cy="128.4" r="4" fill="#2ecc71" stroke="white" opacity="1.0"/>
<circle cx="692.4" cy="120.4" r="4" fill="#2ecc71" stroke="white" opacity="1.0"/>
<circle cx="718.2" cy="112.4" r="4" fill="#2ecc71" stroke="white" opacity="1.0"/>
<circle cx="743.9" cy="107.0" r="4" fill="#2ecc71" stroke="white" opacity="1.0"/>
<circle cx="769.6" cy="117.7" r="4" fill="#2ecc71" stroke="white" opacity="1.0"/>
<circle cx="795.4" cy="139.1" r="4" fill="#2ecc71" stroke="white" opacity="1.0"/>
<circle cx="821.4" cy="141.8" r="4" fill="#2ecc71" stroke="white" opacity="1.0"/>
<circle cx="847.2" cy="139.1" r="4" fill="#2ecc71" stroke="white" opacity="1.0"/>
<circle cx="872.9" cy="133.7" r="4" fill="#2ecc71" stroke="white" opacity="1.0"/>
<circle cx="898.6" cy="125.7" r="4" fill="#2ecc71" stroke="white" opacity="1.0"/>
<circle cx="924.5" cy="117.7" r="4" fill="#2ecc71" stroke="white" opacity="1.0"/>
<circle cx="950.2" cy="109.7" r="4" fill="#2ecc71" stroke="white" opacity="1.0"/>
<circle cx="976.1" cy="99.0" r="4" fill="#2ecc71" stroke="white" opacity="1.0"/>
<circle cx="1001.9" cy="101.7" r="4" fill="#2ecc71" stroke="white" opacity="1.0"/>
<circle cx="1027.7" cy="101.7" r="4" fill="#2ecc71" stroke="white" opacity="1.0"/>
<circle cx="1053.5" cy="136.4" r="4" fill="#2ecc71" stroke="white" opacity="1.0"/>
</g>
<g class="series pmic-series" data-label="Chip 31927 | T=0°C" data-color="#9b59b6" data-mode="AUTO_PFM" data-chip="31927" data-temp="0" data-reg="DC2DC_DIG">
<path d="M 124.5,414.3 L 150.2,409.0 L 176.0,414.3 L 201.9,406.3 L 227.7,406.3 L 253.5,414.3 L 279.3,398.3 L 305.0,411.7 L 330.9,414.3 L 356.8,409.0 L 382.6,398.3 L 408.4,411.7 L 434.1,406.3 L 459.9,393.0 L 485.7,382.3 L 511.6,390.3 L 537.4,395.6 L 563.2,395.6 L 589.0,384.9 L 614.8,384.9 L 640.6,403.7 L 666.5,406.3 L 692.4,387.6 L 718.2,384.9 L 743.9,384.9 L 769.6,371.6 L 795.4,395.6 L 821.3,393.0 L 847.2,390.3 L 872.8,376.9 L 898.6,376.9 L 924.4,371.6 L 950.2,368.9 L 976.1,390.3 L 1001.9,398.3 L 1027.7,393.0 L 1053.5,395.6" fill="none" stroke="#9b59b6" stroke-width="2.2" stroke-linejoin="round" opacity="0.9"/>
<circle cx="124.5" cy="414.3" r="4" fill="#9b59b6" stroke="white" opacity="1.0"/>
<circle cx="150.2" cy="409.0" r="4" fill="#9b59b6" stroke="white" opacity="1.0"/>
<circle cx="176.0" cy="414.3" r="4" fill="#9b59b6" stroke="white" opacity="1.0"/>
<circle cx="201.9" cy="406.3" r="4" fill="#9b59b6" stroke="white" opacity="1.0"/>
<circle cx="227.7" cy="406.3" r="4" fill="#9b59b6" stroke="white" opacity="1.0"/>
<circle cx="253.5" cy="414.3" r="4" fill="#9b59b6" stroke="white" opacity="1.0"/>
<circle cx="279.3" cy="398.3" r="4" fill="#9b59b6" stroke="white" opacity="1.0"/>
<circle cx="305.0" cy="411.7" r="4" fill="#9b59b6" stroke="white" opacity="1.0"/>
<circle cx="330.9" cy="414.3" r="4" fill="#9b59b6" stroke="white" opacity="1.0"/>
<circle cx="356.8" cy="409.0" r="4" fill="#9b59b6" stroke="white" opacity="1.0"/>
<circle cx="382.6" cy="398.3" r="4" fill="#9b59b6" stroke="white" opacity="1.0"/>
<circle cx="408.4" cy="411.7" r="4" fill="#9b59b6" stroke="white" opacity="1.0"/>
<circle cx="434.1" cy="406.3" r="4" fill="#9b59b6" stroke="white" opacity="1.0"/>
<circle cx="459.9" cy="393.0" r="4" fill="#9b59b6" stroke="white" opacity="1.0"/>
<circle cx="485.7" cy="382.3" r="4" fill="#9b59b6" stroke="white" opacity="1.0"/>
<circle cx="511.6" cy="390.3" r="4" fill="#9b59b6" stroke="white" opacity="1.0"/>
<circle cx="537.4" cy="395.6" r="4" fill="#9b59b6" stroke="white" opacity="1.0"/>
<circle cx="563.2" cy="395.6" r="4" fill="#9b59b6" stroke="white" opacity="1.0"/>
<circle cx="589.0" cy="384.9" r="4" fill="#9b59b6" stroke="white" opacity="1.0"/>
<circle cx="614.8" cy="384.9" r="4" fill="#9b59b6" stroke="white" opacity="1.0"/>
<circle cx="640.6" cy="403.7" r="4" fill="#9b59b6" stroke="white" opacity="1.0"/>
<circle cx="666.5" cy="406.3" r="4" fill="#9b59b6" stroke="white" opacity="1.0"/>
<circle cx="692.4" cy="387.6" r="4" fill="#9b59b6" stroke="white" opacity="1.0"/>
<circle cx="718.2" cy="384.9" r="4" fill="#9b59b6" stroke="white" opacity="1.0"/>
<circle cx="743.9" cy="384.9" r="4" fill="#9b59b6" stroke="white" opacity="1.0"/>
<circle cx="769.6" cy="371.6" r="4" fill="#9b59b6" stroke="white" opacity="1.0"/>
<circle cx="795.4" cy="395.6" r="4" fill="#9b59b6" stroke="white" opacity="1.0"/>
<circle cx="821.3" cy="393.0" r="4" fill="#9b59b6" stroke="white" opacity="1.0"/>
<circle cx="847.2" cy="390.3" r="4" fill="#9b59b6" stroke="white" opacity="1.0"/>
<circle cx="872.8" cy="376.9" r="4" fill="#9b59b6" stroke="white" opacity="1.0"/>
<circle cx="898.6" cy="376.9" r="4" fill="#9b59b6" stroke="white" opacity="1.0"/>
<circle cx="924.4" cy="371.6" r="4" fill="#9b59b6" stroke="white" opacity="1.0"/>
<circle cx="950.2" cy="368.9" r="4" fill="#9b59b6" stroke="white" opacity="1.0"/>
<circle cx="976.1" cy="390.3" r="4" fill="#9b59b6" stroke="white" opacity="1.0"/>
<circle cx="1001.9" cy="398.3" r="4" fill="#9b59b6" stroke="white" opacity="1.0"/>
<circle cx="1027.7" cy="393.0" r="4" fill="#9b59b6" stroke="white" opacity="1.0"/>
<circle cx="1053.5" cy="395.6" r="4" fill="#9b59b6" stroke="white" opacity="1.0"/>
</g>
<g class="series pmic-series" data-label="Chip 31927 | T=25°C" data-color="#1abc9c" data-mode="AUTO_PFM" data-chip="31927" data-temp="25" data-reg="DC2DC_DIG">
<path d="M 124.5,339.5 L 150.2,326.2 L 176.0,342.2 L 201.9,326.2 L 227.7,334.2 L 253.5,326.2 L 279.3,320.8 L 305.0,342.2 L 330.9,334.2 L 356.8,328.8 L 382.6,334.2 L 408.4,342.2 L 434.1,334.2 L 459.9,318.1 L 485.7,328.8 L 511.6,339.5 L 537.4,331.5 L 563.2,323.5 L 589.0,315.5 L 614.8,334.2 L 640.6,328.8 L 666.5,323.5 L 692.4,307.4 L 718.2,307.4 L 743.9,331.5 L 769.6,336.8 L 795.4,334.2 L 821.3,312.8 L 847.2,304.8 L 872.9,302.1 L 898.6,331.5 L 924.4,328.8 L 950.2,328.8 L 976.1,315.5 L 1001.9,320.8 L 1027.7,307.4 L 1053.5,299.4" fill="none" stroke="#1abc9c" stroke-width="2.2" stroke-linejoin="round" opacity="0.9"/>
<circle cx="124.5" cy="339.5" r="4" fill="#1abc9c" stroke="white" opacity="1.0"/>
<circle cx="150.2" cy="326.2" r="4" fill="#1abc9c" stroke="white" opacity="1.0"/>
<circle cx="176.0" cy="342.2" r="4" fill="#1abc9c" stroke="white" opacity="1.0"/>
<circle cx="201.9" cy="326.2" r="4" fill="#1abc9c" stroke="white" opacity="1.0"/>
<circle cx="227.7" cy="334.2" r="4" fill="#1abc9c" stroke="white" opacity="1.0"/>
<circle cx="253.5" cy="326.2" r="4" fill="#1abc9c" stroke="white" opacity="1.0"/>
<circle cx="279.3" cy="320.8" r="4" fill="#1abc9c" stroke="white" opacity="1.0"/>
<circle cx="305.0" cy="342.2" r="4" fill="#1abc9c" stroke="white" opacity="1.0"/>
<circle cx="330.9" cy="334.2" r="4" fill="#1abc9c" stroke="white" opacity="1.0"/>
<circle cx="356.8" cy="328.8" r="4" fill="#1abc9c" stroke="white" opacity="1.0"/>
<circle cx="382.6" cy="334.2" r="4" fill="#1abc9c" stroke="white" opacity="1.0"/>
<circle cx="408.4" cy="342.2" r="4" fill="#1abc9c" stroke="white" opacity="1.0"/>
<circle cx="434.1" cy="334.2" r="4" fill="#1abc9c" stroke="white" opacity="1.0"/>
<circle cx="459.9" cy="318.1" r="4" fill="#1abc9c" stroke="white" opacity="1.0"/>
<circle cx="485.7" cy="328.8" r="4" fill="#1abc9c" stroke="white" opacity="1.0"/>
<circle cx="511.6" cy="339.5" r="4" fill="#1abc9c" stroke="white" opacity="1.0"/>
<circle cx="537.4" cy="331.5" r="4" fill="#1abc9c" stroke="white" opacity="1.0"/>
<circle cx="563.2" cy="323.5" r="4" fill="#1abc9c" stroke="white" opacity="1.0"/>
<circle cx="589.0" cy="315.5" r="4" fill="#1abc9c" stroke="white" opacity="1.0"/>
<circle cx="614.8" cy="334.2" r="4" fill="#1abc9c" stroke="white" opacity="1.0"/>
<circle cx="640.6" cy="328.8" r="4" fill="#1abc9c" stroke="white" opacity="1.0"/>
<circle cx="666.5" cy="323.5" r="4" fill="#1abc9c" stroke="white" opacity="1.0"/>
<circle cx="692.4" cy="307.4" r="4" fill="#1abc9c" stroke="white" opacity="1.0"/>
<circle cx="718.2" cy="307.4" r="4" fill="#1abc9c" stroke="white" opacity="1.0"/>
<circle cx="743.9" cy="331.5" r="4" fill="#1abc9c" stroke="white" opacity="1.0"/>
<circle cx="769.6" cy="336.8" r="4" fill="#1abc9c" stroke="white" opacity="1.0"/>
<circle cx="795.4" cy="334.2" r="4" fill="#1abc9c" stroke="white" opacity="1.0"/>
<circle cx="821.3" cy="312.8" r="4" fill="#1abc9c" stroke="white" opacity="1.0"/>
<circle cx="847.2" cy="304.8" r="4" fill="#1abc9c" stroke="white" opacity="1.0"/>
<circle cx="872.9" cy="302.1" r="4" fill="#1abc9c" stroke="white" opacity="1.0"/>
<circle cx="898.6" cy="331.5" r="4" fill="#1abc9c" stroke="white" opacity="1.0"/>
<circle cx="924.4" cy="328.8" r="4" fill="#1abc9c" stroke="white" opacity="1.0"/>
<circle cx="950.2" cy="328.8" r="4" fill="#1abc9c" stroke="white" opacity="1.0"/>
<circle cx="976.1" cy="315.5" r="4" fill="#1abc9c" stroke="white" opacity="1.0"/>
<circle cx="1001.9" cy="320.8" r="4" fill="#1abc9c" stroke="white" opacity="1.0"/>
<circle cx="1027.7" cy="307.4" r="4" fill="#1abc9c" stroke="white" opacity="1.0"/>
<circle cx="1053.5" cy="299.4" r="4" fill="#1abc9c" stroke="white" opacity="1.0"/>
</g>
<g class="series pmic-series" data-label="Chip 31927 | T=80°C" data-color="#e74c3c" data-mode="AUTO_PFM" data-chip="31927" data-temp="80" data-reg="DC2DC_DIG">
<path d="M 124.5,243.3 L 150.3,243.3 L 176.0,248.7 L 201.9,238.0 L 227.7,251.3 L 253.5,246.0 L 279.3,229.9 L 305.0,248.7 L 330.9,251.3 L 356.8,238.0 L 382.6,251.3 L 408.4,251.3 L 434.1,246.0 L 459.9,238.0 L 485.7,254.0 L 511.6,251.3 L 537.4,240.6 L 563.2,232.6 L 589.0,221.9 L 614.8,248.7 L 640.6,240.6 L 666.5,227.3 L 692.4,219.3 L 718.2,216.6 L 743.9,246.0 L 769.6,243.3 L 795.4,227.3 L 821.3,224.6 L 847.2,216.6 L 872.8,213.9 L 898.6,211.2 L 924.4,240.6 L 950.2,240.6 L 976.1,227.3 L 1001.9,216.6 L 1027.7,205.9 L 1053.5,192.5" fill="none" stroke="#e74c3c" stroke-width="2.2" stroke-linejoin="round" opacity="0.9"/>
<circle cx="124.5" cy="243.3" r="4" fill="#e74c3c" stroke="white" opacity="1.0"/>
<circle cx="150.3" cy="243.3" r="4" fill="#e74c3c" stroke="white" opacity="1.0"/>
<circle cx="176.0" cy="248.7" r="4" fill="#e74c3c" stroke="white" opacity="1.0"/>
<circle cx="201.9" cy="238.0" r="4" fill="#e74c3c" stroke="white" opacity="1.0"/>
<circle cx="227.7" cy="251.3" r="4" fill="#e74c3c" stroke="white" opacity="1.0"/>
<circle cx="253.5" cy="246.0" r="4" fill="#e74c3c" stroke="white" opacity="1.0"/>
<circle cx="279.3" cy="229.9" r="4" fill="#e74c3c" stroke="white" opacity="1.0"/>
<circle cx="305.0" cy="248.7" r="4" fill="#e74c3c" stroke="white" opacity="1.0"/>
<circle cx="330.9" cy="251.3" r="4" fill="#e74c3c" stroke="white" opacity="1.0"/>
<circle cx="356.8" cy="238.0" r="4" fill="#e74c3c" stroke="white" opacity="1.0"/>
<circle cx="382.6" cy="251.3" r="4" fill="#e74c3c" stroke="white" opacity="1.0"/>
<circle cx="408.4" cy="251.3" r="4" fill="#e74c3c" stroke="white" opacity="1.0"/>
<circle cx="434.1" cy="246.0" r="4" fill="#e74c3c" stroke="white" opacity="1.0"/>
<circle cx="459.9" cy="238.0" r="4" fill="#e74c3c" stroke="white" opacity="1.0"/>
<circle cx="485.7" cy="254.0" r="4" fill="#e74c3c" stroke="white" opacity="1.0"/>
<circle cx="511.6" cy="251.3" r="4" fill="#e74c3c" stroke="white" opacity="1.0"/>
<circle cx="537.4" cy="240.6" r="4" fill="#e74c3c" stroke="white" opacity="1.0"/>
<circle cx="563.2" cy="232.6" r="4" fill="#e74c3c" stroke="white" opacity="1.0"/>
<circle cx="589.0" cy="221.9" r="4" fill="#e74c3c" stroke="white" opacity="1.0"/>
<circle cx="614.8" cy="248.7" r="4" fill="#e74c3c" stroke="white" opacity="1.0"/>
<circle cx="640.6" cy="240.6" r="4" fill="#e74c3c" stroke="white" opacity="1.0"/>
<circle cx="666.5" cy="227.3" r="4" fill="#e74c3c" stroke="white" opacity="1.0"/>
<circle cx="692.4" cy="219.3" r="4" fill="#e74c3c" stroke="white" opacity="1.0"/>
<circle cx="718.2" cy="216.6" r="4" fill="#e74c3c" stroke="white" opacity="1.0"/>
<circle cx="743.9" cy="246.0" r="4" fill="#e74c3c" stroke="white" opacity="1.0"/>
<circle cx="769.6" cy="243.3" r="4" fill="#e74c3c" stroke="white" opacity="1.0"/>
<circle cx="795.4" cy="227.3" r="4" fill="#e74c3c" stroke="white" opacity="1.0"/>
<circle cx="821.3" cy="224.6" r="4" fill="#e74c3c" stroke="white" opacity="1.0"/>
<circle cx="847.2" cy="216.6" r="4" fill="#e74c3c" stroke="white" opacity="1.0"/>
<circle cx="872.8" cy="213.9" r="4" fill="#e74c3c" stroke="white" opacity="1.0"/>
<circle cx="898.6" cy="211.2" r="4" fill="#e74c3c" stroke="white" opacity="1.0"/>
<circle cx="924.4" cy="240.6" r="4" fill="#e74c3c" stroke="white" opacity="1.0"/>
<circle cx="950.2" cy="240.6" r="4" fill="#e74c3c" stroke="white" opacity="1.0"/>
<circle cx="976.1" cy="227.3" r="4" fill="#e74c3c" stroke="white" opacity="1.0"/>
<circle cx="1001.9" cy="216.6" r="4" fill="#e74c3c" stroke="white" opacity="1.0"/>
<circle cx="1027.7" cy="205.9" r="4" fill="#e74c3c" stroke="white" opacity="1.0"/>
<circle cx="1053.5" cy="192.5" r="4" fill="#e74c3c" stroke="white" opacity="1.0"/>
</g>
<g class="legend-item" data-mode="AUTO_PFM" data-chip="21988" data-temp="0" data-reg="DC2DC_DIG">
<rect x="1116.0" y="69.0" width="22.0" height="4.0" fill="#3498db" stroke="none" stroke-width="1" opacity="1.0" rx="2"/>
<circle cx="1127.0" cy="71.0" r="4" fill="#3498db" stroke="none" opacity="1.0"/>
<text x="1144.0" y="76.0" font-size="9" font-weight="normal" text-anchor="start" fill="#333" font-family="Arial,sans-serif">Chip 21988 | T=0°C</text>
</g>
<g class="legend-item" data-mode="AUTO_PFM" data-chip="21988" data-temp="25" data-reg="DC2DC_DIG">
<rect x="1116.0" y="86.0" width="22.0" height="4.0" fill="#e67e22" stroke="none" stroke-width="1" opacity="1.0" rx="2"/>
<circle cx="1127.0" cy="88.0" r="4" fill="#e67e22" stroke="none" opacity="1.0"/>
<text x="1144.0" y="93.0" font-size="9" font-weight="normal" text-anchor="start" fill="#333" font-family="Arial,sans-serif">Chip 21988 | T=25°C</text>
</g>
<g class="legend-item" data-mode="AUTO_PFM" data-chip="21988" data-temp="80" data-reg="DC2DC_DIG">
<rect x="1116.0" y="103.0" width="22.0" height="4.0" fill="#2ecc71" stroke="none" stroke-width="1" opacity="1.0" rx="2"/>
<circle cx="1127.0" cy="105.0" r="4" fill="#2ecc71" stroke="none" opacity="1.0"/>
<text x="1144.0" y="110.0" font-size="9" font-weight="normal" text-anchor="start" fill="#333" font-family="Arial,sans-serif">Chip 21988 | T=80°C</text>
</g>
<g class="legend-item" data-mode="AUTO_PFM" data-chip="31927" data-temp="0" data-reg="DC2DC_DIG">
<rect x="1116.0" y="120.0" width="22.0" height="4.0" fill="#9b59b6" stroke="none" stroke-width="1" opacity="1.0" rx="2"/>
<circle cx="1127.0" cy="122.0" r="4" fill="#9b59b6" stroke="none" opacity="1.0"/>
<text x="1144.0" y="127.0" font-size="9" font-weight="normal" text-anchor="start" fill="#333" font-family="Arial,sans-serif">Chip 31927 | T=0°C</text>
</g>
<g class="legend-item" data-mode="AUTO_PFM" data-chip="31927" data-temp="25" data-reg="DC2DC_DIG">
<rect x="1116.0" y="137.0" width="22.0" height="4.0" fill="#1abc9c" stroke="none" stroke-width="1" opacity="1.0" rx="2"/>
<circle cx="1127.0" cy="139.0" r="4" fill="#1abc9c" stroke="none" opacity="1.0"/>
<text x="1144.0" y="144.0" font-size="9" font-weight="normal" text-anchor="start" fill="#333" font-family="Arial,sans-serif">Chip 31927 | T=25°C</text>
</g>
<g class="legend-item" data-mode="AUTO_PFM" data-chip="31927" data-temp="80" data-reg="DC2DC_DIG">
<rect x="1116.0" y="154.0" width="22.0" height="4.0" fill="#e74c3c" stroke="none" stroke-width="1" opacity="1.0" rx="2"/>
<circle cx="1127.0" cy="156.0" r="4" fill="#e74c3c" stroke="none" opacity="1.0"/>
<text x="1144.0" y="161.0" font-size="9" font-weight="normal" text-anchor="start" fill="#333" font-family="Arial,sans-serif">Chip 31927 | T=80°C</text>
</g>
<rect class="cursor-overlay" x="78.0" y="68.0" width="1022.0" height="372.0" fill="transparent" style="cursor:default" data-xmin="2.446395" data-xmax="3.634505" data-ymin="0.80514" data-ymax="0.81906" data-pl="78.0" data-pr="1100.0" data-pt="68.0" data-pb="440.0"/>
<g class="cursor-layer" style="pointer-events:none;display:none"><line class="cur-v" x1="0" y1="68.0" x2="0" y2="440.0" stroke="#e74c3c" stroke-width="1.2" stroke-dasharray="5,3"/><line class="cur-h" x1="78.0" y1="0" x2="1100.0" y2="0" stroke="#e74c3c" stroke-width="1.2" stroke-dasharray="5,3"/><rect class="cur-tip-bg" x="0" y="0" width="170" height="48" rx="4" fill="#1a252f" stroke="#34495e" stroke-width="1" opacity="0.92"/><text class="cur-tip-s" x="0" y="0" font-size="8" font-family="Arial,sans-serif" fill="#f1c40f"/><text class="cur-tip-x" x="0" y="0" font-size="9" font-family="Arial,sans-serif" fill="#ecf0f1"/><text class="cur-tip-y" x="0" y="0" font-size="9" font-family="Arial,sans-serif" fill="#2ecc71"/></g>
</svg>