<svg xmlns="http://www.w3.org/2000/svg" width="1400" height="520" viewBox="0 0 1400 520">
<rect width="1400" height="520" fill="#ffffff"/>
<text x="700.0" y="28.0" font-size="16" font-weight="bold" text-anchor="middle" fill="#2c3e50" font-family="Arial,sans-serif">Static Line Regulation — Analog DC2DC  Vout=1V  [PFM]  Iload=200mA</text>
<line x1="78.0" y1="68.0" x2="78.0" y2="440.0" stroke="#999" stroke-width="1"/>
<line x1="73.0" y1="440.0" x2="78.0" y2="440.0" stroke="#999" stroke-width="1"/>
<line x1="78.0" y1="440.0" x2="1100.0" y2="440.0" stroke="#e8e8e8" stroke-width="0.7" stroke-dasharray="4,3"/>
<text x="70.0" y="444.0" font-size="9" font-weight="normal" text-anchor="end" fill="#888" font-family="Arial,sans-serif">1.01</text>
<line x1="73.0" y1="365.6" x2="78.0" y2="365.6" stroke="#999" stroke-width="1"/>
<line x1="78.0" y1="365.6" x2="1100.0" y2="365.6" stroke="#e8e8e8" stroke-width="0.7" stroke-dasharray="4,3"/>
<text x="70.0" y="369.6" font-size="9" font-weight="normal" text-anchor="end" fill="#888" font-family="Arial,sans-serif">1.01</text>
<line x1="73.0" y1="291.2" x2="78.0" y2="291.2" stroke="#999" stroke-width="1"/>
<line x1="78.0" y1="291.2" x2="1100.0" y2="291.2" stroke="#e8e8e8" stroke-width="0.7" stroke-dasharray="4,3"/>
<text x="70.0" y="295.2" font-size="9" font-weight="normal" text-anchor="end" fill="#888" font-family="Arial,sans-serif">1.02</text>
<line x1="73.0" y1="216.8" x2="78.0" y2="216.8" stroke="#999" stroke-width="1"/>
<line x1="78.0" y1="216.8" x2="1100.0" y2="216.8" stroke="#e8e8e8" stroke-width="0.7" stroke-dasharray="4,3"/>
<text x="70.0" y="220.8" font-size="9" font-weight="normal" text-anchor="end" fill="#888" font-family="Arial,sans-serif">1.02</text>
<line x1="73.0" y1="142.4" x2="78.0" y2="142.4" stroke="#999" stroke-width="1"/>
<line x1="78.0" y1="142.4" x2="1100.0" y2="142.4" stroke="#e8e8e8" stroke-width="0.7" stroke-dasharray="4,3"/>
<text x="70.0" y="146.4" font-size="9" font-weight="normal" text-anchor="end" fill="#888" font-family="Arial,sans-serif">1.03</text>
<line x1="73.0" y1="68.0" x2="78.0" y2="68.0" stroke="#999" stroke-width="1"/>
<line x1="78.0" y1="68.0" x2="1100.0" y2="68.0" stroke="#e8e8e8" stroke-width="0.7" stroke-dasharray="4,3"/>
<text x="70.0" y="72.0" font-size="9" font-weight="normal" text-anchor="end" fill="#888" font-family="Arial,sans-serif">1.03</text>
<line x1="78.0" y1="440.0" x2="1100.0" y2="440.0" stroke="#999" stroke-width="1"/>
<line x1="78.0" y1="440.0" x2="78.0" y2="445.0" stroke="#999" stroke-width="1"/>
<line x1="78.0" y1="68.0" x2="78.0" y2="440.0" stroke="#e8e8e8" stroke-width="0.7" stroke-dasharray="4,3"/>
<text x="78.0" y="456.0" font-size="9" font-weight="normal" text-anchor="middle" fill="#888" font-family="Arial,sans-serif">2.45</text>
<line x1="224.0" y1="440.0" x2="224.0" y2="445.0" stroke="#999" stroke-width="1"/>
<line x1="224.0" y1="68.0" x2="224.0" y2="440.0" stroke="#e8e8e8" stroke-width="0.7" stroke-dasharray="4,3"/>
<text x="224.0" y="456.0" font-size="9" font-weight="normal" text-anchor="middle" fill="#888" font-family="Arial,sans-serif">2.62</text>
<line x1="370.0" y1="440.0" x2="370.0" y2="445.0" stroke="#999" stroke-width="1"/>
<line x1="370.0" y1="68.0" x2="370.0" y2="440.0" stroke="#e8e8e8" stroke-width="0.7" stroke-dasharray="4,3"/>
<text x="370.0" y="456.0" font-size="9" font-weight="normal" text-anchor="middle" fill="#888" font-family="Arial,sans-serif">2.79</text>
<line x1="516.0" y1="440.0" x2="516.0" y2="445.0" stroke="#999" stroke-width="1"/>
<line x1="516.0" y1="68.0" x2="516.0" y2="440.0" stroke="#e8e8e8" stroke-width="0.7" stroke-dasharray="4,3"/>
<text x="516.0" y="456.0" font-size="9" font-weight="normal" text-anchor="middle" fill="#888" font-family="Arial,sans-serif">2.96</text>
<line x1="662.0" y1="440.0" x2="662.0" y2="445.0" stroke="#999" stroke-width="1"/>
<line x1="662.0" y1="68.0" x2="662.0" y2="440.0" stroke="#e8e8e8" stroke-width="0.7" stroke-dasharray="4,3"/>
<text x="662.0" y="456.0" font-size="9" font-weight="normal" text-anchor="middle" fill="#888" font-family="Arial,sans-serif">3.13</text>
<line x1="808.0" y1="440.0" x2="808.0" y2="445.0" stroke="#999" stroke-width="1"/>
<line x1="808.0" y1="68.0" x2="808.0" y2="440.0" stroke="#e8e8e8" stroke-width="0.7" stroke-dasharray="4,3"/>
<text x="808.0" y="456.0" font-size="9" font-weight="normal" text-anchor="middle" fill="#888" font-family="Arial,sans-serif">3.3</text>
<line x1="954.0" y1="440.0" x2="954.0" y2="445.0" stroke="#999" stroke-width="1"/>
<line x1="954.0" y1="68.0" x2="954.0" y2="440.0" stroke="#e8e8e8" stroke-width="0.7" stroke-dasharray="4,3"/>
<text x="954.0" y="456.0" font-size="9" font-weight="normal" text-anchor="middle" fill="#888" font-family="Arial,sans-serif">3.46</text>
<line x1="1100.0" y1="440.0" x2="1100.0" y2="445.0" stroke="#999" stroke-width="1"/>
<line x1="1100.0" y1="68.0" x2="1100.0" y2="440.0" stroke="#e8e8e8" stroke-width="0.7" stroke-dasharray="4,3"/>
<text x="1100.0" y="456.0" font-size="9" font-weight="normal" text-anchor="middle" fill="#888" font-family="Arial,sans-serif">3.63</text>
<text x="16.0" y="254.0" font-size="11" font-weight="normal" text-anchor="middle" fill="#555" font-family="Arial,sans-serif" transform="rotate(-90,16,254.0)">Output Voltage  Vout [V]</text>
<text x="589.0" y="510.0" font-size="11" font-weight="normal" text-anchor="middle" fill="#555" font-family="Arial,sans-serif">Input Voltage  Vin [V]</text>
<g class="series pmic-series" data-mode="PFM" data-chip="21988" data-temp="0" data-reg="DC2DC_ANA">
<path d="M 124.5,151.6 L 150.3,140.0 L 176.0,138.7 L 201.9,150.3 L 227.7,145.2 L 253.5,134.9 L 279.3,134.9 L 305.1,151.6 L 330.9,145.2 L 356.8,145.2 L 382.6,142.6 L 408.4,141.3 L 434.1,151.6 L 459.9,154.2 L 485.7,151.6 L 511.7,149.0 L 537.4,140.0 L 563.2,133.6 L 589.0,138.7 L 614.8,149.0 L 640.6,150.3 L 666.5,143.9 L 692.4,146.5 L 718.2,142.6 L 743.9,137.4 L 769.6,132.3 L 795.4,127.1 L 821.4,141.3 L 847.2,151.6 L 872.9,150.3 L 898.6,149.0 L 924.5,142.6 L 950.2,142.6 L 976.1,143.9 L 1001.9,133.6 L 1027.7,131.0 L 1053.5,132.3" fill="none" stroke="#3498db" stroke-width="2.2" stroke-linejoin="round" opacity="0.9"/>
<circle cx="124.5" cy="151.6" r="4" fill="#3498db" stroke="white" opacity="1.0"/>
<circle cx="150.3" cy="140.0" r="4" fill="#3498db" stroke="white" opacity="1.0"/>
<circle cx="176.0" cy="138.7" r="4" fill="#3498db" stroke="white" opacity="1.0"/>
<circle cx="201.9" cy="150.3" r="4" fill="#3498db" stroke="white" opacity="1.0"/>
<circle cx="227.7" cy="145.2" r="4" fill="#3498db" stroke="white" opacity="1.0"/>
<circle cx="253.5" cy="134.9" r="4" fill="#3498db" stroke="white" opacity="1.0"/>
<circle cx="279.3" cy="134.9" r="4" fill="#3498db" stroke="white" opacity="1.0"/>
<circle cx="305.1" cy="151.6" r="4" fill="#3498db" stroke="white" opacity="1.0"/>
<circle cx="330.9" cy="145.2" r="4" fill="#3498db" stroke="white" opacity="1.0"/>
<circle cx="356.8" cy="145.2" r="4" fill="#3498db" stroke="white" opacity="1.0"/>
<circle cx="382.6" cy="142.6" r="4" fill="#3498db" stroke="white" opacity="1.0"/>
<circle cx="408.4" cy="141.3" r="4" fill="#3498db" stroke="white" opacity="1.0"/>
<circle cx="434.1" cy="151.6" r="4" fill="#3498db" stroke="white" opacity="1.0"/>
<circle cx="459.9" cy="154.2" r="4" fill="#3498db" stroke="white" opacity="1.0"/>
<circle cx="485.7" cy="151.6" r="4" fill="#3498db" stroke="white" opacity="1.0"/>
<circle cx="511.7" cy="149.0" r="4" fill="#3498db" stroke="white" opacity="1.0"/>
<circle cx="537.4" cy="140.0" r="4" fill="#3498db" stroke="white" opacity="1.0"/>
<circle cx="563.2" cy="133.6" r="4" fill="#3498db" stroke="white" opacity="1.0"/>
<circle cx="589.0" cy="138.7" r="4" fill="#3498db" stroke="white" opacity="1.0"/>
<circle cx="614.8" cy="149.0" r="4" fill="#3498db" stroke="white" opacity="1.0"/>
<circle cx="640.6" cy="150.3" r="4" fill="#3498db" stroke="white" opacity="1.0"/>
<circle cx="666.5" cy="143.9" r="4" fill="#3498db" stroke="white" opacity="1.0"/>
<circle cx="692.4" cy="146.5" r="4" fill="#3498db" stroke="white" opacity="1.0"/>
<circle cx="718.2" cy="142.6" r="4" fill="#3498db" stroke="white" opacity="1.0"/>
<circle cx="743.9" cy="137.4" r="4" fill="#3498db" stroke="white" opacity="1.0"/>
<circle cx="769.6" cy="132.3" r="4" fill="#3498db" stroke="white" opacity="1.0"/>
<circle cx="795.4" cy="127.1" r="4" fill="#3498db" stroke="white" opacity="1.0"/>
<circle cx="821.4" cy="141.3" r="4" fill="#3498db" stroke="white" opacity="1.0"/>
<circle cx="847.2" cy="151.6" r="4" fill="#3498db" stroke="white" opacity="1.0"/>
<circle cx="872.9" cy="150.3" r="4" fill="#3498db" stroke="white" opacity="1.0"/>
<circle cx="898.6" cy="149.0" r="4" fill="#3498db" stroke="white" opacity="1.0"/>
<circle cx="924.5" cy="142.6" r="4" fill="#3498db" stroke="white" opacity="1.0"/>
<circle cx="950.2" cy="142.6" r="4" fill="#3498db" stroke="white" opacity="1.0"/>
<circle cx="976.1" cy="143.9" r="4" fill="#3498db" stroke="white" opacity="1.0"/>
<circle cx="1001.9" cy="133.6" r="4" fill="#3498db" stroke="white" opacity="1.0"/>
<circle cx="1027.7" cy="131.0" r="4" fill="#3498db" stroke="white" opacity="1.0"/>
<circle cx="1053.5" cy="132.3" r="4" fill="#3498db" stroke="white" opacity="1.0"/>
</g>
<g class="series pmic-series" data-mode="PFM" data-chip="21988" data-temp="25" data-reg="DC2DC_ANA">
<path d="M 124.5,143.9 L 150.2,142.6 L 176.0,147.7 L 201.9,146.5 L 227.7,137.4 L 253.5,136.2 L 279.3,143.9 L 305.0,145.2 L 330.9,141.3 L 356.8,132.3 L 382.6,128.4 L 408.4,147.7 L 434.1,147.7 L 459.9,146.5 L 485.7,137.4 L 511.6,134.9 L 537.4,136.2 L 563.2,147.7 L 589.0,143.9 L 614.8,138.7 L 640.6,134.9 L 666.5,131.0 L 692.4,127.1 L 718.2,142.6 L 743.9,149.0 L 769.6,143.9 L 795.4,141.3 L 821.3,140.0 L 847.2,134.9 L 872.8,131.0 L 898.6,124.6 L 924.5,127.1 L 950.2,152.9 L 976.1,152.9 L 1001.9,147.7 L 1027.7,141.3 L 1053.5,142.6" fill="none" stroke="#e67e22" stroke-width="2.2" stroke-linejoin="round" opacity="0.9"/>
<circle cx="124.5" cy="143.9" r="4" fill="#e67e22" stroke="white" opacity="1.0"/>
<circle cx="150.2" cy="142.6" r="4" fill="#e67e22" stroke="white" opacity="1.0"/>
<circle cx="176.0" cy="147.7" r="4" fill="#e67e22" stroke="white" opacity="1.0"/>
<circle cx="201.9" cy="146.5" r="4" fill="#e67e22" stroke="white" opacity="1.0"/>
<circle cx="227.7" cy="137.4" r="4" fill="#e67e22" stroke="white" opacity="1.0"/>
<circle cx="253.5" cy="136.2" r="4" fill="#e67e22" stroke="white" opacity="1.0"/>
<circle cx="279.3" cy="143.9" r="4" fill="#e67e22" stroke="white" opacity="1.0"/>
<circle cx="305.0" cy="145.2" r="4" fill="#e67e22" stroke="white" opacity="1.0"/>
<circle cx="330.9" cy="141.3" r="4" fill="#e67e22" stroke="white" opacity="1.0"/>
<circle cx="356.8" cy="132.3" r="4" fill="#e67e22" stroke="white" opacity="1.0"/>
<circle cx="382.6" cy="128.4" r="4" fill="#e67e22" stroke="white" opacity="1.0"/>
<circle cx="408.4" cy="147.7" r="4" fill="#e67e22" stroke="white" opacity="1.0"/>
<circle cx="434.1" cy="147.7" r="4" fill="#e67e22" stroke="white" opacity="1.0"/>
<circle cx="459.9" cy="146.5" r="4" fill="#e67e22" stroke="white" opacity="1.0"/>
<circle cx="485.7" cy="137.4" r="4" fill="#e67e22" stroke="white" opacity="1.0"/>
<circle cx="511.6" cy="134.9" r="4" fill="#e67e22" stroke="white" opacity="1.0"/>
<circle cx="537.4" cy="136.2" r="4" fill="#e67e22" stroke="white" opacity="1.0"/>
<circle cx="563.2" cy="147.7" r="4" fill="#e67e22" stroke="white" opacity="1.0"/>
<circle cx="589.0" cy="143.9" r="4" fill="#e67e22" stroke="white" opacity="1.0"/>
<circle cx="614.8" cy="138.7" r="4" fill="#e67e22" stroke="white" opacity="1.0"/>
<circle cx="640.6" cy="134.9" r="4" fill="#e67e22" stroke="white" opacity="1.0"/>
<circle cx="666.5" cy="131.0" r="4" fill="#e67e22" stroke="white" opacity="1.0"/>
<circle cx="692.4" cy="127.1" r="4" fill="#e67e22" stroke="white" opacity="1.0"/>
<circle cx="718.2" cy="142.6" r="4" fill="#e67e22" stroke="white" opacity="1.0"/>
<circle cx="743.9" cy="149.0" r="4" fill="#e67e22" stroke="white" opacity="1.0"/>
<circle cx="769.6" cy="143.9" r="4" fill="#e67e22" stroke="white" opacity="1.0"/>
<circle cx="795.4" cy="141.3" r="4" fill="#e67e22" stroke="white" opacity="1.0"/>
<circle cx="821.3" cy="140.0" r="4" fill="#e67e22" stroke="white" opacity="1.0"/>
<circle cx="847.2" cy="134.9" r="4" fill="#e67e22" stroke="white" opacity="1.0"/>
<circle cx="872.8" cy="131.0" r="4" fill="#e67e22" stroke="white" opacity="1.0"/>
<circle cx="898.6" cy="124.6" r="4" fill="#e67e22" stroke="white" opacity="1.0"/>
<circle cx="924.5" cy="127.1" r="4" fill="#e67e22" stroke="white" opacity="1.0"/>
<circle cx="950.2" cy="152.9" r="4" fill="#e67e22" stroke="white" opacity="1.0"/>
<circle cx="976.1" cy="152.9" r="4" fill="#e67e22" stroke="white" opacity="1.0"/>
<circle cx="1001.9" cy="147.7" r="4" fill="#e67e22" stroke="white" opacity="1.0"/>
<circle cx="1027.7" cy="141.3" r="4" fill="#e67e22" stroke="white" opacity="1.0"/>
<circle cx="1053.5" cy="142.6" r="4" fill="#e67e22" stroke="white" opacity="1.0"/>
</g>
<g class="series pmic-series" data-mode="PFM" data-chip="21988" data-temp="80" data-reg="DC2DC_ANA">
<path d="M 124.5,116.8 L 150.2,114.3 L 176.0,123.3 L 201.9,115.5 L 227.7,111.7 L 253.5,116.8 L 279.3,124.6 L 305.0,110.4 L 330.9,114.3 L 356.7,111.7 L 382.6,111.7 L 408.4,114.3 L 434.1,113.0 L 459.9,113.0 L 485.7,102.7 L 511.6,109.1 L 537.4,122.0 L 563.2,113.0 L 589.0,113.0 L 614.8,105.2 L 640.6,102.7 L 666.5,97.5 L 692.4,106.5 L 718.2,124.6 L 743.9,115.5 L 769.6,104.0 L 795.4,101.4 L 821.4,104.0 L 847.1,101.4 L 872.8,96.2 L 898.6,93.7 L 924.5,97.5 L 950.2,118.1 L 976.1,116.8 L 1001.9,115.5 L 1027.7,109.1 L 1053.5,107.8" fill="none" stroke="#2ecc71" stroke-width="2.2" stroke-linejoin="round" opacity="0.9"/>
<circle cx="124.5" cy="116.8" r="4" fill="#2ecc71" stroke="white" opacity="1.0"/>
<circle cx="150.2" cy="114.3" r="4" fill="#2ecc71" stroke="white" opacity="1.0"/>
<circle cx="176.0" cy="123.3" r="4" fill="#2ecc71" stroke="white" opacity="1.0"/>
<circle cx="201.9" cy="115.5" r="4" fill="#2ecc71" stroke="white" opacity="1.0"/>
<circle cx="227.7" cy="111.7" r="4" fill="#2ecc71" stroke="white" opacity="1.0"/>
<circle cx="253.5" cy="116.8" r="4" fill="#2ecc71" stroke="white" opacity="1.0"/>
<circle cx="279.3" cy="124.6" r="4" fill="#2ecc71" stroke="white" opacity="1.0"/>
<circle cx="305.0" cy="110.4" r="4" fill="#2ecc71" stroke="white" opacity="1.0"/>
<circle cx="330.9" cy="114.3" r="4" fill="#2ecc71" stroke="white" opacity="1.0"/>
<circle cx="356.7" cy="111.7" r="4" fill="#2ecc71" stroke="white" opacity="1.0"/>
<circle cx="382.6" cy="111.7" r="4" fill="#2ecc71" stroke="white" opacity="1.0"/>
<circle cx="408.4" cy="114.3" r="4" fill="#2ecc71" stroke="white" opacity="1.0"/>
<circle cx="434.1" cy="113.0" r="4" fill="#2ecc71" stroke="white" opacity="1.0"/>
<circle cx="459.9" cy="113.0" r="4" fill="#2ecc71" stroke="white" opacity="1.0"/>
<circle cx="485.7" cy="102.7" r="4" fill="#2ecc71" stroke="white" opacity="1.0"/>
<circle cx="511.6" cy="109.1" r="4" fill="#2ecc71" stroke="white" opacity="1.0"/>
<circle cx="537.4" cy="122.0" r="4" fill="#2ecc71" stroke="white" opacity="1.0"/>
<circle cx="563.2" cy="113.0" r="4" fill="#2ecc71" stroke="white" opacity="1.0"/>
<circle cx="589.0" cy="113.0" r="4" fill="#2ecc71" stroke="white" opacity="1.0"/>
<circle cx="614.8" cy="105.2" r="4" fill="#2ecc71" stroke="white" opacity="1.0"/>
<circle cx="640.6" cy="102.7" r="4" fill="#2ecc71" stroke="white" opacity="1.0"/>
<circle cx="666.5" cy="97.5" r="4" fill="#2ecc71" stroke="white" opacity="1.0"/>
<circle cx="692.4" cy="106.5" r="4" fill="#2ecc71" stroke="white" opacity="1.0"/>
<circle cx="718.2" cy="124.6" r="4" fill="#2ecc71" stroke="white" opacity="1.0"/>
<circle cx="743.9" cy="115.5" r="4" fill="#2ecc71" stroke="white" opacity="1.0"/>
<circle cx="769.6" cy="104.0" r="4" fill="#2ecc71" stroke="white" opacity="1.0"/>
<circle cx="795.4" cy="101.4" r="4" fill="#2ecc71" stroke="white" opacity="1.0"/>
<circle cx="821.4" cy="104.0" r="4" fill="#2ecc71" stroke="white" opacity="1.0"/>
<circle cx="847.1" cy="101.4" r="4" fill="#2ecc71" stroke="white" opacity="1.0"/>
<circle cx="872.8" cy="96.2" r="4" fill="#2ecc71" stroke="white" opacity="1.0"/>
<circle cx="898.6" cy="93.7" r="4" fill="#2ecc71" stroke="white" opacity="1.0"/>
<circle cx="924.5" cy="97.5" r="4" fill="#2ecc71" stroke="white" opacity="1.0"/>
<circle cx="950.2" cy="118.1" r="4" fill="#2ecc71" stroke="white" opacity="1.0"/>
<circle cx="976.1" cy="116.8" r="4" fill="#2ecc71" stroke="white" opacity="1.0"/>
<circle cx="1001.9" cy="115.5" r="4" fill="#2ecc71" stroke="white" opacity="1.0"/>
<circle cx="1027.7" cy="109.1" r="4" fill="#2ecc71" stroke="white" opacity="1.0"/>
<circle cx="1053.5" cy="107.8" r="4" fill="#2ecc71" stroke="white" opacity="1.0"/>
</g>
<g class="series pmic-series" data-mode="PFM" data-chip="31927" data-temp="0" data-reg="DC2DC_ANA">
<path d="M 124.5,187.7 L 150.2,182.5 L 176.0,185.1 L 201.9,183.8 L 227.7,182.5 L 253.5,185.1 L 279.3,181.2 L 305.0,177.4 L 330.8,178.7 L 356.8,186.4 L 382.6,185.1 L 408.4,176.1 L 434.1,173.5 L 459.9,174.8 L 485.7,174.8 L 511.6,169.6 L 537.4,181.2 L 563.2,182.5 L 589.0,174.8 L 614.8,172.2 L 640.6,173.5 L 666.5,165.8 L 692.4,167.1 L 718.2,160.6 L 743.9,178.7 L 769.6,183.8 L 795.4,183.8 L 821.3,176.1 L 847.2,170.9 L 872.8,167.1 L 898.6,167.1 L 924.4,167.1 L 950.2,163.2 L 976.1,160.6 L 1001.9,161.9 L 1027.7,170.9 L 1053.5,181.2" fill="none" stroke="#9b59b6" stroke-width="2.2" stroke-linejoin="round" opacity="0.9"/>
<circle cx="124.5" cy="187.7" r="4" fill="#9b59b6" stroke="white" opacity="1.0"/>
<circle cx="150.2" cy="182.5" r="4" fill="#9b59b6" stroke="white" opacity="1.0"/>
<circle cx="176.0" cy="185.1" r="4" fill="#9b59b6" stroke="white" opacity="1.0"/>
<circle cx="201.9" cy="183.8" r="4" fill="#9b59b6" stroke="white" opacity="1.0"/>
<circle cx="227.7" cy="182.5" r="4" fill="#9b59b6" stroke="white" opacity="1.0"/>
<circle cx="253.5" cy="185.1" r="4" fill="#9b59b6" stroke="white" opacity="1.0"/>
<circle cx="279.3" cy="181.2" r="4" fill="#9b59b6" stroke="white" opacity="1.0"/>
<circle cx="305.0" cy="177.4" r="4" fill="#9b59b6" stroke="white" opacity="1.0"/>
<circle cx="330.8" cy="178.7" r="4" fill="#9b59b6" stroke="white" opacity="1.0"/>
<circle cx="356.8" cy="186.4" r="4" fill="#9b59b6" stroke="white" opacity="1.0"/>
<circle cx="382.6" cy="185.1" r="4" fill="#9b59b6" stroke="white" opacity="1.0"/>
<circle cx="408.4" cy="176.1" r="4" fill="#9b59b6" stroke="white" opacity="1.0"/>
<circle cx="434.1" cy="173.5" r="4" fill="#9b59b6" stroke="white" opacity="1.0"/>
<circle cx="459.9" cy="174.8" r="4" fill="#9b59b6" stroke="white" opacity="1.0"/>
<circle cx="485.7" cy="174.8" r="4" fill="#9b59b6" stroke="white" opacity="1.0"/>
<circle cx="511.6" cy="169.6" r="4" fill="#9b59b6" stroke="white" opacity="1.0"/>
<circle cx="537.4" cy="181.2" r="4" fill="#9b59b6" stroke="white" opacity="1.0"/>
<circle cx="563.2" cy="182.5" r="4" fill="#9b59b6" stroke="white" opacity="1.0"/>
<circle cx="589.0" cy="174.8" r="4" fill="#9b59b6" stroke="white" opacity="1.0"/>
<circle cx="614.8" cy="172.2" r="4" fill="#9b59b6" stroke="white" opacity="1.0"/>
<circle cx="640.6" cy="173.5" r="4" fill="#9b59b6" stroke="white" opacity="1.0"/>
<circle cx="666.5" cy="165.8" r="4" fill="#9b59b6" stroke="white" opacity="1.0"/>
<circle cx="692.4" cy="167.1" r="4" fill="#9b59b6" stroke="white" opacity="1.0"/>
<circle cx="718.2" cy="160.6" r="4" fill="#9b59b6" stroke="white" opacity="1.0"/>
<circle cx="743.9" cy="178.7" r="4" fill="#9b59b6" stroke="white" opacity="1.0"/>
<circle cx="769.6" cy="183.8" r="4" fill="#9b59b6" stroke="white" opacity="1.0"/>
<circle cx="795.4" cy="183.8" r="4" fill="#9b59b6" stroke="white" opacity="1.0"/>
<circle cx="821.3" cy="176.1" r="4" fill="#9b59b6" stroke="white" opacity="1.0"/>
<circle cx="847.2" cy="170.9" r="4" fill="#9b59b6" stroke="white" opacity="1.0"/>
<circle cx="872.8" cy="167.1" r="4" fill="#9b59b6" stroke="white" opacity="1.0"/>
<circle cx="898.6" cy="167.1" r="4" fill="#9b59b6" stroke="white" opacity="1.0"/>
<circle cx="924.4" cy="167.1" r="4" fill="#9b59b6" stroke="white" opacity="1.0"/>
<circle cx="950.2" cy="163.2" r="4" fill="#9b59b6" stroke="white" opacity="1.0"/>
<circle cx="976.1" cy="160.6" r="4" fill="#9b59b6" stroke="white" opacity="1.0"/>
<circle cx="1001.9" cy="161.9" r="4" fill="#9b59b6" stroke="white" opacity="1.0"/>
<circle cx="1027.7" cy="170.9" r="4" fill="#9b59b6" stroke="white" opacity="1.0"/>
<circle cx="1053.5" cy="181.2" r="4" fill="#9b59b6" stroke="white" opacity="1.0"/>
</g>
<g class="series pmic-series" data-mode="PFM" data-chip="31927" data-temp="25" data-reg="DC2DC_ANA">
<path d="M 124.5,364.1 L 150.2,361.5 L 176.0,349.9 L 201.9,359.0 L 227.7,359.0 L 253.5,351.2 L 279.3,349.9 L 305.0,348.7 L 330.8,356.4 L 356.7,353.8 L 382.6,359.0 L 408.4,352.5 L 434.1,347.4 L 459.9,348.7 L 485.7,357.7 L 511.6,353.8 L 537.4,346.1 L 563.2,347.4 L 589.0,339.6 L 614.8,333.2 L 640.6,340.9 L 666.5,352.5 L 692.4,346.1 L 718.2,342.2 L 743.9,339.6 L 769.6,335.8 L 795.4,338.4 L 821.4,331.9 L 847.1,325.5 L 872.9,330.6 L 898.6,344.8 L 924.4,344.8 L 950.2,342.2 L 976.1,339.6 L 1001.9,338.4 L 1027.7,343.5 L 1053.5,333.2" fill="none" stroke="#1abc9c" stroke-width="2.2" stroke-linejoin="round" opacity="0.9"/>
<circle cx="124.5" cy="364.1" r="4" fill="#1abc9c" stroke="white" opacity="1.0"/>
<circle cx="150.2" cy="361.5" r="4" fill="#1abc9c" stroke="white" opacity="1.0"/>
<circle cx="176.0" cy="349.9" r="4" fill="#1abc9c" stroke="white" opacity="1.0"/>
<circle cx="201.9" cy="359.0" r="4" fill="#1abc9c" stroke="white" opacity="1.0"/>
<circle cx="227.7" cy="359.0" r="4" fill="#1abc9c" stroke="white" opacity="1.0"/>
<circle cx="253.5" cy="351.2" r="4" fill="#1abc9c" stroke="white" opacity="1.0"/>
<circle cx="279.3" cy="349.9" r="4" fill="#1abc9c" stroke="white" opacity="1.0"/>
<circle cx="305.0" cy="348.7" r="4" fill="#1abc9c" stroke="white" opacity="1.0"/>
<circle cx="330.8" cy="356.4" r="4" fill="#1abc9c" stroke="white" opacity="1.0"/>
<circle cx="356.7" cy="353.8" r="4" fill="#1abc9c" stroke="white" opacity="1.0"/>
<circle cx="382.6" cy="359.0" r="4" fill="#1abc9c" stroke="white" opacity="1.0"/>
<circle cx="408.4" cy="352.5" r="4" fill="#1abc9c" stroke="white" opacity="1.0"/>
<circle cx="434.1" cy="347.4" r="4" fill="#1abc9c" stroke="white" opacity="1.0"/>
<circle cx="459.9" cy="348.7" r="4" fill="#1abc9c" stroke="white" opacity="1.0"/>
<circle cx="485.7" cy="357.7" r="4" fill="#1abc9c" stroke="white" opacity="1.0"/>
<circle cx="511.6" cy="353.8" r="4" fill="#1abc9c" stroke="white" opacity="1.0"/>
<circle cx="537.4" cy="346.1" r="4" fill="#1abc9c" stroke="white" opacity="1.0"/>
<circle cx="563.2" cy="347.4" r="4" fill="#1abc9c" stroke="white" opacity="1.0"/>
<circle cx="589.0" cy="339.6" r="4" fill="#1abc9c" stroke="white" opacity="1.0"/>
<circle cx="614.8" cy="333.2" r="4" fill="#1abc9c" stroke="white" opacity="1.0"/>
<circle cx="640.6" cy="340.9" r="4" fill="#1abc9c" stroke="white" opacity="1.0"/>
<circle cx="666.5" cy="352.5" r="4" fill="#1abc9c" stroke="white" opacity="1.0"/>
<circle cx="692.4" cy="346.1" r="4" fill="#1abc9c" stroke="white" opacity="1.0"/>
<circle cx="718.2" cy="342.2" r="4" fill="#1abc9c" stroke="white" opacity="1.0"/>
<circle cx="743.9" cy="339.6" r="4" fill="#1abc9c" stroke="white" opacity="1.0"/>
<circle cx="769.6" cy="335.8" r="4" fill="#1abc9c" stroke="white" opacity="1.0"/>
<circle cx="795.4" cy="338.4" r="4" fill="#1abc9c" stroke="white" opacity="1.0"/>
<circle cx="821.4" cy="331.9" r="4" fill="#1abc9c" stroke="white" opacity="1.0"/>
<circle cx="847.1" cy="325.5" r="4" fill="#1abc9c" stroke="white" opacity="1.0"/>
<circle cx="872.9" cy="330.6" r="4" fill="#1abc9c" stroke="white" opacity="1.0"/>
<circle cx="898.6" cy="344.8" r="4" fill="#1abc9c" stroke="white" opacity="1.0"/>
<circle cx="924.4" cy="344.8" r="4" fill="#1abc9c" stroke="white" opacity="1.0"/>
<circle cx="950.2" cy="342.2" r="4" fill="#1abc9c" stroke="white" opacity="1.0"/>
<circle cx="976.1" cy="339.6" r="4" fill="#1abc9c" stroke="white" opacity="1.0"/>
<circle cx="1001.9" cy="338.4" r="4" fill="#1abc9c" stroke="white" opacity="1.0"/>
<circle cx="1027.7" cy="343.5" r="4" fill="#1abc9c" stroke="white" opacity="1.0"/>
<circle cx="1053.5" cy="333.2" r="4" fill="#1abc9c" stroke="white" opacity="1.0"/>
</g>
<g class="series pmic-series" data-mode="PFM" data-chip="31927" data-temp="80" data-reg="DC2DC_ANA">
<path d="M 124.5,405.3 L 150.2,407.9 L 176.0,406.6 L 201.9,401.5 L 227.7,414.3 L 253.5,410.5 L 279.3,411.8 L 305.0,401.5 L 330.9,402.8 L 356.8,410.5 L 382.6,405.3 L 408.4,401.5 L 434.1,402.8 L 459.9,397.6 L 485.7,407.9 L 511.6,410.5 L 537.4,406.6 L 563.2,406.6 L 589.0,402.8 L 614.8,392.5 L 640.6,400.2 L 666.5,413.1 L 692.4,414.3 L 718.2,406.6 L 743.9,398.9 L 769.6,402.8 L 795.4,396.3 L 821.3,398.9 L 847.2,391.2 L 872.9,398.9 L 898.6,410.5 L 924.4,407.9 L 950.2,402.8 L 976.1,401.5 L 1001.9,401.5 L 1027.7,398.9 L 1053.5,398.9" fill="none" stroke="#e74c3c" stroke-width="2.2" stroke-linejoin="round" opacity="0.9"/>
<circle cx="124.5" cy="405.3" r="4" fill="#e74c3c" stroke="white" opacity="1.0"/>
<circle cx="150.2" cy="407.9" r="4" fill="#e74c3c" stroke="white" opacity="1.0"/>
<circle cx="176.0" cy="406.6" r="4" fill="#e74c3c" stroke="white" opacity="1.0"/>
<circle cx="201.9" cy="401.5" r="4" fill="#e74c3c" stroke="white" opacity="1.0"/>
<circle cx="227.7" cy="414.3" r="4" fill="#e74c3c" stroke="white" opacity="1.0"/>
<circle cx="253.5" cy="410.5" r="4" fill="#e74c3c" stroke="white" opacity="1.0"/>
<circle cx="279.3" cy="411.8" r="4" fill="#e74c3c" stroke="white" opacity="1.0"/>
<circle cx="305.0" cy="401.5" r="4" fill="#e74c3c" stroke="white" opacity="1.0"/>
<circle cx="330.9" cy="402.8" r="4" fill="#e74c3c" stroke="white" opacity="1.0"/>
<circle cx="356.8" cy="410.5" r="4" fill="#e74c3c" stroke="white" opacity="1.0"/>
<circle cx="382.6" cy="405.3" r="4" fill="#e74c3c" stroke="white" opacity="1.0"/>
<circle cx="408.4" cy="401.5" r="4" fill="#e74c3c" stroke="white" opacity="1.0"/>
<circle cx="434.1" cy="402.8" r="4" fill="#e74c3c" stroke="white" opacity="1.0"/>
<circle cx="459.9" cy="397.6" r="4" fill="#e74c3c" stroke="white" opacity="1.0"/>
<circle cx="485.7" cy="407.9" r="4" fill="#e74c3c" stroke="white" opacity="1.0"/>
<circle cx="511.6" cy="410.5" r="4" fill="#e74c3c" stroke="white" opacity="1.0"/>
<circle cx="537.4" cy="406.6" r="4" fill="#e74c3c" stroke="white" opacity="1.0"/>
<circle cx="563.2" cy="406.6" r="4" fill="#e74c3c" stroke="white" opacity="1.0"/>
<circle cx="589.0" cy="402.8" r="4" fill="#e74c3c" stroke="white" opacity="1.0"/>
<circle cx="614.8" cy="392.5" r="4" fill="#e74c3c" stroke="white" opacity="1.0"/>
<circle cx="640.6" cy="400.2" r="4" fill="#e74c3c" stroke="white" opacity="1.0"/>
<circle cx="666.5" cy="413.1" r="4" fill="#e74c3c" stroke="white" opacity="1.0"/>
<circle cx="692.4" cy="414.3" r="4" fill="#e74c3c" stroke="white" opacity="1.0"/>
<circle cx="718.2" cy="406.6" r="4" fill="#e74c3c" stroke="white" opacity="1.0"/>
<circle cx="743.9" cy="398.9" r="4" fill="#e74c3c" stroke="white" opacity="1.0"/>
<circle cx="769.6" cy="402.8" r="4" fill="#e74c3c" stroke="white" opacity="1.0"/>
<circle cx="795.4" cy="396.3" r="4" fill="#e74c3c" stroke="white" opacity="1.0"/>
<circle cx="821.3" cy="398.9" r="4" fill="#e74c3c" stroke="white" opacity="1.0"/>
<circle cx="847.2" cy="391.2" r="4" fill="#e74c3c" stroke="white" opacity="1.0"/>
<circle cx="872.9" cy="398.9" r="4" fill="#e74c3c" stroke="white" opacity="1.0"/>
<circle cx="898.6" cy="410.5" r="4" fill="#e74c3c" stroke="white" opacity="1.0"/>
<circle cx="924.4" cy="407.9" r="4" fill="#e74c3c" stroke="white" opacity="1.0"/>
<circle cx="950.2" cy="402.8" r="4" fill="#e74c3c" stroke="white" opacity="1.0"/>
<circle cx="976.1" cy="401.5" r="4" fill="#e74c3c" stroke="white" opacity="1.0"/>
<circle cx="1001.9" cy="401.5" r="4" fill="#e74c3c" stroke="white" opacity="1.0"/>
<circle cx="1027.7" cy="398.9" r="4" fill="#e74c3c" stroke="white" opacity="1.0"/>
<circle cx="1053.5" cy="398.9" r="4" fill="#e74c3c" stroke="white" opacity="1.0"/>
</g>
<g class="legend-item" data-mode="PFM" data-chip="21988" data-temp="0" data-reg="DC2DC_ANA">
<rect x="1116.0" y="69.0" width="22.0" height="4.0" fill="#3498db" stroke="none" stroke-width="1" opacity="1.0" rx="2"/>
<circle cx="1127.0" cy="71.0" r="4" fill="#3498db" stroke="none" opacity="1.0"/>
<text x="1144.0" y="76.0" font-size="9" font-weight="normal" text-anchor="start" fill="#333" font-family="Arial,sans-serif">Chip 21988 | T=0°C</text>
</g>
<g class="legend-item" data-mode="PFM" data-chip="21988" data-temp="25" data-reg="DC2DC_ANA">
<rect x="1116.0" y="86.0" width="22.0" height="4.0" fill="#e67e22" stroke="none" stroke-width="1" opacity="1.0" rx="2"/>
<circle cx="1127.0" cy="88.0" r="4" fill="#e67e22" stroke="none" opacity="1.0"/>
<text x="1144.0" y="93.0" font-size="9" font-weight="normal" text-anchor="start" fill="#333" font-family="Arial,sans-serif">Chip 21988 | T=25°C</text>
</g>
<g class="legend-item" data-mode="PFM" data-chip="21988" data-temp="80" data-reg="DC2DC_ANA">
<rect x="1116.0" y="103.0" width="22.0" height="4.0" fill="#2ecc71" stroke="none" stroke-width="1" opacity="1.0" rx="2"/>
<circle cx="1127.0" cy="105.0" r="4" fill="#2ecc71" stroke="none" opacity="1.0"/>
<text x="1144.0" y="110.0" font-size="9" font-weight="normal" text-anchor="start" fill="#333" font-family="Arial,sans-serif">Chip 21988 | T=80°C</text>
</g>
<g class="legend-item" data-mode="PFM" data-chip="31927" data-temp="0" data-reg="DC2DC_ANA">
<rect x="1116.0" y="120.0" width="22.0" height="4.0" fill="#9b59b6" stroke="none" stroke-width="1" opacity="1.0" rx="2"/>
<circle cx="1127.0" cy="122.0" r="4" fill="#9b59b6" stroke="none" opacity="1.0"/>
<text x="1144.0" y="127.0" font-size="9" font-weight="normal" text-anchor="start" fill="#333" font-family="Arial,sans-serif">Chip 31927 | T=0°C</text>
</g>
<g class="legend-item" data-mode="PFM" data-chip="31927" data-temp="25" data-reg="DC2DC_ANA">
<rect x="1116.0" y="137.0" width="22.0" height="4.0" fill="#1abc9c" stroke="none" stroke-width="1" opacity="1.0" rx="2"/>
<circle cx="1127.0" cy="139.0" r="4" fill="#1abc9c" stroke="none" opacity="1.0"/>
<text x="1144.0" y="144.0" font-size="9" font-weight="normal" text-anchor="start" fill="#333" font-family="Arial,sans-serif">Chip 31927 | T=25°C</text>
</g>
<g class="legend-item" data-mode="PFM" data-chip="31927" data-temp="80" data-reg="DC2DC_ANA">
<rect x="1116.0" y="154.0" width="22.0" height="4.0" fill="#e74c3c" stroke="none" stroke-width="1" opacity="1.0" rx="2"/>
<circle cx="1127.0" cy="156.0" r="4" fill="#e74c3c" stroke="none" opacity="1.0"/>
<text x="1144.0" y="161.0" font-size="9" font-weight="normal" text-anchor="start" fill="#333" font-family="Arial,sans-serif">Chip 31927 | T=80°C</text>
</g>
<rect class="cursor-overlay" x="78.0" y="68.0" width="1022.0" height="372.0" fill="transparent" style="cursor:default" data-xmin="2.446395" data-xmax="3.634505" data-ymin="1.005908" data-ymax="1.034792" data-pl="78.0" data-pr="1100.0" data-pt="68.0" data-pb="440.0"/>
<g class="cursor-layer" style="pointer-events:none;display:none"><line class="cur-v" x1="0" y1="68.0" x2="0" y2="440.0" stroke="#e74c3c" stroke-width="1.2" stroke-dasharray="5,3"/><line class="cur-h" x1="78.0" y1="0" x2="1100.0" y2="0" stroke="#e74c3c" stroke-width="1.2" stroke-dasharray="5,3"/><rect class="cur-tip-bg" x="0" y="0" width="148" height="44" rx="5" fill="#1a252f" stroke="#34495e" stroke-width="1" opacity="0.92"/><text class="cur-tip-x" x="0" y="0" font-size="11" font-family="Arial,sans-serif" fill="#ecf0f1"/><text class="cur-tip-y" x="0" y="0" font-size="11" font-family="Arial,sans-serif" fill="#2ecc71"/></g>
</svg>