<svg xmlns="http://www.w3.org/2000/svg" width="1400" height="941" viewBox="0 0 1400 941">
<rect width="1400" height="941" fill="#ffffff"/>
<text x="700.0" y="28.0" font-size="16" font-weight="bold" text-anchor="middle" fill="#2c3e50" font-family="Arial,sans-serif">Voltage Transitions — Analog DC2DC  Vout=1.2V  — Falling Edge Time</text>
<line x1="78.0" y1="68.0" x2="78.0" y2="861.0" stroke="#999" stroke-width="1"/>
<line x1="73.0" y1="861.0" x2="78.0" y2="861.0" stroke="#999" stroke-width="1"/>
<line x1="78.0" y1="861.0" x2="1100.0" y2="861.0" stroke="#e8e8e8" stroke-width="0.7" stroke-dasharray="4,3"/>
<text x="70.0" y="865.0" font-size="9" font-weight="normal" text-anchor="end" fill="#888" font-family="Arial,sans-serif">6</text>
<line x1="73.0" y1="702.4" x2="78.0" y2="702.4" stroke="#999" stroke-width="1"/>
<line x1="78.0" y1="702.4" x2="1100.0" y2="702.4" stroke="#e8e8e8" stroke-width="0.7" stroke-dasharray="4,3"/>
<text x="70.0" y="706.4" font-size="9" font-weight="normal" text-anchor="end" fill="#888" font-family="Arial,sans-serif">22.1</text>
<line x1="73.0" y1="543.8" x2="78.0" y2="543.8" stroke="#999" stroke-width="1"/>
<line x1="78.0" y1="543.8" x2="1100.0" y2="543.8" stroke="#e8e8e8" stroke-width="0.7" stroke-dasharray="4,3"/>
<text x="70.0" y="547.8" font-size="9" font-weight="normal" text-anchor="end" fill="#888" font-family="Arial,sans-serif">38.2</text>
<line x1="73.0" y1="385.2" x2="78.0" y2="385.2" stroke="#999" stroke-width="1"/>
<line x1="78.0" y1="385.2" x2="1100.0" y2="385.2" stroke="#e8e8e8" stroke-width="0.7" stroke-dasharray="4,3"/>
<text x="70.0" y="389.2" font-size="9" font-weight="normal" text-anchor="end" fill="#888" font-family="Arial,sans-serif">54.2</text>
<line x1="73.0" y1="226.6" x2="78.0" y2="226.6" stroke="#999" stroke-width="1"/>
<line x1="78.0" y1="226.6" x2="1100.0" y2="226.6" stroke="#e8e8e8" stroke-width="0.7" stroke-dasharray="4,3"/>
<text x="70.0" y="230.6" font-size="9" font-weight="normal" text-anchor="end" fill="#888" font-family="Arial,sans-serif">70.3</text>
<line x1="73.0" y1="68.0" x2="78.0" y2="68.0" stroke="#999" stroke-width="1"/>
<line x1="78.0" y1="68.0" x2="1100.0" y2="68.0" stroke="#e8e8e8" stroke-width="0.7" stroke-dasharray="4,3"/>
<text x="70.0" y="72.0" font-size="9" font-weight="normal" text-anchor="end" fill="#888" font-family="Arial,sans-serif">86.4</text>
<line x1="78.0" y1="861.0" x2="1100.0" y2="861.0" stroke="#999" stroke-width="1"/>
<line x1="333.5" y1="861.0" x2="333.5" y2="866.0" stroke="#999" stroke-width="1"/>
<line x1="333.5" y1="68.0" x2="333.5" y2="861.0" stroke="#e8e8e8" stroke-width="0.7" stroke-dasharray="4,3"/>
<text x="333.5" y="877.0" font-size="10" font-weight="normal" text-anchor="middle" fill="#888" font-family="Arial,sans-serif">Vin=3.135V</text>
<line x1="589.0" y1="861.0" x2="589.0" y2="866.0" stroke="#999" stroke-width="1"/>
<line x1="589.0" y1="68.0" x2="589.0" y2="861.0" stroke="#e8e8e8" stroke-width="0.7" stroke-dasharray="4,3"/>
<text x="589.0" y="877.0" font-size="10" font-weight="normal" text-anchor="middle" fill="#888" font-family="Arial,sans-serif">Vin=3.3V</text>
<line x1="844.5" y1="861.0" x2="844.5" y2="866.0" stroke="#999" stroke-width="1"/>
<line x1="844.5" y1="68.0" x2="844.5" y2="861.0" stroke="#e8e8e8" stroke-width="0.7" stroke-dasharray="4,3"/>
<text x="844.5" y="877.0" font-size="10" font-weight="normal" text-anchor="middle" fill="#888" font-family="Arial,sans-serif">Vin=3.465V</text>
<text x="16.0" y="464.5" font-size="11" font-weight="normal" text-anchor="middle" fill="#555" font-family="Arial,sans-serif" transform="rotate(-90,16,464.5)">Fall Time [µs]</text>
<text x="589.0" y="931.0" font-size="11" font-weight="normal" text-anchor="middle" fill="#555" font-family="Arial,sans-serif">Vin Setpoint [V]</text>
<g class="series pmic-series" data-chip="21988" data-temp="0" data-mode="AUTO_PFM" data-reg="DC2DC_ANA">
<path d="M 223.5,661.5 L 479.0,677.7 L 734.5,672.8" fill="none" stroke="#3498db" stroke-width="1.8" stroke-dasharray="5,3" opacity="0.6"/>
<circle cx="223.5" cy="661.5" r="6" fill="#3498db" stroke="white" opacity="1.0"/>
<circle cx="479.0" cy="677.7" r="6" fill="#3498db" stroke="white" opacity="1.0"/>
<circle cx="734.5" cy="672.8" r="6" fill="#3498db" stroke="white" opacity="1.0"/>
</g>
<g class="series pmic-series" data-chip="21988" data-temp="0" data-mode="PWM" data-reg="DC2DC_ANA">
<path d="M 228.5,732.4 L 484.0,729.4 L 739.5,727.4" fill="none" stroke="#e67e22" stroke-width="1.8" stroke-dasharray="5,3" opacity="0.6"/>
<circle cx="228.5" cy="732.4" r="6" fill="#e67e22" stroke="white" opacity="1.0"/>
<circle cx="484.0" cy="729.4" r="6" fill="#e67e22" stroke="white" opacity="1.0"/>
<circle cx="739.5" cy="727.4" r="6" fill="#e67e22" stroke="white" opacity="1.0"/>
</g>
<g class="series pmic-series" data-chip="21988" data-temp="0" data-mode="PWM_L" data-reg="DC2DC_ANA">
<path d="M 233.5,697.3 L 489.0,697.1 L 744.5,697.5" fill="none" stroke="#2ecc71" stroke-width="1.8" stroke-dasharray="5,3" opacity="0.6"/>
<circle cx="233.5" cy="697.3" r="6" fill="#2ecc71" stroke="white" opacity="1.0"/>
<circle cx="489.0" cy="697.1" r="6" fill="#2ecc71" stroke="white" opacity="1.0"/>
<circle cx="744.5" cy="697.5" r="6" fill="#2ecc71" stroke="white" opacity="1.0"/>
</g>
<g class="series pmic-series" data-chip="21988" data-temp="25" data-mode="AUTO_PFM" data-reg="DC2DC_ANA">
<path d="M 238.5,665.3 L 494.0,680.7 L 749.5,666.8" fill="none" stroke="#9b59b6" stroke-width="1.8" stroke-dasharray="5,3" opacity="0.6"/>
<circle cx="238.5" cy="665.3" r="6" fill="#9b59b6" stroke="white" opacity="1.0"/>
<circle cx="494.0" cy="680.7" r="6" fill="#9b59b6" stroke="white" opacity="1.0"/>
<circle cx="749.5" cy="666.8" r="6" fill="#9b59b6" stroke="white" opacity="1.0"/>
</g>
<g class="series pmic-series" data-chip="21988" data-temp="25" data-mode="PWM" data-reg="DC2DC_ANA">
<path d="M 243.5,731.5 L 499.0,732.1 L 754.5,732.7" fill="none" stroke="#1abc9c" stroke-width="1.8" stroke-dasharray="5,3" opacity="0.6"/>
<circle cx="243.5" cy="731.5" r="6" fill="#1abc9c" stroke="white" opacity="1.0"/>
<circle cx="499.0" cy="732.1" r="6" fill="#1abc9c" stroke="white" opacity="1.0"/>
<circle cx="754.5" cy="732.7" r="6" fill="#1abc9c" stroke="white" opacity="1.0"/>
</g>
<g class="series pmic-series" data-chip="21988" data-temp="25" data-mode="PWM_L" data-reg="DC2DC_ANA">
<path d="M 248.5,694.2 L 504.0,696.1 L 759.5,697.7" fill="none" stroke="#e74c3c" stroke-width="1.8" stroke-dasharray="5,3" opacity="0.6"/>
<circle cx="248.5" cy="694.2" r="6" fill="#e74c3c" stroke="white" opacity="1.0"/>
<circle cx="504.0" cy="696.1" r="6" fill="#e74c3c" stroke="white" opacity="1.0"/>
<circle cx="759.5" cy="697.7" r="6" fill="#e74c3c" stroke="white" opacity="1.0"/>
</g>
<g class="series pmic-series" data-chip="21988" data-temp="80" data-mode="AUTO_PFM" data-reg="DC2DC_ANA">
<path d="M 253.5,717.9 L 509.0,725.2 L 764.5,721.9" fill="none" stroke="#f39c12" stroke-width="1.8" stroke-dasharray="5,3" opacity="0.6"/>
<circle cx="253.5" cy="717.9" r="6" fill="#f39c12" stroke="white" opacity="1.0"/>
<circle cx="509.0" cy="725.2" r="6" fill="#f39c12" stroke="white" opacity="1.0"/>
<circle cx="764.5" cy="721.9" r="6" fill="#f39c12" stroke="white" opacity="1.0"/>
</g>
<g class="series pmic-series" data-chip="21988" data-temp="80" data-mode="PWM" data-reg="DC2DC_ANA">
<path d="M 258.5,726.3 L 514.0,727.8 L 769.5,727.8" fill="none" stroke="#2980b9" stroke-width="1.8" stroke-dasharray="5,3" opacity="0.6"/>
<circle cx="258.5" cy="726.3" r="6" fill="#2980b9" stroke="white" opacity="1.0"/>
<circle cx="514.0" cy="727.8" r="6" fill="#2980b9" stroke="white" opacity="1.0"/>
<circle cx="769.5" cy="727.8" r="6" fill="#2980b9" stroke="white" opacity="1.0"/>
</g>
<g class="series pmic-series" data-chip="21988" data-temp="80" data-mode="PWM_L" data-reg="DC2DC_ANA">
<path d="M 263.5,702.5 L 519.0,694.3 L 774.5,700.4" fill="none" stroke="#16a085" stroke-width="1.8" stroke-dasharray="5,3" opacity="0.6"/>
<circle cx="263.5" cy="702.5" r="6" fill="#16a085" stroke="white" opacity="1.0"/>
<circle cx="519.0" cy="694.3" r="6" fill="#16a085" stroke="white" opacity="1.0"/>
<circle cx="774.5" cy="700.4" r="6" fill="#16a085" stroke="white" opacity="1.0"/>
</g>
<g class="series pmic-series" data-chip="31927" data-temp="0" data-mode="AUTO_PFM" data-reg="DC2DC_ANA">
<path d="M 268.5,693.1 L 524.0,686.4 L 779.5,693.6" fill="none" stroke="#8e44ad" stroke-width="1.8" stroke-dasharray="5,3" opacity="0.6"/>
<circle cx="268.5" cy="693.1" r="6" fill="#8e44ad" stroke="white" opacity="1.0"/>
<circle cx="524.0" cy="686.4" r="6" fill="#8e44ad" stroke="white" opacity="1.0"/>
<circle cx="779.5" cy="693.6" r="6" fill="#8e44ad" stroke="white" opacity="1.0"/>
</g>
<g class="series pmic-series" data-chip="31927" data-temp="0" data-mode="PWM" data-reg="DC2DC_ANA">
<path d="M 273.5,729.1 L 529.0,728.4 L 784.5,727.7" fill="none" stroke="#c0392b" stroke-width="1.8" stroke-dasharray="5,3" opacity="0.6"/>
<circle cx="273.5" cy="729.1" r="6" fill="#c0392b" stroke="white" opacity="1.0"/>
<circle cx="529.0" cy="728.4" r="6" fill="#c0392b" stroke="white" opacity="1.0"/>
<circle cx="784.5" cy="727.7" r="6" fill="#c0392b" stroke="white" opacity="1.0"/>
</g>
<g class="series pmic-series" data-chip="31927" data-temp="0" data-mode="PWM_L" data-reg="DC2DC_ANA">
<path d="M 278.5,693.4 L 534.0,693.4 L 789.5,691.1" fill="none" stroke="#27ae60" stroke-width="1.8" stroke-dasharray="5,3" opacity="0.6"/>
<circle cx="278.5" cy="693.4" r="6" fill="#27ae60" stroke="white" opacity="1.0"/>
<circle cx="534.0" cy="693.4" r="6" fill="#27ae60" stroke="white" opacity="1.0"/>
<circle cx="789.5" cy="691.1" r="6" fill="#27ae60" stroke="white" opacity="1.0"/>
</g>
<g class="series pmic-series" data-chip="31927" data-temp="25" data-mode="AUTO_PFM" data-reg="DC2DC_ANA">
<path d="M 283.5,696.5 L 539.0,694.5 L 794.5,699.3" fill="none" stroke="#d35400" stroke-width="1.8" stroke-dasharray="5,3" opacity="0.6"/>
<circle cx="283.5" cy="696.5" r="6" fill="#d35400" stroke="white" opacity="1.0"/>
<circle cx="539.0" cy="694.5" r="6" fill="#d35400" stroke="white" opacity="1.0"/>
<circle cx="794.5" cy="699.3" r="6" fill="#d35400" stroke="white" opacity="1.0"/>
</g>
<g class="series pmic-series" data-chip="31927" data-temp="25" data-mode="PWM" data-reg="DC2DC_ANA">
<path d="M 288.5,727.1 L 544.0,723.0 L 799.5,725.0" fill="none" stroke="#7f8c8d" stroke-width="1.8" stroke-dasharray="5,3" opacity="0.6"/>
<circle cx="288.5" cy="727.1" r="6" fill="#7f8c8d" stroke="white" opacity="1.0"/>
<circle cx="544.0" cy="723.0" r="6" fill="#7f8c8d" stroke="white" opacity="1.0"/>
<circle cx="799.5" cy="725.0" r="6" fill="#7f8c8d" stroke="white" opacity="1.0"/>
</g>
<g class="series pmic-series" data-chip="31927" data-temp="25" data-mode="PWM_L" data-reg="DC2DC_ANA">
<path d="M 293.5,691.7 L 549.0,692.8 L 804.5,697.0" fill="none" stroke="#2c3e50" stroke-width="1.8" stroke-dasharray="5,3" opacity="0.6"/>
<circle cx="293.5" cy="691.7" r="6" fill="#2c3e50" stroke="white" opacity="1.0"/>
<circle cx="549.0" cy="692.8" r="6" fill="#2c3e50" stroke="white" opacity="1.0"/>
<circle cx="804.5" cy="697.0" r="6" fill="#2c3e50" stroke="white" opacity="1.0"/>
</g>
<g class="series pmic-series" data-chip="31927" data-temp="80" data-mode="AUTO_PFM" data-reg="DC2DC_ANA">
<path d="M 298.5,705.3 L 554.0,707.4 L 809.5,713.3" fill="none" stroke="#3498db" stroke-width="1.8" stroke-dasharray="5,3" opacity="0.6"/>
<circle cx="298.5" cy="705.3" r="6" fill="#3498db" stroke="white" opacity="1.0"/>
<circle cx="554.0" cy="707.4" r="6" fill="#3498db" stroke="white" opacity="1.0"/>
<circle cx="809.5" cy="713.3" r="6" fill="#3498db" stroke="white" opacity="1.0"/>
</g>
<g class="series pmic-series" data-chip="31927" data-temp="80" data-mode="PWM" data-reg="DC2DC_ANA">
<path d="M 303.5,723.2 L 559.0,724.9 L 814.5,723.7" fill="none" stroke="#e67e22" stroke-width="1.8" stroke-dasharray="5,3" opacity="0.6"/>
<circle cx="303.5" cy="723.2" r="6" fill="#e67e22" stroke="white" opacity="1.0"/>
<circle cx="559.0" cy="724.9" r="6" fill="#e67e22" stroke="white" opacity="1.0"/>
<circle cx="814.5" cy="723.7" r="6" fill="#e67e22" stroke="white" opacity="1.0"/>
</g>
<g class="series pmic-series" data-chip="31927" data-temp="80" data-mode="PWM_L" data-reg="DC2DC_ANA">
<path d="M 308.5,691.7 L 564.0,691.8 L 819.5,694.5" fill="none" stroke="#2ecc71" stroke-width="1.8" stroke-dasharray="5,3" opacity="0.6"/>
<circle cx="308.5" cy="691.7" r="6" fill="#2ecc71" stroke="white" opacity="1.0"/>
<circle cx="564.0" cy="691.8" r="6" fill="#2ecc71" stroke="white" opacity="1.0"/>
<circle cx="819.5" cy="694.5" r="6" fill="#2ecc71" stroke="white" opacity="1.0"/>
</g>
<g class="series pmic-series ref-overlay" data-chip="21988" data-temp="0" data-mode="AUTO_PFM" data-reg="DC2DC_ANA">
<path d="M 313.5,672.9 L 569.0,675.0 L 824.5,678.0" fill="none" stroke="#9b59b6" stroke-width="1.8" stroke-dasharray="5,3" opacity="0.6"/>
<circle cx="313.5" cy="672.9" r="7.5" fill="none" stroke="#9b59b6" opacity="1.0"/>
<circle cx="569.0" cy="675.0" r="7.5" fill="none" stroke="#9b59b6" opacity="1.0"/>
<circle cx="824.5" cy="678.0" r="7.5" fill="none" stroke="#9b59b6" opacity="1.0"/>
</g>
<g class="series pmic-series ref-overlay" data-chip="21988" data-temp="0" data-mode="PWM" data-reg="DC2DC_ANA">
<path d="M 318.5,733.0 L 574.0,731.5 L 829.5,730.6" fill="none" stroke="#1abc9c" stroke-width="1.8" stroke-dasharray="5,3" opacity="0.6"/>
<circle cx="318.5" cy="733.0" r="7.5" fill="none" stroke="#1abc9c" opacity="1.0"/>
<circle cx="574.0" cy="731.5" r="7.5" fill="none" stroke="#1abc9c" opacity="1.0"/>
<circle cx="829.5" cy="730.6" r="7.5" fill="none" stroke="#1abc9c" opacity="1.0"/>
</g>
<g class="series pmic-series ref-overlay" data-chip="21988" data-temp="0" data-mode="PWM_L" data-reg="DC2DC_ANA">
<path d="M 323.5,697.2 L 579.0,697.4 L 834.5,697.2" fill="none" stroke="#e74c3c" stroke-width="1.8" stroke-dasharray="5,3" opacity="0.6"/>
<circle cx="323.5" cy="697.2" r="7.5" fill="none" stroke="#e74c3c" opacity="1.0"/>
<circle cx="579.0" cy="697.4" r="7.5" fill="none" stroke="#e74c3c" opacity="1.0"/>
<circle cx="834.5" cy="697.2" r="7.5" fill="none" stroke="#e74c3c" opacity="1.0"/>
</g>
<g class="series pmic-series ref-overlay" data-chip="21988" data-temp="25" data-mode="AUTO_PFM" data-reg="DC2DC_ANA">
<path d="M 328.5,673.2 L 584.0,674.7 L 839.5,698.3" fill="none" stroke="#f39c12" stroke-width="1.8" stroke-dasharray="5,3" opacity="0.6"/>
<circle cx="328.5" cy="673.2" r="7.5" fill="none" stroke="#f39c12" opacity="1.0"/>
<circle cx="584.0" cy="674.7" r="7.5" fill="none" stroke="#f39c12" opacity="1.0"/>
<circle cx="839.5" cy="698.3" r="7.5" fill="none" stroke="#f39c12" opacity="1.0"/>
</g>
<g class="series pmic-series ref-overlay" data-chip="21988" data-temp="25" data-mode="PWM" data-reg="DC2DC_ANA">
<path d="M 333.5,729.4 L 589.0,728.2 L 844.5,728.1" fill="none" stroke="#2980b9" stroke-width="1.8" stroke-dasharray="5,3" opacity="0.6"/>
<circle cx="333.5" cy="729.4" r="7.5" fill="none" stroke="#2980b9" opacity="1.0"/>
<circle cx="589.0" cy="728.2" r="7.5" fill="none" stroke="#2980b9" opacity="1.0"/>
<circle cx="844.5" cy="728.1" r="7.5" fill="none" stroke="#2980b9" opacity="1.0"/>
</g>
<g class="series pmic-series ref-overlay" data-chip="21988" data-temp="25" data-mode="PWM_L" data-reg="DC2DC_ANA">
<path d="M 338.5,694.9 L 594.0,692.6 L 849.5,691.3" fill="none" stroke="#16a085" stroke-width="1.8" stroke-dasharray="5,3" opacity="0.6"/>
<circle cx="338.5" cy="694.9" r="7.5" fill="none" stroke="#16a085" opacity="1.0"/>
<circle cx="594.0" cy="692.6" r="7.5" fill="none" stroke="#16a085" opacity="1.0"/>
<circle cx="849.5" cy="691.3" r="7.5" fill="none" stroke="#16a085" opacity="1.0"/>
</g>
<g class="series pmic-series ref-overlay" data-chip="21988" data-temp="80" data-mode="AUTO_PFM" data-reg="DC2DC_ANA">
<path d="M 343.5,712.5 L 599.0,720.2 L 854.5,701.2" fill="none" stroke="#8e44ad" stroke-width="1.8" stroke-dasharray="5,3" opacity="0.6"/>
<circle cx="343.5" cy="712.5" r="7.5" fill="none" stroke="#8e44ad" opacity="1.0"/>
<circle cx="599.0" cy="720.2" r="7.5" fill="none" stroke="#8e44ad" opacity="1.0"/>
<circle cx="854.5" cy="701.2" r="7.5" fill="none" stroke="#8e44ad" opacity="1.0"/>
</g>
<g class="series pmic-series ref-overlay" data-chip="21988" data-temp="80" data-mode="PWM" data-reg="DC2DC_ANA">
<path d="M 348.5,725.6 L 604.0,727.4 L 859.5,727.2" fill="none" stroke="#c0392b" stroke-width="1.8" stroke-dasharray="5,3" opacity="0.6"/>
<circle cx="348.5" cy="725.6" r="7.5" fill="none" stroke="#c0392b" opacity="1.0"/>
<circle cx="604.0" cy="727.4" r="7.5" fill="none" stroke="#c0392b" opacity="1.0"/>
<circle cx="859.5" cy="727.2" r="7.5" fill="none" stroke="#c0392b" opacity="1.0"/>
</g>
<g class="series pmic-series ref-overlay" data-chip="21988" data-temp="80" data-mode="PWM_L" data-reg="DC2DC_ANA">
<path d="M 353.5,694.3 L 609.0,691.2 L 864.5,696.0" fill="none" stroke="#27ae60" stroke-width="1.8" stroke-dasharray="5,3" opacity="0.6"/>
<circle cx="353.5" cy="694.3" r="7.5" fill="none" stroke="#27ae60" opacity="1.0"/>
<circle cx="609.0" cy="691.2" r="7.5" fill="none" stroke="#27ae60" opacity="1.0"/>
<circle cx="864.5" cy="696.0" r="7.5" fill="none" stroke="#27ae60" opacity="1.0"/>
</g>
<g class="series pmic-series ref-overlay" data-chip="31927" data-temp="0" data-mode="AUTO_PFM" data-reg="DC2DC_ANA">
<path d="M 358.5,702.1 L 614.0,695.5 L 869.5,701.6" fill="none" stroke="#d35400" stroke-width="1.8" stroke-dasharray="5,3" opacity="0.6"/>
<circle cx="358.5" cy="702.1" r="7.5" fill="none" stroke="#d35400" opacity="1.0"/>
<circle cx="614.0" cy="695.5" r="7.5" fill="none" stroke="#d35400" opacity="1.0"/>
<circle cx="869.5" cy="701.6" r="7.5" fill="none" stroke="#d35400" opacity="1.0"/>
</g>
<g class="series pmic-series ref-overlay" data-chip="31927" data-temp="0" data-mode="PWM" data-reg="DC2DC_ANA">
<path d="M 363.5,728.9 L 619.0,727.5 L 874.5,727.3" fill="none" stroke="#7f8c8d" stroke-width="1.8" stroke-dasharray="5,3" opacity="0.6"/>
<circle cx="363.5" cy="728.9" r="7.5" fill="none" stroke="#7f8c8d" opacity="1.0"/>
<circle cx="619.0" cy="727.5" r="7.5" fill="none" stroke="#7f8c8d" opacity="1.0"/>
<circle cx="874.5" cy="727.3" r="7.5" fill="none" stroke="#7f8c8d" opacity="1.0"/>
</g>
<g class="series pmic-series ref-overlay" data-chip="31927" data-temp="0" data-mode="PWM_L" data-reg="DC2DC_ANA">
<path d="M 368.5,692.7 L 624.0,695.2 L 879.5,693.9" fill="none" stroke="#2c3e50" stroke-width="1.8" stroke-dasharray="5,3" opacity="0.6"/>
<circle cx="368.5" cy="692.7" r="7.5" fill="none" stroke="#2c3e50" opacity="1.0"/>
<circle cx="624.0" cy="695.2" r="7.5" fill="none" stroke="#2c3e50" opacity="1.0"/>
<circle cx="879.5" cy="693.9" r="7.5" fill="none" stroke="#2c3e50" opacity="1.0"/>
</g>
<g class="series pmic-series ref-overlay" data-chip="31927" data-temp="25" data-mode="AUTO_PFM" data-reg="DC2DC_ANA">
<path d="M 373.5,704.6 L 629.0,693.2 L 884.5,694.3" fill="none" stroke="#3498db" stroke-width="1.8" stroke-dasharray="5,3" opacity="0.6"/>
<circle cx="373.5" cy="704.6" r="7.5" fill="none" stroke="#3498db" opacity="1.0"/>
<circle cx="629.0" cy="693.2" r="7.5" fill="none" stroke="#3498db" opacity="1.0"/>
<circle cx="884.5" cy="694.3" r="7.5" fill="none" stroke="#3498db" opacity="1.0"/>
</g>
<g class="series pmic-series ref-overlay" data-chip="31927" data-temp="25" data-mode="PWM" data-reg="DC2DC_ANA">
<path d="M 378.5,727.0 L 634.0,725.8 L 889.5,725.6" fill="none" stroke="#e67e22" stroke-width="1.8" stroke-dasharray="5,3" opacity="0.6"/>
<circle cx="378.5" cy="727.0" r="7.5" fill="none" stroke="#e67e22" opacity="1.0"/>
<circle cx="634.0" cy="725.8" r="7.5" fill="none" stroke="#e67e22" opacity="1.0"/>
<circle cx="889.5" cy="725.6" r="7.5" fill="none" stroke="#e67e22" opacity="1.0"/>
</g>
<g class="series pmic-series ref-overlay" data-chip="31927" data-temp="25" data-mode="PWM_L" data-reg="DC2DC_ANA">
<path d="M 383.5,695.1 L 639.0,691.7 L 894.5,698.6" fill="none" stroke="#2ecc71" stroke-width="1.8" stroke-dasharray="5,3" opacity="0.6"/>
<circle cx="383.5" cy="695.1" r="7.5" fill="none" stroke="#2ecc71" opacity="1.0"/>
<circle cx="639.0" cy="691.7" r="7.5" fill="none" stroke="#2ecc71" opacity="1.0"/>
<circle cx="894.5" cy="698.6" r="7.5" fill="none" stroke="#2ecc71" opacity="1.0"/>
</g>
<g class="series pmic-series ref-overlay" data-chip="31927" data-temp="80" data-mode="AUTO_PFM" data-reg="DC2DC_ANA">
<path d="M 388.5,794.9 L 644.0,714.6 L 899.5,708.7" fill="none" stroke="#9b59b6" stroke-width="1.8" stroke-dasharray="5,3" opacity="0.6"/>
<circle cx="388.5" cy="794.9" r="7.5" fill="none" stroke="#9b59b6" opacity="1.0"/>
<circle cx="644.0" cy="714.6" r="7.5" fill="none" stroke="#9b59b6" opacity="1.0"/>
<circle cx="899.5" cy="708.7" r="7.5" fill="none" stroke="#9b59b6" opacity="1.0"/>
</g>
<g class="series pmic-series ref-overlay" data-chip="31927" data-temp="80" data-mode="PWM" data-reg="DC2DC_ANA">
<path d="M 393.5,723.1 L 649.0,722.4 L 904.5,723.0" fill="none" stroke="#1abc9c" stroke-width="1.8" stroke-dasharray="5,3" opacity="0.6"/>
<circle cx="393.5" cy="723.1" r="7.5" fill="none" stroke="#1abc9c" opacity="1.0"/>
<circle cx="649.0" cy="722.4" r="7.5" fill="none" stroke="#1abc9c" opacity="1.0"/>
<circle cx="904.5" cy="723.0" r="7.5" fill="none" stroke="#1abc9c" opacity="1.0"/>
</g>
<g class="series pmic-series ref-overlay" data-chip="31927" data-temp="80" data-mode="PWM_L" data-reg="DC2DC_ANA">
<path d="M 398.5,688.3 L 654.0,691.9 L 909.5,695.3" fill="none" stroke="#e74c3c" stroke-width="1.8" stroke-dasharray="5,3" opacity="0.6"/>
<circle cx="398.5" cy="688.3" r="7.5" fill="none" stroke="#e74c3c" opacity="1.0"/>
<circle cx="654.0" cy="691.9" r="7.5" fill="none" stroke="#e74c3c" opacity="1.0"/>
<circle cx="909.5" cy="695.3" r="7.5" fill="none" stroke="#e74c3c" opacity="1.0"/>
</g>
<g class="series pmic-series ref-overlay" data-chip="80233" data-temp="0" data-mode="AUTO_PFM" data-reg="DC2DC_ANA">
<path d="M 403.5,168.4 L 659.0,229.5 L 914.5,212.2" fill="none" stroke="#f39c12" stroke-width="1.8" stroke-dasharray="5,3" opacity="0.6"/>
<circle cx="403.5" cy="168.4" r="7.5" fill="none" stroke="#f39c12" opacity="1.0"/>
<circle cx="659.0" cy="229.5" r="7.5" fill="none" stroke="#f39c12" opacity="1.0"/>
<circle cx="914.5" cy="212.2" r="7.5" fill="none" stroke="#f39c12" opacity="1.0"/>
</g>
<g class="series pmic-series ref-overlay" data-chip="80233" data-temp="0" data-mode="PWM" data-reg="DC2DC_ANA">
<path d="M 408.5,730.5 L 664.0,730.7 L 919.5,731.6" fill="none" stroke="#2980b9" stroke-width="1.8" stroke-dasharray="5,3" opacity="0.6"/>
<circle cx="408.5" cy="730.5" r="7.5" fill="none" stroke="#2980b9" opacity="1.0"/>
<circle cx="664.0" cy="730.7" r="7.5" fill="none" stroke="#2980b9" opacity="1.0"/>
<circle cx="919.5" cy="731.6" r="7.5" fill="none" stroke="#2980b9" opacity="1.0"/>
</g>
<g class="series pmic-series ref-overlay" data-chip="80233" data-temp="0" data-mode="PWM_L" data-reg="DC2DC_ANA">
<path d="M 413.5,699.3 L 669.0,696.9 L 924.5,700.3" fill="none" stroke="#16a085" stroke-width="1.8" stroke-dasharray="5,3" opacity="0.6"/>
<circle cx="413.5" cy="699.3" r="7.5" fill="none" stroke="#16a085" opacity="1.0"/>
<circle cx="669.0" cy="696.9" r="7.5" fill="none" stroke="#16a085" opacity="1.0"/>
<circle cx="924.5" cy="700.3" r="7.5" fill="none" stroke="#16a085" opacity="1.0"/>
</g>
<g class="series pmic-series ref-overlay" data-chip="80233" data-temp="25" data-mode="AUTO_PFM" data-reg="DC2DC_ANA">
<path d="M 418.5,134.1 L 674.0,296.9 L 929.5,276.9" fill="none" stroke="#8e44ad" stroke-width="1.8" stroke-dasharray="5,3" opacity="0.6"/>
<circle cx="418.5" cy="134.1" r="7.5" fill="none" stroke="#8e44ad" opacity="1.0"/>
<circle cx="674.0" cy="296.9" r="7.5" fill="none" stroke="#8e44ad" opacity="1.0"/>
<circle cx="929.5" cy="276.9" r="7.5" fill="none" stroke="#8e44ad" opacity="1.0"/>
</g>
<g class="series pmic-series ref-overlay" data-chip="80233" data-temp="25" data-mode="PWM" data-reg="DC2DC_ANA">
<path d="M 423.5,731.1 L 679.0,732.7 L 934.5,729.8" fill="none" stroke="#c0392b" stroke-width="1.8" stroke-dasharray="5,3" opacity="0.6"/>
<circle cx="423.5" cy="731.1" r="7.5" fill="none" stroke="#c0392b" opacity="1.0"/>
<circle cx="679.0" cy="732.7" r="7.5" fill="none" stroke="#c0392b" opacity="1.0"/>
<circle cx="934.5" cy="729.8" r="7.5" fill="none" stroke="#c0392b" opacity="1.0"/>
</g>
<g class="series pmic-series ref-overlay" data-chip="80233" data-temp="25" data-mode="PWM_L" data-reg="DC2DC_ANA">
<path d="M 428.5,696.5 L 684.0,700.1 L 939.5,700.0" fill="none" stroke="#27ae60" stroke-width="1.8" stroke-dasharray="5,3" opacity="0.6"/>
<circle cx="428.5" cy="696.5" r="7.5" fill="none" stroke="#27ae60" opacity="1.0"/>
<circle cx="684.0" cy="700.1" r="7.5" fill="none" stroke="#27ae60" opacity="1.0"/>
<circle cx="939.5" cy="700.0" r="7.5" fill="none" stroke="#27ae60" opacity="1.0"/>
</g>
<g class="series pmic-series ref-overlay" data-chip="80233" data-temp="80" data-mode="AUTO_PFM" data-reg="DC2DC_ANA">
<path d="M 433.5,665.8 L 689.0,319.2 L 944.5,311.4" fill="none" stroke="#d35400" stroke-width="1.8" stroke-dasharray="5,3" opacity="0.6"/>
<circle cx="433.5" cy="665.8" r="7.5" fill="none" stroke="#d35400" opacity="1.0"/>
<circle cx="689.0" cy="319.2" r="7.5" fill="none" stroke="#d35400" opacity="1.0"/>
<circle cx="944.5" cy="311.4" r="7.5" fill="none" stroke="#d35400" opacity="1.0"/>
</g>
<g class="series pmic-series ref-overlay" data-chip="80233" data-temp="80" data-mode="PWM" data-reg="DC2DC_ANA">
<path d="M 438.5,726.2 L 694.0,727.1 L 949.5,726.2" fill="none" stroke="#7f8c8d" stroke-width="1.8" stroke-dasharray="5,3" opacity="0.6"/>
<circle cx="438.5" cy="726.2" r="7.5" fill="none" stroke="#7f8c8d" opacity="1.0"/>
<circle cx="694.0" cy="727.1" r="7.5" fill="none" stroke="#7f8c8d" opacity="1.0"/>
<circle cx="949.5" cy="726.2" r="7.5" fill="none" stroke="#7f8c8d" opacity="1.0"/>
</g>
<g class="series pmic-series ref-overlay" data-chip="80233" data-temp="80" data-mode="PWM_L" data-reg="DC2DC_ANA">
<path d="M 443.5,696.6 L 699.0,695.5 L 954.5,697.7" fill="none" stroke="#2c3e50" stroke-width="1.8" stroke-dasharray="5,3" opacity="0.6"/>
<circle cx="443.5" cy="696.6" r="7.5" fill="none" stroke="#2c3e50" opacity="1.0"/>
<circle cx="699.0" cy="695.5" r="7.5" fill="none" stroke="#2c3e50" opacity="1.0"/>
<circle cx="954.5" cy="697.7" r="7.5" fill="none" stroke="#2c3e50" opacity="1.0"/>
</g>
<g class="legend-item" data-chip="21988" data-temp="0" data-mode="AUTO_PFM" data-reg="DC2DC_ANA">
<rect x="1116.0" y="69.0" width="18.0" height="4.0" fill="#3498db" stroke="none" stroke-width="1" opacity="1.0" rx="2"/>
<circle cx="1125.0" cy="71.0" r="5" fill="#3498db" stroke="none" opacity="1.0"/>
<text x="1140.0" y="76.0" font-size="9" font-weight="normal" text-anchor="start" fill="#333" font-family="Arial,sans-serif">Ch21988 | T=0°C | AUTO_PFM</text>
</g>
<g class="legend-item" data-chip="21988" data-temp="0" data-mode="PWM" data-reg="DC2DC_ANA">
<rect x="1116.0" y="86.0" width="18.0" height="4.0" fill="#e67e22" stroke="none" stroke-width="1" opacity="1.0" rx="2"/>
<circle cx="1125.0" cy="88.0" r="5" fill="#e67e22" stroke="none" opacity="1.0"/>
<text x="1140.0" y="93.0" font-size="9" font-weight="normal" text-anchor="start" fill="#333" font-family="Arial,sans-serif">Ch21988 | T=0°C | PWM</text>
</g>
<g class="legend-item" data-chip="21988" data-temp="0" data-mode="PWM_L" data-reg="DC2DC_ANA">
<rect x="1116.0" y="103.0" width="18.0" height="4.0" fill="#2ecc71" stroke="none" stroke-width="1" opacity="1.0" rx="2"/>
<circle cx="1125.0" cy="105.0" r="5" fill="#2ecc71" stroke="none" opacity="1.0"/>
<text x="1140.0" y="110.0" font-size="9" font-weight="normal" text-anchor="start" fill="#333" font-family="Arial,sans-serif">Ch21988 | T=0°C | PWM_L</text>
</g>
<g class="legend-item" data-chip="21988" data-temp="25" data-mode="AUTO_PFM" data-reg="DC2DC_ANA">
<rect x="1116.0" y="120.0" width="18.0" height="4.0" fill="#9b59b6" stroke="none" stroke-width="1" opacity="1.0" rx="2"/>
<circle cx="1125.0" cy="122.0" r="5" fill="#9b59b6" stroke="none" opacity="1.0"/>
<text x="1140.0" y="127.0" font-size="9" font-weight="normal" text-anchor="start" fill="#333" font-family="Arial,sans-serif">Ch21988 | T=25°C | AUTO_PFM</text>
</g>
<g class="legend-item" data-chip="21988" data-temp="25" data-mode="PWM" data-reg="DC2DC_ANA">
<rect x="1116.0" y="137.0" width="18.0" height="4.0" fill="#1abc9c" stroke="none" stroke-width="1" opacity="1.0" rx="2"/>
<circle cx="1125.0" cy="139.0" r="5" fill="#1abc9c" stroke="none" opacity="1.0"/>
<text x="1140.0" y="144.0" font-size="9" font-weight="normal" text-anchor="start" fill="#333" font-family="Arial,sans-serif">Ch21988 | T=25°C | PWM</text>
</g>
<g class="legend-item" data-chip="21988" data-temp="25" data-mode="PWM_L" data-reg="DC2DC_ANA">
<rect x="1116.0" y="154.0" width="18.0" height="4.0" fill="#e74c3c" stroke="none" stroke-width="1" opacity="1.0" rx="2"/>
<circle cx="1125.0" cy="156.0" r="5" fill="#e74c3c" stroke="none" opacity="1.0"/>
<text x="1140.0" y="161.0" font-size="9" font-weight="normal" text-anchor="start" fill="#333" font-family="Arial,sans-serif">Ch21988 | T=25°C | PWM_L</text>
</g>
<g class="legend-item" data-chip="21988" data-temp="80" data-mode="AUTO_PFM" data-reg="DC2DC_ANA">
<rect x="1116.0" y="171.0" width="18.0" height="4.0" fill="#f39c12" stroke="none" stroke-width="1" opacity="1.0" rx="2"/>
<circle cx="1125.0" cy="173.0" r="5" fill="#f39c12" stroke="none" opacity="1.0"/>
<text x="1140.0" y="178.0" font-size="9" font-weight="normal" text-anchor="start" fill="#333" font-family="Arial,sans-serif">Ch21988 | T=80°C | AUTO_PFM</text>
</g>
<g class="legend-item" data-chip="21988" data-temp="80" data-mode="PWM" data-reg="DC2DC_ANA">
<rect x="1116.0" y="188.0" width="18.0" height="4.0" fill="#2980b9" stroke="none" stroke-width="1" opacity="1.0" rx="2"/>
<circle cx="1125.0" cy="190.0" r="5" fill="#2980b9" stroke="none" opacity="1.0"/>
<text x="1140.0" y="195.0" font-size="9" font-weight="normal" text-anchor="start" fill="#333" font-family="Arial,sans-serif">Ch21988 | T=80°C | PWM</text>
</g>
<g class="legend-item" data-chip="21988" data-temp="80" data-mode="PWM_L" data-reg="DC2DC_ANA">
<rect x="1116.0" y="205.0" width="18.0" height="4.0" fill="#16a085" stroke="none" stroke-width="1" opacity="1.0" rx="2"/>
<circle cx="1125.0" cy="207.0" r="5" fill="#16a085" stroke="none" opacity="1.0"/>
<text x="1140.0" y="212.0" font-size="9" font-weight="normal" text-anchor="start" fill="#333" font-family="Arial,sans-serif">Ch21988 | T=80°C | PWM_L</text>
</g>
<g class="legend-item" data-chip="31927" data-temp="0" data-mode="AUTO_PFM" data-reg="DC2DC_ANA">
<rect x="1116.0" y="222.0" width="18.0" height="4.0" fill="#8e44ad" stroke="none" stroke-width="1" opacity="1.0" rx="2"/>
<circle cx="1125.0" cy="224.0" r="5" fill="#8e44ad" stroke="none" opacity="1.0"/>
<text x="1140.0" y="229.0" font-size="9" font-weight="normal" text-anchor="start" fill="#333" font-family="Arial,sans-serif">Ch31927 | T=0°C | AUTO_PFM</text>
</g>
<g class="legend-item" data-chip="31927" data-temp="0" data-mode="PWM" data-reg="DC2DC_ANA">
<rect x="1116.0" y="239.0" width="18.0" height="4.0" fill="#c0392b" stroke="none" stroke-width="1" opacity="1.0" rx="2"/>
<circle cx="1125.0" cy="241.0" r="5" fill="#c0392b" stroke="none" opacity="1.0"/>
<text x="1140.0" y="246.0" font-size="9" font-weight="normal" text-anchor="start" fill="#333" font-family="Arial,sans-serif">Ch31927 | T=0°C | PWM</text>
</g>
<g class="legend-item" data-chip="31927" data-temp="0" data-mode="PWM_L" data-reg="DC2DC_ANA">
<rect x="1116.0" y="256.0" width="18.0" height="4.0" fill="#27ae60" stroke="none" stroke-width="1" opacity="1.0" rx="2"/>
<circle cx="1125.0" cy="258.0" r="5" fill="#27ae60" stroke="none" opacity="1.0"/>
<text x="1140.0" y="263.0" font-size="9" font-weight="normal" text-anchor="start" fill="#333" font-family="Arial,sans-serif">Ch31927 | T=0°C | PWM_L</text>
</g>
<g class="legend-item" data-chip="31927" data-temp="25" data-mode="AUTO_PFM" data-reg="DC2DC_ANA">
<rect x="1116.0" y="273.0" width="18.0" height="4.0" fill="#d35400" stroke="none" stroke-width="1" opacity="1.0" rx="2"/>
<circle cx="1125.0" cy="275.0" r="5" fill="#d35400" stroke="none" opacity="1.0"/>
<text x="1140.0" y="280.0" font-size="9" font-weight="normal" text-anchor="start" fill="#333" font-family="Arial,sans-serif">Ch31927 | T=25°C | AUTO_PFM</text>
</g>
<g class="legend-item" data-chip="31927" data-temp="25" data-mode="PWM" data-reg="DC2DC_ANA">
<rect x="1116.0" y="290.0" width="18.0" height="4.0" fill="#7f8c8d" stroke="none" stroke-width="1" opacity="1.0" rx="2"/>
<circle cx="1125.0" cy="292.0" r="5" fill="#7f8c8d" stroke="none" opacity="1.0"/>
<text x="1140.0" y="297.0" font-size="9" font-weight="normal" text-anchor="start" fill="#333" font-family="Arial,sans-serif">Ch31927 | T=25°C | PWM</text>
</g>
<g class="legend-item" data-chip="31927" data-temp="25" data-mode="PWM_L" data-reg="DC2DC_ANA">
<rect x="1116.0" y="307.0" width="18.0" height="4.0" fill="#2c3e50" stroke="none" stroke-width="1" opacity="1.0" rx="2"/>
<circle cx="1125.0" cy="309.0" r="5" fill="#2c3e50" stroke="none" opacity="1.0"/>
<text x="1140.0" y="314.0" font-size="9" font-weight="normal" text-anchor="start" fill="#333" font-family="Arial,sans-serif">Ch31927 | T=25°C | PWM_L</text>
</g>
<g class="legend-item" data-chip="31927" data-temp="80" data-mode="AUTO_PFM" data-reg="DC2DC_ANA">
<rect x="1116.0" y="324.0" width="18.0" height="4.0" fill="#3498db" stroke="none" stroke-width="1" opacity="1.0" rx="2"/>
<circle cx="1125.0" cy="326.0" r="5" fill="#3498db" stroke="none" opacity="1.0"/>
<text x="1140.0" y="331.0" font-size="9" font-weight="normal" text-anchor="start" fill="#333" font-family="Arial,sans-serif">Ch31927 | T=80°C | AUTO_PFM</text>
</g>
<g class="legend-item" data-chip="31927" data-temp="80" data-mode="PWM" data-reg="DC2DC_ANA">
<rect x="1116.0" y="341.0" width="18.0" height="4.0" fill="#e67e22" stroke="none" stroke-width="1" opacity="1.0" rx="2"/>
<circle cx="1125.0" cy="343.0" r="5" fill="#e67e22" stroke="none" opacity="1.0"/>
<text x="1140.0" y="348.0" font-size="9" font-weight="normal" text-anchor="start" fill="#333" font-family="Arial,sans-serif">Ch31927 | T=80°C | PWM</text>
</g>
<g class="legend-item" data-chip="31927" data-temp="80" data-mode="PWM_L" data-reg="DC2DC_ANA">
<rect x="1116.0" y="358.0" width="18.0" height="4.0" fill="#2ecc71" stroke="none" stroke-width="1" opacity="1.0" rx="2"/>
<circle cx="1125.0" cy="360.0" r="5" fill="#2ecc71" stroke="none" opacity="1.0"/>
<text x="1140.0" y="365.0" font-size="9" font-weight="normal" text-anchor="start" fill="#333" font-family="Arial,sans-serif">Ch31927 | T=80°C | PWM_L</text>
</g>
<g class="legend-item ref-overlay" data-chip="21988" data-temp="0" data-mode="AUTO_PFM" data-reg="DC2DC_ANA">
<rect x="1116.0" y="375.0" width="18.0" height="4.0" fill="#9b59b6" stroke="none" stroke-width="1" opacity="1.0" rx="2"/>
<circle cx="1125.0" cy="377.0" r="6" fill="none" stroke="#9b59b6" opacity="1.0"/>
<text x="1140.0" y="382.0" font-size="9" font-weight="normal" text-anchor="start" fill="#333" font-family="Arial,sans-serif">[REF] Ch21988 | T=0°C | AUTO_PFM</text>
</g>
<g class="legend-item ref-overlay" data-chip="21988" data-temp="0" data-mode="PWM" data-reg="DC2DC_ANA">
<rect x="1116.0" y="392.0" width="18.0" height="4.0" fill="#1abc9c" stroke="none" stroke-width="1" opacity="1.0" rx="2"/>
<circle cx="1125.0" cy="394.0" r="6" fill="none" stroke="#1abc9c" opacity="1.0"/>
<text x="1140.0" y="399.0" font-size="9" font-weight="normal" text-anchor="start" fill="#333" font-family="Arial,sans-serif">[REF] Ch21988 | T=0°C | PWM</text>
</g>
<g class="legend-item ref-overlay" data-chip="21988" data-temp="0" data-mode="PWM_L" data-reg="DC2DC_ANA">
<rect x="1116.0" y="409.0" width="18.0" height="4.0" fill="#e74c3c" stroke="none" stroke-width="1" opacity="1.0" rx="2"/>
<circle cx="1125.0" cy="411.0" r="6" fill="none" stroke="#e74c3c" opacity="1.0"/>
<text x="1140.0" y="416.0" font-size="9" font-weight="normal" text-anchor="start" fill="#333" font-family="Arial,sans-serif">[REF] Ch21988 | T=0°C | PWM_L</text>
</g>
<g class="legend-item ref-overlay" data-chip="21988" data-temp="25" data-mode="AUTO_PFM" data-reg="DC2DC_ANA">
<rect x="1116.0" y="426.0" width="18.0" height="4.0" fill="#f39c12" stroke="none" stroke-width="1" opacity="1.0" rx="2"/>
<circle cx="1125.0" cy="428.0" r="6" fill="none" stroke="#f39c12" opacity="1.0"/>
<text x="1140.0" y="433.0" font-size="9" font-weight="normal" text-anchor="start" fill="#333" font-family="Arial,sans-serif">[REF] Ch21988 | T=25°C | AUTO_PFM</text>
</g>
<g class="legend-item ref-overlay" data-chip="21988" data-temp="25" data-mode="PWM" data-reg="DC2DC_ANA">
<rect x="1116.0" y="443.0" width="18.0" height="4.0" fill="#2980b9" stroke="none" stroke-width="1" opacity="1.0" rx="2"/>
<circle cx="1125.0" cy="445.0" r="6" fill="none" stroke="#2980b9" opacity="1.0"/>
<text x="1140.0" y="450.0" font-size="9" font-weight="normal" text-anchor="start" fill="#333" font-family="Arial,sans-serif">[REF] Ch21988 | T=25°C | PWM</text>
</g>
<g class="legend-item ref-overlay" data-chip="21988" data-temp="25" data-mode="PWM_L" data-reg="DC2DC_ANA">
<rect x="1116.0" y="460.0" width="18.0" height="4.0" fill="#16a085" stroke="none" stroke-width="1" opacity="1.0" rx="2"/>
<circle cx="1125.0" cy="462.0" r="6" fill="none" stroke="#16a085" opacity="1.0"/>
<text x="1140.0" y="467.0" font-size="9" font-weight="normal" text-anchor="start" fill="#333" font-family="Arial,sans-serif">[REF] Ch21988 | T=25°C | PWM_L</text>
</g>
<g class="legend-item ref-overlay" data-chip="21988" data-temp="80" data-mode="AUTO_PFM" data-reg="DC2DC_ANA">
<rect x="1116.0" y="477.0" width="18.0" height="4.0" fill="#8e44ad" stroke="none" stroke-width="1" opacity="1.0" rx="2"/>
<circle cx="1125.0" cy="479.0" r="6" fill="none" stroke="#8e44ad" opacity="1.0"/>
<text x="1140.0" y="484.0" font-size="9" font-weight="normal" text-anchor="start" fill="#333" font-family="Arial,sans-serif">[REF] Ch21988 | T=80°C | AUTO_PFM</text>
</g>
<g class="legend-item ref-overlay" data-chip="21988" data-temp="80" data-mode="PWM" data-reg="DC2DC_ANA">
<rect x="1116.0" y="494.0" width="18.0" height="4.0" fill="#c0392b" stroke="none" stroke-width="1" opacity="1.0" rx="2"/>
<circle cx="1125.0" cy="496.0" r="6" fill="none" stroke="#c0392b" opacity="1.0"/>
<text x="1140.0" y="501.0" font-size="9" font-weight="normal" text-anchor="start" fill="#333" font-family="Arial,sans-serif">[REF] Ch21988 | T=80°C | PWM</text>
</g>
<g class="legend-item ref-overlay" data-chip="21988" data-temp="80" data-mode="PWM_L" data-reg="DC2DC_ANA">
<rect x="1116.0" y="511.0" width="18.0" height="4.0" fill="#27ae60" stroke="none" stroke-width="1" opacity="1.0" rx="2"/>
<circle cx="1125.0" cy="513.0" r="6" fill="none" stroke="#27ae60" opacity="1.0"/>
<text x="1140.0" y="518.0" font-size="9" font-weight="normal" text-anchor="start" fill="#333" font-family="Arial,sans-serif">[REF] Ch21988 | T=80°C | PWM_L</text>
</g>
<g class="legend-item ref-overlay" data-chip="31927" data-temp="0" data-mode="AUTO_PFM" data-reg="DC2DC_ANA">
<rect x="1116.0" y="528.0" width="18.0" height="4.0" fill="#d35400" stroke="none" stroke-width="1" opacity="1.0" rx="2"/>
<circle cx="1125.0" cy="530.0" r="6" fill="none" stroke="#d35400" opacity="1.0"/>
<text x="1140.0" y="535.0" font-size="9" font-weight="normal" text-anchor="start" fill="#333" font-family="Arial,sans-serif">[REF] Ch31927 | T=0°C | AUTO_PFM</text>
</g>
<g class="legend-item ref-overlay" data-chip="31927" data-temp="0" data-mode="PWM" data-reg="DC2DC_ANA">
<rect x="1116.0" y="545.0" width="18.0" height="4.0" fill="#7f8c8d" stroke="none" stroke-width="1" opacity="1.0" rx="2"/>
<circle cx="1125.0" cy="547.0" r="6" fill="none" stroke="#7f8c8d" opacity="1.0"/>
<text x="1140.0" y="552.0" font-size="9" font-weight="normal" text-anchor="start" fill="#333" font-family="Arial,sans-serif">[REF] Ch31927 | T=0°C | PWM</text>
</g>
<g class="legend-item ref-overlay" data-chip="31927" data-temp="0" data-mode="PWM_L" data-reg="DC2DC_ANA">
<rect x="1116.0" y="562.0" width="18.0" height="4.0" fill="#2c3e50" stroke="none" stroke-width="1" opacity="1.0" rx="2"/>
<circle cx="1125.0" cy="564.0" r="6" fill="none" stroke="#2c3e50" opacity="1.0"/>
<text x="1140.0" y="569.0" font-size="9" font-weight="normal" text-anchor="start" fill="#333" font-family="Arial,sans-serif">[REF] Ch31927 | T=0°C | PWM_L</text>
</g>
<g class="legend-item ref-overlay" data-chip="31927" data-temp="25" data-mode="AUTO_PFM" data-reg="DC2DC_ANA">
<rect x="1116.0" y="579.0" width="18.0" height="4.0" fill="#3498db" stroke="none" stroke-width="1" opacity="1.0" rx="2"/>
<circle cx="1125.0" cy="581.0" r="6" fill="none" stroke="#3498db" opacity="1.0"/>
<text x="1140.0" y="586.0" font-size="9" font-weight="normal" text-anchor="start" fill="#333" font-family="Arial,sans-serif">[REF] Ch31927 | T=25°C | AUTO_PFM</text>
</g>
<g class="legend-item ref-overlay" data-chip="31927" data-temp="25" data-mode="PWM" data-reg="DC2DC_ANA">
<rect x="1116.0" y="596.0" width="18.0" height="4.0" fill="#e67e22" stroke="none" stroke-width="1" opacity="1.0" rx="2"/>
<circle cx="1125.0" cy="598.0" r="6" fill="none" stroke="#e67e22" opacity="1.0"/>
<text x="1140.0" y="603.0" font-size="9" font-weight="normal" text-anchor="start" fill="#333" font-family="Arial,sans-serif">[REF] Ch31927 | T=25°C | PWM</text>
</g>
<g class="legend-item ref-overlay" data-chip="31927" data-temp="25" data-mode="PWM_L" data-reg="DC2DC_ANA">
<rect x="1116.0" y="613.0" width="18.0" height="4.0" fill="#2ecc71" stroke="none" stroke-width="1" opacity="1.0" rx="2"/>
<circle cx="1125.0" cy="615.0" r="6" fill="none" stroke="#2ecc71" opacity="1.0"/>
<text x="1140.0" y="620.0" font-size="9" font-weight="normal" text-anchor="start" fill="#333" font-family="Arial,sans-serif">[REF] Ch31927 | T=25°C | PWM_L</text>
</g>
<g class="legend-item ref-overlay" data-chip="31927" data-temp="80" data-mode="AUTO_PFM" data-reg="DC2DC_ANA">
<rect x="1116.0" y="630.0" width="18.0" height="4.0" fill="#9b59b6" stroke="none" stroke-width="1" opacity="1.0" rx="2"/>
<circle cx="1125.0" cy="632.0" r="6" fill="none" stroke="#9b59b6" opacity="1.0"/>
<text x="1140.0" y="637.0" font-size="9" font-weight="normal" text-anchor="start" fill="#333" font-family="Arial,sans-serif">[REF] Ch31927 | T=80°C | AUTO_PFM</text>
</g>
<g class="legend-item ref-overlay" data-chip="31927" data-temp="80" data-mode="PWM" data-reg="DC2DC_ANA">
<rect x="1116.0" y="647.0" width="18.0" height="4.0" fill="#1abc9c" stroke="none" stroke-width="1" opacity="1.0" rx="2"/>
<circle cx="1125.0" cy="649.0" r="6" fill="none" stroke="#1abc9c" opacity="1.0"/>
<text x="1140.0" y="654.0" font-size="9" font-weight="normal" text-anchor="start" fill="#333" font-family="Arial,sans-serif">[REF] Ch31927 | T=80°C | PWM</text>
</g>
<g class="legend-item ref-overlay" data-chip="31927" data-temp="80" data-mode="PWM_L" data-reg="DC2DC_ANA">
<rect x="1116.0" y="664.0" width="18.0" height="4.0" fill="#e74c3c" stroke="none" stroke-width="1" opacity="1.0" rx="2"/>
<circle cx="1125.0" cy="666.0" r="6" fill="none" stroke="#e74c3c" opacity="1.0"/>
<text x="1140.0" y="671.0" font-size="9" font-weight="normal" text-anchor="start" fill="#333" font-family="Arial,sans-serif">[REF] Ch31927 | T=80°C | PWM_L</text>
</g>
<g class="legend-item ref-overlay" data-chip="80233" data-temp="0" data-mode="AUTO_PFM" data-reg="DC2DC_ANA">
<rect x="1116.0" y="681.0" width="18.0" height="4.0" fill="#f39c12" stroke="none" stroke-width="1" opacity="1.0" rx="2"/>
<circle cx="1125.0" cy="683.0" r="6" fill="none" stroke="#f39c12" opacity="1.0"/>
<text x="1140.0" y="688.0" font-size="9" font-weight="normal" text-anchor="start" fill="#333" font-family="Arial,sans-serif">[REF] Ch80233 | T=0°C | AUTO_PFM</text>
</g>
<g class="legend-item ref-overlay" data-chip="80233" data-temp="0" data-mode="PWM" data-reg="DC2DC_ANA">
<rect x="1116.0" y="698.0" width="18.0" height="4.0" fill="#2980b9" stroke="none" stroke-width="1" opacity="1.0" rx="2"/>
<circle cx="1125.0" cy="700.0" r="6" fill="none" stroke="#2980b9" opacity="1.0"/>
<text x="1140.0" y="705.0" font-size="9" font-weight="normal" text-anchor="start" fill="#333" font-family="Arial,sans-serif">[REF] Ch80233 | T=0°C | PWM</text>
</g>
<g class="legend-item ref-overlay" data-chip="80233" data-temp="0" data-mode="PWM_L" data-reg="DC2DC_ANA">
<rect x="1116.0" y="715.0" width="18.0" height="4.0" fill="#16a085" stroke="none" stroke-width="1" opacity="1.0" rx="2"/>
<circle cx="1125.0" cy="717.0" r="6" fill="none" stroke="#16a085" opacity="1.0"/>
<text x="1140.0" y="722.0" font-size="9" font-weight="normal" text-anchor="start" fill="#333" font-family="Arial,sans-serif">[REF] Ch80233 | T=0°C | PWM_L</text>
</g>
<g class="legend-item ref-overlay" data-chip="80233" data-temp="25" data-mode="AUTO_PFM" data-reg="DC2DC_ANA">
<rect x="1116.0" y="732.0" width="18.0" height="4.0" fill="#8e44ad" stroke="none" stroke-width="1" opacity="1.0" rx="2"/>
<circle cx="1125.0" cy="734.0" r="6" fill="none" stroke="#8e44ad" opacity="1.0"/>
<text x="1140.0" y="739.0" font-size="9" font-weight="normal" text-anchor="start" fill="#333" font-family="Arial,sans-serif">[REF] Ch80233 | T=25°C | AUTO_PFM</text>
</g>
<g class="legend-item ref-overlay" data-chip="80233" data-temp="25" data-mode="PWM" data-reg="DC2DC_ANA">
<rect x="1116.0" y="749.0" width="18.0" height="4.0" fill="#c0392b" stroke="none" stroke-width="1" opacity="1.0" rx="2"/>
<circle cx="1125.0" cy="751.0" r="6" fill="none" stroke="#c0392b" opacity="1.0"/>
<text x="1140.0" y="756.0" font-size="9" font-weight="normal" text-anchor="start" fill="#333" font-family="Arial,sans-serif">[REF] Ch80233 | T=25°C | PWM</text>
</g>
<g class="legend-item ref-overlay" data-chip="80233" data-temp="25" data-mode="PWM_L" data-reg="DC2DC_ANA">
<rect x="1116.0" y="766.0" width="18.0" height="4.0" fill="#27ae60" stroke="none" stroke-width="1" opacity="1.0" rx="2"/>
<circle cx="1125.0" cy="768.0" r="6" fill="none" stroke="#27ae60" opacity="1.0"/>
<text x="1140.0" y="773.0" font-size="9" font-weight="normal" text-anchor="start" fill="#333" font-family="Arial,sans-serif">[REF] Ch80233 | T=25°C | PWM_L</text>
</g>
<g class="legend-item ref-overlay" data-chip="80233" data-temp="80" data-mode="AUTO_PFM" data-reg="DC2DC_ANA">
<rect x="1116.0" y="783.0" width="18.0" height="4.0" fill="#d35400" stroke="none" stroke-width="1" opacity="1.0" rx="2"/>
<circle cx="1125.0" cy="785.0" r="6" fill="none" stroke="#d35400" opacity="1.0"/>
<text x="1140.0" y="790.0" font-size="9" font-weight="normal" text-anchor="start" fill="#333" font-family="Arial,sans-serif">[REF] Ch80233 | T=80°C | AUTO_PFM</text>
</g>
<g class="legend-item ref-overlay" data-chip="80233" data-temp="80" data-mode="PWM" data-reg="DC2DC_ANA">
<rect x="1116.0" y="800.0" width="18.0" height="4.0" fill="#7f8c8d" stroke="none" stroke-width="1" opacity="1.0" rx="2"/>
<circle cx="1125.0" cy="802.0" r="6" fill="none" stroke="#7f8c8d" opacity="1.0"/>
<text x="1140.0" y="807.0" font-size="9" font-weight="normal" text-anchor="start" fill="#333" font-family="Arial,sans-serif">[REF] Ch80233 | T=80°C | PWM</text>
</g>
<g class="legend-item ref-overlay" data-chip="80233" data-temp="80" data-mode="PWM_L" data-reg="DC2DC_ANA">
<rect x="1116.0" y="817.0" width="18.0" height="4.0" fill="#2c3e50" stroke="none" stroke-width="1" opacity="1.0" rx="2"/>
<circle cx="1125.0" cy="819.0" r="6" fill="none" stroke="#2c3e50" opacity="1.0"/>
<text x="1140.0" y="824.0" font-size="9" font-weight="normal" text-anchor="start" fill="#333" font-family="Arial,sans-serif">[REF] Ch80233 | T=80°C | PWM_L</text>
</g>
<rect class="cursor-overlay" x="78.0" y="68.0" width="1022.0" height="793.0" fill="transparent" style="cursor:default" data-xmin="78" data-xmax="1100" data-ymin="6.0049" data-ymax="86.3741" data-pl="78.0" data-pr="1100.0" data-pt="68.0" data-pb="861.0"/>
<g class="cursor-layer" style="pointer-events:none;display:none"><line class="cur-v" x1="0" y1="68.0" x2="0" y2="861.0" stroke="#e74c3c" stroke-width="1.2" stroke-dasharray="5,3"/><line class="cur-h" x1="78.0" y1="0" x2="1100.0" y2="0" stroke="#e74c3c" stroke-width="1.2" stroke-dasharray="5,3"/><rect class="cur-tip-bg" x="0" y="0" width="170" height="48" rx="4" fill="#1a252f" stroke="#34495e" stroke-width="1" opacity="0.92"/><text class="cur-tip-s" x="0" y="0" font-size="8" font-family="Arial,sans-serif" fill="#f1c40f"/><text class="cur-tip-x" x="0" y="0" font-size="9" font-family="Arial,sans-serif" fill="#ecf0f1"/><text class="cur-tip-y" x="0" y="0" font-size="9" font-family="Arial,sans-serif" fill="#2ecc71"/></g>
</svg>