<svg xmlns="http://www.w3.org/2000/svg" width="1400" height="560" viewBox="0 0 1400 560">
<rect width="1400" height="560" fill="#ffffff"/>
<text x="700.0" y="28.0" font-size="16" font-weight="bold" text-anchor="middle" fill="#2c3e50" font-family="Arial,sans-serif">Voltage Transitions — Analog DC2DC  Vout=1.2V</text>
<line x1="78.0" y1="68.0" x2="78.0" y2="480.0" stroke="#999" stroke-width="1"/>
<line x1="73.0" y1="480.0" x2="78.0" y2="480.0" stroke="#999" stroke-width="1"/>
<line x1="78.0" y1="480.0" x2="1100.0" y2="480.0" stroke="#e8e8e8" stroke-width="0.7" stroke-dasharray="4,3"/>
<text x="70.0" y="484.0" font-size="9" font-weight="normal" text-anchor="end" fill="#888" font-family="Arial,sans-serif">0.938</text>
<line x1="73.0" y1="397.6" x2="78.0" y2="397.6" stroke="#999" stroke-width="1"/>
<line x1="78.0" y1="397.6" x2="1100.0" y2="397.6" stroke="#e8e8e8" stroke-width="0.7" stroke-dasharray="4,3"/>
<text x="70.0" y="401.6" font-size="9" font-weight="normal" text-anchor="end" fill="#888" font-family="Arial,sans-serif">1.01</text>
<line x1="73.0" y1="315.2" x2="78.0" y2="315.2" stroke="#999" stroke-width="1"/>
<line x1="78.0" y1="315.2" x2="1100.0" y2="315.2" stroke="#e8e8e8" stroke-width="0.7" stroke-dasharray="4,3"/>
<text x="70.0" y="319.2" font-size="9" font-weight="normal" text-anchor="end" fill="#888" font-family="Arial,sans-serif">1.08</text>
<line x1="73.0" y1="232.8" x2="78.0" y2="232.8" stroke="#999" stroke-width="1"/>
<line x1="78.0" y1="232.8" x2="1100.0" y2="232.8" stroke="#e8e8e8" stroke-width="0.7" stroke-dasharray="4,3"/>
<text x="70.0" y="236.8" font-size="9" font-weight="normal" text-anchor="end" fill="#888" font-family="Arial,sans-serif">1.15</text>
<line x1="73.0" y1="150.4" x2="78.0" y2="150.4" stroke="#999" stroke-width="1"/>
<line x1="78.0" y1="150.4" x2="1100.0" y2="150.4" stroke="#e8e8e8" stroke-width="0.7" stroke-dasharray="4,3"/>
<text x="70.0" y="154.4" font-size="9" font-weight="normal" text-anchor="end" fill="#888" font-family="Arial,sans-serif">1.22</text>
<line x1="73.0" y1="68.0" x2="78.0" y2="68.0" stroke="#999" stroke-width="1"/>
<line x1="78.0" y1="68.0" x2="1100.0" y2="68.0" stroke="#e8e8e8" stroke-width="0.7" stroke-dasharray="4,3"/>
<text x="70.0" y="72.0" font-size="9" font-weight="normal" text-anchor="end" fill="#888" font-family="Arial,sans-serif">1.28</text>
<line x1="78.0" y1="480.0" x2="1100.0" y2="480.0" stroke="#999" stroke-width="1"/>
<line x1="180.2" y1="480.0" x2="180.2" y2="485.0" stroke="#999" stroke-width="1"/>
<line x1="180.2" y1="68.0" x2="180.2" y2="480.0" stroke="#e8e8e8" stroke-width="0.7" stroke-dasharray="4,3"/>
<text x="180.2" y="496.0" font-size="10" font-weight="normal" text-anchor="middle" fill="#888" font-family="Arial,sans-serif">AUTO_PFM/3.135V</text>
<line x1="282.4" y1="480.0" x2="282.4" y2="485.0" stroke="#999" stroke-width="1"/>
<line x1="282.4" y1="68.0" x2="282.4" y2="480.0" stroke="#e8e8e8" stroke-width="0.7" stroke-dasharray="4,3"/>
<text x="282.4" y="496.0" font-size="10" font-weight="normal" text-anchor="middle" fill="#888" font-family="Arial,sans-serif">AUTO_PFM/3.3V</text>
<line x1="384.6" y1="480.0" x2="384.6" y2="485.0" stroke="#999" stroke-width="1"/>
<line x1="384.6" y1="68.0" x2="384.6" y2="480.0" stroke="#e8e8e8" stroke-width="0.7" stroke-dasharray="4,3"/>
<text x="384.6" y="496.0" font-size="10" font-weight="normal" text-anchor="middle" fill="#888" font-family="Arial,sans-serif">AUTO_PFM/3.465V</text>
<line x1="486.8" y1="480.0" x2="486.8" y2="485.0" stroke="#999" stroke-width="1"/>
<line x1="486.8" y1="68.0" x2="486.8" y2="480.0" stroke="#e8e8e8" stroke-width="0.7" stroke-dasharray="4,3"/>
<text x="486.8" y="496.0" font-size="10" font-weight="normal" text-anchor="middle" fill="#888" font-family="Arial,sans-serif">PWM/3.135V</text>
<line x1="589.0" y1="480.0" x2="589.0" y2="485.0" stroke="#999" stroke-width="1"/>
<line x1="589.0" y1="68.0" x2="589.0" y2="480.0" stroke="#e8e8e8" stroke-width="0.7" stroke-dasharray="4,3"/>
<text x="589.0" y="496.0" font-size="10" font-weight="normal" text-anchor="middle" fill="#888" font-family="Arial,sans-serif">PWM/3.3V</text>
<line x1="691.2" y1="480.0" x2="691.2" y2="485.0" stroke="#999" stroke-width="1"/>
<line x1="691.2" y1="68.0" x2="691.2" y2="480.0" stroke="#e8e8e8" stroke-width="0.7" stroke-dasharray="4,3"/>
<text x="691.2" y="496.0" font-size="10" font-weight="normal" text-anchor="middle" fill="#888" font-family="Arial,sans-serif">PWM/3.465V</text>
<line x1="793.4" y1="480.0" x2="793.4" y2="485.0" stroke="#999" stroke-width="1"/>
<line x1="793.4" y1="68.0" x2="793.4" y2="480.0" stroke="#e8e8e8" stroke-width="0.7" stroke-dasharray="4,3"/>
<text x="793.4" y="496.0" font-size="10" font-weight="normal" text-anchor="middle" fill="#888" font-family="Arial,sans-serif">PWM_L/3.135V</text>
<line x1="895.6" y1="480.0" x2="895.6" y2="485.0" stroke="#999" stroke-width="1"/>
<line x1="895.6" y1="68.0" x2="895.6" y2="480.0" stroke="#e8e8e8" stroke-width="0.7" stroke-dasharray="4,3"/>
<text x="895.6" y="496.0" font-size="10" font-weight="normal" text-anchor="middle" fill="#888" font-family="Arial,sans-serif">PWM_L/3.3V</text>
<line x1="997.8" y1="480.0" x2="997.8" y2="485.0" stroke="#999" stroke-width="1"/>
<line x1="997.8" y1="68.0" x2="997.8" y2="480.0" stroke="#e8e8e8" stroke-width="0.7" stroke-dasharray="4,3"/>
<text x="997.8" y="496.0" font-size="10" font-weight="normal" text-anchor="middle" fill="#888" font-family="Arial,sans-serif">PWM_L/3.465V</text>
<text x="16.0" y="274.0" font-size="11" font-weight="normal" text-anchor="middle" fill="#555" font-family="Arial,sans-serif" transform="rotate(-90,16,274.0)">Voltage [V]</text>
<text x="589.0" y="550.0" font-size="11" font-weight="normal" text-anchor="middle" fill="#555" font-family="Arial,sans-serif">Vin Setpoint [V]</text>
<g class="series pmic-series" data-chip="21988" data-temp="0" data-reg="DC2DC_ANA">
<path d="M 152.7,139.8 L 254.9,138.0 L 357.1,141.5 L 459.3,173.6 L 561.5,177.2 L 663.7,173.6 L 765.9,154.0 L 868.1,155.8 L 970.3,155.8" fill="none" stroke="#3498db" stroke-width="1.8" stroke-dasharray="5,3" opacity="0.6"/>
<circle cx="152.7" cy="139.8" r="6" fill="#3498db" stroke="white" opacity="1.0"/>
<circle cx="254.9" cy="138.0" r="6" fill="#3498db" stroke="white" opacity="1.0"/>
<circle cx="357.1" cy="141.5" r="6" fill="#3498db" stroke="white" opacity="1.0"/>
<circle cx="459.3" cy="173.6" r="6" fill="#3498db" stroke="white" opacity="1.0"/>
<circle cx="561.5" cy="177.2" r="6" fill="#3498db" stroke="white" opacity="1.0"/>
<circle cx="663.7" cy="173.6" r="6" fill="#3498db" stroke="white" opacity="1.0"/>
<circle cx="765.9" cy="154.0" r="6" fill="#3498db" stroke="white" opacity="1.0"/>
<circle cx="868.1" cy="155.8" r="6" fill="#3498db" stroke="white" opacity="1.0"/>
<circle cx="970.3" cy="155.8" r="6" fill="#3498db" stroke="white" opacity="1.0"/>
</g>
<g class="series pmic-series" data-chip="21988" data-temp="0" data-reg="DC2DC_ANA">
<path d="M 157.7,431.4 L 259.9,427.8 L 362.1,423.7 L 464.3,424.3 L 566.5,424.3 L 668.7,424.3 L 770.9,436.2 L 873.1,433.2 L 975.3,436.2" fill="none" stroke="#e67e22" stroke-width="1.8" stroke-dasharray="5,3" opacity="0.6"/>
<circle cx="157.7" cy="431.4" r="6" fill="#e67e22" stroke="white" opacity="1.0"/>
<circle cx="259.9" cy="427.8" r="6" fill="#e67e22" stroke="white" opacity="1.0"/>
<circle cx="362.1" cy="423.7" r="6" fill="#e67e22" stroke="white" opacity="1.0"/>
<circle cx="464.3" cy="424.3" r="6" fill="#e67e22" stroke="white" opacity="1.0"/>
<circle cx="566.5" cy="424.3" r="6" fill="#e67e22" stroke="white" opacity="1.0"/>
<circle cx="668.7" cy="424.3" r="6" fill="#e67e22" stroke="white" opacity="1.0"/>
<circle cx="770.9" cy="436.2" r="6" fill="#e67e22" stroke="white" opacity="1.0"/>
<circle cx="873.1" cy="433.2" r="6" fill="#e67e22" stroke="white" opacity="1.0"/>
<circle cx="975.3" cy="436.2" r="6" fill="#e67e22" stroke="white" opacity="1.0"/>
</g>
<g class="series pmic-series" data-chip="21988" data-temp="25" data-reg="DC2DC_ANA">
<path d="M 162.7,119.0 L 264.9,126.1 L 367.1,123.1 L 469.3,157.0 L 571.5,157.0 L 673.7,161.1 L 775.9,134.4 L 878.1,138.0 L 980.3,139.2" fill="none" stroke="#2ecc71" stroke-width="1.8" stroke-dasharray="5,3" opacity="0.6"/>
<circle cx="162.7" cy="119.0" r="6" fill="#2ecc71" stroke="white" opacity="1.0"/>
<circle cx="264.9" cy="126.1" r="6" fill="#2ecc71" stroke="white" opacity="1.0"/>
<circle cx="367.1" cy="123.1" r="6" fill="#2ecc71" stroke="white" opacity="1.0"/>
<circle cx="469.3" cy="157.0" r="6" fill="#2ecc71" stroke="white" opacity="1.0"/>
<circle cx="571.5" cy="157.0" r="6" fill="#2ecc71" stroke="white" opacity="1.0"/>
<circle cx="673.7" cy="161.1" r="6" fill="#2ecc71" stroke="white" opacity="1.0"/>
<circle cx="775.9" cy="134.4" r="6" fill="#2ecc71" stroke="white" opacity="1.0"/>
<circle cx="878.1" cy="138.0" r="6" fill="#2ecc71" stroke="white" opacity="1.0"/>
<circle cx="980.3" cy="139.2" r="6" fill="#2ecc71" stroke="white" opacity="1.0"/>
</g>
<g class="series pmic-series" data-chip="21988" data-temp="25" data-reg="DC2DC_ANA">
<path d="M 167.7,408.8 L 269.9,407.1 L 372.1,410.0 L 474.3,408.8 L 576.5,404.7 L 678.7,408.8 L 780.9,419.5 L 883.1,412.4 L 985.3,414.8" fill="none" stroke="#9b59b6" stroke-width="1.8" stroke-dasharray="5,3" opacity="0.6"/>
<circle cx="167.7" cy="408.8" r="6" fill="#9b59b6" stroke="white" opacity="1.0"/>
<circle cx="269.9" cy="407.1" r="6" fill="#9b59b6" stroke="white" opacity="1.0"/>
<circle cx="372.1" cy="410.0" r="6" fill="#9b59b6" stroke="white" opacity="1.0"/>
<circle cx="474.3" cy="408.8" r="6" fill="#9b59b6" stroke="white" opacity="1.0"/>
<circle cx="576.5" cy="404.7" r="6" fill="#9b59b6" stroke="white" opacity="1.0"/>
<circle cx="678.7" cy="408.8" r="6" fill="#9b59b6" stroke="white" opacity="1.0"/>
<circle cx="780.9" cy="419.5" r="6" fill="#9b59b6" stroke="white" opacity="1.0"/>
<circle cx="883.1" cy="412.4" r="6" fill="#9b59b6" stroke="white" opacity="1.0"/>
<circle cx="985.3" cy="414.8" r="6" fill="#9b59b6" stroke="white" opacity="1.0"/>
</g>
<g class="series pmic-series" data-chip="21988" data-temp="80" data-reg="DC2DC_ANA">
<path d="M 172.7,102.3 L 274.9,107.7 L 377.1,105.9 L 479.3,145.1 L 581.5,145.1 L 683.7,145.1 L 785.9,122.5 L 888.1,120.2 L 990.3,123.7" fill="none" stroke="#1abc9c" stroke-width="1.8" stroke-dasharray="5,3" opacity="0.6"/>
<circle cx="172.7" cy="102.3" r="6" fill="#1abc9c" stroke="white" opacity="1.0"/>
<circle cx="274.9" cy="107.7" r="6" fill="#1abc9c" stroke="white" opacity="1.0"/>
<circle cx="377.1" cy="105.9" r="6" fill="#1abc9c" stroke="white" opacity="1.0"/>
<circle cx="479.3" cy="145.1" r="6" fill="#1abc9c" stroke="white" opacity="1.0"/>
<circle cx="581.5" cy="145.1" r="6" fill="#1abc9c" stroke="white" opacity="1.0"/>
<circle cx="683.7" cy="145.1" r="6" fill="#1abc9c" stroke="white" opacity="1.0"/>
<circle cx="785.9" cy="122.5" r="6" fill="#1abc9c" stroke="white" opacity="1.0"/>
<circle cx="888.1" cy="120.2" r="6" fill="#1abc9c" stroke="white" opacity="1.0"/>
<circle cx="990.3" cy="123.7" r="6" fill="#1abc9c" stroke="white" opacity="1.0"/>
</g>
<g class="series pmic-series" data-chip="21988" data-temp="80" data-reg="DC2DC_ANA">
<path d="M 177.7,395.8 L 279.9,402.9 L 382.1,402.9 L 484.3,397.0 L 586.5,397.0 L 688.7,394.0 L 790.9,401.7 L 893.1,398.7 L 995.3,398.7" fill="none" stroke="#e74c3c" stroke-width="1.8" stroke-dasharray="5,3" opacity="0.6"/>
<circle cx="177.7" cy="395.8" r="6" fill="#e74c3c" stroke="white" opacity="1.0"/>
<circle cx="279.9" cy="402.9" r="6" fill="#e74c3c" stroke="white" opacity="1.0"/>
<circle cx="382.1" cy="402.9" r="6" fill="#e74c3c" stroke="white" opacity="1.0"/>
<circle cx="484.3" cy="397.0" r="6" fill="#e74c3c" stroke="white" opacity="1.0"/>
<circle cx="586.5" cy="397.0" r="6" fill="#e74c3c" stroke="white" opacity="1.0"/>
<circle cx="688.7" cy="394.0" r="6" fill="#e74c3c" stroke="white" opacity="1.0"/>
<circle cx="790.9" cy="401.7" r="6" fill="#e74c3c" stroke="white" opacity="1.0"/>
<circle cx="893.1" cy="398.7" r="6" fill="#e74c3c" stroke="white" opacity="1.0"/>
<circle cx="995.3" cy="398.7" r="6" fill="#e74c3c" stroke="white" opacity="1.0"/>
</g>
<g class="series pmic-series" data-chip="31927" data-temp="0" data-reg="DC2DC_ANA">
<path d="M 182.7,110.6 L 284.9,114.8 L 387.1,114.2 L 489.3,149.3 L 591.5,146.3 L 693.7,145.1 L 795.9,105.9 L 898.1,120.7 L 1000.3,123.7" fill="none" stroke="#f39c12" stroke-width="1.8" stroke-dasharray="5,3" opacity="0.6"/>
<circle cx="182.7" cy="110.6" r="6" fill="#f39c12" stroke="white" opacity="1.0"/>
<circle cx="284.9" cy="114.8" r="6" fill="#f39c12" stroke="white" opacity="1.0"/>
<circle cx="387.1" cy="114.2" r="6" fill="#f39c12" stroke="white" opacity="1.0"/>
<circle cx="489.3" cy="149.3" r="6" fill="#f39c12" stroke="white" opacity="1.0"/>
<circle cx="591.5" cy="146.3" r="6" fill="#f39c12" stroke="white" opacity="1.0"/>
<circle cx="693.7" cy="145.1" r="6" fill="#f39c12" stroke="white" opacity="1.0"/>
<circle cx="795.9" cy="105.9" r="6" fill="#f39c12" stroke="white" opacity="1.0"/>
<circle cx="898.1" cy="120.7" r="6" fill="#f39c12" stroke="white" opacity="1.0"/>
<circle cx="1000.3" cy="123.7" r="6" fill="#f39c12" stroke="white" opacity="1.0"/>
</g>
<g class="series pmic-series" data-chip="31927" data-temp="0" data-reg="DC2DC_ANA">
<path d="M 187.7,397.0 L 289.9,399.3 L 392.1,404.1 L 494.3,402.9 L 596.5,404.1 L 698.7,402.9 L 800.9,420.7 L 903.1,414.8 L 1005.3,416.0" fill="none" stroke="#2980b9" stroke-width="1.8" stroke-dasharray="5,3" opacity="0.6"/>
<circle cx="187.7" cy="397.0" r="6" fill="#2980b9" stroke="white" opacity="1.0"/>
<circle cx="289.9" cy="399.3" r="6" fill="#2980b9" stroke="white" opacity="1.0"/>
<circle cx="392.1" cy="404.1" r="6" fill="#2980b9" stroke="white" opacity="1.0"/>
<circle cx="494.3" cy="402.9" r="6" fill="#2980b9" stroke="white" opacity="1.0"/>
<circle cx="596.5" cy="404.1" r="6" fill="#2980b9" stroke="white" opacity="1.0"/>
<circle cx="698.7" cy="402.9" r="6" fill="#2980b9" stroke="white" opacity="1.0"/>
<circle cx="800.9" cy="420.7" r="6" fill="#2980b9" stroke="white" opacity="1.0"/>
<circle cx="903.1" cy="414.8" r="6" fill="#2980b9" stroke="white" opacity="1.0"/>
<circle cx="1005.3" cy="416.0" r="6" fill="#2980b9" stroke="white" opacity="1.0"/>
</g>
<g class="series pmic-series" data-chip="31927" data-temp="25" data-reg="DC2DC_ANA">
<path d="M 192.7,140.9 L 294.9,141.5 L 397.1,141.5 L 499.3,173.6 L 601.5,174.8 L 703.7,174.8 L 805.9,150.4 L 908.1,149.3 L 1010.3,152.2" fill="none" stroke="#16a085" stroke-width="1.8" stroke-dasharray="5,3" opacity="0.6"/>
<circle cx="192.7" cy="140.9" r="6" fill="#16a085" stroke="white" opacity="1.0"/>
<circle cx="294.9" cy="141.5" r="6" fill="#16a085" stroke="white" opacity="1.0"/>
<circle cx="397.1" cy="141.5" r="6" fill="#16a085" stroke="white" opacity="1.0"/>
<circle cx="499.3" cy="173.6" r="6" fill="#16a085" stroke="white" opacity="1.0"/>
<circle cx="601.5" cy="174.8" r="6" fill="#16a085" stroke="white" opacity="1.0"/>
<circle cx="703.7" cy="174.8" r="6" fill="#16a085" stroke="white" opacity="1.0"/>
<circle cx="805.9" cy="150.4" r="6" fill="#16a085" stroke="white" opacity="1.0"/>
<circle cx="908.1" cy="149.3" r="6" fill="#16a085" stroke="white" opacity="1.0"/>
<circle cx="1010.3" cy="152.2" r="6" fill="#16a085" stroke="white" opacity="1.0"/>
</g>
<g class="series pmic-series" data-chip="31927" data-temp="25" data-reg="DC2DC_ANA">
<path d="M 197.7,426.1 L 299.9,431.4 L 402.1,429.6 L 504.3,431.4 L 606.5,431.4 L 708.7,431.4 L 810.9,444.5 L 913.1,444.5 L 1015.3,443.3" fill="none" stroke="#8e44ad" stroke-width="1.8" stroke-dasharray="5,3" opacity="0.6"/>
<circle cx="197.7" cy="426.1" r="6" fill="#8e44ad" stroke="white" opacity="1.0"/>
<circle cx="299.9" cy="431.4" r="6" fill="#8e44ad" stroke="white" opacity="1.0"/>
<circle cx="402.1" cy="429.6" r="6" fill="#8e44ad" stroke="white" opacity="1.0"/>
<circle cx="504.3" cy="431.4" r="6" fill="#8e44ad" stroke="white" opacity="1.0"/>
<circle cx="606.5" cy="431.4" r="6" fill="#8e44ad" stroke="white" opacity="1.0"/>
<circle cx="708.7" cy="431.4" r="6" fill="#8e44ad" stroke="white" opacity="1.0"/>
<circle cx="810.9" cy="444.5" r="6" fill="#8e44ad" stroke="white" opacity="1.0"/>
<circle cx="913.1" cy="444.5" r="6" fill="#8e44ad" stroke="white" opacity="1.0"/>
<circle cx="1015.3" cy="443.3" r="6" fill="#8e44ad" stroke="white" opacity="1.0"/>
</g>
<g class="series pmic-series" data-chip="31927" data-temp="80" data-reg="DC2DC_ANA">
<path d="M 202.7,138.0 L 304.9,135.6 L 407.1,138.0 L 509.3,171.2 L 611.5,173.6 L 713.7,173.6 L 815.9,120.2 L 918.1,127.3 L 1020.3,149.9" fill="none" stroke="#c0392b" stroke-width="1.8" stroke-dasharray="5,3" opacity="0.6"/>
<circle cx="202.7" cy="138.0" r="6" fill="#c0392b" stroke="white" opacity="1.0"/>
<circle cx="304.9" cy="135.6" r="6" fill="#c0392b" stroke="white" opacity="1.0"/>
<circle cx="407.1" cy="138.0" r="6" fill="#c0392b" stroke="white" opacity="1.0"/>
<circle cx="509.3" cy="171.2" r="6" fill="#c0392b" stroke="white" opacity="1.0"/>
<circle cx="611.5" cy="173.6" r="6" fill="#c0392b" stroke="white" opacity="1.0"/>
<circle cx="713.7" cy="173.6" r="6" fill="#c0392b" stroke="white" opacity="1.0"/>
<circle cx="815.9" cy="120.2" r="6" fill="#c0392b" stroke="white" opacity="1.0"/>
<circle cx="918.1" cy="127.3" r="6" fill="#c0392b" stroke="white" opacity="1.0"/>
<circle cx="1020.3" cy="149.9" r="6" fill="#c0392b" stroke="white" opacity="1.0"/>
</g>
<g class="series pmic-series" data-chip="31927" data-temp="80" data-reg="DC2DC_ANA">
<path d="M 207.7,426.7 L 309.9,424.3 L 412.1,429.0 L 514.3,430.2 L 616.5,431.4 L 718.7,430.2 L 820.9,445.7 L 923.1,440.9 L 1025.3,440.9" fill="none" stroke="#27ae60" stroke-width="1.8" stroke-dasharray="5,3" opacity="0.6"/>
<circle cx="207.7" cy="426.7" r="6" fill="#27ae60" stroke="white" opacity="1.0"/>
<circle cx="309.9" cy="424.3" r="6" fill="#27ae60" stroke="white" opacity="1.0"/>
<circle cx="412.1" cy="429.0" r="6" fill="#27ae60" stroke="white" opacity="1.0"/>
<circle cx="514.3" cy="430.2" r="6" fill="#27ae60" stroke="white" opacity="1.0"/>
<circle cx="616.5" cy="431.4" r="6" fill="#27ae60" stroke="white" opacity="1.0"/>
<circle cx="718.7" cy="430.2" r="6" fill="#27ae60" stroke="white" opacity="1.0"/>
<circle cx="820.9" cy="445.7" r="6" fill="#27ae60" stroke="white" opacity="1.0"/>
<circle cx="923.1" cy="440.9" r="6" fill="#27ae60" stroke="white" opacity="1.0"/>
<circle cx="1025.3" cy="440.9" r="6" fill="#27ae60" stroke="white" opacity="1.0"/>
</g>
<g class="legend-item" data-chip="21988" data-temp="0" data-reg="DC2DC_ANA">
<rect x="1116.0" y="69.0" width="18.0" height="4.0" fill="#3498db" stroke="none" stroke-width="1" opacity="1.0" rx="2"/>
<circle cx="1125.0" cy="71.0" r="5" fill="#3498db" stroke="none" opacity="1.0"/>
<text x="1140.0" y="76.0" font-size="9" font-weight="normal" text-anchor="start" fill="#333" font-family="Arial,sans-serif">Max V | Ch21988 | T=0°C</text>
</g>
<g class="legend-item" data-chip="21988" data-temp="0" data-reg="DC2DC_ANA">
<rect x="1116.0" y="86.0" width="18.0" height="4.0" fill="#e67e22" stroke="none" stroke-width="1" opacity="1.0" rx="2"/>
<circle cx="1125.0" cy="88.0" r="5" fill="#e67e22" stroke="none" opacity="1.0"/>
<text x="1140.0" y="93.0" font-size="9" font-weight="normal" text-anchor="start" fill="#333" font-family="Arial,sans-serif">Min V | Ch21988 | T=0°C</text>
</g>
<g class="legend-item" data-chip="21988" data-temp="25" data-reg="DC2DC_ANA">
<rect x="1116.0" y="103.0" width="18.0" height="4.0" fill="#2ecc71" stroke="none" stroke-width="1" opacity="1.0" rx="2"/>
<circle cx="1125.0" cy="105.0" r="5" fill="#2ecc71" stroke="none" opacity="1.0"/>
<text x="1140.0" y="110.0" font-size="9" font-weight="normal" text-anchor="start" fill="#333" font-family="Arial,sans-serif">Max V | Ch21988 | T=25°C</text>
</g>
<g class="legend-item" data-chip="21988" data-temp="25" data-reg="DC2DC_ANA">
<rect x="1116.0" y="120.0" width="18.0" height="4.0" fill="#9b59b6" stroke="none" stroke-width="1" opacity="1.0" rx="2"/>
<circle cx="1125.0" cy="122.0" r="5" fill="#9b59b6" stroke="none" opacity="1.0"/>
<text x="1140.0" y="127.0" font-size="9" font-weight="normal" text-anchor="start" fill="#333" font-family="Arial,sans-serif">Min V | Ch21988 | T=25°C</text>
</g>
<g class="legend-item" data-chip="21988" data-temp="80" data-reg="DC2DC_ANA">
<rect x="1116.0" y="137.0" width="18.0" height="4.0" fill="#1abc9c" stroke="none" stroke-width="1" opacity="1.0" rx="2"/>
<circle cx="1125.0" cy="139.0" r="5" fill="#1abc9c" stroke="none" opacity="1.0"/>
<text x="1140.0" y="144.0" font-size="9" font-weight="normal" text-anchor="start" fill="#333" font-family="Arial,sans-serif">Max V | Ch21988 | T=80°C</text>
</g>
<g class="legend-item" data-chip="21988" data-temp="80" data-reg="DC2DC_ANA">
<rect x="1116.0" y="154.0" width="18.0" height="4.0" fill="#e74c3c" stroke="none" stroke-width="1" opacity="1.0" rx="2"/>
<circle cx="1125.0" cy="156.0" r="5" fill="#e74c3c" stroke="none" opacity="1.0"/>
<text x="1140.0" y="161.0" font-size="9" font-weight="normal" text-anchor="start" fill="#333" font-family="Arial,sans-serif">Min V | Ch21988 | T=80°C</text>
</g>
<g class="legend-item" data-chip="31927" data-temp="0" data-reg="DC2DC_ANA">
<rect x="1116.0" y="171.0" width="18.0" height="4.0" fill="#f39c12" stroke="none" stroke-width="1" opacity="1.0" rx="2"/>
<circle cx="1125.0" cy="173.0" r="5" fill="#f39c12" stroke="none" opacity="1.0"/>
<text x="1140.0" y="178.0" font-size="9" font-weight="normal" text-anchor="start" fill="#333" font-family="Arial,sans-serif">Max V | Ch31927 | T=0°C</text>
</g>
<g class="legend-item" data-chip="31927" data-temp="0" data-reg="DC2DC_ANA">
<rect x="1116.0" y="188.0" width="18.0" height="4.0" fill="#2980b9" stroke="none" stroke-width="1" opacity="1.0" rx="2"/>
<circle cx="1125.0" cy="190.0" r="5" fill="#2980b9" stroke="none" opacity="1.0"/>
<text x="1140.0" y="195.0" font-size="9" font-weight="normal" text-anchor="start" fill="#333" font-family="Arial,sans-serif">Min V | Ch31927 | T=0°C</text>
</g>
<g class="legend-item" data-chip="31927" data-temp="25" data-reg="DC2DC_ANA">
<rect x="1116.0" y="205.0" width="18.0" height="4.0" fill="#16a085" stroke="none" stroke-width="1" opacity="1.0" rx="2"/>
<circle cx="1125.0" cy="207.0" r="5" fill="#16a085" stroke="none" opacity="1.0"/>
<text x="1140.0" y="212.0" font-size="9" font-weight="normal" text-anchor="start" fill="#333" font-family="Arial,sans-serif">Max V | Ch31927 | T=25°C</text>
</g>
<g class="legend-item" data-chip="31927" data-temp="25" data-reg="DC2DC_ANA">
<rect x="1116.0" y="222.0" width="18.0" height="4.0" fill="#8e44ad" stroke="none" stroke-width="1" opacity="1.0" rx="2"/>
<circle cx="1125.0" cy="224.0" r="5" fill="#8e44ad" stroke="none" opacity="1.0"/>
<text x="1140.0" y="229.0" font-size="9" font-weight="normal" text-anchor="start" fill="#333" font-family="Arial,sans-serif">Min V | Ch31927 | T=25°C</text>
</g>
<g class="legend-item" data-chip="31927" data-temp="80" data-reg="DC2DC_ANA">
<rect x="1116.0" y="239.0" width="18.0" height="4.0" fill="#c0392b" stroke="none" stroke-width="1" opacity="1.0" rx="2"/>
<circle cx="1125.0" cy="241.0" r="5" fill="#c0392b" stroke="none" opacity="1.0"/>
<text x="1140.0" y="246.0" font-size="9" font-weight="normal" text-anchor="start" fill="#333" font-family="Arial,sans-serif">Max V | Ch31927 | T=80°C</text>
</g>
<g class="legend-item" data-chip="31927" data-temp="80" data-reg="DC2DC_ANA">
<rect x="1116.0" y="256.0" width="18.0" height="4.0" fill="#27ae60" stroke="none" stroke-width="1" opacity="1.0" rx="2"/>
<circle cx="1125.0" cy="258.0" r="5" fill="#27ae60" stroke="none" opacity="1.0"/>
<text x="1140.0" y="263.0" font-size="9" font-weight="normal" text-anchor="start" fill="#333" font-family="Arial,sans-serif">Min V | Ch31927 | T=80°C</text>
</g>
<rect class="cursor-overlay" x="78.0" y="68.0" width="1022.0" height="412.0" fill="transparent" style="cursor:default" data-xmin="78" data-xmax="1100" data-ymin="0.9376" data-ymax="1.2844" data-pl="78.0" data-pr="1100.0" data-pt="68.0" data-pb="480.0"/>
<g class="cursor-layer" style="pointer-events:none;display:none"><line class="cur-v" x1="0" y1="68.0" x2="0" y2="480.0" stroke="#e74c3c" stroke-width="1.2" stroke-dasharray="5,3"/><line class="cur-h" x1="78.0" y1="0" x2="1100.0" y2="0" stroke="#e74c3c" stroke-width="1.2" stroke-dasharray="5,3"/><rect class="cur-tip-bg" x="0" y="0" width="148" height="44" rx="5" fill="#1a252f" stroke="#34495e" stroke-width="1" opacity="0.92"/><text class="cur-tip-x" x="0" y="0" font-size="11" font-family="Arial,sans-serif" fill="#ecf0f1"/><text class="cur-tip-y" x="0" y="0" font-size="11" font-family="Arial,sans-serif" fill="#2ecc71"/></g>
</svg>