<svg xmlns="http://www.w3.org/2000/svg" width="900" height="450" viewBox="0 0 900 450">
<rect width="900" height="450" fill="#ffffff"/>
<text x="450.0" y="28.0" font-size="16" font-weight="bold" text-anchor="middle" fill="#2c3e50" font-family="Arial,sans-serif">Process Capability (Cpk) - Flow1</text>
<line x1="60.0" y1="330.0" x2="780.0" y2="330.0" stroke="#999" stroke-width="1"/>
<line x1="60.0" y1="55.0" x2="60.0" y2="330.0" stroke="#999" stroke-width="1"/>
<line x1="55.0" y1="330.0" x2="60.0" y2="330.0" stroke="#999" stroke-width="1"/>
<line x1="60.0" y1="330.0" x2="780.0" y2="330.0" stroke="#e0e0e0" stroke-width="0.8" stroke-dasharray="3,3"/>
<text x="52.0" y="334.0" font-size="9" font-weight="normal" text-anchor="end" fill="#7f8c8d" font-family="Arial,sans-serif">-0.49</text>
<line x1="55.0" y1="275.0" x2="60.0" y2="275.0" stroke="#999" stroke-width="1"/>
<line x1="60.0" y1="275.0" x2="780.0" y2="275.0" stroke="#e0e0e0" stroke-width="0.8" stroke-dasharray="3,3"/>
<text x="52.0" y="279.0" font-size="9" font-weight="normal" text-anchor="end" fill="#7f8c8d" font-family="Arial,sans-serif">-0.0591</text>
<line x1="55.0" y1="220.0" x2="60.0" y2="220.0" stroke="#999" stroke-width="1"/>
<line x1="60.0" y1="220.0" x2="780.0" y2="220.0" stroke="#e0e0e0" stroke-width="0.8" stroke-dasharray="3,3"/>
<text x="52.0" y="224.0" font-size="9" font-weight="normal" text-anchor="end" fill="#7f8c8d" font-family="Arial,sans-serif">0.371</text>
<line x1="55.0" y1="165.0" x2="60.0" y2="165.0" stroke="#999" stroke-width="1"/>
<line x1="60.0" y1="165.0" x2="780.0" y2="165.0" stroke="#e0e0e0" stroke-width="0.8" stroke-dasharray="3,3"/>
<text x="52.0" y="169.0" font-size="9" font-weight="normal" text-anchor="end" fill="#7f8c8d" font-family="Arial,sans-serif">0.802</text>
<line x1="55.0" y1="110.0" x2="60.0" y2="110.0" stroke="#999" stroke-width="1"/>
<line x1="60.0" y1="110.0" x2="780.0" y2="110.0" stroke="#e0e0e0" stroke-width="0.8" stroke-dasharray="3,3"/>
<text x="52.0" y="114.0" font-size="9" font-weight="normal" text-anchor="end" fill="#7f8c8d" font-family="Arial,sans-serif">1.23</text>
<line x1="55.0" y1="55.0" x2="60.0" y2="55.0" stroke="#999" stroke-width="1"/>
<line x1="60.0" y1="55.0" x2="780.0" y2="55.0" stroke="#e0e0e0" stroke-width="0.8" stroke-dasharray="3,3"/>
<text x="52.0" y="59.0" font-size="9" font-weight="normal" text-anchor="end" fill="#7f8c8d" font-family="Arial,sans-serif">1.66</text>
<text x="14.0" y="225.0" font-size="11" font-weight="normal" text-anchor="middle" fill="#7f8c8d" font-family="Arial,sans-serif" transform="rotate(-90,14,225.0)">Cpk</text>
<rect x="76.8" y="225.6" width="86.4" height="41.8" fill="#e74c3c" stroke="none" stroke-width="1" opacity="0.87" rx="2"/>
<text x="120.0" y="219.6" font-size="9" font-weight="bold" text-anchor="middle" fill="#333" font-family="Arial,sans-serif">0.33</text>
<text x="120.0" y="340.0" font-size="10" font-weight="normal" text-anchor="end" fill="#333" font-family="Arial,sans-serif" transform="rotate(-40,120.0,340.0)">BRI_DT_VOH</text>
<rect x="196.8" y="267.4" width="86.4" height="43.4" fill="#e74c3c" stroke="none" stroke-width="1" opacity="0.87" rx="2"/>
<text x="240.0" y="281.4" font-size="9" font-weight="bold" text-anchor="middle" fill="#333" font-family="Arial,sans-serif">-0.34</text>
<text x="240.0" y="340.0" font-size="10" font-weight="normal" text-anchor="end" fill="#333" font-family="Arial,sans-serif" transform="rotate(-40,240.0,340.0)">BRI_DT_VOL</text>
<rect x="316.8" y="263.2" width="86.4" height="4.3" fill="#e74c3c" stroke="none" stroke-width="1" opacity="0.87" rx="2"/>
<text x="360.0" y="257.2" font-size="9" font-weight="bold" text-anchor="middle" fill="#333" font-family="Arial,sans-serif">0.03</text>
<text x="360.0" y="340.0" font-size="10" font-weight="normal" text-anchor="end" fill="#333" font-family="Arial,sans-serif" transform="rotate(-40,360.0,340.0)">GPIO_0_VOH</text>
<rect x="436.8" y="267.4" width="86.4" height="4.1" fill="#e74c3c" stroke="none" stroke-width="1" opacity="0.87" rx="2"/>
<text x="480.0" y="281.4" font-size="9" font-weight="bold" text-anchor="middle" fill="#333" font-family="Arial,sans-serif">-0.03</text>
<text x="480.0" y="340.0" font-size="10" font-weight="normal" text-anchor="end" fill="#333" font-family="Arial,sans-serif" transform="rotate(-40,480.0,340.0)">GPIO_0_VOL</text>
<rect x="556.8" y="252.3" width="86.4" height="15.1" fill="#e74c3c" stroke="none" stroke-width="1" opacity="0.87" rx="2"/>
<text x="600.0" y="246.3" font-size="9" font-weight="bold" text-anchor="middle" fill="#333" font-family="Arial,sans-serif">0.12</text>
<text x="600.0" y="340.0" font-size="10" font-weight="normal" text-anchor="end" fill="#333" font-family="Arial,sans-serif" transform="rotate(-40,600.0,340.0)">RF_KILLN_VOH</text>
<rect x="676.8" y="267.4" width="86.4" height="3.2" fill="#e74c3c" stroke="none" stroke-width="1" opacity="0.87" rx="2"/>
<text x="720.0" y="281.4" font-size="9" font-weight="bold" text-anchor="middle" fill="#333" font-family="Arial,sans-serif">-0.03</text>
<text x="720.0" y="340.0" font-size="10" font-weight="normal" text-anchor="end" fill="#333" font-family="Arial,sans-serif" transform="rotate(-40,720.0,340.0)">RF_KILLN_VOL</text>
<line x1="60.0" y1="97.5" x2="780.0" y2="97.5" stroke="#27ae60" stroke-width="1.8" stroke-dasharray="8,4"/>
<text x="784.0" y="101.5" font-size="9" font-weight="normal" text-anchor="start" fill="#27ae60" font-family="Arial,sans-serif">Target (1.33)</text>
<line x1="60.0" y1="139.7" x2="780.0" y2="139.7" stroke="#e67e22" stroke-width="1.5" stroke-dasharray="4,4"/>
<text x="784.0" y="143.7" font-size="9" font-weight="normal" text-anchor="start" fill="#e67e22" font-family="Arial,sans-serif">1.0</text>
</svg>