<svg xmlns="http://www.w3.org/2000/svg" width="900" height="450" viewBox="0 0 900 450">
<rect width="900" height="450" fill="#ffffff"/>
<text x="450.0" y="28.0" font-size="16" font-weight="bold" text-anchor="middle" fill="#2c3e50" font-family="Arial,sans-serif">Process Capability (Cpk) - Flow1</text>
<line x1="60.0" y1="330.0" x2="780.0" y2="330.0" stroke="#999" stroke-width="1"/>
<line x1="60.0" y1="55.0" x2="60.0" y2="330.0" stroke="#999" stroke-width="1"/>
<line x1="55.0" y1="330.0" x2="60.0" y2="330.0" stroke="#999" stroke-width="1"/>
<line x1="60.0" y1="330.0" x2="780.0" y2="330.0" stroke="#e0e0e0" stroke-width="0.8" stroke-dasharray="3,3"/>
<text x="52.0" y="334.0" font-size="9" font-weight="normal" text-anchor="end" fill="#7f8c8d" font-family="Arial,sans-serif">-0.191</text>
<line x1="55.0" y1="275.0" x2="60.0" y2="275.0" stroke="#999" stroke-width="1"/>
<line x1="60.0" y1="275.0" x2="780.0" y2="275.0" stroke="#e0e0e0" stroke-width="0.8" stroke-dasharray="3,3"/>
<text x="52.0" y="279.0" font-size="9" font-weight="normal" text-anchor="end" fill="#7f8c8d" font-family="Arial,sans-serif">0.534</text>
<line x1="55.0" y1="220.0" x2="60.0" y2="220.0" stroke="#999" stroke-width="1"/>
<line x1="60.0" y1="220.0" x2="780.0" y2="220.0" stroke="#e0e0e0" stroke-width="0.8" stroke-dasharray="3,3"/>
<text x="52.0" y="224.0" font-size="9" font-weight="normal" text-anchor="end" fill="#7f8c8d" font-family="Arial,sans-serif">1.26</text>
<line x1="55.0" y1="165.0" x2="60.0" y2="165.0" stroke="#999" stroke-width="1"/>
<line x1="60.0" y1="165.0" x2="780.0" y2="165.0" stroke="#e0e0e0" stroke-width="0.8" stroke-dasharray="3,3"/>
<text x="52.0" y="169.0" font-size="9" font-weight="normal" text-anchor="end" fill="#7f8c8d" font-family="Arial,sans-serif">1.99</text>
<line x1="55.0" y1="110.0" x2="60.0" y2="110.0" stroke="#999" stroke-width="1"/>
<line x1="60.0" y1="110.0" x2="780.0" y2="110.0" stroke="#e0e0e0" stroke-width="0.8" stroke-dasharray="3,3"/>
<text x="52.0" y="114.0" font-size="9" font-weight="normal" text-anchor="end" fill="#7f8c8d" font-family="Arial,sans-serif">2.71</text>
<line x1="55.0" y1="55.0" x2="60.0" y2="55.0" stroke="#999" stroke-width="1"/>
<line x1="60.0" y1="55.0" x2="780.0" y2="55.0" stroke="#e0e0e0" stroke-width="0.8" stroke-dasharray="3,3"/>
<text x="52.0" y="59.0" font-size="9" font-weight="normal" text-anchor="end" fill="#7f8c8d" font-family="Arial,sans-serif">3.44</text>
<text x="14.0" y="225.0" font-size="11" font-weight="normal" text-anchor="middle" fill="#7f8c8d" font-family="Arial,sans-serif" transform="rotate(-90,14,225.0)">Cpk</text>
<rect x="66.3" y="235.9" width="32.4" height="79.6" fill="#e67e22" stroke="none" stroke-width="1" opacity="0.87" rx="2"/>
<text x="82.5" y="229.9" font-size="9" font-weight="bold" text-anchor="middle" fill="#333" font-family="Arial,sans-serif">1.05</text>
<text x="82.5" y="340.0" font-size="10" font-weight="normal" text-anchor="end" fill="#333" font-family="Arial,sans-serif" transform="rotate(-40,82.5,340.0)">GPIO_0_R_High</text>
<rect x="111.3" y="229.1" width="32.4" height="86.4" fill="#e67e22" stroke="none" stroke-width="1" opacity="0.87" rx="2"/>
<text x="127.5" y="223.1" font-size="9" font-weight="bold" text-anchor="middle" fill="#333" font-family="Arial,sans-serif">1.14</text>
<text x="127.5" y="340.0" font-size="10" font-weight="normal" text-anchor="end" fill="#333" font-family="Arial,sans-serif" transform="rotate(-40,127.5,340.0)">GPIO_0_R_Low</text>
<rect x="156.3" y="228.4" width="32.4" height="87.1" fill="#e67e22" stroke="none" stroke-width="1" opacity="0.87" rx="2"/>
<text x="172.5" y="222.4" font-size="9" font-weight="bold" text-anchor="middle" fill="#333" font-family="Arial,sans-serif">1.15</text>
<text x="172.5" y="340.0" font-size="10" font-weight="normal" text-anchor="end" fill="#333" font-family="Arial,sans-serif" transform="rotate(-40,172.5,340.0)">GPIO_0_R_PullDown</text>
<rect x="201.3" y="289.1" width="32.4" height="26.3" fill="#e74c3c" stroke="none" stroke-width="1" opacity="0.87" rx="2"/>
<text x="217.5" y="283.1" font-size="9" font-weight="bold" text-anchor="middle" fill="#333" font-family="Arial,sans-serif">0.35</text>
<text x="217.5" y="340.0" font-size="10" font-weight="normal" text-anchor="end" fill="#333" font-family="Arial,sans-serif" transform="rotate(-40,217.5,340.0)">GPIO_0_R_PullUp</text>
<rect x="246.3" y="250.3" width="32.4" height="65.2" fill="#e74c3c" stroke="none" stroke-width="1" opacity="0.87" rx="2"/>
<text x="262.5" y="244.3" font-size="9" font-weight="bold" text-anchor="middle" fill="#333" font-family="Arial,sans-serif">0.86</text>
<text x="262.5" y="340.0" font-size="10" font-weight="normal" text-anchor="end" fill="#333" font-family="Arial,sans-serif" transform="rotate(-40,262.5,340.0)">GPIO_0_VIH_Min</text>
<rect x="291.3" y="225.8" width="32.4" height="89.6" fill="#e67e22" stroke="none" stroke-width="1" opacity="0.87" rx="2"/>
<text x="307.5" y="219.8" font-size="9" font-weight="bold" text-anchor="middle" fill="#333" font-family="Arial,sans-serif">1.18</text>
<text x="307.5" y="340.0" font-size="10" font-weight="normal" text-anchor="end" fill="#333" font-family="Arial,sans-serif" transform="rotate(-40,307.5,340.0)">GPIO_0_VIL_Max</text>
<rect x="336.3" y="313.0" width="32.4" height="2.5" fill="#e74c3c" stroke="none" stroke-width="1" opacity="0.87" rx="2"/>
<text x="352.5" y="307.0" font-size="9" font-weight="bold" text-anchor="middle" fill="#333" font-family="Arial,sans-serif">0.03</text>
<text x="352.5" y="340.0" font-size="10" font-weight="normal" text-anchor="end" fill="#333" font-family="Arial,sans-serif" transform="rotate(-40,352.5,340.0)">GPIO_0_VOH</text>
<rect x="381.3" y="315.5" width="32.4" height="2.4" fill="#e74c3c" stroke="none" stroke-width="1" opacity="0.87" rx="2"/>
<text x="397.5" y="329.5" font-size="9" font-weight="bold" text-anchor="middle" fill="#333" font-family="Arial,sans-serif">-0.03</text>
<text x="397.5" y="340.0" font-size="10" font-weight="normal" text-anchor="end" fill="#333" font-family="Arial,sans-serif" transform="rotate(-40,397.5,340.0)">GPIO_0_VOL</text>
<rect x="426.3" y="315.5" width="32.4" height="3.1" fill="#e74c3c" stroke="none" stroke-width="1" opacity="0.87" rx="2"/>
<text x="442.5" y="329.5" font-size="9" font-weight="bold" text-anchor="middle" fill="#333" font-family="Arial,sans-serif">-0.04</text>
<text x="442.5" y="340.0" font-size="10" font-weight="normal" text-anchor="end" fill="#333" font-family="Arial,sans-serif" transform="rotate(-40,442.5,340.0)">RF_KILLN_R_High</text>
<rect x="471.3" y="288.3" width="32.4" height="27.2" fill="#e74c3c" stroke="none" stroke-width="1" opacity="0.87" rx="2"/>
<text x="487.5" y="282.3" font-size="9" font-weight="bold" text-anchor="middle" fill="#333" font-family="Arial,sans-serif">0.36</text>
<text x="487.5" y="340.0" font-size="10" font-weight="normal" text-anchor="end" fill="#333" font-family="Arial,sans-serif" transform="rotate(-40,487.5,340.0)">RF_KILLN_R_Low</text>
<rect x="516.3" y="120.9" width="32.4" height="194.6" fill="#2ecc71" stroke="none" stroke-width="1" opacity="0.87" rx="2"/>
<text x="532.5" y="114.9" font-size="9" font-weight="bold" text-anchor="middle" fill="#333" font-family="Arial,sans-serif">2.57</text>
<text x="532.5" y="340.0" font-size="10" font-weight="normal" text-anchor="end" fill="#333" font-family="Arial,sans-serif" transform="rotate(-40,532.5,340.0)">RF_KILLN_R_PullDown</text>
<rect x="561.3" y="107.1" width="32.4" height="208.4" fill="#2ecc71" stroke="none" stroke-width="1" opacity="0.87" rx="2"/>
<text x="577.5" y="101.1" font-size="9" font-weight="bold" text-anchor="middle" fill="#333" font-family="Arial,sans-serif">2.75</text>
<text x="577.5" y="340.0" font-size="10" font-weight="normal" text-anchor="end" fill="#333" font-family="Arial,sans-serif" transform="rotate(-40,577.5,340.0)">RF_KILLN_R_PullUp</text>
<rect x="606.3" y="245.7" width="32.4" height="69.8" fill="#e74c3c" stroke="none" stroke-width="1" opacity="0.87" rx="2"/>
<text x="622.5" y="239.7" font-size="9" font-weight="bold" text-anchor="middle" fill="#333" font-family="Arial,sans-serif">0.92</text>
<text x="622.5" y="340.0" font-size="10" font-weight="normal" text-anchor="end" fill="#333" font-family="Arial,sans-serif" transform="rotate(-40,622.5,340.0)">RF_KILLN_VIH_Min</text>
<rect x="651.3" y="219.5" width="32.4" height="96.0" fill="#e67e22" stroke="none" stroke-width="1" opacity="0.87" rx="2"/>
<text x="667.5" y="213.5" font-size="9" font-weight="bold" text-anchor="middle" fill="#333" font-family="Arial,sans-serif">1.27</text>
<text x="667.5" y="340.0" font-size="10" font-weight="normal" text-anchor="end" fill="#333" font-family="Arial,sans-serif" transform="rotate(-40,667.5,340.0)">RF_KILLN_VIL_Max</text>
<rect x="696.3" y="306.5" width="32.4" height="9.0" fill="#e74c3c" stroke="none" stroke-width="1" opacity="0.87" rx="2"/>
<text x="712.5" y="300.5" font-size="9" font-weight="bold" text-anchor="middle" fill="#333" font-family="Arial,sans-serif">0.12</text>
<text x="712.5" y="340.0" font-size="10" font-weight="normal" text-anchor="end" fill="#333" font-family="Arial,sans-serif" transform="rotate(-40,712.5,340.0)">RF_KILLN_VOH</text>
<rect x="741.3" y="315.5" width="32.4" height="1.9" fill="#e74c3c" stroke="none" stroke-width="1" opacity="0.87" rx="2"/>
<text x="757.5" y="329.5" font-size="9" font-weight="bold" text-anchor="middle" fill="#333" font-family="Arial,sans-serif">-0.03</text>
<text x="757.5" y="340.0" font-size="10" font-weight="normal" text-anchor="end" fill="#333" font-family="Arial,sans-serif" transform="rotate(-40,757.5,340.0)">RF_KILLN_VOL</text>
<line x1="60.0" y1="214.7" x2="780.0" y2="214.7" stroke="#27ae60" stroke-width="1.8" stroke-dasharray="8,4"/>
<text x="784.0" y="218.7" font-size="9" font-weight="normal" text-anchor="start" fill="#27ae60" font-family="Arial,sans-serif">Target (1.33)</text>
<line x1="60.0" y1="239.7" x2="780.0" y2="239.7" stroke="#e67e22" stroke-width="1.5" stroke-dasharray="4,4"/>
<text x="784.0" y="243.7" font-size="9" font-weight="normal" text-anchor="start" fill="#e67e22" font-family="Arial,sans-serif">1.0</text>
</svg>