<svg xmlns="http://www.w3.org/2000/svg" width="800" height="400" viewBox="0 0 800 400">
<rect width="800" height="400" fill="#ffffff"/>
<text x="400.0" y="28.0" font-size="16" font-weight="bold" text-anchor="middle" fill="#2c3e50" font-family="Arial,sans-serif">GPIO_0_Fall_Time_ps - Distribution (ps)</text>
<line x1="65.0" y1="325.0" x2="770.0" y2="325.0" stroke="#999" stroke-width="1"/>
<line x1="65.0" y1="55.0" x2="65.0" y2="325.0" stroke="#999" stroke-width="1"/>
<line x1="60.0" y1="325.0" x2="65.0" y2="325.0" stroke="#999" stroke-width="1"/>
<line x1="65.0" y1="325.0" x2="770.0" y2="325.0" stroke="#e0e0e0" stroke-width="0.7" stroke-dasharray="3,3"/>
<text x="57.0" y="329.0" font-size="9" font-weight="normal" text-anchor="end" fill="#7f8c8d" font-family="Arial,sans-serif">0</text>
<line x1="60.0" y1="271.0" x2="65.0" y2="271.0" stroke="#999" stroke-width="1"/>
<line x1="65.0" y1="271.0" x2="770.0" y2="271.0" stroke="#e0e0e0" stroke-width="0.7" stroke-dasharray="3,3"/>
<text x="57.0" y="275.0" font-size="9" font-weight="normal" text-anchor="end" fill="#7f8c8d" font-family="Arial,sans-serif">40</text>
<line x1="60.0" y1="217.0" x2="65.0" y2="217.0" stroke="#999" stroke-width="1"/>
<line x1="65.0" y1="217.0" x2="770.0" y2="217.0" stroke="#e0e0e0" stroke-width="0.7" stroke-dasharray="3,3"/>
<text x="57.0" y="221.0" font-size="9" font-weight="normal" text-anchor="end" fill="#7f8c8d" font-family="Arial,sans-serif">81</text>
<line x1="60.0" y1="163.0" x2="65.0" y2="163.0" stroke="#999" stroke-width="1"/>
<line x1="65.0" y1="163.0" x2="770.0" y2="163.0" stroke="#e0e0e0" stroke-width="0.7" stroke-dasharray="3,3"/>
<text x="57.0" y="167.0" font-size="9" font-weight="normal" text-anchor="end" fill="#7f8c8d" font-family="Arial,sans-serif">122</text>
<line x1="60.0" y1="109.0" x2="65.0" y2="109.0" stroke="#999" stroke-width="1"/>
<line x1="65.0" y1="109.0" x2="770.0" y2="109.0" stroke="#e0e0e0" stroke-width="0.7" stroke-dasharray="3,3"/>
<text x="57.0" y="113.0" font-size="9" font-weight="normal" text-anchor="end" fill="#7f8c8d" font-family="Arial,sans-serif">163</text>
<line x1="60.0" y1="55.0" x2="65.0" y2="55.0" stroke="#999" stroke-width="1"/>
<line x1="65.0" y1="55.0" x2="770.0" y2="55.0" stroke="#e0e0e0" stroke-width="0.7" stroke-dasharray="3,3"/>
<text x="57.0" y="59.0" font-size="9" font-weight="normal" text-anchor="end" fill="#7f8c8d" font-family="Arial,sans-serif">204</text>
<line x1="65.0" y1="325.0" x2="65.0" y2="330.0" stroke="#999" stroke-width="1"/>
<text x="65.0" y="342.0" font-size="9" font-weight="normal" text-anchor="middle" fill="#7f8c8d" font-family="Arial,sans-serif">-0.00284</text>
<line x1="165.7" y1="325.0" x2="165.7" y2="330.0" stroke="#999" stroke-width="1"/>
<text x="165.7" y="342.0" font-size="9" font-weight="normal" text-anchor="middle" fill="#7f8c8d" font-family="Arial,sans-serif">0.00797</text>
<line x1="266.4" y1="325.0" x2="266.4" y2="330.0" stroke="#999" stroke-width="1"/>
<text x="266.4" y="342.0" font-size="9" font-weight="normal" text-anchor="middle" fill="#7f8c8d" font-family="Arial,sans-serif">0.0188</text>
<line x1="367.1" y1="325.0" x2="367.1" y2="330.0" stroke="#999" stroke-width="1"/>
<text x="367.1" y="342.0" font-size="9" font-weight="normal" text-anchor="middle" fill="#7f8c8d" font-family="Arial,sans-serif">0.0296</text>
<line x1="467.9" y1="325.0" x2="467.9" y2="330.0" stroke="#999" stroke-width="1"/>
<text x="467.9" y="342.0" font-size="9" font-weight="normal" text-anchor="middle" fill="#7f8c8d" font-family="Arial,sans-serif">0.0404</text>
<line x1="568.6" y1="325.0" x2="568.6" y2="330.0" stroke="#999" stroke-width="1"/>
<text x="568.6" y="342.0" font-size="9" font-weight="normal" text-anchor="middle" fill="#7f8c8d" font-family="Arial,sans-serif">0.0512</text>
<line x1="669.3" y1="325.0" x2="669.3" y2="330.0" stroke="#999" stroke-width="1"/>
<text x="669.3" y="342.0" font-size="9" font-weight="normal" text-anchor="middle" fill="#7f8c8d" font-family="Arial,sans-serif">0.062</text>
<line x1="770.0" y1="325.0" x2="770.0" y2="330.0" stroke="#999" stroke-width="1"/>
<text x="770.0" y="342.0" font-size="9" font-weight="normal" text-anchor="middle" fill="#7f8c8d" font-family="Arial,sans-serif">0.0728</text>
<text x="400.0" y="395.0" font-size="11" font-weight="normal" text-anchor="middle" fill="#7f8c8d" font-family="Arial,sans-serif">Value (ps)</text>
<text x="14.0" y="200.0" font-size="11" font-weight="normal" text-anchor="middle" fill="#7f8c8d" font-family="Arial,sans-serif" transform="rotate(-90,14,200.0)">Count</text>
<rect x="93.2" y="126.5" width="24.0" height="198.5" fill="#3498db" stroke="none" stroke-width="1" opacity="0.72" rx="2"/>
<rect x="121.4" y="55.0" width="24.0" height="270.0" fill="#3498db" stroke="none" stroke-width="1" opacity="0.72" rx="2"/>
<rect x="149.6" y="242.9" width="24.0" height="82.1" fill="#3498db" stroke="none" stroke-width="1" opacity="0.72" rx="2"/>
<rect x="177.8" y="318.4" width="24.0" height="6.6" fill="#3498db" stroke="none" stroke-width="1" opacity="0.72" rx="2"/>
<rect x="262.4" y="299.9" width="24.0" height="25.1" fill="#3498db" stroke="none" stroke-width="1" opacity="0.72" rx="2"/>
<rect x="290.6" y="241.6" width="24.0" height="83.4" fill="#3498db" stroke="none" stroke-width="1" opacity="0.72" rx="2"/>
<rect x="318.8" y="260.1" width="24.0" height="64.9" fill="#3498db" stroke="none" stroke-width="1" opacity="0.72" rx="2"/>
<rect x="347.0" y="322.4" width="24.0" height="2.6" fill="#3498db" stroke="none" stroke-width="1" opacity="0.72" rx="2"/>
<rect x="375.2" y="264.1" width="24.0" height="60.9" fill="#3498db" stroke="none" stroke-width="1" opacity="0.72" rx="2"/>
<rect x="403.4" y="278.7" width="24.0" height="46.3" fill="#3498db" stroke="none" stroke-width="1" opacity="0.72" rx="2"/>
<rect x="431.6" y="266.8" width="24.0" height="58.2" fill="#3498db" stroke="none" stroke-width="1" opacity="0.72" rx="2"/>
<rect x="459.8" y="323.7" width="24.0" height="1.3" fill="#3498db" stroke="none" stroke-width="1" opacity="0.72" rx="2"/>
<rect x="600.8" y="307.8" width="24.0" height="17.2" fill="#3498db" stroke="none" stroke-width="1" opacity="0.72" rx="2"/>
<rect x="629.0" y="274.7" width="24.0" height="50.3" fill="#3498db" stroke="none" stroke-width="1" opacity="0.72" rx="2"/>
<rect x="657.2" y="278.7" width="24.0" height="46.3" fill="#3498db" stroke="none" stroke-width="1" opacity="0.72" rx="2"/>
<rect x="685.4" y="285.3" width="24.0" height="39.7" fill="#3498db" stroke="none" stroke-width="1" opacity="0.72" rx="2"/>
<rect x="713.6" y="306.5" width="24.0" height="18.5" fill="#3498db" stroke="none" stroke-width="1" opacity="0.72" rx="2"/>
<rect x="65.0" y="27.0" width="12.0" height="12.0" fill="#3498db" stroke="none" stroke-width="1" opacity="0.72" rx="2"/>
<text x="80.0" y="36.0" font-size="10" font-weight="normal" text-anchor="start" fill="#333" font-family="Arial,sans-serif">Flow2</text>
</svg>