<svg xmlns="http://www.w3.org/2000/svg" width="900" height="450" viewBox="0 0 900 450">
<rect width="900" height="450" fill="#ffffff"/>
<text x="450.0" y="28.0" font-size="16" font-weight="bold" text-anchor="middle" fill="#2c3e50" font-family="Arial,sans-serif">BRI_DT_VOL - Distribution (V)</text>
<line x1="65.0" y1="375.0" x2="870.0" y2="375.0" stroke="#999" stroke-width="1"/>
<line x1="65.0" y1="55.0" x2="65.0" y2="375.0" stroke="#999" stroke-width="1"/>
<line x1="60.0" y1="375.0" x2="65.0" y2="375.0" stroke="#999" stroke-width="1"/>
<line x1="65.0" y1="375.0" x2="870.0" y2="375.0" stroke="#e0e0e0" stroke-width="0.7" stroke-dasharray="3,3"/>
<text x="57.0" y="379.0" font-size="9" font-weight="normal" text-anchor="end" fill="#7f8c8d" font-family="Arial,sans-serif">0</text>
<line x1="60.0" y1="311.0" x2="65.0" y2="311.0" stroke="#999" stroke-width="1"/>
<line x1="65.0" y1="311.0" x2="870.0" y2="311.0" stroke="#e0e0e0" stroke-width="0.7" stroke-dasharray="3,3"/>
<text x="57.0" y="315.0" font-size="9" font-weight="normal" text-anchor="end" fill="#7f8c8d" font-family="Arial,sans-serif">518</text>
<line x1="60.0" y1="247.0" x2="65.0" y2="247.0" stroke="#999" stroke-width="1"/>
<line x1="65.0" y1="247.0" x2="870.0" y2="247.0" stroke="#e0e0e0" stroke-width="0.7" stroke-dasharray="3,3"/>
<text x="57.0" y="251.0" font-size="9" font-weight="normal" text-anchor="end" fill="#7f8c8d" font-family="Arial,sans-serif">1036</text>
<line x1="60.0" y1="183.0" x2="65.0" y2="183.0" stroke="#999" stroke-width="1"/>
<line x1="65.0" y1="183.0" x2="870.0" y2="183.0" stroke="#e0e0e0" stroke-width="0.7" stroke-dasharray="3,3"/>
<text x="57.0" y="187.0" font-size="9" font-weight="normal" text-anchor="end" fill="#7f8c8d" font-family="Arial,sans-serif">1555</text>
<line x1="60.0" y1="119.0" x2="65.0" y2="119.0" stroke="#999" stroke-width="1"/>
<line x1="65.0" y1="119.0" x2="870.0" y2="119.0" stroke="#e0e0e0" stroke-width="0.7" stroke-dasharray="3,3"/>
<text x="57.0" y="123.0" font-size="9" font-weight="normal" text-anchor="end" fill="#7f8c8d" font-family="Arial,sans-serif">2073</text>
<line x1="60.0" y1="55.0" x2="65.0" y2="55.0" stroke="#999" stroke-width="1"/>
<line x1="65.0" y1="55.0" x2="870.0" y2="55.0" stroke="#e0e0e0" stroke-width="0.7" stroke-dasharray="3,3"/>
<text x="57.0" y="59.0" font-size="9" font-weight="normal" text-anchor="end" fill="#7f8c8d" font-family="Arial,sans-serif">2592</text>
<line x1="65.0" y1="375.0" x2="65.0" y2="380.0" stroke="#999" stroke-width="1"/>
<text x="65.0" y="392.0" font-size="9" font-weight="normal" text-anchor="middle" fill="#7f8c8d" font-family="Arial,sans-serif">-29.5</text>
<line x1="180.0" y1="375.0" x2="180.0" y2="380.0" stroke="#999" stroke-width="1"/>
<text x="180.0" y="392.0" font-size="9" font-weight="normal" text-anchor="middle" fill="#7f8c8d" font-family="Arial,sans-serif">7.58</text>
<line x1="295.0" y1="375.0" x2="295.0" y2="380.0" stroke="#999" stroke-width="1"/>
<text x="295.0" y="392.0" font-size="9" font-weight="normal" text-anchor="middle" fill="#7f8c8d" font-family="Arial,sans-serif">44.6</text>
<line x1="410.0" y1="375.0" x2="410.0" y2="380.0" stroke="#999" stroke-width="1"/>
<text x="410.0" y="392.0" font-size="9" font-weight="normal" text-anchor="middle" fill="#7f8c8d" font-family="Arial,sans-serif">81.7</text>
<line x1="525.0" y1="375.0" x2="525.0" y2="380.0" stroke="#999" stroke-width="1"/>
<text x="525.0" y="392.0" font-size="9" font-weight="normal" text-anchor="middle" fill="#7f8c8d" font-family="Arial,sans-serif">119</text>
<line x1="640.0" y1="375.0" x2="640.0" y2="380.0" stroke="#999" stroke-width="1"/>
<text x="640.0" y="392.0" font-size="9" font-weight="normal" text-anchor="middle" fill="#7f8c8d" font-family="Arial,sans-serif">156</text>
<line x1="755.0" y1="375.0" x2="755.0" y2="380.0" stroke="#999" stroke-width="1"/>
<text x="755.0" y="392.0" font-size="9" font-weight="normal" text-anchor="middle" fill="#7f8c8d" font-family="Arial,sans-serif">193</text>
<line x1="870.0" y1="375.0" x2="870.0" y2="380.0" stroke="#999" stroke-width="1"/>
<text x="870.0" y="392.0" font-size="9" font-weight="normal" text-anchor="middle" fill="#7f8c8d" font-family="Arial,sans-serif">230</text>
<text x="450.0" y="445.0" font-size="11" font-weight="normal" text-anchor="middle" fill="#7f8c8d" font-family="Arial,sans-serif">Value (V)</text>
<text x="14.0" y="225.0" font-size="11" font-weight="normal" text-anchor="middle" fill="#7f8c8d" font-family="Arial,sans-serif" transform="rotate(-90,14,225.0)">Count</text>
<rect x="129.4" y="88.8" width="27.4" height="286.2" fill="#3498db" stroke="none" stroke-width="1" opacity="0.72" rx="2"/>
<rect x="161.6" y="347.1" width="27.4" height="27.9" fill="#3498db" stroke="none" stroke-width="1" opacity="0.72" rx="2"/>
<rect x="773.4" y="55.0" width="27.4" height="320.0" fill="#3498db" stroke="none" stroke-width="1" opacity="0.72" rx="2"/>
<rect x="65.0" y="27.0" width="12.0" height="12.0" fill="#3498db" stroke="none" stroke-width="1" opacity="0.72" rx="2"/>
<text x="80.0" y="36.0" font-size="10" font-weight="normal" text-anchor="start" fill="#333" font-family="Arial,sans-serif">Flow1</text>
<line x1="157.9" y1="55.0" x2="157.9" y2="375.0" stroke="#e74c3c" stroke-width="2" stroke-dasharray="4,4"/>
<text x="87.9" y="67.0" font-size="9" font-weight="normal" text-anchor="start" fill="#e74c3c" font-family="Arial,sans-serif">Max:0.45</text>
</svg>