<svg xmlns="http://www.w3.org/2000/svg" width="900" height="450" viewBox="0 0 900 450">
<rect width="900" height="450" fill="#ffffff"/>
<text x="450.0" y="28.0" font-size="16" font-weight="bold" text-anchor="middle" fill="#2c3e50" font-family="Arial,sans-serif">BRI_DT_R_High - Distribution (Ohm)</text>
<line x1="65.0" y1="375.0" x2="870.0" y2="375.0" stroke="#999" stroke-width="1"/>
<line x1="65.0" y1="55.0" x2="65.0" y2="375.0" stroke="#999" stroke-width="1"/>
<line x1="60.0" y1="375.0" x2="65.0" y2="375.0" stroke="#999" stroke-width="1"/>
<line x1="65.0" y1="375.0" x2="870.0" y2="375.0" stroke="#e0e0e0" stroke-width="0.7" stroke-dasharray="3,3"/>
<text x="57.0" y="379.0" font-size="9" font-weight="normal" text-anchor="end" fill="#7f8c8d" font-family="Arial,sans-serif">0</text>
<line x1="60.0" y1="311.0" x2="65.0" y2="311.0" stroke="#999" stroke-width="1"/>
<line x1="65.0" y1="311.0" x2="870.0" y2="311.0" stroke="#e0e0e0" stroke-width="0.7" stroke-dasharray="3,3"/>
<text x="57.0" y="315.0" font-size="9" font-weight="normal" text-anchor="end" fill="#7f8c8d" font-family="Arial,sans-serif">70</text>
<line x1="60.0" y1="247.0" x2="65.0" y2="247.0" stroke="#999" stroke-width="1"/>
<line x1="65.0" y1="247.0" x2="870.0" y2="247.0" stroke="#e0e0e0" stroke-width="0.7" stroke-dasharray="3,3"/>
<text x="57.0" y="251.0" font-size="9" font-weight="normal" text-anchor="end" fill="#7f8c8d" font-family="Arial,sans-serif">140</text>
<line x1="60.0" y1="183.0" x2="65.0" y2="183.0" stroke="#999" stroke-width="1"/>
<line x1="65.0" y1="183.0" x2="870.0" y2="183.0" stroke="#e0e0e0" stroke-width="0.7" stroke-dasharray="3,3"/>
<text x="57.0" y="187.0" font-size="9" font-weight="normal" text-anchor="end" fill="#7f8c8d" font-family="Arial,sans-serif">211</text>
<line x1="60.0" y1="119.0" x2="65.0" y2="119.0" stroke="#999" stroke-width="1"/>
<line x1="65.0" y1="119.0" x2="870.0" y2="119.0" stroke="#e0e0e0" stroke-width="0.7" stroke-dasharray="3,3"/>
<text x="57.0" y="123.0" font-size="9" font-weight="normal" text-anchor="end" fill="#7f8c8d" font-family="Arial,sans-serif">281</text>
<line x1="60.0" y1="55.0" x2="65.0" y2="55.0" stroke="#999" stroke-width="1"/>
<line x1="65.0" y1="55.0" x2="870.0" y2="55.0" stroke="#e0e0e0" stroke-width="0.7" stroke-dasharray="3,3"/>
<text x="57.0" y="59.0" font-size="9" font-weight="normal" text-anchor="end" fill="#7f8c8d" font-family="Arial,sans-serif">352</text>
<line x1="65.0" y1="375.0" x2="65.0" y2="380.0" stroke="#999" stroke-width="1"/>
<text x="65.0" y="392.0" font-size="9" font-weight="normal" text-anchor="middle" fill="#7f8c8d" font-family="Arial,sans-serif">10.1</text>
<line x1="180.0" y1="375.0" x2="180.0" y2="380.0" stroke="#999" stroke-width="1"/>
<text x="180.0" y="392.0" font-size="9" font-weight="normal" text-anchor="middle" fill="#7f8c8d" font-family="Arial,sans-serif">13.5</text>
<line x1="295.0" y1="375.0" x2="295.0" y2="380.0" stroke="#999" stroke-width="1"/>
<text x="295.0" y="392.0" font-size="9" font-weight="normal" text-anchor="middle" fill="#7f8c8d" font-family="Arial,sans-serif">16.9</text>
<line x1="410.0" y1="375.0" x2="410.0" y2="380.0" stroke="#999" stroke-width="1"/>
<text x="410.0" y="392.0" font-size="9" font-weight="normal" text-anchor="middle" fill="#7f8c8d" font-family="Arial,sans-serif">20.2</text>
<line x1="525.0" y1="375.0" x2="525.0" y2="380.0" stroke="#999" stroke-width="1"/>
<text x="525.0" y="392.0" font-size="9" font-weight="normal" text-anchor="middle" fill="#7f8c8d" font-family="Arial,sans-serif">23.6</text>
<line x1="640.0" y1="375.0" x2="640.0" y2="380.0" stroke="#999" stroke-width="1"/>
<text x="640.0" y="392.0" font-size="9" font-weight="normal" text-anchor="middle" fill="#7f8c8d" font-family="Arial,sans-serif">27</text>
<line x1="755.0" y1="375.0" x2="755.0" y2="380.0" stroke="#999" stroke-width="1"/>
<text x="755.0" y="392.0" font-size="9" font-weight="normal" text-anchor="middle" fill="#7f8c8d" font-family="Arial,sans-serif">30.4</text>
<line x1="870.0" y1="375.0" x2="870.0" y2="380.0" stroke="#999" stroke-width="1"/>
<text x="870.0" y="392.0" font-size="9" font-weight="normal" text-anchor="middle" fill="#7f8c8d" font-family="Arial,sans-serif">33.8</text>
<text x="450.0" y="445.0" font-size="11" font-weight="normal" text-anchor="middle" fill="#7f8c8d" font-family="Arial,sans-serif">Value (Ohm)</text>
<text x="14.0" y="225.0" font-size="11" font-weight="normal" text-anchor="middle" fill="#7f8c8d" font-family="Arial,sans-serif" transform="rotate(-90,14,225.0)">Count</text>
<rect x="129.4" y="305.9" width="27.4" height="69.1" fill="#3498db" stroke="none" stroke-width="1" opacity="0.72" rx="2"/>
<rect x="161.6" y="124.1" width="27.4" height="250.9" fill="#3498db" stroke="none" stroke-width="1" opacity="0.72" rx="2"/>
<rect x="193.8" y="97.7" width="27.4" height="277.3" fill="#3498db" stroke="none" stroke-width="1" opacity="0.72" rx="2"/>
<rect x="226.0" y="55.0" width="27.4" height="320.0" fill="#3498db" stroke="none" stroke-width="1" opacity="0.72" rx="2"/>
<rect x="258.2" y="183.2" width="27.4" height="191.8" fill="#3498db" stroke="none" stroke-width="1" opacity="0.72" rx="2"/>
<rect x="290.4" y="206.8" width="27.4" height="168.2" fill="#3498db" stroke="none" stroke-width="1" opacity="0.72" rx="2"/>
<rect x="322.6" y="181.4" width="27.4" height="193.6" fill="#3498db" stroke="none" stroke-width="1" opacity="0.72" rx="2"/>
<rect x="354.8" y="225.9" width="27.4" height="149.1" fill="#3498db" stroke="none" stroke-width="1" opacity="0.72" rx="2"/>
<rect x="387.0" y="253.2" width="27.4" height="121.8" fill="#3498db" stroke="none" stroke-width="1" opacity="0.72" rx="2"/>
<rect x="419.2" y="300.5" width="27.4" height="74.5" fill="#3498db" stroke="none" stroke-width="1" opacity="0.72" rx="2"/>
<rect x="451.4" y="308.6" width="27.4" height="66.4" fill="#3498db" stroke="none" stroke-width="1" opacity="0.72" rx="2"/>
<rect x="483.6" y="302.3" width="27.4" height="72.7" fill="#3498db" stroke="none" stroke-width="1" opacity="0.72" rx="2"/>
<rect x="515.8" y="342.3" width="27.4" height="32.7" fill="#3498db" stroke="none" stroke-width="1" opacity="0.72" rx="2"/>
<rect x="548.0" y="326.8" width="27.4" height="48.2" fill="#3498db" stroke="none" stroke-width="1" opacity="0.72" rx="2"/>
<rect x="580.2" y="336.8" width="27.4" height="38.2" fill="#3498db" stroke="none" stroke-width="1" opacity="0.72" rx="2"/>
<rect x="612.4" y="272.3" width="27.4" height="102.7" fill="#3498db" stroke="none" stroke-width="1" opacity="0.72" rx="2"/>
<rect x="644.6" y="345.0" width="27.4" height="30.0" fill="#3498db" stroke="none" stroke-width="1" opacity="0.72" rx="2"/>
<rect x="676.8" y="333.2" width="27.4" height="41.8" fill="#3498db" stroke="none" stroke-width="1" opacity="0.72" rx="2"/>
<rect x="709.0" y="347.7" width="27.4" height="27.3" fill="#3498db" stroke="none" stroke-width="1" opacity="0.72" rx="2"/>
<rect x="741.2" y="346.8" width="27.4" height="28.2" fill="#3498db" stroke="none" stroke-width="1" opacity="0.72" rx="2"/>
<rect x="773.4" y="359.5" width="27.4" height="15.5" fill="#3498db" stroke="none" stroke-width="1" opacity="0.72" rx="2"/>
<rect x="805.6" y="362.3" width="27.4" height="12.7" fill="#3498db" stroke="none" stroke-width="1" opacity="0.72" rx="2"/>
<rect x="837.8" y="351.4" width="27.4" height="23.6" fill="#3498db" stroke="none" stroke-width="1" opacity="0.72" rx="2"/>
<rect x="65.0" y="27.0" width="12.0" height="12.0" fill="#3498db" stroke="none" stroke-width="1" opacity="0.72" rx="2"/>
<text x="80.0" y="36.0" font-size="10" font-weight="normal" text-anchor="start" fill="#333" font-family="Arial,sans-serif">Flow1</text>
</svg>