<svg xmlns="http://www.w3.org/2000/svg" width="900" height="450" viewBox="0 0 900 450">
<rect width="900" height="450" fill="#ffffff"/>
<text x="450.0" y="28.0" font-size="16" font-weight="bold" text-anchor="middle" fill="#2c3e50" font-family="Arial,sans-serif">BRI_DT_IOL_A - Distribution (A)</text>
<line x1="65.0" y1="375.0" x2="870.0" y2="375.0" stroke="#999" stroke-width="1"/>
<line x1="65.0" y1="55.0" x2="65.0" y2="375.0" stroke="#999" stroke-width="1"/>
<line x1="60.0" y1="375.0" x2="65.0" y2="375.0" stroke="#999" stroke-width="1"/>
<line x1="65.0" y1="375.0" x2="870.0" y2="375.0" stroke="#e0e0e0" stroke-width="0.7" stroke-dasharray="3,3"/>
<text x="57.0" y="379.0" font-size="9" font-weight="normal" text-anchor="end" fill="#7f8c8d" font-family="Arial,sans-serif">0</text>
<line x1="60.0" y1="311.0" x2="65.0" y2="311.0" stroke="#999" stroke-width="1"/>
<line x1="65.0" y1="311.0" x2="870.0" y2="311.0" stroke="#e0e0e0" stroke-width="0.7" stroke-dasharray="3,3"/>
<text x="57.0" y="315.0" font-size="9" font-weight="normal" text-anchor="end" fill="#7f8c8d" font-family="Arial,sans-serif">72</text>
<line x1="60.0" y1="247.0" x2="65.0" y2="247.0" stroke="#999" stroke-width="1"/>
<line x1="65.0" y1="247.0" x2="870.0" y2="247.0" stroke="#e0e0e0" stroke-width="0.7" stroke-dasharray="3,3"/>
<text x="57.0" y="251.0" font-size="9" font-weight="normal" text-anchor="end" fill="#7f8c8d" font-family="Arial,sans-serif">144</text>
<line x1="60.0" y1="183.0" x2="65.0" y2="183.0" stroke="#999" stroke-width="1"/>
<line x1="65.0" y1="183.0" x2="870.0" y2="183.0" stroke="#e0e0e0" stroke-width="0.7" stroke-dasharray="3,3"/>
<text x="57.0" y="187.0" font-size="9" font-weight="normal" text-anchor="end" fill="#7f8c8d" font-family="Arial,sans-serif">216</text>
<line x1="60.0" y1="119.0" x2="65.0" y2="119.0" stroke="#999" stroke-width="1"/>
<line x1="65.0" y1="119.0" x2="870.0" y2="119.0" stroke="#e0e0e0" stroke-width="0.7" stroke-dasharray="3,3"/>
<text x="57.0" y="123.0" font-size="9" font-weight="normal" text-anchor="end" fill="#7f8c8d" font-family="Arial,sans-serif">288</text>
<line x1="60.0" y1="55.0" x2="65.0" y2="55.0" stroke="#999" stroke-width="1"/>
<line x1="65.0" y1="55.0" x2="870.0" y2="55.0" stroke="#e0e0e0" stroke-width="0.7" stroke-dasharray="3,3"/>
<text x="57.0" y="59.0" font-size="9" font-weight="normal" text-anchor="end" fill="#7f8c8d" font-family="Arial,sans-serif">360</text>
<line x1="65.0" y1="375.0" x2="65.0" y2="380.0" stroke="#999" stroke-width="1"/>
<text x="65.0" y="392.0" font-size="9" font-weight="normal" text-anchor="middle" fill="#7f8c8d" font-family="Arial,sans-serif">-0.00121</text>
<line x1="180.0" y1="375.0" x2="180.0" y2="380.0" stroke="#999" stroke-width="1"/>
<text x="180.0" y="392.0" font-size="9" font-weight="normal" text-anchor="middle" fill="#7f8c8d" font-family="Arial,sans-serif">0.00165</text>
<line x1="295.0" y1="375.0" x2="295.0" y2="380.0" stroke="#999" stroke-width="1"/>
<text x="295.0" y="392.0" font-size="9" font-weight="normal" text-anchor="middle" fill="#7f8c8d" font-family="Arial,sans-serif">0.00451</text>
<line x1="410.0" y1="375.0" x2="410.0" y2="380.0" stroke="#999" stroke-width="1"/>
<text x="410.0" y="392.0" font-size="9" font-weight="normal" text-anchor="middle" fill="#7f8c8d" font-family="Arial,sans-serif">0.00737</text>
<line x1="525.0" y1="375.0" x2="525.0" y2="380.0" stroke="#999" stroke-width="1"/>
<text x="525.0" y="392.0" font-size="9" font-weight="normal" text-anchor="middle" fill="#7f8c8d" font-family="Arial,sans-serif">0.0102</text>
<line x1="640.0" y1="375.0" x2="640.0" y2="380.0" stroke="#999" stroke-width="1"/>
<text x="640.0" y="392.0" font-size="9" font-weight="normal" text-anchor="middle" fill="#7f8c8d" font-family="Arial,sans-serif">0.0131</text>
<line x1="755.0" y1="375.0" x2="755.0" y2="380.0" stroke="#999" stroke-width="1"/>
<text x="755.0" y="392.0" font-size="9" font-weight="normal" text-anchor="middle" fill="#7f8c8d" font-family="Arial,sans-serif">0.016</text>
<line x1="870.0" y1="375.0" x2="870.0" y2="380.0" stroke="#999" stroke-width="1"/>
<text x="870.0" y="392.0" font-size="9" font-weight="normal" text-anchor="middle" fill="#7f8c8d" font-family="Arial,sans-serif">0.0188</text>
<text x="450.0" y="445.0" font-size="11" font-weight="normal" text-anchor="middle" fill="#7f8c8d" font-family="Arial,sans-serif">Value (A)</text>
<text x="14.0" y="225.0" font-size="11" font-weight="normal" text-anchor="middle" fill="#7f8c8d" font-family="Arial,sans-serif" transform="rotate(-90,14,225.0)">Count</text>
<rect x="129.4" y="233.7" width="27.4" height="141.3" fill="#3498db" stroke="none" stroke-width="1" opacity="0.72" rx="2"/>
<rect x="161.6" y="233.7" width="27.4" height="141.3" fill="#3498db" stroke="none" stroke-width="1" opacity="0.72" rx="2"/>
<rect x="193.8" y="100.3" width="27.4" height="274.7" fill="#3498db" stroke="none" stroke-width="1" opacity="0.72" rx="2"/>
<rect x="226.0" y="223.0" width="27.4" height="152.0" fill="#3498db" stroke="none" stroke-width="1" opacity="0.72" rx="2"/>
<rect x="258.2" y="92.3" width="27.4" height="282.7" fill="#3498db" stroke="none" stroke-width="1" opacity="0.72" rx="2"/>
<rect x="290.4" y="140.3" width="27.4" height="234.7" fill="#3498db" stroke="none" stroke-width="1" opacity="0.72" rx="2"/>
<rect x="322.6" y="244.3" width="27.4" height="130.7" fill="#3498db" stroke="none" stroke-width="1" opacity="0.72" rx="2"/>
<rect x="354.8" y="124.3" width="27.4" height="250.7" fill="#3498db" stroke="none" stroke-width="1" opacity="0.72" rx="2"/>
<rect x="387.0" y="92.3" width="27.4" height="282.7" fill="#3498db" stroke="none" stroke-width="1" opacity="0.72" rx="2"/>
<rect x="419.2" y="140.3" width="27.4" height="234.7" fill="#3498db" stroke="none" stroke-width="1" opacity="0.72" rx="2"/>
<rect x="451.4" y="105.7" width="27.4" height="269.3" fill="#3498db" stroke="none" stroke-width="1" opacity="0.72" rx="2"/>
<rect x="483.6" y="260.3" width="27.4" height="114.7" fill="#3498db" stroke="none" stroke-width="1" opacity="0.72" rx="2"/>
<rect x="515.8" y="143.0" width="27.4" height="232.0" fill="#3498db" stroke="none" stroke-width="1" opacity="0.72" rx="2"/>
<rect x="548.0" y="92.3" width="27.4" height="282.7" fill="#3498db" stroke="none" stroke-width="1" opacity="0.72" rx="2"/>
<rect x="580.2" y="169.7" width="27.4" height="205.3" fill="#3498db" stroke="none" stroke-width="1" opacity="0.72" rx="2"/>
<rect x="612.4" y="55.0" width="27.4" height="320.0" fill="#3498db" stroke="none" stroke-width="1" opacity="0.72" rx="2"/>
<rect x="644.6" y="167.0" width="27.4" height="208.0" fill="#3498db" stroke="none" stroke-width="1" opacity="0.72" rx="2"/>
<rect x="676.8" y="156.3" width="27.4" height="218.7" fill="#3498db" stroke="none" stroke-width="1" opacity="0.72" rx="2"/>
<rect x="709.0" y="76.3" width="27.4" height="298.7" fill="#3498db" stroke="none" stroke-width="1" opacity="0.72" rx="2"/>
<rect x="741.2" y="183.0" width="27.4" height="192.0" fill="#3498db" stroke="none" stroke-width="1" opacity="0.72" rx="2"/>
<rect x="773.4" y="279.0" width="27.4" height="96.0" fill="#3498db" stroke="none" stroke-width="1" opacity="0.72" rx="2"/>
<rect x="805.6" y="372.3" width="27.4" height="2.7" fill="#3498db" stroke="none" stroke-width="1" opacity="0.72" rx="2"/>
<rect x="65.0" y="27.0" width="12.0" height="12.0" fill="#3498db" stroke="none" stroke-width="1" opacity="0.72" rx="2"/>
<text x="80.0" y="36.0" font-size="10" font-weight="normal" text-anchor="start" fill="#333" font-family="Arial,sans-serif">Flow1</text>
</svg>