<svg xmlns="http://www.w3.org/2000/svg" width="900" height="450" viewBox="0 0 900 450">
<rect width="900" height="450" fill="#ffffff"/>
<text x="450.0" y="28.0" font-size="16" font-weight="bold" text-anchor="middle" fill="#2c3e50" font-family="Arial,sans-serif">GPIO_0_IOL_A - Distribution (mA)</text>
<line x1="65.0" y1="375.0" x2="870.0" y2="375.0" stroke="#999" stroke-width="1"/>
<line x1="65.0" y1="55.0" x2="65.0" y2="375.0" stroke="#999" stroke-width="1"/>
<line x1="60.0" y1="375.0" x2="65.0" y2="375.0" stroke="#999" stroke-width="1"/>
<line x1="65.0" y1="375.0" x2="870.0" y2="375.0" stroke="#e0e0e0" stroke-width="0.7" stroke-dasharray="3,3"/>
<text x="57.0" y="379.0" font-size="9" font-weight="normal" text-anchor="end" fill="#7f8c8d" font-family="Arial,sans-serif">0</text>
<line x1="60.0" y1="311.0" x2="65.0" y2="311.0" stroke="#999" stroke-width="1"/>
<line x1="65.0" y1="311.0" x2="870.0" y2="311.0" stroke="#e0e0e0" stroke-width="0.7" stroke-dasharray="3,3"/>
<text x="57.0" y="315.0" font-size="9" font-weight="normal" text-anchor="end" fill="#7f8c8d" font-family="Arial,sans-serif">75</text>
<line x1="60.0" y1="247.0" x2="65.0" y2="247.0" stroke="#999" stroke-width="1"/>
<line x1="65.0" y1="247.0" x2="870.0" y2="247.0" stroke="#e0e0e0" stroke-width="0.7" stroke-dasharray="3,3"/>
<text x="57.0" y="251.0" font-size="9" font-weight="normal" text-anchor="end" fill="#7f8c8d" font-family="Arial,sans-serif">151</text>
<line x1="60.0" y1="183.0" x2="65.0" y2="183.0" stroke="#999" stroke-width="1"/>
<line x1="65.0" y1="183.0" x2="870.0" y2="183.0" stroke="#e0e0e0" stroke-width="0.7" stroke-dasharray="3,3"/>
<text x="57.0" y="187.0" font-size="9" font-weight="normal" text-anchor="end" fill="#7f8c8d" font-family="Arial,sans-serif">227</text>
<line x1="60.0" y1="119.0" x2="65.0" y2="119.0" stroke="#999" stroke-width="1"/>
<line x1="65.0" y1="119.0" x2="870.0" y2="119.0" stroke="#e0e0e0" stroke-width="0.7" stroke-dasharray="3,3"/>
<text x="57.0" y="123.0" font-size="9" font-weight="normal" text-anchor="end" fill="#7f8c8d" font-family="Arial,sans-serif">303</text>
<line x1="60.0" y1="55.0" x2="65.0" y2="55.0" stroke="#999" stroke-width="1"/>
<line x1="65.0" y1="55.0" x2="870.0" y2="55.0" stroke="#e0e0e0" stroke-width="0.7" stroke-dasharray="3,3"/>
<text x="57.0" y="59.0" font-size="9" font-weight="normal" text-anchor="end" fill="#7f8c8d" font-family="Arial,sans-serif">379</text>
<line x1="65.0" y1="375.0" x2="65.0" y2="380.0" stroke="#999" stroke-width="1"/>
<text x="65.0" y="392.0" font-size="9" font-weight="normal" text-anchor="middle" fill="#7f8c8d" font-family="Arial,sans-serif">-1.25</text>
<line x1="180.0" y1="375.0" x2="180.0" y2="380.0" stroke="#999" stroke-width="1"/>
<text x="180.0" y="392.0" font-size="9" font-weight="normal" text-anchor="middle" fill="#7f8c8d" font-family="Arial,sans-serif">1.54</text>
<line x1="295.0" y1="375.0" x2="295.0" y2="380.0" stroke="#999" stroke-width="1"/>
<text x="295.0" y="392.0" font-size="9" font-weight="normal" text-anchor="middle" fill="#7f8c8d" font-family="Arial,sans-serif">4.32</text>
<line x1="410.0" y1="375.0" x2="410.0" y2="380.0" stroke="#999" stroke-width="1"/>
<text x="410.0" y="392.0" font-size="9" font-weight="normal" text-anchor="middle" fill="#7f8c8d" font-family="Arial,sans-serif">7.11</text>
<line x1="525.0" y1="375.0" x2="525.0" y2="380.0" stroke="#999" stroke-width="1"/>
<text x="525.0" y="392.0" font-size="9" font-weight="normal" text-anchor="middle" fill="#7f8c8d" font-family="Arial,sans-serif">9.89</text>
<line x1="640.0" y1="375.0" x2="640.0" y2="380.0" stroke="#999" stroke-width="1"/>
<text x="640.0" y="392.0" font-size="9" font-weight="normal" text-anchor="middle" fill="#7f8c8d" font-family="Arial,sans-serif">12.7</text>
<line x1="755.0" y1="375.0" x2="755.0" y2="380.0" stroke="#999" stroke-width="1"/>
<text x="755.0" y="392.0" font-size="9" font-weight="normal" text-anchor="middle" fill="#7f8c8d" font-family="Arial,sans-serif">15.5</text>
<line x1="870.0" y1="375.0" x2="870.0" y2="380.0" stroke="#999" stroke-width="1"/>
<text x="870.0" y="392.0" font-size="9" font-weight="normal" text-anchor="middle" fill="#7f8c8d" font-family="Arial,sans-serif">18.2</text>
<text x="450.0" y="445.0" font-size="11" font-weight="normal" text-anchor="middle" fill="#7f8c8d" font-family="Arial,sans-serif">Value (mA)</text>
<text x="14.0" y="225.0" font-size="11" font-weight="normal" text-anchor="middle" fill="#7f8c8d" font-family="Arial,sans-serif" transform="rotate(-90,14,225.0)">Count</text>
<rect x="129.4" y="248.4" width="27.4" height="126.6" fill="#3498db" stroke="none" stroke-width="1" opacity="0.72" rx="2"/>
<rect x="161.6" y="233.2" width="27.4" height="141.8" fill="#3498db" stroke="none" stroke-width="1" opacity="0.72" rx="2"/>
<rect x="193.8" y="126.8" width="27.4" height="248.2" fill="#3498db" stroke="none" stroke-width="1" opacity="0.72" rx="2"/>
<rect x="226.0" y="218.0" width="27.4" height="157.0" fill="#3498db" stroke="none" stroke-width="1" opacity="0.72" rx="2"/>
<rect x="258.2" y="106.5" width="27.4" height="268.5" fill="#3498db" stroke="none" stroke-width="1" opacity="0.72" rx="2"/>
<rect x="290.4" y="320.1" width="27.4" height="54.9" fill="#3498db" stroke="none" stroke-width="1" opacity="0.72" rx="2"/>
<rect x="322.6" y="55.0" width="27.4" height="320.0" fill="#3498db" stroke="none" stroke-width="1" opacity="0.72" rx="2"/>
<rect x="354.8" y="142.8" width="27.4" height="232.2" fill="#3498db" stroke="none" stroke-width="1" opacity="0.72" rx="2"/>
<rect x="387.0" y="162.2" width="27.4" height="212.8" fill="#3498db" stroke="none" stroke-width="1" opacity="0.72" rx="2"/>
<rect x="419.2" y="102.3" width="27.4" height="272.7" fill="#3498db" stroke="none" stroke-width="1" opacity="0.72" rx="2"/>
<rect x="451.4" y="325.2" width="27.4" height="49.8" fill="#3498db" stroke="none" stroke-width="1" opacity="0.72" rx="2"/>
<rect x="483.6" y="116.6" width="27.4" height="258.4" fill="#3498db" stroke="none" stroke-width="1" opacity="0.72" rx="2"/>
<rect x="515.8" y="163.1" width="27.4" height="211.9" fill="#3498db" stroke="none" stroke-width="1" opacity="0.72" rx="2"/>
<rect x="548.0" y="108.2" width="27.4" height="266.8" fill="#3498db" stroke="none" stroke-width="1" opacity="0.72" rx="2"/>
<rect x="580.2" y="87.9" width="27.4" height="287.1" fill="#3498db" stroke="none" stroke-width="1" opacity="0.72" rx="2"/>
<rect x="612.4" y="289.7" width="27.4" height="85.3" fill="#3498db" stroke="none" stroke-width="1" opacity="0.72" rx="2"/>
<rect x="644.6" y="61.8" width="27.4" height="313.2" fill="#3498db" stroke="none" stroke-width="1" opacity="0.72" rx="2"/>
<rect x="676.8" y="152.9" width="27.4" height="222.1" fill="#3498db" stroke="none" stroke-width="1" opacity="0.72" rx="2"/>
<rect x="709.0" y="86.2" width="27.4" height="288.8" fill="#3498db" stroke="none" stroke-width="1" opacity="0.72" rx="2"/>
<rect x="741.2" y="307.5" width="27.4" height="67.5" fill="#3498db" stroke="none" stroke-width="1" opacity="0.72" rx="2"/>
<rect x="773.4" y="139.4" width="27.4" height="235.6" fill="#3498db" stroke="none" stroke-width="1" opacity="0.72" rx="2"/>
<rect x="805.6" y="360.6" width="27.4" height="14.4" fill="#3498db" stroke="none" stroke-width="1" opacity="0.72" rx="2"/>
<rect x="837.8" y="374.2" width="27.4" height="0.8" fill="#3498db" stroke="none" stroke-width="1" opacity="0.72" rx="2"/>
<rect x="65.0" y="27.0" width="12.0" height="12.0" fill="#3498db" stroke="none" stroke-width="1" opacity="0.72" rx="2"/>
<text x="80.0" y="36.0" font-size="10" font-weight="normal" text-anchor="start" fill="#333" font-family="Arial,sans-serif">Flow1</text>
<g class="spec-el">
</g>
</svg>