<svg xmlns="http://www.w3.org/2000/svg" width="900" height="450" viewBox="0 0 900 450">
<rect width="900" height="450" fill="#ffffff"/>
<text x="450.0" y="28.0" font-size="16" font-weight="bold" text-anchor="middle" fill="#2c3e50" font-family="Arial,sans-serif">RF_KILLN_Fall_Time_ps - Measured vs Spec (ps)</text>
<line x1="70.0" y1="390.0" x2="810.0" y2="390.0" stroke="#999" stroke-width="1"/>
<line x1="70.0" y1="55.0" x2="70.0" y2="390.0" stroke="#999" stroke-width="1"/>
<line x1="65.0" y1="390.0" x2="70.0" y2="390.0" stroke="#999" stroke-width="1"/>
<line x1="70.0" y1="390.0" x2="810.0" y2="390.0" stroke="#e0e0e0" stroke-width="0.8" stroke-dasharray="3,3"/>
<text x="62.0" y="394.0" font-size="9" font-weight="normal" text-anchor="end" fill="#7f8c8d" font-family="Arial,sans-serif">-0.00525</text>
<line x1="65.0" y1="323.0" x2="70.0" y2="323.0" stroke="#999" stroke-width="1"/>
<line x1="70.0" y1="323.0" x2="810.0" y2="323.0" stroke="#e0e0e0" stroke-width="0.8" stroke-dasharray="3,3"/>
<text x="62.0" y="327.0" font-size="9" font-weight="normal" text-anchor="end" fill="#7f8c8d" font-family="Arial,sans-serif">0.00177</text>
<line x1="65.0" y1="256.0" x2="70.0" y2="256.0" stroke="#999" stroke-width="1"/>
<line x1="70.0" y1="256.0" x2="810.0" y2="256.0" stroke="#e0e0e0" stroke-width="0.8" stroke-dasharray="3,3"/>
<text x="62.0" y="260.0" font-size="9" font-weight="normal" text-anchor="end" fill="#7f8c8d" font-family="Arial,sans-serif">0.00879</text>
<line x1="65.0" y1="189.0" x2="70.0" y2="189.0" stroke="#999" stroke-width="1"/>
<line x1="70.0" y1="189.0" x2="810.0" y2="189.0" stroke="#e0e0e0" stroke-width="0.8" stroke-dasharray="3,3"/>
<text x="62.0" y="193.0" font-size="9" font-weight="normal" text-anchor="end" fill="#7f8c8d" font-family="Arial,sans-serif">0.0158</text>
<line x1="65.0" y1="122.0" x2="70.0" y2="122.0" stroke="#999" stroke-width="1"/>
<line x1="70.0" y1="122.0" x2="810.0" y2="122.0" stroke="#e0e0e0" stroke-width="0.8" stroke-dasharray="3,3"/>
<text x="62.0" y="126.0" font-size="9" font-weight="normal" text-anchor="end" fill="#7f8c8d" font-family="Arial,sans-serif">0.0228</text>
<line x1="65.0" y1="55.0" x2="70.0" y2="55.0" stroke="#999" stroke-width="1"/>
<line x1="70.0" y1="55.0" x2="810.0" y2="55.0" stroke="#e0e0e0" stroke-width="0.8" stroke-dasharray="3,3"/>
<text x="62.0" y="59.0" font-size="9" font-weight="normal" text-anchor="end" fill="#7f8c8d" font-family="Arial,sans-serif">0.0298</text>
<text x="14.0" y="225.0" font-size="11" font-weight="normal" text-anchor="middle" fill="#7f8c8d" font-family="Arial,sans-serif" transform="rotate(-90,14,225.0)">Value (ps)</text>
<rect x="405.0" y="252.1" width="70.0" height="51.5" fill="#3498db" stroke="#3498db" stroke-width="1.5" opacity="0.25" rx="2"/>
<line x1="405.0" y1="299.8" x2="475.0" y2="299.8" stroke="#3498db" stroke-width="2.5"/>
<line x1="440.0" y1="303.6" x2="440.0" y2="334.2" stroke="#3498db" stroke-width="1"/>
<line x1="440.0" y1="252.1" x2="440.0" y2="198.6" stroke="#3498db" stroke-width="1"/>
<line x1="422.5" y1="334.2" x2="457.5" y2="334.2" stroke="#3498db" stroke-width="1"/>
<line x1="422.5" y1="198.6" x2="457.5" y2="198.6" stroke="#3498db" stroke-width="1"/>
<circle cx="440.0" cy="162.4" r="3" fill="#3498db" stroke="none" opacity="0.8"/>
<circle cx="440.0" cy="162.4" r="3" fill="#3498db" stroke="none" opacity="0.8"/>
<circle cx="440.0" cy="160.5" r="3" fill="#3498db" stroke="none" opacity="0.8"/>
<circle cx="440.0" cy="160.5" r="3" fill="#3498db" stroke="none" opacity="0.8"/>
<circle cx="440.0" cy="160.5" r="3" fill="#3498db" stroke="none" opacity="0.8"/>
<circle cx="440.0" cy="158.6" r="3" fill="#3498db" stroke="none" opacity="0.8"/>
<circle cx="440.0" cy="158.6" r="3" fill="#3498db" stroke="none" opacity="0.8"/>
<circle cx="440.0" cy="158.6" r="3" fill="#3498db" stroke="none" opacity="0.8"/>
<circle cx="440.0" cy="158.6" r="3" fill="#3498db" stroke="none" opacity="0.8"/>
<circle cx="440.0" cy="156.6" r="3" fill="#3498db" stroke="none" opacity="0.8"/>
<circle cx="440.0" cy="156.6" r="3" fill="#3498db" stroke="none" opacity="0.8"/>
<circle cx="440.0" cy="156.6" r="3" fill="#3498db" stroke="none" opacity="0.8"/>
<circle cx="440.0" cy="156.6" r="3" fill="#3498db" stroke="none" opacity="0.8"/>
<circle cx="440.0" cy="156.6" r="3" fill="#3498db" stroke="none" opacity="0.8"/>
<circle cx="440.0" cy="156.6" r="3" fill="#3498db" stroke="none" opacity="0.8"/>
<circle cx="440.0" cy="156.6" r="3" fill="#3498db" stroke="none" opacity="0.8"/>
<circle cx="440.0" cy="154.7" r="3" fill="#3498db" stroke="none" opacity="0.8"/>
<circle cx="440.0" cy="154.7" r="3" fill="#3498db" stroke="none" opacity="0.8"/>
<circle cx="440.0" cy="154.7" r="3" fill="#3498db" stroke="none" opacity="0.8"/>
<circle cx="440.0" cy="154.7" r="3" fill="#3498db" stroke="none" opacity="0.8"/>
<circle cx="440.0" cy="154.7" r="3" fill="#3498db" stroke="none" opacity="0.8"/>
<circle cx="440.0" cy="154.7" r="3" fill="#3498db" stroke="none" opacity="0.8"/>
<circle cx="440.0" cy="152.8" r="3" fill="#3498db" stroke="none" opacity="0.8"/>
<circle cx="440.0" cy="152.8" r="3" fill="#3498db" stroke="none" opacity="0.8"/>
<circle cx="440.0" cy="152.8" r="3" fill="#3498db" stroke="none" opacity="0.8"/>
<circle cx="440.0" cy="152.8" r="3" fill="#3498db" stroke="none" opacity="0.8"/>
<circle cx="440.0" cy="152.8" r="3" fill="#3498db" stroke="none" opacity="0.8"/>
<circle cx="440.0" cy="152.8" r="3" fill="#3498db" stroke="none" opacity="0.8"/>
<circle cx="440.0" cy="152.8" r="3" fill="#3498db" stroke="none" opacity="0.8"/>
<circle cx="440.0" cy="152.8" r="3" fill="#3498db" stroke="none" opacity="0.8"/>
<circle cx="440.0" cy="152.8" r="3" fill="#3498db" stroke="none" opacity="0.8"/>
<circle cx="440.0" cy="150.9" r="3" fill="#3498db" stroke="none" opacity="0.8"/>
<circle cx="440.0" cy="150.9" r="3" fill="#3498db" stroke="none" opacity="0.8"/>
<circle cx="440.0" cy="150.9" r="3" fill="#3498db" stroke="none" opacity="0.8"/>
<circle cx="440.0" cy="150.9" r="3" fill="#3498db" stroke="none" opacity="0.8"/>
<circle cx="440.0" cy="150.9" r="3" fill="#3498db" stroke="none" opacity="0.8"/>
<circle cx="440.0" cy="150.9" r="3" fill="#3498db" stroke="none" opacity="0.8"/>
<circle cx="440.0" cy="150.9" r="3" fill="#3498db" stroke="none" opacity="0.8"/>
<circle cx="440.0" cy="150.9" r="3" fill="#3498db" stroke="none" opacity="0.8"/>
<circle cx="440.0" cy="150.9" r="3" fill="#3498db" stroke="none" opacity="0.8"/>
<circle cx="440.0" cy="150.9" r="3" fill="#3498db" stroke="none" opacity="0.8"/>
<circle cx="440.0" cy="150.9" r="3" fill="#3498db" stroke="none" opacity="0.8"/>
<circle cx="440.0" cy="150.9" r="3" fill="#3498db" stroke="none" opacity="0.8"/>
<circle cx="440.0" cy="150.9" r="3" fill="#3498db" stroke="none" opacity="0.8"/>
<circle cx="440.0" cy="150.9" r="3" fill="#3498db" stroke="none" opacity="0.8"/>
<circle cx="440.0" cy="149.0" r="3" fill="#3498db" stroke="none" opacity="0.8"/>
<circle cx="440.0" cy="149.0" r="3" fill="#3498db" stroke="none" opacity="0.8"/>
<circle cx="440.0" cy="149.0" r="3" fill="#3498db" stroke="none" opacity="0.8"/>
<circle cx="440.0" cy="149.0" r="3" fill="#3498db" stroke="none" opacity="0.8"/>
<circle cx="440.0" cy="149.0" r="3" fill="#3498db" stroke="none" opacity="0.8"/>
<circle cx="440.0" cy="149.0" r="3" fill="#3498db" stroke="none" opacity="0.8"/>
<circle cx="440.0" cy="149.0" r="3" fill="#3498db" stroke="none" opacity="0.8"/>
<circle cx="440.0" cy="149.0" r="3" fill="#3498db" stroke="none" opacity="0.8"/>
<circle cx="440.0" cy="147.1" r="3" fill="#3498db" stroke="none" opacity="0.8"/>
<circle cx="440.0" cy="147.1" r="3" fill="#3498db" stroke="none" opacity="0.8"/>
<circle cx="440.0" cy="147.1" r="3" fill="#3498db" stroke="none" opacity="0.8"/>
<circle cx="440.0" cy="147.1" r="3" fill="#3498db" stroke="none" opacity="0.8"/>
<circle cx="440.0" cy="147.1" r="3" fill="#3498db" stroke="none" opacity="0.8"/>
<circle cx="440.0" cy="147.1" r="3" fill="#3498db" stroke="none" opacity="0.8"/>
<circle cx="440.0" cy="147.1" r="3" fill="#3498db" stroke="none" opacity="0.8"/>
<circle cx="440.0" cy="145.2" r="3" fill="#3498db" stroke="none" opacity="0.8"/>
<circle cx="440.0" cy="145.2" r="3" fill="#3498db" stroke="none" opacity="0.8"/>
<circle cx="440.0" cy="143.3" r="3" fill="#3498db" stroke="none" opacity="0.8"/>
<circle cx="440.0" cy="143.3" r="3" fill="#3498db" stroke="none" opacity="0.8"/>
<circle cx="440.0" cy="143.3" r="3" fill="#3498db" stroke="none" opacity="0.8"/>
<circle cx="440.0" cy="143.3" r="3" fill="#3498db" stroke="none" opacity="0.8"/>
<circle cx="440.0" cy="143.3" r="3" fill="#3498db" stroke="none" opacity="0.8"/>
<circle cx="440.0" cy="141.4" r="3" fill="#3498db" stroke="none" opacity="0.8"/>
<circle cx="440.0" cy="141.4" r="3" fill="#3498db" stroke="none" opacity="0.8"/>
<circle cx="440.0" cy="141.4" r="3" fill="#3498db" stroke="none" opacity="0.8"/>
<circle cx="440.0" cy="139.5" r="3" fill="#3498db" stroke="none" opacity="0.8"/>
<circle cx="440.0" cy="139.5" r="3" fill="#3498db" stroke="none" opacity="0.8"/>
<circle cx="440.0" cy="139.5" r="3" fill="#3498db" stroke="none" opacity="0.8"/>
<circle cx="440.0" cy="139.5" r="3" fill="#3498db" stroke="none" opacity="0.8"/>
<circle cx="440.0" cy="139.5" r="3" fill="#3498db" stroke="none" opacity="0.8"/>
<circle cx="440.0" cy="139.5" r="3" fill="#3498db" stroke="none" opacity="0.8"/>
<circle cx="440.0" cy="137.6" r="3" fill="#3498db" stroke="none" opacity="0.8"/>
<circle cx="440.0" cy="137.6" r="3" fill="#3498db" stroke="none" opacity="0.8"/>
<circle cx="440.0" cy="137.6" r="3" fill="#3498db" stroke="none" opacity="0.8"/>
<circle cx="440.0" cy="137.6" r="3" fill="#3498db" stroke="none" opacity="0.8"/>
<circle cx="440.0" cy="135.6" r="3" fill="#3498db" stroke="none" opacity="0.8"/>
<circle cx="440.0" cy="135.6" r="3" fill="#3498db" stroke="none" opacity="0.8"/>
<circle cx="440.0" cy="135.6" r="3" fill="#3498db" stroke="none" opacity="0.8"/>
<circle cx="440.0" cy="133.7" r="3" fill="#3498db" stroke="none" opacity="0.8"/>
<circle cx="440.0" cy="133.7" r="3" fill="#3498db" stroke="none" opacity="0.8"/>
<circle cx="440.0" cy="131.8" r="3" fill="#3498db" stroke="none" opacity="0.8"/>
<circle cx="440.0" cy="131.8" r="3" fill="#3498db" stroke="none" opacity="0.8"/>
<circle cx="440.0" cy="131.8" r="3" fill="#3498db" stroke="none" opacity="0.8"/>
<circle cx="440.0" cy="129.9" r="3" fill="#3498db" stroke="none" opacity="0.8"/>
<circle cx="440.0" cy="129.9" r="3" fill="#3498db" stroke="none" opacity="0.8"/>
<circle cx="440.0" cy="129.9" r="3" fill="#3498db" stroke="none" opacity="0.8"/>
<circle cx="440.0" cy="128.0" r="3" fill="#3498db" stroke="none" opacity="0.8"/>
<circle cx="440.0" cy="128.0" r="3" fill="#3498db" stroke="none" opacity="0.8"/>
<circle cx="440.0" cy="128.0" r="3" fill="#3498db" stroke="none" opacity="0.8"/>
<circle cx="440.0" cy="126.1" r="3" fill="#3498db" stroke="none" opacity="0.8"/>
<circle cx="440.0" cy="122.3" r="3" fill="#3498db" stroke="none" opacity="0.8"/>
<circle cx="440.0" cy="122.3" r="3" fill="#3498db" stroke="none" opacity="0.8"/>
<circle cx="440.0" cy="122.3" r="3" fill="#3498db" stroke="none" opacity="0.8"/>
<circle cx="440.0" cy="122.3" r="3" fill="#3498db" stroke="none" opacity="0.8"/>
<circle cx="440.0" cy="122.3" r="3" fill="#3498db" stroke="none" opacity="0.8"/>
<circle cx="440.0" cy="122.3" r="3" fill="#3498db" stroke="none" opacity="0.8"/>
<circle cx="440.0" cy="120.4" r="3" fill="#3498db" stroke="none" opacity="0.8"/>
<circle cx="440.0" cy="120.4" r="3" fill="#3498db" stroke="none" opacity="0.8"/>
<circle cx="440.0" cy="118.5" r="3" fill="#3498db" stroke="none" opacity="0.8"/>
<circle cx="440.0" cy="118.5" r="3" fill="#3498db" stroke="none" opacity="0.8"/>
<circle cx="440.0" cy="118.5" r="3" fill="#3498db" stroke="none" opacity="0.8"/>
<circle cx="440.0" cy="118.5" r="3" fill="#3498db" stroke="none" opacity="0.8"/>
<circle cx="440.0" cy="118.5" r="3" fill="#3498db" stroke="none" opacity="0.8"/>
<circle cx="440.0" cy="118.5" r="3" fill="#3498db" stroke="none" opacity="0.8"/>
<circle cx="440.0" cy="118.5" r="3" fill="#3498db" stroke="none" opacity="0.8"/>
<circle cx="440.0" cy="118.5" r="3" fill="#3498db" stroke="none" opacity="0.8"/>
<circle cx="440.0" cy="116.6" r="3" fill="#3498db" stroke="none" opacity="0.8"/>
<circle cx="440.0" cy="116.6" r="3" fill="#3498db" stroke="none" opacity="0.8"/>
<circle cx="440.0" cy="116.6" r="3" fill="#3498db" stroke="none" opacity="0.8"/>
<circle cx="440.0" cy="116.6" r="3" fill="#3498db" stroke="none" opacity="0.8"/>
<circle cx="440.0" cy="116.6" r="3" fill="#3498db" stroke="none" opacity="0.8"/>
<circle cx="440.0" cy="116.6" r="3" fill="#3498db" stroke="none" opacity="0.8"/>
<circle cx="440.0" cy="116.6" r="3" fill="#3498db" stroke="none" opacity="0.8"/>
<circle cx="440.0" cy="116.6" r="3" fill="#3498db" stroke="none" opacity="0.8"/>
<circle cx="440.0" cy="116.6" r="3" fill="#3498db" stroke="none" opacity="0.8"/>
<circle cx="440.0" cy="116.6" r="3" fill="#3498db" stroke="none" opacity="0.8"/>
<circle cx="440.0" cy="114.7" r="3" fill="#3498db" stroke="none" opacity="0.8"/>
<circle cx="440.0" cy="114.7" r="3" fill="#3498db" stroke="none" opacity="0.8"/>
<circle cx="440.0" cy="114.7" r="3" fill="#3498db" stroke="none" opacity="0.8"/>
<circle cx="440.0" cy="112.7" r="3" fill="#3498db" stroke="none" opacity="0.8"/>
<circle cx="440.0" cy="112.7" r="3" fill="#3498db" stroke="none" opacity="0.8"/>
<circle cx="440.0" cy="112.7" r="3" fill="#3498db" stroke="none" opacity="0.8"/>
<circle cx="440.0" cy="112.7" r="3" fill="#3498db" stroke="none" opacity="0.8"/>
<circle cx="440.0" cy="110.8" r="3" fill="#3498db" stroke="none" opacity="0.8"/>
<circle cx="440.0" cy="110.8" r="3" fill="#3498db" stroke="none" opacity="0.8"/>
<circle cx="440.0" cy="110.8" r="3" fill="#3498db" stroke="none" opacity="0.8"/>
<circle cx="440.0" cy="110.8" r="3" fill="#3498db" stroke="none" opacity="0.8"/>
<circle cx="440.0" cy="108.9" r="3" fill="#3498db" stroke="none" opacity="0.8"/>
<circle cx="440.0" cy="108.9" r="3" fill="#3498db" stroke="none" opacity="0.8"/>
<circle cx="440.0" cy="108.9" r="3" fill="#3498db" stroke="none" opacity="0.8"/>
<circle cx="440.0" cy="108.9" r="3" fill="#3498db" stroke="none" opacity="0.8"/>
<circle cx="440.0" cy="108.9" r="3" fill="#3498db" stroke="none" opacity="0.8"/>
<circle cx="440.0" cy="108.9" r="3" fill="#3498db" stroke="none" opacity="0.8"/>
<circle cx="440.0" cy="108.9" r="3" fill="#3498db" stroke="none" opacity="0.8"/>
<circle cx="440.0" cy="108.9" r="3" fill="#3498db" stroke="none" opacity="0.8"/>
<circle cx="440.0" cy="107.0" r="3" fill="#3498db" stroke="none" opacity="0.8"/>
<circle cx="440.0" cy="107.0" r="3" fill="#3498db" stroke="none" opacity="0.8"/>
<circle cx="440.0" cy="107.0" r="3" fill="#3498db" stroke="none" opacity="0.8"/>
<circle cx="440.0" cy="105.1" r="3" fill="#3498db" stroke="none" opacity="0.8"/>
<circle cx="440.0" cy="105.1" r="3" fill="#3498db" stroke="none" opacity="0.8"/>
<circle cx="440.0" cy="103.2" r="3" fill="#3498db" stroke="none" opacity="0.8"/>
<circle cx="440.0" cy="93.7" r="3" fill="#3498db" stroke="none" opacity="0.8"/>
<text x="440.0" y="408.0" font-size="11" font-weight="normal" text-anchor="middle" fill="#333" font-family="Arial,sans-serif">Flow2</text>
<rect x="815.0" y="55.0" width="10.0" height="10.0" fill="#3498db" stroke="none" stroke-width="1" opacity="0.7" rx="2"/>
<text x="828.0" y="64.0" font-size="9" font-weight="normal" text-anchor="start" fill="#333" font-family="Arial,sans-serif">Flow2</text>
<g class="spec-el">
</g>
</svg>