<svg xmlns="http://www.w3.org/2000/svg" width="600" height="430" viewBox="0 0 600 430">
<rect width="600" height="430" fill="#ffffff"/>
<text x="300.0" y="28.0" font-size="16" font-weight="bold" text-anchor="middle" fill="#2c3e50" font-family="Arial,sans-serif">RF_KILLN_R_High - Measured vs Spec (Ohm)</text>
<line x1="70.0" y1="370.0" x2="510.0" y2="370.0" stroke="#999" stroke-width="1"/>
<line x1="70.0" y1="55.0" x2="70.0" y2="370.0" stroke="#999" stroke-width="1"/>
<line x1="65.0" y1="370.0" x2="70.0" y2="370.0" stroke="#999" stroke-width="1"/>
<line x1="70.0" y1="370.0" x2="510.0" y2="370.0" stroke="#e0e0e0" stroke-width="0.8" stroke-dasharray="3,3"/>
<text x="62.0" y="374.0" font-size="9" font-weight="normal" text-anchor="end" fill="#7f8c8d" font-family="Arial,sans-serif">-4.73e+03</text>
<line x1="65.0" y1="307.0" x2="70.0" y2="307.0" stroke="#999" stroke-width="1"/>
<line x1="70.0" y1="307.0" x2="510.0" y2="307.0" stroke="#e0e0e0" stroke-width="0.8" stroke-dasharray="3,3"/>
<text x="62.0" y="311.0" font-size="9" font-weight="normal" text-anchor="end" fill="#7f8c8d" font-family="Arial,sans-serif">5.11e+03</text>
<line x1="65.0" y1="244.0" x2="70.0" y2="244.0" stroke="#999" stroke-width="1"/>
<line x1="70.0" y1="244.0" x2="510.0" y2="244.0" stroke="#e0e0e0" stroke-width="0.8" stroke-dasharray="3,3"/>
<text x="62.0" y="248.0" font-size="9" font-weight="normal" text-anchor="end" fill="#7f8c8d" font-family="Arial,sans-serif">1.49e+04</text>
<line x1="65.0" y1="181.0" x2="70.0" y2="181.0" stroke="#999" stroke-width="1"/>
<line x1="70.0" y1="181.0" x2="510.0" y2="181.0" stroke="#e0e0e0" stroke-width="0.8" stroke-dasharray="3,3"/>
<text x="62.0" y="185.0" font-size="9" font-weight="normal" text-anchor="end" fill="#7f8c8d" font-family="Arial,sans-serif">2.48e+04</text>
<line x1="65.0" y1="118.0" x2="70.0" y2="118.0" stroke="#999" stroke-width="1"/>
<line x1="70.0" y1="118.0" x2="510.0" y2="118.0" stroke="#e0e0e0" stroke-width="0.8" stroke-dasharray="3,3"/>
<text x="62.0" y="122.0" font-size="9" font-weight="normal" text-anchor="end" fill="#7f8c8d" font-family="Arial,sans-serif">3.46e+04</text>
<line x1="65.0" y1="55.0" x2="70.0" y2="55.0" stroke="#999" stroke-width="1"/>
<line x1="70.0" y1="55.0" x2="510.0" y2="55.0" stroke="#e0e0e0" stroke-width="0.8" stroke-dasharray="3,3"/>
<text x="62.0" y="59.0" font-size="9" font-weight="normal" text-anchor="end" fill="#7f8c8d" font-family="Arial,sans-serif">4.45e+04</text>
<text x="14.0" y="215.0" font-size="11" font-weight="normal" text-anchor="middle" fill="#7f8c8d" font-family="Arial,sans-serif" transform="rotate(-90,14,215.0)">Value (Ohm)</text>
<rect x="255.0" y="339.1" width="70.0" height="0.4" fill="#3498db" stroke="#3498db" stroke-width="1.5" opacity="0.25" rx="2"/>
<line x1="255.0" y1="339.4" x2="325.0" y2="339.4" stroke="#3498db" stroke-width="2.5"/>
<line x1="290.0" y1="339.5" x2="290.0" y2="339.5" stroke="#3498db" stroke-width="1"/>
<line x1="290.0" y1="339.1" x2="290.0" y2="338.8" stroke="#3498db" stroke-width="1"/>
<line x1="272.5" y1="339.5" x2="307.5" y2="339.5" stroke="#3498db" stroke-width="1"/>
<line x1="272.5" y1="338.8" x2="307.5" y2="338.8" stroke="#3498db" stroke-width="1"/>
<circle cx="290.0" cy="180.0" r="3" fill="#3498db" stroke="none" opacity="0.8"/>
<circle cx="290.0" cy="179.9" r="3" fill="#3498db" stroke="none" opacity="0.8"/>
<circle cx="290.0" cy="179.9" r="3" fill="#3498db" stroke="none" opacity="0.8"/>
<circle cx="290.0" cy="179.9" r="3" fill="#3498db" stroke="none" opacity="0.8"/>
<circle cx="290.0" cy="179.8" r="3" fill="#3498db" stroke="none" opacity="0.8"/>
<circle cx="290.0" cy="179.8" r="3" fill="#3498db" stroke="none" opacity="0.8"/>
<circle cx="290.0" cy="105.1" r="3" fill="#3498db" stroke="none" opacity="0.8"/>
<circle cx="290.0" cy="104.1" r="3" fill="#3498db" stroke="none" opacity="0.8"/>
<circle cx="290.0" cy="100.5" r="3" fill="#3498db" stroke="none" opacity="0.8"/>
<circle cx="290.0" cy="94.7" r="3" fill="#3498db" stroke="none" opacity="0.8"/>
<circle cx="290.0" cy="87.3" r="3" fill="#3498db" stroke="none" opacity="0.8"/>
<circle cx="290.0" cy="85.5" r="3" fill="#3498db" stroke="none" opacity="0.8"/>
<text x="290.0" y="388.0" font-size="11" font-weight="normal" text-anchor="middle" fill="#333" font-family="Arial,sans-serif">Flow1</text>
<rect x="515.0" y="55.0" width="10.0" height="10.0" fill="#3498db" stroke="none" stroke-width="1" opacity="0.7" rx="2"/>
<text x="528.0" y="64.0" font-size="9" font-weight="normal" text-anchor="start" fill="#333" font-family="Arial,sans-serif">Flow1</text>
</svg>