<svg xmlns="http://www.w3.org/2000/svg" width="900" height="450" viewBox="0 0 900 450">
<rect width="900" height="450" fill="#ffffff"/>
<text x="450.0" y="28.0" font-size="16" font-weight="bold" text-anchor="middle" fill="#2c3e50" font-family="Arial,sans-serif">GPIO_0_R_High - Measured vs Spec (Ohm)</text>
<line x1="70.0" y1="390.0" x2="810.0" y2="390.0" stroke="#999" stroke-width="1"/>
<line x1="70.0" y1="55.0" x2="70.0" y2="390.0" stroke="#999" stroke-width="1"/>
<line x1="65.0" y1="390.0" x2="70.0" y2="390.0" stroke="#999" stroke-width="1"/>
<line x1="70.0" y1="390.0" x2="810.0" y2="390.0" stroke="#e0e0e0" stroke-width="0.8" stroke-dasharray="3,3"/>
<text x="62.0" y="394.0" font-size="9" font-weight="normal" text-anchor="end" fill="#7f8c8d" font-family="Arial,sans-serif">-42.9</text>
<line x1="65.0" y1="323.0" x2="70.0" y2="323.0" stroke="#999" stroke-width="1"/>
<line x1="70.0" y1="323.0" x2="810.0" y2="323.0" stroke="#e0e0e0" stroke-width="0.8" stroke-dasharray="3,3"/>
<text x="62.0" y="327.0" font-size="9" font-weight="normal" text-anchor="end" fill="#7f8c8d" font-family="Arial,sans-serif">39.1</text>
<line x1="65.0" y1="256.0" x2="70.0" y2="256.0" stroke="#999" stroke-width="1"/>
<line x1="70.0" y1="256.0" x2="810.0" y2="256.0" stroke="#e0e0e0" stroke-width="0.8" stroke-dasharray="3,3"/>
<text x="62.0" y="260.0" font-size="9" font-weight="normal" text-anchor="end" fill="#7f8c8d" font-family="Arial,sans-serif">121</text>
<line x1="65.0" y1="189.0" x2="70.0" y2="189.0" stroke="#999" stroke-width="1"/>
<line x1="70.0" y1="189.0" x2="810.0" y2="189.0" stroke="#e0e0e0" stroke-width="0.8" stroke-dasharray="3,3"/>
<text x="62.0" y="193.0" font-size="9" font-weight="normal" text-anchor="end" fill="#7f8c8d" font-family="Arial,sans-serif">203</text>
<line x1="65.0" y1="122.0" x2="70.0" y2="122.0" stroke="#999" stroke-width="1"/>
<line x1="70.0" y1="122.0" x2="810.0" y2="122.0" stroke="#e0e0e0" stroke-width="0.8" stroke-dasharray="3,3"/>
<text x="62.0" y="126.0" font-size="9" font-weight="normal" text-anchor="end" fill="#7f8c8d" font-family="Arial,sans-serif">285</text>
<line x1="65.0" y1="55.0" x2="70.0" y2="55.0" stroke="#999" stroke-width="1"/>
<line x1="70.0" y1="55.0" x2="810.0" y2="55.0" stroke="#e0e0e0" stroke-width="0.8" stroke-dasharray="3,3"/>
<text x="62.0" y="59.0" font-size="9" font-weight="normal" text-anchor="end" fill="#7f8c8d" font-family="Arial,sans-serif">367</text>
<text x="14.0" y="225.0" font-size="11" font-weight="normal" text-anchor="middle" fill="#7f8c8d" font-family="Arial,sans-serif" transform="rotate(-90,14,225.0)">Value (Ohm)</text>
<rect x="405.0" y="291.8" width="70.0" height="37.1" fill="#3498db" stroke="#3498db" stroke-width="1.5" opacity="0.25" rx="2"/>
<line x1="405.0" y1="318.7" x2="475.0" y2="318.7" stroke="#3498db" stroke-width="2.5"/>
<line x1="440.0" y1="328.9" x2="440.0" y2="335.3" stroke="#3498db" stroke-width="1"/>
<line x1="440.0" y1="291.8" x2="440.0" y2="236.3" stroke="#3498db" stroke-width="1"/>
<line x1="422.5" y1="335.3" x2="457.5" y2="335.3" stroke="#3498db" stroke-width="1"/>
<line x1="422.5" y1="236.3" x2="457.5" y2="236.3" stroke="#3498db" stroke-width="1"/>
<circle cx="440.0" cy="235.8" r="3" fill="#3498db" stroke="none" opacity="0.8"/>
<circle cx="440.0" cy="235.7" r="3" fill="#3498db" stroke="none" opacity="0.8"/>
<circle cx="440.0" cy="235.7" r="3" fill="#3498db" stroke="none" opacity="0.8"/>
<circle cx="440.0" cy="235.7" r="3" fill="#3498db" stroke="none" opacity="0.8"/>
<circle cx="440.0" cy="235.7" r="3" fill="#3498db" stroke="none" opacity="0.8"/>
<circle cx="440.0" cy="235.4" r="3" fill="#3498db" stroke="none" opacity="0.8"/>
<circle cx="440.0" cy="235.0" r="3" fill="#3498db" stroke="none" opacity="0.8"/>
<circle cx="440.0" cy="235.0" r="3" fill="#3498db" stroke="none" opacity="0.8"/>
<circle cx="440.0" cy="234.9" r="3" fill="#3498db" stroke="none" opacity="0.8"/>
<circle cx="440.0" cy="234.8" r="3" fill="#3498db" stroke="none" opacity="0.8"/>
<circle cx="440.0" cy="234.8" r="3" fill="#3498db" stroke="none" opacity="0.8"/>
<circle cx="440.0" cy="234.8" r="3" fill="#3498db" stroke="none" opacity="0.8"/>
<circle cx="440.0" cy="234.8" r="3" fill="#3498db" stroke="none" opacity="0.8"/>
<circle cx="440.0" cy="234.7" r="3" fill="#3498db" stroke="none" opacity="0.8"/>
<circle cx="440.0" cy="234.6" r="3" fill="#3498db" stroke="none" opacity="0.8"/>
<circle cx="440.0" cy="234.5" r="3" fill="#3498db" stroke="none" opacity="0.8"/>
<circle cx="440.0" cy="234.4" r="3" fill="#3498db" stroke="none" opacity="0.8"/>
<circle cx="440.0" cy="234.2" r="3" fill="#3498db" stroke="none" opacity="0.8"/>
<circle cx="440.0" cy="234.0" r="3" fill="#3498db" stroke="none" opacity="0.8"/>
<circle cx="440.0" cy="233.9" r="3" fill="#3498db" stroke="none" opacity="0.8"/>
<circle cx="440.0" cy="233.9" r="3" fill="#3498db" stroke="none" opacity="0.8"/>
<circle cx="440.0" cy="233.8" r="3" fill="#3498db" stroke="none" opacity="0.8"/>
<circle cx="440.0" cy="233.8" r="3" fill="#3498db" stroke="none" opacity="0.8"/>
<circle cx="440.0" cy="233.8" r="3" fill="#3498db" stroke="none" opacity="0.8"/>
<circle cx="440.0" cy="233.6" r="3" fill="#3498db" stroke="none" opacity="0.8"/>
<circle cx="440.0" cy="233.4" r="3" fill="#3498db" stroke="none" opacity="0.8"/>
<circle cx="440.0" cy="233.4" r="3" fill="#3498db" stroke="none" opacity="0.8"/>
<circle cx="440.0" cy="233.4" r="3" fill="#3498db" stroke="none" opacity="0.8"/>
<circle cx="440.0" cy="233.3" r="3" fill="#3498db" stroke="none" opacity="0.8"/>
<circle cx="440.0" cy="233.2" r="3" fill="#3498db" stroke="none" opacity="0.8"/>
<circle cx="440.0" cy="233.1" r="3" fill="#3498db" stroke="none" opacity="0.8"/>
<circle cx="440.0" cy="233.0" r="3" fill="#3498db" stroke="none" opacity="0.8"/>
<circle cx="440.0" cy="233.0" r="3" fill="#3498db" stroke="none" opacity="0.8"/>
<circle cx="440.0" cy="233.0" r="3" fill="#3498db" stroke="none" opacity="0.8"/>
<circle cx="440.0" cy="233.0" r="3" fill="#3498db" stroke="none" opacity="0.8"/>
<circle cx="440.0" cy="232.9" r="3" fill="#3498db" stroke="none" opacity="0.8"/>
<circle cx="440.0" cy="232.8" r="3" fill="#3498db" stroke="none" opacity="0.8"/>
<circle cx="440.0" cy="232.8" r="3" fill="#3498db" stroke="none" opacity="0.8"/>
<circle cx="440.0" cy="232.7" r="3" fill="#3498db" stroke="none" opacity="0.8"/>
<circle cx="440.0" cy="232.7" r="3" fill="#3498db" stroke="none" opacity="0.8"/>
<circle cx="440.0" cy="232.7" r="3" fill="#3498db" stroke="none" opacity="0.8"/>
<circle cx="440.0" cy="232.6" r="3" fill="#3498db" stroke="none" opacity="0.8"/>
<circle cx="440.0" cy="232.5" r="3" fill="#3498db" stroke="none" opacity="0.8"/>
<circle cx="440.0" cy="232.3" r="3" fill="#3498db" stroke="none" opacity="0.8"/>
<circle cx="440.0" cy="232.1" r="3" fill="#3498db" stroke="none" opacity="0.8"/>
<circle cx="440.0" cy="232.1" r="3" fill="#3498db" stroke="none" opacity="0.8"/>
<circle cx="440.0" cy="232.1" r="3" fill="#3498db" stroke="none" opacity="0.8"/>
<circle cx="440.0" cy="232.1" r="3" fill="#3498db" stroke="none" opacity="0.8"/>
<circle cx="440.0" cy="232.0" r="3" fill="#3498db" stroke="none" opacity="0.8"/>
<circle cx="440.0" cy="231.7" r="3" fill="#3498db" stroke="none" opacity="0.8"/>
<circle cx="440.0" cy="231.7" r="3" fill="#3498db" stroke="none" opacity="0.8"/>
<circle cx="440.0" cy="231.6" r="3" fill="#3498db" stroke="none" opacity="0.8"/>
<circle cx="440.0" cy="231.4" r="3" fill="#3498db" stroke="none" opacity="0.8"/>
<circle cx="440.0" cy="231.4" r="3" fill="#3498db" stroke="none" opacity="0.8"/>
<circle cx="440.0" cy="231.2" r="3" fill="#3498db" stroke="none" opacity="0.8"/>
<circle cx="440.0" cy="231.1" r="3" fill="#3498db" stroke="none" opacity="0.8"/>
<circle cx="440.0" cy="231.1" r="3" fill="#3498db" stroke="none" opacity="0.8"/>
<circle cx="440.0" cy="231.0" r="3" fill="#3498db" stroke="none" opacity="0.8"/>
<circle cx="440.0" cy="231.0" r="3" fill="#3498db" stroke="none" opacity="0.8"/>
<circle cx="440.0" cy="231.0" r="3" fill="#3498db" stroke="none" opacity="0.8"/>
<circle cx="440.0" cy="230.8" r="3" fill="#3498db" stroke="none" opacity="0.8"/>
<circle cx="440.0" cy="230.8" r="3" fill="#3498db" stroke="none" opacity="0.8"/>
<circle cx="440.0" cy="230.6" r="3" fill="#3498db" stroke="none" opacity="0.8"/>
<circle cx="440.0" cy="230.6" r="3" fill="#3498db" stroke="none" opacity="0.8"/>
<circle cx="440.0" cy="230.5" r="3" fill="#3498db" stroke="none" opacity="0.8"/>
<circle cx="440.0" cy="230.5" r="3" fill="#3498db" stroke="none" opacity="0.8"/>
<circle cx="440.0" cy="230.3" r="3" fill="#3498db" stroke="none" opacity="0.8"/>
<circle cx="440.0" cy="230.3" r="3" fill="#3498db" stroke="none" opacity="0.8"/>
<circle cx="440.0" cy="230.2" r="3" fill="#3498db" stroke="none" opacity="0.8"/>
<circle cx="440.0" cy="230.2" r="3" fill="#3498db" stroke="none" opacity="0.8"/>
<circle cx="440.0" cy="230.1" r="3" fill="#3498db" stroke="none" opacity="0.8"/>
<circle cx="440.0" cy="230.1" r="3" fill="#3498db" stroke="none" opacity="0.8"/>
<circle cx="440.0" cy="230.0" r="3" fill="#3498db" stroke="none" opacity="0.8"/>
<circle cx="440.0" cy="230.0" r="3" fill="#3498db" stroke="none" opacity="0.8"/>
<circle cx="440.0" cy="230.0" r="3" fill="#3498db" stroke="none" opacity="0.8"/>
<circle cx="440.0" cy="229.9" r="3" fill="#3498db" stroke="none" opacity="0.8"/>
<circle cx="440.0" cy="229.9" r="3" fill="#3498db" stroke="none" opacity="0.8"/>
<circle cx="440.0" cy="229.8" r="3" fill="#3498db" stroke="none" opacity="0.8"/>
<circle cx="440.0" cy="229.8" r="3" fill="#3498db" stroke="none" opacity="0.8"/>
<circle cx="440.0" cy="229.8" r="3" fill="#3498db" stroke="none" opacity="0.8"/>
<circle cx="440.0" cy="229.7" r="3" fill="#3498db" stroke="none" opacity="0.8"/>
<circle cx="440.0" cy="229.6" r="3" fill="#3498db" stroke="none" opacity="0.8"/>
<circle cx="440.0" cy="229.6" r="3" fill="#3498db" stroke="none" opacity="0.8"/>
<circle cx="440.0" cy="229.3" r="3" fill="#3498db" stroke="none" opacity="0.8"/>
<circle cx="440.0" cy="229.2" r="3" fill="#3498db" stroke="none" opacity="0.8"/>
<circle cx="440.0" cy="229.0" r="3" fill="#3498db" stroke="none" opacity="0.8"/>
<circle cx="440.0" cy="229.0" r="3" fill="#3498db" stroke="none" opacity="0.8"/>
<circle cx="440.0" cy="228.4" r="3" fill="#3498db" stroke="none" opacity="0.8"/>
<circle cx="440.0" cy="228.3" r="3" fill="#3498db" stroke="none" opacity="0.8"/>
<circle cx="440.0" cy="228.2" r="3" fill="#3498db" stroke="none" opacity="0.8"/>
<circle cx="440.0" cy="228.2" r="3" fill="#3498db" stroke="none" opacity="0.8"/>
<circle cx="440.0" cy="228.2" r="3" fill="#3498db" stroke="none" opacity="0.8"/>
<circle cx="440.0" cy="228.1" r="3" fill="#3498db" stroke="none" opacity="0.8"/>
<circle cx="440.0" cy="228.0" r="3" fill="#3498db" stroke="none" opacity="0.8"/>
<circle cx="440.0" cy="228.0" r="3" fill="#3498db" stroke="none" opacity="0.8"/>
<circle cx="440.0" cy="228.0" r="3" fill="#3498db" stroke="none" opacity="0.8"/>
<circle cx="440.0" cy="227.9" r="3" fill="#3498db" stroke="none" opacity="0.8"/>
<circle cx="440.0" cy="227.9" r="3" fill="#3498db" stroke="none" opacity="0.8"/>
<circle cx="440.0" cy="227.8" r="3" fill="#3498db" stroke="none" opacity="0.8"/>
<circle cx="440.0" cy="227.7" r="3" fill="#3498db" stroke="none" opacity="0.8"/>
<circle cx="440.0" cy="227.7" r="3" fill="#3498db" stroke="none" opacity="0.8"/>
<circle cx="440.0" cy="227.6" r="3" fill="#3498db" stroke="none" opacity="0.8"/>
<circle cx="440.0" cy="227.4" r="3" fill="#3498db" stroke="none" opacity="0.8"/>
<circle cx="440.0" cy="227.4" r="3" fill="#3498db" stroke="none" opacity="0.8"/>
<circle cx="440.0" cy="227.3" r="3" fill="#3498db" stroke="none" opacity="0.8"/>
<circle cx="440.0" cy="227.1" r="3" fill="#3498db" stroke="none" opacity="0.8"/>
<circle cx="440.0" cy="227.1" r="3" fill="#3498db" stroke="none" opacity="0.8"/>
<circle cx="440.0" cy="226.9" r="3" fill="#3498db" stroke="none" opacity="0.8"/>
<circle cx="440.0" cy="226.9" r="3" fill="#3498db" stroke="none" opacity="0.8"/>
<circle cx="440.0" cy="226.8" r="3" fill="#3498db" stroke="none" opacity="0.8"/>
<circle cx="440.0" cy="226.8" r="3" fill="#3498db" stroke="none" opacity="0.8"/>
<circle cx="440.0" cy="226.6" r="3" fill="#3498db" stroke="none" opacity="0.8"/>
<circle cx="440.0" cy="226.4" r="3" fill="#3498db" stroke="none" opacity="0.8"/>
<circle cx="440.0" cy="226.4" r="3" fill="#3498db" stroke="none" opacity="0.8"/>
<circle cx="440.0" cy="226.3" r="3" fill="#3498db" stroke="none" opacity="0.8"/>
<circle cx="440.0" cy="226.3" r="3" fill="#3498db" stroke="none" opacity="0.8"/>
<circle cx="440.0" cy="225.8" r="3" fill="#3498db" stroke="none" opacity="0.8"/>
<circle cx="440.0" cy="225.4" r="3" fill="#3498db" stroke="none" opacity="0.8"/>
<circle cx="440.0" cy="225.2" r="3" fill="#3498db" stroke="none" opacity="0.8"/>
<circle cx="440.0" cy="225.1" r="3" fill="#3498db" stroke="none" opacity="0.8"/>
<circle cx="440.0" cy="225.0" r="3" fill="#3498db" stroke="none" opacity="0.8"/>
<circle cx="440.0" cy="224.9" r="3" fill="#3498db" stroke="none" opacity="0.8"/>
<circle cx="440.0" cy="224.7" r="3" fill="#3498db" stroke="none" opacity="0.8"/>
<circle cx="440.0" cy="224.6" r="3" fill="#3498db" stroke="none" opacity="0.8"/>
<circle cx="440.0" cy="224.6" r="3" fill="#3498db" stroke="none" opacity="0.8"/>
<circle cx="440.0" cy="224.5" r="3" fill="#3498db" stroke="none" opacity="0.8"/>
<circle cx="440.0" cy="224.5" r="3" fill="#3498db" stroke="none" opacity="0.8"/>
<circle cx="440.0" cy="224.4" r="3" fill="#3498db" stroke="none" opacity="0.8"/>
<circle cx="440.0" cy="224.4" r="3" fill="#3498db" stroke="none" opacity="0.8"/>
<circle cx="440.0" cy="224.4" r="3" fill="#3498db" stroke="none" opacity="0.8"/>
<circle cx="440.0" cy="224.3" r="3" fill="#3498db" stroke="none" opacity="0.8"/>
<circle cx="440.0" cy="223.9" r="3" fill="#3498db" stroke="none" opacity="0.8"/>
<circle cx="440.0" cy="223.7" r="3" fill="#3498db" stroke="none" opacity="0.8"/>
<circle cx="440.0" cy="223.3" r="3" fill="#3498db" stroke="none" opacity="0.8"/>
<circle cx="440.0" cy="222.9" r="3" fill="#3498db" stroke="none" opacity="0.8"/>
<circle cx="440.0" cy="222.8" r="3" fill="#3498db" stroke="none" opacity="0.8"/>
<circle cx="440.0" cy="222.8" r="3" fill="#3498db" stroke="none" opacity="0.8"/>
<circle cx="440.0" cy="222.4" r="3" fill="#3498db" stroke="none" opacity="0.8"/>
<circle cx="440.0" cy="222.1" r="3" fill="#3498db" stroke="none" opacity="0.8"/>
<circle cx="440.0" cy="222.0" r="3" fill="#3498db" stroke="none" opacity="0.8"/>
<circle cx="440.0" cy="221.6" r="3" fill="#3498db" stroke="none" opacity="0.8"/>
<circle cx="440.0" cy="221.4" r="3" fill="#3498db" stroke="none" opacity="0.8"/>
<circle cx="440.0" cy="221.4" r="3" fill="#3498db" stroke="none" opacity="0.8"/>
<circle cx="440.0" cy="221.1" r="3" fill="#3498db" stroke="none" opacity="0.8"/>
<circle cx="440.0" cy="220.8" r="3" fill="#3498db" stroke="none" opacity="0.8"/>
<circle cx="440.0" cy="220.0" r="3" fill="#3498db" stroke="none" opacity="0.8"/>
<circle cx="440.0" cy="219.9" r="3" fill="#3498db" stroke="none" opacity="0.8"/>
<circle cx="440.0" cy="219.1" r="3" fill="#3498db" stroke="none" opacity="0.8"/>
<circle cx="440.0" cy="218.1" r="3" fill="#3498db" stroke="none" opacity="0.8"/>
<circle cx="440.0" cy="206.3" r="3" fill="#3498db" stroke="none" opacity="0.8"/>
<circle cx="440.0" cy="204.4" r="3" fill="#3498db" stroke="none" opacity="0.8"/>
<circle cx="440.0" cy="204.0" r="3" fill="#3498db" stroke="none" opacity="0.8"/>
<circle cx="440.0" cy="131.0" r="3" fill="#3498db" stroke="none" opacity="0.8"/>
<circle cx="440.0" cy="130.0" r="3" fill="#3498db" stroke="none" opacity="0.8"/>
<circle cx="440.0" cy="128.4" r="3" fill="#3498db" stroke="none" opacity="0.8"/>
<circle cx="440.0" cy="127.9" r="3" fill="#3498db" stroke="none" opacity="0.8"/>
<circle cx="440.0" cy="127.8" r="3" fill="#3498db" stroke="none" opacity="0.8"/>
<circle cx="440.0" cy="127.7" r="3" fill="#3498db" stroke="none" opacity="0.8"/>
<circle cx="440.0" cy="127.6" r="3" fill="#3498db" stroke="none" opacity="0.8"/>
<circle cx="440.0" cy="126.5" r="3" fill="#3498db" stroke="none" opacity="0.8"/>
<circle cx="440.0" cy="126.2" r="3" fill="#3498db" stroke="none" opacity="0.8"/>
<circle cx="440.0" cy="126.0" r="3" fill="#3498db" stroke="none" opacity="0.8"/>
<circle cx="440.0" cy="125.6" r="3" fill="#3498db" stroke="none" opacity="0.8"/>
<circle cx="440.0" cy="124.7" r="3" fill="#3498db" stroke="none" opacity="0.8"/>
<circle cx="440.0" cy="124.6" r="3" fill="#3498db" stroke="none" opacity="0.8"/>
<circle cx="440.0" cy="123.6" r="3" fill="#3498db" stroke="none" opacity="0.8"/>
<circle cx="440.0" cy="123.4" r="3" fill="#3498db" stroke="none" opacity="0.8"/>
<circle cx="440.0" cy="123.1" r="3" fill="#3498db" stroke="none" opacity="0.8"/>
<circle cx="440.0" cy="122.8" r="3" fill="#3498db" stroke="none" opacity="0.8"/>
<circle cx="440.0" cy="122.8" r="3" fill="#3498db" stroke="none" opacity="0.8"/>
<circle cx="440.0" cy="122.8" r="3" fill="#3498db" stroke="none" opacity="0.8"/>
<circle cx="440.0" cy="122.6" r="3" fill="#3498db" stroke="none" opacity="0.8"/>
<circle cx="440.0" cy="122.4" r="3" fill="#3498db" stroke="none" opacity="0.8"/>
<circle cx="440.0" cy="122.2" r="3" fill="#3498db" stroke="none" opacity="0.8"/>
<circle cx="440.0" cy="122.1" r="3" fill="#3498db" stroke="none" opacity="0.8"/>
<circle cx="440.0" cy="122.0" r="3" fill="#3498db" stroke="none" opacity="0.8"/>
<circle cx="440.0" cy="122.0" r="3" fill="#3498db" stroke="none" opacity="0.8"/>
<circle cx="440.0" cy="121.7" r="3" fill="#3498db" stroke="none" opacity="0.8"/>
<circle cx="440.0" cy="121.7" r="3" fill="#3498db" stroke="none" opacity="0.8"/>
<circle cx="440.0" cy="121.7" r="3" fill="#3498db" stroke="none" opacity="0.8"/>
<circle cx="440.0" cy="121.5" r="3" fill="#3498db" stroke="none" opacity="0.8"/>
<circle cx="440.0" cy="121.4" r="3" fill="#3498db" stroke="none" opacity="0.8"/>
<circle cx="440.0" cy="121.2" r="3" fill="#3498db" stroke="none" opacity="0.8"/>
<circle cx="440.0" cy="121.1" r="3" fill="#3498db" stroke="none" opacity="0.8"/>
<circle cx="440.0" cy="121.1" r="3" fill="#3498db" stroke="none" opacity="0.8"/>
<circle cx="440.0" cy="120.8" r="3" fill="#3498db" stroke="none" opacity="0.8"/>
<circle cx="440.0" cy="120.7" r="3" fill="#3498db" stroke="none" opacity="0.8"/>
<circle cx="440.0" cy="120.5" r="3" fill="#3498db" stroke="none" opacity="0.8"/>
<circle cx="440.0" cy="120.3" r="3" fill="#3498db" stroke="none" opacity="0.8"/>
<circle cx="440.0" cy="120.2" r="3" fill="#3498db" stroke="none" opacity="0.8"/>
<circle cx="440.0" cy="120.2" r="3" fill="#3498db" stroke="none" opacity="0.8"/>
<circle cx="440.0" cy="119.9" r="3" fill="#3498db" stroke="none" opacity="0.8"/>
<circle cx="440.0" cy="119.8" r="3" fill="#3498db" stroke="none" opacity="0.8"/>
<circle cx="440.0" cy="119.7" r="3" fill="#3498db" stroke="none" opacity="0.8"/>
<circle cx="440.0" cy="119.5" r="3" fill="#3498db" stroke="none" opacity="0.8"/>
<circle cx="440.0" cy="119.4" r="3" fill="#3498db" stroke="none" opacity="0.8"/>
<circle cx="440.0" cy="119.4" r="3" fill="#3498db" stroke="none" opacity="0.8"/>
<circle cx="440.0" cy="119.4" r="3" fill="#3498db" stroke="none" opacity="0.8"/>
<circle cx="440.0" cy="119.3" r="3" fill="#3498db" stroke="none" opacity="0.8"/>
<circle cx="440.0" cy="119.0" r="3" fill="#3498db" stroke="none" opacity="0.8"/>
<circle cx="440.0" cy="118.9" r="3" fill="#3498db" stroke="none" opacity="0.8"/>
<circle cx="440.0" cy="118.7" r="3" fill="#3498db" stroke="none" opacity="0.8"/>
<circle cx="440.0" cy="118.7" r="3" fill="#3498db" stroke="none" opacity="0.8"/>
<circle cx="440.0" cy="118.7" r="3" fill="#3498db" stroke="none" opacity="0.8"/>
<circle cx="440.0" cy="118.6" r="3" fill="#3498db" stroke="none" opacity="0.8"/>
<circle cx="440.0" cy="118.5" r="3" fill="#3498db" stroke="none" opacity="0.8"/>
<circle cx="440.0" cy="118.4" r="3" fill="#3498db" stroke="none" opacity="0.8"/>
<circle cx="440.0" cy="118.2" r="3" fill="#3498db" stroke="none" opacity="0.8"/>
<circle cx="440.0" cy="118.1" r="3" fill="#3498db" stroke="none" opacity="0.8"/>
<circle cx="440.0" cy="118.0" r="3" fill="#3498db" stroke="none" opacity="0.8"/>
<circle cx="440.0" cy="117.8" r="3" fill="#3498db" stroke="none" opacity="0.8"/>
<circle cx="440.0" cy="117.6" r="3" fill="#3498db" stroke="none" opacity="0.8"/>
<circle cx="440.0" cy="117.4" r="3" fill="#3498db" stroke="none" opacity="0.8"/>
<circle cx="440.0" cy="117.3" r="3" fill="#3498db" stroke="none" opacity="0.8"/>
<circle cx="440.0" cy="117.3" r="3" fill="#3498db" stroke="none" opacity="0.8"/>
<circle cx="440.0" cy="117.3" r="3" fill="#3498db" stroke="none" opacity="0.8"/>
<circle cx="440.0" cy="117.3" r="3" fill="#3498db" stroke="none" opacity="0.8"/>
<circle cx="440.0" cy="117.2" r="3" fill="#3498db" stroke="none" opacity="0.8"/>
<circle cx="440.0" cy="117.2" r="3" fill="#3498db" stroke="none" opacity="0.8"/>
<circle cx="440.0" cy="116.9" r="3" fill="#3498db" stroke="none" opacity="0.8"/>
<circle cx="440.0" cy="116.7" r="3" fill="#3498db" stroke="none" opacity="0.8"/>
<circle cx="440.0" cy="116.7" r="3" fill="#3498db" stroke="none" opacity="0.8"/>
<circle cx="440.0" cy="116.6" r="3" fill="#3498db" stroke="none" opacity="0.8"/>
<circle cx="440.0" cy="116.6" r="3" fill="#3498db" stroke="none" opacity="0.8"/>
<circle cx="440.0" cy="116.3" r="3" fill="#3498db" stroke="none" opacity="0.8"/>
<circle cx="440.0" cy="116.2" r="3" fill="#3498db" stroke="none" opacity="0.8"/>
<circle cx="440.0" cy="116.0" r="3" fill="#3498db" stroke="none" opacity="0.8"/>
<circle cx="440.0" cy="115.8" r="3" fill="#3498db" stroke="none" opacity="0.8"/>
<circle cx="440.0" cy="115.7" r="3" fill="#3498db" stroke="none" opacity="0.8"/>
<circle cx="440.0" cy="115.5" r="3" fill="#3498db" stroke="none" opacity="0.8"/>
<circle cx="440.0" cy="115.4" r="3" fill="#3498db" stroke="none" opacity="0.8"/>
<circle cx="440.0" cy="115.4" r="3" fill="#3498db" stroke="none" opacity="0.8"/>
<circle cx="440.0" cy="115.2" r="3" fill="#3498db" stroke="none" opacity="0.8"/>
<circle cx="440.0" cy="115.1" r="3" fill="#3498db" stroke="none" opacity="0.8"/>
<circle cx="440.0" cy="114.9" r="3" fill="#3498db" stroke="none" opacity="0.8"/>
<circle cx="440.0" cy="114.8" r="3" fill="#3498db" stroke="none" opacity="0.8"/>
<circle cx="440.0" cy="114.8" r="3" fill="#3498db" stroke="none" opacity="0.8"/>
<circle cx="440.0" cy="114.7" r="3" fill="#3498db" stroke="none" opacity="0.8"/>
<circle cx="440.0" cy="114.1" r="3" fill="#3498db" stroke="none" opacity="0.8"/>
<circle cx="440.0" cy="114.0" r="3" fill="#3498db" stroke="none" opacity="0.8"/>
<circle cx="440.0" cy="114.0" r="3" fill="#3498db" stroke="none" opacity="0.8"/>
<circle cx="440.0" cy="113.8" r="3" fill="#3498db" stroke="none" opacity="0.8"/>
<circle cx="440.0" cy="113.7" r="3" fill="#3498db" stroke="none" opacity="0.8"/>
<circle cx="440.0" cy="113.7" r="3" fill="#3498db" stroke="none" opacity="0.8"/>
<circle cx="440.0" cy="113.5" r="3" fill="#3498db" stroke="none" opacity="0.8"/>
<circle cx="440.0" cy="113.3" r="3" fill="#3498db" stroke="none" opacity="0.8"/>
<circle cx="440.0" cy="113.2" r="3" fill="#3498db" stroke="none" opacity="0.8"/>
<circle cx="440.0" cy="113.1" r="3" fill="#3498db" stroke="none" opacity="0.8"/>
<circle cx="440.0" cy="113.0" r="3" fill="#3498db" stroke="none" opacity="0.8"/>
<circle cx="440.0" cy="113.0" r="3" fill="#3498db" stroke="none" opacity="0.8"/>
<circle cx="440.0" cy="112.9" r="3" fill="#3498db" stroke="none" opacity="0.8"/>
<circle cx="440.0" cy="112.8" r="3" fill="#3498db" stroke="none" opacity="0.8"/>
<circle cx="440.0" cy="112.7" r="3" fill="#3498db" stroke="none" opacity="0.8"/>
<circle cx="440.0" cy="112.5" r="3" fill="#3498db" stroke="none" opacity="0.8"/>
<circle cx="440.0" cy="112.3" r="3" fill="#3498db" stroke="none" opacity="0.8"/>
<circle cx="440.0" cy="112.3" r="3" fill="#3498db" stroke="none" opacity="0.8"/>
<circle cx="440.0" cy="112.0" r="3" fill="#3498db" stroke="none" opacity="0.8"/>
<circle cx="440.0" cy="111.8" r="3" fill="#3498db" stroke="none" opacity="0.8"/>
<circle cx="440.0" cy="111.6" r="3" fill="#3498db" stroke="none" opacity="0.8"/>
<circle cx="440.0" cy="111.1" r="3" fill="#3498db" stroke="none" opacity="0.8"/>
<circle cx="440.0" cy="110.8" r="3" fill="#3498db" stroke="none" opacity="0.8"/>
<circle cx="440.0" cy="110.8" r="3" fill="#3498db" stroke="none" opacity="0.8"/>
<circle cx="440.0" cy="110.6" r="3" fill="#3498db" stroke="none" opacity="0.8"/>
<circle cx="440.0" cy="110.4" r="3" fill="#3498db" stroke="none" opacity="0.8"/>
<circle cx="440.0" cy="110.3" r="3" fill="#3498db" stroke="none" opacity="0.8"/>
<circle cx="440.0" cy="110.2" r="3" fill="#3498db" stroke="none" opacity="0.8"/>
<circle cx="440.0" cy="110.1" r="3" fill="#3498db" stroke="none" opacity="0.8"/>
<circle cx="440.0" cy="110.0" r="3" fill="#3498db" stroke="none" opacity="0.8"/>
<circle cx="440.0" cy="109.9" r="3" fill="#3498db" stroke="none" opacity="0.8"/>
<circle cx="440.0" cy="109.5" r="3" fill="#3498db" stroke="none" opacity="0.8"/>
<circle cx="440.0" cy="109.2" r="3" fill="#3498db" stroke="none" opacity="0.8"/>
<circle cx="440.0" cy="108.4" r="3" fill="#3498db" stroke="none" opacity="0.8"/>
<circle cx="440.0" cy="108.3" r="3" fill="#3498db" stroke="none" opacity="0.8"/>
<circle cx="440.0" cy="108.3" r="3" fill="#3498db" stroke="none" opacity="0.8"/>
<circle cx="440.0" cy="108.3" r="3" fill="#3498db" stroke="none" opacity="0.8"/>
<circle cx="440.0" cy="107.9" r="3" fill="#3498db" stroke="none" opacity="0.8"/>
<circle cx="440.0" cy="107.8" r="3" fill="#3498db" stroke="none" opacity="0.8"/>
<circle cx="440.0" cy="107.8" r="3" fill="#3498db" stroke="none" opacity="0.8"/>
<circle cx="440.0" cy="107.7" r="3" fill="#3498db" stroke="none" opacity="0.8"/>
<circle cx="440.0" cy="107.0" r="3" fill="#3498db" stroke="none" opacity="0.8"/>
<circle cx="440.0" cy="106.9" r="3" fill="#3498db" stroke="none" opacity="0.8"/>
<circle cx="440.0" cy="106.8" r="3" fill="#3498db" stroke="none" opacity="0.8"/>
<circle cx="440.0" cy="106.4" r="3" fill="#3498db" stroke="none" opacity="0.8"/>
<circle cx="440.0" cy="106.4" r="3" fill="#3498db" stroke="none" opacity="0.8"/>
<circle cx="440.0" cy="105.8" r="3" fill="#3498db" stroke="none" opacity="0.8"/>
<circle cx="440.0" cy="105.8" r="3" fill="#3498db" stroke="none" opacity="0.8"/>
<circle cx="440.0" cy="105.3" r="3" fill="#3498db" stroke="none" opacity="0.8"/>
<circle cx="440.0" cy="105.2" r="3" fill="#3498db" stroke="none" opacity="0.8"/>
<circle cx="440.0" cy="105.0" r="3" fill="#3498db" stroke="none" opacity="0.8"/>
<circle cx="440.0" cy="105.0" r="3" fill="#3498db" stroke="none" opacity="0.8"/>
<circle cx="440.0" cy="104.3" r="3" fill="#3498db" stroke="none" opacity="0.8"/>
<circle cx="440.0" cy="103.3" r="3" fill="#3498db" stroke="none" opacity="0.8"/>
<circle cx="440.0" cy="103.3" r="3" fill="#3498db" stroke="none" opacity="0.8"/>
<circle cx="440.0" cy="102.9" r="3" fill="#3498db" stroke="none" opacity="0.8"/>
<circle cx="440.0" cy="102.7" r="3" fill="#3498db" stroke="none" opacity="0.8"/>
<circle cx="440.0" cy="102.5" r="3" fill="#3498db" stroke="none" opacity="0.8"/>
<circle cx="440.0" cy="102.2" r="3" fill="#3498db" stroke="none" opacity="0.8"/>
<circle cx="440.0" cy="102.0" r="3" fill="#3498db" stroke="none" opacity="0.8"/>
<circle cx="440.0" cy="101.9" r="3" fill="#3498db" stroke="none" opacity="0.8"/>
<circle cx="440.0" cy="100.8" r="3" fill="#3498db" stroke="none" opacity="0.8"/>
<circle cx="440.0" cy="100.3" r="3" fill="#3498db" stroke="none" opacity="0.8"/>
<circle cx="440.0" cy="100.0" r="3" fill="#3498db" stroke="none" opacity="0.8"/>
<circle cx="440.0" cy="99.6" r="3" fill="#3498db" stroke="none" opacity="0.8"/>
<circle cx="440.0" cy="98.5" r="3" fill="#3498db" stroke="none" opacity="0.8"/>
<circle cx="440.0" cy="98.4" r="3" fill="#3498db" stroke="none" opacity="0.8"/>
<circle cx="440.0" cy="98.0" r="3" fill="#3498db" stroke="none" opacity="0.8"/>
<circle cx="440.0" cy="97.8" r="3" fill="#3498db" stroke="none" opacity="0.8"/>
<circle cx="440.0" cy="95.5" r="3" fill="#3498db" stroke="none" opacity="0.8"/>
<circle cx="440.0" cy="90.4" r="3" fill="#3498db" stroke="none" opacity="0.8"/>
<circle cx="440.0" cy="88.4" r="3" fill="#3498db" stroke="none" opacity="0.8"/>
<circle cx="440.0" cy="87.3" r="3" fill="#3498db" stroke="none" opacity="0.8"/>
<text x="440.0" y="408.0" font-size="11" font-weight="normal" text-anchor="middle" fill="#333" font-family="Arial,sans-serif">Flow1</text>
<rect x="815.0" y="55.0" width="10.0" height="10.0" fill="#3498db" stroke="none" stroke-width="1" opacity="0.7" rx="2"/>
<text x="828.0" y="64.0" font-size="9" font-weight="normal" text-anchor="start" fill="#333" font-family="Arial,sans-serif">Flow1</text>
<g class="spec-el">
<line x1="70.0" y1="125.1" x2="810.0" y2="125.1" stroke="#ff6d00" stroke-width="4"/>
<text x="813.0" y="129.1" font-size="9" font-weight="normal" text-anchor="start" fill="#ff6d00" font-family="Arial,sans-serif">Max:281</text>
</g>
</svg>