<svg xmlns="http://www.w3.org/2000/svg" width="600" height="430" viewBox="0 0 600 430">
<rect width="600" height="430" fill="#ffffff"/>
<text x="300.0" y="28.0" font-size="16" font-weight="bold" text-anchor="middle" fill="#2c3e50" font-family="Arial,sans-serif">GPIO_0_R_High - Measured vs Spec (Ohm)</text>
<line x1="70.0" y1="370.0" x2="510.0" y2="370.0" stroke="#999" stroke-width="1"/>
<line x1="70.0" y1="55.0" x2="70.0" y2="370.0" stroke="#999" stroke-width="1"/>
<line x1="65.0" y1="370.0" x2="70.0" y2="370.0" stroke="#999" stroke-width="1"/>
<line x1="70.0" y1="370.0" x2="510.0" y2="370.0" stroke="#e0e0e0" stroke-width="0.8" stroke-dasharray="3,3"/>
<text x="62.0" y="374.0" font-size="9" font-weight="normal" text-anchor="end" fill="#7f8c8d" font-family="Arial,sans-serif">-12.3</text>
<line x1="65.0" y1="307.0" x2="70.0" y2="307.0" stroke="#999" stroke-width="1"/>
<line x1="70.0" y1="307.0" x2="510.0" y2="307.0" stroke="#e0e0e0" stroke-width="0.8" stroke-dasharray="3,3"/>
<text x="62.0" y="311.0" font-size="9" font-weight="normal" text-anchor="end" fill="#7f8c8d" font-family="Arial,sans-serif">62.9</text>
<line x1="65.0" y1="244.0" x2="70.0" y2="244.0" stroke="#999" stroke-width="1"/>
<line x1="70.0" y1="244.0" x2="510.0" y2="244.0" stroke="#e0e0e0" stroke-width="0.8" stroke-dasharray="3,3"/>
<text x="62.0" y="248.0" font-size="9" font-weight="normal" text-anchor="end" fill="#7f8c8d" font-family="Arial,sans-serif">138</text>
<line x1="65.0" y1="181.0" x2="70.0" y2="181.0" stroke="#999" stroke-width="1"/>
<line x1="70.0" y1="181.0" x2="510.0" y2="181.0" stroke="#e0e0e0" stroke-width="0.8" stroke-dasharray="3,3"/>
<text x="62.0" y="185.0" font-size="9" font-weight="normal" text-anchor="end" fill="#7f8c8d" font-family="Arial,sans-serif">213</text>
<line x1="65.0" y1="118.0" x2="70.0" y2="118.0" stroke="#999" stroke-width="1"/>
<line x1="70.0" y1="118.0" x2="510.0" y2="118.0" stroke="#e0e0e0" stroke-width="0.8" stroke-dasharray="3,3"/>
<text x="62.0" y="122.0" font-size="9" font-weight="normal" text-anchor="end" fill="#7f8c8d" font-family="Arial,sans-serif">289</text>
<line x1="65.0" y1="55.0" x2="70.0" y2="55.0" stroke="#999" stroke-width="1"/>
<line x1="70.0" y1="55.0" x2="510.0" y2="55.0" stroke="#e0e0e0" stroke-width="0.8" stroke-dasharray="3,3"/>
<text x="62.0" y="59.0" font-size="9" font-weight="normal" text-anchor="end" fill="#7f8c8d" font-family="Arial,sans-serif">364</text>
<text x="14.0" y="215.0" font-size="11" font-weight="normal" text-anchor="middle" fill="#7f8c8d" font-family="Arial,sans-serif" transform="rotate(-90,14,215.0)">Value (Ohm)</text>
<rect x="255.0" y="295.0" width="70.0" height="38.0" fill="#3498db" stroke="#3498db" stroke-width="1.5" opacity="0.25" rx="2"/>
<line x1="255.0" y1="322.6" x2="325.0" y2="322.6" stroke="#3498db" stroke-width="2.5"/>
<line x1="290.0" y1="333.0" x2="290.0" y2="339.5" stroke="#3498db" stroke-width="1"/>
<line x1="290.0" y1="295.0" x2="290.0" y2="238.1" stroke="#3498db" stroke-width="1"/>
<line x1="272.5" y1="339.5" x2="307.5" y2="339.5" stroke="#3498db" stroke-width="1"/>
<line x1="272.5" y1="238.1" x2="307.5" y2="238.1" stroke="#3498db" stroke-width="1"/>
<circle cx="290.0" cy="237.6" r="3" fill="#3498db" stroke="none" opacity="0.8"/>
<circle cx="290.0" cy="237.5" r="3" fill="#3498db" stroke="none" opacity="0.8"/>
<circle cx="290.0" cy="237.5" r="3" fill="#3498db" stroke="none" opacity="0.8"/>
<circle cx="290.0" cy="237.5" r="3" fill="#3498db" stroke="none" opacity="0.8"/>
<circle cx="290.0" cy="237.5" r="3" fill="#3498db" stroke="none" opacity="0.8"/>
<circle cx="290.0" cy="237.1" r="3" fill="#3498db" stroke="none" opacity="0.8"/>
<circle cx="290.0" cy="236.8" r="3" fill="#3498db" stroke="none" opacity="0.8"/>
<circle cx="290.0" cy="236.7" r="3" fill="#3498db" stroke="none" opacity="0.8"/>
<circle cx="290.0" cy="236.7" r="3" fill="#3498db" stroke="none" opacity="0.8"/>
<circle cx="290.0" cy="236.6" r="3" fill="#3498db" stroke="none" opacity="0.8"/>
<circle cx="290.0" cy="236.6" r="3" fill="#3498db" stroke="none" opacity="0.8"/>
<circle cx="290.0" cy="236.5" r="3" fill="#3498db" stroke="none" opacity="0.8"/>
<circle cx="290.0" cy="236.5" r="3" fill="#3498db" stroke="none" opacity="0.8"/>
<circle cx="290.0" cy="236.5" r="3" fill="#3498db" stroke="none" opacity="0.8"/>
<circle cx="290.0" cy="236.4" r="3" fill="#3498db" stroke="none" opacity="0.8"/>
<circle cx="290.0" cy="236.3" r="3" fill="#3498db" stroke="none" opacity="0.8"/>
<circle cx="290.0" cy="236.1" r="3" fill="#3498db" stroke="none" opacity="0.8"/>
<circle cx="290.0" cy="236.0" r="3" fill="#3498db" stroke="none" opacity="0.8"/>
<circle cx="290.0" cy="235.8" r="3" fill="#3498db" stroke="none" opacity="0.8"/>
<circle cx="290.0" cy="235.7" r="3" fill="#3498db" stroke="none" opacity="0.8"/>
<circle cx="290.0" cy="235.6" r="3" fill="#3498db" stroke="none" opacity="0.8"/>
<circle cx="290.0" cy="235.5" r="3" fill="#3498db" stroke="none" opacity="0.8"/>
<circle cx="290.0" cy="235.5" r="3" fill="#3498db" stroke="none" opacity="0.8"/>
<circle cx="290.0" cy="235.5" r="3" fill="#3498db" stroke="none" opacity="0.8"/>
<circle cx="290.0" cy="235.3" r="3" fill="#3498db" stroke="none" opacity="0.8"/>
<circle cx="290.0" cy="235.2" r="3" fill="#3498db" stroke="none" opacity="0.8"/>
<circle cx="290.0" cy="235.2" r="3" fill="#3498db" stroke="none" opacity="0.8"/>
<circle cx="290.0" cy="235.1" r="3" fill="#3498db" stroke="none" opacity="0.8"/>
<circle cx="290.0" cy="235.1" r="3" fill="#3498db" stroke="none" opacity="0.8"/>
<circle cx="290.0" cy="235.0" r="3" fill="#3498db" stroke="none" opacity="0.8"/>
<circle cx="290.0" cy="234.9" r="3" fill="#3498db" stroke="none" opacity="0.8"/>
<circle cx="290.0" cy="234.8" r="3" fill="#3498db" stroke="none" opacity="0.8"/>
<circle cx="290.0" cy="234.8" r="3" fill="#3498db" stroke="none" opacity="0.8"/>
<circle cx="290.0" cy="234.7" r="3" fill="#3498db" stroke="none" opacity="0.8"/>
<circle cx="290.0" cy="234.7" r="3" fill="#3498db" stroke="none" opacity="0.8"/>
<circle cx="290.0" cy="234.6" r="3" fill="#3498db" stroke="none" opacity="0.8"/>
<circle cx="290.0" cy="234.6" r="3" fill="#3498db" stroke="none" opacity="0.8"/>
<circle cx="290.0" cy="234.5" r="3" fill="#3498db" stroke="none" opacity="0.8"/>
<circle cx="290.0" cy="234.5" r="3" fill="#3498db" stroke="none" opacity="0.8"/>
<circle cx="290.0" cy="234.4" r="3" fill="#3498db" stroke="none" opacity="0.8"/>
<circle cx="290.0" cy="234.4" r="3" fill="#3498db" stroke="none" opacity="0.8"/>
<circle cx="290.0" cy="234.3" r="3" fill="#3498db" stroke="none" opacity="0.8"/>
<circle cx="290.0" cy="234.2" r="3" fill="#3498db" stroke="none" opacity="0.8"/>
<circle cx="290.0" cy="234.1" r="3" fill="#3498db" stroke="none" opacity="0.8"/>
<circle cx="290.0" cy="233.9" r="3" fill="#3498db" stroke="none" opacity="0.8"/>
<circle cx="290.0" cy="233.9" r="3" fill="#3498db" stroke="none" opacity="0.8"/>
<circle cx="290.0" cy="233.8" r="3" fill="#3498db" stroke="none" opacity="0.8"/>
<circle cx="290.0" cy="233.8" r="3" fill="#3498db" stroke="none" opacity="0.8"/>
<circle cx="290.0" cy="233.8" r="3" fill="#3498db" stroke="none" opacity="0.8"/>
<circle cx="290.0" cy="233.4" r="3" fill="#3498db" stroke="none" opacity="0.8"/>
<circle cx="290.0" cy="233.4" r="3" fill="#3498db" stroke="none" opacity="0.8"/>
<circle cx="290.0" cy="233.3" r="3" fill="#3498db" stroke="none" opacity="0.8"/>
<circle cx="290.0" cy="233.1" r="3" fill="#3498db" stroke="none" opacity="0.8"/>
<circle cx="290.0" cy="233.1" r="3" fill="#3498db" stroke="none" opacity="0.8"/>
<circle cx="290.0" cy="232.9" r="3" fill="#3498db" stroke="none" opacity="0.8"/>
<circle cx="290.0" cy="232.8" r="3" fill="#3498db" stroke="none" opacity="0.8"/>
<circle cx="290.0" cy="232.8" r="3" fill="#3498db" stroke="none" opacity="0.8"/>
<circle cx="290.0" cy="232.7" r="3" fill="#3498db" stroke="none" opacity="0.8"/>
<circle cx="290.0" cy="232.7" r="3" fill="#3498db" stroke="none" opacity="0.8"/>
<circle cx="290.0" cy="232.6" r="3" fill="#3498db" stroke="none" opacity="0.8"/>
<circle cx="290.0" cy="232.5" r="3" fill="#3498db" stroke="none" opacity="0.8"/>
<circle cx="290.0" cy="232.4" r="3" fill="#3498db" stroke="none" opacity="0.8"/>
<circle cx="290.0" cy="232.3" r="3" fill="#3498db" stroke="none" opacity="0.8"/>
<circle cx="290.0" cy="232.2" r="3" fill="#3498db" stroke="none" opacity="0.8"/>
<circle cx="290.0" cy="232.1" r="3" fill="#3498db" stroke="none" opacity="0.8"/>
<circle cx="290.0" cy="232.1" r="3" fill="#3498db" stroke="none" opacity="0.8"/>
<circle cx="290.0" cy="232.0" r="3" fill="#3498db" stroke="none" opacity="0.8"/>
<circle cx="290.0" cy="232.0" r="3" fill="#3498db" stroke="none" opacity="0.8"/>
<circle cx="290.0" cy="231.9" r="3" fill="#3498db" stroke="none" opacity="0.8"/>
<circle cx="290.0" cy="231.9" r="3" fill="#3498db" stroke="none" opacity="0.8"/>
<circle cx="290.0" cy="231.8" r="3" fill="#3498db" stroke="none" opacity="0.8"/>
<circle cx="290.0" cy="231.7" r="3" fill="#3498db" stroke="none" opacity="0.8"/>
<circle cx="290.0" cy="231.7" r="3" fill="#3498db" stroke="none" opacity="0.8"/>
<circle cx="290.0" cy="231.7" r="3" fill="#3498db" stroke="none" opacity="0.8"/>
<circle cx="290.0" cy="231.6" r="3" fill="#3498db" stroke="none" opacity="0.8"/>
<circle cx="290.0" cy="231.6" r="3" fill="#3498db" stroke="none" opacity="0.8"/>
<circle cx="290.0" cy="231.5" r="3" fill="#3498db" stroke="none" opacity="0.8"/>
<circle cx="290.0" cy="231.5" r="3" fill="#3498db" stroke="none" opacity="0.8"/>
<circle cx="290.0" cy="231.4" r="3" fill="#3498db" stroke="none" opacity="0.8"/>
<circle cx="290.0" cy="231.4" r="3" fill="#3498db" stroke="none" opacity="0.8"/>
<circle cx="290.0" cy="231.3" r="3" fill="#3498db" stroke="none" opacity="0.8"/>
<circle cx="290.0" cy="231.3" r="3" fill="#3498db" stroke="none" opacity="0.8"/>
<circle cx="290.0" cy="231.2" r="3" fill="#3498db" stroke="none" opacity="0.8"/>
<circle cx="290.0" cy="231.0" r="3" fill="#3498db" stroke="none" opacity="0.8"/>
<circle cx="290.0" cy="230.9" r="3" fill="#3498db" stroke="none" opacity="0.8"/>
<circle cx="290.0" cy="230.7" r="3" fill="#3498db" stroke="none" opacity="0.8"/>
<circle cx="290.0" cy="230.7" r="3" fill="#3498db" stroke="none" opacity="0.8"/>
<circle cx="290.0" cy="230.0" r="3" fill="#3498db" stroke="none" opacity="0.8"/>
<circle cx="290.0" cy="229.9" r="3" fill="#3498db" stroke="none" opacity="0.8"/>
<circle cx="290.0" cy="229.9" r="3" fill="#3498db" stroke="none" opacity="0.8"/>
<circle cx="290.0" cy="229.9" r="3" fill="#3498db" stroke="none" opacity="0.8"/>
<circle cx="290.0" cy="229.8" r="3" fill="#3498db" stroke="none" opacity="0.8"/>
<circle cx="290.0" cy="229.7" r="3" fill="#3498db" stroke="none" opacity="0.8"/>
<circle cx="290.0" cy="229.7" r="3" fill="#3498db" stroke="none" opacity="0.8"/>
<circle cx="290.0" cy="229.6" r="3" fill="#3498db" stroke="none" opacity="0.8"/>
<circle cx="290.0" cy="229.6" r="3" fill="#3498db" stroke="none" opacity="0.8"/>
<circle cx="290.0" cy="229.5" r="3" fill="#3498db" stroke="none" opacity="0.8"/>
<circle cx="290.0" cy="229.5" r="3" fill="#3498db" stroke="none" opacity="0.8"/>
<circle cx="290.0" cy="229.4" r="3" fill="#3498db" stroke="none" opacity="0.8"/>
<circle cx="290.0" cy="229.4" r="3" fill="#3498db" stroke="none" opacity="0.8"/>
<circle cx="290.0" cy="229.3" r="3" fill="#3498db" stroke="none" opacity="0.8"/>
<circle cx="290.0" cy="229.2" r="3" fill="#3498db" stroke="none" opacity="0.8"/>
<circle cx="290.0" cy="229.0" r="3" fill="#3498db" stroke="none" opacity="0.8"/>
<circle cx="290.0" cy="229.0" r="3" fill="#3498db" stroke="none" opacity="0.8"/>
<circle cx="290.0" cy="228.9" r="3" fill="#3498db" stroke="none" opacity="0.8"/>
<circle cx="290.0" cy="228.7" r="3" fill="#3498db" stroke="none" opacity="0.8"/>
<circle cx="290.0" cy="228.7" r="3" fill="#3498db" stroke="none" opacity="0.8"/>
<circle cx="290.0" cy="228.5" r="3" fill="#3498db" stroke="none" opacity="0.8"/>
<circle cx="290.0" cy="228.5" r="3" fill="#3498db" stroke="none" opacity="0.8"/>
<circle cx="290.0" cy="228.4" r="3" fill="#3498db" stroke="none" opacity="0.8"/>
<circle cx="290.0" cy="228.4" r="3" fill="#3498db" stroke="none" opacity="0.8"/>
<circle cx="290.0" cy="228.2" r="3" fill="#3498db" stroke="none" opacity="0.8"/>
<circle cx="290.0" cy="228.0" r="3" fill="#3498db" stroke="none" opacity="0.8"/>
<circle cx="290.0" cy="228.0" r="3" fill="#3498db" stroke="none" opacity="0.8"/>
<circle cx="290.0" cy="227.9" r="3" fill="#3498db" stroke="none" opacity="0.8"/>
<circle cx="290.0" cy="227.9" r="3" fill="#3498db" stroke="none" opacity="0.8"/>
<circle cx="290.0" cy="227.3" r="3" fill="#3498db" stroke="none" opacity="0.8"/>
<circle cx="290.0" cy="226.9" r="3" fill="#3498db" stroke="none" opacity="0.8"/>
<circle cx="290.0" cy="226.7" r="3" fill="#3498db" stroke="none" opacity="0.8"/>
<circle cx="290.0" cy="226.6" r="3" fill="#3498db" stroke="none" opacity="0.8"/>
<circle cx="290.0" cy="226.5" r="3" fill="#3498db" stroke="none" opacity="0.8"/>
<circle cx="290.0" cy="226.4" r="3" fill="#3498db" stroke="none" opacity="0.8"/>
<circle cx="290.0" cy="226.3" r="3" fill="#3498db" stroke="none" opacity="0.8"/>
<circle cx="290.0" cy="226.2" r="3" fill="#3498db" stroke="none" opacity="0.8"/>
<circle cx="290.0" cy="226.1" r="3" fill="#3498db" stroke="none" opacity="0.8"/>
<circle cx="290.0" cy="226.0" r="3" fill="#3498db" stroke="none" opacity="0.8"/>
<circle cx="290.0" cy="226.0" r="3" fill="#3498db" stroke="none" opacity="0.8"/>
<circle cx="290.0" cy="226.0" r="3" fill="#3498db" stroke="none" opacity="0.8"/>
<circle cx="290.0" cy="225.9" r="3" fill="#3498db" stroke="none" opacity="0.8"/>
<circle cx="290.0" cy="225.9" r="3" fill="#3498db" stroke="none" opacity="0.8"/>
<circle cx="290.0" cy="225.8" r="3" fill="#3498db" stroke="none" opacity="0.8"/>
<circle cx="290.0" cy="225.4" r="3" fill="#3498db" stroke="none" opacity="0.8"/>
<circle cx="290.0" cy="225.2" r="3" fill="#3498db" stroke="none" opacity="0.8"/>
<circle cx="290.0" cy="224.8" r="3" fill="#3498db" stroke="none" opacity="0.8"/>
<circle cx="290.0" cy="224.4" r="3" fill="#3498db" stroke="none" opacity="0.8"/>
<circle cx="290.0" cy="224.3" r="3" fill="#3498db" stroke="none" opacity="0.8"/>
<circle cx="290.0" cy="224.3" r="3" fill="#3498db" stroke="none" opacity="0.8"/>
<circle cx="290.0" cy="223.9" r="3" fill="#3498db" stroke="none" opacity="0.8"/>
<circle cx="290.0" cy="223.6" r="3" fill="#3498db" stroke="none" opacity="0.8"/>
<circle cx="290.0" cy="223.4" r="3" fill="#3498db" stroke="none" opacity="0.8"/>
<circle cx="290.0" cy="223.1" r="3" fill="#3498db" stroke="none" opacity="0.8"/>
<circle cx="290.0" cy="222.8" r="3" fill="#3498db" stroke="none" opacity="0.8"/>
<circle cx="290.0" cy="222.8" r="3" fill="#3498db" stroke="none" opacity="0.8"/>
<circle cx="290.0" cy="222.5" r="3" fill="#3498db" stroke="none" opacity="0.8"/>
<circle cx="290.0" cy="222.2" r="3" fill="#3498db" stroke="none" opacity="0.8"/>
<circle cx="290.0" cy="221.4" r="3" fill="#3498db" stroke="none" opacity="0.8"/>
<circle cx="290.0" cy="221.3" r="3" fill="#3498db" stroke="none" opacity="0.8"/>
<circle cx="290.0" cy="220.5" r="3" fill="#3498db" stroke="none" opacity="0.8"/>
<circle cx="290.0" cy="219.4" r="3" fill="#3498db" stroke="none" opacity="0.8"/>
<circle cx="290.0" cy="207.3" r="3" fill="#3498db" stroke="none" opacity="0.8"/>
<circle cx="290.0" cy="205.4" r="3" fill="#3498db" stroke="none" opacity="0.8"/>
<circle cx="290.0" cy="205.1" r="3" fill="#3498db" stroke="none" opacity="0.8"/>
<circle cx="290.0" cy="130.2" r="3" fill="#3498db" stroke="none" opacity="0.8"/>
<circle cx="290.0" cy="129.2" r="3" fill="#3498db" stroke="none" opacity="0.8"/>
<circle cx="290.0" cy="127.5" r="3" fill="#3498db" stroke="none" opacity="0.8"/>
<circle cx="290.0" cy="127.0" r="3" fill="#3498db" stroke="none" opacity="0.8"/>
<circle cx="290.0" cy="126.9" r="3" fill="#3498db" stroke="none" opacity="0.8"/>
<circle cx="290.0" cy="126.9" r="3" fill="#3498db" stroke="none" opacity="0.8"/>
<circle cx="290.0" cy="126.7" r="3" fill="#3498db" stroke="none" opacity="0.8"/>
<circle cx="290.0" cy="125.6" r="3" fill="#3498db" stroke="none" opacity="0.8"/>
<circle cx="290.0" cy="125.3" r="3" fill="#3498db" stroke="none" opacity="0.8"/>
<circle cx="290.0" cy="125.1" r="3" fill="#3498db" stroke="none" opacity="0.8"/>
<circle cx="290.0" cy="124.7" r="3" fill="#3498db" stroke="none" opacity="0.8"/>
<circle cx="290.0" cy="123.7" r="3" fill="#3498db" stroke="none" opacity="0.8"/>
<circle cx="290.0" cy="123.6" r="3" fill="#3498db" stroke="none" opacity="0.8"/>
<circle cx="290.0" cy="122.7" r="3" fill="#3498db" stroke="none" opacity="0.8"/>
<circle cx="290.0" cy="122.4" r="3" fill="#3498db" stroke="none" opacity="0.8"/>
<circle cx="290.0" cy="122.1" r="3" fill="#3498db" stroke="none" opacity="0.8"/>
<circle cx="290.0" cy="121.8" r="3" fill="#3498db" stroke="none" opacity="0.8"/>
<circle cx="290.0" cy="121.8" r="3" fill="#3498db" stroke="none" opacity="0.8"/>
<circle cx="290.0" cy="121.8" r="3" fill="#3498db" stroke="none" opacity="0.8"/>
<circle cx="290.0" cy="121.6" r="3" fill="#3498db" stroke="none" opacity="0.8"/>
<circle cx="290.0" cy="121.4" r="3" fill="#3498db" stroke="none" opacity="0.8"/>
<circle cx="290.0" cy="121.3" r="3" fill="#3498db" stroke="none" opacity="0.8"/>
<circle cx="290.0" cy="121.1" r="3" fill="#3498db" stroke="none" opacity="0.8"/>
<circle cx="290.0" cy="121.0" r="3" fill="#3498db" stroke="none" opacity="0.8"/>
<circle cx="290.0" cy="121.0" r="3" fill="#3498db" stroke="none" opacity="0.8"/>
<circle cx="290.0" cy="120.7" r="3" fill="#3498db" stroke="none" opacity="0.8"/>
<circle cx="290.0" cy="120.7" r="3" fill="#3498db" stroke="none" opacity="0.8"/>
<circle cx="290.0" cy="120.7" r="3" fill="#3498db" stroke="none" opacity="0.8"/>
<circle cx="290.0" cy="120.5" r="3" fill="#3498db" stroke="none" opacity="0.8"/>
<circle cx="290.0" cy="120.4" r="3" fill="#3498db" stroke="none" opacity="0.8"/>
<circle cx="290.0" cy="120.2" r="3" fill="#3498db" stroke="none" opacity="0.8"/>
<circle cx="290.0" cy="120.1" r="3" fill="#3498db" stroke="none" opacity="0.8"/>
<circle cx="290.0" cy="120.0" r="3" fill="#3498db" stroke="none" opacity="0.8"/>
<circle cx="290.0" cy="119.8" r="3" fill="#3498db" stroke="none" opacity="0.8"/>
<circle cx="290.0" cy="119.6" r="3" fill="#3498db" stroke="none" opacity="0.8"/>
<circle cx="290.0" cy="119.5" r="3" fill="#3498db" stroke="none" opacity="0.8"/>
<circle cx="290.0" cy="119.2" r="3" fill="#3498db" stroke="none" opacity="0.8"/>
<circle cx="290.0" cy="119.2" r="3" fill="#3498db" stroke="none" opacity="0.8"/>
<circle cx="290.0" cy="119.1" r="3" fill="#3498db" stroke="none" opacity="0.8"/>
<circle cx="290.0" cy="118.9" r="3" fill="#3498db" stroke="none" opacity="0.8"/>
<circle cx="290.0" cy="118.7" r="3" fill="#3498db" stroke="none" opacity="0.8"/>
<circle cx="290.0" cy="118.6" r="3" fill="#3498db" stroke="none" opacity="0.8"/>
<circle cx="290.0" cy="118.5" r="3" fill="#3498db" stroke="none" opacity="0.8"/>
<circle cx="290.0" cy="118.4" r="3" fill="#3498db" stroke="none" opacity="0.8"/>
<circle cx="290.0" cy="118.3" r="3" fill="#3498db" stroke="none" opacity="0.8"/>
<circle cx="290.0" cy="118.3" r="3" fill="#3498db" stroke="none" opacity="0.8"/>
<circle cx="290.0" cy="118.2" r="3" fill="#3498db" stroke="none" opacity="0.8"/>
<circle cx="290.0" cy="117.9" r="3" fill="#3498db" stroke="none" opacity="0.8"/>
<circle cx="290.0" cy="117.9" r="3" fill="#3498db" stroke="none" opacity="0.8"/>
<circle cx="290.0" cy="117.7" r="3" fill="#3498db" stroke="none" opacity="0.8"/>
<circle cx="290.0" cy="117.6" r="3" fill="#3498db" stroke="none" opacity="0.8"/>
<circle cx="290.0" cy="117.6" r="3" fill="#3498db" stroke="none" opacity="0.8"/>
<circle cx="290.0" cy="117.5" r="3" fill="#3498db" stroke="none" opacity="0.8"/>
<circle cx="290.0" cy="117.4" r="3" fill="#3498db" stroke="none" opacity="0.8"/>
<circle cx="290.0" cy="117.3" r="3" fill="#3498db" stroke="none" opacity="0.8"/>
<circle cx="290.0" cy="117.1" r="3" fill="#3498db" stroke="none" opacity="0.8"/>
<circle cx="290.0" cy="117.0" r="3" fill="#3498db" stroke="none" opacity="0.8"/>
<circle cx="290.0" cy="116.9" r="3" fill="#3498db" stroke="none" opacity="0.8"/>
<circle cx="290.0" cy="116.7" r="3" fill="#3498db" stroke="none" opacity="0.8"/>
<circle cx="290.0" cy="116.5" r="3" fill="#3498db" stroke="none" opacity="0.8"/>
<circle cx="290.0" cy="116.3" r="3" fill="#3498db" stroke="none" opacity="0.8"/>
<circle cx="290.0" cy="116.2" r="3" fill="#3498db" stroke="none" opacity="0.8"/>
<circle cx="290.0" cy="116.2" r="3" fill="#3498db" stroke="none" opacity="0.8"/>
<circle cx="290.0" cy="116.2" r="3" fill="#3498db" stroke="none" opacity="0.8"/>
<circle cx="290.0" cy="116.2" r="3" fill="#3498db" stroke="none" opacity="0.8"/>
<circle cx="290.0" cy="116.1" r="3" fill="#3498db" stroke="none" opacity="0.8"/>
<circle cx="290.0" cy="116.1" r="3" fill="#3498db" stroke="none" opacity="0.8"/>
<circle cx="290.0" cy="115.7" r="3" fill="#3498db" stroke="none" opacity="0.8"/>
<circle cx="290.0" cy="115.6" r="3" fill="#3498db" stroke="none" opacity="0.8"/>
<circle cx="290.0" cy="115.5" r="3" fill="#3498db" stroke="none" opacity="0.8"/>
<circle cx="290.0" cy="115.5" r="3" fill="#3498db" stroke="none" opacity="0.8"/>
<circle cx="290.0" cy="115.4" r="3" fill="#3498db" stroke="none" opacity="0.8"/>
<circle cx="290.0" cy="115.2" r="3" fill="#3498db" stroke="none" opacity="0.8"/>
<circle cx="290.0" cy="115.1" r="3" fill="#3498db" stroke="none" opacity="0.8"/>
<circle cx="290.0" cy="114.9" r="3" fill="#3498db" stroke="none" opacity="0.8"/>
<circle cx="290.0" cy="114.7" r="3" fill="#3498db" stroke="none" opacity="0.8"/>
<circle cx="290.0" cy="114.6" r="3" fill="#3498db" stroke="none" opacity="0.8"/>
<circle cx="290.0" cy="114.3" r="3" fill="#3498db" stroke="none" opacity="0.8"/>
<circle cx="290.0" cy="114.3" r="3" fill="#3498db" stroke="none" opacity="0.8"/>
<circle cx="290.0" cy="114.3" r="3" fill="#3498db" stroke="none" opacity="0.8"/>
<circle cx="290.0" cy="114.1" r="3" fill="#3498db" stroke="none" opacity="0.8"/>
<circle cx="290.0" cy="113.9" r="3" fill="#3498db" stroke="none" opacity="0.8"/>
<circle cx="290.0" cy="113.7" r="3" fill="#3498db" stroke="none" opacity="0.8"/>
<circle cx="290.0" cy="113.6" r="3" fill="#3498db" stroke="none" opacity="0.8"/>
<circle cx="290.0" cy="113.6" r="3" fill="#3498db" stroke="none" opacity="0.8"/>
<circle cx="290.0" cy="113.5" r="3" fill="#3498db" stroke="none" opacity="0.8"/>
<circle cx="290.0" cy="112.9" r="3" fill="#3498db" stroke="none" opacity="0.8"/>
<circle cx="290.0" cy="112.8" r="3" fill="#3498db" stroke="none" opacity="0.8"/>
<circle cx="290.0" cy="112.8" r="3" fill="#3498db" stroke="none" opacity="0.8"/>
<circle cx="290.0" cy="112.6" r="3" fill="#3498db" stroke="none" opacity="0.8"/>
<circle cx="290.0" cy="112.5" r="3" fill="#3498db" stroke="none" opacity="0.8"/>
<circle cx="290.0" cy="112.5" r="3" fill="#3498db" stroke="none" opacity="0.8"/>
<circle cx="290.0" cy="112.3" r="3" fill="#3498db" stroke="none" opacity="0.8"/>
<circle cx="290.0" cy="112.1" r="3" fill="#3498db" stroke="none" opacity="0.8"/>
<circle cx="290.0" cy="112.0" r="3" fill="#3498db" stroke="none" opacity="0.8"/>
<circle cx="290.0" cy="111.9" r="3" fill="#3498db" stroke="none" opacity="0.8"/>
<circle cx="290.0" cy="111.8" r="3" fill="#3498db" stroke="none" opacity="0.8"/>
<circle cx="290.0" cy="111.8" r="3" fill="#3498db" stroke="none" opacity="0.8"/>
<circle cx="290.0" cy="111.7" r="3" fill="#3498db" stroke="none" opacity="0.8"/>
<circle cx="290.0" cy="111.6" r="3" fill="#3498db" stroke="none" opacity="0.8"/>
<circle cx="290.0" cy="111.4" r="3" fill="#3498db" stroke="none" opacity="0.8"/>
<circle cx="290.0" cy="111.3" r="3" fill="#3498db" stroke="none" opacity="0.8"/>
<circle cx="290.0" cy="111.1" r="3" fill="#3498db" stroke="none" opacity="0.8"/>
<circle cx="290.0" cy="111.0" r="3" fill="#3498db" stroke="none" opacity="0.8"/>
<circle cx="290.0" cy="110.7" r="3" fill="#3498db" stroke="none" opacity="0.8"/>
<circle cx="290.0" cy="110.6" r="3" fill="#3498db" stroke="none" opacity="0.8"/>
<circle cx="290.0" cy="110.4" r="3" fill="#3498db" stroke="none" opacity="0.8"/>
<circle cx="290.0" cy="109.9" r="3" fill="#3498db" stroke="none" opacity="0.8"/>
<circle cx="290.0" cy="109.6" r="3" fill="#3498db" stroke="none" opacity="0.8"/>
<circle cx="290.0" cy="109.5" r="3" fill="#3498db" stroke="none" opacity="0.8"/>
<circle cx="290.0" cy="109.3" r="3" fill="#3498db" stroke="none" opacity="0.8"/>
<circle cx="290.0" cy="109.1" r="3" fill="#3498db" stroke="none" opacity="0.8"/>
<circle cx="290.0" cy="109.0" r="3" fill="#3498db" stroke="none" opacity="0.8"/>
<circle cx="290.0" cy="108.9" r="3" fill="#3498db" stroke="none" opacity="0.8"/>
<circle cx="290.0" cy="108.8" r="3" fill="#3498db" stroke="none" opacity="0.8"/>
<circle cx="290.0" cy="108.7" r="3" fill="#3498db" stroke="none" opacity="0.8"/>
<circle cx="290.0" cy="108.6" r="3" fill="#3498db" stroke="none" opacity="0.8"/>
<circle cx="290.0" cy="108.2" r="3" fill="#3498db" stroke="none" opacity="0.8"/>
<circle cx="290.0" cy="107.9" r="3" fill="#3498db" stroke="none" opacity="0.8"/>
<circle cx="290.0" cy="107.1" r="3" fill="#3498db" stroke="none" opacity="0.8"/>
<circle cx="290.0" cy="107.0" r="3" fill="#3498db" stroke="none" opacity="0.8"/>
<circle cx="290.0" cy="107.0" r="3" fill="#3498db" stroke="none" opacity="0.8"/>
<circle cx="290.0" cy="106.9" r="3" fill="#3498db" stroke="none" opacity="0.8"/>
<circle cx="290.0" cy="106.5" r="3" fill="#3498db" stroke="none" opacity="0.8"/>
<circle cx="290.0" cy="106.5" r="3" fill="#3498db" stroke="none" opacity="0.8"/>
<circle cx="290.0" cy="106.5" r="3" fill="#3498db" stroke="none" opacity="0.8"/>
<circle cx="290.0" cy="106.4" r="3" fill="#3498db" stroke="none" opacity="0.8"/>
<circle cx="290.0" cy="105.6" r="3" fill="#3498db" stroke="none" opacity="0.8"/>
<circle cx="290.0" cy="105.5" r="3" fill="#3498db" stroke="none" opacity="0.8"/>
<circle cx="290.0" cy="105.5" r="3" fill="#3498db" stroke="none" opacity="0.8"/>
<circle cx="290.0" cy="105.0" r="3" fill="#3498db" stroke="none" opacity="0.8"/>
<circle cx="290.0" cy="105.0" r="3" fill="#3498db" stroke="none" opacity="0.8"/>
<circle cx="290.0" cy="104.4" r="3" fill="#3498db" stroke="none" opacity="0.8"/>
<circle cx="290.0" cy="104.4" r="3" fill="#3498db" stroke="none" opacity="0.8"/>
<circle cx="290.0" cy="103.9" r="3" fill="#3498db" stroke="none" opacity="0.8"/>
<circle cx="290.0" cy="103.8" r="3" fill="#3498db" stroke="none" opacity="0.8"/>
<circle cx="290.0" cy="103.6" r="3" fill="#3498db" stroke="none" opacity="0.8"/>
<circle cx="290.0" cy="103.6" r="3" fill="#3498db" stroke="none" opacity="0.8"/>
<circle cx="290.0" cy="102.9" r="3" fill="#3498db" stroke="none" opacity="0.8"/>
<circle cx="290.0" cy="101.9" r="3" fill="#3498db" stroke="none" opacity="0.8"/>
<circle cx="290.0" cy="101.8" r="3" fill="#3498db" stroke="none" opacity="0.8"/>
<circle cx="290.0" cy="101.4" r="3" fill="#3498db" stroke="none" opacity="0.8"/>
<circle cx="290.0" cy="101.2" r="3" fill="#3498db" stroke="none" opacity="0.8"/>
<circle cx="290.0" cy="101.0" r="3" fill="#3498db" stroke="none" opacity="0.8"/>
<circle cx="290.0" cy="100.7" r="3" fill="#3498db" stroke="none" opacity="0.8"/>
<circle cx="290.0" cy="100.5" r="3" fill="#3498db" stroke="none" opacity="0.8"/>
<circle cx="290.0" cy="100.4" r="3" fill="#3498db" stroke="none" opacity="0.8"/>
<circle cx="290.0" cy="99.2" r="3" fill="#3498db" stroke="none" opacity="0.8"/>
<circle cx="290.0" cy="98.7" r="3" fill="#3498db" stroke="none" opacity="0.8"/>
<circle cx="290.0" cy="98.5" r="3" fill="#3498db" stroke="none" opacity="0.8"/>
<circle cx="290.0" cy="98.1" r="3" fill="#3498db" stroke="none" opacity="0.8"/>
<circle cx="290.0" cy="96.9" r="3" fill="#3498db" stroke="none" opacity="0.8"/>
<circle cx="290.0" cy="96.9" r="3" fill="#3498db" stroke="none" opacity="0.8"/>
<circle cx="290.0" cy="96.4" r="3" fill="#3498db" stroke="none" opacity="0.8"/>
<circle cx="290.0" cy="96.3" r="3" fill="#3498db" stroke="none" opacity="0.8"/>
<circle cx="290.0" cy="93.9" r="3" fill="#3498db" stroke="none" opacity="0.8"/>
<circle cx="290.0" cy="88.6" r="3" fill="#3498db" stroke="none" opacity="0.8"/>
<circle cx="290.0" cy="86.6" r="3" fill="#3498db" stroke="none" opacity="0.8"/>
<circle cx="290.0" cy="85.5" r="3" fill="#3498db" stroke="none" opacity="0.8"/>
<text x="290.0" y="388.0" font-size="11" font-weight="normal" text-anchor="middle" fill="#333" font-family="Arial,sans-serif">Flow1</text>
<rect x="515.0" y="55.0" width="10.0" height="10.0" fill="#3498db" stroke="none" stroke-width="1" opacity="0.7" rx="2"/>
<text x="528.0" y="64.0" font-size="9" font-weight="normal" text-anchor="start" fill="#333" font-family="Arial,sans-serif">Flow1</text>
</svg>