<svg xmlns="http://www.w3.org/2000/svg" width="600" height="430" viewBox="0 0 600 430">
<rect width="600" height="430" fill="#ffffff"/>
<text x="300.0" y="28.0" font-size="16" font-weight="bold" text-anchor="middle" fill="#2c3e50" font-family="Arial,sans-serif">GPIO_0_R_Low - Measured vs Spec (Ohm)</text>
<line x1="70.0" y1="370.0" x2="510.0" y2="370.0" stroke="#999" stroke-width="1"/>
<line x1="70.0" y1="55.0" x2="70.0" y2="370.0" stroke="#999" stroke-width="1"/>
<line x1="65.0" y1="370.0" x2="70.0" y2="370.0" stroke="#999" stroke-width="1"/>
<line x1="70.0" y1="370.0" x2="510.0" y2="370.0" stroke="#e0e0e0" stroke-width="0.8" stroke-dasharray="3,3"/>
<text x="62.0" y="374.0" font-size="9" font-weight="normal" text-anchor="end" fill="#7f8c8d" font-family="Arial,sans-serif">-16</text>
<line x1="65.0" y1="307.0" x2="70.0" y2="307.0" stroke="#999" stroke-width="1"/>
<line x1="70.0" y1="307.0" x2="510.0" y2="307.0" stroke="#e0e0e0" stroke-width="0.8" stroke-dasharray="3,3"/>
<text x="62.0" y="311.0" font-size="9" font-weight="normal" text-anchor="end" fill="#7f8c8d" font-family="Arial,sans-serif">70.2</text>
<line x1="65.0" y1="244.0" x2="70.0" y2="244.0" stroke="#999" stroke-width="1"/>
<line x1="70.0" y1="244.0" x2="510.0" y2="244.0" stroke="#e0e0e0" stroke-width="0.8" stroke-dasharray="3,3"/>
<text x="62.0" y="248.0" font-size="9" font-weight="normal" text-anchor="end" fill="#7f8c8d" font-family="Arial,sans-serif">156</text>
<line x1="65.0" y1="181.0" x2="70.0" y2="181.0" stroke="#999" stroke-width="1"/>
<line x1="70.0" y1="181.0" x2="510.0" y2="181.0" stroke="#e0e0e0" stroke-width="0.8" stroke-dasharray="3,3"/>
<text x="62.0" y="185.0" font-size="9" font-weight="normal" text-anchor="end" fill="#7f8c8d" font-family="Arial,sans-serif">243</text>
<line x1="65.0" y1="118.0" x2="70.0" y2="118.0" stroke="#999" stroke-width="1"/>
<line x1="70.0" y1="118.0" x2="510.0" y2="118.0" stroke="#e0e0e0" stroke-width="0.8" stroke-dasharray="3,3"/>
<text x="62.0" y="122.0" font-size="9" font-weight="normal" text-anchor="end" fill="#7f8c8d" font-family="Arial,sans-serif">329</text>
<line x1="65.0" y1="55.0" x2="70.0" y2="55.0" stroke="#999" stroke-width="1"/>
<line x1="70.0" y1="55.0" x2="510.0" y2="55.0" stroke="#e0e0e0" stroke-width="0.8" stroke-dasharray="3,3"/>
<text x="62.0" y="59.0" font-size="9" font-weight="normal" text-anchor="end" fill="#7f8c8d" font-family="Arial,sans-serif">415</text>
<text x="14.0" y="215.0" font-size="11" font-weight="normal" text-anchor="middle" fill="#7f8c8d" font-family="Arial,sans-serif" transform="rotate(-90,14,215.0)">Value (Ohm)</text>
<rect x="255.0" y="297.4" width="70.0" height="36.3" fill="#3498db" stroke="#3498db" stroke-width="1.5" opacity="0.25" rx="2"/>
<line x1="255.0" y1="323.8" x2="325.0" y2="323.8" stroke="#3498db" stroke-width="2.5"/>
<line x1="290.0" y1="333.6" x2="290.0" y2="339.5" stroke="#3498db" stroke-width="1"/>
<line x1="290.0" y1="297.4" x2="290.0" y2="265.0" stroke="#3498db" stroke-width="1"/>
<line x1="272.5" y1="339.5" x2="307.5" y2="339.5" stroke="#3498db" stroke-width="1"/>
<line x1="272.5" y1="265.0" x2="307.5" y2="265.0" stroke="#3498db" stroke-width="1"/>
<circle cx="290.0" cy="241.4" r="3" fill="#3498db" stroke="none" opacity="0.8"/>
<circle cx="290.0" cy="241.3" r="3" fill="#3498db" stroke="none" opacity="0.8"/>
<circle cx="290.0" cy="241.2" r="3" fill="#3498db" stroke="none" opacity="0.8"/>
<circle cx="290.0" cy="240.2" r="3" fill="#3498db" stroke="none" opacity="0.8"/>
<circle cx="290.0" cy="240.0" r="3" fill="#3498db" stroke="none" opacity="0.8"/>
<circle cx="290.0" cy="239.5" r="3" fill="#3498db" stroke="none" opacity="0.8"/>
<circle cx="290.0" cy="238.8" r="3" fill="#3498db" stroke="none" opacity="0.8"/>
<circle cx="290.0" cy="238.6" r="3" fill="#3498db" stroke="none" opacity="0.8"/>
<circle cx="290.0" cy="238.5" r="3" fill="#3498db" stroke="none" opacity="0.8"/>
<circle cx="290.0" cy="238.4" r="3" fill="#3498db" stroke="none" opacity="0.8"/>
<circle cx="290.0" cy="237.8" r="3" fill="#3498db" stroke="none" opacity="0.8"/>
<circle cx="290.0" cy="237.5" r="3" fill="#3498db" stroke="none" opacity="0.8"/>
<circle cx="290.0" cy="237.4" r="3" fill="#3498db" stroke="none" opacity="0.8"/>
<circle cx="290.0" cy="237.4" r="3" fill="#3498db" stroke="none" opacity="0.8"/>
<circle cx="290.0" cy="237.4" r="3" fill="#3498db" stroke="none" opacity="0.8"/>
<circle cx="290.0" cy="237.3" r="3" fill="#3498db" stroke="none" opacity="0.8"/>
<circle cx="290.0" cy="237.3" r="3" fill="#3498db" stroke="none" opacity="0.8"/>
<circle cx="290.0" cy="237.2" r="3" fill="#3498db" stroke="none" opacity="0.8"/>
<circle cx="290.0" cy="237.2" r="3" fill="#3498db" stroke="none" opacity="0.8"/>
<circle cx="290.0" cy="237.0" r="3" fill="#3498db" stroke="none" opacity="0.8"/>
<circle cx="290.0" cy="236.9" r="3" fill="#3498db" stroke="none" opacity="0.8"/>
<circle cx="290.0" cy="236.8" r="3" fill="#3498db" stroke="none" opacity="0.8"/>
<circle cx="290.0" cy="236.7" r="3" fill="#3498db" stroke="none" opacity="0.8"/>
<circle cx="290.0" cy="236.7" r="3" fill="#3498db" stroke="none" opacity="0.8"/>
<circle cx="290.0" cy="236.5" r="3" fill="#3498db" stroke="none" opacity="0.8"/>
<circle cx="290.0" cy="236.4" r="3" fill="#3498db" stroke="none" opacity="0.8"/>
<circle cx="290.0" cy="236.2" r="3" fill="#3498db" stroke="none" opacity="0.8"/>
<circle cx="290.0" cy="236.2" r="3" fill="#3498db" stroke="none" opacity="0.8"/>
<circle cx="290.0" cy="236.2" r="3" fill="#3498db" stroke="none" opacity="0.8"/>
<circle cx="290.0" cy="236.1" r="3" fill="#3498db" stroke="none" opacity="0.8"/>
<circle cx="290.0" cy="236.1" r="3" fill="#3498db" stroke="none" opacity="0.8"/>
<circle cx="290.0" cy="236.0" r="3" fill="#3498db" stroke="none" opacity="0.8"/>
<circle cx="290.0" cy="235.9" r="3" fill="#3498db" stroke="none" opacity="0.8"/>
<circle cx="290.0" cy="235.8" r="3" fill="#3498db" stroke="none" opacity="0.8"/>
<circle cx="290.0" cy="235.7" r="3" fill="#3498db" stroke="none" opacity="0.8"/>
<circle cx="290.0" cy="235.6" r="3" fill="#3498db" stroke="none" opacity="0.8"/>
<circle cx="290.0" cy="235.6" r="3" fill="#3498db" stroke="none" opacity="0.8"/>
<circle cx="290.0" cy="235.6" r="3" fill="#3498db" stroke="none" opacity="0.8"/>
<circle cx="290.0" cy="235.5" r="3" fill="#3498db" stroke="none" opacity="0.8"/>
<circle cx="290.0" cy="235.5" r="3" fill="#3498db" stroke="none" opacity="0.8"/>
<circle cx="290.0" cy="235.5" r="3" fill="#3498db" stroke="none" opacity="0.8"/>
<circle cx="290.0" cy="235.5" r="3" fill="#3498db" stroke="none" opacity="0.8"/>
<circle cx="290.0" cy="235.1" r="3" fill="#3498db" stroke="none" opacity="0.8"/>
<circle cx="290.0" cy="234.9" r="3" fill="#3498db" stroke="none" opacity="0.8"/>
<circle cx="290.0" cy="234.8" r="3" fill="#3498db" stroke="none" opacity="0.8"/>
<circle cx="290.0" cy="234.8" r="3" fill="#3498db" stroke="none" opacity="0.8"/>
<circle cx="290.0" cy="234.8" r="3" fill="#3498db" stroke="none" opacity="0.8"/>
<circle cx="290.0" cy="234.8" r="3" fill="#3498db" stroke="none" opacity="0.8"/>
<circle cx="290.0" cy="234.7" r="3" fill="#3498db" stroke="none" opacity="0.8"/>
<circle cx="290.0" cy="234.7" r="3" fill="#3498db" stroke="none" opacity="0.8"/>
<circle cx="290.0" cy="234.4" r="3" fill="#3498db" stroke="none" opacity="0.8"/>
<circle cx="290.0" cy="234.4" r="3" fill="#3498db" stroke="none" opacity="0.8"/>
<circle cx="290.0" cy="234.3" r="3" fill="#3498db" stroke="none" opacity="0.8"/>
<circle cx="290.0" cy="234.2" r="3" fill="#3498db" stroke="none" opacity="0.8"/>
<circle cx="290.0" cy="234.1" r="3" fill="#3498db" stroke="none" opacity="0.8"/>
<circle cx="290.0" cy="234.1" r="3" fill="#3498db" stroke="none" opacity="0.8"/>
<circle cx="290.0" cy="233.8" r="3" fill="#3498db" stroke="none" opacity="0.8"/>
<circle cx="290.0" cy="233.6" r="3" fill="#3498db" stroke="none" opacity="0.8"/>
<circle cx="290.0" cy="233.5" r="3" fill="#3498db" stroke="none" opacity="0.8"/>
<circle cx="290.0" cy="233.5" r="3" fill="#3498db" stroke="none" opacity="0.8"/>
<circle cx="290.0" cy="233.3" r="3" fill="#3498db" stroke="none" opacity="0.8"/>
<circle cx="290.0" cy="233.3" r="3" fill="#3498db" stroke="none" opacity="0.8"/>
<circle cx="290.0" cy="233.3" r="3" fill="#3498db" stroke="none" opacity="0.8"/>
<circle cx="290.0" cy="233.3" r="3" fill="#3498db" stroke="none" opacity="0.8"/>
<circle cx="290.0" cy="233.2" r="3" fill="#3498db" stroke="none" opacity="0.8"/>
<circle cx="290.0" cy="233.1" r="3" fill="#3498db" stroke="none" opacity="0.8"/>
<circle cx="290.0" cy="233.0" r="3" fill="#3498db" stroke="none" opacity="0.8"/>
<circle cx="290.0" cy="232.9" r="3" fill="#3498db" stroke="none" opacity="0.8"/>
<circle cx="290.0" cy="232.8" r="3" fill="#3498db" stroke="none" opacity="0.8"/>
<circle cx="290.0" cy="232.8" r="3" fill="#3498db" stroke="none" opacity="0.8"/>
<circle cx="290.0" cy="232.7" r="3" fill="#3498db" stroke="none" opacity="0.8"/>
<circle cx="290.0" cy="232.6" r="3" fill="#3498db" stroke="none" opacity="0.8"/>
<circle cx="290.0" cy="232.6" r="3" fill="#3498db" stroke="none" opacity="0.8"/>
<circle cx="290.0" cy="232.6" r="3" fill="#3498db" stroke="none" opacity="0.8"/>
<circle cx="290.0" cy="232.6" r="3" fill="#3498db" stroke="none" opacity="0.8"/>
<circle cx="290.0" cy="232.5" r="3" fill="#3498db" stroke="none" opacity="0.8"/>
<circle cx="290.0" cy="232.5" r="3" fill="#3498db" stroke="none" opacity="0.8"/>
<circle cx="290.0" cy="232.4" r="3" fill="#3498db" stroke="none" opacity="0.8"/>
<circle cx="290.0" cy="232.3" r="3" fill="#3498db" stroke="none" opacity="0.8"/>
<circle cx="290.0" cy="232.2" r="3" fill="#3498db" stroke="none" opacity="0.8"/>
<circle cx="290.0" cy="232.2" r="3" fill="#3498db" stroke="none" opacity="0.8"/>
<circle cx="290.0" cy="232.2" r="3" fill="#3498db" stroke="none" opacity="0.8"/>
<circle cx="290.0" cy="232.0" r="3" fill="#3498db" stroke="none" opacity="0.8"/>
<circle cx="290.0" cy="232.0" r="3" fill="#3498db" stroke="none" opacity="0.8"/>
<circle cx="290.0" cy="232.0" r="3" fill="#3498db" stroke="none" opacity="0.8"/>
<circle cx="290.0" cy="231.9" r="3" fill="#3498db" stroke="none" opacity="0.8"/>
<circle cx="290.0" cy="231.9" r="3" fill="#3498db" stroke="none" opacity="0.8"/>
<circle cx="290.0" cy="231.9" r="3" fill="#3498db" stroke="none" opacity="0.8"/>
<circle cx="290.0" cy="231.8" r="3" fill="#3498db" stroke="none" opacity="0.8"/>
<circle cx="290.0" cy="231.8" r="3" fill="#3498db" stroke="none" opacity="0.8"/>
<circle cx="290.0" cy="231.8" r="3" fill="#3498db" stroke="none" opacity="0.8"/>
<circle cx="290.0" cy="231.8" r="3" fill="#3498db" stroke="none" opacity="0.8"/>
<circle cx="290.0" cy="231.7" r="3" fill="#3498db" stroke="none" opacity="0.8"/>
<circle cx="290.0" cy="231.7" r="3" fill="#3498db" stroke="none" opacity="0.8"/>
<circle cx="290.0" cy="231.5" r="3" fill="#3498db" stroke="none" opacity="0.8"/>
<circle cx="290.0" cy="231.4" r="3" fill="#3498db" stroke="none" opacity="0.8"/>
<circle cx="290.0" cy="231.3" r="3" fill="#3498db" stroke="none" opacity="0.8"/>
<circle cx="290.0" cy="231.3" r="3" fill="#3498db" stroke="none" opacity="0.8"/>
<circle cx="290.0" cy="231.2" r="3" fill="#3498db" stroke="none" opacity="0.8"/>
<circle cx="290.0" cy="231.2" r="3" fill="#3498db" stroke="none" opacity="0.8"/>
<circle cx="290.0" cy="231.2" r="3" fill="#3498db" stroke="none" opacity="0.8"/>
<circle cx="290.0" cy="231.1" r="3" fill="#3498db" stroke="none" opacity="0.8"/>
<circle cx="290.0" cy="231.1" r="3" fill="#3498db" stroke="none" opacity="0.8"/>
<circle cx="290.0" cy="231.0" r="3" fill="#3498db" stroke="none" opacity="0.8"/>
<circle cx="290.0" cy="230.8" r="3" fill="#3498db" stroke="none" opacity="0.8"/>
<circle cx="290.0" cy="230.8" r="3" fill="#3498db" stroke="none" opacity="0.8"/>
<circle cx="290.0" cy="230.8" r="3" fill="#3498db" stroke="none" opacity="0.8"/>
<circle cx="290.0" cy="230.8" r="3" fill="#3498db" stroke="none" opacity="0.8"/>
<circle cx="290.0" cy="230.8" r="3" fill="#3498db" stroke="none" opacity="0.8"/>
<circle cx="290.0" cy="230.7" r="3" fill="#3498db" stroke="none" opacity="0.8"/>
<circle cx="290.0" cy="230.7" r="3" fill="#3498db" stroke="none" opacity="0.8"/>
<circle cx="290.0" cy="230.6" r="3" fill="#3498db" stroke="none" opacity="0.8"/>
<circle cx="290.0" cy="230.1" r="3" fill="#3498db" stroke="none" opacity="0.8"/>
<circle cx="290.0" cy="230.0" r="3" fill="#3498db" stroke="none" opacity="0.8"/>
<circle cx="290.0" cy="230.0" r="3" fill="#3498db" stroke="none" opacity="0.8"/>
<circle cx="290.0" cy="229.9" r="3" fill="#3498db" stroke="none" opacity="0.8"/>
<circle cx="290.0" cy="229.8" r="3" fill="#3498db" stroke="none" opacity="0.8"/>
<circle cx="290.0" cy="229.7" r="3" fill="#3498db" stroke="none" opacity="0.8"/>
<circle cx="290.0" cy="229.6" r="3" fill="#3498db" stroke="none" opacity="0.8"/>
<circle cx="290.0" cy="229.4" r="3" fill="#3498db" stroke="none" opacity="0.8"/>
<circle cx="290.0" cy="229.3" r="3" fill="#3498db" stroke="none" opacity="0.8"/>
<circle cx="290.0" cy="229.1" r="3" fill="#3498db" stroke="none" opacity="0.8"/>
<circle cx="290.0" cy="229.0" r="3" fill="#3498db" stroke="none" opacity="0.8"/>
<circle cx="290.0" cy="228.9" r="3" fill="#3498db" stroke="none" opacity="0.8"/>
<circle cx="290.0" cy="228.8" r="3" fill="#3498db" stroke="none" opacity="0.8"/>
<circle cx="290.0" cy="228.7" r="3" fill="#3498db" stroke="none" opacity="0.8"/>
<circle cx="290.0" cy="228.7" r="3" fill="#3498db" stroke="none" opacity="0.8"/>
<circle cx="290.0" cy="228.6" r="3" fill="#3498db" stroke="none" opacity="0.8"/>
<circle cx="290.0" cy="228.5" r="3" fill="#3498db" stroke="none" opacity="0.8"/>
<circle cx="290.0" cy="228.5" r="3" fill="#3498db" stroke="none" opacity="0.8"/>
<circle cx="290.0" cy="228.2" r="3" fill="#3498db" stroke="none" opacity="0.8"/>
<circle cx="290.0" cy="228.0" r="3" fill="#3498db" stroke="none" opacity="0.8"/>
<circle cx="290.0" cy="228.0" r="3" fill="#3498db" stroke="none" opacity="0.8"/>
<circle cx="290.0" cy="227.9" r="3" fill="#3498db" stroke="none" opacity="0.8"/>
<circle cx="290.0" cy="227.8" r="3" fill="#3498db" stroke="none" opacity="0.8"/>
<circle cx="290.0" cy="227.7" r="3" fill="#3498db" stroke="none" opacity="0.8"/>
<circle cx="290.0" cy="227.7" r="3" fill="#3498db" stroke="none" opacity="0.8"/>
<circle cx="290.0" cy="227.2" r="3" fill="#3498db" stroke="none" opacity="0.8"/>
<circle cx="290.0" cy="227.2" r="3" fill="#3498db" stroke="none" opacity="0.8"/>
<circle cx="290.0" cy="227.1" r="3" fill="#3498db" stroke="none" opacity="0.8"/>
<circle cx="290.0" cy="226.8" r="3" fill="#3498db" stroke="none" opacity="0.8"/>
<circle cx="290.0" cy="226.5" r="3" fill="#3498db" stroke="none" opacity="0.8"/>
<circle cx="290.0" cy="226.5" r="3" fill="#3498db" stroke="none" opacity="0.8"/>
<circle cx="290.0" cy="226.4" r="3" fill="#3498db" stroke="none" opacity="0.8"/>
<circle cx="290.0" cy="226.4" r="3" fill="#3498db" stroke="none" opacity="0.8"/>
<circle cx="290.0" cy="226.3" r="3" fill="#3498db" stroke="none" opacity="0.8"/>
<circle cx="290.0" cy="226.1" r="3" fill="#3498db" stroke="none" opacity="0.8"/>
<circle cx="290.0" cy="225.9" r="3" fill="#3498db" stroke="none" opacity="0.8"/>
<circle cx="290.0" cy="225.8" r="3" fill="#3498db" stroke="none" opacity="0.8"/>
<circle cx="290.0" cy="225.5" r="3" fill="#3498db" stroke="none" opacity="0.8"/>
<circle cx="290.0" cy="225.5" r="3" fill="#3498db" stroke="none" opacity="0.8"/>
<circle cx="290.0" cy="225.2" r="3" fill="#3498db" stroke="none" opacity="0.8"/>
<circle cx="290.0" cy="224.8" r="3" fill="#3498db" stroke="none" opacity="0.8"/>
<circle cx="290.0" cy="224.6" r="3" fill="#3498db" stroke="none" opacity="0.8"/>
<circle cx="290.0" cy="224.1" r="3" fill="#3498db" stroke="none" opacity="0.8"/>
<circle cx="290.0" cy="223.8" r="3" fill="#3498db" stroke="none" opacity="0.8"/>
<circle cx="290.0" cy="222.6" r="3" fill="#3498db" stroke="none" opacity="0.8"/>
<circle cx="290.0" cy="222.4" r="3" fill="#3498db" stroke="none" opacity="0.8"/>
<circle cx="290.0" cy="221.6" r="3" fill="#3498db" stroke="none" opacity="0.8"/>
<circle cx="290.0" cy="126.1" r="3" fill="#3498db" stroke="none" opacity="0.8"/>
<circle cx="290.0" cy="126.1" r="3" fill="#3498db" stroke="none" opacity="0.8"/>
<circle cx="290.0" cy="125.7" r="3" fill="#3498db" stroke="none" opacity="0.8"/>
<circle cx="290.0" cy="124.3" r="3" fill="#3498db" stroke="none" opacity="0.8"/>
<circle cx="290.0" cy="122.9" r="3" fill="#3498db" stroke="none" opacity="0.8"/>
<circle cx="290.0" cy="121.9" r="3" fill="#3498db" stroke="none" opacity="0.8"/>
<circle cx="290.0" cy="120.5" r="3" fill="#3498db" stroke="none" opacity="0.8"/>
<circle cx="290.0" cy="119.1" r="3" fill="#3498db" stroke="none" opacity="0.8"/>
<circle cx="290.0" cy="119.0" r="3" fill="#3498db" stroke="none" opacity="0.8"/>
<circle cx="290.0" cy="118.7" r="3" fill="#3498db" stroke="none" opacity="0.8"/>
<circle cx="290.0" cy="118.2" r="3" fill="#3498db" stroke="none" opacity="0.8"/>
<circle cx="290.0" cy="118.2" r="3" fill="#3498db" stroke="none" opacity="0.8"/>
<circle cx="290.0" cy="117.9" r="3" fill="#3498db" stroke="none" opacity="0.8"/>
<circle cx="290.0" cy="117.8" r="3" fill="#3498db" stroke="none" opacity="0.8"/>
<circle cx="290.0" cy="117.7" r="3" fill="#3498db" stroke="none" opacity="0.8"/>
<circle cx="290.0" cy="117.4" r="3" fill="#3498db" stroke="none" opacity="0.8"/>
<circle cx="290.0" cy="117.3" r="3" fill="#3498db" stroke="none" opacity="0.8"/>
<circle cx="290.0" cy="117.0" r="3" fill="#3498db" stroke="none" opacity="0.8"/>
<circle cx="290.0" cy="116.9" r="3" fill="#3498db" stroke="none" opacity="0.8"/>
<circle cx="290.0" cy="116.4" r="3" fill="#3498db" stroke="none" opacity="0.8"/>
<circle cx="290.0" cy="116.3" r="3" fill="#3498db" stroke="none" opacity="0.8"/>
<circle cx="290.0" cy="116.2" r="3" fill="#3498db" stroke="none" opacity="0.8"/>
<circle cx="290.0" cy="116.1" r="3" fill="#3498db" stroke="none" opacity="0.8"/>
<circle cx="290.0" cy="116.0" r="3" fill="#3498db" stroke="none" opacity="0.8"/>
<circle cx="290.0" cy="116.0" r="3" fill="#3498db" stroke="none" opacity="0.8"/>
<circle cx="290.0" cy="115.9" r="3" fill="#3498db" stroke="none" opacity="0.8"/>
<circle cx="290.0" cy="115.9" r="3" fill="#3498db" stroke="none" opacity="0.8"/>
<circle cx="290.0" cy="115.7" r="3" fill="#3498db" stroke="none" opacity="0.8"/>
<circle cx="290.0" cy="115.6" r="3" fill="#3498db" stroke="none" opacity="0.8"/>
<circle cx="290.0" cy="115.5" r="3" fill="#3498db" stroke="none" opacity="0.8"/>
<circle cx="290.0" cy="115.4" r="3" fill="#3498db" stroke="none" opacity="0.8"/>
<circle cx="290.0" cy="115.4" r="3" fill="#3498db" stroke="none" opacity="0.8"/>
<circle cx="290.0" cy="115.4" r="3" fill="#3498db" stroke="none" opacity="0.8"/>
<circle cx="290.0" cy="115.0" r="3" fill="#3498db" stroke="none" opacity="0.8"/>
<circle cx="290.0" cy="115.0" r="3" fill="#3498db" stroke="none" opacity="0.8"/>
<circle cx="290.0" cy="114.9" r="3" fill="#3498db" stroke="none" opacity="0.8"/>
<circle cx="290.0" cy="114.9" r="3" fill="#3498db" stroke="none" opacity="0.8"/>
<circle cx="290.0" cy="114.7" r="3" fill="#3498db" stroke="none" opacity="0.8"/>
<circle cx="290.0" cy="114.3" r="3" fill="#3498db" stroke="none" opacity="0.8"/>
<circle cx="290.0" cy="114.2" r="3" fill="#3498db" stroke="none" opacity="0.8"/>
<circle cx="290.0" cy="114.2" r="3" fill="#3498db" stroke="none" opacity="0.8"/>
<circle cx="290.0" cy="112.8" r="3" fill="#3498db" stroke="none" opacity="0.8"/>
<circle cx="290.0" cy="112.7" r="3" fill="#3498db" stroke="none" opacity="0.8"/>
<circle cx="290.0" cy="112.3" r="3" fill="#3498db" stroke="none" opacity="0.8"/>
<circle cx="290.0" cy="112.3" r="3" fill="#3498db" stroke="none" opacity="0.8"/>
<circle cx="290.0" cy="112.1" r="3" fill="#3498db" stroke="none" opacity="0.8"/>
<circle cx="290.0" cy="111.7" r="3" fill="#3498db" stroke="none" opacity="0.8"/>
<circle cx="290.0" cy="111.3" r="3" fill="#3498db" stroke="none" opacity="0.8"/>
<circle cx="290.0" cy="111.1" r="3" fill="#3498db" stroke="none" opacity="0.8"/>
<circle cx="290.0" cy="110.9" r="3" fill="#3498db" stroke="none" opacity="0.8"/>
<circle cx="290.0" cy="110.2" r="3" fill="#3498db" stroke="none" opacity="0.8"/>
<circle cx="290.0" cy="110.0" r="3" fill="#3498db" stroke="none" opacity="0.8"/>
<circle cx="290.0" cy="109.9" r="3" fill="#3498db" stroke="none" opacity="0.8"/>
<circle cx="290.0" cy="109.7" r="3" fill="#3498db" stroke="none" opacity="0.8"/>
<circle cx="290.0" cy="109.3" r="3" fill="#3498db" stroke="none" opacity="0.8"/>
<circle cx="290.0" cy="109.2" r="3" fill="#3498db" stroke="none" opacity="0.8"/>
<circle cx="290.0" cy="109.1" r="3" fill="#3498db" stroke="none" opacity="0.8"/>
<circle cx="290.0" cy="109.0" r="3" fill="#3498db" stroke="none" opacity="0.8"/>
<circle cx="290.0" cy="108.9" r="3" fill="#3498db" stroke="none" opacity="0.8"/>
<circle cx="290.0" cy="108.8" r="3" fill="#3498db" stroke="none" opacity="0.8"/>
<circle cx="290.0" cy="108.8" r="3" fill="#3498db" stroke="none" opacity="0.8"/>
<circle cx="290.0" cy="108.7" r="3" fill="#3498db" stroke="none" opacity="0.8"/>
<circle cx="290.0" cy="108.6" r="3" fill="#3498db" stroke="none" opacity="0.8"/>
<circle cx="290.0" cy="108.6" r="3" fill="#3498db" stroke="none" opacity="0.8"/>
<circle cx="290.0" cy="108.5" r="3" fill="#3498db" stroke="none" opacity="0.8"/>
<circle cx="290.0" cy="108.5" r="3" fill="#3498db" stroke="none" opacity="0.8"/>
<circle cx="290.0" cy="108.1" r="3" fill="#3498db" stroke="none" opacity="0.8"/>
<circle cx="290.0" cy="108.0" r="3" fill="#3498db" stroke="none" opacity="0.8"/>
<circle cx="290.0" cy="108.0" r="3" fill="#3498db" stroke="none" opacity="0.8"/>
<circle cx="290.0" cy="108.0" r="3" fill="#3498db" stroke="none" opacity="0.8"/>
<circle cx="290.0" cy="107.9" r="3" fill="#3498db" stroke="none" opacity="0.8"/>
<circle cx="290.0" cy="107.7" r="3" fill="#3498db" stroke="none" opacity="0.8"/>
<circle cx="290.0" cy="107.7" r="3" fill="#3498db" stroke="none" opacity="0.8"/>
<circle cx="290.0" cy="107.5" r="3" fill="#3498db" stroke="none" opacity="0.8"/>
<circle cx="290.0" cy="107.5" r="3" fill="#3498db" stroke="none" opacity="0.8"/>
<circle cx="290.0" cy="107.4" r="3" fill="#3498db" stroke="none" opacity="0.8"/>
<circle cx="290.0" cy="107.4" r="3" fill="#3498db" stroke="none" opacity="0.8"/>
<circle cx="290.0" cy="107.4" r="3" fill="#3498db" stroke="none" opacity="0.8"/>
<circle cx="290.0" cy="107.3" r="3" fill="#3498db" stroke="none" opacity="0.8"/>
<circle cx="290.0" cy="106.9" r="3" fill="#3498db" stroke="none" opacity="0.8"/>
<circle cx="290.0" cy="106.9" r="3" fill="#3498db" stroke="none" opacity="0.8"/>
<circle cx="290.0" cy="106.8" r="3" fill="#3498db" stroke="none" opacity="0.8"/>
<circle cx="290.0" cy="106.8" r="3" fill="#3498db" stroke="none" opacity="0.8"/>
<circle cx="290.0" cy="106.8" r="3" fill="#3498db" stroke="none" opacity="0.8"/>
<circle cx="290.0" cy="106.8" r="3" fill="#3498db" stroke="none" opacity="0.8"/>
<circle cx="290.0" cy="106.4" r="3" fill="#3498db" stroke="none" opacity="0.8"/>
<circle cx="290.0" cy="106.4" r="3" fill="#3498db" stroke="none" opacity="0.8"/>
<circle cx="290.0" cy="106.4" r="3" fill="#3498db" stroke="none" opacity="0.8"/>
<circle cx="290.0" cy="106.4" r="3" fill="#3498db" stroke="none" opacity="0.8"/>
<circle cx="290.0" cy="106.2" r="3" fill="#3498db" stroke="none" opacity="0.8"/>
<circle cx="290.0" cy="106.2" r="3" fill="#3498db" stroke="none" opacity="0.8"/>
<circle cx="290.0" cy="106.1" r="3" fill="#3498db" stroke="none" opacity="0.8"/>
<circle cx="290.0" cy="106.0" r="3" fill="#3498db" stroke="none" opacity="0.8"/>
<circle cx="290.0" cy="106.0" r="3" fill="#3498db" stroke="none" opacity="0.8"/>
<circle cx="290.0" cy="106.0" r="3" fill="#3498db" stroke="none" opacity="0.8"/>
<circle cx="290.0" cy="105.7" r="3" fill="#3498db" stroke="none" opacity="0.8"/>
<circle cx="290.0" cy="105.5" r="3" fill="#3498db" stroke="none" opacity="0.8"/>
<circle cx="290.0" cy="105.2" r="3" fill="#3498db" stroke="none" opacity="0.8"/>
<circle cx="290.0" cy="105.2" r="3" fill="#3498db" stroke="none" opacity="0.8"/>
<circle cx="290.0" cy="105.0" r="3" fill="#3498db" stroke="none" opacity="0.8"/>
<circle cx="290.0" cy="105.0" r="3" fill="#3498db" stroke="none" opacity="0.8"/>
<circle cx="290.0" cy="104.9" r="3" fill="#3498db" stroke="none" opacity="0.8"/>
<circle cx="290.0" cy="104.7" r="3" fill="#3498db" stroke="none" opacity="0.8"/>
<circle cx="290.0" cy="104.6" r="3" fill="#3498db" stroke="none" opacity="0.8"/>
<circle cx="290.0" cy="104.5" r="3" fill="#3498db" stroke="none" opacity="0.8"/>
<circle cx="290.0" cy="104.4" r="3" fill="#3498db" stroke="none" opacity="0.8"/>
<circle cx="290.0" cy="104.4" r="3" fill="#3498db" stroke="none" opacity="0.8"/>
<circle cx="290.0" cy="104.4" r="3" fill="#3498db" stroke="none" opacity="0.8"/>
<circle cx="290.0" cy="103.9" r="3" fill="#3498db" stroke="none" opacity="0.8"/>
<circle cx="290.0" cy="103.9" r="3" fill="#3498db" stroke="none" opacity="0.8"/>
<circle cx="290.0" cy="103.8" r="3" fill="#3498db" stroke="none" opacity="0.8"/>
<circle cx="290.0" cy="103.2" r="3" fill="#3498db" stroke="none" opacity="0.8"/>
<circle cx="290.0" cy="102.9" r="3" fill="#3498db" stroke="none" opacity="0.8"/>
<circle cx="290.0" cy="102.7" r="3" fill="#3498db" stroke="none" opacity="0.8"/>
<circle cx="290.0" cy="102.5" r="3" fill="#3498db" stroke="none" opacity="0.8"/>
<circle cx="290.0" cy="102.5" r="3" fill="#3498db" stroke="none" opacity="0.8"/>
<circle cx="290.0" cy="102.1" r="3" fill="#3498db" stroke="none" opacity="0.8"/>
<circle cx="290.0" cy="102.1" r="3" fill="#3498db" stroke="none" opacity="0.8"/>
<circle cx="290.0" cy="100.9" r="3" fill="#3498db" stroke="none" opacity="0.8"/>
<circle cx="290.0" cy="100.2" r="3" fill="#3498db" stroke="none" opacity="0.8"/>
<circle cx="290.0" cy="100.0" r="3" fill="#3498db" stroke="none" opacity="0.8"/>
<circle cx="290.0" cy="99.8" r="3" fill="#3498db" stroke="none" opacity="0.8"/>
<circle cx="290.0" cy="99.8" r="3" fill="#3498db" stroke="none" opacity="0.8"/>
<circle cx="290.0" cy="99.7" r="3" fill="#3498db" stroke="none" opacity="0.8"/>
<circle cx="290.0" cy="99.3" r="3" fill="#3498db" stroke="none" opacity="0.8"/>
<circle cx="290.0" cy="99.0" r="3" fill="#3498db" stroke="none" opacity="0.8"/>
<circle cx="290.0" cy="98.6" r="3" fill="#3498db" stroke="none" opacity="0.8"/>
<circle cx="290.0" cy="98.5" r="3" fill="#3498db" stroke="none" opacity="0.8"/>
<circle cx="290.0" cy="98.4" r="3" fill="#3498db" stroke="none" opacity="0.8"/>
<circle cx="290.0" cy="98.4" r="3" fill="#3498db" stroke="none" opacity="0.8"/>
<circle cx="290.0" cy="98.3" r="3" fill="#3498db" stroke="none" opacity="0.8"/>
<circle cx="290.0" cy="98.2" r="3" fill="#3498db" stroke="none" opacity="0.8"/>
<circle cx="290.0" cy="98.0" r="3" fill="#3498db" stroke="none" opacity="0.8"/>
<circle cx="290.0" cy="97.5" r="3" fill="#3498db" stroke="none" opacity="0.8"/>
<circle cx="290.0" cy="97.4" r="3" fill="#3498db" stroke="none" opacity="0.8"/>
<circle cx="290.0" cy="97.4" r="3" fill="#3498db" stroke="none" opacity="0.8"/>
<circle cx="290.0" cy="97.1" r="3" fill="#3498db" stroke="none" opacity="0.8"/>
<circle cx="290.0" cy="97.0" r="3" fill="#3498db" stroke="none" opacity="0.8"/>
<circle cx="290.0" cy="96.4" r="3" fill="#3498db" stroke="none" opacity="0.8"/>
<circle cx="290.0" cy="96.3" r="3" fill="#3498db" stroke="none" opacity="0.8"/>
<circle cx="290.0" cy="96.3" r="3" fill="#3498db" stroke="none" opacity="0.8"/>
<circle cx="290.0" cy="96.0" r="3" fill="#3498db" stroke="none" opacity="0.8"/>
<circle cx="290.0" cy="95.5" r="3" fill="#3498db" stroke="none" opacity="0.8"/>
<circle cx="290.0" cy="95.5" r="3" fill="#3498db" stroke="none" opacity="0.8"/>
<circle cx="290.0" cy="95.2" r="3" fill="#3498db" stroke="none" opacity="0.8"/>
<circle cx="290.0" cy="95.0" r="3" fill="#3498db" stroke="none" opacity="0.8"/>
<circle cx="290.0" cy="94.9" r="3" fill="#3498db" stroke="none" opacity="0.8"/>
<circle cx="290.0" cy="94.8" r="3" fill="#3498db" stroke="none" opacity="0.8"/>
<circle cx="290.0" cy="94.6" r="3" fill="#3498db" stroke="none" opacity="0.8"/>
<circle cx="290.0" cy="94.6" r="3" fill="#3498db" stroke="none" opacity="0.8"/>
<circle cx="290.0" cy="92.5" r="3" fill="#3498db" stroke="none" opacity="0.8"/>
<circle cx="290.0" cy="91.7" r="3" fill="#3498db" stroke="none" opacity="0.8"/>
<circle cx="290.0" cy="91.4" r="3" fill="#3498db" stroke="none" opacity="0.8"/>
<circle cx="290.0" cy="91.3" r="3" fill="#3498db" stroke="none" opacity="0.8"/>
<circle cx="290.0" cy="90.5" r="3" fill="#3498db" stroke="none" opacity="0.8"/>
<circle cx="290.0" cy="90.3" r="3" fill="#3498db" stroke="none" opacity="0.8"/>
<circle cx="290.0" cy="87.7" r="3" fill="#3498db" stroke="none" opacity="0.8"/>
<circle cx="290.0" cy="87.5" r="3" fill="#3498db" stroke="none" opacity="0.8"/>
<circle cx="290.0" cy="85.5" r="3" fill="#3498db" stroke="none" opacity="0.8"/>
<text x="290.0" y="388.0" font-size="11" font-weight="normal" text-anchor="middle" fill="#333" font-family="Arial,sans-serif">Flow1</text>
<rect x="515.0" y="55.0" width="10.0" height="10.0" fill="#3498db" stroke="none" stroke-width="1" opacity="0.7" rx="2"/>
<text x="528.0" y="64.0" font-size="9" font-weight="normal" text-anchor="start" fill="#333" font-family="Arial,sans-serif">Flow1</text>
</svg>