<svg xmlns="http://www.w3.org/2000/svg" width="600" height="430" viewBox="0 0 600 430">
<rect width="600" height="430" fill="#ffffff"/>
<text x="300.0" y="28.0" font-size="16" font-weight="bold" text-anchor="middle" fill="#2c3e50" font-family="Arial,sans-serif">RF_KILLN_Fall_Time_ps - Measured vs Spec (ps)</text>
<line x1="70.0" y1="370.0" x2="510.0" y2="370.0" stroke="#999" stroke-width="1"/>
<line x1="70.0" y1="55.0" x2="70.0" y2="370.0" stroke="#999" stroke-width="1"/>
<line x1="65.0" y1="370.0" x2="70.0" y2="370.0" stroke="#999" stroke-width="1"/>
<line x1="70.0" y1="370.0" x2="510.0" y2="370.0" stroke="#e0e0e0" stroke-width="0.8" stroke-dasharray="3,3"/>
<text x="62.0" y="374.0" font-size="9" font-weight="normal" text-anchor="end" fill="#7f8c8d" font-family="Arial,sans-serif">-0.00242</text>
<line x1="65.0" y1="307.0" x2="70.0" y2="307.0" stroke="#999" stroke-width="1"/>
<line x1="70.0" y1="307.0" x2="510.0" y2="307.0" stroke="#e0e0e0" stroke-width="0.8" stroke-dasharray="3,3"/>
<text x="62.0" y="311.0" font-size="9" font-weight="normal" text-anchor="end" fill="#7f8c8d" font-family="Arial,sans-serif">0.00383</text>
<line x1="65.0" y1="244.0" x2="70.0" y2="244.0" stroke="#999" stroke-width="1"/>
<line x1="70.0" y1="244.0" x2="510.0" y2="244.0" stroke="#e0e0e0" stroke-width="0.8" stroke-dasharray="3,3"/>
<text x="62.0" y="248.0" font-size="9" font-weight="normal" text-anchor="end" fill="#7f8c8d" font-family="Arial,sans-serif">0.0101</text>
<line x1="65.0" y1="181.0" x2="70.0" y2="181.0" stroke="#999" stroke-width="1"/>
<line x1="70.0" y1="181.0" x2="510.0" y2="181.0" stroke="#e0e0e0" stroke-width="0.8" stroke-dasharray="3,3"/>
<text x="62.0" y="185.0" font-size="9" font-weight="normal" text-anchor="end" fill="#7f8c8d" font-family="Arial,sans-serif">0.0163</text>
<line x1="65.0" y1="118.0" x2="70.0" y2="118.0" stroke="#999" stroke-width="1"/>
<line x1="70.0" y1="118.0" x2="510.0" y2="118.0" stroke="#e0e0e0" stroke-width="0.8" stroke-dasharray="3,3"/>
<text x="62.0" y="122.0" font-size="9" font-weight="normal" text-anchor="end" fill="#7f8c8d" font-family="Arial,sans-serif">0.0226</text>
<line x1="65.0" y1="55.0" x2="70.0" y2="55.0" stroke="#999" stroke-width="1"/>
<line x1="70.0" y1="55.0" x2="510.0" y2="55.0" stroke="#e0e0e0" stroke-width="0.8" stroke-dasharray="3,3"/>
<text x="62.0" y="59.0" font-size="9" font-weight="normal" text-anchor="end" fill="#7f8c8d" font-family="Arial,sans-serif">0.0288</text>
<text x="14.0" y="215.0" font-size="11" font-weight="normal" text-anchor="middle" fill="#7f8c8d" font-family="Arial,sans-serif" transform="rotate(-90,14,215.0)">Value (ps)</text>
<rect x="255.0" y="252.8" width="70.0" height="54.4" fill="#3498db" stroke="#3498db" stroke-width="1.5" opacity="0.25" rx="2"/>
<line x1="255.0" y1="303.2" x2="325.0" y2="303.2" stroke="#3498db" stroke-width="2.5"/>
<line x1="290.0" y1="307.3" x2="290.0" y2="339.5" stroke="#3498db" stroke-width="1"/>
<line x1="290.0" y1="252.8" x2="290.0" y2="196.4" stroke="#3498db" stroke-width="1"/>
<line x1="272.5" y1="339.5" x2="307.5" y2="339.5" stroke="#3498db" stroke-width="1"/>
<line x1="272.5" y1="196.4" x2="307.5" y2="196.4" stroke="#3498db" stroke-width="1"/>
<circle cx="290.0" cy="158.1" r="3" fill="#3498db" stroke="none" opacity="0.8"/>
<circle cx="290.0" cy="158.1" r="3" fill="#3498db" stroke="none" opacity="0.8"/>
<circle cx="290.0" cy="156.0" r="3" fill="#3498db" stroke="none" opacity="0.8"/>
<circle cx="290.0" cy="156.0" r="3" fill="#3498db" stroke="none" opacity="0.8"/>
<circle cx="290.0" cy="156.0" r="3" fill="#3498db" stroke="none" opacity="0.8"/>
<circle cx="290.0" cy="154.0" r="3" fill="#3498db" stroke="none" opacity="0.8"/>
<circle cx="290.0" cy="154.0" r="3" fill="#3498db" stroke="none" opacity="0.8"/>
<circle cx="290.0" cy="154.0" r="3" fill="#3498db" stroke="none" opacity="0.8"/>
<circle cx="290.0" cy="154.0" r="3" fill="#3498db" stroke="none" opacity="0.8"/>
<circle cx="290.0" cy="152.0" r="3" fill="#3498db" stroke="none" opacity="0.8"/>
<circle cx="290.0" cy="152.0" r="3" fill="#3498db" stroke="none" opacity="0.8"/>
<circle cx="290.0" cy="152.0" r="3" fill="#3498db" stroke="none" opacity="0.8"/>
<circle cx="290.0" cy="152.0" r="3" fill="#3498db" stroke="none" opacity="0.8"/>
<circle cx="290.0" cy="152.0" r="3" fill="#3498db" stroke="none" opacity="0.8"/>
<circle cx="290.0" cy="152.0" r="3" fill="#3498db" stroke="none" opacity="0.8"/>
<circle cx="290.0" cy="152.0" r="3" fill="#3498db" stroke="none" opacity="0.8"/>
<circle cx="290.0" cy="150.0" r="3" fill="#3498db" stroke="none" opacity="0.8"/>
<circle cx="290.0" cy="150.0" r="3" fill="#3498db" stroke="none" opacity="0.8"/>
<circle cx="290.0" cy="150.0" r="3" fill="#3498db" stroke="none" opacity="0.8"/>
<circle cx="290.0" cy="150.0" r="3" fill="#3498db" stroke="none" opacity="0.8"/>
<circle cx="290.0" cy="150.0" r="3" fill="#3498db" stroke="none" opacity="0.8"/>
<circle cx="290.0" cy="150.0" r="3" fill="#3498db" stroke="none" opacity="0.8"/>
<circle cx="290.0" cy="148.0" r="3" fill="#3498db" stroke="none" opacity="0.8"/>
<circle cx="290.0" cy="148.0" r="3" fill="#3498db" stroke="none" opacity="0.8"/>
<circle cx="290.0" cy="148.0" r="3" fill="#3498db" stroke="none" opacity="0.8"/>
<circle cx="290.0" cy="148.0" r="3" fill="#3498db" stroke="none" opacity="0.8"/>
<circle cx="290.0" cy="148.0" r="3" fill="#3498db" stroke="none" opacity="0.8"/>
<circle cx="290.0" cy="148.0" r="3" fill="#3498db" stroke="none" opacity="0.8"/>
<circle cx="290.0" cy="148.0" r="3" fill="#3498db" stroke="none" opacity="0.8"/>
<circle cx="290.0" cy="148.0" r="3" fill="#3498db" stroke="none" opacity="0.8"/>
<circle cx="290.0" cy="148.0" r="3" fill="#3498db" stroke="none" opacity="0.8"/>
<circle cx="290.0" cy="146.0" r="3" fill="#3498db" stroke="none" opacity="0.8"/>
<circle cx="290.0" cy="146.0" r="3" fill="#3498db" stroke="none" opacity="0.8"/>
<circle cx="290.0" cy="146.0" r="3" fill="#3498db" stroke="none" opacity="0.8"/>
<circle cx="290.0" cy="146.0" r="3" fill="#3498db" stroke="none" opacity="0.8"/>
<circle cx="290.0" cy="146.0" r="3" fill="#3498db" stroke="none" opacity="0.8"/>
<circle cx="290.0" cy="146.0" r="3" fill="#3498db" stroke="none" opacity="0.8"/>
<circle cx="290.0" cy="146.0" r="3" fill="#3498db" stroke="none" opacity="0.8"/>
<circle cx="290.0" cy="146.0" r="3" fill="#3498db" stroke="none" opacity="0.8"/>
<circle cx="290.0" cy="146.0" r="3" fill="#3498db" stroke="none" opacity="0.8"/>
<circle cx="290.0" cy="146.0" r="3" fill="#3498db" stroke="none" opacity="0.8"/>
<circle cx="290.0" cy="146.0" r="3" fill="#3498db" stroke="none" opacity="0.8"/>
<circle cx="290.0" cy="146.0" r="3" fill="#3498db" stroke="none" opacity="0.8"/>
<circle cx="290.0" cy="146.0" r="3" fill="#3498db" stroke="none" opacity="0.8"/>
<circle cx="290.0" cy="146.0" r="3" fill="#3498db" stroke="none" opacity="0.8"/>
<circle cx="290.0" cy="144.0" r="3" fill="#3498db" stroke="none" opacity="0.8"/>
<circle cx="290.0" cy="144.0" r="3" fill="#3498db" stroke="none" opacity="0.8"/>
<circle cx="290.0" cy="144.0" r="3" fill="#3498db" stroke="none" opacity="0.8"/>
<circle cx="290.0" cy="144.0" r="3" fill="#3498db" stroke="none" opacity="0.8"/>
<circle cx="290.0" cy="144.0" r="3" fill="#3498db" stroke="none" opacity="0.8"/>
<circle cx="290.0" cy="144.0" r="3" fill="#3498db" stroke="none" opacity="0.8"/>
<circle cx="290.0" cy="144.0" r="3" fill="#3498db" stroke="none" opacity="0.8"/>
<circle cx="290.0" cy="144.0" r="3" fill="#3498db" stroke="none" opacity="0.8"/>
<circle cx="290.0" cy="141.9" r="3" fill="#3498db" stroke="none" opacity="0.8"/>
<circle cx="290.0" cy="141.9" r="3" fill="#3498db" stroke="none" opacity="0.8"/>
<circle cx="290.0" cy="141.9" r="3" fill="#3498db" stroke="none" opacity="0.8"/>
<circle cx="290.0" cy="141.9" r="3" fill="#3498db" stroke="none" opacity="0.8"/>
<circle cx="290.0" cy="141.9" r="3" fill="#3498db" stroke="none" opacity="0.8"/>
<circle cx="290.0" cy="141.9" r="3" fill="#3498db" stroke="none" opacity="0.8"/>
<circle cx="290.0" cy="141.9" r="3" fill="#3498db" stroke="none" opacity="0.8"/>
<circle cx="290.0" cy="139.9" r="3" fill="#3498db" stroke="none" opacity="0.8"/>
<circle cx="290.0" cy="139.9" r="3" fill="#3498db" stroke="none" opacity="0.8"/>
<circle cx="290.0" cy="137.9" r="3" fill="#3498db" stroke="none" opacity="0.8"/>
<circle cx="290.0" cy="137.9" r="3" fill="#3498db" stroke="none" opacity="0.8"/>
<circle cx="290.0" cy="137.9" r="3" fill="#3498db" stroke="none" opacity="0.8"/>
<circle cx="290.0" cy="137.9" r="3" fill="#3498db" stroke="none" opacity="0.8"/>
<circle cx="290.0" cy="137.9" r="3" fill="#3498db" stroke="none" opacity="0.8"/>
<circle cx="290.0" cy="135.9" r="3" fill="#3498db" stroke="none" opacity="0.8"/>
<circle cx="290.0" cy="135.9" r="3" fill="#3498db" stroke="none" opacity="0.8"/>
<circle cx="290.0" cy="135.9" r="3" fill="#3498db" stroke="none" opacity="0.8"/>
<circle cx="290.0" cy="133.9" r="3" fill="#3498db" stroke="none" opacity="0.8"/>
<circle cx="290.0" cy="133.9" r="3" fill="#3498db" stroke="none" opacity="0.8"/>
<circle cx="290.0" cy="133.9" r="3" fill="#3498db" stroke="none" opacity="0.8"/>
<circle cx="290.0" cy="133.9" r="3" fill="#3498db" stroke="none" opacity="0.8"/>
<circle cx="290.0" cy="133.9" r="3" fill="#3498db" stroke="none" opacity="0.8"/>
<circle cx="290.0" cy="133.9" r="3" fill="#3498db" stroke="none" opacity="0.8"/>
<circle cx="290.0" cy="131.9" r="3" fill="#3498db" stroke="none" opacity="0.8"/>
<circle cx="290.0" cy="131.9" r="3" fill="#3498db" stroke="none" opacity="0.8"/>
<circle cx="290.0" cy="131.9" r="3" fill="#3498db" stroke="none" opacity="0.8"/>
<circle cx="290.0" cy="131.9" r="3" fill="#3498db" stroke="none" opacity="0.8"/>
<circle cx="290.0" cy="129.8" r="3" fill="#3498db" stroke="none" opacity="0.8"/>
<circle cx="290.0" cy="129.8" r="3" fill="#3498db" stroke="none" opacity="0.8"/>
<circle cx="290.0" cy="129.8" r="3" fill="#3498db" stroke="none" opacity="0.8"/>
<circle cx="290.0" cy="127.8" r="3" fill="#3498db" stroke="none" opacity="0.8"/>
<circle cx="290.0" cy="127.8" r="3" fill="#3498db" stroke="none" opacity="0.8"/>
<circle cx="290.0" cy="125.8" r="3" fill="#3498db" stroke="none" opacity="0.8"/>
<circle cx="290.0" cy="125.8" r="3" fill="#3498db" stroke="none" opacity="0.8"/>
<circle cx="290.0" cy="125.8" r="3" fill="#3498db" stroke="none" opacity="0.8"/>
<circle cx="290.0" cy="123.8" r="3" fill="#3498db" stroke="none" opacity="0.8"/>
<circle cx="290.0" cy="123.8" r="3" fill="#3498db" stroke="none" opacity="0.8"/>
<circle cx="290.0" cy="123.8" r="3" fill="#3498db" stroke="none" opacity="0.8"/>
<circle cx="290.0" cy="121.8" r="3" fill="#3498db" stroke="none" opacity="0.8"/>
<circle cx="290.0" cy="121.8" r="3" fill="#3498db" stroke="none" opacity="0.8"/>
<circle cx="290.0" cy="121.8" r="3" fill="#3498db" stroke="none" opacity="0.8"/>
<circle cx="290.0" cy="119.8" r="3" fill="#3498db" stroke="none" opacity="0.8"/>
<circle cx="290.0" cy="115.7" r="3" fill="#3498db" stroke="none" opacity="0.8"/>
<circle cx="290.0" cy="115.7" r="3" fill="#3498db" stroke="none" opacity="0.8"/>
<circle cx="290.0" cy="115.7" r="3" fill="#3498db" stroke="none" opacity="0.8"/>
<circle cx="290.0" cy="115.7" r="3" fill="#3498db" stroke="none" opacity="0.8"/>
<circle cx="290.0" cy="115.7" r="3" fill="#3498db" stroke="none" opacity="0.8"/>
<circle cx="290.0" cy="115.7" r="3" fill="#3498db" stroke="none" opacity="0.8"/>
<circle cx="290.0" cy="113.7" r="3" fill="#3498db" stroke="none" opacity="0.8"/>
<circle cx="290.0" cy="113.7" r="3" fill="#3498db" stroke="none" opacity="0.8"/>
<circle cx="290.0" cy="111.7" r="3" fill="#3498db" stroke="none" opacity="0.8"/>
<circle cx="290.0" cy="111.7" r="3" fill="#3498db" stroke="none" opacity="0.8"/>
<circle cx="290.0" cy="111.7" r="3" fill="#3498db" stroke="none" opacity="0.8"/>
<circle cx="290.0" cy="111.7" r="3" fill="#3498db" stroke="none" opacity="0.8"/>
<circle cx="290.0" cy="111.7" r="3" fill="#3498db" stroke="none" opacity="0.8"/>
<circle cx="290.0" cy="111.7" r="3" fill="#3498db" stroke="none" opacity="0.8"/>
<circle cx="290.0" cy="111.7" r="3" fill="#3498db" stroke="none" opacity="0.8"/>
<circle cx="290.0" cy="111.7" r="3" fill="#3498db" stroke="none" opacity="0.8"/>
<circle cx="290.0" cy="109.7" r="3" fill="#3498db" stroke="none" opacity="0.8"/>
<circle cx="290.0" cy="109.7" r="3" fill="#3498db" stroke="none" opacity="0.8"/>
<circle cx="290.0" cy="109.7" r="3" fill="#3498db" stroke="none" opacity="0.8"/>
<circle cx="290.0" cy="109.7" r="3" fill="#3498db" stroke="none" opacity="0.8"/>
<circle cx="290.0" cy="109.7" r="3" fill="#3498db" stroke="none" opacity="0.8"/>
<circle cx="290.0" cy="109.7" r="3" fill="#3498db" stroke="none" opacity="0.8"/>
<circle cx="290.0" cy="109.7" r="3" fill="#3498db" stroke="none" opacity="0.8"/>
<circle cx="290.0" cy="109.7" r="3" fill="#3498db" stroke="none" opacity="0.8"/>
<circle cx="290.0" cy="109.7" r="3" fill="#3498db" stroke="none" opacity="0.8"/>
<circle cx="290.0" cy="109.7" r="3" fill="#3498db" stroke="none" opacity="0.8"/>
<circle cx="290.0" cy="107.7" r="3" fill="#3498db" stroke="none" opacity="0.8"/>
<circle cx="290.0" cy="107.7" r="3" fill="#3498db" stroke="none" opacity="0.8"/>
<circle cx="290.0" cy="107.7" r="3" fill="#3498db" stroke="none" opacity="0.8"/>
<circle cx="290.0" cy="105.6" r="3" fill="#3498db" stroke="none" opacity="0.8"/>
<circle cx="290.0" cy="105.6" r="3" fill="#3498db" stroke="none" opacity="0.8"/>
<circle cx="290.0" cy="105.6" r="3" fill="#3498db" stroke="none" opacity="0.8"/>
<circle cx="290.0" cy="105.6" r="3" fill="#3498db" stroke="none" opacity="0.8"/>
<circle cx="290.0" cy="103.6" r="3" fill="#3498db" stroke="none" opacity="0.8"/>
<circle cx="290.0" cy="103.6" r="3" fill="#3498db" stroke="none" opacity="0.8"/>
<circle cx="290.0" cy="103.6" r="3" fill="#3498db" stroke="none" opacity="0.8"/>
<circle cx="290.0" cy="103.6" r="3" fill="#3498db" stroke="none" opacity="0.8"/>
<circle cx="290.0" cy="101.6" r="3" fill="#3498db" stroke="none" opacity="0.8"/>
<circle cx="290.0" cy="101.6" r="3" fill="#3498db" stroke="none" opacity="0.8"/>
<circle cx="290.0" cy="101.6" r="3" fill="#3498db" stroke="none" opacity="0.8"/>
<circle cx="290.0" cy="101.6" r="3" fill="#3498db" stroke="none" opacity="0.8"/>
<circle cx="290.0" cy="101.6" r="3" fill="#3498db" stroke="none" opacity="0.8"/>
<circle cx="290.0" cy="101.6" r="3" fill="#3498db" stroke="none" opacity="0.8"/>
<circle cx="290.0" cy="101.6" r="3" fill="#3498db" stroke="none" opacity="0.8"/>
<circle cx="290.0" cy="101.6" r="3" fill="#3498db" stroke="none" opacity="0.8"/>
<circle cx="290.0" cy="99.6" r="3" fill="#3498db" stroke="none" opacity="0.8"/>
<circle cx="290.0" cy="99.6" r="3" fill="#3498db" stroke="none" opacity="0.8"/>
<circle cx="290.0" cy="99.6" r="3" fill="#3498db" stroke="none" opacity="0.8"/>
<circle cx="290.0" cy="97.6" r="3" fill="#3498db" stroke="none" opacity="0.8"/>
<circle cx="290.0" cy="97.6" r="3" fill="#3498db" stroke="none" opacity="0.8"/>
<circle cx="290.0" cy="95.6" r="3" fill="#3498db" stroke="none" opacity="0.8"/>
<circle cx="290.0" cy="85.5" r="3" fill="#3498db" stroke="none" opacity="0.8"/>
<text x="290.0" y="388.0" font-size="11" font-weight="normal" text-anchor="middle" fill="#333" font-family="Arial,sans-serif">Flow2</text>
<rect x="515.0" y="55.0" width="10.0" height="10.0" fill="#3498db" stroke="none" stroke-width="1" opacity="0.7" rx="2"/>
<text x="528.0" y="64.0" font-size="9" font-weight="normal" text-anchor="start" fill="#333" font-family="Arial,sans-serif">Flow2</text>
</svg>