<svg xmlns="http://www.w3.org/2000/svg" width="900" height="450" viewBox="0 0 900 450">
<rect width="900" height="450" fill="#ffffff"/>
<text x="450.0" y="28.0" font-size="16" font-weight="bold" text-anchor="middle" fill="#2c3e50" font-family="Arial,sans-serif">BRI_DT_R_High - Measured vs Spec (Ohm)</text>
<line x1="70.0" y1="390.0" x2="810.0" y2="390.0" stroke="#999" stroke-width="1"/>
<line x1="70.0" y1="55.0" x2="70.0" y2="390.0" stroke="#999" stroke-width="1"/>
<line x1="65.0" y1="390.0" x2="70.0" y2="390.0" stroke="#999" stroke-width="1"/>
<line x1="70.0" y1="390.0" x2="810.0" y2="390.0" stroke="#e0e0e0" stroke-width="0.8" stroke-dasharray="3,3"/>
<text x="62.0" y="394.0" font-size="9" font-weight="normal" text-anchor="end" fill="#7f8c8d" font-family="Arial,sans-serif">8.27</text>
<line x1="65.0" y1="323.0" x2="70.0" y2="323.0" stroke="#999" stroke-width="1"/>
<line x1="70.0" y1="323.0" x2="810.0" y2="323.0" stroke="#e0e0e0" stroke-width="0.8" stroke-dasharray="3,3"/>
<text x="62.0" y="327.0" font-size="9" font-weight="normal" text-anchor="end" fill="#7f8c8d" font-family="Arial,sans-serif">13.7</text>
<line x1="65.0" y1="256.0" x2="70.0" y2="256.0" stroke="#999" stroke-width="1"/>
<line x1="70.0" y1="256.0" x2="810.0" y2="256.0" stroke="#e0e0e0" stroke-width="0.8" stroke-dasharray="3,3"/>
<text x="62.0" y="260.0" font-size="9" font-weight="normal" text-anchor="end" fill="#7f8c8d" font-family="Arial,sans-serif">19.2</text>
<line x1="65.0" y1="189.0" x2="70.0" y2="189.0" stroke="#999" stroke-width="1"/>
<line x1="70.0" y1="189.0" x2="810.0" y2="189.0" stroke="#e0e0e0" stroke-width="0.8" stroke-dasharray="3,3"/>
<text x="62.0" y="193.0" font-size="9" font-weight="normal" text-anchor="end" fill="#7f8c8d" font-family="Arial,sans-serif">24.7</text>
<line x1="65.0" y1="122.0" x2="70.0" y2="122.0" stroke="#999" stroke-width="1"/>
<line x1="70.0" y1="122.0" x2="810.0" y2="122.0" stroke="#e0e0e0" stroke-width="0.8" stroke-dasharray="3,3"/>
<text x="62.0" y="126.0" font-size="9" font-weight="normal" text-anchor="end" fill="#7f8c8d" font-family="Arial,sans-serif">30.1</text>
<line x1="65.0" y1="55.0" x2="70.0" y2="55.0" stroke="#999" stroke-width="1"/>
<line x1="70.0" y1="55.0" x2="810.0" y2="55.0" stroke="#e0e0e0" stroke-width="0.8" stroke-dasharray="3,3"/>
<text x="62.0" y="59.0" font-size="9" font-weight="normal" text-anchor="end" fill="#7f8c8d" font-family="Arial,sans-serif">35.6</text>
<text x="14.0" y="225.0" font-size="11" font-weight="normal" text-anchor="middle" fill="#7f8c8d" font-family="Arial,sans-serif" transform="rotate(-90,14,225.0)">Value (Ohm)</text>
<rect x="405.0" y="237.3" width="70.0" height="72.7" fill="#3498db" stroke="#3498db" stroke-width="1.5" opacity="0.25" rx="2"/>
<line x1="405.0" y1="281.9" x2="475.0" y2="281.9" stroke="#3498db" stroke-width="2.5"/>
<line x1="440.0" y1="310.0" x2="440.0" y2="338.7" stroke="#3498db" stroke-width="1"/>
<line x1="440.0" y1="237.3" x2="440.0" y2="128.5" stroke="#3498db" stroke-width="1"/>
<line x1="422.5" y1="338.7" x2="457.5" y2="338.7" stroke="#3498db" stroke-width="1"/>
<line x1="422.5" y1="128.5" x2="457.5" y2="128.5" stroke="#3498db" stroke-width="1"/>
<circle cx="440.0" cy="128.3" r="3" fill="#3498db" stroke="none" opacity="0.8"/>
<circle cx="440.0" cy="128.2" r="3" fill="#3498db" stroke="none" opacity="0.8"/>
<circle cx="440.0" cy="128.2" r="3" fill="#3498db" stroke="none" opacity="0.8"/>
<circle cx="440.0" cy="128.0" r="3" fill="#3498db" stroke="none" opacity="0.8"/>
<circle cx="440.0" cy="128.0" r="3" fill="#3498db" stroke="none" opacity="0.8"/>
<circle cx="440.0" cy="127.6" r="3" fill="#3498db" stroke="none" opacity="0.8"/>
<circle cx="440.0" cy="127.4" r="3" fill="#3498db" stroke="none" opacity="0.8"/>
<circle cx="440.0" cy="127.3" r="3" fill="#3498db" stroke="none" opacity="0.8"/>
<circle cx="440.0" cy="127.3" r="3" fill="#3498db" stroke="none" opacity="0.8"/>
<circle cx="440.0" cy="126.8" r="3" fill="#3498db" stroke="none" opacity="0.8"/>
<circle cx="440.0" cy="125.9" r="3" fill="#3498db" stroke="none" opacity="0.8"/>
<circle cx="440.0" cy="124.9" r="3" fill="#3498db" stroke="none" opacity="0.8"/>
<circle cx="440.0" cy="124.6" r="3" fill="#3498db" stroke="none" opacity="0.8"/>
<circle cx="440.0" cy="124.2" r="3" fill="#3498db" stroke="none" opacity="0.8"/>
<circle cx="440.0" cy="124.1" r="3" fill="#3498db" stroke="none" opacity="0.8"/>
<circle cx="440.0" cy="123.8" r="3" fill="#3498db" stroke="none" opacity="0.8"/>
<circle cx="440.0" cy="123.7" r="3" fill="#3498db" stroke="none" opacity="0.8"/>
<circle cx="440.0" cy="123.4" r="3" fill="#3498db" stroke="none" opacity="0.8"/>
<circle cx="440.0" cy="123.3" r="3" fill="#3498db" stroke="none" opacity="0.8"/>
<circle cx="440.0" cy="123.2" r="3" fill="#3498db" stroke="none" opacity="0.8"/>
<circle cx="440.0" cy="123.1" r="3" fill="#3498db" stroke="none" opacity="0.8"/>
<circle cx="440.0" cy="122.1" r="3" fill="#3498db" stroke="none" opacity="0.8"/>
<circle cx="440.0" cy="121.7" r="3" fill="#3498db" stroke="none" opacity="0.8"/>
<circle cx="440.0" cy="121.2" r="3" fill="#3498db" stroke="none" opacity="0.8"/>
<circle cx="440.0" cy="121.1" r="3" fill="#3498db" stroke="none" opacity="0.8"/>
<circle cx="440.0" cy="120.9" r="3" fill="#3498db" stroke="none" opacity="0.8"/>
<circle cx="440.0" cy="120.7" r="3" fill="#3498db" stroke="none" opacity="0.8"/>
<circle cx="440.0" cy="120.3" r="3" fill="#3498db" stroke="none" opacity="0.8"/>
<circle cx="440.0" cy="120.1" r="3" fill="#3498db" stroke="none" opacity="0.8"/>
<circle cx="440.0" cy="119.9" r="3" fill="#3498db" stroke="none" opacity="0.8"/>
<circle cx="440.0" cy="119.8" r="3" fill="#3498db" stroke="none" opacity="0.8"/>
<circle cx="440.0" cy="119.2" r="3" fill="#3498db" stroke="none" opacity="0.8"/>
<circle cx="440.0" cy="119.1" r="3" fill="#3498db" stroke="none" opacity="0.8"/>
<circle cx="440.0" cy="119.1" r="3" fill="#3498db" stroke="none" opacity="0.8"/>
<circle cx="440.0" cy="118.3" r="3" fill="#3498db" stroke="none" opacity="0.8"/>
<circle cx="440.0" cy="117.7" r="3" fill="#3498db" stroke="none" opacity="0.8"/>
<circle cx="440.0" cy="116.5" r="3" fill="#3498db" stroke="none" opacity="0.8"/>
<circle cx="440.0" cy="116.1" r="3" fill="#3498db" stroke="none" opacity="0.8"/>
<circle cx="440.0" cy="116.0" r="3" fill="#3498db" stroke="none" opacity="0.8"/>
<circle cx="440.0" cy="115.3" r="3" fill="#3498db" stroke="none" opacity="0.8"/>
<circle cx="440.0" cy="114.8" r="3" fill="#3498db" stroke="none" opacity="0.8"/>
<circle cx="440.0" cy="114.7" r="3" fill="#3498db" stroke="none" opacity="0.8"/>
<circle cx="440.0" cy="114.3" r="3" fill="#3498db" stroke="none" opacity="0.8"/>
<circle cx="440.0" cy="113.6" r="3" fill="#3498db" stroke="none" opacity="0.8"/>
<circle cx="440.0" cy="113.0" r="3" fill="#3498db" stroke="none" opacity="0.8"/>
<circle cx="440.0" cy="112.4" r="3" fill="#3498db" stroke="none" opacity="0.8"/>
<circle cx="440.0" cy="111.6" r="3" fill="#3498db" stroke="none" opacity="0.8"/>
<circle cx="440.0" cy="111.5" r="3" fill="#3498db" stroke="none" opacity="0.8"/>
<circle cx="440.0" cy="111.4" r="3" fill="#3498db" stroke="none" opacity="0.8"/>
<circle cx="440.0" cy="111.2" r="3" fill="#3498db" stroke="none" opacity="0.8"/>
<circle cx="440.0" cy="110.9" r="3" fill="#3498db" stroke="none" opacity="0.8"/>
<circle cx="440.0" cy="110.8" r="3" fill="#3498db" stroke="none" opacity="0.8"/>
<circle cx="440.0" cy="110.4" r="3" fill="#3498db" stroke="none" opacity="0.8"/>
<circle cx="440.0" cy="110.2" r="3" fill="#3498db" stroke="none" opacity="0.8"/>
<circle cx="440.0" cy="109.7" r="3" fill="#3498db" stroke="none" opacity="0.8"/>
<circle cx="440.0" cy="108.4" r="3" fill="#3498db" stroke="none" opacity="0.8"/>
<circle cx="440.0" cy="107.6" r="3" fill="#3498db" stroke="none" opacity="0.8"/>
<circle cx="440.0" cy="107.5" r="3" fill="#3498db" stroke="none" opacity="0.8"/>
<circle cx="440.0" cy="107.3" r="3" fill="#3498db" stroke="none" opacity="0.8"/>
<circle cx="440.0" cy="106.9" r="3" fill="#3498db" stroke="none" opacity="0.8"/>
<circle cx="440.0" cy="103.5" r="3" fill="#3498db" stroke="none" opacity="0.8"/>
<circle cx="440.0" cy="102.6" r="3" fill="#3498db" stroke="none" opacity="0.8"/>
<circle cx="440.0" cy="101.9" r="3" fill="#3498db" stroke="none" opacity="0.8"/>
<circle cx="440.0" cy="99.5" r="3" fill="#3498db" stroke="none" opacity="0.8"/>
<circle cx="440.0" cy="98.8" r="3" fill="#3498db" stroke="none" opacity="0.8"/>
<circle cx="440.0" cy="98.4" r="3" fill="#3498db" stroke="none" opacity="0.8"/>
<circle cx="440.0" cy="97.3" r="3" fill="#3498db" stroke="none" opacity="0.8"/>
<circle cx="440.0" cy="97.0" r="3" fill="#3498db" stroke="none" opacity="0.8"/>
<circle cx="440.0" cy="95.7" r="3" fill="#3498db" stroke="none" opacity="0.8"/>
<circle cx="440.0" cy="94.5" r="3" fill="#3498db" stroke="none" opacity="0.8"/>
<circle cx="440.0" cy="94.2" r="3" fill="#3498db" stroke="none" opacity="0.8"/>
<circle cx="440.0" cy="93.6" r="3" fill="#3498db" stroke="none" opacity="0.8"/>
<circle cx="440.0" cy="93.3" r="3" fill="#3498db" stroke="none" opacity="0.8"/>
<circle cx="440.0" cy="93.1" r="3" fill="#3498db" stroke="none" opacity="0.8"/>
<circle cx="440.0" cy="91.2" r="3" fill="#3498db" stroke="none" opacity="0.8"/>
<circle cx="440.0" cy="91.0" r="3" fill="#3498db" stroke="none" opacity="0.8"/>
<circle cx="440.0" cy="89.4" r="3" fill="#3498db" stroke="none" opacity="0.8"/>
<circle cx="440.0" cy="88.8" r="3" fill="#3498db" stroke="none" opacity="0.8"/>
<circle cx="440.0" cy="88.6" r="3" fill="#3498db" stroke="none" opacity="0.8"/>
<circle cx="440.0" cy="88.3" r="3" fill="#3498db" stroke="none" opacity="0.8"/>
<circle cx="440.0" cy="87.8" r="3" fill="#3498db" stroke="none" opacity="0.8"/>
<circle cx="440.0" cy="86.5" r="3" fill="#3498db" stroke="none" opacity="0.8"/>
<circle cx="440.0" cy="84.6" r="3" fill="#3498db" stroke="none" opacity="0.8"/>
<circle cx="440.0" cy="84.2" r="3" fill="#3498db" stroke="none" opacity="0.8"/>
<circle cx="440.0" cy="84.2" r="3" fill="#3498db" stroke="none" opacity="0.8"/>
<circle cx="440.0" cy="84.1" r="3" fill="#3498db" stroke="none" opacity="0.8"/>
<circle cx="440.0" cy="84.0" r="3" fill="#3498db" stroke="none" opacity="0.8"/>
<circle cx="440.0" cy="83.6" r="3" fill="#3498db" stroke="none" opacity="0.8"/>
<circle cx="440.0" cy="83.0" r="3" fill="#3498db" stroke="none" opacity="0.8"/>
<circle cx="440.0" cy="82.4" r="3" fill="#3498db" stroke="none" opacity="0.8"/>
<circle cx="440.0" cy="82.4" r="3" fill="#3498db" stroke="none" opacity="0.8"/>
<circle cx="440.0" cy="81.2" r="3" fill="#3498db" stroke="none" opacity="0.8"/>
<circle cx="440.0" cy="79.9" r="3" fill="#3498db" stroke="none" opacity="0.8"/>
<circle cx="440.0" cy="79.4" r="3" fill="#3498db" stroke="none" opacity="0.8"/>
<circle cx="440.0" cy="79.1" r="3" fill="#3498db" stroke="none" opacity="0.8"/>
<circle cx="440.0" cy="72.3" r="3" fill="#3498db" stroke="none" opacity="0.8"/>
<circle cx="440.0" cy="71.0" r="3" fill="#3498db" stroke="none" opacity="0.8"/>
<circle cx="440.0" cy="67.1" r="3" fill="#3498db" stroke="none" opacity="0.8"/>
<circle cx="440.0" cy="65.3" r="3" fill="#3498db" stroke="none" opacity="0.8"/>
<circle cx="440.0" cy="64.9" r="3" fill="#3498db" stroke="none" opacity="0.8"/>
<circle cx="440.0" cy="61.8" r="3" fill="#3498db" stroke="none" opacity="0.8"/>
<circle cx="440.0" cy="61.7" r="3" fill="#3498db" stroke="none" opacity="0.8"/>
<circle cx="440.0" cy="60.7" r="3" fill="#3498db" stroke="none" opacity="0.8"/>
<text x="440.0" y="408.0" font-size="11" font-weight="normal" text-anchor="middle" fill="#333" font-family="Arial,sans-serif">Flow1</text>
<rect x="815.0" y="55.0" width="10.0" height="10.0" fill="#3498db" stroke="none" stroke-width="1" opacity="0.7" rx="2"/>
<text x="828.0" y="64.0" font-size="9" font-weight="normal" text-anchor="start" fill="#333" font-family="Arial,sans-serif">Flow1</text>
</svg>