<svg xmlns="http://www.w3.org/2000/svg" width="600" height="430" viewBox="0 0 600 430">
<rect width="600" height="430" fill="#ffffff"/>
<text x="300.0" y="28.0" font-size="16" font-weight="bold" text-anchor="middle" fill="#2c3e50" font-family="Arial,sans-serif">BRI_DT_R_High - Measured vs Spec (Ohm)</text>
<line x1="70.0" y1="370.0" x2="510.0" y2="370.0" stroke="#999" stroke-width="1"/>
<line x1="70.0" y1="55.0" x2="70.0" y2="370.0" stroke="#999" stroke-width="1"/>
<line x1="65.0" y1="370.0" x2="70.0" y2="370.0" stroke="#999" stroke-width="1"/>
<line x1="70.0" y1="370.0" x2="510.0" y2="370.0" stroke="#e0e0e0" stroke-width="0.8" stroke-dasharray="3,3"/>
<text x="62.0" y="374.0" font-size="9" font-weight="normal" text-anchor="end" fill="#7f8c8d" font-family="Arial,sans-serif">9.73</text>
<line x1="65.0" y1="307.0" x2="70.0" y2="307.0" stroke="#999" stroke-width="1"/>
<line x1="70.0" y1="307.0" x2="510.0" y2="307.0" stroke="#e0e0e0" stroke-width="0.8" stroke-dasharray="3,3"/>
<text x="62.0" y="311.0" font-size="9" font-weight="normal" text-anchor="end" fill="#7f8c8d" font-family="Arial,sans-serif">15.4</text>
<line x1="65.0" y1="244.0" x2="70.0" y2="244.0" stroke="#999" stroke-width="1"/>
<line x1="70.0" y1="244.0" x2="510.0" y2="244.0" stroke="#e0e0e0" stroke-width="0.8" stroke-dasharray="3,3"/>
<text x="62.0" y="248.0" font-size="9" font-weight="normal" text-anchor="end" fill="#7f8c8d" font-family="Arial,sans-serif">21</text>
<line x1="65.0" y1="181.0" x2="70.0" y2="181.0" stroke="#999" stroke-width="1"/>
<line x1="70.0" y1="181.0" x2="510.0" y2="181.0" stroke="#e0e0e0" stroke-width="0.8" stroke-dasharray="3,3"/>
<text x="62.0" y="185.0" font-size="9" font-weight="normal" text-anchor="end" fill="#7f8c8d" font-family="Arial,sans-serif">26.6</text>
<line x1="65.0" y1="118.0" x2="70.0" y2="118.0" stroke="#999" stroke-width="1"/>
<line x1="70.0" y1="118.0" x2="510.0" y2="118.0" stroke="#e0e0e0" stroke-width="0.8" stroke-dasharray="3,3"/>
<text x="62.0" y="122.0" font-size="9" font-weight="normal" text-anchor="end" fill="#7f8c8d" font-family="Arial,sans-serif">32.2</text>
<line x1="65.0" y1="55.0" x2="70.0" y2="55.0" stroke="#999" stroke-width="1"/>
<line x1="70.0" y1="55.0" x2="510.0" y2="55.0" stroke="#e0e0e0" stroke-width="0.8" stroke-dasharray="3,3"/>
<text x="62.0" y="59.0" font-size="9" font-weight="normal" text-anchor="end" fill="#7f8c8d" font-family="Arial,sans-serif">37.8</text>
<text x="14.0" y="215.0" font-size="11" font-weight="normal" text-anchor="middle" fill="#7f8c8d" font-family="Arial,sans-serif" transform="rotate(-90,14,215.0)">Value (Ohm)</text>
<rect x="255.0" y="246.9" width="70.0" height="66.4" fill="#3498db" stroke="#3498db" stroke-width="1.5" opacity="0.25" rx="2"/>
<line x1="255.0" y1="287.6" x2="325.0" y2="287.6" stroke="#3498db" stroke-width="2.5"/>
<line x1="290.0" y1="313.3" x2="290.0" y2="339.5" stroke="#3498db" stroke-width="1"/>
<line x1="290.0" y1="246.9" x2="290.0" y2="147.5" stroke="#3498db" stroke-width="1"/>
<line x1="272.5" y1="339.5" x2="307.5" y2="339.5" stroke="#3498db" stroke-width="1"/>
<line x1="272.5" y1="147.5" x2="307.5" y2="147.5" stroke="#3498db" stroke-width="1"/>
<circle cx="290.0" cy="147.3" r="3" fill="#3498db" stroke="none" opacity="0.8"/>
<circle cx="290.0" cy="147.2" r="3" fill="#3498db" stroke="none" opacity="0.8"/>
<circle cx="290.0" cy="147.2" r="3" fill="#3498db" stroke="none" opacity="0.8"/>
<circle cx="290.0" cy="147.0" r="3" fill="#3498db" stroke="none" opacity="0.8"/>
<circle cx="290.0" cy="147.0" r="3" fill="#3498db" stroke="none" opacity="0.8"/>
<circle cx="290.0" cy="146.6" r="3" fill="#3498db" stroke="none" opacity="0.8"/>
<circle cx="290.0" cy="146.5" r="3" fill="#3498db" stroke="none" opacity="0.8"/>
<circle cx="290.0" cy="146.3" r="3" fill="#3498db" stroke="none" opacity="0.8"/>
<circle cx="290.0" cy="146.3" r="3" fill="#3498db" stroke="none" opacity="0.8"/>
<circle cx="290.0" cy="145.9" r="3" fill="#3498db" stroke="none" opacity="0.8"/>
<circle cx="290.0" cy="145.0" r="3" fill="#3498db" stroke="none" opacity="0.8"/>
<circle cx="290.0" cy="144.2" r="3" fill="#3498db" stroke="none" opacity="0.8"/>
<circle cx="290.0" cy="143.9" r="3" fill="#3498db" stroke="none" opacity="0.8"/>
<circle cx="290.0" cy="143.5" r="3" fill="#3498db" stroke="none" opacity="0.8"/>
<circle cx="290.0" cy="143.5" r="3" fill="#3498db" stroke="none" opacity="0.8"/>
<circle cx="290.0" cy="143.1" r="3" fill="#3498db" stroke="none" opacity="0.8"/>
<circle cx="290.0" cy="143.1" r="3" fill="#3498db" stroke="none" opacity="0.8"/>
<circle cx="290.0" cy="142.8" r="3" fill="#3498db" stroke="none" opacity="0.8"/>
<circle cx="290.0" cy="142.7" r="3" fill="#3498db" stroke="none" opacity="0.8"/>
<circle cx="290.0" cy="142.6" r="3" fill="#3498db" stroke="none" opacity="0.8"/>
<circle cx="290.0" cy="142.5" r="3" fill="#3498db" stroke="none" opacity="0.8"/>
<circle cx="290.0" cy="141.6" r="3" fill="#3498db" stroke="none" opacity="0.8"/>
<circle cx="290.0" cy="141.2" r="3" fill="#3498db" stroke="none" opacity="0.8"/>
<circle cx="290.0" cy="140.8" r="3" fill="#3498db" stroke="none" opacity="0.8"/>
<circle cx="290.0" cy="140.7" r="3" fill="#3498db" stroke="none" opacity="0.8"/>
<circle cx="290.0" cy="140.5" r="3" fill="#3498db" stroke="none" opacity="0.8"/>
<circle cx="290.0" cy="140.3" r="3" fill="#3498db" stroke="none" opacity="0.8"/>
<circle cx="290.0" cy="140.0" r="3" fill="#3498db" stroke="none" opacity="0.8"/>
<circle cx="290.0" cy="139.8" r="3" fill="#3498db" stroke="none" opacity="0.8"/>
<circle cx="290.0" cy="139.6" r="3" fill="#3498db" stroke="none" opacity="0.8"/>
<circle cx="290.0" cy="139.5" r="3" fill="#3498db" stroke="none" opacity="0.8"/>
<circle cx="290.0" cy="138.9" r="3" fill="#3498db" stroke="none" opacity="0.8"/>
<circle cx="290.0" cy="138.9" r="3" fill="#3498db" stroke="none" opacity="0.8"/>
<circle cx="290.0" cy="138.8" r="3" fill="#3498db" stroke="none" opacity="0.8"/>
<circle cx="290.0" cy="138.2" r="3" fill="#3498db" stroke="none" opacity="0.8"/>
<circle cx="290.0" cy="137.6" r="3" fill="#3498db" stroke="none" opacity="0.8"/>
<circle cx="290.0" cy="136.5" r="3" fill="#3498db" stroke="none" opacity="0.8"/>
<circle cx="290.0" cy="136.1" r="3" fill="#3498db" stroke="none" opacity="0.8"/>
<circle cx="290.0" cy="136.0" r="3" fill="#3498db" stroke="none" opacity="0.8"/>
<circle cx="290.0" cy="135.4" r="3" fill="#3498db" stroke="none" opacity="0.8"/>
<circle cx="290.0" cy="134.9" r="3" fill="#3498db" stroke="none" opacity="0.8"/>
<circle cx="290.0" cy="134.8" r="3" fill="#3498db" stroke="none" opacity="0.8"/>
<circle cx="290.0" cy="134.5" r="3" fill="#3498db" stroke="none" opacity="0.8"/>
<circle cx="290.0" cy="133.9" r="3" fill="#3498db" stroke="none" opacity="0.8"/>
<circle cx="290.0" cy="133.3" r="3" fill="#3498db" stroke="none" opacity="0.8"/>
<circle cx="290.0" cy="132.7" r="3" fill="#3498db" stroke="none" opacity="0.8"/>
<circle cx="290.0" cy="132.0" r="3" fill="#3498db" stroke="none" opacity="0.8"/>
<circle cx="290.0" cy="132.0" r="3" fill="#3498db" stroke="none" opacity="0.8"/>
<circle cx="290.0" cy="131.9" r="3" fill="#3498db" stroke="none" opacity="0.8"/>
<circle cx="290.0" cy="131.7" r="3" fill="#3498db" stroke="none" opacity="0.8"/>
<circle cx="290.0" cy="131.4" r="3" fill="#3498db" stroke="none" opacity="0.8"/>
<circle cx="290.0" cy="131.3" r="3" fill="#3498db" stroke="none" opacity="0.8"/>
<circle cx="290.0" cy="130.9" r="3" fill="#3498db" stroke="none" opacity="0.8"/>
<circle cx="290.0" cy="130.8" r="3" fill="#3498db" stroke="none" opacity="0.8"/>
<circle cx="290.0" cy="130.3" r="3" fill="#3498db" stroke="none" opacity="0.8"/>
<circle cx="290.0" cy="129.1" r="3" fill="#3498db" stroke="none" opacity="0.8"/>
<circle cx="290.0" cy="128.3" r="3" fill="#3498db" stroke="none" opacity="0.8"/>
<circle cx="290.0" cy="128.3" r="3" fill="#3498db" stroke="none" opacity="0.8"/>
<circle cx="290.0" cy="128.1" r="3" fill="#3498db" stroke="none" opacity="0.8"/>
<circle cx="290.0" cy="127.7" r="3" fill="#3498db" stroke="none" opacity="0.8"/>
<circle cx="290.0" cy="124.7" r="3" fill="#3498db" stroke="none" opacity="0.8"/>
<circle cx="290.0" cy="123.8" r="3" fill="#3498db" stroke="none" opacity="0.8"/>
<circle cx="290.0" cy="123.1" r="3" fill="#3498db" stroke="none" opacity="0.8"/>
<circle cx="290.0" cy="121.0" r="3" fill="#3498db" stroke="none" opacity="0.8"/>
<circle cx="290.0" cy="120.3" r="3" fill="#3498db" stroke="none" opacity="0.8"/>
<circle cx="290.0" cy="119.9" r="3" fill="#3498db" stroke="none" opacity="0.8"/>
<circle cx="290.0" cy="118.9" r="3" fill="#3498db" stroke="none" opacity="0.8"/>
<circle cx="290.0" cy="118.7" r="3" fill="#3498db" stroke="none" opacity="0.8"/>
<circle cx="290.0" cy="117.5" r="3" fill="#3498db" stroke="none" opacity="0.8"/>
<circle cx="290.0" cy="116.4" r="3" fill="#3498db" stroke="none" opacity="0.8"/>
<circle cx="290.0" cy="116.1" r="3" fill="#3498db" stroke="none" opacity="0.8"/>
<circle cx="290.0" cy="115.5" r="3" fill="#3498db" stroke="none" opacity="0.8"/>
<circle cx="290.0" cy="115.3" r="3" fill="#3498db" stroke="none" opacity="0.8"/>
<circle cx="290.0" cy="115.2" r="3" fill="#3498db" stroke="none" opacity="0.8"/>
<circle cx="290.0" cy="113.4" r="3" fill="#3498db" stroke="none" opacity="0.8"/>
<circle cx="290.0" cy="113.2" r="3" fill="#3498db" stroke="none" opacity="0.8"/>
<circle cx="290.0" cy="111.7" r="3" fill="#3498db" stroke="none" opacity="0.8"/>
<circle cx="290.0" cy="111.2" r="3" fill="#3498db" stroke="none" opacity="0.8"/>
<circle cx="290.0" cy="111.0" r="3" fill="#3498db" stroke="none" opacity="0.8"/>
<circle cx="290.0" cy="110.8" r="3" fill="#3498db" stroke="none" opacity="0.8"/>
<circle cx="290.0" cy="110.2" r="3" fill="#3498db" stroke="none" opacity="0.8"/>
<circle cx="290.0" cy="109.1" r="3" fill="#3498db" stroke="none" opacity="0.8"/>
<circle cx="290.0" cy="107.3" r="3" fill="#3498db" stroke="none" opacity="0.8"/>
<circle cx="290.0" cy="107.0" r="3" fill="#3498db" stroke="none" opacity="0.8"/>
<circle cx="290.0" cy="106.9" r="3" fill="#3498db" stroke="none" opacity="0.8"/>
<circle cx="290.0" cy="106.8" r="3" fill="#3498db" stroke="none" opacity="0.8"/>
<circle cx="290.0" cy="106.8" r="3" fill="#3498db" stroke="none" opacity="0.8"/>
<circle cx="290.0" cy="106.4" r="3" fill="#3498db" stroke="none" opacity="0.8"/>
<circle cx="290.0" cy="105.9" r="3" fill="#3498db" stroke="none" opacity="0.8"/>
<circle cx="290.0" cy="105.3" r="3" fill="#3498db" stroke="none" opacity="0.8"/>
<circle cx="290.0" cy="105.3" r="3" fill="#3498db" stroke="none" opacity="0.8"/>
<circle cx="290.0" cy="104.2" r="3" fill="#3498db" stroke="none" opacity="0.8"/>
<circle cx="290.0" cy="103.1" r="3" fill="#3498db" stroke="none" opacity="0.8"/>
<circle cx="290.0" cy="102.6" r="3" fill="#3498db" stroke="none" opacity="0.8"/>
<circle cx="290.0" cy="102.3" r="3" fill="#3498db" stroke="none" opacity="0.8"/>
<circle cx="290.0" cy="96.1" r="3" fill="#3498db" stroke="none" opacity="0.8"/>
<circle cx="290.0" cy="95.0" r="3" fill="#3498db" stroke="none" opacity="0.8"/>
<circle cx="290.0" cy="91.4" r="3" fill="#3498db" stroke="none" opacity="0.8"/>
<circle cx="290.0" cy="89.7" r="3" fill="#3498db" stroke="none" opacity="0.8"/>
<circle cx="290.0" cy="89.4" r="3" fill="#3498db" stroke="none" opacity="0.8"/>
<circle cx="290.0" cy="86.5" r="3" fill="#3498db" stroke="none" opacity="0.8"/>
<circle cx="290.0" cy="86.4" r="3" fill="#3498db" stroke="none" opacity="0.8"/>
<circle cx="290.0" cy="85.5" r="3" fill="#3498db" stroke="none" opacity="0.8"/>
<text x="290.0" y="388.0" font-size="11" font-weight="normal" text-anchor="middle" fill="#333" font-family="Arial,sans-serif">Flow1</text>
<rect x="515.0" y="55.0" width="10.0" height="10.0" fill="#3498db" stroke="none" stroke-width="1" opacity="0.7" rx="2"/>
<text x="528.0" y="64.0" font-size="9" font-weight="normal" text-anchor="start" fill="#333" font-family="Arial,sans-serif">Flow1</text>
</svg>