<svg xmlns="http://www.w3.org/2000/svg" width="900" height="450" viewBox="0 0 900 450">
<rect width="900" height="450" fill="#ffffff"/>
<text x="450.0" y="28.0" font-size="16" font-weight="bold" text-anchor="middle" fill="#2c3e50" font-family="Arial,sans-serif">RF_KILLN_R_High - Measured vs Spec (Ohm)</text>
<line x1="70.0" y1="390.0" x2="810.0" y2="390.0" stroke="#999" stroke-width="1"/>
<line x1="70.0" y1="55.0" x2="70.0" y2="390.0" stroke="#999" stroke-width="1"/>
<line x1="65.0" y1="390.0" x2="70.0" y2="390.0" stroke="#999" stroke-width="1"/>
<line x1="70.0" y1="390.0" x2="810.0" y2="390.0" stroke="#e0e0e0" stroke-width="0.8" stroke-dasharray="3,3"/>
<text x="62.0" y="394.0" font-size="9" font-weight="normal" text-anchor="end" fill="#7f8c8d" font-family="Arial,sans-serif">8.1</text>
<line x1="65.0" y1="323.0" x2="70.0" y2="323.0" stroke="#999" stroke-width="1"/>
<line x1="70.0" y1="323.0" x2="810.0" y2="323.0" stroke="#e0e0e0" stroke-width="0.8" stroke-dasharray="3,3"/>
<text x="62.0" y="327.0" font-size="9" font-weight="normal" text-anchor="end" fill="#7f8c8d" font-family="Arial,sans-serif">33.6</text>
<line x1="65.0" y1="256.0" x2="70.0" y2="256.0" stroke="#999" stroke-width="1"/>
<line x1="70.0" y1="256.0" x2="810.0" y2="256.0" stroke="#e0e0e0" stroke-width="0.8" stroke-dasharray="3,3"/>
<text x="62.0" y="260.0" font-size="9" font-weight="normal" text-anchor="end" fill="#7f8c8d" font-family="Arial,sans-serif">59.1</text>
<line x1="65.0" y1="189.0" x2="70.0" y2="189.0" stroke="#999" stroke-width="1"/>
<line x1="70.0" y1="189.0" x2="810.0" y2="189.0" stroke="#e0e0e0" stroke-width="0.8" stroke-dasharray="3,3"/>
<text x="62.0" y="193.0" font-size="9" font-weight="normal" text-anchor="end" fill="#7f8c8d" font-family="Arial,sans-serif">84.6</text>
<line x1="65.0" y1="122.0" x2="70.0" y2="122.0" stroke="#999" stroke-width="1"/>
<line x1="70.0" y1="122.0" x2="810.0" y2="122.0" stroke="#e0e0e0" stroke-width="0.8" stroke-dasharray="3,3"/>
<text x="62.0" y="126.0" font-size="9" font-weight="normal" text-anchor="end" fill="#7f8c8d" font-family="Arial,sans-serif">110</text>
<line x1="65.0" y1="55.0" x2="70.0" y2="55.0" stroke="#999" stroke-width="1"/>
<line x1="70.0" y1="55.0" x2="810.0" y2="55.0" stroke="#e0e0e0" stroke-width="0.8" stroke-dasharray="3,3"/>
<text x="62.0" y="59.0" font-size="9" font-weight="normal" text-anchor="end" fill="#7f8c8d" font-family="Arial,sans-serif">136</text>
<text x="14.0" y="225.0" font-size="11" font-weight="normal" text-anchor="middle" fill="#7f8c8d" font-family="Arial,sans-serif" transform="rotate(-90,14,225.0)">Value (Ohm)</text>
<rect x="405.0" y="149.3" width="70.0" height="166.1" fill="#3498db" stroke="#3498db" stroke-width="1.5" opacity="0.25" rx="2"/>
<line x1="405.0" y1="271.7" x2="475.0" y2="271.7" stroke="#3498db" stroke-width="2.5"/>
<line x1="440.0" y1="315.4" x2="440.0" y2="337.0" stroke="#3498db" stroke-width="1"/>
<line x1="440.0" y1="149.3" x2="440.0" y2="110.8" stroke="#3498db" stroke-width="1"/>
<line x1="422.5" y1="337.0" x2="457.5" y2="337.0" stroke="#3498db" stroke-width="1"/>
<line x1="422.5" y1="110.8" x2="457.5" y2="110.8" stroke="#3498db" stroke-width="1"/>
<circle cx="440.0" cy="-65141.9" r="3" fill="#3498db" stroke="none" opacity="0.8"/>
<circle cx="440.0" cy="-65175.0" r="3" fill="#3498db" stroke="none" opacity="0.8"/>
<circle cx="440.0" cy="-65175.1" r="3" fill="#3498db" stroke="none" opacity="0.8"/>
<circle cx="440.0" cy="-65175.4" r="3" fill="#3498db" stroke="none" opacity="0.8"/>
<circle cx="440.0" cy="-65207.1" r="3" fill="#3498db" stroke="none" opacity="0.8"/>
<circle cx="440.0" cy="-65207.2" r="3" fill="#3498db" stroke="none" opacity="0.8"/>
<circle cx="440.0" cy="-95885.5" r="3" fill="#3498db" stroke="none" opacity="0.8"/>
<circle cx="440.0" cy="-96299.5" r="3" fill="#3498db" stroke="none" opacity="0.8"/>
<circle cx="440.0" cy="-97771.1" r="3" fill="#3498db" stroke="none" opacity="0.8"/>
<circle cx="440.0" cy="-100130.4" r="3" fill="#3498db" stroke="none" opacity="0.8"/>
<circle cx="440.0" cy="-103182.0" r="3" fill="#3498db" stroke="none" opacity="0.8"/>
<circle cx="440.0" cy="-103930.6" r="3" fill="#3498db" stroke="none" opacity="0.8"/>
<text x="440.0" y="408.0" font-size="11" font-weight="normal" text-anchor="middle" fill="#333" font-family="Arial,sans-serif">Flow1</text>
<rect x="815.0" y="55.0" width="10.0" height="10.0" fill="#3498db" stroke="none" stroke-width="1" opacity="0.7" rx="2"/>
<text x="828.0" y="64.0" font-size="9" font-weight="normal" text-anchor="start" fill="#333" font-family="Arial,sans-serif">Flow1</text>
<g class="spec-el">
<line x1="70.0" y1="142.6" x2="810.0" y2="142.6" stroke="#ff6d00" stroke-width="4"/>
<text x="813.0" y="146.6" font-size="9" font-weight="normal" text-anchor="start" fill="#ff6d00" font-family="Arial,sans-serif">Max:102</text>
</g>
</svg>