<svg xmlns="http://www.w3.org/2000/svg" width="900" height="450" viewBox="0 0 900 450">
<rect width="900" height="450" fill="#ffffff"/>
<text x="450.0" y="28.0" font-size="16" font-weight="bold" text-anchor="middle" fill="#2c3e50" font-family="Arial,sans-serif">Pass/Fail Summary - Flow1</text>
<line x1="60.0" y1="330.0" x2="860.0" y2="330.0" stroke="#999" stroke-width="1"/>
<line x1="55.0" y1="330.0" x2="60.0" y2="330.0" stroke="#999" stroke-width="1"/>
<line x1="60.0" y1="330.0" x2="860.0" y2="330.0" stroke="#e0e0e0" stroke-width="0.7" stroke-dasharray="3,3"/>
<text x="52.0" y="334.0" font-size="9" font-weight="normal" text-anchor="end" fill="#7f8c8d" font-family="Arial,sans-serif">0%</text>
<line x1="55.0" y1="275.0" x2="60.0" y2="275.0" stroke="#999" stroke-width="1"/>
<line x1="60.0" y1="275.0" x2="860.0" y2="275.0" stroke="#e0e0e0" stroke-width="0.7" stroke-dasharray="3,3"/>
<text x="52.0" y="279.0" font-size="9" font-weight="normal" text-anchor="end" fill="#7f8c8d" font-family="Arial,sans-serif">20%</text>
<line x1="55.0" y1="220.0" x2="60.0" y2="220.0" stroke="#999" stroke-width="1"/>
<line x1="60.0" y1="220.0" x2="860.0" y2="220.0" stroke="#e0e0e0" stroke-width="0.7" stroke-dasharray="3,3"/>
<text x="52.0" y="224.0" font-size="9" font-weight="normal" text-anchor="end" fill="#7f8c8d" font-family="Arial,sans-serif">40%</text>
<line x1="55.0" y1="165.0" x2="60.0" y2="165.0" stroke="#999" stroke-width="1"/>
<line x1="60.0" y1="165.0" x2="860.0" y2="165.0" stroke="#e0e0e0" stroke-width="0.7" stroke-dasharray="3,3"/>
<text x="52.0" y="169.0" font-size="9" font-weight="normal" text-anchor="end" fill="#7f8c8d" font-family="Arial,sans-serif">60%</text>
<line x1="55.0" y1="110.0" x2="60.0" y2="110.0" stroke="#999" stroke-width="1"/>
<line x1="60.0" y1="110.0" x2="860.0" y2="110.0" stroke="#e0e0e0" stroke-width="0.7" stroke-dasharray="3,3"/>
<text x="52.0" y="114.0" font-size="9" font-weight="normal" text-anchor="end" fill="#7f8c8d" font-family="Arial,sans-serif">80%</text>
<line x1="55.0" y1="55.0" x2="60.0" y2="55.0" stroke="#999" stroke-width="1"/>
<line x1="60.0" y1="55.0" x2="860.0" y2="55.0" stroke="#e0e0e0" stroke-width="0.7" stroke-dasharray="3,3"/>
<text x="52.0" y="59.0" font-size="9" font-weight="normal" text-anchor="end" fill="#7f8c8d" font-family="Arial,sans-serif">100%</text>
<text x="14.0" y="225.0" font-size="11" font-weight="normal" text-anchor="middle" fill="#7f8c8d" font-family="Arial,sans-serif" transform="rotate(-90,14,225.0)">Percentage (%)</text>
<rect x="63.2" y="55.0" width="16.5" height="275.0" fill="#2ecc71" stroke="none" stroke-width="1" opacity="0.88" rx="2"/>
<text x="71.4" y="196.5" font-size="9" font-weight="bold" text-anchor="middle" fill="white" font-family="Arial,sans-serif">100%</text>
<text x="71.4" y="340.0" font-size="10" font-weight="normal" text-anchor="end" fill="#333" font-family="Arial,sans-serif" transform="rotate(-40,71.4,340.0)">BRI_DT_IOH_A</text>
<rect x="86.1" y="55.0" width="16.5" height="275.0" fill="#2ecc71" stroke="none" stroke-width="1" opacity="0.88" rx="2"/>
<text x="94.3" y="196.5" font-size="9" font-weight="bold" text-anchor="middle" fill="white" font-family="Arial,sans-serif">100%</text>
<text x="94.3" y="340.0" font-size="10" font-weight="normal" text-anchor="end" fill="#333" font-family="Arial,sans-serif" transform="rotate(-40,94.3,340.0)">BRI_DT_IOL_A</text>
<rect x="108.9" y="55.0" width="16.5" height="275.0" fill="#2ecc71" stroke="none" stroke-width="1" opacity="0.88" rx="2"/>
<text x="117.1" y="196.5" font-size="9" font-weight="bold" text-anchor="middle" fill="white" font-family="Arial,sans-serif">100%</text>
<text x="117.1" y="340.0" font-size="10" font-weight="normal" text-anchor="end" fill="#333" font-family="Arial,sans-serif" transform="rotate(-40,117.1,340.0)">BRI_DT_IO_Direction</text>
<rect x="131.8" y="55.0" width="16.5" height="275.0" fill="#2ecc71" stroke="none" stroke-width="1" opacity="0.88" rx="2"/>
<text x="140.0" y="196.5" font-size="9" font-weight="bold" text-anchor="middle" fill="white" font-family="Arial,sans-serif">100%</text>
<text x="140.0" y="340.0" font-size="10" font-weight="normal" text-anchor="end" fill="#333" font-family="Arial,sans-serif" transform="rotate(-40,140.0,340.0)">BRI_DT_IO_State</text>
<rect x="154.6" y="55.0" width="16.5" height="275.0" fill="#2ecc71" stroke="none" stroke-width="1" opacity="0.88" rx="2"/>
<text x="162.9" y="196.5" font-size="9" font-weight="bold" text-anchor="middle" fill="white" font-family="Arial,sans-serif">100%</text>
<text x="162.9" y="340.0" font-size="10" font-weight="normal" text-anchor="end" fill="#333" font-family="Arial,sans-serif" transform="rotate(-40,162.9,340.0)">BRI_DT_R_High</text>
<rect x="177.5" y="55.0" width="16.5" height="275.0" fill="#2ecc71" stroke="none" stroke-width="1" opacity="0.88" rx="2"/>
<text x="185.7" y="196.5" font-size="9" font-weight="bold" text-anchor="middle" fill="white" font-family="Arial,sans-serif">100%</text>
<text x="185.7" y="340.0" font-size="10" font-weight="normal" text-anchor="end" fill="#333" font-family="Arial,sans-serif" transform="rotate(-40,185.7,340.0)">BRI_DT_R_PullDown</text>
<rect x="200.3" y="55.0" width="16.5" height="275.0" fill="#2ecc71" stroke="none" stroke-width="1" opacity="0.88" rx="2"/>
<text x="208.6" y="196.5" font-size="9" font-weight="bold" text-anchor="middle" fill="white" font-family="Arial,sans-serif">100%</text>
<text x="208.6" y="340.0" font-size="10" font-weight="normal" text-anchor="end" fill="#333" font-family="Arial,sans-serif" transform="rotate(-40,208.6,340.0)">BRI_DT_R_PullUp</text>
<rect x="223.2" y="330.0" width="16.5" height="0.0" fill="#2ecc71" stroke="none" stroke-width="1" opacity="0.88" rx="2"/>
<rect x="223.2" y="55.0" width="16.5" height="275.0" fill="#e74c3c" stroke="none" stroke-width="1" opacity="0.88" rx="2"/>
<text x="231.4" y="196.5" font-size="9" font-weight="bold" text-anchor="middle" fill="white" font-family="Arial,sans-serif">100%</text>
<text x="231.4" y="340.0" font-size="10" font-weight="normal" text-anchor="end" fill="#333" font-family="Arial,sans-serif" transform="rotate(-40,231.4,340.0)">BRI_DT_VIH_Min</text>
<rect x="246.1" y="55.0" width="16.5" height="275.0" fill="#2ecc71" stroke="none" stroke-width="1" opacity="0.88" rx="2"/>
<text x="254.3" y="196.5" font-size="9" font-weight="bold" text-anchor="middle" fill="white" font-family="Arial,sans-serif">100%</text>
<text x="254.3" y="340.0" font-size="10" font-weight="normal" text-anchor="end" fill="#333" font-family="Arial,sans-serif" transform="rotate(-40,254.3,340.0)">BRI_DT_VIL_Max</text>
<rect x="268.9" y="55.0" width="16.5" height="275.0" fill="#2ecc71" stroke="none" stroke-width="1" opacity="0.88" rx="2"/>
<text x="277.1" y="196.5" font-size="9" font-weight="bold" text-anchor="middle" fill="white" font-family="Arial,sans-serif">100%</text>
<text x="277.1" y="340.0" font-size="10" font-weight="normal" text-anchor="end" fill="#333" font-family="Arial,sans-serif" transform="rotate(-40,277.1,340.0)">BRI_DT_VOH</text>
<rect x="291.8" y="330.0" width="16.5" height="0.0" fill="#2ecc71" stroke="none" stroke-width="1" opacity="0.88" rx="2"/>
<rect x="291.8" y="55.0" width="16.5" height="275.0" fill="#e74c3c" stroke="none" stroke-width="1" opacity="0.88" rx="2"/>
<text x="300.0" y="196.5" font-size="9" font-weight="bold" text-anchor="middle" fill="white" font-family="Arial,sans-serif">100%</text>
<text x="300.0" y="340.0" font-size="10" font-weight="normal" text-anchor="end" fill="#333" font-family="Arial,sans-serif" transform="rotate(-40,300.0,340.0)">BRI_DT_VOL</text>
<rect x="314.6" y="55.0" width="16.5" height="275.0" fill="#2ecc71" stroke="none" stroke-width="1" opacity="0.88" rx="2"/>
<text x="322.9" y="196.5" font-size="9" font-weight="bold" text-anchor="middle" fill="white" font-family="Arial,sans-serif">100%</text>
<text x="322.9" y="340.0" font-size="10" font-weight="normal" text-anchor="end" fill="#333" font-family="Arial,sans-serif" transform="rotate(-40,322.9,340.0)">GPIO_0_IOH_A</text>
<rect x="337.5" y="55.0" width="16.5" height="275.0" fill="#2ecc71" stroke="none" stroke-width="1" opacity="0.88" rx="2"/>
<text x="345.7" y="196.5" font-size="9" font-weight="bold" text-anchor="middle" fill="white" font-family="Arial,sans-serif">100%</text>
<text x="345.7" y="340.0" font-size="10" font-weight="normal" text-anchor="end" fill="#333" font-family="Arial,sans-serif" transform="rotate(-40,345.7,340.0)">GPIO_0_IOL_A</text>
<rect x="360.3" y="55.0" width="16.5" height="275.0" fill="#2ecc71" stroke="none" stroke-width="1" opacity="0.88" rx="2"/>
<text x="368.6" y="196.5" font-size="9" font-weight="bold" text-anchor="middle" fill="white" font-family="Arial,sans-serif">100%</text>
<text x="368.6" y="340.0" font-size="10" font-weight="normal" text-anchor="end" fill="#333" font-family="Arial,sans-serif" transform="rotate(-40,368.6,340.0)">GPIO_0_IO_Direction</text>
<rect x="383.2" y="55.0" width="16.5" height="275.0" fill="#2ecc71" stroke="none" stroke-width="1" opacity="0.88" rx="2"/>
<text x="391.4" y="196.5" font-size="9" font-weight="bold" text-anchor="middle" fill="white" font-family="Arial,sans-serif">100%</text>
<text x="391.4" y="340.0" font-size="10" font-weight="normal" text-anchor="end" fill="#333" font-family="Arial,sans-serif" transform="rotate(-40,391.4,340.0)">GPIO_0_IO_State</text>
<rect x="406.1" y="55.0" width="16.5" height="275.0" fill="#2ecc71" stroke="none" stroke-width="1" opacity="0.88" rx="2"/>
<text x="414.3" y="196.5" font-size="9" font-weight="bold" text-anchor="middle" fill="white" font-family="Arial,sans-serif">100%</text>
<text x="414.3" y="340.0" font-size="10" font-weight="normal" text-anchor="end" fill="#333" font-family="Arial,sans-serif" transform="rotate(-40,414.3,340.0)">GPIO_0_R_High</text>
<rect x="428.9" y="55.0" width="16.5" height="275.0" fill="#2ecc71" stroke="none" stroke-width="1" opacity="0.88" rx="2"/>
<text x="437.1" y="196.5" font-size="9" font-weight="bold" text-anchor="middle" fill="white" font-family="Arial,sans-serif">100%</text>
<text x="437.1" y="340.0" font-size="10" font-weight="normal" text-anchor="end" fill="#333" font-family="Arial,sans-serif" transform="rotate(-40,437.1,340.0)">GPIO_0_R_Low</text>
<rect x="451.8" y="55.0" width="16.5" height="275.0" fill="#2ecc71" stroke="none" stroke-width="1" opacity="0.88" rx="2"/>
<text x="460.0" y="196.5" font-size="9" font-weight="bold" text-anchor="middle" fill="white" font-family="Arial,sans-serif">100%</text>
<text x="460.0" y="340.0" font-size="10" font-weight="normal" text-anchor="end" fill="#333" font-family="Arial,sans-serif" transform="rotate(-40,460.0,340.0)">GPIO_0_R_PullDown</text>
<rect x="474.6" y="55.0" width="16.5" height="275.0" fill="#2ecc71" stroke="none" stroke-width="1" opacity="0.88" rx="2"/>
<text x="482.9" y="196.5" font-size="9" font-weight="bold" text-anchor="middle" fill="white" font-family="Arial,sans-serif">100%</text>
<text x="482.9" y="340.0" font-size="10" font-weight="normal" text-anchor="end" fill="#333" font-family="Arial,sans-serif" transform="rotate(-40,482.9,340.0)">GPIO_0_R_PullUp</text>
<rect x="497.5" y="330.0" width="16.5" height="0.0" fill="#2ecc71" stroke="none" stroke-width="1" opacity="0.88" rx="2"/>
<rect x="497.5" y="55.0" width="16.5" height="275.0" fill="#e74c3c" stroke="none" stroke-width="1" opacity="0.88" rx="2"/>
<text x="505.7" y="196.5" font-size="9" font-weight="bold" text-anchor="middle" fill="white" font-family="Arial,sans-serif">100%</text>
<text x="505.7" y="340.0" font-size="10" font-weight="normal" text-anchor="end" fill="#333" font-family="Arial,sans-serif" transform="rotate(-40,505.7,340.0)">GPIO_0_VIH_Min</text>
<rect x="520.3" y="55.0" width="16.5" height="275.0" fill="#2ecc71" stroke="none" stroke-width="1" opacity="0.88" rx="2"/>
<text x="528.6" y="196.5" font-size="9" font-weight="bold" text-anchor="middle" fill="white" font-family="Arial,sans-serif">100%</text>
<text x="528.6" y="340.0" font-size="10" font-weight="normal" text-anchor="end" fill="#333" font-family="Arial,sans-serif" transform="rotate(-40,528.6,340.0)">GPIO_0_VIL_Max</text>
<rect x="543.2" y="63.2" width="16.5" height="266.8" fill="#2ecc71" stroke="none" stroke-width="1" opacity="0.88" rx="2"/>
<rect x="543.2" y="55.0" width="16.5" height="8.2" fill="#e74c3c" stroke="none" stroke-width="1" opacity="0.88" rx="2"/>
<text x="551.4" y="200.6" font-size="9" font-weight="bold" text-anchor="middle" fill="white" font-family="Arial,sans-serif">97%</text>
<text x="551.4" y="340.0" font-size="10" font-weight="normal" text-anchor="end" fill="#333" font-family="Arial,sans-serif" transform="rotate(-40,551.4,340.0)">GPIO_0_VOH</text>
<rect x="566.1" y="83.3" width="16.5" height="246.7" fill="#2ecc71" stroke="none" stroke-width="1" opacity="0.88" rx="2"/>
<rect x="566.1" y="55.0" width="16.5" height="28.3" fill="#e74c3c" stroke="none" stroke-width="1" opacity="0.88" rx="2"/>
<text x="574.3" y="210.6" font-size="9" font-weight="bold" text-anchor="middle" fill="white" font-family="Arial,sans-serif">90%</text>
<text x="574.3" y="73.1" font-size="9" font-weight="bold" text-anchor="middle" fill="white" font-family="Arial,sans-serif">10%</text>
<text x="574.3" y="340.0" font-size="10" font-weight="normal" text-anchor="end" fill="#333" font-family="Arial,sans-serif" transform="rotate(-40,574.3,340.0)">GPIO_0_VOL</text>
<rect x="588.9" y="55.0" width="16.5" height="275.0" fill="#2ecc71" stroke="none" stroke-width="1" opacity="0.88" rx="2"/>
<text x="597.1" y="196.5" font-size="9" font-weight="bold" text-anchor="middle" fill="white" font-family="Arial,sans-serif">100%</text>
<text x="597.1" y="340.0" font-size="10" font-weight="normal" text-anchor="end" fill="#333" font-family="Arial,sans-serif" transform="rotate(-40,597.1,340.0)">RF_KILLN_IOH_A</text>
<rect x="611.8" y="55.0" width="16.5" height="275.0" fill="#2ecc71" stroke="none" stroke-width="1" opacity="0.88" rx="2"/>
<text x="620.0" y="196.5" font-size="9" font-weight="bold" text-anchor="middle" fill="white" font-family="Arial,sans-serif">100%</text>
<text x="620.0" y="340.0" font-size="10" font-weight="normal" text-anchor="end" fill="#333" font-family="Arial,sans-serif" transform="rotate(-40,620.0,340.0)">RF_KILLN_IOL_A</text>
<rect x="634.6" y="55.0" width="16.5" height="275.0" fill="#2ecc71" stroke="none" stroke-width="1" opacity="0.88" rx="2"/>
<text x="642.9" y="196.5" font-size="9" font-weight="bold" text-anchor="middle" fill="white" font-family="Arial,sans-serif">100%</text>
<text x="642.9" y="340.0" font-size="10" font-weight="normal" text-anchor="end" fill="#333" font-family="Arial,sans-serif" transform="rotate(-40,642.9,340.0)">RF_KILLN_IO_Direction</text>
<rect x="657.5" y="55.0" width="16.5" height="275.0" fill="#2ecc71" stroke="none" stroke-width="1" opacity="0.88" rx="2"/>
<text x="665.7" y="196.5" font-size="9" font-weight="bold" text-anchor="middle" fill="white" font-family="Arial,sans-serif">100%</text>
<text x="665.7" y="340.0" font-size="10" font-weight="normal" text-anchor="end" fill="#333" font-family="Arial,sans-serif" transform="rotate(-40,665.7,340.0)">RF_KILLN_IO_State</text>
<rect x="680.3" y="55.0" width="16.5" height="275.0" fill="#2ecc71" stroke="none" stroke-width="1" opacity="0.88" rx="2"/>
<text x="688.6" y="196.5" font-size="9" font-weight="bold" text-anchor="middle" fill="white" font-family="Arial,sans-serif">100%</text>
<text x="688.6" y="340.0" font-size="10" font-weight="normal" text-anchor="end" fill="#333" font-family="Arial,sans-serif" transform="rotate(-40,688.6,340.0)">RF_KILLN_R_High</text>
<rect x="703.2" y="55.0" width="16.5" height="275.0" fill="#2ecc71" stroke="none" stroke-width="1" opacity="0.88" rx="2"/>
<text x="711.4" y="196.5" font-size="9" font-weight="bold" text-anchor="middle" fill="white" font-family="Arial,sans-serif">100%</text>
<text x="711.4" y="340.0" font-size="10" font-weight="normal" text-anchor="end" fill="#333" font-family="Arial,sans-serif" transform="rotate(-40,711.4,340.0)">RF_KILLN_R_Low</text>
<rect x="726.1" y="55.0" width="16.5" height="275.0" fill="#2ecc71" stroke="none" stroke-width="1" opacity="0.88" rx="2"/>
<text x="734.3" y="196.5" font-size="9" font-weight="bold" text-anchor="middle" fill="white" font-family="Arial,sans-serif">100%</text>
<text x="734.3" y="340.0" font-size="10" font-weight="normal" text-anchor="end" fill="#333" font-family="Arial,sans-serif" transform="rotate(-40,734.3,340.0)">RF_KILLN_R_PullDown</text>
<rect x="748.9" y="55.0" width="16.5" height="275.0" fill="#2ecc71" stroke="none" stroke-width="1" opacity="0.88" rx="2"/>
<text x="757.1" y="196.5" font-size="9" font-weight="bold" text-anchor="middle" fill="white" font-family="Arial,sans-serif">100%</text>
<text x="757.1" y="340.0" font-size="10" font-weight="normal" text-anchor="end" fill="#333" font-family="Arial,sans-serif" transform="rotate(-40,757.1,340.0)">RF_KILLN_R_PullUp</text>
<rect x="771.8" y="330.0" width="16.5" height="0.0" fill="#2ecc71" stroke="none" stroke-width="1" opacity="0.88" rx="2"/>
<rect x="771.8" y="55.0" width="16.5" height="275.0" fill="#e74c3c" stroke="none" stroke-width="1" opacity="0.88" rx="2"/>
<text x="780.0" y="196.5" font-size="9" font-weight="bold" text-anchor="middle" fill="white" font-family="Arial,sans-serif">100%</text>
<text x="780.0" y="340.0" font-size="10" font-weight="normal" text-anchor="end" fill="#333" font-family="Arial,sans-serif" transform="rotate(-40,780.0,340.0)">RF_KILLN_VIH_Min</text>
<rect x="794.6" y="55.0" width="16.5" height="275.0" fill="#2ecc71" stroke="none" stroke-width="1" opacity="0.88" rx="2"/>
<text x="802.9" y="196.5" font-size="9" font-weight="bold" text-anchor="middle" fill="white" font-family="Arial,sans-serif">100%</text>
<text x="802.9" y="340.0" font-size="10" font-weight="normal" text-anchor="end" fill="#333" font-family="Arial,sans-serif" transform="rotate(-40,802.9,340.0)">RF_KILLN_VIL_Max</text>
<rect x="817.5" y="60.1" width="16.5" height="269.9" fill="#2ecc71" stroke="none" stroke-width="1" opacity="0.88" rx="2"/>
<rect x="817.5" y="55.0" width="16.5" height="5.1" fill="#e74c3c" stroke="none" stroke-width="1" opacity="0.88" rx="2"/>
<text x="825.7" y="199.1" font-size="9" font-weight="bold" text-anchor="middle" fill="white" font-family="Arial,sans-serif">98%</text>
<text x="825.7" y="340.0" font-size="10" font-weight="normal" text-anchor="end" fill="#333" font-family="Arial,sans-serif" transform="rotate(-40,825.7,340.0)">RF_KILLN_VOH</text>
<rect x="840.3" y="72.3" width="16.5" height="257.7" fill="#2ecc71" stroke="none" stroke-width="1" opacity="0.88" rx="2"/>
<rect x="840.3" y="55.0" width="16.5" height="17.3" fill="#e74c3c" stroke="none" stroke-width="1" opacity="0.88" rx="2"/>
<text x="848.6" y="205.2" font-size="9" font-weight="bold" text-anchor="middle" fill="white" font-family="Arial,sans-serif">94%</text>
<text x="848.6" y="340.0" font-size="10" font-weight="normal" text-anchor="end" fill="#333" font-family="Arial,sans-serif" transform="rotate(-40,848.6,340.0)">RF_KILLN_VOL</text>
<rect x="750.0" y="55.0" width="12.0" height="12.0" fill="#2ecc71" stroke="none" stroke-width="1" opacity="0.88" rx="2"/>
<text x="766.0" y="65.0" font-size="10" font-weight="normal" text-anchor="start" fill="#333" font-family="Arial,sans-serif">Pass</text>
<rect x="750.0" y="73.0" width="12.0" height="12.0" fill="#e74c3c" stroke="none" stroke-width="1" opacity="0.88" rx="2"/>
<text x="766.0" y="83.0" font-size="10" font-weight="normal" text-anchor="start" fill="#333" font-family="Arial,sans-serif">Fail</text>
</svg>