<svg xmlns="http://www.w3.org/2000/svg" width="900" height="450" viewBox="0 0 900 450">
<rect width="900" height="450" fill="#ffffff"/>
<text x="450.0" y="28.0" font-size="16" font-weight="bold" text-anchor="middle" fill="#2c3e50" font-family="Arial,sans-serif">Pass/Fail Summary - Flow1</text>
<line x1="60.0" y1="330.0" x2="860.0" y2="330.0" stroke="#999" stroke-width="1"/>
<line x1="55.0" y1="330.0" x2="60.0" y2="330.0" stroke="#999" stroke-width="1"/>
<line x1="60.0" y1="330.0" x2="860.0" y2="330.0" stroke="#e0e0e0" stroke-width="0.7" stroke-dasharray="3,3"/>
<text x="52.0" y="334.0" font-size="9" font-weight="normal" text-anchor="end" fill="#7f8c8d" font-family="Arial,sans-serif">0%</text>
<line x1="55.0" y1="275.0" x2="60.0" y2="275.0" stroke="#999" stroke-width="1"/>
<line x1="60.0" y1="275.0" x2="860.0" y2="275.0" stroke="#e0e0e0" stroke-width="0.7" stroke-dasharray="3,3"/>
<text x="52.0" y="279.0" font-size="9" font-weight="normal" text-anchor="end" fill="#7f8c8d" font-family="Arial,sans-serif">20%</text>
<line x1="55.0" y1="220.0" x2="60.0" y2="220.0" stroke="#999" stroke-width="1"/>
<line x1="60.0" y1="220.0" x2="860.0" y2="220.0" stroke="#e0e0e0" stroke-width="0.7" stroke-dasharray="3,3"/>
<text x="52.0" y="224.0" font-size="9" font-weight="normal" text-anchor="end" fill="#7f8c8d" font-family="Arial,sans-serif">40%</text>
<line x1="55.0" y1="165.0" x2="60.0" y2="165.0" stroke="#999" stroke-width="1"/>
<line x1="60.0" y1="165.0" x2="860.0" y2="165.0" stroke="#e0e0e0" stroke-width="0.7" stroke-dasharray="3,3"/>
<text x="52.0" y="169.0" font-size="9" font-weight="normal" text-anchor="end" fill="#7f8c8d" font-family="Arial,sans-serif">60%</text>
<line x1="55.0" y1="110.0" x2="60.0" y2="110.0" stroke="#999" stroke-width="1"/>
<line x1="60.0" y1="110.0" x2="860.0" y2="110.0" stroke="#e0e0e0" stroke-width="0.7" stroke-dasharray="3,3"/>
<text x="52.0" y="114.0" font-size="9" font-weight="normal" text-anchor="end" fill="#7f8c8d" font-family="Arial,sans-serif">80%</text>
<line x1="55.0" y1="55.0" x2="60.0" y2="55.0" stroke="#999" stroke-width="1"/>
<line x1="60.0" y1="55.0" x2="860.0" y2="55.0" stroke="#e0e0e0" stroke-width="0.7" stroke-dasharray="3,3"/>
<text x="52.0" y="59.0" font-size="9" font-weight="normal" text-anchor="end" fill="#7f8c8d" font-family="Arial,sans-serif">100%</text>
<text x="14.0" y="225.0" font-size="11" font-weight="normal" text-anchor="middle" fill="#7f8c8d" font-family="Arial,sans-serif" transform="rotate(-90,14,225.0)">Percentage (%)</text>
<rect x="64.7" y="55.0" width="24.0" height="275.0" fill="#2ecc71" stroke="none" stroke-width="1" opacity="0.88" rx="2"/>
<text x="76.7" y="196.5" font-size="9" font-weight="bold" text-anchor="middle" fill="white" font-family="Arial,sans-serif">100%</text>
<text x="76.7" y="340.0" font-size="10" font-weight="normal" text-anchor="end" fill="#333" font-family="Arial,sans-serif" transform="rotate(-40,76.7,340.0)">GPIO_0_IOH_A</text>
<rect x="98.0" y="55.0" width="24.0" height="275.0" fill="#2ecc71" stroke="none" stroke-width="1" opacity="0.88" rx="2"/>
<text x="110.0" y="196.5" font-size="9" font-weight="bold" text-anchor="middle" fill="white" font-family="Arial,sans-serif">100%</text>
<text x="110.0" y="340.0" font-size="10" font-weight="normal" text-anchor="end" fill="#333" font-family="Arial,sans-serif" transform="rotate(-40,110.0,340.0)">GPIO_0_IOL_A</text>
<rect x="131.3" y="55.0" width="24.0" height="275.0" fill="#2ecc71" stroke="none" stroke-width="1" opacity="0.88" rx="2"/>
<text x="143.3" y="196.5" font-size="9" font-weight="bold" text-anchor="middle" fill="white" font-family="Arial,sans-serif">100%</text>
<text x="143.3" y="340.0" font-size="10" font-weight="normal" text-anchor="end" fill="#333" font-family="Arial,sans-serif" transform="rotate(-40,143.3,340.0)">GPIO_0_IO_Direction</text>
<rect x="164.7" y="55.0" width="24.0" height="275.0" fill="#2ecc71" stroke="none" stroke-width="1" opacity="0.88" rx="2"/>
<text x="176.7" y="196.5" font-size="9" font-weight="bold" text-anchor="middle" fill="white" font-family="Arial,sans-serif">100%</text>
<text x="176.7" y="340.0" font-size="10" font-weight="normal" text-anchor="end" fill="#333" font-family="Arial,sans-serif" transform="rotate(-40,176.7,340.0)">GPIO_0_IO_State</text>
<rect x="198.0" y="310.9" width="24.0" height="19.1" fill="#2ecc71" stroke="none" stroke-width="1" opacity="0.88" rx="2"/>
<rect x="198.0" y="55.0" width="24.0" height="255.9" fill="#e74c3c" stroke="none" stroke-width="1" opacity="0.88" rx="2"/>
<text x="210.0" y="324.4" font-size="9" font-weight="bold" text-anchor="middle" fill="white" font-family="Arial,sans-serif">7%</text>
<text x="210.0" y="186.9" font-size="9" font-weight="bold" text-anchor="middle" fill="white" font-family="Arial,sans-serif">93%</text>
<text x="210.0" y="340.0" font-size="10" font-weight="normal" text-anchor="end" fill="#333" font-family="Arial,sans-serif" transform="rotate(-40,210.0,340.0)">GPIO_0_R_High</text>
<rect x="231.3" y="57.8" width="24.0" height="272.2" fill="#2ecc71" stroke="none" stroke-width="1" opacity="0.88" rx="2"/>
<rect x="231.3" y="55.0" width="24.0" height="2.8" fill="#e74c3c" stroke="none" stroke-width="1" opacity="0.88" rx="2"/>
<text x="243.3" y="197.9" font-size="9" font-weight="bold" text-anchor="middle" fill="white" font-family="Arial,sans-serif">99%</text>
<text x="243.3" y="340.0" font-size="10" font-weight="normal" text-anchor="end" fill="#333" font-family="Arial,sans-serif" transform="rotate(-40,243.3,340.0)">GPIO_0_R_Low</text>
<rect x="264.7" y="55.0" width="24.0" height="275.0" fill="#2ecc71" stroke="none" stroke-width="1" opacity="0.88" rx="2"/>
<text x="276.7" y="196.5" font-size="9" font-weight="bold" text-anchor="middle" fill="white" font-family="Arial,sans-serif">100%</text>
<text x="276.7" y="340.0" font-size="10" font-weight="normal" text-anchor="end" fill="#333" font-family="Arial,sans-serif" transform="rotate(-40,276.7,340.0)">GPIO_0_R_PullDown</text>
<rect x="298.0" y="87.3" width="24.0" height="242.7" fill="#2ecc71" stroke="none" stroke-width="1" opacity="0.88" rx="2"/>
<rect x="298.0" y="55.0" width="24.0" height="32.3" fill="#e74c3c" stroke="none" stroke-width="1" opacity="0.88" rx="2"/>
<text x="310.0" y="212.7" font-size="9" font-weight="bold" text-anchor="middle" fill="white" font-family="Arial,sans-serif">88%</text>
<text x="310.0" y="75.2" font-size="9" font-weight="bold" text-anchor="middle" fill="white" font-family="Arial,sans-serif">12%</text>
<text x="310.0" y="340.0" font-size="10" font-weight="normal" text-anchor="end" fill="#333" font-family="Arial,sans-serif" transform="rotate(-40,310.0,340.0)">GPIO_0_R_PullUp</text>
<rect x="331.3" y="55.0" width="24.0" height="275.0" fill="#2ecc71" stroke="none" stroke-width="1" opacity="0.88" rx="2"/>
<text x="343.3" y="196.5" font-size="9" font-weight="bold" text-anchor="middle" fill="white" font-family="Arial,sans-serif">100%</text>
<text x="343.3" y="340.0" font-size="10" font-weight="normal" text-anchor="end" fill="#333" font-family="Arial,sans-serif" transform="rotate(-40,343.3,340.0)">GPIO_0_VIH_Min</text>
<rect x="364.7" y="55.0" width="24.0" height="275.0" fill="#2ecc71" stroke="none" stroke-width="1" opacity="0.88" rx="2"/>
<text x="376.7" y="196.5" font-size="9" font-weight="bold" text-anchor="middle" fill="white" font-family="Arial,sans-serif">100%</text>
<text x="376.7" y="340.0" font-size="10" font-weight="normal" text-anchor="end" fill="#333" font-family="Arial,sans-serif" transform="rotate(-40,376.7,340.0)">GPIO_0_VIL_Max</text>
<rect x="398.0" y="59.0" width="24.0" height="271.0" fill="#2ecc71" stroke="none" stroke-width="1" opacity="0.88" rx="2"/>
<rect x="398.0" y="55.0" width="24.0" height="4.0" fill="#e74c3c" stroke="none" stroke-width="1" opacity="0.88" rx="2"/>
<text x="410.0" y="198.5" font-size="9" font-weight="bold" text-anchor="middle" fill="white" font-family="Arial,sans-serif">99%</text>
<text x="410.0" y="340.0" font-size="10" font-weight="normal" text-anchor="end" fill="#333" font-family="Arial,sans-serif" transform="rotate(-40,410.0,340.0)">GPIO_0_VOH</text>
<rect x="431.3" y="83.2" width="24.0" height="246.8" fill="#2ecc71" stroke="none" stroke-width="1" opacity="0.88" rx="2"/>
<rect x="431.3" y="55.0" width="24.0" height="28.2" fill="#e74c3c" stroke="none" stroke-width="1" opacity="0.88" rx="2"/>
<text x="443.3" y="210.6" font-size="9" font-weight="bold" text-anchor="middle" fill="white" font-family="Arial,sans-serif">90%</text>
<text x="443.3" y="73.1" font-size="9" font-weight="bold" text-anchor="middle" fill="white" font-family="Arial,sans-serif">10%</text>
<text x="443.3" y="340.0" font-size="10" font-weight="normal" text-anchor="end" fill="#333" font-family="Arial,sans-serif" transform="rotate(-40,443.3,340.0)">GPIO_0_VOL</text>
<rect x="464.7" y="55.0" width="24.0" height="275.0" fill="#2ecc71" stroke="none" stroke-width="1" opacity="0.88" rx="2"/>
<text x="476.7" y="196.5" font-size="9" font-weight="bold" text-anchor="middle" fill="white" font-family="Arial,sans-serif">100%</text>
<text x="476.7" y="340.0" font-size="10" font-weight="normal" text-anchor="end" fill="#333" font-family="Arial,sans-serif" transform="rotate(-40,476.7,340.0)">RF_KILLN_IOH_A</text>
<rect x="498.0" y="55.0" width="24.0" height="275.0" fill="#2ecc71" stroke="none" stroke-width="1" opacity="0.88" rx="2"/>
<text x="510.0" y="196.5" font-size="9" font-weight="bold" text-anchor="middle" fill="white" font-family="Arial,sans-serif">100%</text>
<text x="510.0" y="340.0" font-size="10" font-weight="normal" text-anchor="end" fill="#333" font-family="Arial,sans-serif" transform="rotate(-40,510.0,340.0)">RF_KILLN_IOL_A</text>
<rect x="531.3" y="55.0" width="24.0" height="275.0" fill="#2ecc71" stroke="none" stroke-width="1" opacity="0.88" rx="2"/>
<text x="543.3" y="196.5" font-size="9" font-weight="bold" text-anchor="middle" fill="white" font-family="Arial,sans-serif">100%</text>
<text x="543.3" y="340.0" font-size="10" font-weight="normal" text-anchor="end" fill="#333" font-family="Arial,sans-serif" transform="rotate(-40,543.3,340.0)">RF_KILLN_IO_Direction</text>
<rect x="564.7" y="55.0" width="24.0" height="275.0" fill="#2ecc71" stroke="none" stroke-width="1" opacity="0.88" rx="2"/>
<text x="576.7" y="196.5" font-size="9" font-weight="bold" text-anchor="middle" fill="white" font-family="Arial,sans-serif">100%</text>
<text x="576.7" y="340.0" font-size="10" font-weight="normal" text-anchor="end" fill="#333" font-family="Arial,sans-serif" transform="rotate(-40,576.7,340.0)">RF_KILLN_IO_State</text>
<rect x="598.0" y="327.5" width="24.0" height="2.5" fill="#2ecc71" stroke="none" stroke-width="1" opacity="0.88" rx="2"/>
<rect x="598.0" y="55.0" width="24.0" height="272.5" fill="#e74c3c" stroke="none" stroke-width="1" opacity="0.88" rx="2"/>
<text x="610.0" y="195.2" font-size="9" font-weight="bold" text-anchor="middle" fill="white" font-family="Arial,sans-serif">99%</text>
<text x="610.0" y="340.0" font-size="10" font-weight="normal" text-anchor="end" fill="#333" font-family="Arial,sans-serif" transform="rotate(-40,610.0,340.0)">RF_KILLN_R_High</text>
<rect x="631.3" y="329.1" width="24.0" height="0.9" fill="#2ecc71" stroke="none" stroke-width="1" opacity="0.88" rx="2"/>
<rect x="631.3" y="55.0" width="24.0" height="274.1" fill="#e74c3c" stroke="none" stroke-width="1" opacity="0.88" rx="2"/>
<text x="643.3" y="196.1" font-size="9" font-weight="bold" text-anchor="middle" fill="white" font-family="Arial,sans-serif">100%</text>
<text x="643.3" y="340.0" font-size="10" font-weight="normal" text-anchor="end" fill="#333" font-family="Arial,sans-serif" transform="rotate(-40,643.3,340.0)">RF_KILLN_R_Low</text>
<rect x="664.7" y="55.0" width="24.0" height="275.0" fill="#2ecc71" stroke="none" stroke-width="1" opacity="0.88" rx="2"/>
<text x="676.7" y="196.5" font-size="9" font-weight="bold" text-anchor="middle" fill="white" font-family="Arial,sans-serif">100%</text>
<text x="676.7" y="340.0" font-size="10" font-weight="normal" text-anchor="end" fill="#333" font-family="Arial,sans-serif" transform="rotate(-40,676.7,340.0)">RF_KILLN_R_PullDown</text>
<rect x="698.0" y="55.0" width="24.0" height="275.0" fill="#2ecc71" stroke="none" stroke-width="1" opacity="0.88" rx="2"/>
<text x="710.0" y="196.5" font-size="9" font-weight="bold" text-anchor="middle" fill="white" font-family="Arial,sans-serif">100%</text>
<text x="710.0" y="340.0" font-size="10" font-weight="normal" text-anchor="end" fill="#333" font-family="Arial,sans-serif" transform="rotate(-40,710.0,340.0)">RF_KILLN_R_PullUp</text>
<rect x="731.3" y="55.0" width="24.0" height="275.0" fill="#2ecc71" stroke="none" stroke-width="1" opacity="0.88" rx="2"/>
<text x="743.3" y="196.5" font-size="9" font-weight="bold" text-anchor="middle" fill="white" font-family="Arial,sans-serif">100%</text>
<text x="743.3" y="340.0" font-size="10" font-weight="normal" text-anchor="end" fill="#333" font-family="Arial,sans-serif" transform="rotate(-40,743.3,340.0)">RF_KILLN_VIH_Min</text>
<rect x="764.7" y="55.0" width="24.0" height="275.0" fill="#2ecc71" stroke="none" stroke-width="1" opacity="0.88" rx="2"/>
<text x="776.7" y="196.5" font-size="9" font-weight="bold" text-anchor="middle" fill="white" font-family="Arial,sans-serif">100%</text>
<text x="776.7" y="340.0" font-size="10" font-weight="normal" text-anchor="end" fill="#333" font-family="Arial,sans-serif" transform="rotate(-40,776.7,340.0)">RF_KILLN_VIL_Max</text>
<rect x="798.0" y="57.6" width="24.0" height="272.4" fill="#2ecc71" stroke="none" stroke-width="1" opacity="0.88" rx="2"/>
<rect x="798.0" y="55.0" width="24.0" height="2.6" fill="#e74c3c" stroke="none" stroke-width="1" opacity="0.88" rx="2"/>
<text x="810.0" y="197.8" font-size="9" font-weight="bold" text-anchor="middle" fill="white" font-family="Arial,sans-serif">99%</text>
<text x="810.0" y="340.0" font-size="10" font-weight="normal" text-anchor="end" fill="#333" font-family="Arial,sans-serif" transform="rotate(-40,810.0,340.0)">RF_KILLN_VOH</text>
<rect x="831.3" y="72.1" width="24.0" height="257.9" fill="#2ecc71" stroke="none" stroke-width="1" opacity="0.88" rx="2"/>
<rect x="831.3" y="55.0" width="24.0" height="17.1" fill="#e74c3c" stroke="none" stroke-width="1" opacity="0.88" rx="2"/>
<text x="843.3" y="205.1" font-size="9" font-weight="bold" text-anchor="middle" fill="white" font-family="Arial,sans-serif">94%</text>
<text x="843.3" y="340.0" font-size="10" font-weight="normal" text-anchor="end" fill="#333" font-family="Arial,sans-serif" transform="rotate(-40,843.3,340.0)">RF_KILLN_VOL</text>
<rect x="750.0" y="55.0" width="12.0" height="12.0" fill="#2ecc71" stroke="none" stroke-width="1" opacity="0.88" rx="2"/>
<text x="766.0" y="65.0" font-size="10" font-weight="normal" text-anchor="start" fill="#333" font-family="Arial,sans-serif">Pass</text>
<rect x="750.0" y="73.0" width="12.0" height="12.0" fill="#e74c3c" stroke="none" stroke-width="1" opacity="0.88" rx="2"/>
<text x="766.0" y="83.0" font-size="10" font-weight="normal" text-anchor="start" fill="#333" font-family="Arial,sans-serif">Fail</text>
</svg>