<svg xmlns="http://www.w3.org/2000/svg" width="860" height="526" viewBox="0 0 860 526">
<rect width="860" height="526" fill="#ffffff"/>
<text x="430.0" y="28.0" font-size="16" font-weight="bold" text-anchor="middle" fill="#2c3e50" font-family="Arial,sans-serif">GPIO_0  [PB16DSFS_18_18_H] — VOL (V)  DS=DS_12  [VOH/VOL]</text>
<line x1="82.0" y1="426.0" x2="680.0" y2="426.0" stroke="#999" stroke-width="1"/>
<line x1="82.0" y1="72.0" x2="82.0" y2="426.0" stroke="#999" stroke-width="1"/>
<line x1="82.0" y1="72.0" x2="82.0" y2="426.0" stroke="#999" stroke-width="1"/>
<line x1="77.0" y1="426.0" x2="82.0" y2="426.0" stroke="#999" stroke-width="1"/>
<line x1="82.0" y1="426.0" x2="680.0" y2="426.0" stroke="#e0e0e0" stroke-width="0.8" stroke-dasharray="3,3"/>
<text x="74.0" y="430.0" font-size="9" font-weight="normal" text-anchor="end" fill="#7f8c8d" font-family="Arial,sans-serif">0.387</text>
<line x1="77.0" y1="355.2" x2="82.0" y2="355.2" stroke="#999" stroke-width="1"/>
<line x1="82.0" y1="355.2" x2="680.0" y2="355.2" stroke="#e0e0e0" stroke-width="0.8" stroke-dasharray="3,3"/>
<text x="74.0" y="359.2" font-size="9" font-weight="normal" text-anchor="end" fill="#7f8c8d" font-family="Arial,sans-serif">0.405</text>
<line x1="77.0" y1="284.4" x2="82.0" y2="284.4" stroke="#999" stroke-width="1"/>
<line x1="82.0" y1="284.4" x2="680.0" y2="284.4" stroke="#e0e0e0" stroke-width="0.8" stroke-dasharray="3,3"/>
<text x="74.0" y="288.4" font-size="9" font-weight="normal" text-anchor="end" fill="#7f8c8d" font-family="Arial,sans-serif">0.424</text>
<line x1="77.0" y1="213.6" x2="82.0" y2="213.6" stroke="#999" stroke-width="1"/>
<line x1="82.0" y1="213.6" x2="680.0" y2="213.6" stroke="#e0e0e0" stroke-width="0.8" stroke-dasharray="3,3"/>
<text x="74.0" y="217.6" font-size="9" font-weight="normal" text-anchor="end" fill="#7f8c8d" font-family="Arial,sans-serif">0.442</text>
<line x1="77.0" y1="142.8" x2="82.0" y2="142.8" stroke="#999" stroke-width="1"/>
<line x1="82.0" y1="142.8" x2="680.0" y2="142.8" stroke="#e0e0e0" stroke-width="0.8" stroke-dasharray="3,3"/>
<text x="74.0" y="146.8" font-size="9" font-weight="normal" text-anchor="end" fill="#7f8c8d" font-family="Arial,sans-serif">0.46</text>
<line x1="77.0" y1="72.0" x2="82.0" y2="72.0" stroke="#999" stroke-width="1"/>
<line x1="82.0" y1="72.0" x2="680.0" y2="72.0" stroke="#e0e0e0" stroke-width="0.8" stroke-dasharray="3,3"/>
<text x="74.0" y="76.0" font-size="9" font-weight="normal" text-anchor="end" fill="#7f8c8d" font-family="Arial,sans-serif">0.479</text>
<text x="14.0" y="249.0" font-size="10" font-weight="normal" text-anchor="middle" fill="#7f8c8d" font-family="Arial,sans-serif" transform="rotate(-90,14,249.0)">VOL (V)</text>
<text x="115.2" y="440.0" font-size="8" font-weight="normal" text-anchor="end" fill="#333" font-family="Arial,sans-serif" transform="rotate(-45,115.2,440)">VIO=1.62
VC=0.64</text>
<text x="181.7" y="440.0" font-size="8" font-weight="normal" text-anchor="end" fill="#333" font-family="Arial,sans-serif" transform="rotate(-45,181.7,440)">VIO=1.8
VC=0.8</text>
<text x="248.1" y="440.0" font-size="8" font-weight="normal" text-anchor="end" fill="#333" font-family="Arial,sans-serif" transform="rotate(-45,248.1,440)">VIO=1.98
VC=0.96</text>
<line x1="281.3" y1="72.0" x2="281.3" y2="426.0" stroke="#cccccc" stroke-width="1" stroke-dasharray="4,3"/>
<text x="314.6" y="440.0" font-size="8" font-weight="normal" text-anchor="end" fill="#333" font-family="Arial,sans-serif" transform="rotate(-45,314.6,440)">VIO=1.62
VC=0.64</text>
<text x="381.0" y="440.0" font-size="8" font-weight="normal" text-anchor="end" fill="#333" font-family="Arial,sans-serif" transform="rotate(-45,381.0,440)">VIO=1.8
VC=0.8</text>
<text x="447.4" y="440.0" font-size="8" font-weight="normal" text-anchor="end" fill="#333" font-family="Arial,sans-serif" transform="rotate(-45,447.4,440)">VIO=1.98
VC=0.96</text>
<line x1="480.7" y1="72.0" x2="480.7" y2="426.0" stroke="#cccccc" stroke-width="1" stroke-dasharray="4,3"/>
<text x="513.9" y="440.0" font-size="8" font-weight="normal" text-anchor="end" fill="#333" font-family="Arial,sans-serif" transform="rotate(-45,513.9,440)">VIO=1.62
VC=0.64</text>
<text x="580.3" y="440.0" font-size="8" font-weight="normal" text-anchor="end" fill="#333" font-family="Arial,sans-serif" transform="rotate(-45,580.3,440)">VIO=1.8
VC=0.8</text>
<text x="646.8" y="440.0" font-size="8" font-weight="normal" text-anchor="end" fill="#333" font-family="Arial,sans-serif" transform="rotate(-45,646.8,440)">VIO=1.98
VC=0.96</text>
<text x="181.7" y="62.0" font-size="10" font-weight="bold" text-anchor="middle" fill="#2c3e50" font-family="Arial,sans-serif">T=0°C</text>
<text x="381.0" y="62.0" font-size="10" font-weight="bold" text-anchor="middle" fill="#2c3e50" font-family="Arial,sans-serif">T=20°C</text>
<text x="580.3" y="62.0" font-size="10" font-weight="bold" text-anchor="middle" fill="#2c3e50" font-family="Arial,sans-serif">T=80°C</text>
<g class="series" data-skew="ffss" data-chip="25679">
<path d="M115.2,251.3 L181.7,279.6 L248.1,302.4 L314.6,217.3 L381.0,247.1 L447.4,270.3 L513.9,110.9 L580.3,144.5 L646.8,170.8" fill="none" stroke="#3498db" stroke-width="2.0" stroke-linejoin="round" opacity="0.85"/>
<circle cx="115.2" cy="251.3" r="5" fill="#3498db" opacity="0.9"><title>GPIO_0 VOL | ffss | Chip: 25679</title></circle>
<circle cx="181.7" cy="279.6" r="5" fill="#3498db" opacity="0.9"><title>GPIO_0 VOL | ffss | Chip: 25679</title></circle>
<circle cx="248.1" cy="302.4" r="5" fill="#3498db" opacity="0.9"><title>GPIO_0 VOL | ffss | Chip: 25679</title></circle>
<circle cx="314.6" cy="217.3" r="5" fill="#3498db" opacity="0.9"><title>GPIO_0 VOL | ffss | Chip: 25679</title></circle>
<circle cx="381.0" cy="247.1" r="5" fill="#3498db" opacity="0.9"><title>GPIO_0 VOL | ffss | Chip: 25679</title></circle>
<circle cx="447.4" cy="270.3" r="5" fill="#3498db" opacity="0.9"><title>GPIO_0 VOL | ffss | Chip: 25679</title></circle>
<circle cx="513.9" cy="110.9" r="5" fill="#3498db" opacity="0.9"><title>GPIO_0 VOL | ffss | Chip: 25679</title></circle>
<circle cx="580.3" cy="144.5" r="5" fill="#3498db" opacity="0.9"><title>GPIO_0 VOL | ffss | Chip: 25679</title></circle>
<circle cx="646.8" cy="170.8" r="5" fill="#3498db" opacity="0.9"><title>GPIO_0 VOL | ffss | Chip: 25679</title></circle>
</g>
<g class="series" data-skew="ffss" data-chip="43407">
<path d="M115.2,240.5 L181.7,269.1 L248.1,292.7 L314.6,205.7 L381.0,235.8 L447.4,260.2 L513.9,96.2 L580.3,131.0 L646.8,159.2" fill="none" stroke="#e74c3c" stroke-width="2.0" stroke-linejoin="round" stroke-dasharray="8,3" opacity="0.85"/>
<circle cx="115.2" cy="240.5" r="5" fill="#e74c3c" opacity="0.9"><title>GPIO_0 VOL | ffss | Chip: 43407</title></circle>
<circle cx="181.7" cy="269.1" r="5" fill="#e74c3c" opacity="0.9"><title>GPIO_0 VOL | ffss | Chip: 43407</title></circle>
<circle cx="248.1" cy="292.7" r="5" fill="#e74c3c" opacity="0.9"><title>GPIO_0 VOL | ffss | Chip: 43407</title></circle>
<circle cx="314.6" cy="205.7" r="5" fill="#e74c3c" opacity="0.9"><title>GPIO_0 VOL | ffss | Chip: 43407</title></circle>
<circle cx="381.0" cy="235.8" r="5" fill="#e74c3c" opacity="0.9"><title>GPIO_0 VOL | ffss | Chip: 43407</title></circle>
<circle cx="447.4" cy="260.2" r="5" fill="#e74c3c" opacity="0.9"><title>GPIO_0 VOL | ffss | Chip: 43407</title></circle>
<circle cx="513.9" cy="96.2" r="5" fill="#e74c3c" opacity="0.9"><title>GPIO_0 VOL | ffss | Chip: 43407</title></circle>
<circle cx="580.3" cy="131.0" r="5" fill="#e74c3c" opacity="0.9"><title>GPIO_0 VOL | ffss | Chip: 43407</title></circle>
<circle cx="646.8" cy="159.2" r="5" fill="#e74c3c" opacity="0.9"><title>GPIO_0 VOL | ffss | Chip: 43407</title></circle>
</g>
<g class="series" data-skew="ffss" data-chip="79093">
<path d="M115.2,250.2 L181.7,278.8 L248.1,301.6 L314.6,215.7 L381.0,246.3 L447.4,269.9 L513.9,109.3 L580.3,143.4 L646.8,169.7" fill="none" stroke="#2ecc71" stroke-width="2.0" stroke-linejoin="round" stroke-dasharray="4,3" opacity="0.85"/>
<circle cx="115.2" cy="250.2" r="5" fill="#2ecc71" opacity="0.9"><title>GPIO_0 VOL | ffss | Chip: 79093</title></circle>
<circle cx="181.7" cy="278.8" r="5" fill="#2ecc71" opacity="0.9"><title>GPIO_0 VOL | ffss | Chip: 79093</title></circle>
<circle cx="248.1" cy="301.6" r="5" fill="#2ecc71" opacity="0.9"><title>GPIO_0 VOL | ffss | Chip: 79093</title></circle>
<circle cx="314.6" cy="215.7" r="5" fill="#2ecc71" opacity="0.9"><title>GPIO_0 VOL | ffss | Chip: 79093</title></circle>
<circle cx="381.0" cy="246.3" r="5" fill="#2ecc71" opacity="0.9"><title>GPIO_0 VOL | ffss | Chip: 79093</title></circle>
<circle cx="447.4" cy="269.9" r="5" fill="#2ecc71" opacity="0.9"><title>GPIO_0 VOL | ffss | Chip: 79093</title></circle>
<circle cx="513.9" cy="109.3" r="5" fill="#2ecc71" opacity="0.9"><title>GPIO_0 VOL | ffss | Chip: 79093</title></circle>
<circle cx="580.3" cy="143.4" r="5" fill="#2ecc71" opacity="0.9"><title>GPIO_0 VOL | ffss | Chip: 79093</title></circle>
<circle cx="646.8" cy="169.7" r="5" fill="#2ecc71" opacity="0.9"><title>GPIO_0 VOL | ffss | Chip: 79093</title></circle>
</g>
<g class="series" data-skew="fftt" data-chip="13967">
<path d="M115.2,289.6 L181.7,319.0 L248.1,342.2 L314.6,256.4 L381.0,286.9 L447.4,311.3 L513.9,139.5 L580.3,174.3 L646.8,204.5" fill="none" stroke="#9b59b6" stroke-width="2.0" stroke-linejoin="round" stroke-dasharray="10,3,3,3" opacity="0.85"/>
<circle cx="115.2" cy="289.6" r="5" fill="#9b59b6" opacity="0.9"><title>GPIO_0 VOL | fftt | Chip: 13967</title></circle>
<circle cx="181.7" cy="319.0" r="5" fill="#9b59b6" opacity="0.9"><title>GPIO_0 VOL | fftt | Chip: 13967</title></circle>
<circle cx="248.1" cy="342.2" r="5" fill="#9b59b6" opacity="0.9"><title>GPIO_0 VOL | fftt | Chip: 13967</title></circle>
<circle cx="314.6" cy="256.4" r="5" fill="#9b59b6" opacity="0.9"><title>GPIO_0 VOL | fftt | Chip: 13967</title></circle>
<circle cx="381.0" cy="286.9" r="5" fill="#9b59b6" opacity="0.9"><title>GPIO_0 VOL | fftt | Chip: 13967</title></circle>
<circle cx="447.4" cy="311.3" r="5" fill="#9b59b6" opacity="0.9"><title>GPIO_0 VOL | fftt | Chip: 13967</title></circle>
<circle cx="513.9" cy="139.5" r="5" fill="#9b59b6" opacity="0.9"><title>GPIO_0 VOL | fftt | Chip: 13967</title></circle>
<circle cx="580.3" cy="174.3" r="5" fill="#9b59b6" opacity="0.9"><title>GPIO_0 VOL | fftt | Chip: 13967</title></circle>
<circle cx="646.8" cy="204.5" r="5" fill="#9b59b6" opacity="0.9"><title>GPIO_0 VOL | fftt | Chip: 13967</title></circle>
</g>
<g class="series" data-skew="fftt" data-chip="15382">
<path d="M115.2,296.6 L181.7,326.8 L248.1,351.1 L314.6,265.6 L381.0,296.6 L447.4,322.1 L513.9,158.1 L580.3,194.1 L646.8,221.9" fill="none" stroke="#e67e22" stroke-width="2.0" stroke-linejoin="round" opacity="0.85"/>
<circle cx="115.2" cy="296.6" r="5" fill="#e67e22" opacity="0.9"><title>GPIO_0 VOL | fftt | Chip: 15382</title></circle>
<circle cx="181.7" cy="326.8" r="5" fill="#e67e22" opacity="0.9"><title>GPIO_0 VOL | fftt | Chip: 15382</title></circle>
<circle cx="248.1" cy="351.1" r="5" fill="#e67e22" opacity="0.9"><title>GPIO_0 VOL | fftt | Chip: 15382</title></circle>
<circle cx="314.6" cy="265.6" r="5" fill="#e67e22" opacity="0.9"><title>GPIO_0 VOL | fftt | Chip: 15382</title></circle>
<circle cx="381.0" cy="296.6" r="5" fill="#e67e22" opacity="0.9"><title>GPIO_0 VOL | fftt | Chip: 15382</title></circle>
<circle cx="447.4" cy="322.1" r="5" fill="#e67e22" opacity="0.9"><title>GPIO_0 VOL | fftt | Chip: 15382</title></circle>
<circle cx="513.9" cy="158.1" r="5" fill="#e67e22" opacity="0.9"><title>GPIO_0 VOL | fftt | Chip: 15382</title></circle>
<circle cx="580.3" cy="194.1" r="5" fill="#e67e22" opacity="0.9"><title>GPIO_0 VOL | fftt | Chip: 15382</title></circle>
<circle cx="646.8" cy="221.9" r="5" fill="#e67e22" opacity="0.9"><title>GPIO_0 VOL | fftt | Chip: 15382</title></circle>
</g>
<g class="series" data-skew="fftt" data-chip="78814">
<path d="M115.2,289.6 L181.7,318.6 L248.1,341.9 L314.6,255.2 L381.0,285.0 L447.4,309.4 L513.9,145.7 L580.3,180.1 L646.8,207.2" fill="none" stroke="#1abc9c" stroke-width="2.0" stroke-linejoin="round" stroke-dasharray="8,3" opacity="0.85"/>
<circle cx="115.2" cy="289.6" r="5" fill="#1abc9c" opacity="0.9"><title>GPIO_0 VOL | fftt | Chip: 78814</title></circle>
<circle cx="181.7" cy="318.6" r="5" fill="#1abc9c" opacity="0.9"><title>GPIO_0 VOL | fftt | Chip: 78814</title></circle>
<circle cx="248.1" cy="341.9" r="5" fill="#1abc9c" opacity="0.9"><title>GPIO_0 VOL | fftt | Chip: 78814</title></circle>
<circle cx="314.6" cy="255.2" r="5" fill="#1abc9c" opacity="0.9"><title>GPIO_0 VOL | fftt | Chip: 78814</title></circle>
<circle cx="381.0" cy="285.0" r="5" fill="#1abc9c" opacity="0.9"><title>GPIO_0 VOL | fftt | Chip: 78814</title></circle>
<circle cx="447.4" cy="309.4" r="5" fill="#1abc9c" opacity="0.9"><title>GPIO_0 VOL | fftt | Chip: 78814</title></circle>
<circle cx="513.9" cy="145.7" r="5" fill="#1abc9c" opacity="0.9"><title>GPIO_0 VOL | fftt | Chip: 78814</title></circle>
<circle cx="580.3" cy="180.1" r="5" fill="#1abc9c" opacity="0.9"><title>GPIO_0 VOL | fftt | Chip: 78814</title></circle>
<circle cx="646.8" cy="207.2" r="5" fill="#1abc9c" opacity="0.9"><title>GPIO_0 VOL | fftt | Chip: 78814</title></circle>
</g>
<g class="series" data-skew="fstt" data-chip="12566">
<path d="M115.2,281.9 L181.7,310.1 L248.1,332.2 L314.6,247.5 L381.0,276.5 L447.4,300.5 L513.9,139.5 L580.3,172.8 L646.8,199.1" fill="none" stroke="#c0392b" stroke-width="2.0" stroke-linejoin="round" stroke-dasharray="4,3" opacity="0.85"/>
<circle cx="115.2" cy="281.9" r="5" fill="#c0392b" opacity="0.9"><title>GPIO_0 VOL | fstt | Chip: 12566</title></circle>
<circle cx="181.7" cy="310.1" r="5" fill="#c0392b" opacity="0.9"><title>GPIO_0 VOL | fstt | Chip: 12566</title></circle>
<circle cx="248.1" cy="332.2" r="5" fill="#c0392b" opacity="0.9"><title>GPIO_0 VOL | fstt | Chip: 12566</title></circle>
<circle cx="314.6" cy="247.5" r="5" fill="#c0392b" opacity="0.9"><title>GPIO_0 VOL | fstt | Chip: 12566</title></circle>
<circle cx="381.0" cy="276.5" r="5" fill="#c0392b" opacity="0.9"><title>GPIO_0 VOL | fstt | Chip: 12566</title></circle>
<circle cx="447.4" cy="300.5" r="5" fill="#c0392b" opacity="0.9"><title>GPIO_0 VOL | fstt | Chip: 12566</title></circle>
<circle cx="513.9" cy="139.5" r="5" fill="#c0392b" opacity="0.9"><title>GPIO_0 VOL | fstt | Chip: 12566</title></circle>
<circle cx="580.3" cy="172.8" r="5" fill="#c0392b" opacity="0.9"><title>GPIO_0 VOL | fstt | Chip: 12566</title></circle>
<circle cx="646.8" cy="199.1" r="5" fill="#c0392b" opacity="0.9"><title>GPIO_0 VOL | fstt | Chip: 12566</title></circle>
</g>
<g class="series" data-skew="fstt" data-chip="13316">
<path d="M115.2,292.3 L181.7,320.6 L248.1,342.2 L314.6,257.9 L381.0,287.3 L447.4,310.1 L513.9,149.6 L580.3,183.2 L646.8,208.4" fill="none" stroke="#2980b9" stroke-width="2.0" stroke-linejoin="round" stroke-dasharray="10,3,3,3" opacity="0.85"/>
<circle cx="115.2" cy="292.3" r="5" fill="#2980b9" opacity="0.9"><title>GPIO_0 VOL | fstt | Chip: 13316</title></circle>
<circle cx="181.7" cy="320.6" r="5" fill="#2980b9" opacity="0.9"><title>GPIO_0 VOL | fstt | Chip: 13316</title></circle>
<circle cx="248.1" cy="342.2" r="5" fill="#2980b9" opacity="0.9"><title>GPIO_0 VOL | fstt | Chip: 13316</title></circle>
<circle cx="314.6" cy="257.9" r="5" fill="#2980b9" opacity="0.9"><title>GPIO_0 VOL | fstt | Chip: 13316</title></circle>
<circle cx="381.0" cy="287.3" r="5" fill="#2980b9" opacity="0.9"><title>GPIO_0 VOL | fstt | Chip: 13316</title></circle>
<circle cx="447.4" cy="310.1" r="5" fill="#2980b9" opacity="0.9"><title>GPIO_0 VOL | fstt | Chip: 13316</title></circle>
<circle cx="513.9" cy="149.6" r="5" fill="#2980b9" opacity="0.9"><title>GPIO_0 VOL | fstt | Chip: 13316</title></circle>
<circle cx="580.3" cy="183.2" r="5" fill="#2980b9" opacity="0.9"><title>GPIO_0 VOL | fstt | Chip: 13316</title></circle>
<circle cx="646.8" cy="208.4" r="5" fill="#2980b9" opacity="0.9"><title>GPIO_0 VOL | fstt | Chip: 13316</title></circle>
</g>
<g class="series" data-skew="fstt" data-chip="62919">
<path d="M115.2,289.2 L181.7,317.9 L248.1,341.1 L314.6,254.0 L381.0,283.8 L447.4,307.8 L513.9,144.5 L580.3,178.6 L646.8,205.3" fill="none" stroke="#27ae60" stroke-width="2.0" stroke-linejoin="round" opacity="0.85"/>
<circle cx="115.2" cy="289.2" r="5" fill="#27ae60" opacity="0.9"><title>GPIO_0 VOL | fstt | Chip: 62919</title></circle>
<circle cx="181.7" cy="317.9" r="5" fill="#27ae60" opacity="0.9"><title>GPIO_0 VOL | fstt | Chip: 62919</title></circle>
<circle cx="248.1" cy="341.1" r="5" fill="#27ae60" opacity="0.9"><title>GPIO_0 VOL | fstt | Chip: 62919</title></circle>
<circle cx="314.6" cy="254.0" r="5" fill="#27ae60" opacity="0.9"><title>GPIO_0 VOL | fstt | Chip: 62919</title></circle>
<circle cx="381.0" cy="283.8" r="5" fill="#27ae60" opacity="0.9"><title>GPIO_0 VOL | fstt | Chip: 62919</title></circle>
<circle cx="447.4" cy="307.8" r="5" fill="#27ae60" opacity="0.9"><title>GPIO_0 VOL | fstt | Chip: 62919</title></circle>
<circle cx="513.9" cy="144.5" r="5" fill="#27ae60" opacity="0.9"><title>GPIO_0 VOL | fstt | Chip: 62919</title></circle>
<circle cx="580.3" cy="178.6" r="5" fill="#27ae60" opacity="0.9"><title>GPIO_0 VOL | fstt | Chip: 62919</title></circle>
<circle cx="646.8" cy="205.3" r="5" fill="#27ae60" opacity="0.9"><title>GPIO_0 VOL | fstt | Chip: 62919</title></circle>
</g>
<g class="series" data-skew="sftt" data-chip="44565">
<path d="M115.2,285.8 L181.7,317.1 L248.1,342.6 L314.6,252.1 L381.0,284.6 L447.4,310.9 L513.9,142.2 L580.3,178.2 L646.8,208.0" fill="none" stroke="#8e44ad" stroke-width="2.0" stroke-linejoin="round" stroke-dasharray="8,3" opacity="0.85"/>
<circle cx="115.2" cy="285.8" r="5" fill="#8e44ad" opacity="0.9"><title>GPIO_0 VOL | sftt | Chip: 44565</title></circle>
<circle cx="181.7" cy="317.1" r="5" fill="#8e44ad" opacity="0.9"><title>GPIO_0 VOL | sftt | Chip: 44565</title></circle>
<circle cx="248.1" cy="342.6" r="5" fill="#8e44ad" opacity="0.9"><title>GPIO_0 VOL | sftt | Chip: 44565</title></circle>
<circle cx="314.6" cy="252.1" r="5" fill="#8e44ad" opacity="0.9"><title>GPIO_0 VOL | sftt | Chip: 44565</title></circle>
<circle cx="381.0" cy="284.6" r="5" fill="#8e44ad" opacity="0.9"><title>GPIO_0 VOL | sftt | Chip: 44565</title></circle>
<circle cx="447.4" cy="310.9" r="5" fill="#8e44ad" opacity="0.9"><title>GPIO_0 VOL | sftt | Chip: 44565</title></circle>
<circle cx="513.9" cy="142.2" r="5" fill="#8e44ad" opacity="0.9"><title>GPIO_0 VOL | sftt | Chip: 44565</title></circle>
<circle cx="580.3" cy="178.2" r="5" fill="#8e44ad" opacity="0.9"><title>GPIO_0 VOL | sftt | Chip: 44565</title></circle>
<circle cx="646.8" cy="208.0" r="5" fill="#8e44ad" opacity="0.9"><title>GPIO_0 VOL | sftt | Chip: 44565</title></circle>
</g>
<g class="series" data-skew="sftt" data-chip="69627">
<path d="M115.2,278.8 L181.7,312.8 L248.1,338.8 L314.6,244.4 L381.0,278.8 L447.4,306.3 L513.9,131.8 L580.3,171.2 L646.8,201.8" fill="none" stroke="#d35400" stroke-width="2.0" stroke-linejoin="round" stroke-dasharray="4,3" opacity="0.85"/>
<circle cx="115.2" cy="278.8" r="5" fill="#d35400" opacity="0.9"><title>GPIO_0 VOL | sftt | Chip: 69627</title></circle>
<circle cx="181.7" cy="312.8" r="5" fill="#d35400" opacity="0.9"><title>GPIO_0 VOL | sftt | Chip: 69627</title></circle>
<circle cx="248.1" cy="338.8" r="5" fill="#d35400" opacity="0.9"><title>GPIO_0 VOL | sftt | Chip: 69627</title></circle>
<circle cx="314.6" cy="244.4" r="5" fill="#d35400" opacity="0.9"><title>GPIO_0 VOL | sftt | Chip: 69627</title></circle>
<circle cx="381.0" cy="278.8" r="5" fill="#d35400" opacity="0.9"><title>GPIO_0 VOL | sftt | Chip: 69627</title></circle>
<circle cx="447.4" cy="306.3" r="5" fill="#d35400" opacity="0.9"><title>GPIO_0 VOL | sftt | Chip: 69627</title></circle>
<circle cx="513.9" cy="131.8" r="5" fill="#d35400" opacity="0.9"><title>GPIO_0 VOL | sftt | Chip: 69627</title></circle>
<circle cx="580.3" cy="171.2" r="5" fill="#d35400" opacity="0.9"><title>GPIO_0 VOL | sftt | Chip: 69627</title></circle>
<circle cx="646.8" cy="201.8" r="5" fill="#d35400" opacity="0.9"><title>GPIO_0 VOL | sftt | Chip: 69627</title></circle>
</g>
<g class="series" data-skew="sftt" data-chip="76687">
<path d="M115.2,293.5 L181.7,325.2 L248.1,350.0 L314.6,259.4 L381.0,292.3 L447.4,318.6" fill="none" stroke="#16a085" stroke-width="2.0" stroke-linejoin="round" stroke-dasharray="10,3,3,3" opacity="0.85"/>
<circle cx="115.2" cy="293.5" r="5" fill="#16a085" opacity="0.9"><title>GPIO_0 VOL | sftt | Chip: 76687</title></circle>
<circle cx="181.7" cy="325.2" r="5" fill="#16a085" opacity="0.9"><title>GPIO_0 VOL | sftt | Chip: 76687</title></circle>
<circle cx="248.1" cy="350.0" r="5" fill="#16a085" opacity="0.9"><title>GPIO_0 VOL | sftt | Chip: 76687</title></circle>
<circle cx="314.6" cy="259.4" r="5" fill="#16a085" opacity="0.9"><title>GPIO_0 VOL | sftt | Chip: 76687</title></circle>
<circle cx="381.0" cy="292.3" r="5" fill="#16a085" opacity="0.9"><title>GPIO_0 VOL | sftt | Chip: 76687</title></circle>
<circle cx="447.4" cy="318.6" r="5" fill="#16a085" opacity="0.9"><title>GPIO_0 VOL | sftt | Chip: 76687</title></circle>
</g>
<g class="series" data-skew="ssff" data-chip="56508">
<path d="M115.2,335.3 L181.7,367.0 L248.1,391.0 L314.6,300.5 L381.0,333.0 L447.4,358.5 L513.9,191.4 L580.3,228.5 L646.8,257.1" fill="none" stroke="#3498db" stroke-width="2.0" stroke-linejoin="round" opacity="0.85"/>
<circle cx="115.2" cy="335.3" r="5" fill="#3498db" opacity="0.9"><title>GPIO_0 VOL | ssff | Chip: 56508</title></circle>
<circle cx="181.7" cy="367.0" r="5" fill="#3498db" opacity="0.9"><title>GPIO_0 VOL | ssff | Chip: 56508</title></circle>
<circle cx="248.1" cy="391.0" r="5" fill="#3498db" opacity="0.9"><title>GPIO_0 VOL | ssff | Chip: 56508</title></circle>
<circle cx="314.6" cy="300.5" r="5" fill="#3498db" opacity="0.9"><title>GPIO_0 VOL | ssff | Chip: 56508</title></circle>
<circle cx="381.0" cy="333.0" r="5" fill="#3498db" opacity="0.9"><title>GPIO_0 VOL | ssff | Chip: 56508</title></circle>
<circle cx="447.4" cy="358.5" r="5" fill="#3498db" opacity="0.9"><title>GPIO_0 VOL | ssff | Chip: 56508</title></circle>
<circle cx="513.9" cy="191.4" r="5" fill="#3498db" opacity="0.9"><title>GPIO_0 VOL | ssff | Chip: 56508</title></circle>
<circle cx="580.3" cy="228.5" r="5" fill="#3498db" opacity="0.9"><title>GPIO_0 VOL | ssff | Chip: 56508</title></circle>
<circle cx="646.8" cy="257.1" r="5" fill="#3498db" opacity="0.9"><title>GPIO_0 VOL | ssff | Chip: 56508</title></circle>
</g>
<g class="series" data-skew="ssff" data-chip="57571">
<path d="M115.2,335.3 L181.7,367.0 L248.1,391.4 L314.6,300.5 L381.0,334.1 L447.4,359.3 L513.9,190.2 L580.3,227.7 L646.8,256.4" fill="none" stroke="#e74c3c" stroke-width="2.0" stroke-linejoin="round" stroke-dasharray="8,3" opacity="0.85"/>
<circle cx="115.2" cy="335.3" r="5" fill="#e74c3c" opacity="0.9"><title>GPIO_0 VOL | ssff | Chip: 57571</title></circle>
<circle cx="181.7" cy="367.0" r="5" fill="#e74c3c" opacity="0.9"><title>GPIO_0 VOL | ssff | Chip: 57571</title></circle>
<circle cx="248.1" cy="391.4" r="5" fill="#e74c3c" opacity="0.9"><title>GPIO_0 VOL | ssff | Chip: 57571</title></circle>
<circle cx="314.6" cy="300.5" r="5" fill="#e74c3c" opacity="0.9"><title>GPIO_0 VOL | ssff | Chip: 57571</title></circle>
<circle cx="381.0" cy="334.1" r="5" fill="#e74c3c" opacity="0.9"><title>GPIO_0 VOL | ssff | Chip: 57571</title></circle>
<circle cx="447.4" cy="359.3" r="5" fill="#e74c3c" opacity="0.9"><title>GPIO_0 VOL | ssff | Chip: 57571</title></circle>
<circle cx="513.9" cy="190.2" r="5" fill="#e74c3c" opacity="0.9"><title>GPIO_0 VOL | ssff | Chip: 57571</title></circle>
<circle cx="580.3" cy="227.7" r="5" fill="#e74c3c" opacity="0.9"><title>GPIO_0 VOL | ssff | Chip: 57571</title></circle>
<circle cx="646.8" cy="256.4" r="5" fill="#e74c3c" opacity="0.9"><title>GPIO_0 VOL | ssff | Chip: 57571</title></circle>
</g>
<g class="series" data-skew="ssff" data-chip="96040">
<path d="M115.2,331.0 L181.7,362.7 L248.1,387.5 L314.6,296.2 L381.0,328.7 L447.4,355.0 L513.9,186.3 L580.3,223.9 L646.8,252.1" fill="none" stroke="#2ecc71" stroke-width="2.0" stroke-linejoin="round" stroke-dasharray="4,3" opacity="0.85"/>
<circle cx="115.2" cy="331.0" r="5" fill="#2ecc71" opacity="0.9"><title>GPIO_0 VOL | ssff | Chip: 96040</title></circle>
<circle cx="181.7" cy="362.7" r="5" fill="#2ecc71" opacity="0.9"><title>GPIO_0 VOL | ssff | Chip: 96040</title></circle>
<circle cx="248.1" cy="387.5" r="5" fill="#2ecc71" opacity="0.9"><title>GPIO_0 VOL | ssff | Chip: 96040</title></circle>
<circle cx="314.6" cy="296.2" r="5" fill="#2ecc71" opacity="0.9"><title>GPIO_0 VOL | ssff | Chip: 96040</title></circle>
<circle cx="381.0" cy="328.7" r="5" fill="#2ecc71" opacity="0.9"><title>GPIO_0 VOL | ssff | Chip: 96040</title></circle>
<circle cx="447.4" cy="355.0" r="5" fill="#2ecc71" opacity="0.9"><title>GPIO_0 VOL | ssff | Chip: 96040</title></circle>
<circle cx="513.9" cy="186.3" r="5" fill="#2ecc71" opacity="0.9"><title>GPIO_0 VOL | ssff | Chip: 96040</title></circle>
<circle cx="580.3" cy="223.9" r="5" fill="#2ecc71" opacity="0.9"><title>GPIO_0 VOL | ssff | Chip: 96040</title></circle>
<circle cx="646.8" cy="252.1" r="5" fill="#2ecc71" opacity="0.9"><title>GPIO_0 VOL | ssff | Chip: 96040</title></circle>
</g>
<g class="series" data-skew="sstt" data-chip="29674">
<path d="M115.2,286.5 L181.7,318.6 L248.1,343.4 L314.6,252.5 L381.0,286.1 L447.4,312.1 L513.9,143.8 L580.3,181.7 L646.8,211.1" fill="none" stroke="#9b59b6" stroke-width="2.0" stroke-linejoin="round" stroke-dasharray="10,3,3,3" opacity="0.85"/>
<circle cx="115.2" cy="286.5" r="5" fill="#9b59b6" opacity="0.9"><title>GPIO_0 VOL | sstt | Chip: 29674</title></circle>
<circle cx="181.7" cy="318.6" r="5" fill="#9b59b6" opacity="0.9"><title>GPIO_0 VOL | sstt | Chip: 29674</title></circle>
<circle cx="248.1" cy="343.4" r="5" fill="#9b59b6" opacity="0.9"><title>GPIO_0 VOL | sstt | Chip: 29674</title></circle>
<circle cx="314.6" cy="252.5" r="5" fill="#9b59b6" opacity="0.9"><title>GPIO_0 VOL | sstt | Chip: 29674</title></circle>
<circle cx="381.0" cy="286.1" r="5" fill="#9b59b6" opacity="0.9"><title>GPIO_0 VOL | sstt | Chip: 29674</title></circle>
<circle cx="447.4" cy="312.1" r="5" fill="#9b59b6" opacity="0.9"><title>GPIO_0 VOL | sstt | Chip: 29674</title></circle>
<circle cx="513.9" cy="143.8" r="5" fill="#9b59b6" opacity="0.9"><title>GPIO_0 VOL | sstt | Chip: 29674</title></circle>
<circle cx="580.3" cy="181.7" r="5" fill="#9b59b6" opacity="0.9"><title>GPIO_0 VOL | sstt | Chip: 29674</title></circle>
<circle cx="646.8" cy="211.1" r="5" fill="#9b59b6" opacity="0.9"><title>GPIO_0 VOL | sstt | Chip: 29674</title></circle>
</g>
<g class="series" data-skew="sstt" data-chip="58046">
<path d="M115.2,297.7 L181.7,330.6 L248.1,356.2 L314.6,262.5 L381.0,297.4 L447.4,324.4 L513.9,153.1 L580.3,191.4 L646.8,221.9" fill="none" stroke="#e67e22" stroke-width="2.0" stroke-linejoin="round" opacity="0.85"/>
<circle cx="115.2" cy="297.7" r="5" fill="#e67e22" opacity="0.9"><title>GPIO_0 VOL | sstt | Chip: 58046</title></circle>
<circle cx="181.7" cy="330.6" r="5" fill="#e67e22" opacity="0.9"><title>GPIO_0 VOL | sstt | Chip: 58046</title></circle>
<circle cx="248.1" cy="356.2" r="5" fill="#e67e22" opacity="0.9"><title>GPIO_0 VOL | sstt | Chip: 58046</title></circle>
<circle cx="314.6" cy="262.5" r="5" fill="#e67e22" opacity="0.9"><title>GPIO_0 VOL | sstt | Chip: 58046</title></circle>
<circle cx="381.0" cy="297.4" r="5" fill="#e67e22" opacity="0.9"><title>GPIO_0 VOL | sstt | Chip: 58046</title></circle>
<circle cx="447.4" cy="324.4" r="5" fill="#e67e22" opacity="0.9"><title>GPIO_0 VOL | sstt | Chip: 58046</title></circle>
<circle cx="513.9" cy="153.1" r="5" fill="#e67e22" opacity="0.9"><title>GPIO_0 VOL | sstt | Chip: 58046</title></circle>
<circle cx="580.3" cy="191.4" r="5" fill="#e67e22" opacity="0.9"><title>GPIO_0 VOL | sstt | Chip: 58046</title></circle>
<circle cx="646.8" cy="221.9" r="5" fill="#e67e22" opacity="0.9"><title>GPIO_0 VOL | sstt | Chip: 58046</title></circle>
</g>
<g class="series" data-skew="sstt" data-chip="9808">
<path d="M115.2,289.6 L181.7,321.3 L248.1,346.1 L314.6,254.8 L381.0,288.1 L447.4,313.6 L513.9,146.1 L580.3,182.8 L646.8,212.6" fill="none" stroke="#1abc9c" stroke-width="2.0" stroke-linejoin="round" stroke-dasharray="8,3" opacity="0.85"/>
<circle cx="115.2" cy="289.6" r="5" fill="#1abc9c" opacity="0.9"><title>GPIO_0 VOL | sstt | Chip: 9808</title></circle>
<circle cx="181.7" cy="321.3" r="5" fill="#1abc9c" opacity="0.9"><title>GPIO_0 VOL | sstt | Chip: 9808</title></circle>
<circle cx="248.1" cy="346.1" r="5" fill="#1abc9c" opacity="0.9"><title>GPIO_0 VOL | sstt | Chip: 9808</title></circle>
<circle cx="314.6" cy="254.8" r="5" fill="#1abc9c" opacity="0.9"><title>GPIO_0 VOL | sstt | Chip: 9808</title></circle>
<circle cx="381.0" cy="288.1" r="5" fill="#1abc9c" opacity="0.9"><title>GPIO_0 VOL | sstt | Chip: 9808</title></circle>
<circle cx="447.4" cy="313.6" r="5" fill="#1abc9c" opacity="0.9"><title>GPIO_0 VOL | sstt | Chip: 9808</title></circle>
<circle cx="513.9" cy="146.1" r="5" fill="#1abc9c" opacity="0.9"><title>GPIO_0 VOL | sstt | Chip: 9808</title></circle>
<circle cx="580.3" cy="182.8" r="5" fill="#1abc9c" opacity="0.9"><title>GPIO_0 VOL | sstt | Chip: 9808</title></circle>
<circle cx="646.8" cy="212.6" r="5" fill="#1abc9c" opacity="0.9"><title>GPIO_0 VOL | sstt | Chip: 9808</title></circle>
</g>
<line x1="82.0" y1="182.8" x2="680.0" y2="182.8" stroke="#e74c3c" stroke-width="1.8" stroke-dasharray="4,4"/>
<text x="685.0" y="186.8" font-size="9" font-weight="normal" text-anchor="start" fill="#e74c3c" font-family="Arial,sans-serif">Max spec: 0.45</text>
<g class="legend-item" data-skew="ffss" data-chip="25679">
<line x1="688" y1="77" x2="716" y2="77" stroke="#3498db" stroke-width="2.0" />
<circle cx="702" cy="77" r="5" fill="#3498db"/>
<text x="720" y="81" font-size="10" font-family="Arial,sans-serif" fill="#2c3e50">25679 | ffss</text>
</g>
<g class="legend-item" data-skew="ffss" data-chip="43407">
<line x1="688" y1="99" x2="716" y2="99" stroke="#e74c3c" stroke-width="2.0" stroke-dasharray="8,3" />
<circle cx="702" cy="99" r="5" fill="#e74c3c"/>
<text x="720" y="103" font-size="10" font-family="Arial,sans-serif" fill="#2c3e50">43407 | ffss</text>
</g>
<g class="legend-item" data-skew="ffss" data-chip="79093">
<line x1="688" y1="121" x2="716" y2="121" stroke="#2ecc71" stroke-width="2.0" stroke-dasharray="4,3" />
<circle cx="702" cy="121" r="5" fill="#2ecc71"/>
<text x="720" y="125" font-size="10" font-family="Arial,sans-serif" fill="#2c3e50">79093 | ffss</text>
</g>
<g class="legend-item" data-skew="fftt" data-chip="13967">
<line x1="688" y1="143" x2="716" y2="143" stroke="#9b59b6" stroke-width="2.0" stroke-dasharray="10,3,3,3" />
<circle cx="702" cy="143" r="5" fill="#9b59b6"/>
<text x="720" y="147" font-size="10" font-family="Arial,sans-serif" fill="#2c3e50">13967 | fftt</text>
</g>
<g class="legend-item" data-skew="fftt" data-chip="15382">
<line x1="688" y1="165" x2="716" y2="165" stroke="#e67e22" stroke-width="2.0" />
<circle cx="702" cy="165" r="5" fill="#e67e22"/>
<text x="720" y="169" font-size="10" font-family="Arial,sans-serif" fill="#2c3e50">15382 | fftt</text>
</g>
<g class="legend-item" data-skew="fftt" data-chip="78814">
<line x1="688" y1="187" x2="716" y2="187" stroke="#1abc9c" stroke-width="2.0" stroke-dasharray="8,3" />
<circle cx="702" cy="187" r="5" fill="#1abc9c"/>
<text x="720" y="191" font-size="10" font-family="Arial,sans-serif" fill="#2c3e50">78814 | fftt</text>
</g>
<g class="legend-item" data-skew="fstt" data-chip="12566">
<line x1="688" y1="209" x2="716" y2="209" stroke="#c0392b" stroke-width="2.0" stroke-dasharray="4,3" />
<circle cx="702" cy="209" r="5" fill="#c0392b"/>
<text x="720" y="213" font-size="10" font-family="Arial,sans-serif" fill="#2c3e50">12566 | fstt</text>
</g>
<g class="legend-item" data-skew="fstt" data-chip="13316">
<line x1="688" y1="231" x2="716" y2="231" stroke="#2980b9" stroke-width="2.0" stroke-dasharray="10,3,3,3" />
<circle cx="702" cy="231" r="5" fill="#2980b9"/>
<text x="720" y="235" font-size="10" font-family="Arial,sans-serif" fill="#2c3e50">13316 | fstt</text>
</g>
<g class="legend-item" data-skew="fstt" data-chip="62919">
<line x1="688" y1="253" x2="716" y2="253" stroke="#27ae60" stroke-width="2.0" />
<circle cx="702" cy="253" r="5" fill="#27ae60"/>
<text x="720" y="257" font-size="10" font-family="Arial,sans-serif" fill="#2c3e50">62919 | fstt</text>
</g>
<g class="legend-item" data-skew="sftt" data-chip="44565">
<line x1="688" y1="275" x2="716" y2="275" stroke="#8e44ad" stroke-width="2.0" stroke-dasharray="8,3" />
<circle cx="702" cy="275" r="5" fill="#8e44ad"/>
<text x="720" y="279" font-size="10" font-family="Arial,sans-serif" fill="#2c3e50">44565 | sftt</text>
</g>
<g class="legend-item" data-skew="sftt" data-chip="69627">
<line x1="688" y1="297" x2="716" y2="297" stroke="#d35400" stroke-width="2.0" stroke-dasharray="4,3" />
<circle cx="702" cy="297" r="5" fill="#d35400"/>
<text x="720" y="301" font-size="10" font-family="Arial,sans-serif" fill="#2c3e50">69627 | sftt</text>
</g>
<g class="legend-item" data-skew="sftt" data-chip="76687">
<line x1="688" y1="319" x2="716" y2="319" stroke="#16a085" stroke-width="2.0" stroke-dasharray="10,3,3,3" />
<circle cx="702" cy="319" r="5" fill="#16a085"/>
<text x="720" y="323" font-size="10" font-family="Arial,sans-serif" fill="#2c3e50">76687 | sftt</text>
</g>
<g class="legend-item" data-skew="ssff" data-chip="56508">
<line x1="688" y1="341" x2="716" y2="341" stroke="#3498db" stroke-width="2.0" />
<circle cx="702" cy="341" r="5" fill="#3498db"/>
<text x="720" y="345" font-size="10" font-family="Arial,sans-serif" fill="#2c3e50">56508 | ssff</text>
</g>
<g class="legend-item" data-skew="ssff" data-chip="57571">
<line x1="688" y1="363" x2="716" y2="363" stroke="#e74c3c" stroke-width="2.0" stroke-dasharray="8,3" />
<circle cx="702" cy="363" r="5" fill="#e74c3c"/>
<text x="720" y="367" font-size="10" font-family="Arial,sans-serif" fill="#2c3e50">57571 | ssff</text>
</g>
<g class="legend-item" data-skew="ssff" data-chip="96040">
<line x1="688" y1="385" x2="716" y2="385" stroke="#2ecc71" stroke-width="2.0" stroke-dasharray="4,3" />
<circle cx="702" cy="385" r="5" fill="#2ecc71"/>
<text x="720" y="389" font-size="10" font-family="Arial,sans-serif" fill="#2c3e50">96040 | ssff</text>
</g>
<g class="legend-item" data-skew="sstt" data-chip="29674">
<line x1="688" y1="407" x2="716" y2="407" stroke="#9b59b6" stroke-width="2.0" stroke-dasharray="10,3,3,3" />
<circle cx="702" cy="407" r="5" fill="#9b59b6"/>
<text x="720" y="411" font-size="10" font-family="Arial,sans-serif" fill="#2c3e50">29674 | sstt</text>
</g>
<g class="legend-item" data-skew="sstt" data-chip="58046">
<line x1="688" y1="429" x2="716" y2="429" stroke="#e67e22" stroke-width="2.0" />
<circle cx="702" cy="429" r="5" fill="#e67e22"/>
<text x="720" y="433" font-size="10" font-family="Arial,sans-serif" fill="#2c3e50">58046 | sstt</text>
</g>
<g class="legend-item" data-skew="sstt" data-chip="9808">
<line x1="688" y1="451" x2="716" y2="451" stroke="#1abc9c" stroke-width="2.0" stroke-dasharray="8,3" />
<circle cx="702" cy="451" r="5" fill="#1abc9c"/>
<text x="720" y="455" font-size="10" font-family="Arial,sans-serif" fill="#2c3e50">9808 | sstt</text>
</g>
</svg>