<svg xmlns="http://www.w3.org/2000/svg" width="860" height="526" viewBox="0 0 860 526">
<rect width="860" height="526" fill="#ffffff"/>
<text x="430.0" y="28.0" font-size="16" font-weight="bold" text-anchor="middle" fill="#2c3e50" font-family="Arial,sans-serif">GPIO_0  [PB16DSFS_18_18_H] — VOL (V)  DS=DS_13  [VOH/VOL]</text>
<line x1="82.0" y1="426.0" x2="680.0" y2="426.0" stroke="#999" stroke-width="1"/>
<line x1="82.0" y1="72.0" x2="82.0" y2="426.0" stroke="#999" stroke-width="1"/>
<line x1="82.0" y1="72.0" x2="82.0" y2="426.0" stroke="#999" stroke-width="1"/>
<line x1="77.0" y1="426.0" x2="82.0" y2="426.0" stroke="#999" stroke-width="1"/>
<line x1="82.0" y1="426.0" x2="680.0" y2="426.0" stroke="#e0e0e0" stroke-width="0.8" stroke-dasharray="3,3"/>
<text x="74.0" y="430.0" font-size="9" font-weight="normal" text-anchor="end" fill="#7f8c8d" font-family="Arial,sans-serif">0.391</text>
<line x1="77.0" y1="355.2" x2="82.0" y2="355.2" stroke="#999" stroke-width="1"/>
<line x1="82.0" y1="355.2" x2="680.0" y2="355.2" stroke="#e0e0e0" stroke-width="0.8" stroke-dasharray="3,3"/>
<text x="74.0" y="359.2" font-size="9" font-weight="normal" text-anchor="end" fill="#7f8c8d" font-family="Arial,sans-serif">0.41</text>
<line x1="77.0" y1="284.4" x2="82.0" y2="284.4" stroke="#999" stroke-width="1"/>
<line x1="82.0" y1="284.4" x2="680.0" y2="284.4" stroke="#e0e0e0" stroke-width="0.8" stroke-dasharray="3,3"/>
<text x="74.0" y="288.4" font-size="9" font-weight="normal" text-anchor="end" fill="#7f8c8d" font-family="Arial,sans-serif">0.429</text>
<line x1="77.0" y1="213.6" x2="82.0" y2="213.6" stroke="#999" stroke-width="1"/>
<line x1="82.0" y1="213.6" x2="680.0" y2="213.6" stroke="#e0e0e0" stroke-width="0.8" stroke-dasharray="3,3"/>
<text x="74.0" y="217.6" font-size="9" font-weight="normal" text-anchor="end" fill="#7f8c8d" font-family="Arial,sans-serif">0.447</text>
<line x1="77.0" y1="142.8" x2="82.0" y2="142.8" stroke="#999" stroke-width="1"/>
<line x1="82.0" y1="142.8" x2="680.0" y2="142.8" stroke="#e0e0e0" stroke-width="0.8" stroke-dasharray="3,3"/>
<text x="74.0" y="146.8" font-size="9" font-weight="normal" text-anchor="end" fill="#7f8c8d" font-family="Arial,sans-serif">0.466</text>
<line x1="77.0" y1="72.0" x2="82.0" y2="72.0" stroke="#999" stroke-width="1"/>
<line x1="82.0" y1="72.0" x2="680.0" y2="72.0" stroke="#e0e0e0" stroke-width="0.8" stroke-dasharray="3,3"/>
<text x="74.0" y="76.0" font-size="9" font-weight="normal" text-anchor="end" fill="#7f8c8d" font-family="Arial,sans-serif">0.485</text>
<text x="14.0" y="249.0" font-size="10" font-weight="normal" text-anchor="middle" fill="#7f8c8d" font-family="Arial,sans-serif" transform="rotate(-90,14,249.0)">VOL (V)</text>
<text x="115.2" y="440.0" font-size="8" font-weight="normal" text-anchor="end" fill="#333" font-family="Arial,sans-serif" transform="rotate(-45,115.2,440)">VIO=1.62
VC=0.64</text>
<text x="181.7" y="440.0" font-size="8" font-weight="normal" text-anchor="end" fill="#333" font-family="Arial,sans-serif" transform="rotate(-45,181.7,440)">VIO=1.8
VC=0.8</text>
<text x="248.1" y="440.0" font-size="8" font-weight="normal" text-anchor="end" fill="#333" font-family="Arial,sans-serif" transform="rotate(-45,248.1,440)">VIO=1.98
VC=0.96</text>
<line x1="281.3" y1="72.0" x2="281.3" y2="426.0" stroke="#cccccc" stroke-width="1" stroke-dasharray="4,3"/>
<text x="314.6" y="440.0" font-size="8" font-weight="normal" text-anchor="end" fill="#333" font-family="Arial,sans-serif" transform="rotate(-45,314.6,440)">VIO=1.62
VC=0.64</text>
<text x="381.0" y="440.0" font-size="8" font-weight="normal" text-anchor="end" fill="#333" font-family="Arial,sans-serif" transform="rotate(-45,381.0,440)">VIO=1.8
VC=0.8</text>
<text x="447.4" y="440.0" font-size="8" font-weight="normal" text-anchor="end" fill="#333" font-family="Arial,sans-serif" transform="rotate(-45,447.4,440)">VIO=1.98
VC=0.96</text>
<line x1="480.7" y1="72.0" x2="480.7" y2="426.0" stroke="#cccccc" stroke-width="1" stroke-dasharray="4,3"/>
<text x="513.9" y="440.0" font-size="8" font-weight="normal" text-anchor="end" fill="#333" font-family="Arial,sans-serif" transform="rotate(-45,513.9,440)">VIO=1.62
VC=0.64</text>
<text x="580.3" y="440.0" font-size="8" font-weight="normal" text-anchor="end" fill="#333" font-family="Arial,sans-serif" transform="rotate(-45,580.3,440)">VIO=1.8
VC=0.8</text>
<text x="646.8" y="440.0" font-size="8" font-weight="normal" text-anchor="end" fill="#333" font-family="Arial,sans-serif" transform="rotate(-45,646.8,440)">VIO=1.98
VC=0.96</text>
<text x="181.7" y="62.0" font-size="10" font-weight="bold" text-anchor="middle" fill="#2c3e50" font-family="Arial,sans-serif">T=0°C</text>
<text x="381.0" y="62.0" font-size="10" font-weight="bold" text-anchor="middle" fill="#2c3e50" font-family="Arial,sans-serif">T=20°C</text>
<text x="580.3" y="62.0" font-size="10" font-weight="bold" text-anchor="middle" fill="#2c3e50" font-family="Arial,sans-serif">T=80°C</text>
<g class="series" data-skew="ffss" data-chip="25679">
<path d="M115.2,255.1 L181.7,282.0 L248.1,304.0 L314.6,219.4 L381.0,248.6 L447.4,271.8 L513.9,110.9 L580.3,143.1 L646.8,170.1" fill="none" stroke="#3498db" stroke-width="2.0" stroke-linejoin="round" opacity="0.85"/>
<circle cx="115.2" cy="255.1" r="5" fill="#3498db" opacity="0.9"><title>GPIO_0 VOL | ffss | Chip: 25679</title></circle>
<circle cx="181.7" cy="282.0" r="5" fill="#3498db" opacity="0.9"><title>GPIO_0 VOL | ffss | Chip: 25679</title></circle>
<circle cx="248.1" cy="304.0" r="5" fill="#3498db" opacity="0.9"><title>GPIO_0 VOL | ffss | Chip: 25679</title></circle>
<circle cx="314.6" cy="219.4" r="5" fill="#3498db" opacity="0.9"><title>GPIO_0 VOL | ffss | Chip: 25679</title></circle>
<circle cx="381.0" cy="248.6" r="5" fill="#3498db" opacity="0.9"><title>GPIO_0 VOL | ffss | Chip: 25679</title></circle>
<circle cx="447.4" cy="271.8" r="5" fill="#3498db" opacity="0.9"><title>GPIO_0 VOL | ffss | Chip: 25679</title></circle>
<circle cx="513.9" cy="110.9" r="5" fill="#3498db" opacity="0.9"><title>GPIO_0 VOL | ffss | Chip: 25679</title></circle>
<circle cx="580.3" cy="143.1" r="5" fill="#3498db" opacity="0.9"><title>GPIO_0 VOL | ffss | Chip: 25679</title></circle>
<circle cx="646.8" cy="170.1" r="5" fill="#3498db" opacity="0.9"><title>GPIO_0 VOL | ffss | Chip: 25679</title></circle>
</g>
<g class="series" data-skew="ffss" data-chip="43407">
<path d="M115.2,244.1 L181.7,271.8 L248.1,294.9 L314.6,208.4 L381.0,238.4 L447.4,261.5 L513.9,97.2 L580.3,131.0 L646.8,157.9" fill="none" stroke="#e74c3c" stroke-width="2.0" stroke-linejoin="round" stroke-dasharray="8,3" opacity="0.85"/>
<circle cx="115.2" cy="244.1" r="5" fill="#e74c3c" opacity="0.9"><title>GPIO_0 VOL | ffss | Chip: 43407</title></circle>
<circle cx="181.7" cy="271.8" r="5" fill="#e74c3c" opacity="0.9"><title>GPIO_0 VOL | ffss | Chip: 43407</title></circle>
<circle cx="248.1" cy="294.9" r="5" fill="#e74c3c" opacity="0.9"><title>GPIO_0 VOL | ffss | Chip: 43407</title></circle>
<circle cx="314.6" cy="208.4" r="5" fill="#e74c3c" opacity="0.9"><title>GPIO_0 VOL | ffss | Chip: 43407</title></circle>
<circle cx="381.0" cy="238.4" r="5" fill="#e74c3c" opacity="0.9"><title>GPIO_0 VOL | ffss | Chip: 43407</title></circle>
<circle cx="447.4" cy="261.5" r="5" fill="#e74c3c" opacity="0.9"><title>GPIO_0 VOL | ffss | Chip: 43407</title></circle>
<circle cx="513.9" cy="97.2" r="5" fill="#e74c3c" opacity="0.9"><title>GPIO_0 VOL | ffss | Chip: 43407</title></circle>
<circle cx="580.3" cy="131.0" r="5" fill="#e74c3c" opacity="0.9"><title>GPIO_0 VOL | ffss | Chip: 43407</title></circle>
<circle cx="646.8" cy="157.9" r="5" fill="#e74c3c" opacity="0.9"><title>GPIO_0 VOL | ffss | Chip: 43407</title></circle>
</g>
<g class="series" data-skew="ffss" data-chip="79093">
<path d="M115.2,253.9 L181.7,281.6 L248.1,304.0 L314.6,218.6 L381.0,248.2 L447.4,271.4 L513.9,109.4 L580.3,142.4 L646.8,168.9" fill="none" stroke="#2ecc71" stroke-width="2.0" stroke-linejoin="round" stroke-dasharray="4,3" opacity="0.85"/>
<circle cx="115.2" cy="253.9" r="5" fill="#2ecc71" opacity="0.9"><title>GPIO_0 VOL | ffss | Chip: 79093</title></circle>
<circle cx="181.7" cy="281.6" r="5" fill="#2ecc71" opacity="0.9"><title>GPIO_0 VOL | ffss | Chip: 79093</title></circle>
<circle cx="248.1" cy="304.0" r="5" fill="#2ecc71" opacity="0.9"><title>GPIO_0 VOL | ffss | Chip: 79093</title></circle>
<circle cx="314.6" cy="218.6" r="5" fill="#2ecc71" opacity="0.9"><title>GPIO_0 VOL | ffss | Chip: 79093</title></circle>
<circle cx="381.0" cy="248.2" r="5" fill="#2ecc71" opacity="0.9"><title>GPIO_0 VOL | ffss | Chip: 79093</title></circle>
<circle cx="447.4" cy="271.4" r="5" fill="#2ecc71" opacity="0.9"><title>GPIO_0 VOL | ffss | Chip: 79093</title></circle>
<circle cx="513.9" cy="109.4" r="5" fill="#2ecc71" opacity="0.9"><title>GPIO_0 VOL | ffss | Chip: 79093</title></circle>
<circle cx="580.3" cy="142.4" r="5" fill="#2ecc71" opacity="0.9"><title>GPIO_0 VOL | ffss | Chip: 79093</title></circle>
<circle cx="646.8" cy="168.9" r="5" fill="#2ecc71" opacity="0.9"><title>GPIO_0 VOL | ffss | Chip: 79093</title></circle>
</g>
<g class="series" data-skew="fftt" data-chip="13967">
<path d="M115.2,291.1 L181.7,320.3 L248.1,343.1 L314.6,258.1 L381.0,287.3 L447.4,311.2 L513.9,137.8 L580.3,172.7 L646.8,202.0" fill="none" stroke="#9b59b6" stroke-width="2.0" stroke-linejoin="round" stroke-dasharray="10,3,3,3" opacity="0.85"/>
<circle cx="115.2" cy="291.1" r="5" fill="#9b59b6" opacity="0.9"><title>GPIO_0 VOL | fftt | Chip: 13967</title></circle>
<circle cx="181.7" cy="320.3" r="5" fill="#9b59b6" opacity="0.9"><title>GPIO_0 VOL | fftt | Chip: 13967</title></circle>
<circle cx="248.1" cy="343.1" r="5" fill="#9b59b6" opacity="0.9"><title>GPIO_0 VOL | fftt | Chip: 13967</title></circle>
<circle cx="314.6" cy="258.1" r="5" fill="#9b59b6" opacity="0.9"><title>GPIO_0 VOL | fftt | Chip: 13967</title></circle>
<circle cx="381.0" cy="287.3" r="5" fill="#9b59b6" opacity="0.9"><title>GPIO_0 VOL | fftt | Chip: 13967</title></circle>
<circle cx="447.4" cy="311.2" r="5" fill="#9b59b6" opacity="0.9"><title>GPIO_0 VOL | fftt | Chip: 13967</title></circle>
<circle cx="513.9" cy="137.8" r="5" fill="#9b59b6" opacity="0.9"><title>GPIO_0 VOL | fftt | Chip: 13967</title></circle>
<circle cx="580.3" cy="172.7" r="5" fill="#9b59b6" opacity="0.9"><title>GPIO_0 VOL | fftt | Chip: 13967</title></circle>
<circle cx="646.8" cy="202.0" r="5" fill="#9b59b6" opacity="0.9"><title>GPIO_0 VOL | fftt | Chip: 13967</title></circle>
</g>
<g class="series" data-skew="fftt" data-chip="15382">
<path d="M115.2,299.1 L181.7,328.7 L248.1,352.2 L314.6,267.6 L381.0,297.6 L447.4,322.2 L513.9,157.6 L580.3,192.5 L646.8,219.4" fill="none" stroke="#e67e22" stroke-width="2.0" stroke-linejoin="round" opacity="0.85"/>
<circle cx="115.2" cy="299.1" r="5" fill="#e67e22" opacity="0.9"><title>GPIO_0 VOL | fftt | Chip: 15382</title></circle>
<circle cx="181.7" cy="328.7" r="5" fill="#e67e22" opacity="0.9"><title>GPIO_0 VOL | fftt | Chip: 15382</title></circle>
<circle cx="248.1" cy="352.2" r="5" fill="#e67e22" opacity="0.9"><title>GPIO_0 VOL | fftt | Chip: 15382</title></circle>
<circle cx="314.6" cy="267.6" r="5" fill="#e67e22" opacity="0.9"><title>GPIO_0 VOL | fftt | Chip: 15382</title></circle>
<circle cx="381.0" cy="297.6" r="5" fill="#e67e22" opacity="0.9"><title>GPIO_0 VOL | fftt | Chip: 15382</title></circle>
<circle cx="447.4" cy="322.2" r="5" fill="#e67e22" opacity="0.9"><title>GPIO_0 VOL | fftt | Chip: 15382</title></circle>
<circle cx="513.9" cy="157.6" r="5" fill="#e67e22" opacity="0.9"><title>GPIO_0 VOL | fftt | Chip: 15382</title></circle>
<circle cx="580.3" cy="192.5" r="5" fill="#e67e22" opacity="0.9"><title>GPIO_0 VOL | fftt | Chip: 15382</title></circle>
<circle cx="646.8" cy="219.4" r="5" fill="#e67e22" opacity="0.9"><title>GPIO_0 VOL | fftt | Chip: 15382</title></circle>
</g>
<g class="series" data-skew="fftt" data-chip="78814">
<path d="M115.2,291.5 L181.7,320.3 L248.1,342.7 L314.6,257.0 L381.0,285.0 L447.4,309.3 L513.9,144.3 L580.3,178.4 L646.8,204.6" fill="none" stroke="#1abc9c" stroke-width="2.0" stroke-linejoin="round" stroke-dasharray="8,3" opacity="0.85"/>
<circle cx="115.2" cy="291.5" r="5" fill="#1abc9c" opacity="0.9"><title>GPIO_0 VOL | fftt | Chip: 78814</title></circle>
<circle cx="181.7" cy="320.3" r="5" fill="#1abc9c" opacity="0.9"><title>GPIO_0 VOL | fftt | Chip: 78814</title></circle>
<circle cx="248.1" cy="342.7" r="5" fill="#1abc9c" opacity="0.9"><title>GPIO_0 VOL | fftt | Chip: 78814</title></circle>
<circle cx="314.6" cy="257.0" r="5" fill="#1abc9c" opacity="0.9"><title>GPIO_0 VOL | fftt | Chip: 78814</title></circle>
<circle cx="381.0" cy="285.0" r="5" fill="#1abc9c" opacity="0.9"><title>GPIO_0 VOL | fftt | Chip: 78814</title></circle>
<circle cx="447.4" cy="309.3" r="5" fill="#1abc9c" opacity="0.9"><title>GPIO_0 VOL | fftt | Chip: 78814</title></circle>
<circle cx="513.9" cy="144.3" r="5" fill="#1abc9c" opacity="0.9"><title>GPIO_0 VOL | fftt | Chip: 78814</title></circle>
<circle cx="580.3" cy="178.4" r="5" fill="#1abc9c" opacity="0.9"><title>GPIO_0 VOL | fftt | Chip: 78814</title></circle>
<circle cx="646.8" cy="204.6" r="5" fill="#1abc9c" opacity="0.9"><title>GPIO_0 VOL | fftt | Chip: 78814</title></circle>
</g>
<g class="series" data-skew="fstt" data-chip="12566">
<path d="M115.2,284.3 L181.7,312.0 L248.1,333.6 L314.6,249.0 L381.0,277.5 L447.4,300.2 L513.9,138.2 L580.3,170.8 L646.8,196.6" fill="none" stroke="#c0392b" stroke-width="2.0" stroke-linejoin="round" stroke-dasharray="4,3" opacity="0.85"/>
<circle cx="115.2" cy="284.3" r="5" fill="#c0392b" opacity="0.9"><title>GPIO_0 VOL | fstt | Chip: 12566</title></circle>
<circle cx="181.7" cy="312.0" r="5" fill="#c0392b" opacity="0.9"><title>GPIO_0 VOL | fstt | Chip: 12566</title></circle>
<circle cx="248.1" cy="333.6" r="5" fill="#c0392b" opacity="0.9"><title>GPIO_0 VOL | fstt | Chip: 12566</title></circle>
<circle cx="314.6" cy="249.0" r="5" fill="#c0392b" opacity="0.9"><title>GPIO_0 VOL | fstt | Chip: 12566</title></circle>
<circle cx="381.0" cy="277.5" r="5" fill="#c0392b" opacity="0.9"><title>GPIO_0 VOL | fstt | Chip: 12566</title></circle>
<circle cx="447.4" cy="300.2" r="5" fill="#c0392b" opacity="0.9"><title>GPIO_0 VOL | fstt | Chip: 12566</title></circle>
<circle cx="513.9" cy="138.2" r="5" fill="#c0392b" opacity="0.9"><title>GPIO_0 VOL | fstt | Chip: 12566</title></circle>
<circle cx="580.3" cy="170.8" r="5" fill="#c0392b" opacity="0.9"><title>GPIO_0 VOL | fstt | Chip: 12566</title></circle>
<circle cx="646.8" cy="196.6" r="5" fill="#c0392b" opacity="0.9"><title>GPIO_0 VOL | fstt | Chip: 12566</title></circle>
</g>
<g class="series" data-skew="fstt" data-chip="13316">
<path d="M115.2,294.2 L181.7,322.2 L248.1,343.5 L314.6,259.2 L381.0,287.3 L447.4,310.1 L513.9,148.5 L580.3,181.1 L646.8,206.1" fill="none" stroke="#2980b9" stroke-width="2.0" stroke-linejoin="round" stroke-dasharray="10,3,3,3" opacity="0.85"/>
<circle cx="115.2" cy="294.2" r="5" fill="#2980b9" opacity="0.9"><title>GPIO_0 VOL | fstt | Chip: 13316</title></circle>
<circle cx="181.7" cy="322.2" r="5" fill="#2980b9" opacity="0.9"><title>GPIO_0 VOL | fstt | Chip: 13316</title></circle>
<circle cx="248.1" cy="343.5" r="5" fill="#2980b9" opacity="0.9"><title>GPIO_0 VOL | fstt | Chip: 13316</title></circle>
<circle cx="314.6" cy="259.2" r="5" fill="#2980b9" opacity="0.9"><title>GPIO_0 VOL | fstt | Chip: 13316</title></circle>
<circle cx="381.0" cy="287.3" r="5" fill="#2980b9" opacity="0.9"><title>GPIO_0 VOL | fstt | Chip: 13316</title></circle>
<circle cx="447.4" cy="310.1" r="5" fill="#2980b9" opacity="0.9"><title>GPIO_0 VOL | fstt | Chip: 13316</title></circle>
<circle cx="513.9" cy="148.5" r="5" fill="#2980b9" opacity="0.9"><title>GPIO_0 VOL | fstt | Chip: 13316</title></circle>
<circle cx="580.3" cy="181.1" r="5" fill="#2980b9" opacity="0.9"><title>GPIO_0 VOL | fstt | Chip: 13316</title></circle>
<circle cx="646.8" cy="206.1" r="5" fill="#2980b9" opacity="0.9"><title>GPIO_0 VOL | fstt | Chip: 13316</title></circle>
</g>
<g class="series" data-skew="fstt" data-chip="62919">
<path d="M115.2,291.1 L181.7,319.2 L248.1,342.0 L314.6,255.8 L381.0,284.7 L447.4,308.2 L513.9,143.1 L580.3,176.2 L646.8,202.7" fill="none" stroke="#27ae60" stroke-width="2.0" stroke-linejoin="round" opacity="0.85"/>
<circle cx="115.2" cy="291.1" r="5" fill="#27ae60" opacity="0.9"><title>GPIO_0 VOL | fstt | Chip: 62919</title></circle>
<circle cx="181.7" cy="319.2" r="5" fill="#27ae60" opacity="0.9"><title>GPIO_0 VOL | fstt | Chip: 62919</title></circle>
<circle cx="248.1" cy="342.0" r="5" fill="#27ae60" opacity="0.9"><title>GPIO_0 VOL | fstt | Chip: 62919</title></circle>
<circle cx="314.6" cy="255.8" r="5" fill="#27ae60" opacity="0.9"><title>GPIO_0 VOL | fstt | Chip: 62919</title></circle>
<circle cx="381.0" cy="284.7" r="5" fill="#27ae60" opacity="0.9"><title>GPIO_0 VOL | fstt | Chip: 62919</title></circle>
<circle cx="447.4" cy="308.2" r="5" fill="#27ae60" opacity="0.9"><title>GPIO_0 VOL | fstt | Chip: 62919</title></circle>
<circle cx="513.9" cy="143.1" r="5" fill="#27ae60" opacity="0.9"><title>GPIO_0 VOL | fstt | Chip: 62919</title></circle>
<circle cx="580.3" cy="176.2" r="5" fill="#27ae60" opacity="0.9"><title>GPIO_0 VOL | fstt | Chip: 62919</title></circle>
<circle cx="646.8" cy="202.7" r="5" fill="#27ae60" opacity="0.9"><title>GPIO_0 VOL | fstt | Chip: 62919</title></circle>
</g>
<g class="series" data-skew="sftt" data-chip="44565">
<path d="M115.2,288.5 L181.7,319.6 L248.1,343.9 L314.6,253.6 L381.0,285.4 L447.4,311.2 L513.9,141.2 L580.3,177.3 L646.8,205.0" fill="none" stroke="#8e44ad" stroke-width="2.0" stroke-linejoin="round" stroke-dasharray="8,3" opacity="0.85"/>
<circle cx="115.2" cy="288.5" r="5" fill="#8e44ad" opacity="0.9"><title>GPIO_0 VOL | sftt | Chip: 44565</title></circle>
<circle cx="181.7" cy="319.6" r="5" fill="#8e44ad" opacity="0.9"><title>GPIO_0 VOL | sftt | Chip: 44565</title></circle>
<circle cx="248.1" cy="343.9" r="5" fill="#8e44ad" opacity="0.9"><title>GPIO_0 VOL | sftt | Chip: 44565</title></circle>
<circle cx="314.6" cy="253.6" r="5" fill="#8e44ad" opacity="0.9"><title>GPIO_0 VOL | sftt | Chip: 44565</title></circle>
<circle cx="381.0" cy="285.4" r="5" fill="#8e44ad" opacity="0.9"><title>GPIO_0 VOL | sftt | Chip: 44565</title></circle>
<circle cx="447.4" cy="311.2" r="5" fill="#8e44ad" opacity="0.9"><title>GPIO_0 VOL | sftt | Chip: 44565</title></circle>
<circle cx="513.9" cy="141.2" r="5" fill="#8e44ad" opacity="0.9"><title>GPIO_0 VOL | sftt | Chip: 44565</title></circle>
<circle cx="580.3" cy="177.3" r="5" fill="#8e44ad" opacity="0.9"><title>GPIO_0 VOL | sftt | Chip: 44565</title></circle>
<circle cx="646.8" cy="205.0" r="5" fill="#8e44ad" opacity="0.9"><title>GPIO_0 VOL | sftt | Chip: 44565</title></circle>
</g>
<g class="series" data-skew="sftt" data-chip="69627">
<path d="M115.2,282.0 L181.7,314.6 L248.1,340.1 L314.6,246.3 L381.0,280.1 L447.4,306.7 L513.9,131.8 L580.3,170.5 L646.8,200.1" fill="none" stroke="#d35400" stroke-width="2.0" stroke-linejoin="round" stroke-dasharray="4,3" opacity="0.85"/>
<circle cx="115.2" cy="282.0" r="5" fill="#d35400" opacity="0.9"><title>GPIO_0 VOL | sftt | Chip: 69627</title></circle>
<circle cx="181.7" cy="314.6" r="5" fill="#d35400" opacity="0.9"><title>GPIO_0 VOL | sftt | Chip: 69627</title></circle>
<circle cx="248.1" cy="340.1" r="5" fill="#d35400" opacity="0.9"><title>GPIO_0 VOL | sftt | Chip: 69627</title></circle>
<circle cx="314.6" cy="246.3" r="5" fill="#d35400" opacity="0.9"><title>GPIO_0 VOL | sftt | Chip: 69627</title></circle>
<circle cx="381.0" cy="280.1" r="5" fill="#d35400" opacity="0.9"><title>GPIO_0 VOL | sftt | Chip: 69627</title></circle>
<circle cx="447.4" cy="306.7" r="5" fill="#d35400" opacity="0.9"><title>GPIO_0 VOL | sftt | Chip: 69627</title></circle>
<circle cx="513.9" cy="131.8" r="5" fill="#d35400" opacity="0.9"><title>GPIO_0 VOL | sftt | Chip: 69627</title></circle>
<circle cx="580.3" cy="170.5" r="5" fill="#d35400" opacity="0.9"><title>GPIO_0 VOL | sftt | Chip: 69627</title></circle>
<circle cx="646.8" cy="200.1" r="5" fill="#d35400" opacity="0.9"><title>GPIO_0 VOL | sftt | Chip: 69627</title></circle>
</g>
<g class="series" data-skew="sftt" data-chip="76687">
<path d="M115.2,295.3 L181.7,326.8 L248.1,351.1 L314.6,261.5 L381.0,293.4 L447.4,318.4" fill="none" stroke="#16a085" stroke-width="2.0" stroke-linejoin="round" stroke-dasharray="10,3,3,3" opacity="0.85"/>
<circle cx="115.2" cy="295.3" r="5" fill="#16a085" opacity="0.9"><title>GPIO_0 VOL | sftt | Chip: 76687</title></circle>
<circle cx="181.7" cy="326.8" r="5" fill="#16a085" opacity="0.9"><title>GPIO_0 VOL | sftt | Chip: 76687</title></circle>
<circle cx="248.1" cy="351.1" r="5" fill="#16a085" opacity="0.9"><title>GPIO_0 VOL | sftt | Chip: 76687</title></circle>
<circle cx="314.6" cy="261.5" r="5" fill="#16a085" opacity="0.9"><title>GPIO_0 VOL | sftt | Chip: 76687</title></circle>
<circle cx="381.0" cy="293.4" r="5" fill="#16a085" opacity="0.9"><title>GPIO_0 VOL | sftt | Chip: 76687</title></circle>
<circle cx="447.4" cy="318.4" r="5" fill="#16a085" opacity="0.9"><title>GPIO_0 VOL | sftt | Chip: 76687</title></circle>
</g>
<g class="series" data-skew="ssff" data-chip="56508">
<path d="M115.2,335.5 L181.7,366.2 L248.1,390.5 L314.6,300.6 L381.0,332.1 L447.4,356.4 L513.9,189.4 L580.3,224.7 L646.8,253.2" fill="none" stroke="#3498db" stroke-width="2.0" stroke-linejoin="round" opacity="0.85"/>
<circle cx="115.2" cy="335.5" r="5" fill="#3498db" opacity="0.9"><title>GPIO_0 VOL | ssff | Chip: 56508</title></circle>
<circle cx="181.7" cy="366.2" r="5" fill="#3498db" opacity="0.9"><title>GPIO_0 VOL | ssff | Chip: 56508</title></circle>
<circle cx="248.1" cy="390.5" r="5" fill="#3498db" opacity="0.9"><title>GPIO_0 VOL | ssff | Chip: 56508</title></circle>
<circle cx="314.6" cy="300.6" r="5" fill="#3498db" opacity="0.9"><title>GPIO_0 VOL | ssff | Chip: 56508</title></circle>
<circle cx="381.0" cy="332.1" r="5" fill="#3498db" opacity="0.9"><title>GPIO_0 VOL | ssff | Chip: 56508</title></circle>
<circle cx="447.4" cy="356.4" r="5" fill="#3498db" opacity="0.9"><title>GPIO_0 VOL | ssff | Chip: 56508</title></circle>
<circle cx="513.9" cy="189.4" r="5" fill="#3498db" opacity="0.9"><title>GPIO_0 VOL | ssff | Chip: 56508</title></circle>
<circle cx="580.3" cy="224.7" r="5" fill="#3498db" opacity="0.9"><title>GPIO_0 VOL | ssff | Chip: 56508</title></circle>
<circle cx="646.8" cy="253.2" r="5" fill="#3498db" opacity="0.9"><title>GPIO_0 VOL | ssff | Chip: 56508</title></circle>
</g>
<g class="series" data-skew="ssff" data-chip="57571">
<path d="M115.2,335.9 L181.7,367.0 L248.1,390.9 L314.6,300.6 L381.0,333.2 L447.4,358.3 L513.9,188.3 L580.3,224.0 L646.8,253.2" fill="none" stroke="#e74c3c" stroke-width="2.0" stroke-linejoin="round" stroke-dasharray="8,3" opacity="0.85"/>
<circle cx="115.2" cy="335.9" r="5" fill="#e74c3c" opacity="0.9"><title>GPIO_0 VOL | ssff | Chip: 57571</title></circle>
<circle cx="181.7" cy="367.0" r="5" fill="#e74c3c" opacity="0.9"><title>GPIO_0 VOL | ssff | Chip: 57571</title></circle>
<circle cx="248.1" cy="390.9" r="5" fill="#e74c3c" opacity="0.9"><title>GPIO_0 VOL | ssff | Chip: 57571</title></circle>
<circle cx="314.6" cy="300.6" r="5" fill="#e74c3c" opacity="0.9"><title>GPIO_0 VOL | ssff | Chip: 57571</title></circle>
<circle cx="381.0" cy="333.2" r="5" fill="#e74c3c" opacity="0.9"><title>GPIO_0 VOL | ssff | Chip: 57571</title></circle>
<circle cx="447.4" cy="358.3" r="5" fill="#e74c3c" opacity="0.9"><title>GPIO_0 VOL | ssff | Chip: 57571</title></circle>
<circle cx="513.9" cy="188.3" r="5" fill="#e74c3c" opacity="0.9"><title>GPIO_0 VOL | ssff | Chip: 57571</title></circle>
<circle cx="580.3" cy="224.0" r="5" fill="#e74c3c" opacity="0.9"><title>GPIO_0 VOL | ssff | Chip: 57571</title></circle>
<circle cx="646.8" cy="253.2" r="5" fill="#e74c3c" opacity="0.9"><title>GPIO_0 VOL | ssff | Chip: 57571</title></circle>
</g>
<g class="series" data-skew="ssff" data-chip="96040">
<path d="M115.2,332.9 L181.7,363.6 L248.1,387.1 L314.6,296.4 L381.0,328.3 L447.4,353.7 L513.9,184.5 L580.3,220.9 L646.8,248.6" fill="none" stroke="#2ecc71" stroke-width="2.0" stroke-linejoin="round" stroke-dasharray="4,3" opacity="0.85"/>
<circle cx="115.2" cy="332.9" r="5" fill="#2ecc71" opacity="0.9"><title>GPIO_0 VOL | ssff | Chip: 96040</title></circle>
<circle cx="181.7" cy="363.6" r="5" fill="#2ecc71" opacity="0.9"><title>GPIO_0 VOL | ssff | Chip: 96040</title></circle>
<circle cx="248.1" cy="387.1" r="5" fill="#2ecc71" opacity="0.9"><title>GPIO_0 VOL | ssff | Chip: 96040</title></circle>
<circle cx="314.6" cy="296.4" r="5" fill="#2ecc71" opacity="0.9"><title>GPIO_0 VOL | ssff | Chip: 96040</title></circle>
<circle cx="381.0" cy="328.3" r="5" fill="#2ecc71" opacity="0.9"><title>GPIO_0 VOL | ssff | Chip: 96040</title></circle>
<circle cx="447.4" cy="353.7" r="5" fill="#2ecc71" opacity="0.9"><title>GPIO_0 VOL | ssff | Chip: 96040</title></circle>
<circle cx="513.9" cy="184.5" r="5" fill="#2ecc71" opacity="0.9"><title>GPIO_0 VOL | ssff | Chip: 96040</title></circle>
<circle cx="580.3" cy="220.9" r="5" fill="#2ecc71" opacity="0.9"><title>GPIO_0 VOL | ssff | Chip: 96040</title></circle>
<circle cx="646.8" cy="248.6" r="5" fill="#2ecc71" opacity="0.9"><title>GPIO_0 VOL | ssff | Chip: 96040</title></circle>
</g>
<g class="series" data-skew="sstt" data-chip="29674">
<path d="M115.2,288.5 L181.7,320.3 L248.1,345.0 L314.6,254.3 L381.0,286.9 L447.4,312.0 L513.9,143.1 L580.3,179.9 L646.8,208.4" fill="none" stroke="#9b59b6" stroke-width="2.0" stroke-linejoin="round" stroke-dasharray="10,3,3,3" opacity="0.85"/>
<circle cx="115.2" cy="288.5" r="5" fill="#9b59b6" opacity="0.9"><title>GPIO_0 VOL | sstt | Chip: 29674</title></circle>
<circle cx="181.7" cy="320.3" r="5" fill="#9b59b6" opacity="0.9"><title>GPIO_0 VOL | sstt | Chip: 29674</title></circle>
<circle cx="248.1" cy="345.0" r="5" fill="#9b59b6" opacity="0.9"><title>GPIO_0 VOL | sstt | Chip: 29674</title></circle>
<circle cx="314.6" cy="254.3" r="5" fill="#9b59b6" opacity="0.9"><title>GPIO_0 VOL | sstt | Chip: 29674</title></circle>
<circle cx="381.0" cy="286.9" r="5" fill="#9b59b6" opacity="0.9"><title>GPIO_0 VOL | sstt | Chip: 29674</title></circle>
<circle cx="447.4" cy="312.0" r="5" fill="#9b59b6" opacity="0.9"><title>GPIO_0 VOL | sstt | Chip: 29674</title></circle>
<circle cx="513.9" cy="143.1" r="5" fill="#9b59b6" opacity="0.9"><title>GPIO_0 VOL | sstt | Chip: 29674</title></circle>
<circle cx="580.3" cy="179.9" r="5" fill="#9b59b6" opacity="0.9"><title>GPIO_0 VOL | sstt | Chip: 29674</title></circle>
<circle cx="646.8" cy="208.4" r="5" fill="#9b59b6" opacity="0.9"><title>GPIO_0 VOL | sstt | Chip: 29674</title></circle>
</g>
<g class="series" data-skew="sstt" data-chip="58046">
<path d="M115.2,299.8 L181.7,332.1 L248.1,357.1 L314.6,264.9 L381.0,298.3 L447.4,324.1 L513.9,151.9 L580.3,189.8 L646.8,219.0" fill="none" stroke="#e67e22" stroke-width="2.0" stroke-linejoin="round" opacity="0.85"/>
<circle cx="115.2" cy="299.8" r="5" fill="#e67e22" opacity="0.9"><title>GPIO_0 VOL | sstt | Chip: 58046</title></circle>
<circle cx="181.7" cy="332.1" r="5" fill="#e67e22" opacity="0.9"><title>GPIO_0 VOL | sstt | Chip: 58046</title></circle>
<circle cx="248.1" cy="357.1" r="5" fill="#e67e22" opacity="0.9"><title>GPIO_0 VOL | sstt | Chip: 58046</title></circle>
<circle cx="314.6" cy="264.9" r="5" fill="#e67e22" opacity="0.9"><title>GPIO_0 VOL | sstt | Chip: 58046</title></circle>
<circle cx="381.0" cy="298.3" r="5" fill="#e67e22" opacity="0.9"><title>GPIO_0 VOL | sstt | Chip: 58046</title></circle>
<circle cx="447.4" cy="324.1" r="5" fill="#e67e22" opacity="0.9"><title>GPIO_0 VOL | sstt | Chip: 58046</title></circle>
<circle cx="513.9" cy="151.9" r="5" fill="#e67e22" opacity="0.9"><title>GPIO_0 VOL | sstt | Chip: 58046</title></circle>
<circle cx="580.3" cy="189.8" r="5" fill="#e67e22" opacity="0.9"><title>GPIO_0 VOL | sstt | Chip: 58046</title></circle>
<circle cx="646.8" cy="219.0" r="5" fill="#e67e22" opacity="0.9"><title>GPIO_0 VOL | sstt | Chip: 58046</title></circle>
</g>
<g class="series" data-skew="sstt" data-chip="9808">
<path d="M115.2,291.5 L181.7,322.2 L248.1,346.9 L314.6,256.2 L381.0,288.5 L447.4,313.9 L513.9,145.4 L580.3,181.5 L646.8,209.9" fill="none" stroke="#1abc9c" stroke-width="2.0" stroke-linejoin="round" stroke-dasharray="8,3" opacity="0.85"/>
<circle cx="115.2" cy="291.5" r="5" fill="#1abc9c" opacity="0.9"><title>GPIO_0 VOL | sstt | Chip: 9808</title></circle>
<circle cx="181.7" cy="322.2" r="5" fill="#1abc9c" opacity="0.9"><title>GPIO_0 VOL | sstt | Chip: 9808</title></circle>
<circle cx="248.1" cy="346.9" r="5" fill="#1abc9c" opacity="0.9"><title>GPIO_0 VOL | sstt | Chip: 9808</title></circle>
<circle cx="314.6" cy="256.2" r="5" fill="#1abc9c" opacity="0.9"><title>GPIO_0 VOL | sstt | Chip: 9808</title></circle>
<circle cx="381.0" cy="288.5" r="5" fill="#1abc9c" opacity="0.9"><title>GPIO_0 VOL | sstt | Chip: 9808</title></circle>
<circle cx="447.4" cy="313.9" r="5" fill="#1abc9c" opacity="0.9"><title>GPIO_0 VOL | sstt | Chip: 9808</title></circle>
<circle cx="513.9" cy="145.4" r="5" fill="#1abc9c" opacity="0.9"><title>GPIO_0 VOL | sstt | Chip: 9808</title></circle>
<circle cx="580.3" cy="181.5" r="5" fill="#1abc9c" opacity="0.9"><title>GPIO_0 VOL | sstt | Chip: 9808</title></circle>
<circle cx="646.8" cy="209.9" r="5" fill="#1abc9c" opacity="0.9"><title>GPIO_0 VOL | sstt | Chip: 9808</title></circle>
</g>
<line x1="82.0" y1="203.1" x2="680.0" y2="203.1" stroke="#e74c3c" stroke-width="1.8" stroke-dasharray="4,4"/>
<text x="685.0" y="207.1" font-size="9" font-weight="normal" text-anchor="start" fill="#e74c3c" font-family="Arial,sans-serif">Max spec: 0.45</text>
<g class="legend-item" data-skew="ffss" data-chip="25679">
<line x1="688" y1="77" x2="716" y2="77" stroke="#3498db" stroke-width="2.0" />
<circle cx="702" cy="77" r="5" fill="#3498db"/>
<text x="720" y="81" font-size="10" font-family="Arial,sans-serif" fill="#2c3e50">25679 | ffss</text>
</g>
<g class="legend-item" data-skew="ffss" data-chip="43407">
<line x1="688" y1="99" x2="716" y2="99" stroke="#e74c3c" stroke-width="2.0" stroke-dasharray="8,3" />
<circle cx="702" cy="99" r="5" fill="#e74c3c"/>
<text x="720" y="103" font-size="10" font-family="Arial,sans-serif" fill="#2c3e50">43407 | ffss</text>
</g>
<g class="legend-item" data-skew="ffss" data-chip="79093">
<line x1="688" y1="121" x2="716" y2="121" stroke="#2ecc71" stroke-width="2.0" stroke-dasharray="4,3" />
<circle cx="702" cy="121" r="5" fill="#2ecc71"/>
<text x="720" y="125" font-size="10" font-family="Arial,sans-serif" fill="#2c3e50">79093 | ffss</text>
</g>
<g class="legend-item" data-skew="fftt" data-chip="13967">
<line x1="688" y1="143" x2="716" y2="143" stroke="#9b59b6" stroke-width="2.0" stroke-dasharray="10,3,3,3" />
<circle cx="702" cy="143" r="5" fill="#9b59b6"/>
<text x="720" y="147" font-size="10" font-family="Arial,sans-serif" fill="#2c3e50">13967 | fftt</text>
</g>
<g class="legend-item" data-skew="fftt" data-chip="15382">
<line x1="688" y1="165" x2="716" y2="165" stroke="#e67e22" stroke-width="2.0" />
<circle cx="702" cy="165" r="5" fill="#e67e22"/>
<text x="720" y="169" font-size="10" font-family="Arial,sans-serif" fill="#2c3e50">15382 | fftt</text>
</g>
<g class="legend-item" data-skew="fftt" data-chip="78814">
<line x1="688" y1="187" x2="716" y2="187" stroke="#1abc9c" stroke-width="2.0" stroke-dasharray="8,3" />
<circle cx="702" cy="187" r="5" fill="#1abc9c"/>
<text x="720" y="191" font-size="10" font-family="Arial,sans-serif" fill="#2c3e50">78814 | fftt</text>
</g>
<g class="legend-item" data-skew="fstt" data-chip="12566">
<line x1="688" y1="209" x2="716" y2="209" stroke="#c0392b" stroke-width="2.0" stroke-dasharray="4,3" />
<circle cx="702" cy="209" r="5" fill="#c0392b"/>
<text x="720" y="213" font-size="10" font-family="Arial,sans-serif" fill="#2c3e50">12566 | fstt</text>
</g>
<g class="legend-item" data-skew="fstt" data-chip="13316">
<line x1="688" y1="231" x2="716" y2="231" stroke="#2980b9" stroke-width="2.0" stroke-dasharray="10,3,3,3" />
<circle cx="702" cy="231" r="5" fill="#2980b9"/>
<text x="720" y="235" font-size="10" font-family="Arial,sans-serif" fill="#2c3e50">13316 | fstt</text>
</g>
<g class="legend-item" data-skew="fstt" data-chip="62919">
<line x1="688" y1="253" x2="716" y2="253" stroke="#27ae60" stroke-width="2.0" />
<circle cx="702" cy="253" r="5" fill="#27ae60"/>
<text x="720" y="257" font-size="10" font-family="Arial,sans-serif" fill="#2c3e50">62919 | fstt</text>
</g>
<g class="legend-item" data-skew="sftt" data-chip="44565">
<line x1="688" y1="275" x2="716" y2="275" stroke="#8e44ad" stroke-width="2.0" stroke-dasharray="8,3" />
<circle cx="702" cy="275" r="5" fill="#8e44ad"/>
<text x="720" y="279" font-size="10" font-family="Arial,sans-serif" fill="#2c3e50">44565 | sftt</text>
</g>
<g class="legend-item" data-skew="sftt" data-chip="69627">
<line x1="688" y1="297" x2="716" y2="297" stroke="#d35400" stroke-width="2.0" stroke-dasharray="4,3" />
<circle cx="702" cy="297" r="5" fill="#d35400"/>
<text x="720" y="301" font-size="10" font-family="Arial,sans-serif" fill="#2c3e50">69627 | sftt</text>
</g>
<g class="legend-item" data-skew="sftt" data-chip="76687">
<line x1="688" y1="319" x2="716" y2="319" stroke="#16a085" stroke-width="2.0" stroke-dasharray="10,3,3,3" />
<circle cx="702" cy="319" r="5" fill="#16a085"/>
<text x="720" y="323" font-size="10" font-family="Arial,sans-serif" fill="#2c3e50">76687 | sftt</text>
</g>
<g class="legend-item" data-skew="ssff" data-chip="56508">
<line x1="688" y1="341" x2="716" y2="341" stroke="#3498db" stroke-width="2.0" />
<circle cx="702" cy="341" r="5" fill="#3498db"/>
<text x="720" y="345" font-size="10" font-family="Arial,sans-serif" fill="#2c3e50">56508 | ssff</text>
</g>
<g class="legend-item" data-skew="ssff" data-chip="57571">
<line x1="688" y1="363" x2="716" y2="363" stroke="#e74c3c" stroke-width="2.0" stroke-dasharray="8,3" />
<circle cx="702" cy="363" r="5" fill="#e74c3c"/>
<text x="720" y="367" font-size="10" font-family="Arial,sans-serif" fill="#2c3e50">57571 | ssff</text>
</g>
<g class="legend-item" data-skew="ssff" data-chip="96040">
<line x1="688" y1="385" x2="716" y2="385" stroke="#2ecc71" stroke-width="2.0" stroke-dasharray="4,3" />
<circle cx="702" cy="385" r="5" fill="#2ecc71"/>
<text x="720" y="389" font-size="10" font-family="Arial,sans-serif" fill="#2c3e50">96040 | ssff</text>
</g>
<g class="legend-item" data-skew="sstt" data-chip="29674">
<line x1="688" y1="407" x2="716" y2="407" stroke="#9b59b6" stroke-width="2.0" stroke-dasharray="10,3,3,3" />
<circle cx="702" cy="407" r="5" fill="#9b59b6"/>
<text x="720" y="411" font-size="10" font-family="Arial,sans-serif" fill="#2c3e50">29674 | sstt</text>
</g>
<g class="legend-item" data-skew="sstt" data-chip="58046">
<line x1="688" y1="429" x2="716" y2="429" stroke="#e67e22" stroke-width="2.0" />
<circle cx="702" cy="429" r="5" fill="#e67e22"/>
<text x="720" y="433" font-size="10" font-family="Arial,sans-serif" fill="#2c3e50">58046 | sstt</text>
</g>
<g class="legend-item" data-skew="sstt" data-chip="9808">
<line x1="688" y1="451" x2="716" y2="451" stroke="#1abc9c" stroke-width="2.0" stroke-dasharray="8,3" />
<circle cx="702" cy="451" r="5" fill="#1abc9c"/>
<text x="720" y="455" font-size="10" font-family="Arial,sans-serif" fill="#2c3e50">9808 | sstt</text>
</g>
</svg>