<svg xmlns="http://www.w3.org/2000/svg" width="860" height="526" viewBox="0 0 860 526">
<rect width="860" height="526" fill="#ffffff"/>
<text x="430.0" y="28.0" font-size="16" font-weight="bold" text-anchor="middle" fill="#2c3e50" font-family="Arial,sans-serif">RF_KILLN  [PB12DSFS_18_T33_H] — VOL (V)  DS=DS_1  [VOH/VOL]</text>
<line x1="82.0" y1="426.0" x2="680.0" y2="426.0" stroke="#999" stroke-width="1"/>
<line x1="82.0" y1="72.0" x2="82.0" y2="426.0" stroke="#999" stroke-width="1"/>
<line x1="82.0" y1="72.0" x2="82.0" y2="426.0" stroke="#999" stroke-width="1"/>
<line x1="77.0" y1="426.0" x2="82.0" y2="426.0" stroke="#999" stroke-width="1"/>
<line x1="82.0" y1="426.0" x2="680.0" y2="426.0" stroke="#e0e0e0" stroke-width="0.8" stroke-dasharray="3,3"/>
<text x="74.0" y="430.0" font-size="9" font-weight="normal" text-anchor="end" fill="#7f8c8d" font-family="Arial,sans-serif">0.189</text>
<line x1="77.0" y1="355.2" x2="82.0" y2="355.2" stroke="#999" stroke-width="1"/>
<line x1="82.0" y1="355.2" x2="680.0" y2="355.2" stroke="#e0e0e0" stroke-width="0.8" stroke-dasharray="3,3"/>
<text x="74.0" y="359.2" font-size="9" font-weight="normal" text-anchor="end" fill="#7f8c8d" font-family="Arial,sans-serif">0.24</text>
<line x1="77.0" y1="284.4" x2="82.0" y2="284.4" stroke="#999" stroke-width="1"/>
<line x1="82.0" y1="284.4" x2="680.0" y2="284.4" stroke="#e0e0e0" stroke-width="0.8" stroke-dasharray="3,3"/>
<text x="74.0" y="288.4" font-size="9" font-weight="normal" text-anchor="end" fill="#7f8c8d" font-family="Arial,sans-serif">0.29</text>
<line x1="77.0" y1="213.6" x2="82.0" y2="213.6" stroke="#999" stroke-width="1"/>
<line x1="82.0" y1="213.6" x2="680.0" y2="213.6" stroke="#e0e0e0" stroke-width="0.8" stroke-dasharray="3,3"/>
<text x="74.0" y="217.6" font-size="9" font-weight="normal" text-anchor="end" fill="#7f8c8d" font-family="Arial,sans-serif">0.341</text>
<line x1="77.0" y1="142.8" x2="82.0" y2="142.8" stroke="#999" stroke-width="1"/>
<line x1="82.0" y1="142.8" x2="680.0" y2="142.8" stroke="#e0e0e0" stroke-width="0.8" stroke-dasharray="3,3"/>
<text x="74.0" y="146.8" font-size="9" font-weight="normal" text-anchor="end" fill="#7f8c8d" font-family="Arial,sans-serif">0.392</text>
<line x1="77.0" y1="72.0" x2="82.0" y2="72.0" stroke="#999" stroke-width="1"/>
<line x1="82.0" y1="72.0" x2="680.0" y2="72.0" stroke="#e0e0e0" stroke-width="0.8" stroke-dasharray="3,3"/>
<text x="74.0" y="76.0" font-size="9" font-weight="normal" text-anchor="end" fill="#7f8c8d" font-family="Arial,sans-serif">0.442</text>
<text x="14.0" y="249.0" font-size="10" font-weight="normal" text-anchor="middle" fill="#7f8c8d" font-family="Arial,sans-serif" transform="rotate(-90,14,249.0)">VOL (V)</text>
<text x="115.2" y="440.0" font-size="8" font-weight="normal" text-anchor="end" fill="#333" font-family="Arial,sans-serif" transform="rotate(-45,115.2,440)">VIO=1.62
VC=0.64</text>
<text x="181.7" y="440.0" font-size="8" font-weight="normal" text-anchor="end" fill="#333" font-family="Arial,sans-serif" transform="rotate(-45,181.7,440)">VIO=1.8
VC=0.8</text>
<text x="248.1" y="440.0" font-size="8" font-weight="normal" text-anchor="end" fill="#333" font-family="Arial,sans-serif" transform="rotate(-45,248.1,440)">VIO=1.98
VC=0.96</text>
<line x1="281.3" y1="72.0" x2="281.3" y2="426.0" stroke="#cccccc" stroke-width="1" stroke-dasharray="4,3"/>
<text x="314.6" y="440.0" font-size="8" font-weight="normal" text-anchor="end" fill="#333" font-family="Arial,sans-serif" transform="rotate(-45,314.6,440)">VIO=1.62
VC=0.64</text>
<text x="381.0" y="440.0" font-size="8" font-weight="normal" text-anchor="end" fill="#333" font-family="Arial,sans-serif" transform="rotate(-45,381.0,440)">VIO=1.8
VC=0.8</text>
<text x="447.4" y="440.0" font-size="8" font-weight="normal" text-anchor="end" fill="#333" font-family="Arial,sans-serif" transform="rotate(-45,447.4,440)">VIO=1.98
VC=0.96</text>
<line x1="480.7" y1="72.0" x2="480.7" y2="426.0" stroke="#cccccc" stroke-width="1" stroke-dasharray="4,3"/>
<text x="513.9" y="440.0" font-size="8" font-weight="normal" text-anchor="end" fill="#333" font-family="Arial,sans-serif" transform="rotate(-45,513.9,440)">VIO=1.62
VC=0.64</text>
<text x="580.3" y="440.0" font-size="8" font-weight="normal" text-anchor="end" fill="#333" font-family="Arial,sans-serif" transform="rotate(-45,580.3,440)">VIO=1.8
VC=0.8</text>
<text x="646.8" y="440.0" font-size="8" font-weight="normal" text-anchor="end" fill="#333" font-family="Arial,sans-serif" transform="rotate(-45,646.8,440)">VIO=1.98
VC=0.96</text>
<text x="181.7" y="62.0" font-size="10" font-weight="bold" text-anchor="middle" fill="#2c3e50" font-family="Arial,sans-serif">T=0°C</text>
<text x="381.0" y="62.0" font-size="10" font-weight="bold" text-anchor="middle" fill="#2c3e50" font-family="Arial,sans-serif">T=20°C</text>
<text x="580.3" y="62.0" font-size="10" font-weight="bold" text-anchor="middle" fill="#2c3e50" font-family="Arial,sans-serif">T=80°C</text>
<g class="series" data-skew="ffss" data-chip="25679">
<path d="M115.2,344.8 L181.7,349.9 L248.1,354.1 L314.6,334.7 L381.0,342.2 L447.4,348.7 L513.9,323.9 L580.3,328.8 L646.8,337.5" fill="none" stroke="#3498db" stroke-width="2.0" stroke-linejoin="round" opacity="0.85"/>
<circle cx="115.2" cy="344.8" r="5" fill="#3498db" opacity="0.9"><title>RF_KILLN VOL | ffss | Chip: 25679</title></circle>
<circle cx="181.7" cy="349.9" r="5" fill="#3498db" opacity="0.9"><title>RF_KILLN VOL | ffss | Chip: 25679</title></circle>
<circle cx="248.1" cy="354.1" r="5" fill="#3498db" opacity="0.9"><title>RF_KILLN VOL | ffss | Chip: 25679</title></circle>
<circle cx="314.6" cy="334.7" r="5" fill="#3498db" opacity="0.9"><title>RF_KILLN VOL | ffss | Chip: 25679</title></circle>
<circle cx="381.0" cy="342.2" r="5" fill="#3498db" opacity="0.9"><title>RF_KILLN VOL | ffss | Chip: 25679</title></circle>
<circle cx="447.4" cy="348.7" r="5" fill="#3498db" opacity="0.9"><title>RF_KILLN VOL | ffss | Chip: 25679</title></circle>
<circle cx="513.9" cy="323.9" r="5" fill="#3498db" opacity="0.9"><title>RF_KILLN VOL | ffss | Chip: 25679</title></circle>
<circle cx="580.3" cy="328.8" r="5" fill="#3498db" opacity="0.9"><title>RF_KILLN VOL | ffss | Chip: 25679</title></circle>
<circle cx="646.8" cy="337.5" r="5" fill="#3498db" opacity="0.9"><title>RF_KILLN VOL | ffss | Chip: 25679</title></circle>
</g>
<g class="series" data-skew="ffss" data-chip="43407">
<path d="M115.2,326.6 L181.7,333.7 L248.1,343.6 L314.6,318.5 L381.0,325.7 L447.4,334.0 L513.9,306.8 L580.3,316.2 L646.8,323.4" fill="none" stroke="#e74c3c" stroke-width="2.0" stroke-linejoin="round" stroke-dasharray="8,3" opacity="0.85"/>
<circle cx="115.2" cy="326.6" r="5" fill="#e74c3c" opacity="0.9"><title>RF_KILLN VOL | ffss | Chip: 43407</title></circle>
<circle cx="181.7" cy="333.7" r="5" fill="#e74c3c" opacity="0.9"><title>RF_KILLN VOL | ffss | Chip: 43407</title></circle>
<circle cx="248.1" cy="343.6" r="5" fill="#e74c3c" opacity="0.9"><title>RF_KILLN VOL | ffss | Chip: 43407</title></circle>
<circle cx="314.6" cy="318.5" r="5" fill="#e74c3c" opacity="0.9"><title>RF_KILLN VOL | ffss | Chip: 43407</title></circle>
<circle cx="381.0" cy="325.7" r="5" fill="#e74c3c" opacity="0.9"><title>RF_KILLN VOL | ffss | Chip: 43407</title></circle>
<circle cx="447.4" cy="334.0" r="5" fill="#e74c3c" opacity="0.9"><title>RF_KILLN VOL | ffss | Chip: 43407</title></circle>
<circle cx="513.9" cy="306.8" r="5" fill="#e74c3c" opacity="0.9"><title>RF_KILLN VOL | ffss | Chip: 43407</title></circle>
<circle cx="580.3" cy="316.2" r="5" fill="#e74c3c" opacity="0.9"><title>RF_KILLN VOL | ffss | Chip: 43407</title></circle>
<circle cx="646.8" cy="323.4" r="5" fill="#e74c3c" opacity="0.9"><title>RF_KILLN VOL | ffss | Chip: 43407</title></circle>
</g>
<g class="series" data-skew="ffss" data-chip="79093">
<path d="M115.2,343.9 L181.7,349.1 L248.1,355.8 L314.6,335.8 L381.0,340.8 L447.4,348.3 L513.9,323.1 L580.3,330.1 L646.8,336.6" fill="none" stroke="#2ecc71" stroke-width="2.0" stroke-linejoin="round" stroke-dasharray="4,3" opacity="0.85"/>
<circle cx="115.2" cy="343.9" r="5" fill="#2ecc71" opacity="0.9"><title>RF_KILLN VOL | ffss | Chip: 79093</title></circle>
<circle cx="181.7" cy="349.1" r="5" fill="#2ecc71" opacity="0.9"><title>RF_KILLN VOL | ffss | Chip: 79093</title></circle>
<circle cx="248.1" cy="355.8" r="5" fill="#2ecc71" opacity="0.9"><title>RF_KILLN VOL | ffss | Chip: 79093</title></circle>
<circle cx="314.6" cy="335.8" r="5" fill="#2ecc71" opacity="0.9"><title>RF_KILLN VOL | ffss | Chip: 79093</title></circle>
<circle cx="381.0" cy="340.8" r="5" fill="#2ecc71" opacity="0.9"><title>RF_KILLN VOL | ffss | Chip: 79093</title></circle>
<circle cx="447.4" cy="348.3" r="5" fill="#2ecc71" opacity="0.9"><title>RF_KILLN VOL | ffss | Chip: 79093</title></circle>
<circle cx="513.9" cy="323.1" r="5" fill="#2ecc71" opacity="0.9"><title>RF_KILLN VOL | ffss | Chip: 79093</title></circle>
<circle cx="580.3" cy="330.1" r="5" fill="#2ecc71" opacity="0.9"><title>RF_KILLN VOL | ffss | Chip: 79093</title></circle>
<circle cx="646.8" cy="336.6" r="5" fill="#2ecc71" opacity="0.9"><title>RF_KILLN VOL | ffss | Chip: 79093</title></circle>
</g>
<g class="series" data-skew="fftt" data-chip="13967">
<path d="M115.2,351.8 L181.7,358.9 L248.1,363.8 L314.6,344.1 L381.0,349.2 L447.4,356.8 L513.9,329.6 L580.3,339.2 L646.8,343.9" fill="none" stroke="#9b59b6" stroke-width="2.0" stroke-linejoin="round" stroke-dasharray="10,3,3,3" opacity="0.85"/>
<circle cx="115.2" cy="351.8" r="5" fill="#9b59b6" opacity="0.9"><title>RF_KILLN VOL | fftt | Chip: 13967</title></circle>
<circle cx="181.7" cy="358.9" r="5" fill="#9b59b6" opacity="0.9"><title>RF_KILLN VOL | fftt | Chip: 13967</title></circle>
<circle cx="248.1" cy="363.8" r="5" fill="#9b59b6" opacity="0.9"><title>RF_KILLN VOL | fftt | Chip: 13967</title></circle>
<circle cx="314.6" cy="344.1" r="5" fill="#9b59b6" opacity="0.9"><title>RF_KILLN VOL | fftt | Chip: 13967</title></circle>
<circle cx="381.0" cy="349.2" r="5" fill="#9b59b6" opacity="0.9"><title>RF_KILLN VOL | fftt | Chip: 13967</title></circle>
<circle cx="447.4" cy="356.8" r="5" fill="#9b59b6" opacity="0.9"><title>RF_KILLN VOL | fftt | Chip: 13967</title></circle>
<circle cx="513.9" cy="329.6" r="5" fill="#9b59b6" opacity="0.9"><title>RF_KILLN VOL | fftt | Chip: 13967</title></circle>
<circle cx="580.3" cy="339.2" r="5" fill="#9b59b6" opacity="0.9"><title>RF_KILLN VOL | fftt | Chip: 13967</title></circle>
<circle cx="646.8" cy="343.9" r="5" fill="#9b59b6" opacity="0.9"><title>RF_KILLN VOL | fftt | Chip: 13967</title></circle>
</g>
<g class="series" data-skew="fftt" data-chip="15382">
<path d="M115.2,355.1 L181.7,360.3 L248.1,367.0 L314.6,348.3 L381.0,352.9 L447.4,361.0 L513.9,334.8 L580.3,342.5 L646.8,349.4" fill="none" stroke="#e67e22" stroke-width="2.0" stroke-linejoin="round" opacity="0.85"/>
<circle cx="115.2" cy="355.1" r="5" fill="#e67e22" opacity="0.9"><title>RF_KILLN VOL | fftt | Chip: 15382</title></circle>
<circle cx="181.7" cy="360.3" r="5" fill="#e67e22" opacity="0.9"><title>RF_KILLN VOL | fftt | Chip: 15382</title></circle>
<circle cx="248.1" cy="367.0" r="5" fill="#e67e22" opacity="0.9"><title>RF_KILLN VOL | fftt | Chip: 15382</title></circle>
<circle cx="314.6" cy="348.3" r="5" fill="#e67e22" opacity="0.9"><title>RF_KILLN VOL | fftt | Chip: 15382</title></circle>
<circle cx="381.0" cy="352.9" r="5" fill="#e67e22" opacity="0.9"><title>RF_KILLN VOL | fftt | Chip: 15382</title></circle>
<circle cx="447.4" cy="361.0" r="5" fill="#e67e22" opacity="0.9"><title>RF_KILLN VOL | fftt | Chip: 15382</title></circle>
<circle cx="513.9" cy="334.8" r="5" fill="#e67e22" opacity="0.9"><title>RF_KILLN VOL | fftt | Chip: 15382</title></circle>
<circle cx="580.3" cy="342.5" r="5" fill="#e67e22" opacity="0.9"><title>RF_KILLN VOL | fftt | Chip: 15382</title></circle>
<circle cx="646.8" cy="349.4" r="5" fill="#e67e22" opacity="0.9"><title>RF_KILLN VOL | fftt | Chip: 15382</title></circle>
</g>
<g class="series" data-skew="fftt" data-chip="78814">
<path d="M115.2,352.5 L181.7,355.7 L248.1,362.1 L314.6,343.4 L381.0,350.9 L447.4,357.1 L513.9,329.1 L580.3,336.5 L646.8,343.1" fill="none" stroke="#1abc9c" stroke-width="2.0" stroke-linejoin="round" stroke-dasharray="8,3" opacity="0.85"/>
<circle cx="115.2" cy="352.5" r="5" fill="#1abc9c" opacity="0.9"><title>RF_KILLN VOL | fftt | Chip: 78814</title></circle>
<circle cx="181.7" cy="355.7" r="5" fill="#1abc9c" opacity="0.9"><title>RF_KILLN VOL | fftt | Chip: 78814</title></circle>
<circle cx="248.1" cy="362.1" r="5" fill="#1abc9c" opacity="0.9"><title>RF_KILLN VOL | fftt | Chip: 78814</title></circle>
<circle cx="314.6" cy="343.4" r="5" fill="#1abc9c" opacity="0.9"><title>RF_KILLN VOL | fftt | Chip: 78814</title></circle>
<circle cx="381.0" cy="350.9" r="5" fill="#1abc9c" opacity="0.9"><title>RF_KILLN VOL | fftt | Chip: 78814</title></circle>
<circle cx="447.4" cy="357.1" r="5" fill="#1abc9c" opacity="0.9"><title>RF_KILLN VOL | fftt | Chip: 78814</title></circle>
<circle cx="513.9" cy="329.1" r="5" fill="#1abc9c" opacity="0.9"><title>RF_KILLN VOL | fftt | Chip: 78814</title></circle>
<circle cx="580.3" cy="336.5" r="5" fill="#1abc9c" opacity="0.9"><title>RF_KILLN VOL | fftt | Chip: 78814</title></circle>
<circle cx="646.8" cy="343.1" r="5" fill="#1abc9c" opacity="0.9"><title>RF_KILLN VOL | fftt | Chip: 78814</title></circle>
</g>
<g class="series" data-skew="fstt" data-chip="12566">
<path d="M115.2,348.8 L181.7,354.1 L248.1,359.9 L314.6,342.4 L381.0,347.6 L447.4,353.9 L513.9,327.1 L580.3,333.8 L646.8,340.7" fill="none" stroke="#c0392b" stroke-width="2.0" stroke-linejoin="round" stroke-dasharray="4,3" opacity="0.85"/>
<circle cx="115.2" cy="348.8" r="5" fill="#c0392b" opacity="0.9"><title>RF_KILLN VOL | fstt | Chip: 12566</title></circle>
<circle cx="181.7" cy="354.1" r="5" fill="#c0392b" opacity="0.9"><title>RF_KILLN VOL | fstt | Chip: 12566</title></circle>
<circle cx="248.1" cy="359.9" r="5" fill="#c0392b" opacity="0.9"><title>RF_KILLN VOL | fstt | Chip: 12566</title></circle>
<circle cx="314.6" cy="342.4" r="5" fill="#c0392b" opacity="0.9"><title>RF_KILLN VOL | fstt | Chip: 12566</title></circle>
<circle cx="381.0" cy="347.6" r="5" fill="#c0392b" opacity="0.9"><title>RF_KILLN VOL | fstt | Chip: 12566</title></circle>
<circle cx="447.4" cy="353.9" r="5" fill="#c0392b" opacity="0.9"><title>RF_KILLN VOL | fstt | Chip: 12566</title></circle>
<circle cx="513.9" cy="327.1" r="5" fill="#c0392b" opacity="0.9"><title>RF_KILLN VOL | fstt | Chip: 12566</title></circle>
<circle cx="580.3" cy="333.8" r="5" fill="#c0392b" opacity="0.9"><title>RF_KILLN VOL | fstt | Chip: 12566</title></circle>
<circle cx="646.8" cy="340.7" r="5" fill="#c0392b" opacity="0.9"><title>RF_KILLN VOL | fstt | Chip: 12566</title></circle>
</g>
<g class="series" data-skew="fstt" data-chip="13316">
<path d="M115.2,353.9 L181.7,358.7 L248.1,364.9 L314.6,346.7 L381.0,351.9 L447.4,358.3 L513.9,331.6 L580.3,338.5 L646.8,344.6" fill="none" stroke="#2980b9" stroke-width="2.0" stroke-linejoin="round" stroke-dasharray="10,3,3,3" opacity="0.85"/>
<circle cx="115.2" cy="353.9" r="5" fill="#2980b9" opacity="0.9"><title>RF_KILLN VOL | fstt | Chip: 13316</title></circle>
<circle cx="181.7" cy="358.7" r="5" fill="#2980b9" opacity="0.9"><title>RF_KILLN VOL | fstt | Chip: 13316</title></circle>
<circle cx="248.1" cy="364.9" r="5" fill="#2980b9" opacity="0.9"><title>RF_KILLN VOL | fstt | Chip: 13316</title></circle>
<circle cx="314.6" cy="346.7" r="5" fill="#2980b9" opacity="0.9"><title>RF_KILLN VOL | fstt | Chip: 13316</title></circle>
<circle cx="381.0" cy="351.9" r="5" fill="#2980b9" opacity="0.9"><title>RF_KILLN VOL | fstt | Chip: 13316</title></circle>
<circle cx="447.4" cy="358.3" r="5" fill="#2980b9" opacity="0.9"><title>RF_KILLN VOL | fstt | Chip: 13316</title></circle>
<circle cx="513.9" cy="331.6" r="5" fill="#2980b9" opacity="0.9"><title>RF_KILLN VOL | fstt | Chip: 13316</title></circle>
<circle cx="580.3" cy="338.5" r="5" fill="#2980b9" opacity="0.9"><title>RF_KILLN VOL | fstt | Chip: 13316</title></circle>
<circle cx="646.8" cy="344.6" r="5" fill="#2980b9" opacity="0.9"><title>RF_KILLN VOL | fstt | Chip: 13316</title></circle>
</g>
<g class="series" data-skew="fstt" data-chip="62919">
<path d="M115.2,352.7 L181.7,356.2 L248.1,364.2 L314.6,345.9 L381.0,350.5 L447.4,357.5 L513.9,329.2 L580.3,338.3 L646.8,344.8" fill="none" stroke="#27ae60" stroke-width="2.0" stroke-linejoin="round" opacity="0.85"/>
<circle cx="115.2" cy="352.7" r="5" fill="#27ae60" opacity="0.9"><title>RF_KILLN VOL | fstt | Chip: 62919</title></circle>
<circle cx="181.7" cy="356.2" r="5" fill="#27ae60" opacity="0.9"><title>RF_KILLN VOL | fstt | Chip: 62919</title></circle>
<circle cx="248.1" cy="364.2" r="5" fill="#27ae60" opacity="0.9"><title>RF_KILLN VOL | fstt | Chip: 62919</title></circle>
<circle cx="314.6" cy="345.9" r="5" fill="#27ae60" opacity="0.9"><title>RF_KILLN VOL | fstt | Chip: 62919</title></circle>
<circle cx="381.0" cy="350.5" r="5" fill="#27ae60" opacity="0.9"><title>RF_KILLN VOL | fstt | Chip: 62919</title></circle>
<circle cx="447.4" cy="357.5" r="5" fill="#27ae60" opacity="0.9"><title>RF_KILLN VOL | fstt | Chip: 62919</title></circle>
<circle cx="513.9" cy="329.2" r="5" fill="#27ae60" opacity="0.9"><title>RF_KILLN VOL | fstt | Chip: 62919</title></circle>
<circle cx="580.3" cy="338.3" r="5" fill="#27ae60" opacity="0.9"><title>RF_KILLN VOL | fstt | Chip: 62919</title></circle>
<circle cx="646.8" cy="344.8" r="5" fill="#27ae60" opacity="0.9"><title>RF_KILLN VOL | fstt | Chip: 62919</title></circle>
</g>
<g class="series" data-skew="sftt" data-chip="44565">
<path d="M115.2,335.7 L181.7,343.4 L248.1,351.9 L314.6,326.9 L381.0,334.7 L447.4,344.3 L513.9,316.9 L580.3,323.9 L646.8,332.2" fill="none" stroke="#8e44ad" stroke-width="2.0" stroke-linejoin="round" stroke-dasharray="8,3" opacity="0.85"/>
<circle cx="115.2" cy="335.7" r="5" fill="#8e44ad" opacity="0.9"><title>RF_KILLN VOL | sftt | Chip: 44565</title></circle>
<circle cx="181.7" cy="343.4" r="5" fill="#8e44ad" opacity="0.9"><title>RF_KILLN VOL | sftt | Chip: 44565</title></circle>
<circle cx="248.1" cy="351.9" r="5" fill="#8e44ad" opacity="0.9"><title>RF_KILLN VOL | sftt | Chip: 44565</title></circle>
<circle cx="314.6" cy="326.9" r="5" fill="#8e44ad" opacity="0.9"><title>RF_KILLN VOL | sftt | Chip: 44565</title></circle>
<circle cx="381.0" cy="334.7" r="5" fill="#8e44ad" opacity="0.9"><title>RF_KILLN VOL | sftt | Chip: 44565</title></circle>
<circle cx="447.4" cy="344.3" r="5" fill="#8e44ad" opacity="0.9"><title>RF_KILLN VOL | sftt | Chip: 44565</title></circle>
<circle cx="513.9" cy="316.9" r="5" fill="#8e44ad" opacity="0.9"><title>RF_KILLN VOL | sftt | Chip: 44565</title></circle>
<circle cx="580.3" cy="323.9" r="5" fill="#8e44ad" opacity="0.9"><title>RF_KILLN VOL | sftt | Chip: 44565</title></circle>
<circle cx="646.8" cy="332.2" r="5" fill="#8e44ad" opacity="0.9"><title>RF_KILLN VOL | sftt | Chip: 44565</title></circle>
</g>
<g class="series" data-skew="sftt" data-chip="69627">
<path d="M115.2,349.4 L181.7,355.4 L248.1,362.4 L314.6,341.5 L381.0,349.8 L447.4,355.4 L513.9,326.9 L580.3,335.4 L646.8,342.8" fill="none" stroke="#d35400" stroke-width="2.0" stroke-linejoin="round" stroke-dasharray="4,3" opacity="0.85"/>
<circle cx="115.2" cy="349.4" r="5" fill="#d35400" opacity="0.9"><title>RF_KILLN VOL | sftt | Chip: 69627</title></circle>
<circle cx="181.7" cy="355.4" r="5" fill="#d35400" opacity="0.9"><title>RF_KILLN VOL | sftt | Chip: 69627</title></circle>
<circle cx="248.1" cy="362.4" r="5" fill="#d35400" opacity="0.9"><title>RF_KILLN VOL | sftt | Chip: 69627</title></circle>
<circle cx="314.6" cy="341.5" r="5" fill="#d35400" opacity="0.9"><title>RF_KILLN VOL | sftt | Chip: 69627</title></circle>
<circle cx="381.0" cy="349.8" r="5" fill="#d35400" opacity="0.9"><title>RF_KILLN VOL | sftt | Chip: 69627</title></circle>
<circle cx="447.4" cy="355.4" r="5" fill="#d35400" opacity="0.9"><title>RF_KILLN VOL | sftt | Chip: 69627</title></circle>
<circle cx="513.9" cy="326.9" r="5" fill="#d35400" opacity="0.9"><title>RF_KILLN VOL | sftt | Chip: 69627</title></circle>
<circle cx="580.3" cy="335.4" r="5" fill="#d35400" opacity="0.9"><title>RF_KILLN VOL | sftt | Chip: 69627</title></circle>
<circle cx="646.8" cy="342.8" r="5" fill="#d35400" opacity="0.9"><title>RF_KILLN VOL | sftt | Chip: 69627</title></circle>
</g>
<g class="series" data-skew="sftt" data-chip="76687">
<path d="M115.2,352.9 L181.7,358.6 L248.1,365.3 L314.6,347.4 L381.0,351.5 L447.4,360.1" fill="none" stroke="#16a085" stroke-width="2.0" stroke-linejoin="round" stroke-dasharray="10,3,3,3" opacity="0.85"/>
<circle cx="115.2" cy="352.9" r="5" fill="#16a085" opacity="0.9"><title>RF_KILLN VOL | sftt | Chip: 76687</title></circle>
<circle cx="181.7" cy="358.6" r="5" fill="#16a085" opacity="0.9"><title>RF_KILLN VOL | sftt | Chip: 76687</title></circle>
<circle cx="248.1" cy="365.3" r="5" fill="#16a085" opacity="0.9"><title>RF_KILLN VOL | sftt | Chip: 76687</title></circle>
<circle cx="314.6" cy="347.4" r="5" fill="#16a085" opacity="0.9"><title>RF_KILLN VOL | sftt | Chip: 76687</title></circle>
<circle cx="381.0" cy="351.5" r="5" fill="#16a085" opacity="0.9"><title>RF_KILLN VOL | sftt | Chip: 76687</title></circle>
<circle cx="447.4" cy="360.1" r="5" fill="#16a085" opacity="0.9"><title>RF_KILLN VOL | sftt | Chip: 76687</title></circle>
</g>
<g class="series" data-skew="ssff" data-chip="56508">
<path d="M115.2,359.4 L181.7,365.5 L248.1,372.0 L314.6,352.5 L381.0,358.6 L447.4,365.7 L513.9,339.4 L580.3,345.5 L646.8,352.0" fill="none" stroke="#3498db" stroke-width="2.0" stroke-linejoin="round" opacity="0.85"/>
<circle cx="115.2" cy="359.4" r="5" fill="#3498db" opacity="0.9"><title>RF_KILLN VOL | ssff | Chip: 56508</title></circle>
<circle cx="181.7" cy="365.5" r="5" fill="#3498db" opacity="0.9"><title>RF_KILLN VOL | ssff | Chip: 56508</title></circle>
<circle cx="248.1" cy="372.0" r="5" fill="#3498db" opacity="0.9"><title>RF_KILLN VOL | ssff | Chip: 56508</title></circle>
<circle cx="314.6" cy="352.5" r="5" fill="#3498db" opacity="0.9"><title>RF_KILLN VOL | ssff | Chip: 56508</title></circle>
<circle cx="381.0" cy="358.6" r="5" fill="#3498db" opacity="0.9"><title>RF_KILLN VOL | ssff | Chip: 56508</title></circle>
<circle cx="447.4" cy="365.7" r="5" fill="#3498db" opacity="0.9"><title>RF_KILLN VOL | ssff | Chip: 56508</title></circle>
<circle cx="513.9" cy="339.4" r="5" fill="#3498db" opacity="0.9"><title>RF_KILLN VOL | ssff | Chip: 56508</title></circle>
<circle cx="580.3" cy="345.5" r="5" fill="#3498db" opacity="0.9"><title>RF_KILLN VOL | ssff | Chip: 56508</title></circle>
<circle cx="646.8" cy="352.0" r="5" fill="#3498db" opacity="0.9"><title>RF_KILLN VOL | ssff | Chip: 56508</title></circle>
</g>
<g class="series" data-skew="ssff" data-chip="57571">
<path d="M115.2,359.4 L181.7,365.3 L248.1,372.2 L314.6,353.0 L381.0,360.6 L447.4,365.9 L513.9,336.9 L580.3,345.2 L646.8,351.8" fill="none" stroke="#e74c3c" stroke-width="2.0" stroke-linejoin="round" stroke-dasharray="8,3" opacity="0.85"/>
<circle cx="115.2" cy="359.4" r="5" fill="#e74c3c" opacity="0.9"><title>RF_KILLN VOL | ssff | Chip: 57571</title></circle>
<circle cx="181.7" cy="365.3" r="5" fill="#e74c3c" opacity="0.9"><title>RF_KILLN VOL | ssff | Chip: 57571</title></circle>
<circle cx="248.1" cy="372.2" r="5" fill="#e74c3c" opacity="0.9"><title>RF_KILLN VOL | ssff | Chip: 57571</title></circle>
<circle cx="314.6" cy="353.0" r="5" fill="#e74c3c" opacity="0.9"><title>RF_KILLN VOL | ssff | Chip: 57571</title></circle>
<circle cx="381.0" cy="360.6" r="5" fill="#e74c3c" opacity="0.9"><title>RF_KILLN VOL | ssff | Chip: 57571</title></circle>
<circle cx="447.4" cy="365.9" r="5" fill="#e74c3c" opacity="0.9"><title>RF_KILLN VOL | ssff | Chip: 57571</title></circle>
<circle cx="513.9" cy="336.9" r="5" fill="#e74c3c" opacity="0.9"><title>RF_KILLN VOL | ssff | Chip: 57571</title></circle>
<circle cx="580.3" cy="345.2" r="5" fill="#e74c3c" opacity="0.9"><title>RF_KILLN VOL | ssff | Chip: 57571</title></circle>
<circle cx="646.8" cy="351.8" r="5" fill="#e74c3c" opacity="0.9"><title>RF_KILLN VOL | ssff | Chip: 57571</title></circle>
</g>
<g class="series" data-skew="ssff" data-chip="96040">
<path d="M115.2,358.0 L181.7,363.6 L248.1,370.8 L314.6,351.3 L381.0,358.9 L447.4,364.5 L513.9,335.5 L580.3,345.7 L646.8,352.6" fill="none" stroke="#2ecc71" stroke-width="2.0" stroke-linejoin="round" stroke-dasharray="4,3" opacity="0.85"/>
<circle cx="115.2" cy="358.0" r="5" fill="#2ecc71" opacity="0.9"><title>RF_KILLN VOL | ssff | Chip: 96040</title></circle>
<circle cx="181.7" cy="363.6" r="5" fill="#2ecc71" opacity="0.9"><title>RF_KILLN VOL | ssff | Chip: 96040</title></circle>
<circle cx="248.1" cy="370.8" r="5" fill="#2ecc71" opacity="0.9"><title>RF_KILLN VOL | ssff | Chip: 96040</title></circle>
<circle cx="314.6" cy="351.3" r="5" fill="#2ecc71" opacity="0.9"><title>RF_KILLN VOL | ssff | Chip: 96040</title></circle>
<circle cx="381.0" cy="358.9" r="5" fill="#2ecc71" opacity="0.9"><title>RF_KILLN VOL | ssff | Chip: 96040</title></circle>
<circle cx="447.4" cy="364.5" r="5" fill="#2ecc71" opacity="0.9"><title>RF_KILLN VOL | ssff | Chip: 96040</title></circle>
<circle cx="513.9" cy="335.5" r="5" fill="#2ecc71" opacity="0.9"><title>RF_KILLN VOL | ssff | Chip: 96040</title></circle>
<circle cx="580.3" cy="345.7" r="5" fill="#2ecc71" opacity="0.9"><title>RF_KILLN VOL | ssff | Chip: 96040</title></circle>
<circle cx="646.8" cy="352.6" r="5" fill="#2ecc71" opacity="0.9"><title>RF_KILLN VOL | ssff | Chip: 96040</title></circle>
</g>
<g class="series" data-skew="sstt" data-chip="29674">
<path d="M115.2,352.3 L181.7,358.3 L248.1,365.6 L314.6,343.5 L381.0,350.9 L447.4,356.9 L513.9,328.7 L580.3,336.6 L646.8,346.2" fill="none" stroke="#9b59b6" stroke-width="2.0" stroke-linejoin="round" stroke-dasharray="10,3,3,3" opacity="0.85"/>
<circle cx="115.2" cy="352.3" r="5" fill="#9b59b6" opacity="0.9"><title>RF_KILLN VOL | sstt | Chip: 29674</title></circle>
<circle cx="181.7" cy="358.3" r="5" fill="#9b59b6" opacity="0.9"><title>RF_KILLN VOL | sstt | Chip: 29674</title></circle>
<circle cx="248.1" cy="365.6" r="5" fill="#9b59b6" opacity="0.9"><title>RF_KILLN VOL | sstt | Chip: 29674</title></circle>
<circle cx="314.6" cy="343.5" r="5" fill="#9b59b6" opacity="0.9"><title>RF_KILLN VOL | sstt | Chip: 29674</title></circle>
<circle cx="381.0" cy="350.9" r="5" fill="#9b59b6" opacity="0.9"><title>RF_KILLN VOL | sstt | Chip: 29674</title></circle>
<circle cx="447.4" cy="356.9" r="5" fill="#9b59b6" opacity="0.9"><title>RF_KILLN VOL | sstt | Chip: 29674</title></circle>
<circle cx="513.9" cy="328.7" r="5" fill="#9b59b6" opacity="0.9"><title>RF_KILLN VOL | sstt | Chip: 29674</title></circle>
<circle cx="580.3" cy="336.6" r="5" fill="#9b59b6" opacity="0.9"><title>RF_KILLN VOL | sstt | Chip: 29674</title></circle>
<circle cx="646.8" cy="346.2" r="5" fill="#9b59b6" opacity="0.9"><title>RF_KILLN VOL | sstt | Chip: 29674</title></circle>
</g>
<g class="series" data-skew="sstt" data-chip="58046">
<path d="M115.2,352.5 L181.7,358.5 L248.1,365.6 L314.6,346.9 L381.0,352.7 L447.4,358.7 L513.9,330.9 L580.3,339.4 L646.8,346.4" fill="none" stroke="#e67e22" stroke-width="2.0" stroke-linejoin="round" opacity="0.85"/>
<circle cx="115.2" cy="352.5" r="5" fill="#e67e22" opacity="0.9"><title>RF_KILLN VOL | sstt | Chip: 58046</title></circle>
<circle cx="181.7" cy="358.5" r="5" fill="#e67e22" opacity="0.9"><title>RF_KILLN VOL | sstt | Chip: 58046</title></circle>
<circle cx="248.1" cy="365.6" r="5" fill="#e67e22" opacity="0.9"><title>RF_KILLN VOL | sstt | Chip: 58046</title></circle>
<circle cx="314.6" cy="346.9" r="5" fill="#e67e22" opacity="0.9"><title>RF_KILLN VOL | sstt | Chip: 58046</title></circle>
<circle cx="381.0" cy="352.7" r="5" fill="#e67e22" opacity="0.9"><title>RF_KILLN VOL | sstt | Chip: 58046</title></circle>
<circle cx="447.4" cy="358.7" r="5" fill="#e67e22" opacity="0.9"><title>RF_KILLN VOL | sstt | Chip: 58046</title></circle>
<circle cx="513.9" cy="330.9" r="5" fill="#e67e22" opacity="0.9"><title>RF_KILLN VOL | sstt | Chip: 58046</title></circle>
<circle cx="580.3" cy="339.4" r="5" fill="#e67e22" opacity="0.9"><title>RF_KILLN VOL | sstt | Chip: 58046</title></circle>
<circle cx="646.8" cy="346.4" r="5" fill="#e67e22" opacity="0.9"><title>RF_KILLN VOL | sstt | Chip: 58046</title></circle>
</g>
<g class="series" data-skew="sstt" data-chip="9808">
<path d="M115.2,352.2 L181.7,357.9 L248.1,363.1 L314.6,344.8 L381.0,350.4 L447.4,356.4 L513.9,330.6 L580.3,338.3 L646.8,345.7" fill="none" stroke="#1abc9c" stroke-width="2.0" stroke-linejoin="round" stroke-dasharray="8,3" opacity="0.85"/>
<circle cx="115.2" cy="352.2" r="5" fill="#1abc9c" opacity="0.9"><title>RF_KILLN VOL | sstt | Chip: 9808</title></circle>
<circle cx="181.7" cy="357.9" r="5" fill="#1abc9c" opacity="0.9"><title>RF_KILLN VOL | sstt | Chip: 9808</title></circle>
<circle cx="248.1" cy="363.1" r="5" fill="#1abc9c" opacity="0.9"><title>RF_KILLN VOL | sstt | Chip: 9808</title></circle>
<circle cx="314.6" cy="344.8" r="5" fill="#1abc9c" opacity="0.9"><title>RF_KILLN VOL | sstt | Chip: 9808</title></circle>
<circle cx="381.0" cy="350.4" r="5" fill="#1abc9c" opacity="0.9"><title>RF_KILLN VOL | sstt | Chip: 9808</title></circle>
<circle cx="447.4" cy="356.4" r="5" fill="#1abc9c" opacity="0.9"><title>RF_KILLN VOL | sstt | Chip: 9808</title></circle>
<circle cx="513.9" cy="330.6" r="5" fill="#1abc9c" opacity="0.9"><title>RF_KILLN VOL | sstt | Chip: 9808</title></circle>
<circle cx="580.3" cy="338.3" r="5" fill="#1abc9c" opacity="0.9"><title>RF_KILLN VOL | sstt | Chip: 9808</title></circle>
<circle cx="646.8" cy="345.7" r="5" fill="#1abc9c" opacity="0.9"><title>RF_KILLN VOL | sstt | Chip: 9808</title></circle>
</g>
<line x1="82.0" y1="131.0" x2="680.0" y2="131.0" stroke="#e74c3c" stroke-width="1.8" stroke-dasharray="4,4"/>
<text x="685.0" y="135.0" font-size="9" font-weight="normal" text-anchor="start" fill="#e74c3c" font-family="Arial,sans-serif">Max spec: 0.4</text>
<g class="legend-item" data-skew="ffss" data-chip="25679">
<line x1="688" y1="77" x2="716" y2="77" stroke="#3498db" stroke-width="2.0" />
<circle cx="702" cy="77" r="5" fill="#3498db"/>
<text x="720" y="81" font-size="10" font-family="Arial,sans-serif" fill="#2c3e50">25679 | ffss</text>
</g>
<g class="legend-item" data-skew="ffss" data-chip="43407">
<line x1="688" y1="99" x2="716" y2="99" stroke="#e74c3c" stroke-width="2.0" stroke-dasharray="8,3" />
<circle cx="702" cy="99" r="5" fill="#e74c3c"/>
<text x="720" y="103" font-size="10" font-family="Arial,sans-serif" fill="#2c3e50">43407 | ffss</text>
</g>
<g class="legend-item" data-skew="ffss" data-chip="79093">
<line x1="688" y1="121" x2="716" y2="121" stroke="#2ecc71" stroke-width="2.0" stroke-dasharray="4,3" />
<circle cx="702" cy="121" r="5" fill="#2ecc71"/>
<text x="720" y="125" font-size="10" font-family="Arial,sans-serif" fill="#2c3e50">79093 | ffss</text>
</g>
<g class="legend-item" data-skew="fftt" data-chip="13967">
<line x1="688" y1="143" x2="716" y2="143" stroke="#9b59b6" stroke-width="2.0" stroke-dasharray="10,3,3,3" />
<circle cx="702" cy="143" r="5" fill="#9b59b6"/>
<text x="720" y="147" font-size="10" font-family="Arial,sans-serif" fill="#2c3e50">13967 | fftt</text>
</g>
<g class="legend-item" data-skew="fftt" data-chip="15382">
<line x1="688" y1="165" x2="716" y2="165" stroke="#e67e22" stroke-width="2.0" />
<circle cx="702" cy="165" r="5" fill="#e67e22"/>
<text x="720" y="169" font-size="10" font-family="Arial,sans-serif" fill="#2c3e50">15382 | fftt</text>
</g>
<g class="legend-item" data-skew="fftt" data-chip="78814">
<line x1="688" y1="187" x2="716" y2="187" stroke="#1abc9c" stroke-width="2.0" stroke-dasharray="8,3" />
<circle cx="702" cy="187" r="5" fill="#1abc9c"/>
<text x="720" y="191" font-size="10" font-family="Arial,sans-serif" fill="#2c3e50">78814 | fftt</text>
</g>
<g class="legend-item" data-skew="fstt" data-chip="12566">
<line x1="688" y1="209" x2="716" y2="209" stroke="#c0392b" stroke-width="2.0" stroke-dasharray="4,3" />
<circle cx="702" cy="209" r="5" fill="#c0392b"/>
<text x="720" y="213" font-size="10" font-family="Arial,sans-serif" fill="#2c3e50">12566 | fstt</text>
</g>
<g class="legend-item" data-skew="fstt" data-chip="13316">
<line x1="688" y1="231" x2="716" y2="231" stroke="#2980b9" stroke-width="2.0" stroke-dasharray="10,3,3,3" />
<circle cx="702" cy="231" r="5" fill="#2980b9"/>
<text x="720" y="235" font-size="10" font-family="Arial,sans-serif" fill="#2c3e50">13316 | fstt</text>
</g>
<g class="legend-item" data-skew="fstt" data-chip="62919">
<line x1="688" y1="253" x2="716" y2="253" stroke="#27ae60" stroke-width="2.0" />
<circle cx="702" cy="253" r="5" fill="#27ae60"/>
<text x="720" y="257" font-size="10" font-family="Arial,sans-serif" fill="#2c3e50">62919 | fstt</text>
</g>
<g class="legend-item" data-skew="sftt" data-chip="44565">
<line x1="688" y1="275" x2="716" y2="275" stroke="#8e44ad" stroke-width="2.0" stroke-dasharray="8,3" />
<circle cx="702" cy="275" r="5" fill="#8e44ad"/>
<text x="720" y="279" font-size="10" font-family="Arial,sans-serif" fill="#2c3e50">44565 | sftt</text>
</g>
<g class="legend-item" data-skew="sftt" data-chip="69627">
<line x1="688" y1="297" x2="716" y2="297" stroke="#d35400" stroke-width="2.0" stroke-dasharray="4,3" />
<circle cx="702" cy="297" r="5" fill="#d35400"/>
<text x="720" y="301" font-size="10" font-family="Arial,sans-serif" fill="#2c3e50">69627 | sftt</text>
</g>
<g class="legend-item" data-skew="sftt" data-chip="76687">
<line x1="688" y1="319" x2="716" y2="319" stroke="#16a085" stroke-width="2.0" stroke-dasharray="10,3,3,3" />
<circle cx="702" cy="319" r="5" fill="#16a085"/>
<text x="720" y="323" font-size="10" font-family="Arial,sans-serif" fill="#2c3e50">76687 | sftt</text>
</g>
<g class="legend-item" data-skew="ssff" data-chip="56508">
<line x1="688" y1="341" x2="716" y2="341" stroke="#3498db" stroke-width="2.0" />
<circle cx="702" cy="341" r="5" fill="#3498db"/>
<text x="720" y="345" font-size="10" font-family="Arial,sans-serif" fill="#2c3e50">56508 | ssff</text>
</g>
<g class="legend-item" data-skew="ssff" data-chip="57571">
<line x1="688" y1="363" x2="716" y2="363" stroke="#e74c3c" stroke-width="2.0" stroke-dasharray="8,3" />
<circle cx="702" cy="363" r="5" fill="#e74c3c"/>
<text x="720" y="367" font-size="10" font-family="Arial,sans-serif" fill="#2c3e50">57571 | ssff</text>
</g>
<g class="legend-item" data-skew="ssff" data-chip="96040">
<line x1="688" y1="385" x2="716" y2="385" stroke="#2ecc71" stroke-width="2.0" stroke-dasharray="4,3" />
<circle cx="702" cy="385" r="5" fill="#2ecc71"/>
<text x="720" y="389" font-size="10" font-family="Arial,sans-serif" fill="#2c3e50">96040 | ssff</text>
</g>
<g class="legend-item" data-skew="sstt" data-chip="29674">
<line x1="688" y1="407" x2="716" y2="407" stroke="#9b59b6" stroke-width="2.0" stroke-dasharray="10,3,3,3" />
<circle cx="702" cy="407" r="5" fill="#9b59b6"/>
<text x="720" y="411" font-size="10" font-family="Arial,sans-serif" fill="#2c3e50">29674 | sstt</text>
</g>
<g class="legend-item" data-skew="sstt" data-chip="58046">
<line x1="688" y1="429" x2="716" y2="429" stroke="#e67e22" stroke-width="2.0" />
<circle cx="702" cy="429" r="5" fill="#e67e22"/>
<text x="720" y="433" font-size="10" font-family="Arial,sans-serif" fill="#2c3e50">58046 | sstt</text>
</g>
<g class="legend-item" data-skew="sstt" data-chip="9808">
<line x1="688" y1="451" x2="716" y2="451" stroke="#1abc9c" stroke-width="2.0" stroke-dasharray="8,3" />
<circle cx="702" cy="451" r="5" fill="#1abc9c"/>
<text x="720" y="455" font-size="10" font-family="Arial,sans-serif" fill="#2c3e50">9808 | sstt</text>
</g>
</svg>