<svg xmlns="http://www.w3.org/2000/svg" width="860" height="526" viewBox="0 0 860 526">
<rect width="860" height="526" fill="#ffffff"/>
<text x="430.0" y="28.0" font-size="16" font-weight="bold" text-anchor="middle" fill="#2c3e50" font-family="Arial,sans-serif">GPIO_0  [PB16DSFS_18_18_H] — VOL (V)  DS=DS_2  [VOH/VOL]</text>
<line x1="82.0" y1="426.0" x2="680.0" y2="426.0" stroke="#999" stroke-width="1"/>
<line x1="82.0" y1="72.0" x2="82.0" y2="426.0" stroke="#999" stroke-width="1"/>
<line x1="82.0" y1="72.0" x2="82.0" y2="426.0" stroke="#999" stroke-width="1"/>
<line x1="77.0" y1="426.0" x2="82.0" y2="426.0" stroke="#999" stroke-width="1"/>
<line x1="82.0" y1="426.0" x2="680.0" y2="426.0" stroke="#e0e0e0" stroke-width="0.8" stroke-dasharray="3,3"/>
<text x="74.0" y="430.0" font-size="9" font-weight="normal" text-anchor="end" fill="#7f8c8d" font-family="Arial,sans-serif">0.301</text>
<line x1="77.0" y1="355.2" x2="82.0" y2="355.2" stroke="#999" stroke-width="1"/>
<line x1="82.0" y1="355.2" x2="680.0" y2="355.2" stroke="#e0e0e0" stroke-width="0.8" stroke-dasharray="3,3"/>
<text x="74.0" y="359.2" font-size="9" font-weight="normal" text-anchor="end" fill="#7f8c8d" font-family="Arial,sans-serif">0.337</text>
<line x1="77.0" y1="284.4" x2="82.0" y2="284.4" stroke="#999" stroke-width="1"/>
<line x1="82.0" y1="284.4" x2="680.0" y2="284.4" stroke="#e0e0e0" stroke-width="0.8" stroke-dasharray="3,3"/>
<text x="74.0" y="288.4" font-size="9" font-weight="normal" text-anchor="end" fill="#7f8c8d" font-family="Arial,sans-serif">0.373</text>
<line x1="77.0" y1="213.6" x2="82.0" y2="213.6" stroke="#999" stroke-width="1"/>
<line x1="82.0" y1="213.6" x2="680.0" y2="213.6" stroke="#e0e0e0" stroke-width="0.8" stroke-dasharray="3,3"/>
<text x="74.0" y="217.6" font-size="9" font-weight="normal" text-anchor="end" fill="#7f8c8d" font-family="Arial,sans-serif">0.408</text>
<line x1="77.0" y1="142.8" x2="82.0" y2="142.8" stroke="#999" stroke-width="1"/>
<line x1="82.0" y1="142.8" x2="680.0" y2="142.8" stroke="#e0e0e0" stroke-width="0.8" stroke-dasharray="3,3"/>
<text x="74.0" y="146.8" font-size="9" font-weight="normal" text-anchor="end" fill="#7f8c8d" font-family="Arial,sans-serif">0.444</text>
<line x1="77.0" y1="72.0" x2="82.0" y2="72.0" stroke="#999" stroke-width="1"/>
<line x1="82.0" y1="72.0" x2="680.0" y2="72.0" stroke="#e0e0e0" stroke-width="0.8" stroke-dasharray="3,3"/>
<text x="74.0" y="76.0" font-size="9" font-weight="normal" text-anchor="end" fill="#7f8c8d" font-family="Arial,sans-serif">0.48</text>
<text x="14.0" y="249.0" font-size="10" font-weight="normal" text-anchor="middle" fill="#7f8c8d" font-family="Arial,sans-serif" transform="rotate(-90,14,249.0)">VOL (V)</text>
<text x="115.2" y="440.0" font-size="8" font-weight="normal" text-anchor="end" fill="#333" font-family="Arial,sans-serif" transform="rotate(-45,115.2,440)">VIO=1.62
VC=0.64</text>
<text x="181.7" y="440.0" font-size="8" font-weight="normal" text-anchor="end" fill="#333" font-family="Arial,sans-serif" transform="rotate(-45,181.7,440)">VIO=1.8
VC=0.8</text>
<text x="248.1" y="440.0" font-size="8" font-weight="normal" text-anchor="end" fill="#333" font-family="Arial,sans-serif" transform="rotate(-45,248.1,440)">VIO=1.98
VC=0.96</text>
<line x1="281.3" y1="72.0" x2="281.3" y2="426.0" stroke="#cccccc" stroke-width="1" stroke-dasharray="4,3"/>
<text x="314.6" y="440.0" font-size="8" font-weight="normal" text-anchor="end" fill="#333" font-family="Arial,sans-serif" transform="rotate(-45,314.6,440)">VIO=1.62
VC=0.64</text>
<text x="381.0" y="440.0" font-size="8" font-weight="normal" text-anchor="end" fill="#333" font-family="Arial,sans-serif" transform="rotate(-45,381.0,440)">VIO=1.8
VC=0.8</text>
<text x="447.4" y="440.0" font-size="8" font-weight="normal" text-anchor="end" fill="#333" font-family="Arial,sans-serif" transform="rotate(-45,447.4,440)">VIO=1.98
VC=0.96</text>
<line x1="480.7" y1="72.0" x2="480.7" y2="426.0" stroke="#cccccc" stroke-width="1" stroke-dasharray="4,3"/>
<text x="513.9" y="440.0" font-size="8" font-weight="normal" text-anchor="end" fill="#333" font-family="Arial,sans-serif" transform="rotate(-45,513.9,440)">VIO=1.62
VC=0.64</text>
<text x="580.3" y="440.0" font-size="8" font-weight="normal" text-anchor="end" fill="#333" font-family="Arial,sans-serif" transform="rotate(-45,580.3,440)">VIO=1.8
VC=0.8</text>
<text x="646.8" y="440.0" font-size="8" font-weight="normal" text-anchor="end" fill="#333" font-family="Arial,sans-serif" transform="rotate(-45,646.8,440)">VIO=1.98
VC=0.96</text>
<text x="181.7" y="62.0" font-size="10" font-weight="bold" text-anchor="middle" fill="#2c3e50" font-family="Arial,sans-serif">T=0°C</text>
<text x="381.0" y="62.0" font-size="10" font-weight="bold" text-anchor="middle" fill="#2c3e50" font-family="Arial,sans-serif">T=20°C</text>
<text x="580.3" y="62.0" font-size="10" font-weight="bold" text-anchor="middle" fill="#2c3e50" font-family="Arial,sans-serif">T=80°C</text>
<g class="series" data-skew="ffss" data-chip="25679">
<path d="M115.2,303.5 L181.7,314.4 L248.1,328.5 L314.6,295.6 L381.0,306.5 L447.4,321.0 L513.9,265.7 L580.3,280.1 L646.8,295.2" fill="none" stroke="#3498db" stroke-width="2.0" stroke-linejoin="round" opacity="0.85"/>
<circle cx="115.2" cy="303.5" r="5" fill="#3498db" opacity="0.9"><title>GPIO_0 VOL | ffss | Chip: 25679</title></circle>
<circle cx="181.7" cy="314.4" r="5" fill="#3498db" opacity="0.9"><title>GPIO_0 VOL | ffss | Chip: 25679</title></circle>
<circle cx="248.1" cy="328.5" r="5" fill="#3498db" opacity="0.9"><title>GPIO_0 VOL | ffss | Chip: 25679</title></circle>
<circle cx="314.6" cy="295.6" r="5" fill="#3498db" opacity="0.9"><title>GPIO_0 VOL | ffss | Chip: 25679</title></circle>
<circle cx="381.0" cy="306.5" r="5" fill="#3498db" opacity="0.9"><title>GPIO_0 VOL | ffss | Chip: 25679</title></circle>
<circle cx="447.4" cy="321.0" r="5" fill="#3498db" opacity="0.9"><title>GPIO_0 VOL | ffss | Chip: 25679</title></circle>
<circle cx="513.9" cy="265.7" r="5" fill="#3498db" opacity="0.9"><title>GPIO_0 VOL | ffss | Chip: 25679</title></circle>
<circle cx="580.3" cy="280.1" r="5" fill="#3498db" opacity="0.9"><title>GPIO_0 VOL | ffss | Chip: 25679</title></circle>
<circle cx="646.8" cy="295.2" r="5" fill="#3498db" opacity="0.9"><title>GPIO_0 VOL | ffss | Chip: 25679</title></circle>
</g>
<g class="series" data-skew="ffss" data-chip="43407">
<path d="M115.2,301.0 L181.7,313.7 L248.1,326.9 L314.6,292.4 L381.0,304.7 L447.4,318.8 L513.9,262.1 L580.3,276.6 L646.8,291.4" fill="none" stroke="#e74c3c" stroke-width="2.0" stroke-linejoin="round" stroke-dasharray="8,3" opacity="0.85"/>
<circle cx="115.2" cy="301.0" r="5" fill="#e74c3c" opacity="0.9"><title>GPIO_0 VOL | ffss | Chip: 43407</title></circle>
<circle cx="181.7" cy="313.7" r="5" fill="#e74c3c" opacity="0.9"><title>GPIO_0 VOL | ffss | Chip: 43407</title></circle>
<circle cx="248.1" cy="326.9" r="5" fill="#e74c3c" opacity="0.9"><title>GPIO_0 VOL | ffss | Chip: 43407</title></circle>
<circle cx="314.6" cy="292.4" r="5" fill="#e74c3c" opacity="0.9"><title>GPIO_0 VOL | ffss | Chip: 43407</title></circle>
<circle cx="381.0" cy="304.7" r="5" fill="#e74c3c" opacity="0.9"><title>GPIO_0 VOL | ffss | Chip: 43407</title></circle>
<circle cx="447.4" cy="318.8" r="5" fill="#e74c3c" opacity="0.9"><title>GPIO_0 VOL | ffss | Chip: 43407</title></circle>
<circle cx="513.9" cy="262.1" r="5" fill="#e74c3c" opacity="0.9"><title>GPIO_0 VOL | ffss | Chip: 43407</title></circle>
<circle cx="580.3" cy="276.6" r="5" fill="#e74c3c" opacity="0.9"><title>GPIO_0 VOL | ffss | Chip: 43407</title></circle>
<circle cx="646.8" cy="291.4" r="5" fill="#e74c3c" opacity="0.9"><title>GPIO_0 VOL | ffss | Chip: 43407</title></circle>
</g>
<g class="series" data-skew="ffss" data-chip="79093">
<path d="M115.2,305.5 L181.7,317.0 L248.1,330.1 L314.6,296.6 L381.0,309.3 L447.4,322.6 L513.9,268.0 L580.3,282.5 L646.8,297.8" fill="none" stroke="#2ecc71" stroke-width="2.0" stroke-linejoin="round" stroke-dasharray="4,3" opacity="0.85"/>
<circle cx="115.2" cy="305.5" r="5" fill="#2ecc71" opacity="0.9"><title>GPIO_0 VOL | ffss | Chip: 79093</title></circle>
<circle cx="181.7" cy="317.0" r="5" fill="#2ecc71" opacity="0.9"><title>GPIO_0 VOL | ffss | Chip: 79093</title></circle>
<circle cx="248.1" cy="330.1" r="5" fill="#2ecc71" opacity="0.9"><title>GPIO_0 VOL | ffss | Chip: 79093</title></circle>
<circle cx="314.6" cy="296.6" r="5" fill="#2ecc71" opacity="0.9"><title>GPIO_0 VOL | ffss | Chip: 79093</title></circle>
<circle cx="381.0" cy="309.3" r="5" fill="#2ecc71" opacity="0.9"><title>GPIO_0 VOL | ffss | Chip: 79093</title></circle>
<circle cx="447.4" cy="322.6" r="5" fill="#2ecc71" opacity="0.9"><title>GPIO_0 VOL | ffss | Chip: 79093</title></circle>
<circle cx="513.9" cy="268.0" r="5" fill="#2ecc71" opacity="0.9"><title>GPIO_0 VOL | ffss | Chip: 79093</title></circle>
<circle cx="580.3" cy="282.5" r="5" fill="#2ecc71" opacity="0.9"><title>GPIO_0 VOL | ffss | Chip: 79093</title></circle>
<circle cx="646.8" cy="297.8" r="5" fill="#2ecc71" opacity="0.9"><title>GPIO_0 VOL | ffss | Chip: 79093</title></circle>
</g>
<g class="series" data-skew="fftt" data-chip="13967">
<path d="M115.2,322.2 L181.7,335.7 L248.1,348.6 L314.6,314.4 L381.0,327.7 L447.4,341.2 L513.9,279.9 L580.3,295.4 L646.8,311.7" fill="none" stroke="#9b59b6" stroke-width="2.0" stroke-linejoin="round" stroke-dasharray="10,3,3,3" opacity="0.85"/>
<circle cx="115.2" cy="322.2" r="5" fill="#9b59b6" opacity="0.9"><title>GPIO_0 VOL | fftt | Chip: 13967</title></circle>
<circle cx="181.7" cy="335.7" r="5" fill="#9b59b6" opacity="0.9"><title>GPIO_0 VOL | fftt | Chip: 13967</title></circle>
<circle cx="248.1" cy="348.6" r="5" fill="#9b59b6" opacity="0.9"><title>GPIO_0 VOL | fftt | Chip: 13967</title></circle>
<circle cx="314.6" cy="314.4" r="5" fill="#9b59b6" opacity="0.9"><title>GPIO_0 VOL | fftt | Chip: 13967</title></circle>
<circle cx="381.0" cy="327.7" r="5" fill="#9b59b6" opacity="0.9"><title>GPIO_0 VOL | fftt | Chip: 13967</title></circle>
<circle cx="447.4" cy="341.2" r="5" fill="#9b59b6" opacity="0.9"><title>GPIO_0 VOL | fftt | Chip: 13967</title></circle>
<circle cx="513.9" cy="279.9" r="5" fill="#9b59b6" opacity="0.9"><title>GPIO_0 VOL | fftt | Chip: 13967</title></circle>
<circle cx="580.3" cy="295.4" r="5" fill="#9b59b6" opacity="0.9"><title>GPIO_0 VOL | fftt | Chip: 13967</title></circle>
<circle cx="646.8" cy="311.7" r="5" fill="#9b59b6" opacity="0.9"><title>GPIO_0 VOL | fftt | Chip: 13967</title></circle>
</g>
<g class="series" data-skew="fftt" data-chip="15382">
<path d="M115.2,325.2 L181.7,339.0 L248.1,352.3 L314.6,318.0 L381.0,331.1 L447.4,346.4 L513.9,288.1 L580.3,304.5 L646.8,319.2" fill="none" stroke="#e67e22" stroke-width="2.0" stroke-linejoin="round" opacity="0.85"/>
<circle cx="115.2" cy="325.2" r="5" fill="#e67e22" opacity="0.9"><title>GPIO_0 VOL | fftt | Chip: 15382</title></circle>
<circle cx="181.7" cy="339.0" r="5" fill="#e67e22" opacity="0.9"><title>GPIO_0 VOL | fftt | Chip: 15382</title></circle>
<circle cx="248.1" cy="352.3" r="5" fill="#e67e22" opacity="0.9"><title>GPIO_0 VOL | fftt | Chip: 15382</title></circle>
<circle cx="314.6" cy="318.0" r="5" fill="#e67e22" opacity="0.9"><title>GPIO_0 VOL | fftt | Chip: 15382</title></circle>
<circle cx="381.0" cy="331.1" r="5" fill="#e67e22" opacity="0.9"><title>GPIO_0 VOL | fftt | Chip: 15382</title></circle>
<circle cx="447.4" cy="346.4" r="5" fill="#e67e22" opacity="0.9"><title>GPIO_0 VOL | fftt | Chip: 15382</title></circle>
<circle cx="513.9" cy="288.1" r="5" fill="#e67e22" opacity="0.9"><title>GPIO_0 VOL | fftt | Chip: 15382</title></circle>
<circle cx="580.3" cy="304.5" r="5" fill="#e67e22" opacity="0.9"><title>GPIO_0 VOL | fftt | Chip: 15382</title></circle>
<circle cx="646.8" cy="319.2" r="5" fill="#e67e22" opacity="0.9"><title>GPIO_0 VOL | fftt | Chip: 15382</title></circle>
</g>
<g class="series" data-skew="fftt" data-chip="78814">
<path d="M115.2,323.6 L181.7,336.9 L248.1,349.9 L314.6,314.4 L381.0,327.7 L447.4,341.0 L513.9,283.7 L580.3,299.2 L646.8,313.5" fill="none" stroke="#1abc9c" stroke-width="2.0" stroke-linejoin="round" stroke-dasharray="8,3" opacity="0.85"/>
<circle cx="115.2" cy="323.6" r="5" fill="#1abc9c" opacity="0.9"><title>GPIO_0 VOL | fftt | Chip: 78814</title></circle>
<circle cx="181.7" cy="336.9" r="5" fill="#1abc9c" opacity="0.9"><title>GPIO_0 VOL | fftt | Chip: 78814</title></circle>
<circle cx="248.1" cy="349.9" r="5" fill="#1abc9c" opacity="0.9"><title>GPIO_0 VOL | fftt | Chip: 78814</title></circle>
<circle cx="314.6" cy="314.4" r="5" fill="#1abc9c" opacity="0.9"><title>GPIO_0 VOL | fftt | Chip: 78814</title></circle>
<circle cx="381.0" cy="327.7" r="5" fill="#1abc9c" opacity="0.9"><title>GPIO_0 VOL | fftt | Chip: 78814</title></circle>
<circle cx="447.4" cy="341.0" r="5" fill="#1abc9c" opacity="0.9"><title>GPIO_0 VOL | fftt | Chip: 78814</title></circle>
<circle cx="513.9" cy="283.7" r="5" fill="#1abc9c" opacity="0.9"><title>GPIO_0 VOL | fftt | Chip: 78814</title></circle>
<circle cx="580.3" cy="299.2" r="5" fill="#1abc9c" opacity="0.9"><title>GPIO_0 VOL | fftt | Chip: 78814</title></circle>
<circle cx="646.8" cy="313.5" r="5" fill="#1abc9c" opacity="0.9"><title>GPIO_0 VOL | fftt | Chip: 78814</title></circle>
</g>
<g class="series" data-skew="fstt" data-chip="12566">
<path d="M115.2,321.8 L181.7,333.1 L248.1,345.8 L314.6,311.9 L381.0,324.0 L447.4,337.5 L513.9,283.9 L580.3,297.2 L646.8,312.1" fill="none" stroke="#c0392b" stroke-width="2.0" stroke-linejoin="round" stroke-dasharray="4,3" opacity="0.85"/>
<circle cx="115.2" cy="321.8" r="5" fill="#c0392b" opacity="0.9"><title>GPIO_0 VOL | fstt | Chip: 12566</title></circle>
<circle cx="181.7" cy="333.1" r="5" fill="#c0392b" opacity="0.9"><title>GPIO_0 VOL | fstt | Chip: 12566</title></circle>
<circle cx="248.1" cy="345.8" r="5" fill="#c0392b" opacity="0.9"><title>GPIO_0 VOL | fstt | Chip: 12566</title></circle>
<circle cx="314.6" cy="311.9" r="5" fill="#c0392b" opacity="0.9"><title>GPIO_0 VOL | fstt | Chip: 12566</title></circle>
<circle cx="381.0" cy="324.0" r="5" fill="#c0392b" opacity="0.9"><title>GPIO_0 VOL | fstt | Chip: 12566</title></circle>
<circle cx="447.4" cy="337.5" r="5" fill="#c0392b" opacity="0.9"><title>GPIO_0 VOL | fstt | Chip: 12566</title></circle>
<circle cx="513.9" cy="283.9" r="5" fill="#c0392b" opacity="0.9"><title>GPIO_0 VOL | fstt | Chip: 12566</title></circle>
<circle cx="580.3" cy="297.2" r="5" fill="#c0392b" opacity="0.9"><title>GPIO_0 VOL | fstt | Chip: 12566</title></circle>
<circle cx="646.8" cy="312.1" r="5" fill="#c0392b" opacity="0.9"><title>GPIO_0 VOL | fstt | Chip: 12566</title></circle>
</g>
<g class="series" data-skew="fstt" data-chip="13316">
<path d="M115.2,324.6 L181.7,337.3 L248.1,349.7 L314.6,315.4 L381.0,327.9 L447.4,342.2 L513.9,285.7 L580.3,301.2 L646.8,315.2" fill="none" stroke="#2980b9" stroke-width="2.0" stroke-linejoin="round" stroke-dasharray="10,3,3,3" opacity="0.85"/>
<circle cx="115.2" cy="324.6" r="5" fill="#2980b9" opacity="0.9"><title>GPIO_0 VOL | fstt | Chip: 13316</title></circle>
<circle cx="181.7" cy="337.3" r="5" fill="#2980b9" opacity="0.9"><title>GPIO_0 VOL | fstt | Chip: 13316</title></circle>
<circle cx="248.1" cy="349.7" r="5" fill="#2980b9" opacity="0.9"><title>GPIO_0 VOL | fstt | Chip: 13316</title></circle>
<circle cx="314.6" cy="315.4" r="5" fill="#2980b9" opacity="0.9"><title>GPIO_0 VOL | fstt | Chip: 13316</title></circle>
<circle cx="381.0" cy="327.9" r="5" fill="#2980b9" opacity="0.9"><title>GPIO_0 VOL | fstt | Chip: 13316</title></circle>
<circle cx="447.4" cy="342.2" r="5" fill="#2980b9" opacity="0.9"><title>GPIO_0 VOL | fstt | Chip: 13316</title></circle>
<circle cx="513.9" cy="285.7" r="5" fill="#2980b9" opacity="0.9"><title>GPIO_0 VOL | fstt | Chip: 13316</title></circle>
<circle cx="580.3" cy="301.2" r="5" fill="#2980b9" opacity="0.9"><title>GPIO_0 VOL | fstt | Chip: 13316</title></circle>
<circle cx="646.8" cy="315.2" r="5" fill="#2980b9" opacity="0.9"><title>GPIO_0 VOL | fstt | Chip: 13316</title></circle>
</g>
<g class="series" data-skew="fstt" data-chip="62919">
<path d="M115.2,326.3 L181.7,338.2 L248.1,352.1 L314.6,317.4 L381.0,330.3 L447.4,343.6 L513.9,288.1 L580.3,302.7 L646.8,318.4" fill="none" stroke="#27ae60" stroke-width="2.0" stroke-linejoin="round" opacity="0.85"/>
<circle cx="115.2" cy="326.3" r="5" fill="#27ae60" opacity="0.9"><title>GPIO_0 VOL | fstt | Chip: 62919</title></circle>
<circle cx="181.7" cy="338.2" r="5" fill="#27ae60" opacity="0.9"><title>GPIO_0 VOL | fstt | Chip: 62919</title></circle>
<circle cx="248.1" cy="352.1" r="5" fill="#27ae60" opacity="0.9"><title>GPIO_0 VOL | fstt | Chip: 62919</title></circle>
<circle cx="314.6" cy="317.4" r="5" fill="#27ae60" opacity="0.9"><title>GPIO_0 VOL | fstt | Chip: 62919</title></circle>
<circle cx="381.0" cy="330.3" r="5" fill="#27ae60" opacity="0.9"><title>GPIO_0 VOL | fstt | Chip: 62919</title></circle>
<circle cx="447.4" cy="343.6" r="5" fill="#27ae60" opacity="0.9"><title>GPIO_0 VOL | fstt | Chip: 62919</title></circle>
<circle cx="513.9" cy="288.1" r="5" fill="#27ae60" opacity="0.9"><title>GPIO_0 VOL | fstt | Chip: 62919</title></circle>
<circle cx="580.3" cy="302.7" r="5" fill="#27ae60" opacity="0.9"><title>GPIO_0 VOL | fstt | Chip: 62919</title></circle>
<circle cx="646.8" cy="318.4" r="5" fill="#27ae60" opacity="0.9"><title>GPIO_0 VOL | fstt | Chip: 62919</title></circle>
</g>
<g class="series" data-skew="sftt" data-chip="44565">
<path d="M115.2,323.6 L181.7,337.6 L248.1,352.1 L314.6,315.2 L381.0,330.9 L447.4,344.6 L513.9,284.5 L580.3,300.2 L646.8,316.2" fill="none" stroke="#8e44ad" stroke-width="2.0" stroke-linejoin="round" stroke-dasharray="8,3" opacity="0.85"/>
<circle cx="115.2" cy="323.6" r="5" fill="#8e44ad" opacity="0.9"><title>GPIO_0 VOL | sftt | Chip: 44565</title></circle>
<circle cx="181.7" cy="337.6" r="5" fill="#8e44ad" opacity="0.9"><title>GPIO_0 VOL | sftt | Chip: 44565</title></circle>
<circle cx="248.1" cy="352.1" r="5" fill="#8e44ad" opacity="0.9"><title>GPIO_0 VOL | sftt | Chip: 44565</title></circle>
<circle cx="314.6" cy="315.2" r="5" fill="#8e44ad" opacity="0.9"><title>GPIO_0 VOL | sftt | Chip: 44565</title></circle>
<circle cx="381.0" cy="330.9" r="5" fill="#8e44ad" opacity="0.9"><title>GPIO_0 VOL | sftt | Chip: 44565</title></circle>
<circle cx="447.4" cy="344.6" r="5" fill="#8e44ad" opacity="0.9"><title>GPIO_0 VOL | sftt | Chip: 44565</title></circle>
<circle cx="513.9" cy="284.5" r="5" fill="#8e44ad" opacity="0.9"><title>GPIO_0 VOL | sftt | Chip: 44565</title></circle>
<circle cx="580.3" cy="300.2" r="5" fill="#8e44ad" opacity="0.9"><title>GPIO_0 VOL | sftt | Chip: 44565</title></circle>
<circle cx="646.8" cy="316.2" r="5" fill="#8e44ad" opacity="0.9"><title>GPIO_0 VOL | sftt | Chip: 44565</title></circle>
</g>
<g class="series" data-skew="sftt" data-chip="69627">
<path d="M115.2,320.4 L181.7,334.5 L248.1,349.5 L314.6,311.9 L381.0,326.3 L447.4,342.4 L513.9,279.9 L580.3,296.0 L646.8,313.7" fill="none" stroke="#d35400" stroke-width="2.0" stroke-linejoin="round" stroke-dasharray="4,3" opacity="0.85"/>
<circle cx="115.2" cy="320.4" r="5" fill="#d35400" opacity="0.9"><title>GPIO_0 VOL | sftt | Chip: 69627</title></circle>
<circle cx="181.7" cy="334.5" r="5" fill="#d35400" opacity="0.9"><title>GPIO_0 VOL | sftt | Chip: 69627</title></circle>
<circle cx="248.1" cy="349.5" r="5" fill="#d35400" opacity="0.9"><title>GPIO_0 VOL | sftt | Chip: 69627</title></circle>
<circle cx="314.6" cy="311.9" r="5" fill="#d35400" opacity="0.9"><title>GPIO_0 VOL | sftt | Chip: 69627</title></circle>
<circle cx="381.0" cy="326.3" r="5" fill="#d35400" opacity="0.9"><title>GPIO_0 VOL | sftt | Chip: 69627</title></circle>
<circle cx="447.4" cy="342.4" r="5" fill="#d35400" opacity="0.9"><title>GPIO_0 VOL | sftt | Chip: 69627</title></circle>
<circle cx="513.9" cy="279.9" r="5" fill="#d35400" opacity="0.9"><title>GPIO_0 VOL | sftt | Chip: 69627</title></circle>
<circle cx="580.3" cy="296.0" r="5" fill="#d35400" opacity="0.9"><title>GPIO_0 VOL | sftt | Chip: 69627</title></circle>
<circle cx="646.8" cy="313.7" r="5" fill="#d35400" opacity="0.9"><title>GPIO_0 VOL | sftt | Chip: 69627</title></circle>
</g>
<g class="series" data-skew="sftt" data-chip="76687">
<path d="M115.2,326.7 L181.7,341.4 L248.1,354.3 L314.6,319.4 L381.0,332.7 L447.4,347.6" fill="none" stroke="#16a085" stroke-width="2.0" stroke-linejoin="round" stroke-dasharray="10,3,3,3" opacity="0.85"/>
<circle cx="115.2" cy="326.7" r="5" fill="#16a085" opacity="0.9"><title>GPIO_0 VOL | sftt | Chip: 76687</title></circle>
<circle cx="181.7" cy="341.4" r="5" fill="#16a085" opacity="0.9"><title>GPIO_0 VOL | sftt | Chip: 76687</title></circle>
<circle cx="248.1" cy="354.3" r="5" fill="#16a085" opacity="0.9"><title>GPIO_0 VOL | sftt | Chip: 76687</title></circle>
<circle cx="314.6" cy="319.4" r="5" fill="#16a085" opacity="0.9"><title>GPIO_0 VOL | sftt | Chip: 76687</title></circle>
<circle cx="381.0" cy="332.7" r="5" fill="#16a085" opacity="0.9"><title>GPIO_0 VOL | sftt | Chip: 76687</title></circle>
<circle cx="447.4" cy="347.6" r="5" fill="#16a085" opacity="0.9"><title>GPIO_0 VOL | sftt | Chip: 76687</title></circle>
</g>
<g class="series" data-skew="ssff" data-chip="56508">
<path d="M115.2,346.4 L181.7,359.7 L248.1,373.1 L314.6,337.1 L381.0,350.5 L447.4,364.8 L513.9,306.7 L580.3,322.2 L646.8,338.6" fill="none" stroke="#3498db" stroke-width="2.0" stroke-linejoin="round" opacity="0.85"/>
<circle cx="115.2" cy="346.4" r="5" fill="#3498db" opacity="0.9"><title>GPIO_0 VOL | ssff | Chip: 56508</title></circle>
<circle cx="181.7" cy="359.7" r="5" fill="#3498db" opacity="0.9"><title>GPIO_0 VOL | ssff | Chip: 56508</title></circle>
<circle cx="248.1" cy="373.1" r="5" fill="#3498db" opacity="0.9"><title>GPIO_0 VOL | ssff | Chip: 56508</title></circle>
<circle cx="314.6" cy="337.1" r="5" fill="#3498db" opacity="0.9"><title>GPIO_0 VOL | ssff | Chip: 56508</title></circle>
<circle cx="381.0" cy="350.5" r="5" fill="#3498db" opacity="0.9"><title>GPIO_0 VOL | ssff | Chip: 56508</title></circle>
<circle cx="447.4" cy="364.8" r="5" fill="#3498db" opacity="0.9"><title>GPIO_0 VOL | ssff | Chip: 56508</title></circle>
<circle cx="513.9" cy="306.7" r="5" fill="#3498db" opacity="0.9"><title>GPIO_0 VOL | ssff | Chip: 56508</title></circle>
<circle cx="580.3" cy="322.2" r="5" fill="#3498db" opacity="0.9"><title>GPIO_0 VOL | ssff | Chip: 56508</title></circle>
<circle cx="646.8" cy="338.6" r="5" fill="#3498db" opacity="0.9"><title>GPIO_0 VOL | ssff | Chip: 56508</title></circle>
</g>
<g class="series" data-skew="ssff" data-chip="57571">
<path d="M115.2,347.4 L181.7,359.5 L248.1,374.5 L314.6,337.8 L381.0,352.1 L447.4,367.0 L513.9,307.1 L580.3,323.2 L646.8,338.6" fill="none" stroke="#e74c3c" stroke-width="2.0" stroke-linejoin="round" stroke-dasharray="8,3" opacity="0.85"/>
<circle cx="115.2" cy="347.4" r="5" fill="#e74c3c" opacity="0.9"><title>GPIO_0 VOL | ssff | Chip: 57571</title></circle>
<circle cx="181.7" cy="359.5" r="5" fill="#e74c3c" opacity="0.9"><title>GPIO_0 VOL | ssff | Chip: 57571</title></circle>
<circle cx="248.1" cy="374.5" r="5" fill="#e74c3c" opacity="0.9"><title>GPIO_0 VOL | ssff | Chip: 57571</title></circle>
<circle cx="314.6" cy="337.8" r="5" fill="#e74c3c" opacity="0.9"><title>GPIO_0 VOL | ssff | Chip: 57571</title></circle>
<circle cx="381.0" cy="352.1" r="5" fill="#e74c3c" opacity="0.9"><title>GPIO_0 VOL | ssff | Chip: 57571</title></circle>
<circle cx="447.4" cy="367.0" r="5" fill="#e74c3c" opacity="0.9"><title>GPIO_0 VOL | ssff | Chip: 57571</title></circle>
<circle cx="513.9" cy="307.1" r="5" fill="#e74c3c" opacity="0.9"><title>GPIO_0 VOL | ssff | Chip: 57571</title></circle>
<circle cx="580.3" cy="323.2" r="5" fill="#e74c3c" opacity="0.9"><title>GPIO_0 VOL | ssff | Chip: 57571</title></circle>
<circle cx="646.8" cy="338.6" r="5" fill="#e74c3c" opacity="0.9"><title>GPIO_0 VOL | ssff | Chip: 57571</title></circle>
</g>
<g class="series" data-skew="ssff" data-chip="96040">
<path d="M115.2,346.6 L181.7,359.5 L248.1,373.7 L314.6,336.9 L381.0,350.7 L447.4,365.4 L513.9,305.9 L580.3,322.2 L646.8,337.3" fill="none" stroke="#2ecc71" stroke-width="2.0" stroke-linejoin="round" stroke-dasharray="4,3" opacity="0.85"/>
<circle cx="115.2" cy="346.6" r="5" fill="#2ecc71" opacity="0.9"><title>GPIO_0 VOL | ssff | Chip: 96040</title></circle>
<circle cx="181.7" cy="359.5" r="5" fill="#2ecc71" opacity="0.9"><title>GPIO_0 VOL | ssff | Chip: 96040</title></circle>
<circle cx="248.1" cy="373.7" r="5" fill="#2ecc71" opacity="0.9"><title>GPIO_0 VOL | ssff | Chip: 96040</title></circle>
<circle cx="314.6" cy="336.9" r="5" fill="#2ecc71" opacity="0.9"><title>GPIO_0 VOL | ssff | Chip: 96040</title></circle>
<circle cx="381.0" cy="350.7" r="5" fill="#2ecc71" opacity="0.9"><title>GPIO_0 VOL | ssff | Chip: 96040</title></circle>
<circle cx="447.4" cy="365.4" r="5" fill="#2ecc71" opacity="0.9"><title>GPIO_0 VOL | ssff | Chip: 96040</title></circle>
<circle cx="513.9" cy="305.9" r="5" fill="#2ecc71" opacity="0.9"><title>GPIO_0 VOL | ssff | Chip: 96040</title></circle>
<circle cx="580.3" cy="322.2" r="5" fill="#2ecc71" opacity="0.9"><title>GPIO_0 VOL | ssff | Chip: 96040</title></circle>
<circle cx="646.8" cy="337.3" r="5" fill="#2ecc71" opacity="0.9"><title>GPIO_0 VOL | ssff | Chip: 96040</title></circle>
</g>
<g class="series" data-skew="sstt" data-chip="29674">
<path d="M115.2,322.2 L181.7,336.1 L248.1,350.1 L314.6,313.5 L381.0,328.5 L447.4,343.4 L513.9,283.3 L580.3,300.4 L646.8,316.4" fill="none" stroke="#9b59b6" stroke-width="2.0" stroke-linejoin="round" stroke-dasharray="10,3,3,3" opacity="0.85"/>
<circle cx="115.2" cy="322.2" r="5" fill="#9b59b6" opacity="0.9"><title>GPIO_0 VOL | sstt | Chip: 29674</title></circle>
<circle cx="181.7" cy="336.1" r="5" fill="#9b59b6" opacity="0.9"><title>GPIO_0 VOL | sstt | Chip: 29674</title></circle>
<circle cx="248.1" cy="350.1" r="5" fill="#9b59b6" opacity="0.9"><title>GPIO_0 VOL | sstt | Chip: 29674</title></circle>
<circle cx="314.6" cy="313.5" r="5" fill="#9b59b6" opacity="0.9"><title>GPIO_0 VOL | sstt | Chip: 29674</title></circle>
<circle cx="381.0" cy="328.5" r="5" fill="#9b59b6" opacity="0.9"><title>GPIO_0 VOL | sstt | Chip: 29674</title></circle>
<circle cx="447.4" cy="343.4" r="5" fill="#9b59b6" opacity="0.9"><title>GPIO_0 VOL | sstt | Chip: 29674</title></circle>
<circle cx="513.9" cy="283.3" r="5" fill="#9b59b6" opacity="0.9"><title>GPIO_0 VOL | sstt | Chip: 29674</title></circle>
<circle cx="580.3" cy="300.4" r="5" fill="#9b59b6" opacity="0.9"><title>GPIO_0 VOL | sstt | Chip: 29674</title></circle>
<circle cx="646.8" cy="316.4" r="5" fill="#9b59b6" opacity="0.9"><title>GPIO_0 VOL | sstt | Chip: 29674</title></circle>
</g>
<g class="series" data-skew="sstt" data-chip="58046">
<path d="M115.2,329.1 L181.7,343.6 L248.1,357.3 L314.6,320.2 L381.0,335.1 L447.4,350.3 L513.9,288.9 L580.3,305.3 L646.8,322.6" fill="none" stroke="#e67e22" stroke-width="2.0" stroke-linejoin="round" opacity="0.85"/>
<circle cx="115.2" cy="329.1" r="5" fill="#e67e22" opacity="0.9"><title>GPIO_0 VOL | sstt | Chip: 58046</title></circle>
<circle cx="181.7" cy="343.6" r="5" fill="#e67e22" opacity="0.9"><title>GPIO_0 VOL | sstt | Chip: 58046</title></circle>
<circle cx="248.1" cy="357.3" r="5" fill="#e67e22" opacity="0.9"><title>GPIO_0 VOL | sstt | Chip: 58046</title></circle>
<circle cx="314.6" cy="320.2" r="5" fill="#e67e22" opacity="0.9"><title>GPIO_0 VOL | sstt | Chip: 58046</title></circle>
<circle cx="381.0" cy="335.1" r="5" fill="#e67e22" opacity="0.9"><title>GPIO_0 VOL | sstt | Chip: 58046</title></circle>
<circle cx="447.4" cy="350.3" r="5" fill="#e67e22" opacity="0.9"><title>GPIO_0 VOL | sstt | Chip: 58046</title></circle>
<circle cx="513.9" cy="288.9" r="5" fill="#e67e22" opacity="0.9"><title>GPIO_0 VOL | sstt | Chip: 58046</title></circle>
<circle cx="580.3" cy="305.3" r="5" fill="#e67e22" opacity="0.9"><title>GPIO_0 VOL | sstt | Chip: 58046</title></circle>
<circle cx="646.8" cy="322.6" r="5" fill="#e67e22" opacity="0.9"><title>GPIO_0 VOL | sstt | Chip: 58046</title></circle>
</g>
<g class="series" data-skew="sstt" data-chip="9808">
<path d="M115.2,325.2 L181.7,338.2 L248.1,352.9 L314.6,316.6 L381.0,330.1 L447.4,344.6 L513.9,286.3 L580.3,302.0 L646.8,318.6" fill="none" stroke="#1abc9c" stroke-width="2.0" stroke-linejoin="round" stroke-dasharray="8,3" opacity="0.85"/>
<circle cx="115.2" cy="325.2" r="5" fill="#1abc9c" opacity="0.9"><title>GPIO_0 VOL | sstt | Chip: 9808</title></circle>
<circle cx="181.7" cy="338.2" r="5" fill="#1abc9c" opacity="0.9"><title>GPIO_0 VOL | sstt | Chip: 9808</title></circle>
<circle cx="248.1" cy="352.9" r="5" fill="#1abc9c" opacity="0.9"><title>GPIO_0 VOL | sstt | Chip: 9808</title></circle>
<circle cx="314.6" cy="316.6" r="5" fill="#1abc9c" opacity="0.9"><title>GPIO_0 VOL | sstt | Chip: 9808</title></circle>
<circle cx="381.0" cy="330.1" r="5" fill="#1abc9c" opacity="0.9"><title>GPIO_0 VOL | sstt | Chip: 9808</title></circle>
<circle cx="447.4" cy="344.6" r="5" fill="#1abc9c" opacity="0.9"><title>GPIO_0 VOL | sstt | Chip: 9808</title></circle>
<circle cx="513.9" cy="286.3" r="5" fill="#1abc9c" opacity="0.9"><title>GPIO_0 VOL | sstt | Chip: 9808</title></circle>
<circle cx="580.3" cy="302.0" r="5" fill="#1abc9c" opacity="0.9"><title>GPIO_0 VOL | sstt | Chip: 9808</title></circle>
<circle cx="646.8" cy="318.6" r="5" fill="#1abc9c" opacity="0.9"><title>GPIO_0 VOL | sstt | Chip: 9808</title></circle>
</g>
<line x1="82.0" y1="131.0" x2="680.0" y2="131.0" stroke="#e74c3c" stroke-width="1.8" stroke-dasharray="4,4"/>
<text x="685.0" y="135.0" font-size="9" font-weight="normal" text-anchor="start" fill="#e74c3c" font-family="Arial,sans-serif">Max spec: 0.45</text>
<g class="legend-item" data-skew="ffss" data-chip="25679">
<line x1="688" y1="77" x2="716" y2="77" stroke="#3498db" stroke-width="2.0" />
<circle cx="702" cy="77" r="5" fill="#3498db"/>
<text x="720" y="81" font-size="10" font-family="Arial,sans-serif" fill="#2c3e50">25679 | ffss</text>
</g>
<g class="legend-item" data-skew="ffss" data-chip="43407">
<line x1="688" y1="99" x2="716" y2="99" stroke="#e74c3c" stroke-width="2.0" stroke-dasharray="8,3" />
<circle cx="702" cy="99" r="5" fill="#e74c3c"/>
<text x="720" y="103" font-size="10" font-family="Arial,sans-serif" fill="#2c3e50">43407 | ffss</text>
</g>
<g class="legend-item" data-skew="ffss" data-chip="79093">
<line x1="688" y1="121" x2="716" y2="121" stroke="#2ecc71" stroke-width="2.0" stroke-dasharray="4,3" />
<circle cx="702" cy="121" r="5" fill="#2ecc71"/>
<text x="720" y="125" font-size="10" font-family="Arial,sans-serif" fill="#2c3e50">79093 | ffss</text>
</g>
<g class="legend-item" data-skew="fftt" data-chip="13967">
<line x1="688" y1="143" x2="716" y2="143" stroke="#9b59b6" stroke-width="2.0" stroke-dasharray="10,3,3,3" />
<circle cx="702" cy="143" r="5" fill="#9b59b6"/>
<text x="720" y="147" font-size="10" font-family="Arial,sans-serif" fill="#2c3e50">13967 | fftt</text>
</g>
<g class="legend-item" data-skew="fftt" data-chip="15382">
<line x1="688" y1="165" x2="716" y2="165" stroke="#e67e22" stroke-width="2.0" />
<circle cx="702" cy="165" r="5" fill="#e67e22"/>
<text x="720" y="169" font-size="10" font-family="Arial,sans-serif" fill="#2c3e50">15382 | fftt</text>
</g>
<g class="legend-item" data-skew="fftt" data-chip="78814">
<line x1="688" y1="187" x2="716" y2="187" stroke="#1abc9c" stroke-width="2.0" stroke-dasharray="8,3" />
<circle cx="702" cy="187" r="5" fill="#1abc9c"/>
<text x="720" y="191" font-size="10" font-family="Arial,sans-serif" fill="#2c3e50">78814 | fftt</text>
</g>
<g class="legend-item" data-skew="fstt" data-chip="12566">
<line x1="688" y1="209" x2="716" y2="209" stroke="#c0392b" stroke-width="2.0" stroke-dasharray="4,3" />
<circle cx="702" cy="209" r="5" fill="#c0392b"/>
<text x="720" y="213" font-size="10" font-family="Arial,sans-serif" fill="#2c3e50">12566 | fstt</text>
</g>
<g class="legend-item" data-skew="fstt" data-chip="13316">
<line x1="688" y1="231" x2="716" y2="231" stroke="#2980b9" stroke-width="2.0" stroke-dasharray="10,3,3,3" />
<circle cx="702" cy="231" r="5" fill="#2980b9"/>
<text x="720" y="235" font-size="10" font-family="Arial,sans-serif" fill="#2c3e50">13316 | fstt</text>
</g>
<g class="legend-item" data-skew="fstt" data-chip="62919">
<line x1="688" y1="253" x2="716" y2="253" stroke="#27ae60" stroke-width="2.0" />
<circle cx="702" cy="253" r="5" fill="#27ae60"/>
<text x="720" y="257" font-size="10" font-family="Arial,sans-serif" fill="#2c3e50">62919 | fstt</text>
</g>
<g class="legend-item" data-skew="sftt" data-chip="44565">
<line x1="688" y1="275" x2="716" y2="275" stroke="#8e44ad" stroke-width="2.0" stroke-dasharray="8,3" />
<circle cx="702" cy="275" r="5" fill="#8e44ad"/>
<text x="720" y="279" font-size="10" font-family="Arial,sans-serif" fill="#2c3e50">44565 | sftt</text>
</g>
<g class="legend-item" data-skew="sftt" data-chip="69627">
<line x1="688" y1="297" x2="716" y2="297" stroke="#d35400" stroke-width="2.0" stroke-dasharray="4,3" />
<circle cx="702" cy="297" r="5" fill="#d35400"/>
<text x="720" y="301" font-size="10" font-family="Arial,sans-serif" fill="#2c3e50">69627 | sftt</text>
</g>
<g class="legend-item" data-skew="sftt" data-chip="76687">
<line x1="688" y1="319" x2="716" y2="319" stroke="#16a085" stroke-width="2.0" stroke-dasharray="10,3,3,3" />
<circle cx="702" cy="319" r="5" fill="#16a085"/>
<text x="720" y="323" font-size="10" font-family="Arial,sans-serif" fill="#2c3e50">76687 | sftt</text>
</g>
<g class="legend-item" data-skew="ssff" data-chip="56508">
<line x1="688" y1="341" x2="716" y2="341" stroke="#3498db" stroke-width="2.0" />
<circle cx="702" cy="341" r="5" fill="#3498db"/>
<text x="720" y="345" font-size="10" font-family="Arial,sans-serif" fill="#2c3e50">56508 | ssff</text>
</g>
<g class="legend-item" data-skew="ssff" data-chip="57571">
<line x1="688" y1="363" x2="716" y2="363" stroke="#e74c3c" stroke-width="2.0" stroke-dasharray="8,3" />
<circle cx="702" cy="363" r="5" fill="#e74c3c"/>
<text x="720" y="367" font-size="10" font-family="Arial,sans-serif" fill="#2c3e50">57571 | ssff</text>
</g>
<g class="legend-item" data-skew="ssff" data-chip="96040">
<line x1="688" y1="385" x2="716" y2="385" stroke="#2ecc71" stroke-width="2.0" stroke-dasharray="4,3" />
<circle cx="702" cy="385" r="5" fill="#2ecc71"/>
<text x="720" y="389" font-size="10" font-family="Arial,sans-serif" fill="#2c3e50">96040 | ssff</text>
</g>
<g class="legend-item" data-skew="sstt" data-chip="29674">
<line x1="688" y1="407" x2="716" y2="407" stroke="#9b59b6" stroke-width="2.0" stroke-dasharray="10,3,3,3" />
<circle cx="702" cy="407" r="5" fill="#9b59b6"/>
<text x="720" y="411" font-size="10" font-family="Arial,sans-serif" fill="#2c3e50">29674 | sstt</text>
</g>
<g class="legend-item" data-skew="sstt" data-chip="58046">
<line x1="688" y1="429" x2="716" y2="429" stroke="#e67e22" stroke-width="2.0" />
<circle cx="702" cy="429" r="5" fill="#e67e22"/>
<text x="720" y="433" font-size="10" font-family="Arial,sans-serif" fill="#2c3e50">58046 | sstt</text>
</g>
<g class="legend-item" data-skew="sstt" data-chip="9808">
<line x1="688" y1="451" x2="716" y2="451" stroke="#1abc9c" stroke-width="2.0" stroke-dasharray="8,3" />
<circle cx="702" cy="451" r="5" fill="#1abc9c"/>
<text x="720" y="455" font-size="10" font-family="Arial,sans-serif" fill="#2c3e50">9808 | sstt</text>
</g>
</svg>