<svg xmlns="http://www.w3.org/2000/svg" width="1000" height="526" viewBox="0 0 1000 526">
<rect width="1000" height="526" fill="#ffffff"/>
<text x="500.0" y="28.0" font-size="16" font-weight="bold" text-anchor="middle" fill="#2c3e50" font-family="Arial,sans-serif">RF_KILLN — IOH_A (A) [IOH/IOL Max]</text>
<line x1="82.0" y1="456.0" x2="800.0" y2="456.0" stroke="#999" stroke-width="1"/>
<line x1="82.0" y1="72.0" x2="82.0" y2="456.0" stroke="#999" stroke-width="1"/>
<line x1="82.0" y1="72.0" x2="82.0" y2="456.0" stroke="#999" stroke-width="1"/>
<line x1="77.0" y1="456.0" x2="82.0" y2="456.0" stroke="#999" stroke-width="1"/>
<line x1="82.0" y1="456.0" x2="800.0" y2="456.0" stroke="#e0e0e0" stroke-width="0.8" stroke-dasharray="3,3"/>
<text x="74.0" y="460.0" font-size="9" font-weight="normal" text-anchor="end" fill="#7f8c8d" font-family="Arial,sans-serif">-0.0027</text>
<line x1="77.0" y1="379.2" x2="82.0" y2="379.2" stroke="#999" stroke-width="1"/>
<line x1="82.0" y1="379.2" x2="800.0" y2="379.2" stroke="#e0e0e0" stroke-width="0.8" stroke-dasharray="3,3"/>
<text x="74.0" y="383.2" font-size="9" font-weight="normal" text-anchor="end" fill="#7f8c8d" font-family="Arial,sans-serif">0.00288</text>
<line x1="77.0" y1="302.4" x2="82.0" y2="302.4" stroke="#999" stroke-width="1"/>
<line x1="82.0" y1="302.4" x2="800.0" y2="302.4" stroke="#e0e0e0" stroke-width="0.8" stroke-dasharray="3,3"/>
<text x="74.0" y="306.4" font-size="9" font-weight="normal" text-anchor="end" fill="#7f8c8d" font-family="Arial,sans-serif">0.00846</text>
<line x1="77.0" y1="225.6" x2="82.0" y2="225.6" stroke="#999" stroke-width="1"/>
<line x1="82.0" y1="225.6" x2="800.0" y2="225.6" stroke="#e0e0e0" stroke-width="0.8" stroke-dasharray="3,3"/>
<text x="74.0" y="229.6" font-size="9" font-weight="normal" text-anchor="end" fill="#7f8c8d" font-family="Arial,sans-serif">0.014</text>
<line x1="77.0" y1="148.8" x2="82.0" y2="148.8" stroke="#999" stroke-width="1"/>
<line x1="82.0" y1="148.8" x2="800.0" y2="148.8" stroke="#e0e0e0" stroke-width="0.8" stroke-dasharray="3,3"/>
<text x="74.0" y="152.8" font-size="9" font-weight="normal" text-anchor="end" fill="#7f8c8d" font-family="Arial,sans-serif">0.0196</text>
<line x1="77.0" y1="72.0" x2="82.0" y2="72.0" stroke="#999" stroke-width="1"/>
<line x1="82.0" y1="72.0" x2="800.0" y2="72.0" stroke="#e0e0e0" stroke-width="0.8" stroke-dasharray="3,3"/>
<text x="74.0" y="76.0" font-size="9" font-weight="normal" text-anchor="end" fill="#7f8c8d" font-family="Arial,sans-serif">0.0252</text>
<text x="14.0" y="264.0" font-size="10" font-weight="normal" text-anchor="middle" fill="#7f8c8d" font-family="Arial,sans-serif" transform="rotate(-90,14,264.0)">IOH_A (A)</text>
<text x="111.9" y="471.0" font-size="8" font-weight="normal" text-anchor="middle" fill="#7f8c8d" font-family="Arial,sans-serif">DS_0</text>
<text x="171.8" y="471.0" font-size="8" font-weight="normal" text-anchor="middle" fill="#7f8c8d" font-family="Arial,sans-serif">DS_1</text>
<text x="231.6" y="471.0" font-size="8" font-weight="normal" text-anchor="middle" fill="#7f8c8d" font-family="Arial,sans-serif">DS_2</text>
<text x="291.4" y="471.0" font-size="8" font-weight="normal" text-anchor="middle" fill="#7f8c8d" font-family="Arial,sans-serif">DS_3</text>
<text x="351.2" y="471.0" font-size="8" font-weight="normal" text-anchor="middle" fill="#7f8c8d" font-family="Arial,sans-serif">DS_0</text>
<line x1="321.3" y1="72.0" x2="321.3" y2="456.0" stroke="#cccccc" stroke-width="1" stroke-dasharray="4,3"/>
<text x="411.1" y="471.0" font-size="8" font-weight="normal" text-anchor="middle" fill="#7f8c8d" font-family="Arial,sans-serif">DS_1</text>
<text x="470.9" y="471.0" font-size="8" font-weight="normal" text-anchor="middle" fill="#7f8c8d" font-family="Arial,sans-serif">DS_2</text>
<text x="530.8" y="471.0" font-size="8" font-weight="normal" text-anchor="middle" fill="#7f8c8d" font-family="Arial,sans-serif">DS_3</text>
<text x="590.6" y="471.0" font-size="8" font-weight="normal" text-anchor="middle" fill="#7f8c8d" font-family="Arial,sans-serif">DS_0</text>
<line x1="560.7" y1="72.0" x2="560.7" y2="456.0" stroke="#cccccc" stroke-width="1" stroke-dasharray="4,3"/>
<text x="650.4" y="471.0" font-size="8" font-weight="normal" text-anchor="middle" fill="#7f8c8d" font-family="Arial,sans-serif">DS_1</text>
<text x="710.2" y="471.0" font-size="8" font-weight="normal" text-anchor="middle" fill="#7f8c8d" font-family="Arial,sans-serif">DS_2</text>
<text x="770.1" y="471.0" font-size="8" font-weight="normal" text-anchor="middle" fill="#7f8c8d" font-family="Arial,sans-serif">DS_3</text>
<text x="201.7" y="62.0" font-size="10" font-weight="bold" text-anchor="middle" fill="#2c3e50" font-family="Arial,sans-serif">T=0°C</text>
<text x="441.0" y="62.0" font-size="10" font-weight="bold" text-anchor="middle" fill="#2c3e50" font-family="Arial,sans-serif">T=20°C</text>
<text x="680.3" y="62.0" font-size="10" font-weight="bold" text-anchor="middle" fill="#2c3e50" font-family="Arial,sans-serif">T=80°C</text>
<text x="441.0" y="490.0" font-size="11" font-weight="normal" text-anchor="middle" fill="#2c3e50" font-family="Arial,sans-serif">Temperature  /  Drive Strength (DS)</text>
<g class="series" data-viocore="0.64/1.62" data-skew="ffss">
<path d="M111.9,381.7 L171.8,350.0 L231.6,318.4 L291.4,292.2 L351.2,383.1 L411.1,351.4 L470.9,321.1 L530.8,295.0 L590.6,384.4 L650.4,355.5 L710.2,329.4 L770.1,306.0" fill="none" stroke="#3498db" stroke-width="2.2" stroke-linejoin="round" opacity="0.9"/>
<circle cx="111.9" cy="381.7" r="5" fill="#3498db" opacity="0.9"><title>RF_KILLN IOH_A | 0.64/1.62 | ffss | Chip: 43407</title></circle>
<circle cx="171.8" cy="350.0" r="5" fill="#3498db" opacity="0.9"><title>RF_KILLN IOH_A | 0.64/1.62 | ffss | Chip: 43407</title></circle>
<circle cx="231.6" cy="318.4" r="5" fill="#3498db" opacity="0.9"><title>RF_KILLN IOH_A | 0.64/1.62 | ffss | Chip: 43407</title></circle>
<circle cx="291.4" cy="292.2" r="5" fill="#3498db" opacity="0.9"><title>RF_KILLN IOH_A | 0.64/1.62 | ffss | Chip: 43407</title></circle>
<circle cx="351.2" cy="383.1" r="5" fill="#3498db" opacity="0.9"><title>RF_KILLN IOH_A | 0.64/1.62 | ffss | Chip: 43407</title></circle>
<circle cx="411.1" cy="351.4" r="5" fill="#3498db" opacity="0.9"><title>RF_KILLN IOH_A | 0.64/1.62 | ffss | Chip: 43407</title></circle>
<circle cx="470.9" cy="321.1" r="5" fill="#3498db" opacity="0.9"><title>RF_KILLN IOH_A | 0.64/1.62 | ffss | Chip: 43407</title></circle>
<circle cx="530.8" cy="295.0" r="5" fill="#3498db" opacity="0.9"><title>RF_KILLN IOH_A | 0.64/1.62 | ffss | Chip: 43407</title></circle>
<circle cx="590.6" cy="384.4" r="5" fill="#3498db" opacity="0.9"><title>RF_KILLN IOH_A | 0.64/1.62 | ffss | Chip: 43407</title></circle>
<circle cx="650.4" cy="355.5" r="5" fill="#3498db" opacity="0.9"><title>RF_KILLN IOH_A | 0.64/1.62 | ffss | Chip: 43407</title></circle>
<circle cx="710.2" cy="329.4" r="5" fill="#3498db" opacity="0.9"><title>RF_KILLN IOH_A | 0.64/1.62 | ffss | Chip: 43407</title></circle>
<circle cx="770.1" cy="306.0" r="5" fill="#3498db" opacity="0.9"><title>RF_KILLN IOH_A | 0.64/1.62 | ffss | Chip: 43407</title></circle>
</g>
<g class="series" data-viocore="0.64/1.62" data-skew="fftt">
<path d="M111.9,385.8 L171.8,362.4 L231.6,341.8 L291.4,326.6 L351.2,383.1 L411.1,354.2 L470.9,328.0 L530.8,306.0 L590.6,402.3 L650.4,392.7 L710.2,387.2 L770.1,383.1" fill="none" stroke="#e74c3c" stroke-width="2.2" stroke-linejoin="round" stroke-dasharray="8,3" opacity="0.9"/>
<circle cx="111.9" cy="385.8" r="5" fill="#e74c3c" opacity="0.9"><title>RF_KILLN IOH_A | 0.64/1.62 | fftt | Chip: 15382</title></circle>
<circle cx="171.8" cy="362.4" r="5" fill="#e74c3c" opacity="0.9"><title>RF_KILLN IOH_A | 0.64/1.62 | fftt | Chip: 15382</title></circle>
<circle cx="231.6" cy="341.8" r="5" fill="#e74c3c" opacity="0.9"><title>RF_KILLN IOH_A | 0.64/1.62 | fftt | Chip: 15382</title></circle>
<circle cx="291.4" cy="326.6" r="5" fill="#e74c3c" opacity="0.9"><title>RF_KILLN IOH_A | 0.64/1.62 | fftt | Chip: 15382</title></circle>
<circle cx="351.2" cy="383.1" r="5" fill="#e74c3c" opacity="0.9"><title>RF_KILLN IOH_A | 0.64/1.62 | fftt | Chip: 15382</title></circle>
<circle cx="411.1" cy="354.2" r="5" fill="#e74c3c" opacity="0.9"><title>RF_KILLN IOH_A | 0.64/1.62 | fftt | Chip: 15382</title></circle>
<circle cx="470.9" cy="328.0" r="5" fill="#e74c3c" opacity="0.9"><title>RF_KILLN IOH_A | 0.64/1.62 | fftt | Chip: 15382</title></circle>
<circle cx="530.8" cy="306.0" r="5" fill="#e74c3c" opacity="0.9"><title>RF_KILLN IOH_A | 0.64/1.62 | fftt | Chip: 15382</title></circle>
<circle cx="590.6" cy="402.3" r="5" fill="#e74c3c" opacity="0.9"><title>RF_KILLN IOH_A | 0.64/1.62 | fftt | Chip: 13967</title></circle>
<circle cx="650.4" cy="392.7" r="5" fill="#e74c3c" opacity="0.9"><title>RF_KILLN IOH_A | 0.64/1.62 | fftt | Chip: 13967</title></circle>
<circle cx="710.2" cy="387.2" r="5" fill="#e74c3c" opacity="0.9"><title>RF_KILLN IOH_A | 0.64/1.62 | fftt | Chip: 13967</title></circle>
<circle cx="770.1" cy="383.1" r="5" fill="#e74c3c" opacity="0.9"><title>RF_KILLN IOH_A | 0.64/1.62 | fftt | Chip: 13967</title></circle>
</g>
<g class="series" data-viocore="0.64/1.62" data-skew="fstt">
<path d="M111.9,381.7 L171.8,348.6 L231.6,318.4 L291.4,290.8 L351.2,383.1 L411.1,350.0 L470.9,319.7 L530.8,292.2 L590.6,384.4 L650.4,355.5 L710.2,328.0 L770.1,304.6" fill="none" stroke="#2ecc71" stroke-width="2.2" stroke-linejoin="round" stroke-dasharray="4,3" opacity="0.9"/>
<circle cx="111.9" cy="381.7" r="5" fill="#2ecc71" opacity="0.9"><title>RF_KILLN IOH_A | 0.64/1.62 | fstt | Chip: 12566</title></circle>
<circle cx="171.8" cy="348.6" r="5" fill="#2ecc71" opacity="0.9"><title>RF_KILLN IOH_A | 0.64/1.62 | fstt | Chip: 12566</title></circle>
<circle cx="231.6" cy="318.4" r="5" fill="#2ecc71" opacity="0.9"><title>RF_KILLN IOH_A | 0.64/1.62 | fstt | Chip: 62919</title></circle>
<circle cx="291.4" cy="290.8" r="5" fill="#2ecc71" opacity="0.9"><title>RF_KILLN IOH_A | 0.64/1.62 | fstt | Chip: 62919</title></circle>
<circle cx="351.2" cy="383.1" r="5" fill="#2ecc71" opacity="0.9"><title>RF_KILLN IOH_A | 0.64/1.62 | fstt | Chip: 62919</title></circle>
<circle cx="411.1" cy="350.0" r="5" fill="#2ecc71" opacity="0.9"><title>RF_KILLN IOH_A | 0.64/1.62 | fstt | Chip: 12566</title></circle>
<circle cx="470.9" cy="319.7" r="5" fill="#2ecc71" opacity="0.9"><title>RF_KILLN IOH_A | 0.64/1.62 | fstt | Chip: 62919</title></circle>
<circle cx="530.8" cy="292.2" r="5" fill="#2ecc71" opacity="0.9"><title>RF_KILLN IOH_A | 0.64/1.62 | fstt | Chip: 12566</title></circle>
<circle cx="590.6" cy="384.4" r="5" fill="#2ecc71" opacity="0.9"><title>RF_KILLN IOH_A | 0.64/1.62 | fstt | Chip: 12566</title></circle>
<circle cx="650.4" cy="355.5" r="5" fill="#2ecc71" opacity="0.9"><title>RF_KILLN IOH_A | 0.64/1.62 | fstt | Chip: 62919</title></circle>
<circle cx="710.2" cy="328.0" r="5" fill="#2ecc71" opacity="0.9"><title>RF_KILLN IOH_A | 0.64/1.62 | fstt | Chip: 62919</title></circle>
<circle cx="770.1" cy="304.6" r="5" fill="#2ecc71" opacity="0.9"><title>RF_KILLN IOH_A | 0.64/1.62 | fstt | Chip: 62919</title></circle>
</g>
<g class="series" data-viocore="0.64/1.62" data-skew="sftt">
<path d="M111.9,380.3 L171.8,347.3 L231.6,314.2 L291.4,285.3 L351.2,381.7 L411.1,348.6 L470.9,317.0 L530.8,290.8 L590.6,418.8 L650.4,417.5 L710.2,418.8 L770.1,418.8" fill="none" stroke="#9b59b6" stroke-width="2.2" stroke-linejoin="round" stroke-dasharray="10,3,3,3" opacity="0.9"/>
<circle cx="111.9" cy="380.3" r="5" fill="#9b59b6" opacity="0.9"><title>RF_KILLN IOH_A | 0.64/1.62 | sftt | Chip: 44565</title></circle>
<circle cx="171.8" cy="347.3" r="5" fill="#9b59b6" opacity="0.9"><title>RF_KILLN IOH_A | 0.64/1.62 | sftt | Chip: 69627</title></circle>
<circle cx="231.6" cy="314.2" r="5" fill="#9b59b6" opacity="0.9"><title>RF_KILLN IOH_A | 0.64/1.62 | sftt | Chip: 44565</title></circle>
<circle cx="291.4" cy="285.3" r="5" fill="#9b59b6" opacity="0.9"><title>RF_KILLN IOH_A | 0.64/1.62 | sftt | Chip: 44565</title></circle>
<circle cx="351.2" cy="381.7" r="5" fill="#9b59b6" opacity="0.9"><title>RF_KILLN IOH_A | 0.64/1.62 | sftt | Chip: 44565</title></circle>
<circle cx="411.1" cy="348.6" r="5" fill="#9b59b6" opacity="0.9"><title>RF_KILLN IOH_A | 0.64/1.62 | sftt | Chip: 44565</title></circle>
<circle cx="470.9" cy="317.0" r="5" fill="#9b59b6" opacity="0.9"><title>RF_KILLN IOH_A | 0.64/1.62 | sftt | Chip: 44565</title></circle>
<circle cx="530.8" cy="290.8" r="5" fill="#9b59b6" opacity="0.9"><title>RF_KILLN IOH_A | 0.64/1.62 | sftt | Chip: 76687</title></circle>
<circle cx="590.6" cy="418.8" r="5" fill="#9b59b6" opacity="0.9"><title>RF_KILLN IOH_A | 0.64/1.62 | sftt | Chip: 76687</title></circle>
<circle cx="650.4" cy="417.5" r="5" fill="#9b59b6" opacity="0.9"><title>RF_KILLN IOH_A | 0.64/1.62 | sftt | Chip: 76687</title></circle>
<circle cx="710.2" cy="418.8" r="5" fill="#9b59b6" opacity="0.9"><title>RF_KILLN IOH_A | 0.64/1.62 | sftt | Chip: 76687</title></circle>
<circle cx="770.1" cy="418.8" r="5" fill="#9b59b6" opacity="0.9"><title>RF_KILLN IOH_A | 0.64/1.62 | sftt | Chip: 76687</title></circle>
</g>
<g class="series" data-viocore="0.64/1.62" data-skew="ssff">
<path d="M111.9,381.7 L171.8,350.0 L231.6,321.1 L291.4,297.7 L351.2,381.7 L411.1,348.6 L470.9,317.0 L530.8,290.8 L590.6,383.1 L650.4,352.8 L710.2,323.9 L770.1,299.1" fill="none" stroke="#e67e22" stroke-width="2.2" stroke-linejoin="round" opacity="0.9"/>
<circle cx="111.9" cy="381.7" r="5" fill="#e67e22" opacity="0.9"><title>RF_KILLN IOH_A | 0.64/1.62 | ssff | Chip: 57571</title></circle>
<circle cx="171.8" cy="350.0" r="5" fill="#e67e22" opacity="0.9"><title>RF_KILLN IOH_A | 0.64/1.62 | ssff | Chip: 57571</title></circle>
<circle cx="231.6" cy="321.1" r="5" fill="#e67e22" opacity="0.9"><title>RF_KILLN IOH_A | 0.64/1.62 | ssff | Chip: 57571</title></circle>
<circle cx="291.4" cy="297.7" r="5" fill="#e67e22" opacity="0.9"><title>RF_KILLN IOH_A | 0.64/1.62 | ssff | Chip: 57571</title></circle>
<circle cx="351.2" cy="381.7" r="5" fill="#e67e22" opacity="0.9"><title>RF_KILLN IOH_A | 0.64/1.62 | ssff | Chip: 57571</title></circle>
<circle cx="411.1" cy="348.6" r="5" fill="#e67e22" opacity="0.9"><title>RF_KILLN IOH_A | 0.64/1.62 | ssff | Chip: 57571</title></circle>
<circle cx="470.9" cy="317.0" r="5" fill="#e67e22" opacity="0.9"><title>RF_KILLN IOH_A | 0.64/1.62 | ssff | Chip: 57571</title></circle>
<circle cx="530.8" cy="290.8" r="5" fill="#e67e22" opacity="0.9"><title>RF_KILLN IOH_A | 0.64/1.62 | ssff | Chip: 57571</title></circle>
<circle cx="590.6" cy="383.1" r="5" fill="#e67e22" opacity="0.9"><title>RF_KILLN IOH_A | 0.64/1.62 | ssff | Chip: 57571</title></circle>
<circle cx="650.4" cy="352.8" r="5" fill="#e67e22" opacity="0.9"><title>RF_KILLN IOH_A | 0.64/1.62 | ssff | Chip: 96040</title></circle>
<circle cx="710.2" cy="323.9" r="5" fill="#e67e22" opacity="0.9"><title>RF_KILLN IOH_A | 0.64/1.62 | ssff | Chip: 96040</title></circle>
<circle cx="770.1" cy="299.1" r="5" fill="#e67e22" opacity="0.9"><title>RF_KILLN IOH_A | 0.64/1.62 | ssff | Chip: 96040</title></circle>
</g>
<g class="series" data-viocore="0.64/1.62" data-skew="sstt">
<path d="M111.9,380.3 L171.8,347.3 L231.6,315.6 L291.4,288.1 L351.2,381.7 L411.1,350.0 L470.9,318.4 L530.8,290.8 L590.6,383.1 L650.4,354.2 L710.2,325.2 L770.1,301.8" fill="none" stroke="#1abc9c" stroke-width="2.2" stroke-linejoin="round" stroke-dasharray="8,3" opacity="0.9"/>
<circle cx="111.9" cy="380.3" r="5" fill="#1abc9c" opacity="0.9"><title>RF_KILLN IOH_A | 0.64/1.62 | sstt | Chip: 9808</title></circle>
<circle cx="171.8" cy="347.3" r="5" fill="#1abc9c" opacity="0.9"><title>RF_KILLN IOH_A | 0.64/1.62 | sstt | Chip: 9808</title></circle>
<circle cx="231.6" cy="315.6" r="5" fill="#1abc9c" opacity="0.9"><title>RF_KILLN IOH_A | 0.64/1.62 | sstt | Chip: 9808</title></circle>
<circle cx="291.4" cy="288.1" r="5" fill="#1abc9c" opacity="0.9"><title>RF_KILLN IOH_A | 0.64/1.62 | sstt | Chip: 9808</title></circle>
<circle cx="351.2" cy="381.7" r="5" fill="#1abc9c" opacity="0.9"><title>RF_KILLN IOH_A | 0.64/1.62 | sstt | Chip: 9808</title></circle>
<circle cx="411.1" cy="350.0" r="5" fill="#1abc9c" opacity="0.9"><title>RF_KILLN IOH_A | 0.64/1.62 | sstt | Chip: 9808</title></circle>
<circle cx="470.9" cy="318.4" r="5" fill="#1abc9c" opacity="0.9"><title>RF_KILLN IOH_A | 0.64/1.62 | sstt | Chip: 9808</title></circle>
<circle cx="530.8" cy="290.8" r="5" fill="#1abc9c" opacity="0.9"><title>RF_KILLN IOH_A | 0.64/1.62 | sstt | Chip: 9808</title></circle>
<circle cx="590.6" cy="383.1" r="5" fill="#1abc9c" opacity="0.9"><title>RF_KILLN IOH_A | 0.64/1.62 | sstt | Chip: 9808</title></circle>
<circle cx="650.4" cy="354.2" r="5" fill="#1abc9c" opacity="0.9"><title>RF_KILLN IOH_A | 0.64/1.62 | sstt | Chip: 9808</title></circle>
<circle cx="710.2" cy="325.2" r="5" fill="#1abc9c" opacity="0.9"><title>RF_KILLN IOH_A | 0.64/1.62 | sstt | Chip: 9808</title></circle>
<circle cx="770.1" cy="301.8" r="5" fill="#1abc9c" opacity="0.9"><title>RF_KILLN IOH_A | 0.64/1.62 | sstt | Chip: 9808</title></circle>
</g>
<g class="series" data-viocore="0.8/1.8" data-skew="ffss">
<path d="M111.9,358.3 L171.8,304.6 L231.6,253.7 L291.4,208.3 L351.2,359.7 L411.1,307.4 L470.9,256.4 L530.8,213.8 L590.6,362.4 L650.4,312.9 L710.2,268.8 L770.1,230.3" fill="none" stroke="#c0392b" stroke-width="2.2" stroke-linejoin="round" stroke-dasharray="4,3" opacity="0.9"/>
<circle cx="111.9" cy="358.3" r="5" fill="#c0392b" opacity="0.9"><title>RF_KILLN IOH_A | 0.8/1.8 | ffss | Chip: 43407</title></circle>
<circle cx="171.8" cy="304.6" r="5" fill="#c0392b" opacity="0.9"><title>RF_KILLN IOH_A | 0.8/1.8 | ffss | Chip: 43407</title></circle>
<circle cx="231.6" cy="253.7" r="5" fill="#c0392b" opacity="0.9"><title>RF_KILLN IOH_A | 0.8/1.8 | ffss | Chip: 43407</title></circle>
<circle cx="291.4" cy="208.3" r="5" fill="#c0392b" opacity="0.9"><title>RF_KILLN IOH_A | 0.8/1.8 | ffss | Chip: 43407</title></circle>
<circle cx="351.2" cy="359.7" r="5" fill="#c0392b" opacity="0.9"><title>RF_KILLN IOH_A | 0.8/1.8 | ffss | Chip: 43407</title></circle>
<circle cx="411.1" cy="307.4" r="5" fill="#c0392b" opacity="0.9"><title>RF_KILLN IOH_A | 0.8/1.8 | ffss | Chip: 43407</title></circle>
<circle cx="470.9" cy="256.4" r="5" fill="#c0392b" opacity="0.9"><title>RF_KILLN IOH_A | 0.8/1.8 | ffss | Chip: 43407</title></circle>
<circle cx="530.8" cy="213.8" r="5" fill="#c0392b" opacity="0.9"><title>RF_KILLN IOH_A | 0.8/1.8 | ffss | Chip: 43407</title></circle>
<circle cx="590.6" cy="362.4" r="5" fill="#c0392b" opacity="0.9"><title>RF_KILLN IOH_A | 0.8/1.8 | ffss | Chip: 43407</title></circle>
<circle cx="650.4" cy="312.9" r="5" fill="#c0392b" opacity="0.9"><title>RF_KILLN IOH_A | 0.8/1.8 | ffss | Chip: 43407</title></circle>
<circle cx="710.2" cy="268.8" r="5" fill="#c0392b" opacity="0.9"><title>RF_KILLN IOH_A | 0.8/1.8 | ffss | Chip: 43407</title></circle>
<circle cx="770.1" cy="230.3" r="5" fill="#c0392b" opacity="0.9"><title>RF_KILLN IOH_A | 0.8/1.8 | ffss | Chip: 43407</title></circle>
</g>
<g class="series" data-viocore="0.8/1.8" data-skew="fftt">
<path d="M111.9,363.8 L171.8,322.5 L231.6,290.8 L291.4,264.7 L351.2,359.7 L411.1,311.5 L470.9,267.4 L530.8,231.7 L590.6,396.8 L650.4,376.2 L710.2,369.3 L770.1,350.0" fill="none" stroke="#2980b9" stroke-width="2.2" stroke-linejoin="round" stroke-dasharray="10,3,3,3" opacity="0.9"/>
<circle cx="111.9" cy="363.8" r="5" fill="#2980b9" opacity="0.9"><title>RF_KILLN IOH_A | 0.8/1.8 | fftt | Chip: 15382</title></circle>
<circle cx="171.8" cy="322.5" r="5" fill="#2980b9" opacity="0.9"><title>RF_KILLN IOH_A | 0.8/1.8 | fftt | Chip: 15382</title></circle>
<circle cx="231.6" cy="290.8" r="5" fill="#2980b9" opacity="0.9"><title>RF_KILLN IOH_A | 0.8/1.8 | fftt | Chip: 15382</title></circle>
<circle cx="291.4" cy="264.7" r="5" fill="#2980b9" opacity="0.9"><title>RF_KILLN IOH_A | 0.8/1.8 | fftt | Chip: 15382</title></circle>
<circle cx="351.2" cy="359.7" r="5" fill="#2980b9" opacity="0.9"><title>RF_KILLN IOH_A | 0.8/1.8 | fftt | Chip: 15382</title></circle>
<circle cx="411.1" cy="311.5" r="5" fill="#2980b9" opacity="0.9"><title>RF_KILLN IOH_A | 0.8/1.8 | fftt | Chip: 15382</title></circle>
<circle cx="470.9" cy="267.4" r="5" fill="#2980b9" opacity="0.9"><title>RF_KILLN IOH_A | 0.8/1.8 | fftt | Chip: 15382</title></circle>
<circle cx="530.8" cy="231.7" r="5" fill="#2980b9" opacity="0.9"><title>RF_KILLN IOH_A | 0.8/1.8 | fftt | Chip: 15382</title></circle>
<circle cx="590.6" cy="396.8" r="5" fill="#2980b9" opacity="0.9"><title>RF_KILLN IOH_A | 0.8/1.8 | fftt | Chip: 13967</title></circle>
<circle cx="650.4" cy="376.2" r="5" fill="#2980b9" opacity="0.9"><title>RF_KILLN IOH_A | 0.8/1.8 | fftt | Chip: 13967</title></circle>
<circle cx="710.2" cy="369.3" r="5" fill="#2980b9" opacity="0.9"><title>RF_KILLN IOH_A | 0.8/1.8 | fftt | Chip: 13967</title></circle>
<circle cx="770.1" cy="350.0" r="5" fill="#2980b9" opacity="0.9"><title>RF_KILLN IOH_A | 0.8/1.8 | fftt | Chip: 13967</title></circle>
</g>
<g class="series" data-viocore="0.8/1.8" data-skew="fstt">
<path d="M111.9,356.9 L171.8,303.2 L231.6,250.9 L291.4,206.9 L351.2,358.3 L411.1,304.6 L470.9,253.7 L530.8,209.6 L590.6,361.0 L650.4,312.9 L710.2,267.4 L770.1,228.9" fill="none" stroke="#27ae60" stroke-width="2.2" stroke-linejoin="round" opacity="0.9"/>
<circle cx="111.9" cy="356.9" r="5" fill="#27ae60" opacity="0.9"><title>RF_KILLN IOH_A | 0.8/1.8 | fstt | Chip: 12566</title></circle>
<circle cx="171.8" cy="303.2" r="5" fill="#27ae60" opacity="0.9"><title>RF_KILLN IOH_A | 0.8/1.8 | fstt | Chip: 62919</title></circle>
<circle cx="231.6" cy="250.9" r="5" fill="#27ae60" opacity="0.9"><title>RF_KILLN IOH_A | 0.8/1.8 | fstt | Chip: 62919</title></circle>
<circle cx="291.4" cy="206.9" r="5" fill="#27ae60" opacity="0.9"><title>RF_KILLN IOH_A | 0.8/1.8 | fstt | Chip: 62919</title></circle>
<circle cx="351.2" cy="358.3" r="5" fill="#27ae60" opacity="0.9"><title>RF_KILLN IOH_A | 0.8/1.8 | fstt | Chip: 12566</title></circle>
<circle cx="411.1" cy="304.6" r="5" fill="#27ae60" opacity="0.9"><title>RF_KILLN IOH_A | 0.8/1.8 | fstt | Chip: 12566</title></circle>
<circle cx="470.9" cy="253.7" r="5" fill="#27ae60" opacity="0.9"><title>RF_KILLN IOH_A | 0.8/1.8 | fstt | Chip: 62919</title></circle>
<circle cx="530.8" cy="209.6" r="5" fill="#27ae60" opacity="0.9"><title>RF_KILLN IOH_A | 0.8/1.8 | fstt | Chip: 62919</title></circle>
<circle cx="590.6" cy="361.0" r="5" fill="#27ae60" opacity="0.9"><title>RF_KILLN IOH_A | 0.8/1.8 | fstt | Chip: 12566</title></circle>
<circle cx="650.4" cy="312.9" r="5" fill="#27ae60" opacity="0.9"><title>RF_KILLN IOH_A | 0.8/1.8 | fstt | Chip: 62919</title></circle>
<circle cx="710.2" cy="267.4" r="5" fill="#27ae60" opacity="0.9"><title>RF_KILLN IOH_A | 0.8/1.8 | fstt | Chip: 62919</title></circle>
<circle cx="770.1" cy="228.9" r="5" fill="#27ae60" opacity="0.9"><title>RF_KILLN IOH_A | 0.8/1.8 | fstt | Chip: 62919</title></circle>
</g>
<g class="series" data-viocore="0.8/1.8" data-skew="sftt">
<path d="M111.9,355.5 L171.8,299.1 L231.6,245.4 L291.4,198.6 L351.2,356.9 L411.1,303.2 L470.9,250.9 L530.8,206.9 L590.6,418.8 L650.4,418.8 L710.2,417.5 L770.1,417.5" fill="none" stroke="#8e44ad" stroke-width="2.2" stroke-linejoin="round" stroke-dasharray="8,3" opacity="0.9"/>
<circle cx="111.9" cy="355.5" r="5" fill="#8e44ad" opacity="0.9"><title>RF_KILLN IOH_A | 0.8/1.8 | sftt | Chip: 44565</title></circle>
<circle cx="171.8" cy="299.1" r="5" fill="#8e44ad" opacity="0.9"><title>RF_KILLN IOH_A | 0.8/1.8 | sftt | Chip: 44565</title></circle>
<circle cx="231.6" cy="245.4" r="5" fill="#8e44ad" opacity="0.9"><title>RF_KILLN IOH_A | 0.8/1.8 | sftt | Chip: 44565</title></circle>
<circle cx="291.4" cy="198.6" r="5" fill="#8e44ad" opacity="0.9"><title>RF_KILLN IOH_A | 0.8/1.8 | sftt | Chip: 44565</title></circle>
<circle cx="351.2" cy="356.9" r="5" fill="#8e44ad" opacity="0.9"><title>RF_KILLN IOH_A | 0.8/1.8 | sftt | Chip: 44565</title></circle>
<circle cx="411.1" cy="303.2" r="5" fill="#8e44ad" opacity="0.9"><title>RF_KILLN IOH_A | 0.8/1.8 | sftt | Chip: 76687</title></circle>
<circle cx="470.9" cy="250.9" r="5" fill="#8e44ad" opacity="0.9"><title>RF_KILLN IOH_A | 0.8/1.8 | sftt | Chip: 76687</title></circle>
<circle cx="530.8" cy="206.9" r="5" fill="#8e44ad" opacity="0.9"><title>RF_KILLN IOH_A | 0.8/1.8 | sftt | Chip: 76687</title></circle>
<circle cx="590.6" cy="418.8" r="5" fill="#8e44ad" opacity="0.9"><title>RF_KILLN IOH_A | 0.8/1.8 | sftt | Chip: 76687</title></circle>
<circle cx="650.4" cy="418.8" r="5" fill="#8e44ad" opacity="0.9"><title>RF_KILLN IOH_A | 0.8/1.8 | sftt | Chip: 76687</title></circle>
<circle cx="710.2" cy="417.5" r="5" fill="#8e44ad" opacity="0.9"><title>RF_KILLN IOH_A | 0.8/1.8 | sftt | Chip: 76687</title></circle>
<circle cx="770.1" cy="417.5" r="5" fill="#8e44ad" opacity="0.9"><title>RF_KILLN IOH_A | 0.8/1.8 | sftt | Chip: 76687</title></circle>
</g>
<g class="series" data-viocore="0.8/1.8" data-skew="ssff">
<path d="M111.9,356.9 L171.8,304.6 L231.6,256.4 L291.4,216.5 L351.2,356.9 L411.1,301.8 L470.9,250.9 L530.8,205.5 L590.6,359.7 L650.4,307.4 L710.2,260.6 L770.1,219.3" fill="none" stroke="#d35400" stroke-width="2.2" stroke-linejoin="round" stroke-dasharray="4,3" opacity="0.9"/>
<circle cx="111.9" cy="356.9" r="5" fill="#d35400" opacity="0.9"><title>RF_KILLN IOH_A | 0.8/1.8 | ssff | Chip: 57571</title></circle>
<circle cx="171.8" cy="304.6" r="5" fill="#d35400" opacity="0.9"><title>RF_KILLN IOH_A | 0.8/1.8 | ssff | Chip: 57571</title></circle>
<circle cx="231.6" cy="256.4" r="5" fill="#d35400" opacity="0.9"><title>RF_KILLN IOH_A | 0.8/1.8 | ssff | Chip: 57571</title></circle>
<circle cx="291.4" cy="216.5" r="5" fill="#d35400" opacity="0.9"><title>RF_KILLN IOH_A | 0.8/1.8 | ssff | Chip: 57571</title></circle>
<circle cx="351.2" cy="356.9" r="5" fill="#d35400" opacity="0.9"><title>RF_KILLN IOH_A | 0.8/1.8 | ssff | Chip: 57571</title></circle>
<circle cx="411.1" cy="301.8" r="5" fill="#d35400" opacity="0.9"><title>RF_KILLN IOH_A | 0.8/1.8 | ssff | Chip: 57571</title></circle>
<circle cx="470.9" cy="250.9" r="5" fill="#d35400" opacity="0.9"><title>RF_KILLN IOH_A | 0.8/1.8 | ssff | Chip: 57571</title></circle>
<circle cx="530.8" cy="205.5" r="5" fill="#d35400" opacity="0.9"><title>RF_KILLN IOH_A | 0.8/1.8 | ssff | Chip: 57571</title></circle>
<circle cx="590.6" cy="359.7" r="5" fill="#d35400" opacity="0.9"><title>RF_KILLN IOH_A | 0.8/1.8 | ssff | Chip: 96040</title></circle>
<circle cx="650.4" cy="307.4" r="5" fill="#d35400" opacity="0.9"><title>RF_KILLN IOH_A | 0.8/1.8 | ssff | Chip: 57571</title></circle>
<circle cx="710.2" cy="260.6" r="5" fill="#d35400" opacity="0.9"><title>RF_KILLN IOH_A | 0.8/1.8 | ssff | Chip: 96040</title></circle>
<circle cx="770.1" cy="219.3" r="5" fill="#d35400" opacity="0.9"><title>RF_KILLN IOH_A | 0.8/1.8 | ssff | Chip: 96040</title></circle>
</g>
<g class="series" data-viocore="0.8/1.8" data-skew="sstt">
<path d="M111.9,355.5 L171.8,300.5 L231.6,248.2 L291.4,201.4 L351.2,358.3 L411.1,304.6 L470.9,252.3 L530.8,208.3 L590.6,359.7 L650.4,310.1 L710.2,263.3 L770.1,224.8" fill="none" stroke="#16a085" stroke-width="2.2" stroke-linejoin="round" stroke-dasharray="10,3,3,3" opacity="0.9"/>
<circle cx="111.9" cy="355.5" r="5" fill="#16a085" opacity="0.9"><title>RF_KILLN IOH_A | 0.8/1.8 | sstt | Chip: 9808</title></circle>
<circle cx="171.8" cy="300.5" r="5" fill="#16a085" opacity="0.9"><title>RF_KILLN IOH_A | 0.8/1.8 | sstt | Chip: 9808</title></circle>
<circle cx="231.6" cy="248.2" r="5" fill="#16a085" opacity="0.9"><title>RF_KILLN IOH_A | 0.8/1.8 | sstt | Chip: 9808</title></circle>
<circle cx="291.4" cy="201.4" r="5" fill="#16a085" opacity="0.9"><title>RF_KILLN IOH_A | 0.8/1.8 | sstt | Chip: 9808</title></circle>
<circle cx="351.2" cy="358.3" r="5" fill="#16a085" opacity="0.9"><title>RF_KILLN IOH_A | 0.8/1.8 | sstt | Chip: 9808</title></circle>
<circle cx="411.1" cy="304.6" r="5" fill="#16a085" opacity="0.9"><title>RF_KILLN IOH_A | 0.8/1.8 | sstt | Chip: 9808</title></circle>
<circle cx="470.9" cy="252.3" r="5" fill="#16a085" opacity="0.9"><title>RF_KILLN IOH_A | 0.8/1.8 | sstt | Chip: 9808</title></circle>
<circle cx="530.8" cy="208.3" r="5" fill="#16a085" opacity="0.9"><title>RF_KILLN IOH_A | 0.8/1.8 | sstt | Chip: 9808</title></circle>
<circle cx="590.6" cy="359.7" r="5" fill="#16a085" opacity="0.9"><title>RF_KILLN IOH_A | 0.8/1.8 | sstt | Chip: 9808</title></circle>
<circle cx="650.4" cy="310.1" r="5" fill="#16a085" opacity="0.9"><title>RF_KILLN IOH_A | 0.8/1.8 | sstt | Chip: 9808</title></circle>
<circle cx="710.2" cy="263.3" r="5" fill="#16a085" opacity="0.9"><title>RF_KILLN IOH_A | 0.8/1.8 | sstt | Chip: 9808</title></circle>
<circle cx="770.1" cy="224.8" r="5" fill="#16a085" opacity="0.9"><title>RF_KILLN IOH_A | 0.8/1.8 | sstt | Chip: 9808</title></circle>
</g>
<g class="series" data-viocore="0.96/1.98" data-skew="ffss">
<path d="M111.9,333.5 L171.8,256.4 L231.6,184.9 L291.4,122.9 L351.2,334.9 L411.1,261.9 L470.9,190.4 L530.8,129.8 L590.6,339.0 L650.4,270.2 L710.2,206.9 L770.1,153.2" fill="none" stroke="#3498db" stroke-width="2.2" stroke-linejoin="round" opacity="0.9"/>
<circle cx="111.9" cy="333.5" r="5" fill="#3498db" opacity="0.9"><title>RF_KILLN IOH_A | 0.96/1.98 | ffss | Chip: 43407</title></circle>
<circle cx="171.8" cy="256.4" r="5" fill="#3498db" opacity="0.9"><title>RF_KILLN IOH_A | 0.96/1.98 | ffss | Chip: 43407</title></circle>
<circle cx="231.6" cy="184.9" r="5" fill="#3498db" opacity="0.9"><title>RF_KILLN IOH_A | 0.96/1.98 | ffss | Chip: 43407</title></circle>
<circle cx="291.4" cy="122.9" r="5" fill="#3498db" opacity="0.9"><title>RF_KILLN IOH_A | 0.96/1.98 | ffss | Chip: 43407</title></circle>
<circle cx="351.2" cy="334.9" r="5" fill="#3498db" opacity="0.9"><title>RF_KILLN IOH_A | 0.96/1.98 | ffss | Chip: 43407</title></circle>
<circle cx="411.1" cy="261.9" r="5" fill="#3498db" opacity="0.9"><title>RF_KILLN IOH_A | 0.96/1.98 | ffss | Chip: 43407</title></circle>
<circle cx="470.9" cy="190.4" r="5" fill="#3498db" opacity="0.9"><title>RF_KILLN IOH_A | 0.96/1.98 | ffss | Chip: 43407</title></circle>
<circle cx="530.8" cy="129.8" r="5" fill="#3498db" opacity="0.9"><title>RF_KILLN IOH_A | 0.96/1.98 | ffss | Chip: 43407</title></circle>
<circle cx="590.6" cy="339.0" r="5" fill="#3498db" opacity="0.9"><title>RF_KILLN IOH_A | 0.96/1.98 | ffss | Chip: 43407</title></circle>
<circle cx="650.4" cy="270.2" r="5" fill="#3498db" opacity="0.9"><title>RF_KILLN IOH_A | 0.96/1.98 | ffss | Chip: 43407</title></circle>
<circle cx="710.2" cy="206.9" r="5" fill="#3498db" opacity="0.9"><title>RF_KILLN IOH_A | 0.96/1.98 | ffss | Chip: 43407</title></circle>
<circle cx="770.1" cy="153.2" r="5" fill="#3498db" opacity="0.9"><title>RF_KILLN IOH_A | 0.96/1.98 | ffss | Chip: 43407</title></circle>
</g>
<g class="series" data-viocore="0.96/1.98" data-skew="fftt">
<path d="M111.9,340.4 L171.8,284.0 L231.6,235.8 L291.4,200.0 L351.2,336.3 L411.1,267.4 L470.9,206.9 L530.8,157.3 L590.6,369.3 L650.4,339.0 L710.2,296.3 L770.1,289.5" fill="none" stroke="#e74c3c" stroke-width="2.2" stroke-linejoin="round" stroke-dasharray="8,3" opacity="0.9"/>
<circle cx="111.9" cy="340.4" r="5" fill="#e74c3c" opacity="0.9"><title>RF_KILLN IOH_A | 0.96/1.98 | fftt | Chip: 15382</title></circle>
<circle cx="171.8" cy="284.0" r="5" fill="#e74c3c" opacity="0.9"><title>RF_KILLN IOH_A | 0.96/1.98 | fftt | Chip: 15382</title></circle>
<circle cx="231.6" cy="235.8" r="5" fill="#e74c3c" opacity="0.9"><title>RF_KILLN IOH_A | 0.96/1.98 | fftt | Chip: 15382</title></circle>
<circle cx="291.4" cy="200.0" r="5" fill="#e74c3c" opacity="0.9"><title>RF_KILLN IOH_A | 0.96/1.98 | fftt | Chip: 15382</title></circle>
<circle cx="351.2" cy="336.3" r="5" fill="#e74c3c" opacity="0.9"><title>RF_KILLN IOH_A | 0.96/1.98 | fftt | Chip: 15382</title></circle>
<circle cx="411.1" cy="267.4" r="5" fill="#e74c3c" opacity="0.9"><title>RF_KILLN IOH_A | 0.96/1.98 | fftt | Chip: 15382</title></circle>
<circle cx="470.9" cy="206.9" r="5" fill="#e74c3c" opacity="0.9"><title>RF_KILLN IOH_A | 0.96/1.98 | fftt | Chip: 15382</title></circle>
<circle cx="530.8" cy="157.3" r="5" fill="#e74c3c" opacity="0.9"><title>RF_KILLN IOH_A | 0.96/1.98 | fftt | Chip: 15382</title></circle>
<circle cx="590.6" cy="369.3" r="5" fill="#e74c3c" opacity="0.9"><title>RF_KILLN IOH_A | 0.96/1.98 | fftt | Chip: 13967</title></circle>
<circle cx="650.4" cy="339.0" r="5" fill="#e74c3c" opacity="0.9"><title>RF_KILLN IOH_A | 0.96/1.98 | fftt | Chip: 13967</title></circle>
<circle cx="710.2" cy="296.3" r="5" fill="#e74c3c" opacity="0.9"><title>RF_KILLN IOH_A | 0.96/1.98 | fftt | Chip: 13967</title></circle>
<circle cx="770.1" cy="289.5" r="5" fill="#e74c3c" opacity="0.9"><title>RF_KILLN IOH_A | 0.96/1.98 | fftt | Chip: 13967</title></circle>
</g>
<g class="series" data-viocore="0.96/1.98" data-skew="fstt">
<path d="M111.9,332.1 L171.8,255.1 L231.6,182.1 L291.4,120.2 L351.2,333.5 L411.1,257.8 L470.9,186.2 L530.8,122.9 L590.6,337.6 L650.4,268.8 L710.2,204.1 L770.1,150.5" fill="none" stroke="#2ecc71" stroke-width="2.2" stroke-linejoin="round" stroke-dasharray="4,3" opacity="0.9"/>
<circle cx="111.9" cy="332.1" r="5" fill="#2ecc71" opacity="0.9"><title>RF_KILLN IOH_A | 0.96/1.98 | fstt | Chip: 62919</title></circle>
<circle cx="171.8" cy="255.1" r="5" fill="#2ecc71" opacity="0.9"><title>RF_KILLN IOH_A | 0.96/1.98 | fstt | Chip: 62919</title></circle>
<circle cx="231.6" cy="182.1" r="5" fill="#2ecc71" opacity="0.9"><title>RF_KILLN IOH_A | 0.96/1.98 | fstt | Chip: 62919</title></circle>
<circle cx="291.4" cy="120.2" r="5" fill="#2ecc71" opacity="0.9"><title>RF_KILLN IOH_A | 0.96/1.98 | fstt | Chip: 62919</title></circle>
<circle cx="351.2" cy="333.5" r="5" fill="#2ecc71" opacity="0.9"><title>RF_KILLN IOH_A | 0.96/1.98 | fstt | Chip: 12566</title></circle>
<circle cx="411.1" cy="257.8" r="5" fill="#2ecc71" opacity="0.9"><title>RF_KILLN IOH_A | 0.96/1.98 | fstt | Chip: 62919</title></circle>
<circle cx="470.9" cy="186.2" r="5" fill="#2ecc71" opacity="0.9"><title>RF_KILLN IOH_A | 0.96/1.98 | fstt | Chip: 62919</title></circle>
<circle cx="530.8" cy="122.9" r="5" fill="#2ecc71" opacity="0.9"><title>RF_KILLN IOH_A | 0.96/1.98 | fstt | Chip: 62919</title></circle>
<circle cx="590.6" cy="337.6" r="5" fill="#2ecc71" opacity="0.9"><title>RF_KILLN IOH_A | 0.96/1.98 | fstt | Chip: 62919</title></circle>
<circle cx="650.4" cy="268.8" r="5" fill="#2ecc71" opacity="0.9"><title>RF_KILLN IOH_A | 0.96/1.98 | fstt | Chip: 62919</title></circle>
<circle cx="710.2" cy="204.1" r="5" fill="#2ecc71" opacity="0.9"><title>RF_KILLN IOH_A | 0.96/1.98 | fstt | Chip: 62919</title></circle>
<circle cx="770.1" cy="150.5" r="5" fill="#2ecc71" opacity="0.9"><title>RF_KILLN IOH_A | 0.96/1.98 | fstt | Chip: 62919</title></circle>
</g>
<g class="series" data-viocore="0.96/1.98" data-skew="sftt">
<path d="M111.9,329.4 L171.8,249.5 L231.6,175.2 L291.4,109.2 L351.2,332.1 L411.1,255.1 L470.9,183.5 L530.8,121.5 L590.6,417.5 L650.4,417.5 L710.2,418.8 L770.1,417.5" fill="none" stroke="#9b59b6" stroke-width="2.2" stroke-linejoin="round" stroke-dasharray="10,3,3,3" opacity="0.9"/>
<circle cx="111.9" cy="329.4" r="5" fill="#9b59b6" opacity="0.9"><title>RF_KILLN IOH_A | 0.96/1.98 | sftt | Chip: 44565</title></circle>
<circle cx="171.8" cy="249.5" r="5" fill="#9b59b6" opacity="0.9"><title>RF_KILLN IOH_A | 0.96/1.98 | sftt | Chip: 44565</title></circle>
<circle cx="231.6" cy="175.2" r="5" fill="#9b59b6" opacity="0.9"><title>RF_KILLN IOH_A | 0.96/1.98 | sftt | Chip: 76687</title></circle>
<circle cx="291.4" cy="109.2" r="5" fill="#9b59b6" opacity="0.9"><title>RF_KILLN IOH_A | 0.96/1.98 | sftt | Chip: 44565</title></circle>
<circle cx="351.2" cy="332.1" r="5" fill="#9b59b6" opacity="0.9"><title>RF_KILLN IOH_A | 0.96/1.98 | sftt | Chip: 44565</title></circle>
<circle cx="411.1" cy="255.1" r="5" fill="#9b59b6" opacity="0.9"><title>RF_KILLN IOH_A | 0.96/1.98 | sftt | Chip: 44565</title></circle>
<circle cx="470.9" cy="183.5" r="5" fill="#9b59b6" opacity="0.9"><title>RF_KILLN IOH_A | 0.96/1.98 | sftt | Chip: 76687</title></circle>
<circle cx="530.8" cy="121.5" r="5" fill="#9b59b6" opacity="0.9"><title>RF_KILLN IOH_A | 0.96/1.98 | sftt | Chip: 76687</title></circle>
<circle cx="590.6" cy="417.5" r="5" fill="#9b59b6" opacity="0.9"><title>RF_KILLN IOH_A | 0.96/1.98 | sftt | Chip: 76687</title></circle>
<circle cx="650.4" cy="417.5" r="5" fill="#9b59b6" opacity="0.9"><title>RF_KILLN IOH_A | 0.96/1.98 | sftt | Chip: 76687</title></circle>
<circle cx="710.2" cy="418.8" r="5" fill="#9b59b6" opacity="0.9"><title>RF_KILLN IOH_A | 0.96/1.98 | sftt | Chip: 76687</title></circle>
<circle cx="770.1" cy="417.5" r="5" fill="#9b59b6" opacity="0.9"><title>RF_KILLN IOH_A | 0.96/1.98 | sftt | Chip: 76687</title></circle>
</g>
<g class="series" data-viocore="0.96/1.98" data-skew="ssff">
<path d="M111.9,330.8 L171.8,257.8 L231.6,190.4 L291.4,133.9 L351.2,330.8 L411.1,253.7 L470.9,180.7 L530.8,118.8 L590.6,334.9 L650.4,261.9 L710.2,194.5 L770.1,136.7" fill="none" stroke="#e67e22" stroke-width="2.2" stroke-linejoin="round" opacity="0.9"/>
<circle cx="111.9" cy="330.8" r="5" fill="#e67e22" opacity="0.9"><title>RF_KILLN IOH_A | 0.96/1.98 | ssff | Chip: 57571</title></circle>
<circle cx="171.8" cy="257.8" r="5" fill="#e67e22" opacity="0.9"><title>RF_KILLN IOH_A | 0.96/1.98 | ssff | Chip: 57571</title></circle>
<circle cx="231.6" cy="190.4" r="5" fill="#e67e22" opacity="0.9"><title>RF_KILLN IOH_A | 0.96/1.98 | ssff | Chip: 57571</title></circle>
<circle cx="291.4" cy="133.9" r="5" fill="#e67e22" opacity="0.9"><title>RF_KILLN IOH_A | 0.96/1.98 | ssff | Chip: 57571</title></circle>
<circle cx="351.2" cy="330.8" r="5" fill="#e67e22" opacity="0.9"><title>RF_KILLN IOH_A | 0.96/1.98 | ssff | Chip: 57571</title></circle>
<circle cx="411.1" cy="253.7" r="5" fill="#e67e22" opacity="0.9"><title>RF_KILLN IOH_A | 0.96/1.98 | ssff | Chip: 57571</title></circle>
<circle cx="470.9" cy="180.7" r="5" fill="#e67e22" opacity="0.9"><title>RF_KILLN IOH_A | 0.96/1.98 | ssff | Chip: 57571</title></circle>
<circle cx="530.8" cy="118.8" r="5" fill="#e67e22" opacity="0.9"><title>RF_KILLN IOH_A | 0.96/1.98 | ssff | Chip: 57571</title></circle>
<circle cx="590.6" cy="334.9" r="5" fill="#e67e22" opacity="0.9"><title>RF_KILLN IOH_A | 0.96/1.98 | ssff | Chip: 96040</title></circle>
<circle cx="650.4" cy="261.9" r="5" fill="#e67e22" opacity="0.9"><title>RF_KILLN IOH_A | 0.96/1.98 | ssff | Chip: 96040</title></circle>
<circle cx="710.2" cy="194.5" r="5" fill="#e67e22" opacity="0.9"><title>RF_KILLN IOH_A | 0.96/1.98 | ssff | Chip: 96040</title></circle>
<circle cx="770.1" cy="136.7" r="5" fill="#e67e22" opacity="0.9"><title>RF_KILLN IOH_A | 0.96/1.98 | ssff | Chip: 96040</title></circle>
</g>
<g class="series" data-viocore="0.96/1.98" data-skew="sstt">
<path d="M111.9,330.8 L171.8,252.3 L231.6,178.0 L291.4,113.3 L351.2,333.5 L411.1,256.4 L470.9,183.5 L530.8,121.5 L590.6,336.3 L650.4,266.1 L710.2,200.0 L770.1,144.9" fill="none" stroke="#1abc9c" stroke-width="2.2" stroke-linejoin="round" stroke-dasharray="8,3" opacity="0.9"/>
<circle cx="111.9" cy="330.8" r="5" fill="#1abc9c" opacity="0.9"><title>RF_KILLN IOH_A | 0.96/1.98 | sstt | Chip: 9808</title></circle>
<circle cx="171.8" cy="252.3" r="5" fill="#1abc9c" opacity="0.9"><title>RF_KILLN IOH_A | 0.96/1.98 | sstt | Chip: 9808</title></circle>
<circle cx="231.6" cy="178.0" r="5" fill="#1abc9c" opacity="0.9"><title>RF_KILLN IOH_A | 0.96/1.98 | sstt | Chip: 9808</title></circle>
<circle cx="291.4" cy="113.3" r="5" fill="#1abc9c" opacity="0.9"><title>RF_KILLN IOH_A | 0.96/1.98 | sstt | Chip: 9808</title></circle>
<circle cx="351.2" cy="333.5" r="5" fill="#1abc9c" opacity="0.9"><title>RF_KILLN IOH_A | 0.96/1.98 | sstt | Chip: 9808</title></circle>
<circle cx="411.1" cy="256.4" r="5" fill="#1abc9c" opacity="0.9"><title>RF_KILLN IOH_A | 0.96/1.98 | sstt | Chip: 9808</title></circle>
<circle cx="470.9" cy="183.5" r="5" fill="#1abc9c" opacity="0.9"><title>RF_KILLN IOH_A | 0.96/1.98 | sstt | Chip: 9808</title></circle>
<circle cx="530.8" cy="121.5" r="5" fill="#1abc9c" opacity="0.9"><title>RF_KILLN IOH_A | 0.96/1.98 | sstt | Chip: 9808</title></circle>
<circle cx="590.6" cy="336.3" r="5" fill="#1abc9c" opacity="0.9"><title>RF_KILLN IOH_A | 0.96/1.98 | sstt | Chip: 9808</title></circle>
<circle cx="650.4" cy="266.1" r="5" fill="#1abc9c" opacity="0.9"><title>RF_KILLN IOH_A | 0.96/1.98 | sstt | Chip: 9808</title></circle>
<circle cx="710.2" cy="200.0" r="5" fill="#1abc9c" opacity="0.9"><title>RF_KILLN IOH_A | 0.96/1.98 | sstt | Chip: 9808</title></circle>
<circle cx="770.1" cy="144.9" r="5" fill="#1abc9c" opacity="0.9"><title>RF_KILLN IOH_A | 0.96/1.98 | sstt | Chip: 9808</title></circle>
</g>
<g class="legend-item" data-viocore="0.64/1.62" data-skew="ffss">
<line x1="808" y1="77" x2="836" y2="77" stroke="#3498db" stroke-width="2.2" />
<circle cx="822" cy="77" r="4" fill="#3498db"/>
<text x="840" y="81" font-size="10" font-family="Arial,sans-serif" fill="#2c3e50">0.64/1.62 — ffss (43407)</text>
</g>
<g class="legend-item" data-viocore="0.64/1.62" data-skew="fftt">
<line x1="808" y1="99" x2="836" y2="99" stroke="#e74c3c" stroke-width="2.2" stroke-dasharray="8,3" />
<circle cx="822" cy="99" r="4" fill="#e74c3c"/>
<text x="840" y="103" font-size="10" font-family="Arial,sans-serif" fill="#2c3e50">0.64/1.62 — fftt (13967)</text>
</g>
<g class="legend-item" data-viocore="0.64/1.62" data-skew="fstt">
<line x1="808" y1="121" x2="836" y2="121" stroke="#2ecc71" stroke-width="2.2" stroke-dasharray="4,3" />
<circle cx="822" cy="121" r="4" fill="#2ecc71"/>
<text x="840" y="125" font-size="10" font-family="Arial,sans-serif" fill="#2c3e50">0.64/1.62 — fstt (12566)</text>
</g>
<g class="legend-item" data-viocore="0.64/1.62" data-skew="sftt">
<line x1="808" y1="143" x2="836" y2="143" stroke="#9b59b6" stroke-width="2.2" stroke-dasharray="10,3,3,3" />
<circle cx="822" cy="143" r="4" fill="#9b59b6"/>
<text x="840" y="147" font-size="10" font-family="Arial,sans-serif" fill="#2c3e50">0.64/1.62 — sftt (76687)</text>
</g>
<g class="legend-item" data-viocore="0.64/1.62" data-skew="ssff">
<line x1="808" y1="165" x2="836" y2="165" stroke="#e67e22" stroke-width="2.2" />
<circle cx="822" cy="165" r="4" fill="#e67e22"/>
<text x="840" y="169" font-size="10" font-family="Arial,sans-serif" fill="#2c3e50">0.64/1.62 — ssff (57571)</text>
</g>
<g class="legend-item" data-viocore="0.64/1.62" data-skew="sstt">
<line x1="808" y1="187" x2="836" y2="187" stroke="#1abc9c" stroke-width="2.2" stroke-dasharray="8,3" />
<circle cx="822" cy="187" r="4" fill="#1abc9c"/>
<text x="840" y="191" font-size="10" font-family="Arial,sans-serif" fill="#2c3e50">0.64/1.62 — sstt (9808)</text>
</g>
<g class="legend-item" data-viocore="0.8/1.8" data-skew="ffss">
<line x1="808" y1="209" x2="836" y2="209" stroke="#c0392b" stroke-width="2.2" stroke-dasharray="4,3" />
<circle cx="822" cy="209" r="4" fill="#c0392b"/>
<text x="840" y="213" font-size="10" font-family="Arial,sans-serif" fill="#2c3e50">0.8/1.8 — ffss (43407)</text>
</g>
<g class="legend-item" data-viocore="0.8/1.8" data-skew="fftt">
<line x1="808" y1="231" x2="836" y2="231" stroke="#2980b9" stroke-width="2.2" stroke-dasharray="10,3,3,3" />
<circle cx="822" cy="231" r="4" fill="#2980b9"/>
<text x="840" y="235" font-size="10" font-family="Arial,sans-serif" fill="#2c3e50">0.8/1.8 — fftt (13967)</text>
</g>
<g class="legend-item" data-viocore="0.8/1.8" data-skew="fstt">
<line x1="808" y1="253" x2="836" y2="253" stroke="#27ae60" stroke-width="2.2" />
<circle cx="822" cy="253" r="4" fill="#27ae60"/>
<text x="840" y="257" font-size="10" font-family="Arial,sans-serif" fill="#2c3e50">0.8/1.8 — fstt (12566)</text>
</g>
<g class="legend-item" data-viocore="0.8/1.8" data-skew="sftt">
<line x1="808" y1="275" x2="836" y2="275" stroke="#8e44ad" stroke-width="2.2" stroke-dasharray="8,3" />
<circle cx="822" cy="275" r="4" fill="#8e44ad"/>
<text x="840" y="279" font-size="10" font-family="Arial,sans-serif" fill="#2c3e50">0.8/1.8 — sftt (76687)</text>
</g>
<g class="legend-item" data-viocore="0.8/1.8" data-skew="ssff">
<line x1="808" y1="297" x2="836" y2="297" stroke="#d35400" stroke-width="2.2" stroke-dasharray="4,3" />
<circle cx="822" cy="297" r="4" fill="#d35400"/>
<text x="840" y="301" font-size="10" font-family="Arial,sans-serif" fill="#2c3e50">0.8/1.8 — ssff (96040)</text>
</g>
<g class="legend-item" data-viocore="0.8/1.8" data-skew="sstt">
<line x1="808" y1="319" x2="836" y2="319" stroke="#16a085" stroke-width="2.2" stroke-dasharray="10,3,3,3" />
<circle cx="822" cy="319" r="4" fill="#16a085"/>
<text x="840" y="323" font-size="10" font-family="Arial,sans-serif" fill="#2c3e50">0.8/1.8 — sstt (9808)</text>
</g>
<g class="legend-item" data-viocore="0.96/1.98" data-skew="ffss">
<line x1="808" y1="341" x2="836" y2="341" stroke="#3498db" stroke-width="2.2" />
<circle cx="822" cy="341" r="4" fill="#3498db"/>
<text x="840" y="345" font-size="10" font-family="Arial,sans-serif" fill="#2c3e50">0.96/1.98 — ffss (43407)</text>
</g>
<g class="legend-item" data-viocore="0.96/1.98" data-skew="fftt">
<line x1="808" y1="363" x2="836" y2="363" stroke="#e74c3c" stroke-width="2.2" stroke-dasharray="8,3" />
<circle cx="822" cy="363" r="4" fill="#e74c3c"/>
<text x="840" y="367" font-size="10" font-family="Arial,sans-serif" fill="#2c3e50">0.96/1.98 — fftt (13967)</text>
</g>
<g class="legend-item" data-viocore="0.96/1.98" data-skew="fstt">
<line x1="808" y1="385" x2="836" y2="385" stroke="#2ecc71" stroke-width="2.2" stroke-dasharray="4,3" />
<circle cx="822" cy="385" r="4" fill="#2ecc71"/>
<text x="840" y="389" font-size="10" font-family="Arial,sans-serif" fill="#2c3e50">0.96/1.98 — fstt (62919)</text>
</g>
<g class="legend-item" data-viocore="0.96/1.98" data-skew="sftt">
<line x1="808" y1="407" x2="836" y2="407" stroke="#9b59b6" stroke-width="2.2" stroke-dasharray="10,3,3,3" />
<circle cx="822" cy="407" r="4" fill="#9b59b6"/>
<text x="840" y="411" font-size="10" font-family="Arial,sans-serif" fill="#2c3e50">0.96/1.98 — sftt (76687)</text>
</g>
<g class="legend-item" data-viocore="0.96/1.98" data-skew="ssff">
<line x1="808" y1="429" x2="836" y2="429" stroke="#e67e22" stroke-width="2.2" />
<circle cx="822" cy="429" r="4" fill="#e67e22"/>
<text x="840" y="433" font-size="10" font-family="Arial,sans-serif" fill="#2c3e50">0.96/1.98 — ssff (96040)</text>
</g>
<g class="legend-item" data-viocore="0.96/1.98" data-skew="sstt">
<line x1="808" y1="451" x2="836" y2="451" stroke="#1abc9c" stroke-width="2.2" stroke-dasharray="8,3" />
<circle cx="822" cy="451" r="4" fill="#1abc9c"/>
<text x="840" y="455" font-size="10" font-family="Arial,sans-serif" fill="#2c3e50">0.96/1.98 — sstt (9808)</text>
</g>
</svg>