<svg xmlns="http://www.w3.org/2000/svg" width="860" height="526" viewBox="0 0 860 526">
<rect width="860" height="526" fill="#ffffff"/>
<text x="430.0" y="28.0" font-size="16" font-weight="bold" text-anchor="middle" fill="#2c3e50" font-family="Arial,sans-serif">RF_KILLN  [PB12DSFS_18_T33_H] — VOL (V)  DS=DS_2  [VOH/VOL]</text>
<line x1="82.0" y1="426.0" x2="680.0" y2="426.0" stroke="#999" stroke-width="1"/>
<line x1="82.0" y1="72.0" x2="82.0" y2="426.0" stroke="#999" stroke-width="1"/>
<line x1="82.0" y1="72.0" x2="82.0" y2="426.0" stroke="#999" stroke-width="1"/>
<line x1="77.0" y1="426.0" x2="82.0" y2="426.0" stroke="#999" stroke-width="1"/>
<line x1="82.0" y1="426.0" x2="680.0" y2="426.0" stroke="#e0e0e0" stroke-width="0.8" stroke-dasharray="3,3"/>
<text x="74.0" y="430.0" font-size="9" font-weight="normal" text-anchor="end" fill="#7f8c8d" font-family="Arial,sans-serif">0.292</text>
<line x1="77.0" y1="355.2" x2="82.0" y2="355.2" stroke="#999" stroke-width="1"/>
<line x1="82.0" y1="355.2" x2="680.0" y2="355.2" stroke="#e0e0e0" stroke-width="0.8" stroke-dasharray="3,3"/>
<text x="74.0" y="359.2" font-size="9" font-weight="normal" text-anchor="end" fill="#7f8c8d" font-family="Arial,sans-serif">0.318</text>
<line x1="77.0" y1="284.4" x2="82.0" y2="284.4" stroke="#999" stroke-width="1"/>
<line x1="82.0" y1="284.4" x2="680.0" y2="284.4" stroke="#e0e0e0" stroke-width="0.8" stroke-dasharray="3,3"/>
<text x="74.0" y="288.4" font-size="9" font-weight="normal" text-anchor="end" fill="#7f8c8d" font-family="Arial,sans-serif">0.344</text>
<line x1="77.0" y1="213.6" x2="82.0" y2="213.6" stroke="#999" stroke-width="1"/>
<line x1="82.0" y1="213.6" x2="680.0" y2="213.6" stroke="#e0e0e0" stroke-width="0.8" stroke-dasharray="3,3"/>
<text x="74.0" y="217.6" font-size="9" font-weight="normal" text-anchor="end" fill="#7f8c8d" font-family="Arial,sans-serif">0.37</text>
<line x1="77.0" y1="142.8" x2="82.0" y2="142.8" stroke="#999" stroke-width="1"/>
<line x1="82.0" y1="142.8" x2="680.0" y2="142.8" stroke="#e0e0e0" stroke-width="0.8" stroke-dasharray="3,3"/>
<text x="74.0" y="146.8" font-size="9" font-weight="normal" text-anchor="end" fill="#7f8c8d" font-family="Arial,sans-serif">0.396</text>
<line x1="77.0" y1="72.0" x2="82.0" y2="72.0" stroke="#999" stroke-width="1"/>
<line x1="82.0" y1="72.0" x2="680.0" y2="72.0" stroke="#e0e0e0" stroke-width="0.8" stroke-dasharray="3,3"/>
<text x="74.0" y="76.0" font-size="9" font-weight="normal" text-anchor="end" fill="#7f8c8d" font-family="Arial,sans-serif">0.422</text>
<text x="14.0" y="249.0" font-size="10" font-weight="normal" text-anchor="middle" fill="#7f8c8d" font-family="Arial,sans-serif" transform="rotate(-90,14,249.0)">VOL (V)</text>
<text x="115.2" y="440.0" font-size="8" font-weight="normal" text-anchor="end" fill="#333" font-family="Arial,sans-serif" transform="rotate(-45,115.2,440)">VIO=1.62
VC=0.64</text>
<text x="181.7" y="440.0" font-size="8" font-weight="normal" text-anchor="end" fill="#333" font-family="Arial,sans-serif" transform="rotate(-45,181.7,440)">VIO=1.8
VC=0.8</text>
<text x="248.1" y="440.0" font-size="8" font-weight="normal" text-anchor="end" fill="#333" font-family="Arial,sans-serif" transform="rotate(-45,248.1,440)">VIO=1.98
VC=0.96</text>
<line x1="281.3" y1="72.0" x2="281.3" y2="426.0" stroke="#cccccc" stroke-width="1" stroke-dasharray="4,3"/>
<text x="314.6" y="440.0" font-size="8" font-weight="normal" text-anchor="end" fill="#333" font-family="Arial,sans-serif" transform="rotate(-45,314.6,440)">VIO=1.62
VC=0.64</text>
<text x="381.0" y="440.0" font-size="8" font-weight="normal" text-anchor="end" fill="#333" font-family="Arial,sans-serif" transform="rotate(-45,381.0,440)">VIO=1.8
VC=0.8</text>
<text x="447.4" y="440.0" font-size="8" font-weight="normal" text-anchor="end" fill="#333" font-family="Arial,sans-serif" transform="rotate(-45,447.4,440)">VIO=1.98
VC=0.96</text>
<line x1="480.7" y1="72.0" x2="480.7" y2="426.0" stroke="#cccccc" stroke-width="1" stroke-dasharray="4,3"/>
<text x="513.9" y="440.0" font-size="8" font-weight="normal" text-anchor="end" fill="#333" font-family="Arial,sans-serif" transform="rotate(-45,513.9,440)">VIO=1.62
VC=0.64</text>
<text x="580.3" y="440.0" font-size="8" font-weight="normal" text-anchor="end" fill="#333" font-family="Arial,sans-serif" transform="rotate(-45,580.3,440)">VIO=1.8
VC=0.8</text>
<text x="646.8" y="440.0" font-size="8" font-weight="normal" text-anchor="end" fill="#333" font-family="Arial,sans-serif" transform="rotate(-45,646.8,440)">VIO=1.98
VC=0.96</text>
<text x="181.7" y="62.0" font-size="10" font-weight="bold" text-anchor="middle" fill="#2c3e50" font-family="Arial,sans-serif">T=0°C</text>
<text x="381.0" y="62.0" font-size="10" font-weight="bold" text-anchor="middle" fill="#2c3e50" font-family="Arial,sans-serif">T=20°C</text>
<text x="580.3" y="62.0" font-size="10" font-weight="bold" text-anchor="middle" fill="#2c3e50" font-family="Arial,sans-serif">T=80°C</text>
<g class="series" data-skew="ffss" data-chip="25679">
<path d="M115.2,303.4 L181.7,317.4 L248.1,333.6 L314.6,281.5 L381.0,296.6 L447.4,313.0 L513.9,240.6 L580.3,259.6 L646.8,276.3" fill="none" stroke="#3498db" stroke-width="2.0" stroke-linejoin="round" opacity="0.85"/>
<circle cx="115.2" cy="303.4" r="5" fill="#3498db" opacity="0.9"><title>RF_KILLN VOL | ffss | Chip: 25679</title></circle>
<circle cx="181.7" cy="317.4" r="5" fill="#3498db" opacity="0.9"><title>RF_KILLN VOL | ffss | Chip: 25679</title></circle>
<circle cx="248.1" cy="333.6" r="5" fill="#3498db" opacity="0.9"><title>RF_KILLN VOL | ffss | Chip: 25679</title></circle>
<circle cx="314.6" cy="281.5" r="5" fill="#3498db" opacity="0.9"><title>RF_KILLN VOL | ffss | Chip: 25679</title></circle>
<circle cx="381.0" cy="296.6" r="5" fill="#3498db" opacity="0.9"><title>RF_KILLN VOL | ffss | Chip: 25679</title></circle>
<circle cx="447.4" cy="313.0" r="5" fill="#3498db" opacity="0.9"><title>RF_KILLN VOL | ffss | Chip: 25679</title></circle>
<circle cx="513.9" cy="240.6" r="5" fill="#3498db" opacity="0.9"><title>RF_KILLN VOL | ffss | Chip: 25679</title></circle>
<circle cx="580.3" cy="259.6" r="5" fill="#3498db" opacity="0.9"><title>RF_KILLN VOL | ffss | Chip: 25679</title></circle>
<circle cx="646.8" cy="276.3" r="5" fill="#3498db" opacity="0.9"><title>RF_KILLN VOL | ffss | Chip: 25679</title></circle>
</g>
<g class="series" data-skew="ffss" data-chip="43407">
<path d="M115.2,260.6 L181.7,280.1 L248.1,300.7 L314.6,237.6 L381.0,257.9 L447.4,279.3 L513.9,200.3 L580.3,225.0 L646.8,245.3" fill="none" stroke="#e74c3c" stroke-width="2.0" stroke-linejoin="round" stroke-dasharray="8,3" opacity="0.85"/>
<circle cx="115.2" cy="260.6" r="5" fill="#e74c3c" opacity="0.9"><title>RF_KILLN VOL | ffss | Chip: 43407</title></circle>
<circle cx="181.7" cy="280.1" r="5" fill="#e74c3c" opacity="0.9"><title>RF_KILLN VOL | ffss | Chip: 43407</title></circle>
<circle cx="248.1" cy="300.7" r="5" fill="#e74c3c" opacity="0.9"><title>RF_KILLN VOL | ffss | Chip: 43407</title></circle>
<circle cx="314.6" cy="237.6" r="5" fill="#e74c3c" opacity="0.9"><title>RF_KILLN VOL | ffss | Chip: 43407</title></circle>
<circle cx="381.0" cy="257.9" r="5" fill="#e74c3c" opacity="0.9"><title>RF_KILLN VOL | ffss | Chip: 43407</title></circle>
<circle cx="447.4" cy="279.3" r="5" fill="#e74c3c" opacity="0.9"><title>RF_KILLN VOL | ffss | Chip: 43407</title></circle>
<circle cx="513.9" cy="200.3" r="5" fill="#e74c3c" opacity="0.9"><title>RF_KILLN VOL | ffss | Chip: 43407</title></circle>
<circle cx="580.3" cy="225.0" r="5" fill="#e74c3c" opacity="0.9"><title>RF_KILLN VOL | ffss | Chip: 43407</title></circle>
<circle cx="646.8" cy="245.3" r="5" fill="#e74c3c" opacity="0.9"><title>RF_KILLN VOL | ffss | Chip: 43407</title></circle>
</g>
<g class="series" data-skew="ffss" data-chip="79093">
<path d="M115.2,306.4 L181.7,320.7 L248.1,337.4 L314.6,283.7 L381.0,297.7 L447.4,316.0 L513.9,242.6 L580.3,261.7 L646.8,278.7" fill="none" stroke="#2ecc71" stroke-width="2.0" stroke-linejoin="round" stroke-dasharray="4,3" opacity="0.85"/>
<circle cx="115.2" cy="306.4" r="5" fill="#2ecc71" opacity="0.9"><title>RF_KILLN VOL | ffss | Chip: 79093</title></circle>
<circle cx="181.7" cy="320.7" r="5" fill="#2ecc71" opacity="0.9"><title>RF_KILLN VOL | ffss | Chip: 79093</title></circle>
<circle cx="248.1" cy="337.4" r="5" fill="#2ecc71" opacity="0.9"><title>RF_KILLN VOL | ffss | Chip: 79093</title></circle>
<circle cx="314.6" cy="283.7" r="5" fill="#2ecc71" opacity="0.9"><title>RF_KILLN VOL | ffss | Chip: 79093</title></circle>
<circle cx="381.0" cy="297.7" r="5" fill="#2ecc71" opacity="0.9"><title>RF_KILLN VOL | ffss | Chip: 79093</title></circle>
<circle cx="447.4" cy="316.0" r="5" fill="#2ecc71" opacity="0.9"><title>RF_KILLN VOL | ffss | Chip: 79093</title></circle>
<circle cx="513.9" cy="242.6" r="5" fill="#2ecc71" opacity="0.9"><title>RF_KILLN VOL | ffss | Chip: 79093</title></circle>
<circle cx="580.3" cy="261.7" r="5" fill="#2ecc71" opacity="0.9"><title>RF_KILLN VOL | ffss | Chip: 79093</title></circle>
<circle cx="646.8" cy="278.7" r="5" fill="#2ecc71" opacity="0.9"><title>RF_KILLN VOL | ffss | Chip: 79093</title></circle>
</g>
<g class="series" data-skew="fftt" data-chip="13967">
<path d="M115.2,327.8 L181.7,341.5 L248.1,358.8 L314.6,305.9 L381.0,320.4 L447.4,339.0 L513.9,259.3 L580.3,280.1 L646.8,298.7" fill="none" stroke="#9b59b6" stroke-width="2.0" stroke-linejoin="round" stroke-dasharray="10,3,3,3" opacity="0.85"/>
<circle cx="115.2" cy="327.8" r="5" fill="#9b59b6" opacity="0.9"><title>RF_KILLN VOL | fftt | Chip: 13967</title></circle>
<circle cx="181.7" cy="341.5" r="5" fill="#9b59b6" opacity="0.9"><title>RF_KILLN VOL | fftt | Chip: 13967</title></circle>
<circle cx="248.1" cy="358.8" r="5" fill="#9b59b6" opacity="0.9"><title>RF_KILLN VOL | fftt | Chip: 13967</title></circle>
<circle cx="314.6" cy="305.9" r="5" fill="#9b59b6" opacity="0.9"><title>RF_KILLN VOL | fftt | Chip: 13967</title></circle>
<circle cx="381.0" cy="320.4" r="5" fill="#9b59b6" opacity="0.9"><title>RF_KILLN VOL | fftt | Chip: 13967</title></circle>
<circle cx="447.4" cy="339.0" r="5" fill="#9b59b6" opacity="0.9"><title>RF_KILLN VOL | fftt | Chip: 13967</title></circle>
<circle cx="513.9" cy="259.3" r="5" fill="#9b59b6" opacity="0.9"><title>RF_KILLN VOL | fftt | Chip: 13967</title></circle>
<circle cx="580.3" cy="280.1" r="5" fill="#9b59b6" opacity="0.9"><title>RF_KILLN VOL | fftt | Chip: 13967</title></circle>
<circle cx="646.8" cy="298.7" r="5" fill="#9b59b6" opacity="0.9"><title>RF_KILLN VOL | fftt | Chip: 13967</title></circle>
</g>
<g class="series" data-skew="fftt" data-chip="15382">
<path d="M115.2,334.4 L181.7,349.2 L248.1,367.0 L314.6,315.2 L381.0,329.2 L447.4,348.9 L513.9,272.4 L580.3,293.0 L646.8,310.5" fill="none" stroke="#e67e22" stroke-width="2.0" stroke-linejoin="round" opacity="0.85"/>
<circle cx="115.2" cy="334.4" r="5" fill="#e67e22" opacity="0.9"><title>RF_KILLN VOL | fftt | Chip: 15382</title></circle>
<circle cx="181.7" cy="349.2" r="5" fill="#e67e22" opacity="0.9"><title>RF_KILLN VOL | fftt | Chip: 15382</title></circle>
<circle cx="248.1" cy="367.0" r="5" fill="#e67e22" opacity="0.9"><title>RF_KILLN VOL | fftt | Chip: 15382</title></circle>
<circle cx="314.6" cy="315.2" r="5" fill="#e67e22" opacity="0.9"><title>RF_KILLN VOL | fftt | Chip: 15382</title></circle>
<circle cx="381.0" cy="329.2" r="5" fill="#e67e22" opacity="0.9"><title>RF_KILLN VOL | fftt | Chip: 15382</title></circle>
<circle cx="447.4" cy="348.9" r="5" fill="#e67e22" opacity="0.9"><title>RF_KILLN VOL | fftt | Chip: 15382</title></circle>
<circle cx="513.9" cy="272.4" r="5" fill="#e67e22" opacity="0.9"><title>RF_KILLN VOL | fftt | Chip: 15382</title></circle>
<circle cx="580.3" cy="293.0" r="5" fill="#e67e22" opacity="0.9"><title>RF_KILLN VOL | fftt | Chip: 15382</title></circle>
<circle cx="646.8" cy="310.5" r="5" fill="#e67e22" opacity="0.9"><title>RF_KILLN VOL | fftt | Chip: 15382</title></circle>
</g>
<g class="series" data-skew="fftt" data-chip="78814">
<path d="M115.2,322.9 L181.7,337.9 L248.1,353.8 L314.6,302.6 L381.0,318.5 L447.4,334.7 L513.9,258.5 L580.3,278.2 L646.8,295.7" fill="none" stroke="#1abc9c" stroke-width="2.0" stroke-linejoin="round" stroke-dasharray="8,3" opacity="0.85"/>
<circle cx="115.2" cy="322.9" r="5" fill="#1abc9c" opacity="0.9"><title>RF_KILLN VOL | fftt | Chip: 78814</title></circle>
<circle cx="181.7" cy="337.9" r="5" fill="#1abc9c" opacity="0.9"><title>RF_KILLN VOL | fftt | Chip: 78814</title></circle>
<circle cx="248.1" cy="353.8" r="5" fill="#1abc9c" opacity="0.9"><title>RF_KILLN VOL | fftt | Chip: 78814</title></circle>
<circle cx="314.6" cy="302.6" r="5" fill="#1abc9c" opacity="0.9"><title>RF_KILLN VOL | fftt | Chip: 78814</title></circle>
<circle cx="381.0" cy="318.5" r="5" fill="#1abc9c" opacity="0.9"><title>RF_KILLN VOL | fftt | Chip: 78814</title></circle>
<circle cx="447.4" cy="334.7" r="5" fill="#1abc9c" opacity="0.9"><title>RF_KILLN VOL | fftt | Chip: 78814</title></circle>
<circle cx="513.9" cy="258.5" r="5" fill="#1abc9c" opacity="0.9"><title>RF_KILLN VOL | fftt | Chip: 78814</title></circle>
<circle cx="580.3" cy="278.2" r="5" fill="#1abc9c" opacity="0.9"><title>RF_KILLN VOL | fftt | Chip: 78814</title></circle>
<circle cx="646.8" cy="295.7" r="5" fill="#1abc9c" opacity="0.9"><title>RF_KILLN VOL | fftt | Chip: 78814</title></circle>
</g>
<g class="series" data-skew="fstt" data-chip="12566">
<path d="M115.2,319.3 L181.7,333.6 L248.1,348.4 L314.6,300.4 L381.0,315.5 L447.4,331.4 L513.9,254.3 L580.3,272.7 L646.8,289.7" fill="none" stroke="#c0392b" stroke-width="2.0" stroke-linejoin="round" stroke-dasharray="4,3" opacity="0.85"/>
<circle cx="115.2" cy="319.3" r="5" fill="#c0392b" opacity="0.9"><title>RF_KILLN VOL | fstt | Chip: 12566</title></circle>
<circle cx="181.7" cy="333.6" r="5" fill="#c0392b" opacity="0.9"><title>RF_KILLN VOL | fstt | Chip: 12566</title></circle>
<circle cx="248.1" cy="348.4" r="5" fill="#c0392b" opacity="0.9"><title>RF_KILLN VOL | fstt | Chip: 12566</title></circle>
<circle cx="314.6" cy="300.4" r="5" fill="#c0392b" opacity="0.9"><title>RF_KILLN VOL | fstt | Chip: 12566</title></circle>
<circle cx="381.0" cy="315.5" r="5" fill="#c0392b" opacity="0.9"><title>RF_KILLN VOL | fstt | Chip: 12566</title></circle>
<circle cx="447.4" cy="331.4" r="5" fill="#c0392b" opacity="0.9"><title>RF_KILLN VOL | fstt | Chip: 12566</title></circle>
<circle cx="513.9" cy="254.3" r="5" fill="#c0392b" opacity="0.9"><title>RF_KILLN VOL | fstt | Chip: 12566</title></circle>
<circle cx="580.3" cy="272.7" r="5" fill="#c0392b" opacity="0.9"><title>RF_KILLN VOL | fstt | Chip: 12566</title></circle>
<circle cx="646.8" cy="289.7" r="5" fill="#c0392b" opacity="0.9"><title>RF_KILLN VOL | fstt | Chip: 12566</title></circle>
</g>
<g class="series" data-skew="fstt" data-chip="13316">
<path d="M115.2,326.4 L181.7,340.4 L248.1,356.9 L314.6,307.0 L381.0,321.5 L447.4,337.9 L513.9,264.5 L580.3,283.7 L646.8,299.6" fill="none" stroke="#2980b9" stroke-width="2.0" stroke-linejoin="round" stroke-dasharray="10,3,3,3" opacity="0.85"/>
<circle cx="115.2" cy="326.4" r="5" fill="#2980b9" opacity="0.9"><title>RF_KILLN VOL | fstt | Chip: 13316</title></circle>
<circle cx="181.7" cy="340.4" r="5" fill="#2980b9" opacity="0.9"><title>RF_KILLN VOL | fstt | Chip: 13316</title></circle>
<circle cx="248.1" cy="356.9" r="5" fill="#2980b9" opacity="0.9"><title>RF_KILLN VOL | fstt | Chip: 13316</title></circle>
<circle cx="314.6" cy="307.0" r="5" fill="#2980b9" opacity="0.9"><title>RF_KILLN VOL | fstt | Chip: 13316</title></circle>
<circle cx="381.0" cy="321.5" r="5" fill="#2980b9" opacity="0.9"><title>RF_KILLN VOL | fstt | Chip: 13316</title></circle>
<circle cx="447.4" cy="337.9" r="5" fill="#2980b9" opacity="0.9"><title>RF_KILLN VOL | fstt | Chip: 13316</title></circle>
<circle cx="513.9" cy="264.5" r="5" fill="#2980b9" opacity="0.9"><title>RF_KILLN VOL | fstt | Chip: 13316</title></circle>
<circle cx="580.3" cy="283.7" r="5" fill="#2980b9" opacity="0.9"><title>RF_KILLN VOL | fstt | Chip: 13316</title></circle>
<circle cx="646.8" cy="299.6" r="5" fill="#2980b9" opacity="0.9"><title>RF_KILLN VOL | fstt | Chip: 13316</title></circle>
</g>
<g class="series" data-skew="fstt" data-chip="62919">
<path d="M115.2,323.1 L181.7,338.2 L248.1,353.8 L314.6,303.7 L381.0,318.5 L447.4,335.5 L513.9,258.2 L580.3,277.1 L646.8,294.6" fill="none" stroke="#27ae60" stroke-width="2.0" stroke-linejoin="round" opacity="0.85"/>
<circle cx="115.2" cy="323.1" r="5" fill="#27ae60" opacity="0.9"><title>RF_KILLN VOL | fstt | Chip: 62919</title></circle>
<circle cx="181.7" cy="338.2" r="5" fill="#27ae60" opacity="0.9"><title>RF_KILLN VOL | fstt | Chip: 62919</title></circle>
<circle cx="248.1" cy="353.8" r="5" fill="#27ae60" opacity="0.9"><title>RF_KILLN VOL | fstt | Chip: 62919</title></circle>
<circle cx="314.6" cy="303.7" r="5" fill="#27ae60" opacity="0.9"><title>RF_KILLN VOL | fstt | Chip: 62919</title></circle>
<circle cx="381.0" cy="318.5" r="5" fill="#27ae60" opacity="0.9"><title>RF_KILLN VOL | fstt | Chip: 62919</title></circle>
<circle cx="447.4" cy="335.5" r="5" fill="#27ae60" opacity="0.9"><title>RF_KILLN VOL | fstt | Chip: 62919</title></circle>
<circle cx="513.9" cy="258.2" r="5" fill="#27ae60" opacity="0.9"><title>RF_KILLN VOL | fstt | Chip: 62919</title></circle>
<circle cx="580.3" cy="277.1" r="5" fill="#27ae60" opacity="0.9"><title>RF_KILLN VOL | fstt | Chip: 62919</title></circle>
<circle cx="646.8" cy="294.6" r="5" fill="#27ae60" opacity="0.9"><title>RF_KILLN VOL | fstt | Chip: 62919</title></circle>
</g>
<g class="series" data-skew="sftt" data-chip="44565">
<path d="M115.2,276.8 L181.7,299.6 L248.1,321.5 L314.6,252.7 L381.0,276.3 L447.4,299.6 L513.9,217.6 L580.3,244.5 L646.8,267.0" fill="none" stroke="#8e44ad" stroke-width="2.0" stroke-linejoin="round" stroke-dasharray="8,3" opacity="0.85"/>
<circle cx="115.2" cy="276.8" r="5" fill="#8e44ad" opacity="0.9"><title>RF_KILLN VOL | sftt | Chip: 44565</title></circle>
<circle cx="181.7" cy="299.6" r="5" fill="#8e44ad" opacity="0.9"><title>RF_KILLN VOL | sftt | Chip: 44565</title></circle>
<circle cx="248.1" cy="321.5" r="5" fill="#8e44ad" opacity="0.9"><title>RF_KILLN VOL | sftt | Chip: 44565</title></circle>
<circle cx="314.6" cy="252.7" r="5" fill="#8e44ad" opacity="0.9"><title>RF_KILLN VOL | sftt | Chip: 44565</title></circle>
<circle cx="381.0" cy="276.3" r="5" fill="#8e44ad" opacity="0.9"><title>RF_KILLN VOL | sftt | Chip: 44565</title></circle>
<circle cx="447.4" cy="299.6" r="5" fill="#8e44ad" opacity="0.9"><title>RF_KILLN VOL | sftt | Chip: 44565</title></circle>
<circle cx="513.9" cy="217.6" r="5" fill="#8e44ad" opacity="0.9"><title>RF_KILLN VOL | sftt | Chip: 44565</title></circle>
<circle cx="580.3" cy="244.5" r="5" fill="#8e44ad" opacity="0.9"><title>RF_KILLN VOL | sftt | Chip: 44565</title></circle>
<circle cx="646.8" cy="267.0" r="5" fill="#8e44ad" opacity="0.9"><title>RF_KILLN VOL | sftt | Chip: 44565</title></circle>
</g>
<g class="series" data-skew="sftt" data-chip="69627">
<path d="M115.2,318.8 L181.7,336.3 L248.1,353.6 L314.6,298.2 L381.0,315.2 L447.4,334.9 L513.9,252.2 L580.3,274.4 L646.8,293.8" fill="none" stroke="#d35400" stroke-width="2.0" stroke-linejoin="round" stroke-dasharray="4,3" opacity="0.85"/>
<circle cx="115.2" cy="318.8" r="5" fill="#d35400" opacity="0.9"><title>RF_KILLN VOL | sftt | Chip: 69627</title></circle>
<circle cx="181.7" cy="336.3" r="5" fill="#d35400" opacity="0.9"><title>RF_KILLN VOL | sftt | Chip: 69627</title></circle>
<circle cx="248.1" cy="353.6" r="5" fill="#d35400" opacity="0.9"><title>RF_KILLN VOL | sftt | Chip: 69627</title></circle>
<circle cx="314.6" cy="298.2" r="5" fill="#d35400" opacity="0.9"><title>RF_KILLN VOL | sftt | Chip: 69627</title></circle>
<circle cx="381.0" cy="315.2" r="5" fill="#d35400" opacity="0.9"><title>RF_KILLN VOL | sftt | Chip: 69627</title></circle>
<circle cx="447.4" cy="334.9" r="5" fill="#d35400" opacity="0.9"><title>RF_KILLN VOL | sftt | Chip: 69627</title></circle>
<circle cx="513.9" cy="252.2" r="5" fill="#d35400" opacity="0.9"><title>RF_KILLN VOL | sftt | Chip: 69627</title></circle>
<circle cx="580.3" cy="274.4" r="5" fill="#d35400" opacity="0.9"><title>RF_KILLN VOL | sftt | Chip: 69627</title></circle>
<circle cx="646.8" cy="293.8" r="5" fill="#d35400" opacity="0.9"><title>RF_KILLN VOL | sftt | Chip: 69627</title></circle>
</g>
<g class="series" data-skew="sftt" data-chip="76687">
<path d="M115.2,329.2 L181.7,345.1 L248.1,362.6 L314.6,308.1 L381.0,325.1 L447.4,343.4" fill="none" stroke="#16a085" stroke-width="2.0" stroke-linejoin="round" stroke-dasharray="10,3,3,3" opacity="0.85"/>
<circle cx="115.2" cy="329.2" r="5" fill="#16a085" opacity="0.9"><title>RF_KILLN VOL | sftt | Chip: 76687</title></circle>
<circle cx="181.7" cy="345.1" r="5" fill="#16a085" opacity="0.9"><title>RF_KILLN VOL | sftt | Chip: 76687</title></circle>
<circle cx="248.1" cy="362.6" r="5" fill="#16a085" opacity="0.9"><title>RF_KILLN VOL | sftt | Chip: 76687</title></circle>
<circle cx="314.6" cy="308.1" r="5" fill="#16a085" opacity="0.9"><title>RF_KILLN VOL | sftt | Chip: 76687</title></circle>
<circle cx="381.0" cy="325.1" r="5" fill="#16a085" opacity="0.9"><title>RF_KILLN VOL | sftt | Chip: 76687</title></circle>
<circle cx="447.4" cy="343.4" r="5" fill="#16a085" opacity="0.9"><title>RF_KILLN VOL | sftt | Chip: 76687</title></circle>
</g>
<g class="series" data-skew="ssff" data-chip="56508">
<path d="M115.2,345.6 L181.7,361.8 L248.1,379.9 L314.6,326.7 L381.0,343.4 L447.4,361.5 L513.9,279.0 L580.3,300.4 L646.8,318.8" fill="none" stroke="#3498db" stroke-width="2.0" stroke-linejoin="round" opacity="0.85"/>
<circle cx="115.2" cy="345.6" r="5" fill="#3498db" opacity="0.9"><title>RF_KILLN VOL | ssff | Chip: 56508</title></circle>
<circle cx="181.7" cy="361.8" r="5" fill="#3498db" opacity="0.9"><title>RF_KILLN VOL | ssff | Chip: 56508</title></circle>
<circle cx="248.1" cy="379.9" r="5" fill="#3498db" opacity="0.9"><title>RF_KILLN VOL | ssff | Chip: 56508</title></circle>
<circle cx="314.6" cy="326.7" r="5" fill="#3498db" opacity="0.9"><title>RF_KILLN VOL | ssff | Chip: 56508</title></circle>
<circle cx="381.0" cy="343.4" r="5" fill="#3498db" opacity="0.9"><title>RF_KILLN VOL | ssff | Chip: 56508</title></circle>
<circle cx="447.4" cy="361.5" r="5" fill="#3498db" opacity="0.9"><title>RF_KILLN VOL | ssff | Chip: 56508</title></circle>
<circle cx="513.9" cy="279.0" r="5" fill="#3498db" opacity="0.9"><title>RF_KILLN VOL | ssff | Chip: 56508</title></circle>
<circle cx="580.3" cy="300.4" r="5" fill="#3498db" opacity="0.9"><title>RF_KILLN VOL | ssff | Chip: 56508</title></circle>
<circle cx="646.8" cy="318.8" r="5" fill="#3498db" opacity="0.9"><title>RF_KILLN VOL | ssff | Chip: 56508</title></circle>
</g>
<g class="series" data-skew="ssff" data-chip="57571">
<path d="M115.2,346.4 L181.7,362.9 L248.1,379.9 L314.6,328.1 L381.0,344.5 L447.4,362.9 L513.9,279.0 L580.3,301.2 L646.8,319.6" fill="none" stroke="#e74c3c" stroke-width="2.0" stroke-linejoin="round" stroke-dasharray="8,3" opacity="0.85"/>
<circle cx="115.2" cy="346.4" r="5" fill="#e74c3c" opacity="0.9"><title>RF_KILLN VOL | ssff | Chip: 57571</title></circle>
<circle cx="181.7" cy="362.9" r="5" fill="#e74c3c" opacity="0.9"><title>RF_KILLN VOL | ssff | Chip: 57571</title></circle>
<circle cx="248.1" cy="379.9" r="5" fill="#e74c3c" opacity="0.9"><title>RF_KILLN VOL | ssff | Chip: 57571</title></circle>
<circle cx="314.6" cy="328.1" r="5" fill="#e74c3c" opacity="0.9"><title>RF_KILLN VOL | ssff | Chip: 57571</title></circle>
<circle cx="381.0" cy="344.5" r="5" fill="#e74c3c" opacity="0.9"><title>RF_KILLN VOL | ssff | Chip: 57571</title></circle>
<circle cx="447.4" cy="362.9" r="5" fill="#e74c3c" opacity="0.9"><title>RF_KILLN VOL | ssff | Chip: 57571</title></circle>
<circle cx="513.9" cy="279.0" r="5" fill="#e74c3c" opacity="0.9"><title>RF_KILLN VOL | ssff | Chip: 57571</title></circle>
<circle cx="580.3" cy="301.2" r="5" fill="#e74c3c" opacity="0.9"><title>RF_KILLN VOL | ssff | Chip: 57571</title></circle>
<circle cx="646.8" cy="319.6" r="5" fill="#e74c3c" opacity="0.9"><title>RF_KILLN VOL | ssff | Chip: 57571</title></circle>
</g>
<g class="series" data-skew="ssff" data-chip="96040">
<path d="M115.2,341.5 L181.7,357.4 L248.1,375.5 L314.6,322.9 L381.0,339.0 L447.4,357.7 L513.9,274.4 L580.3,296.3 L646.8,314.4" fill="none" stroke="#2ecc71" stroke-width="2.0" stroke-linejoin="round" stroke-dasharray="4,3" opacity="0.85"/>
<circle cx="115.2" cy="341.5" r="5" fill="#2ecc71" opacity="0.9"><title>RF_KILLN VOL | ssff | Chip: 96040</title></circle>
<circle cx="181.7" cy="357.4" r="5" fill="#2ecc71" opacity="0.9"><title>RF_KILLN VOL | ssff | Chip: 96040</title></circle>
<circle cx="248.1" cy="375.5" r="5" fill="#2ecc71" opacity="0.9"><title>RF_KILLN VOL | ssff | Chip: 96040</title></circle>
<circle cx="314.6" cy="322.9" r="5" fill="#2ecc71" opacity="0.9"><title>RF_KILLN VOL | ssff | Chip: 96040</title></circle>
<circle cx="381.0" cy="339.0" r="5" fill="#2ecc71" opacity="0.9"><title>RF_KILLN VOL | ssff | Chip: 96040</title></circle>
<circle cx="447.4" cy="357.7" r="5" fill="#2ecc71" opacity="0.9"><title>RF_KILLN VOL | ssff | Chip: 96040</title></circle>
<circle cx="513.9" cy="274.4" r="5" fill="#2ecc71" opacity="0.9"><title>RF_KILLN VOL | ssff | Chip: 96040</title></circle>
<circle cx="580.3" cy="296.3" r="5" fill="#2ecc71" opacity="0.9"><title>RF_KILLN VOL | ssff | Chip: 96040</title></circle>
<circle cx="646.8" cy="314.4" r="5" fill="#2ecc71" opacity="0.9"><title>RF_KILLN VOL | ssff | Chip: 96040</title></circle>
</g>
<g class="series" data-skew="sstt" data-chip="29674">
<path d="M115.2,323.7 L181.7,340.4 L248.1,358.8 L314.6,304.0 L381.0,320.4 L447.4,340.7 L513.9,257.6 L580.3,280.1 L646.8,299.6" fill="none" stroke="#9b59b6" stroke-width="2.0" stroke-linejoin="round" stroke-dasharray="10,3,3,3" opacity="0.85"/>
<circle cx="115.2" cy="323.7" r="5" fill="#9b59b6" opacity="0.9"><title>RF_KILLN VOL | sstt | Chip: 29674</title></circle>
<circle cx="181.7" cy="340.4" r="5" fill="#9b59b6" opacity="0.9"><title>RF_KILLN VOL | sstt | Chip: 29674</title></circle>
<circle cx="248.1" cy="358.8" r="5" fill="#9b59b6" opacity="0.9"><title>RF_KILLN VOL | sstt | Chip: 29674</title></circle>
<circle cx="314.6" cy="304.0" r="5" fill="#9b59b6" opacity="0.9"><title>RF_KILLN VOL | sstt | Chip: 29674</title></circle>
<circle cx="381.0" cy="320.4" r="5" fill="#9b59b6" opacity="0.9"><title>RF_KILLN VOL | sstt | Chip: 29674</title></circle>
<circle cx="447.4" cy="340.7" r="5" fill="#9b59b6" opacity="0.9"><title>RF_KILLN VOL | sstt | Chip: 29674</title></circle>
<circle cx="513.9" cy="257.6" r="5" fill="#9b59b6" opacity="0.9"><title>RF_KILLN VOL | sstt | Chip: 29674</title></circle>
<circle cx="580.3" cy="280.1" r="5" fill="#9b59b6" opacity="0.9"><title>RF_KILLN VOL | sstt | Chip: 29674</title></circle>
<circle cx="646.8" cy="299.6" r="5" fill="#9b59b6" opacity="0.9"><title>RF_KILLN VOL | sstt | Chip: 29674</title></circle>
</g>
<g class="series" data-skew="sstt" data-chip="58046">
<path d="M115.2,327.3 L181.7,344.2 L248.1,362.6 L314.6,306.7 L381.0,323.4 L447.4,344.2 L513.9,261.5 L580.3,284.5 L646.8,303.1" fill="none" stroke="#e67e22" stroke-width="2.0" stroke-linejoin="round" opacity="0.85"/>
<circle cx="115.2" cy="327.3" r="5" fill="#e67e22" opacity="0.9"><title>RF_KILLN VOL | sstt | Chip: 58046</title></circle>
<circle cx="181.7" cy="344.2" r="5" fill="#e67e22" opacity="0.9"><title>RF_KILLN VOL | sstt | Chip: 58046</title></circle>
<circle cx="248.1" cy="362.6" r="5" fill="#e67e22" opacity="0.9"><title>RF_KILLN VOL | sstt | Chip: 58046</title></circle>
<circle cx="314.6" cy="306.7" r="5" fill="#e67e22" opacity="0.9"><title>RF_KILLN VOL | sstt | Chip: 58046</title></circle>
<circle cx="381.0" cy="323.4" r="5" fill="#e67e22" opacity="0.9"><title>RF_KILLN VOL | sstt | Chip: 58046</title></circle>
<circle cx="447.4" cy="344.2" r="5" fill="#e67e22" opacity="0.9"><title>RF_KILLN VOL | sstt | Chip: 58046</title></circle>
<circle cx="513.9" cy="261.5" r="5" fill="#e67e22" opacity="0.9"><title>RF_KILLN VOL | sstt | Chip: 58046</title></circle>
<circle cx="580.3" cy="284.5" r="5" fill="#e67e22" opacity="0.9"><title>RF_KILLN VOL | sstt | Chip: 58046</title></circle>
<circle cx="646.8" cy="303.1" r="5" fill="#e67e22" opacity="0.9"><title>RF_KILLN VOL | sstt | Chip: 58046</title></circle>
</g>
<g class="series" data-skew="sstt" data-chip="9808">
<path d="M115.2,321.8 L181.7,337.9 L248.1,356.3 L314.6,301.2 L381.0,317.4 L447.4,337.4 L513.9,256.5 L580.3,277.9 L646.8,297.1" fill="none" stroke="#1abc9c" stroke-width="2.0" stroke-linejoin="round" stroke-dasharray="8,3" opacity="0.85"/>
<circle cx="115.2" cy="321.8" r="5" fill="#1abc9c" opacity="0.9"><title>RF_KILLN VOL | sstt | Chip: 9808</title></circle>
<circle cx="181.7" cy="337.9" r="5" fill="#1abc9c" opacity="0.9"><title>RF_KILLN VOL | sstt | Chip: 9808</title></circle>
<circle cx="248.1" cy="356.3" r="5" fill="#1abc9c" opacity="0.9"><title>RF_KILLN VOL | sstt | Chip: 9808</title></circle>
<circle cx="314.6" cy="301.2" r="5" fill="#1abc9c" opacity="0.9"><title>RF_KILLN VOL | sstt | Chip: 9808</title></circle>
<circle cx="381.0" cy="317.4" r="5" fill="#1abc9c" opacity="0.9"><title>RF_KILLN VOL | sstt | Chip: 9808</title></circle>
<circle cx="447.4" cy="337.4" r="5" fill="#1abc9c" opacity="0.9"><title>RF_KILLN VOL | sstt | Chip: 9808</title></circle>
<circle cx="513.9" cy="256.5" r="5" fill="#1abc9c" opacity="0.9"><title>RF_KILLN VOL | sstt | Chip: 9808</title></circle>
<circle cx="580.3" cy="277.9" r="5" fill="#1abc9c" opacity="0.9"><title>RF_KILLN VOL | sstt | Chip: 9808</title></circle>
<circle cx="646.8" cy="297.1" r="5" fill="#1abc9c" opacity="0.9"><title>RF_KILLN VOL | sstt | Chip: 9808</title></circle>
</g>
<line x1="82.0" y1="131.0" x2="680.0" y2="131.0" stroke="#e74c3c" stroke-width="1.8" stroke-dasharray="4,4"/>
<text x="685.0" y="135.0" font-size="9" font-weight="normal" text-anchor="start" fill="#e74c3c" font-family="Arial,sans-serif">Max spec: 0.4</text>
<g class="legend-item" data-skew="ffss" data-chip="25679">
<line x1="688" y1="77" x2="716" y2="77" stroke="#3498db" stroke-width="2.0" />
<circle cx="702" cy="77" r="5" fill="#3498db"/>
<text x="720" y="81" font-size="10" font-family="Arial,sans-serif" fill="#2c3e50">25679 | ffss</text>
</g>
<g class="legend-item" data-skew="ffss" data-chip="43407">
<line x1="688" y1="99" x2="716" y2="99" stroke="#e74c3c" stroke-width="2.0" stroke-dasharray="8,3" />
<circle cx="702" cy="99" r="5" fill="#e74c3c"/>
<text x="720" y="103" font-size="10" font-family="Arial,sans-serif" fill="#2c3e50">43407 | ffss</text>
</g>
<g class="legend-item" data-skew="ffss" data-chip="79093">
<line x1="688" y1="121" x2="716" y2="121" stroke="#2ecc71" stroke-width="2.0" stroke-dasharray="4,3" />
<circle cx="702" cy="121" r="5" fill="#2ecc71"/>
<text x="720" y="125" font-size="10" font-family="Arial,sans-serif" fill="#2c3e50">79093 | ffss</text>
</g>
<g class="legend-item" data-skew="fftt" data-chip="13967">
<line x1="688" y1="143" x2="716" y2="143" stroke="#9b59b6" stroke-width="2.0" stroke-dasharray="10,3,3,3" />
<circle cx="702" cy="143" r="5" fill="#9b59b6"/>
<text x="720" y="147" font-size="10" font-family="Arial,sans-serif" fill="#2c3e50">13967 | fftt</text>
</g>
<g class="legend-item" data-skew="fftt" data-chip="15382">
<line x1="688" y1="165" x2="716" y2="165" stroke="#e67e22" stroke-width="2.0" />
<circle cx="702" cy="165" r="5" fill="#e67e22"/>
<text x="720" y="169" font-size="10" font-family="Arial,sans-serif" fill="#2c3e50">15382 | fftt</text>
</g>
<g class="legend-item" data-skew="fftt" data-chip="78814">
<line x1="688" y1="187" x2="716" y2="187" stroke="#1abc9c" stroke-width="2.0" stroke-dasharray="8,3" />
<circle cx="702" cy="187" r="5" fill="#1abc9c"/>
<text x="720" y="191" font-size="10" font-family="Arial,sans-serif" fill="#2c3e50">78814 | fftt</text>
</g>
<g class="legend-item" data-skew="fstt" data-chip="12566">
<line x1="688" y1="209" x2="716" y2="209" stroke="#c0392b" stroke-width="2.0" stroke-dasharray="4,3" />
<circle cx="702" cy="209" r="5" fill="#c0392b"/>
<text x="720" y="213" font-size="10" font-family="Arial,sans-serif" fill="#2c3e50">12566 | fstt</text>
</g>
<g class="legend-item" data-skew="fstt" data-chip="13316">
<line x1="688" y1="231" x2="716" y2="231" stroke="#2980b9" stroke-width="2.0" stroke-dasharray="10,3,3,3" />
<circle cx="702" cy="231" r="5" fill="#2980b9"/>
<text x="720" y="235" font-size="10" font-family="Arial,sans-serif" fill="#2c3e50">13316 | fstt</text>
</g>
<g class="legend-item" data-skew="fstt" data-chip="62919">
<line x1="688" y1="253" x2="716" y2="253" stroke="#27ae60" stroke-width="2.0" />
<circle cx="702" cy="253" r="5" fill="#27ae60"/>
<text x="720" y="257" font-size="10" font-family="Arial,sans-serif" fill="#2c3e50">62919 | fstt</text>
</g>
<g class="legend-item" data-skew="sftt" data-chip="44565">
<line x1="688" y1="275" x2="716" y2="275" stroke="#8e44ad" stroke-width="2.0" stroke-dasharray="8,3" />
<circle cx="702" cy="275" r="5" fill="#8e44ad"/>
<text x="720" y="279" font-size="10" font-family="Arial,sans-serif" fill="#2c3e50">44565 | sftt</text>
</g>
<g class="legend-item" data-skew="sftt" data-chip="69627">
<line x1="688" y1="297" x2="716" y2="297" stroke="#d35400" stroke-width="2.0" stroke-dasharray="4,3" />
<circle cx="702" cy="297" r="5" fill="#d35400"/>
<text x="720" y="301" font-size="10" font-family="Arial,sans-serif" fill="#2c3e50">69627 | sftt</text>
</g>
<g class="legend-item" data-skew="sftt" data-chip="76687">
<line x1="688" y1="319" x2="716" y2="319" stroke="#16a085" stroke-width="2.0" stroke-dasharray="10,3,3,3" />
<circle cx="702" cy="319" r="5" fill="#16a085"/>
<text x="720" y="323" font-size="10" font-family="Arial,sans-serif" fill="#2c3e50">76687 | sftt</text>
</g>
<g class="legend-item" data-skew="ssff" data-chip="56508">
<line x1="688" y1="341" x2="716" y2="341" stroke="#3498db" stroke-width="2.0" />
<circle cx="702" cy="341" r="5" fill="#3498db"/>
<text x="720" y="345" font-size="10" font-family="Arial,sans-serif" fill="#2c3e50">56508 | ssff</text>
</g>
<g class="legend-item" data-skew="ssff" data-chip="57571">
<line x1="688" y1="363" x2="716" y2="363" stroke="#e74c3c" stroke-width="2.0" stroke-dasharray="8,3" />
<circle cx="702" cy="363" r="5" fill="#e74c3c"/>
<text x="720" y="367" font-size="10" font-family="Arial,sans-serif" fill="#2c3e50">57571 | ssff</text>
</g>
<g class="legend-item" data-skew="ssff" data-chip="96040">
<line x1="688" y1="385" x2="716" y2="385" stroke="#2ecc71" stroke-width="2.0" stroke-dasharray="4,3" />
<circle cx="702" cy="385" r="5" fill="#2ecc71"/>
<text x="720" y="389" font-size="10" font-family="Arial,sans-serif" fill="#2c3e50">96040 | ssff</text>
</g>
<g class="legend-item" data-skew="sstt" data-chip="29674">
<line x1="688" y1="407" x2="716" y2="407" stroke="#9b59b6" stroke-width="2.0" stroke-dasharray="10,3,3,3" />
<circle cx="702" cy="407" r="5" fill="#9b59b6"/>
<text x="720" y="411" font-size="10" font-family="Arial,sans-serif" fill="#2c3e50">29674 | sstt</text>
</g>
<g class="legend-item" data-skew="sstt" data-chip="58046">
<line x1="688" y1="429" x2="716" y2="429" stroke="#e67e22" stroke-width="2.0" />
<circle cx="702" cy="429" r="5" fill="#e67e22"/>
<text x="720" y="433" font-size="10" font-family="Arial,sans-serif" fill="#2c3e50">58046 | sstt</text>
</g>
<g class="legend-item" data-skew="sstt" data-chip="9808">
<line x1="688" y1="451" x2="716" y2="451" stroke="#1abc9c" stroke-width="2.0" stroke-dasharray="8,3" />
<circle cx="702" cy="451" r="5" fill="#1abc9c"/>
<text x="720" y="455" font-size="10" font-family="Arial,sans-serif" fill="#2c3e50">9808 | sstt</text>
</g>
</svg>