<svg xmlns="http://www.w3.org/2000/svg" width="1400" height="560" viewBox="0 0 1400 560">
<rect width="1400" height="560" fill="#ffffff"/>
<text x="700.0" y="28.0" font-size="16" font-weight="bold" text-anchor="middle" fill="#2c3e50" font-family="Arial,sans-serif">RF_KILLN  [PB12DSFS_18_T33_H] — VOH (V)  [VOH/VOL]</text>
<line x1="82.0" y1="460.0" x2="1140.0" y2="460.0" stroke="#999" stroke-width="1"/>
<line x1="82.0" y1="72.0" x2="82.0" y2="460.0" stroke="#999" stroke-width="1"/>
<line x1="82.0" y1="72.0" x2="82.0" y2="460.0" stroke="#999" stroke-width="1"/>
<line x1="77.0" y1="460.0" x2="82.0" y2="460.0" stroke="#999" stroke-width="1"/>
<line x1="82.0" y1="460.0" x2="1140.0" y2="460.0" stroke="#e0e0e0" stroke-width="0.8" stroke-dasharray="3,3"/>
<text x="74.0" y="464.0" font-size="9" font-weight="normal" text-anchor="end" fill="#7f8c8d" font-family="Arial,sans-serif">1.07</text>
<line x1="77.0" y1="382.4" x2="82.0" y2="382.4" stroke="#999" stroke-width="1"/>
<line x1="82.0" y1="382.4" x2="1140.0" y2="382.4" stroke="#e0e0e0" stroke-width="0.8" stroke-dasharray="3,3"/>
<text x="74.0" y="386.4" font-size="9" font-weight="normal" text-anchor="end" fill="#7f8c8d" font-family="Arial,sans-serif">1.24</text>
<line x1="77.0" y1="304.8" x2="82.0" y2="304.8" stroke="#999" stroke-width="1"/>
<line x1="82.0" y1="304.8" x2="1140.0" y2="304.8" stroke="#e0e0e0" stroke-width="0.8" stroke-dasharray="3,3"/>
<text x="74.0" y="308.8" font-size="9" font-weight="normal" text-anchor="end" fill="#7f8c8d" font-family="Arial,sans-serif">1.42</text>
<line x1="77.0" y1="227.2" x2="82.0" y2="227.2" stroke="#999" stroke-width="1"/>
<line x1="82.0" y1="227.2" x2="1140.0" y2="227.2" stroke="#e0e0e0" stroke-width="0.8" stroke-dasharray="3,3"/>
<text x="74.0" y="231.2" font-size="9" font-weight="normal" text-anchor="end" fill="#7f8c8d" font-family="Arial,sans-serif">1.6</text>
<line x1="77.0" y1="149.6" x2="82.0" y2="149.6" stroke="#999" stroke-width="1"/>
<line x1="82.0" y1="149.6" x2="1140.0" y2="149.6" stroke="#e0e0e0" stroke-width="0.8" stroke-dasharray="3,3"/>
<text x="74.0" y="153.6" font-size="9" font-weight="normal" text-anchor="end" fill="#7f8c8d" font-family="Arial,sans-serif">1.77</text>
<line x1="77.0" y1="72.0" x2="82.0" y2="72.0" stroke="#999" stroke-width="1"/>
<line x1="82.0" y1="72.0" x2="1140.0" y2="72.0" stroke="#e0e0e0" stroke-width="0.8" stroke-dasharray="3,3"/>
<text x="74.0" y="76.0" font-size="9" font-weight="normal" text-anchor="end" fill="#7f8c8d" font-family="Arial,sans-serif">1.95</text>
<text x="14.0" y="266.0" font-size="10" font-weight="normal" text-anchor="middle" fill="#7f8c8d" font-family="Arial,sans-serif" transform="rotate(-90,14,266.0)">VOH (V)</text>
<text x="126.1" y="474.0" font-size="8" font-weight="normal" text-anchor="end" fill="#333" font-family="Arial,sans-serif" transform="rotate(-45,126.1,474)">DS_0</text>
<text x="214.2" y="474.0" font-size="8" font-weight="normal" text-anchor="end" fill="#333" font-family="Arial,sans-serif" transform="rotate(-45,214.2,474)">DS_1</text>
<text x="302.4" y="474.0" font-size="8" font-weight="normal" text-anchor="end" fill="#333" font-family="Arial,sans-serif" transform="rotate(-45,302.4,474)">DS_2</text>
<text x="390.6" y="474.0" font-size="8" font-weight="normal" text-anchor="end" fill="#333" font-family="Arial,sans-serif" transform="rotate(-45,390.6,474)">DS_3</text>
<text x="478.8" y="474.0" font-size="8" font-weight="normal" text-anchor="end" fill="#333" font-family="Arial,sans-serif" transform="rotate(-45,478.8,474)">DS_0</text>
<line x1="434.7" y1="72.0" x2="434.7" y2="460.0" stroke="#aaaaaa" stroke-width="1.5" stroke-dasharray="4,3"/>
<text x="566.9" y="474.0" font-size="8" font-weight="normal" text-anchor="end" fill="#333" font-family="Arial,sans-serif" transform="rotate(-45,566.9,474)">DS_1</text>
<text x="655.1" y="474.0" font-size="8" font-weight="normal" text-anchor="end" fill="#333" font-family="Arial,sans-serif" transform="rotate(-45,655.1,474)">DS_2</text>
<text x="743.2" y="474.0" font-size="8" font-weight="normal" text-anchor="end" fill="#333" font-family="Arial,sans-serif" transform="rotate(-45,743.2,474)">DS_3</text>
<text x="831.4" y="474.0" font-size="8" font-weight="normal" text-anchor="end" fill="#333" font-family="Arial,sans-serif" transform="rotate(-45,831.4,474)">DS_0</text>
<line x1="787.3" y1="72.0" x2="787.3" y2="460.0" stroke="#aaaaaa" stroke-width="1.5" stroke-dasharray="4,3"/>
<text x="919.6" y="474.0" font-size="8" font-weight="normal" text-anchor="end" fill="#333" font-family="Arial,sans-serif" transform="rotate(-45,919.6,474)">DS_1</text>
<text x="1007.8" y="474.0" font-size="8" font-weight="normal" text-anchor="end" fill="#333" font-family="Arial,sans-serif" transform="rotate(-45,1007.8,474)">DS_2</text>
<text x="1095.9" y="474.0" font-size="8" font-weight="normal" text-anchor="end" fill="#333" font-family="Arial,sans-serif" transform="rotate(-45,1095.9,474)">DS_3</text>
<text x="258.3" y="62.0" font-size="10" font-weight="bold" text-anchor="middle" fill="#2c3e50" font-family="Arial,sans-serif">VIO=1.62 / VC=0.64</text>
<text x="611.0" y="62.0" font-size="10" font-weight="bold" text-anchor="middle" fill="#2c3e50" font-family="Arial,sans-serif">VIO=1.8 / VC=0.8</text>
<text x="963.7" y="62.0" font-size="10" font-weight="bold" text-anchor="middle" fill="#2c3e50" font-family="Arial,sans-serif">VIO=1.98 / VC=0.96</text>
<text x="611.0" y="520.0" font-size="11" font-weight="normal" text-anchor="middle" fill="#2c3e50" font-family="Arial,sans-serif">VIO &amp; VCORE Corner  /  Drive Strength (DS)</text>
<g class="series" data-skew="ffss" data-chip="25679">
<path d="M126.1,304.8 L214.2,313.6 L302.4,356.2 L390.6,384.8 L478.8,221.8 L566.9,230.2 L655.1,271.9 L743.2,299.9 L831.4,139.0 L919.6,147.6 L1007.8,188.3 L1095.9,215.8" fill="none" stroke="#3498db" stroke-width="2.0" stroke-linejoin="round" opacity="0.85"/>
<circle cx="126.1" cy="304.8" r="4" fill="#3498db" opacity="0.9"><title>RF_KILLN VOH | ffss | Chip: 25679</title></circle>
<circle cx="214.2" cy="313.6" r="4" fill="#3498db" opacity="0.9"><title>RF_KILLN VOH | ffss | Chip: 25679</title></circle>
<circle cx="302.4" cy="356.2" r="4" fill="#3498db" opacity="0.9"><title>RF_KILLN VOH | ffss | Chip: 25679</title></circle>
<circle cx="390.6" cy="384.8" r="4" fill="#3498db" opacity="0.9"><title>RF_KILLN VOH | ffss | Chip: 25679</title></circle>
<circle cx="478.8" cy="221.8" r="4" fill="#3498db" opacity="0.9"><title>RF_KILLN VOH | ffss | Chip: 25679</title></circle>
<circle cx="566.9" cy="230.2" r="4" fill="#3498db" opacity="0.9"><title>RF_KILLN VOH | ffss | Chip: 25679</title></circle>
<circle cx="655.1" cy="271.9" r="4" fill="#3498db" opacity="0.9"><title>RF_KILLN VOH | ffss | Chip: 25679</title></circle>
<circle cx="743.2" cy="299.9" r="4" fill="#3498db" opacity="0.9"><title>RF_KILLN VOH | ffss | Chip: 25679</title></circle>
<circle cx="831.4" cy="139.0" r="4" fill="#3498db" opacity="0.9"><title>RF_KILLN VOH | ffss | Chip: 25679</title></circle>
<circle cx="919.6" cy="147.6" r="4" fill="#3498db" opacity="0.9"><title>RF_KILLN VOH | ffss | Chip: 25679</title></circle>
<circle cx="1007.8" cy="188.3" r="4" fill="#3498db" opacity="0.9"><title>RF_KILLN VOH | ffss | Chip: 25679</title></circle>
<circle cx="1095.9" cy="215.8" r="4" fill="#3498db" opacity="0.9"><title>RF_KILLN VOH | ffss | Chip: 25679</title></circle>
</g>
<g class="series" data-skew="ffss" data-chip="43407">
<path d="M126.1,308.9 L214.2,317.9 L302.4,363.6 L390.6,394.1 L478.8,225.8 L566.9,234.6 L655.1,279.2 L743.2,309.1 L831.4,142.9 L919.6,152.4 L1007.8,195.3 L1095.9,225.0" fill="none" stroke="#e74c3c" stroke-width="2.0" stroke-linejoin="round" stroke-dasharray="8,3" opacity="0.85"/>
<circle cx="126.1" cy="308.9" r="4" fill="#e74c3c" opacity="0.9"><title>RF_KILLN VOH | ffss | Chip: 43407</title></circle>
<circle cx="214.2" cy="317.9" r="4" fill="#e74c3c" opacity="0.9"><title>RF_KILLN VOH | ffss | Chip: 43407</title></circle>
<circle cx="302.4" cy="363.6" r="4" fill="#e74c3c" opacity="0.9"><title>RF_KILLN VOH | ffss | Chip: 43407</title></circle>
<circle cx="390.6" cy="394.1" r="4" fill="#e74c3c" opacity="0.9"><title>RF_KILLN VOH | ffss | Chip: 43407</title></circle>
<circle cx="478.8" cy="225.8" r="4" fill="#e74c3c" opacity="0.9"><title>RF_KILLN VOH | ffss | Chip: 43407</title></circle>
<circle cx="566.9" cy="234.6" r="4" fill="#e74c3c" opacity="0.9"><title>RF_KILLN VOH | ffss | Chip: 43407</title></circle>
<circle cx="655.1" cy="279.2" r="4" fill="#e74c3c" opacity="0.9"><title>RF_KILLN VOH | ffss | Chip: 43407</title></circle>
<circle cx="743.2" cy="309.1" r="4" fill="#e74c3c" opacity="0.9"><title>RF_KILLN VOH | ffss | Chip: 43407</title></circle>
<circle cx="831.4" cy="142.9" r="4" fill="#e74c3c" opacity="0.9"><title>RF_KILLN VOH | ffss | Chip: 43407</title></circle>
<circle cx="919.6" cy="152.4" r="4" fill="#e74c3c" opacity="0.9"><title>RF_KILLN VOH | ffss | Chip: 43407</title></circle>
<circle cx="1007.8" cy="195.3" r="4" fill="#e74c3c" opacity="0.9"><title>RF_KILLN VOH | ffss | Chip: 43407</title></circle>
<circle cx="1095.9" cy="225.0" r="4" fill="#e74c3c" opacity="0.9"><title>RF_KILLN VOH | ffss | Chip: 43407</title></circle>
</g>
<g class="series" data-skew="ffss" data-chip="79093">
<path d="M126.1,305.6 L214.2,313.8 L302.4,357.6 L390.6,386.3 L478.8,222.3 L566.9,230.5 L655.1,273.5 L743.2,301.6 L831.4,139.8 L919.6,148.0 L1007.8,189.8 L1095.9,217.6" fill="none" stroke="#2ecc71" stroke-width="2.0" stroke-linejoin="round" stroke-dasharray="4,3" opacity="0.85"/>
<circle cx="126.1" cy="305.6" r="4" fill="#2ecc71" opacity="0.9"><title>RF_KILLN VOH | ffss | Chip: 79093</title></circle>
<circle cx="214.2" cy="313.8" r="4" fill="#2ecc71" opacity="0.9"><title>RF_KILLN VOH | ffss | Chip: 79093</title></circle>
<circle cx="302.4" cy="357.6" r="4" fill="#2ecc71" opacity="0.9"><title>RF_KILLN VOH | ffss | Chip: 79093</title></circle>
<circle cx="390.6" cy="386.3" r="4" fill="#2ecc71" opacity="0.9"><title>RF_KILLN VOH | ffss | Chip: 79093</title></circle>
<circle cx="478.8" cy="222.3" r="4" fill="#2ecc71" opacity="0.9"><title>RF_KILLN VOH | ffss | Chip: 79093</title></circle>
<circle cx="566.9" cy="230.5" r="4" fill="#2ecc71" opacity="0.9"><title>RF_KILLN VOH | ffss | Chip: 79093</title></circle>
<circle cx="655.1" cy="273.5" r="4" fill="#2ecc71" opacity="0.9"><title>RF_KILLN VOH | ffss | Chip: 79093</title></circle>
<circle cx="743.2" cy="301.6" r="4" fill="#2ecc71" opacity="0.9"><title>RF_KILLN VOH | ffss | Chip: 79093</title></circle>
<circle cx="831.4" cy="139.8" r="4" fill="#2ecc71" opacity="0.9"><title>RF_KILLN VOH | ffss | Chip: 79093</title></circle>
<circle cx="919.6" cy="148.0" r="4" fill="#2ecc71" opacity="0.9"><title>RF_KILLN VOH | ffss | Chip: 79093</title></circle>
<circle cx="1007.8" cy="189.8" r="4" fill="#2ecc71" opacity="0.9"><title>RF_KILLN VOH | ffss | Chip: 79093</title></circle>
<circle cx="1095.9" cy="217.6" r="4" fill="#2ecc71" opacity="0.9"><title>RF_KILLN VOH | ffss | Chip: 79093</title></circle>
</g>
<g class="series" data-skew="fftt" data-chip="13967">
<path d="M126.1,330.6 L214.2,350.4 L302.4,417.4 L390.6,474.7 L478.8,248.1 L566.9,268.0 L655.1,333.4 L743.2,390.5 L831.4,166.5 L919.6,185.5 L1007.8,250.5 L1095.9,307.0" fill="none" stroke="#9b59b6" stroke-width="2.0" stroke-linejoin="round" stroke-dasharray="10,3,3,3" opacity="0.85"/>
<circle cx="126.1" cy="330.6" r="4" fill="#9b59b6" opacity="0.9"><title>RF_KILLN VOH | fftt | Chip: 13967</title></circle>
<circle cx="214.2" cy="350.4" r="4" fill="#9b59b6" opacity="0.9"><title>RF_KILLN VOH | fftt | Chip: 13967</title></circle>
<circle cx="302.4" cy="417.4" r="4" fill="#9b59b6" opacity="0.9"><title>RF_KILLN VOH | fftt | Chip: 13967</title></circle>
<circle cx="390.6" cy="474.7" r="4" fill="#9b59b6" opacity="0.9"><title>RF_KILLN VOH | fftt | Chip: 13967</title></circle>
<circle cx="478.8" cy="248.1" r="4" fill="#9b59b6" opacity="0.9"><title>RF_KILLN VOH | fftt | Chip: 13967</title></circle>
<circle cx="566.9" cy="268.0" r="4" fill="#9b59b6" opacity="0.9"><title>RF_KILLN VOH | fftt | Chip: 13967</title></circle>
<circle cx="655.1" cy="333.4" r="4" fill="#9b59b6" opacity="0.9"><title>RF_KILLN VOH | fftt | Chip: 13967</title></circle>
<circle cx="743.2" cy="390.5" r="4" fill="#9b59b6" opacity="0.9"><title>RF_KILLN VOH | fftt | Chip: 13967</title></circle>
<circle cx="831.4" cy="166.5" r="4" fill="#9b59b6" opacity="0.9"><title>RF_KILLN VOH | fftt | Chip: 13967</title></circle>
<circle cx="919.6" cy="185.5" r="4" fill="#9b59b6" opacity="0.9"><title>RF_KILLN VOH | fftt | Chip: 13967</title></circle>
<circle cx="1007.8" cy="250.5" r="4" fill="#9b59b6" opacity="0.9"><title>RF_KILLN VOH | fftt | Chip: 13967</title></circle>
<circle cx="1095.9" cy="307.0" r="4" fill="#9b59b6" opacity="0.9"><title>RF_KILLN VOH | fftt | Chip: 13967</title></circle>
</g>
<g class="series" data-skew="fftt" data-chip="15382">
<path d="M126.1,316.1 L214.2,329.8 L302.4,386.8 L390.6,431.6 L478.8,233.4 L566.9,249.1 L655.1,304.7 L743.2,349.6 L831.4,151.2 L919.6,166.5 L1007.8,221.9 L1095.9,266.4" fill="none" stroke="#e67e22" stroke-width="2.0" stroke-linejoin="round" opacity="0.85"/>
<circle cx="126.1" cy="316.1" r="4" fill="#e67e22" opacity="0.9"><title>RF_KILLN VOH | fftt | Chip: 15382</title></circle>
<circle cx="214.2" cy="329.8" r="4" fill="#e67e22" opacity="0.9"><title>RF_KILLN VOH | fftt | Chip: 15382</title></circle>
<circle cx="302.4" cy="386.8" r="4" fill="#e67e22" opacity="0.9"><title>RF_KILLN VOH | fftt | Chip: 15382</title></circle>
<circle cx="390.6" cy="431.6" r="4" fill="#e67e22" opacity="0.9"><title>RF_KILLN VOH | fftt | Chip: 15382</title></circle>
<circle cx="478.8" cy="233.4" r="4" fill="#e67e22" opacity="0.9"><title>RF_KILLN VOH | fftt | Chip: 15382</title></circle>
<circle cx="566.9" cy="249.1" r="4" fill="#e67e22" opacity="0.9"><title>RF_KILLN VOH | fftt | Chip: 15382</title></circle>
<circle cx="655.1" cy="304.7" r="4" fill="#e67e22" opacity="0.9"><title>RF_KILLN VOH | fftt | Chip: 15382</title></circle>
<circle cx="743.2" cy="349.6" r="4" fill="#e67e22" opacity="0.9"><title>RF_KILLN VOH | fftt | Chip: 15382</title></circle>
<circle cx="831.4" cy="151.2" r="4" fill="#e67e22" opacity="0.9"><title>RF_KILLN VOH | fftt | Chip: 15382</title></circle>
<circle cx="919.6" cy="166.5" r="4" fill="#e67e22" opacity="0.9"><title>RF_KILLN VOH | fftt | Chip: 15382</title></circle>
<circle cx="1007.8" cy="221.9" r="4" fill="#e67e22" opacity="0.9"><title>RF_KILLN VOH | fftt | Chip: 15382</title></circle>
<circle cx="1095.9" cy="266.4" r="4" fill="#e67e22" opacity="0.9"><title>RF_KILLN VOH | fftt | Chip: 15382</title></circle>
</g>
<g class="series" data-skew="fftt" data-chip="78814">
<path d="M126.1,305.9 L214.2,315.2 L302.4,360.2 L390.6,390.7 L478.8,222.9 L566.9,231.9 L655.1,275.9 L743.2,305.8 L831.4,140.6 L919.6,149.6 L1007.8,192.4 L1095.9,221.8" fill="none" stroke="#1abc9c" stroke-width="2.0" stroke-linejoin="round" stroke-dasharray="8,3" opacity="0.85"/>
<circle cx="126.1" cy="305.9" r="4" fill="#1abc9c" opacity="0.9"><title>RF_KILLN VOH | fftt | Chip: 78814</title></circle>
<circle cx="214.2" cy="315.2" r="4" fill="#1abc9c" opacity="0.9"><title>RF_KILLN VOH | fftt | Chip: 78814</title></circle>
<circle cx="302.4" cy="360.2" r="4" fill="#1abc9c" opacity="0.9"><title>RF_KILLN VOH | fftt | Chip: 78814</title></circle>
<circle cx="390.6" cy="390.7" r="4" fill="#1abc9c" opacity="0.9"><title>RF_KILLN VOH | fftt | Chip: 78814</title></circle>
<circle cx="478.8" cy="222.9" r="4" fill="#1abc9c" opacity="0.9"><title>RF_KILLN VOH | fftt | Chip: 78814</title></circle>
<circle cx="566.9" cy="231.9" r="4" fill="#1abc9c" opacity="0.9"><title>RF_KILLN VOH | fftt | Chip: 78814</title></circle>
<circle cx="655.1" cy="275.9" r="4" fill="#1abc9c" opacity="0.9"><title>RF_KILLN VOH | fftt | Chip: 78814</title></circle>
<circle cx="743.2" cy="305.8" r="4" fill="#1abc9c" opacity="0.9"><title>RF_KILLN VOH | fftt | Chip: 78814</title></circle>
<circle cx="831.4" cy="140.6" r="4" fill="#1abc9c" opacity="0.9"><title>RF_KILLN VOH | fftt | Chip: 78814</title></circle>
<circle cx="919.6" cy="149.6" r="4" fill="#1abc9c" opacity="0.9"><title>RF_KILLN VOH | fftt | Chip: 78814</title></circle>
<circle cx="1007.8" cy="192.4" r="4" fill="#1abc9c" opacity="0.9"><title>RF_KILLN VOH | fftt | Chip: 78814</title></circle>
<circle cx="1095.9" cy="221.8" r="4" fill="#1abc9c" opacity="0.9"><title>RF_KILLN VOH | fftt | Chip: 78814</title></circle>
</g>
<g class="series" data-skew="fstt" data-chip="12566">
<path d="M126.1,305.6 L214.2,313.4 L302.4,357.1 L390.6,385.7 L478.8,221.9 L566.9,229.7 L655.1,271.9 L743.2,299.9 L831.4,138.9 L919.6,146.7 L1007.8,187.9 L1095.9,215.3" fill="none" stroke="#c0392b" stroke-width="2.0" stroke-linejoin="round" stroke-dasharray="4,3" opacity="0.85"/>
<circle cx="126.1" cy="305.6" r="4" fill="#c0392b" opacity="0.9"><title>RF_KILLN VOH | fstt | Chip: 12566</title></circle>
<circle cx="214.2" cy="313.4" r="4" fill="#c0392b" opacity="0.9"><title>RF_KILLN VOH | fstt | Chip: 12566</title></circle>
<circle cx="302.4" cy="357.1" r="4" fill="#c0392b" opacity="0.9"><title>RF_KILLN VOH | fstt | Chip: 12566</title></circle>
<circle cx="390.6" cy="385.7" r="4" fill="#c0392b" opacity="0.9"><title>RF_KILLN VOH | fstt | Chip: 12566</title></circle>
<circle cx="478.8" cy="221.9" r="4" fill="#c0392b" opacity="0.9"><title>RF_KILLN VOH | fstt | Chip: 12566</title></circle>
<circle cx="566.9" cy="229.7" r="4" fill="#c0392b" opacity="0.9"><title>RF_KILLN VOH | fstt | Chip: 12566</title></circle>
<circle cx="655.1" cy="271.9" r="4" fill="#c0392b" opacity="0.9"><title>RF_KILLN VOH | fstt | Chip: 12566</title></circle>
<circle cx="743.2" cy="299.9" r="4" fill="#c0392b" opacity="0.9"><title>RF_KILLN VOH | fstt | Chip: 12566</title></circle>
<circle cx="831.4" cy="138.9" r="4" fill="#c0392b" opacity="0.9"><title>RF_KILLN VOH | fstt | Chip: 12566</title></circle>
<circle cx="919.6" cy="146.7" r="4" fill="#c0392b" opacity="0.9"><title>RF_KILLN VOH | fstt | Chip: 12566</title></circle>
<circle cx="1007.8" cy="187.9" r="4" fill="#c0392b" opacity="0.9"><title>RF_KILLN VOH | fstt | Chip: 12566</title></circle>
<circle cx="1095.9" cy="215.3" r="4" fill="#c0392b" opacity="0.9"><title>RF_KILLN VOH | fstt | Chip: 12566</title></circle>
</g>
<g class="series" data-skew="fstt" data-chip="13316">
<path d="M126.1,304.1 L214.2,312.7 L302.4,355.1 L390.6,383.7 L478.8,220.7 L566.9,229.1 L655.1,270.3 L743.2,297.9 L831.4,137.6 L919.6,146.0 L1007.8,186.1 L1095.9,213.2" fill="none" stroke="#2980b9" stroke-width="2.0" stroke-linejoin="round" stroke-dasharray="10,3,3,3" opacity="0.85"/>
<circle cx="126.1" cy="304.1" r="4" fill="#2980b9" opacity="0.9"><title>RF_KILLN VOH | fstt | Chip: 13316</title></circle>
<circle cx="214.2" cy="312.7" r="4" fill="#2980b9" opacity="0.9"><title>RF_KILLN VOH | fstt | Chip: 13316</title></circle>
<circle cx="302.4" cy="355.1" r="4" fill="#2980b9" opacity="0.9"><title>RF_KILLN VOH | fstt | Chip: 13316</title></circle>
<circle cx="390.6" cy="383.7" r="4" fill="#2980b9" opacity="0.9"><title>RF_KILLN VOH | fstt | Chip: 13316</title></circle>
<circle cx="478.8" cy="220.7" r="4" fill="#2980b9" opacity="0.9"><title>RF_KILLN VOH | fstt | Chip: 13316</title></circle>
<circle cx="566.9" cy="229.1" r="4" fill="#2980b9" opacity="0.9"><title>RF_KILLN VOH | fstt | Chip: 13316</title></circle>
<circle cx="655.1" cy="270.3" r="4" fill="#2980b9" opacity="0.9"><title>RF_KILLN VOH | fstt | Chip: 13316</title></circle>
<circle cx="743.2" cy="297.9" r="4" fill="#2980b9" opacity="0.9"><title>RF_KILLN VOH | fstt | Chip: 13316</title></circle>
<circle cx="831.4" cy="137.6" r="4" fill="#2980b9" opacity="0.9"><title>RF_KILLN VOH | fstt | Chip: 13316</title></circle>
<circle cx="919.6" cy="146.0" r="4" fill="#2980b9" opacity="0.9"><title>RF_KILLN VOH | fstt | Chip: 13316</title></circle>
<circle cx="1007.8" cy="186.1" r="4" fill="#2980b9" opacity="0.9"><title>RF_KILLN VOH | fstt | Chip: 13316</title></circle>
<circle cx="1095.9" cy="213.2" r="4" fill="#2980b9" opacity="0.9"><title>RF_KILLN VOH | fstt | Chip: 13316</title></circle>
</g>
<g class="series" data-skew="fstt" data-chip="62919">
<path d="M126.1,307.4 L214.2,317.1 L302.4,362.4 L390.6,393.7 L478.8,223.8 L566.9,233.4 L655.1,277.4 L743.2,307.8 L831.4,140.8 L919.6,150.4 L1007.8,193.1 L1095.9,222.9" fill="none" stroke="#27ae60" stroke-width="2.0" stroke-linejoin="round" opacity="0.85"/>
<circle cx="126.1" cy="307.4" r="4" fill="#27ae60" opacity="0.9"><title>RF_KILLN VOH | fstt | Chip: 62919</title></circle>
<circle cx="214.2" cy="317.1" r="4" fill="#27ae60" opacity="0.9"><title>RF_KILLN VOH | fstt | Chip: 62919</title></circle>
<circle cx="302.4" cy="362.4" r="4" fill="#27ae60" opacity="0.9"><title>RF_KILLN VOH | fstt | Chip: 62919</title></circle>
<circle cx="390.6" cy="393.7" r="4" fill="#27ae60" opacity="0.9"><title>RF_KILLN VOH | fstt | Chip: 62919</title></circle>
<circle cx="478.8" cy="223.8" r="4" fill="#27ae60" opacity="0.9"><title>RF_KILLN VOH | fstt | Chip: 62919</title></circle>
<circle cx="566.9" cy="233.4" r="4" fill="#27ae60" opacity="0.9"><title>RF_KILLN VOH | fstt | Chip: 62919</title></circle>
<circle cx="655.1" cy="277.4" r="4" fill="#27ae60" opacity="0.9"><title>RF_KILLN VOH | fstt | Chip: 62919</title></circle>
<circle cx="743.2" cy="307.8" r="4" fill="#27ae60" opacity="0.9"><title>RF_KILLN VOH | fstt | Chip: 62919</title></circle>
<circle cx="831.4" cy="140.8" r="4" fill="#27ae60" opacity="0.9"><title>RF_KILLN VOH | fstt | Chip: 62919</title></circle>
<circle cx="919.6" cy="150.4" r="4" fill="#27ae60" opacity="0.9"><title>RF_KILLN VOH | fstt | Chip: 62919</title></circle>
<circle cx="1007.8" cy="193.1" r="4" fill="#27ae60" opacity="0.9"><title>RF_KILLN VOH | fstt | Chip: 62919</title></circle>
<circle cx="1095.9" cy="222.9" r="4" fill="#27ae60" opacity="0.9"><title>RF_KILLN VOH | fstt | Chip: 62919</title></circle>
</g>
<g class="series" data-skew="sftt" data-chip="44565">
<path d="M126.1,302.2 L214.2,310.8 L302.4,352.6 L390.6,380.9 L478.8,219.1 L566.9,227.7 L655.1,268.3 L743.2,296.0 L831.4,136.4 L919.6,145.0 L1007.8,184.7 L1095.9,212.0" fill="none" stroke="#8e44ad" stroke-width="2.0" stroke-linejoin="round" stroke-dasharray="8,3" opacity="0.85"/>
<circle cx="126.1" cy="302.2" r="4" fill="#8e44ad" opacity="0.9"><title>RF_KILLN VOH | sftt | Chip: 44565</title></circle>
<circle cx="214.2" cy="310.8" r="4" fill="#8e44ad" opacity="0.9"><title>RF_KILLN VOH | sftt | Chip: 44565</title></circle>
<circle cx="302.4" cy="352.6" r="4" fill="#8e44ad" opacity="0.9"><title>RF_KILLN VOH | sftt | Chip: 44565</title></circle>
<circle cx="390.6" cy="380.9" r="4" fill="#8e44ad" opacity="0.9"><title>RF_KILLN VOH | sftt | Chip: 44565</title></circle>
<circle cx="478.8" cy="219.1" r="4" fill="#8e44ad" opacity="0.9"><title>RF_KILLN VOH | sftt | Chip: 44565</title></circle>
<circle cx="566.9" cy="227.7" r="4" fill="#8e44ad" opacity="0.9"><title>RF_KILLN VOH | sftt | Chip: 44565</title></circle>
<circle cx="655.1" cy="268.3" r="4" fill="#8e44ad" opacity="0.9"><title>RF_KILLN VOH | sftt | Chip: 44565</title></circle>
<circle cx="743.2" cy="296.0" r="4" fill="#8e44ad" opacity="0.9"><title>RF_KILLN VOH | sftt | Chip: 44565</title></circle>
<circle cx="831.4" cy="136.4" r="4" fill="#8e44ad" opacity="0.9"><title>RF_KILLN VOH | sftt | Chip: 44565</title></circle>
<circle cx="919.6" cy="145.0" r="4" fill="#8e44ad" opacity="0.9"><title>RF_KILLN VOH | sftt | Chip: 44565</title></circle>
<circle cx="1007.8" cy="184.7" r="4" fill="#8e44ad" opacity="0.9"><title>RF_KILLN VOH | sftt | Chip: 44565</title></circle>
<circle cx="1095.9" cy="212.0" r="4" fill="#8e44ad" opacity="0.9"><title>RF_KILLN VOH | sftt | Chip: 44565</title></circle>
</g>
<g class="series" data-skew="sftt" data-chip="69627">
<path d="M126.1,302.9 L214.2,310.9 L302.4,353.6 L390.6,381.5 L478.8,219.7 L566.9,228.1 L655.1,269.3 L743.2,297.1 L831.4,137.3 L919.6,145.0 L1007.8,185.9 L1095.9,212.7" fill="none" stroke="#d35400" stroke-width="2.0" stroke-linejoin="round" stroke-dasharray="4,3" opacity="0.85"/>
<circle cx="126.1" cy="302.9" r="4" fill="#d35400" opacity="0.9"><title>RF_KILLN VOH | sftt | Chip: 69627</title></circle>
<circle cx="214.2" cy="310.9" r="4" fill="#d35400" opacity="0.9"><title>RF_KILLN VOH | sftt | Chip: 69627</title></circle>
<circle cx="302.4" cy="353.6" r="4" fill="#d35400" opacity="0.9"><title>RF_KILLN VOH | sftt | Chip: 69627</title></circle>
<circle cx="390.6" cy="381.5" r="4" fill="#d35400" opacity="0.9"><title>RF_KILLN VOH | sftt | Chip: 69627</title></circle>
<circle cx="478.8" cy="219.7" r="4" fill="#d35400" opacity="0.9"><title>RF_KILLN VOH | sftt | Chip: 69627</title></circle>
<circle cx="566.9" cy="228.1" r="4" fill="#d35400" opacity="0.9"><title>RF_KILLN VOH | sftt | Chip: 69627</title></circle>
<circle cx="655.1" cy="269.3" r="4" fill="#d35400" opacity="0.9"><title>RF_KILLN VOH | sftt | Chip: 69627</title></circle>
<circle cx="743.2" cy="297.1" r="4" fill="#d35400" opacity="0.9"><title>RF_KILLN VOH | sftt | Chip: 69627</title></circle>
<circle cx="831.4" cy="137.3" r="4" fill="#d35400" opacity="0.9"><title>RF_KILLN VOH | sftt | Chip: 69627</title></circle>
<circle cx="919.6" cy="145.0" r="4" fill="#d35400" opacity="0.9"><title>RF_KILLN VOH | sftt | Chip: 69627</title></circle>
<circle cx="1007.8" cy="185.9" r="4" fill="#d35400" opacity="0.9"><title>RF_KILLN VOH | sftt | Chip: 69627</title></circle>
<circle cx="1095.9" cy="212.7" r="4" fill="#d35400" opacity="0.9"><title>RF_KILLN VOH | sftt | Chip: 69627</title></circle>
</g>
<g class="series" data-skew="sftt" data-chip="76687">
<path d="M126.1,297.7 L214.2,305.1 L302.4,343.9 L390.6,369.6 L478.8,215.5 L566.9,222.8 L655.1,260.7 L743.2,286.0 L831.4,133.0 L919.6,140.4 L1007.8,177.5 L1095.9,202.4" fill="none" stroke="#16a085" stroke-width="2.0" stroke-linejoin="round" stroke-dasharray="10,3,3,3" opacity="0.85"/>
<circle cx="126.1" cy="297.7" r="4" fill="#16a085" opacity="0.9"><title>RF_KILLN VOH | sftt | Chip: 76687</title></circle>
<circle cx="214.2" cy="305.1" r="4" fill="#16a085" opacity="0.9"><title>RF_KILLN VOH | sftt | Chip: 76687</title></circle>
<circle cx="302.4" cy="343.9" r="4" fill="#16a085" opacity="0.9"><title>RF_KILLN VOH | sftt | Chip: 76687</title></circle>
<circle cx="390.6" cy="369.6" r="4" fill="#16a085" opacity="0.9"><title>RF_KILLN VOH | sftt | Chip: 76687</title></circle>
<circle cx="478.8" cy="215.5" r="4" fill="#16a085" opacity="0.9"><title>RF_KILLN VOH | sftt | Chip: 76687</title></circle>
<circle cx="566.9" cy="222.8" r="4" fill="#16a085" opacity="0.9"><title>RF_KILLN VOH | sftt | Chip: 76687</title></circle>
<circle cx="655.1" cy="260.7" r="4" fill="#16a085" opacity="0.9"><title>RF_KILLN VOH | sftt | Chip: 76687</title></circle>
<circle cx="743.2" cy="286.0" r="4" fill="#16a085" opacity="0.9"><title>RF_KILLN VOH | sftt | Chip: 76687</title></circle>
<circle cx="831.4" cy="133.0" r="4" fill="#16a085" opacity="0.9"><title>RF_KILLN VOH | sftt | Chip: 76687</title></circle>
<circle cx="919.6" cy="140.4" r="4" fill="#16a085" opacity="0.9"><title>RF_KILLN VOH | sftt | Chip: 76687</title></circle>
<circle cx="1007.8" cy="177.5" r="4" fill="#16a085" opacity="0.9"><title>RF_KILLN VOH | sftt | Chip: 76687</title></circle>
<circle cx="1095.9" cy="202.4" r="4" fill="#16a085" opacity="0.9"><title>RF_KILLN VOH | sftt | Chip: 76687</title></circle>
</g>
<g class="series" data-skew="ssff" data-chip="56508">
<path d="M126.1,302.5 L214.2,310.4 L302.4,353.1 L390.6,381.8 L478.8,219.0 L566.9,226.9 L655.1,268.4 L743.2,296.0 L831.4,136.1 L919.6,143.9 L1007.8,184.3 L1095.9,211.7" fill="none" stroke="#3498db" stroke-width="2.0" stroke-linejoin="round" opacity="0.85"/>
<circle cx="126.1" cy="302.5" r="4" fill="#3498db" opacity="0.9"><title>RF_KILLN VOH | ssff | Chip: 56508</title></circle>
<circle cx="214.2" cy="310.4" r="4" fill="#3498db" opacity="0.9"><title>RF_KILLN VOH | ssff | Chip: 56508</title></circle>
<circle cx="302.4" cy="353.1" r="4" fill="#3498db" opacity="0.9"><title>RF_KILLN VOH | ssff | Chip: 56508</title></circle>
<circle cx="390.6" cy="381.8" r="4" fill="#3498db" opacity="0.9"><title>RF_KILLN VOH | ssff | Chip: 56508</title></circle>
<circle cx="478.8" cy="219.0" r="4" fill="#3498db" opacity="0.9"><title>RF_KILLN VOH | ssff | Chip: 56508</title></circle>
<circle cx="566.9" cy="226.9" r="4" fill="#3498db" opacity="0.9"><title>RF_KILLN VOH | ssff | Chip: 56508</title></circle>
<circle cx="655.1" cy="268.4" r="4" fill="#3498db" opacity="0.9"><title>RF_KILLN VOH | ssff | Chip: 56508</title></circle>
<circle cx="743.2" cy="296.0" r="4" fill="#3498db" opacity="0.9"><title>RF_KILLN VOH | ssff | Chip: 56508</title></circle>
<circle cx="831.4" cy="136.1" r="4" fill="#3498db" opacity="0.9"><title>RF_KILLN VOH | ssff | Chip: 56508</title></circle>
<circle cx="919.6" cy="143.9" r="4" fill="#3498db" opacity="0.9"><title>RF_KILLN VOH | ssff | Chip: 56508</title></circle>
<circle cx="1007.8" cy="184.3" r="4" fill="#3498db" opacity="0.9"><title>RF_KILLN VOH | ssff | Chip: 56508</title></circle>
<circle cx="1095.9" cy="211.7" r="4" fill="#3498db" opacity="0.9"><title>RF_KILLN VOH | ssff | Chip: 56508</title></circle>
</g>
<g class="series" data-skew="ssff" data-chip="57571">
<path d="M126.1,302.6 L214.2,310.4 L302.4,353.0 L390.6,381.6 L478.8,218.9 L566.9,226.9 L655.1,268.3 L743.2,296.3 L831.4,136.0 L919.6,144.1 L1007.8,184.2 L1095.9,212.3" fill="none" stroke="#e74c3c" stroke-width="2.0" stroke-linejoin="round" stroke-dasharray="8,3" opacity="0.85"/>
<circle cx="126.1" cy="302.6" r="4" fill="#e74c3c" opacity="0.9"><title>RF_KILLN VOH | ssff | Chip: 57571</title></circle>
<circle cx="214.2" cy="310.4" r="4" fill="#e74c3c" opacity="0.9"><title>RF_KILLN VOH | ssff | Chip: 57571</title></circle>
<circle cx="302.4" cy="353.0" r="4" fill="#e74c3c" opacity="0.9"><title>RF_KILLN VOH | ssff | Chip: 57571</title></circle>
<circle cx="390.6" cy="381.6" r="4" fill="#e74c3c" opacity="0.9"><title>RF_KILLN VOH | ssff | Chip: 57571</title></circle>
<circle cx="478.8" cy="218.9" r="4" fill="#e74c3c" opacity="0.9"><title>RF_KILLN VOH | ssff | Chip: 57571</title></circle>
<circle cx="566.9" cy="226.9" r="4" fill="#e74c3c" opacity="0.9"><title>RF_KILLN VOH | ssff | Chip: 57571</title></circle>
<circle cx="655.1" cy="268.3" r="4" fill="#e74c3c" opacity="0.9"><title>RF_KILLN VOH | ssff | Chip: 57571</title></circle>
<circle cx="743.2" cy="296.3" r="4" fill="#e74c3c" opacity="0.9"><title>RF_KILLN VOH | ssff | Chip: 57571</title></circle>
<circle cx="831.4" cy="136.0" r="4" fill="#e74c3c" opacity="0.9"><title>RF_KILLN VOH | ssff | Chip: 57571</title></circle>
<circle cx="919.6" cy="144.1" r="4" fill="#e74c3c" opacity="0.9"><title>RF_KILLN VOH | ssff | Chip: 57571</title></circle>
<circle cx="1007.8" cy="184.2" r="4" fill="#e74c3c" opacity="0.9"><title>RF_KILLN VOH | ssff | Chip: 57571</title></circle>
<circle cx="1095.9" cy="212.3" r="4" fill="#e74c3c" opacity="0.9"><title>RF_KILLN VOH | ssff | Chip: 57571</title></circle>
</g>
<g class="series" data-skew="ssff" data-chip="96040">
<path d="M126.1,302.9 L214.2,312.1 L302.4,354.7 L390.6,384.1 L478.8,219.7 L566.9,228.6 L655.1,270.0 L743.2,298.7 L831.4,136.7 L919.6,145.5 L1007.8,185.8 L1095.9,214.0" fill="none" stroke="#2ecc71" stroke-width="2.0" stroke-linejoin="round" stroke-dasharray="4,3" opacity="0.85"/>
<circle cx="126.1" cy="302.9" r="4" fill="#2ecc71" opacity="0.9"><title>RF_KILLN VOH | ssff | Chip: 96040</title></circle>
<circle cx="214.2" cy="312.1" r="4" fill="#2ecc71" opacity="0.9"><title>RF_KILLN VOH | ssff | Chip: 96040</title></circle>
<circle cx="302.4" cy="354.7" r="4" fill="#2ecc71" opacity="0.9"><title>RF_KILLN VOH | ssff | Chip: 96040</title></circle>
<circle cx="390.6" cy="384.1" r="4" fill="#2ecc71" opacity="0.9"><title>RF_KILLN VOH | ssff | Chip: 96040</title></circle>
<circle cx="478.8" cy="219.7" r="4" fill="#2ecc71" opacity="0.9"><title>RF_KILLN VOH | ssff | Chip: 96040</title></circle>
<circle cx="566.9" cy="228.6" r="4" fill="#2ecc71" opacity="0.9"><title>RF_KILLN VOH | ssff | Chip: 96040</title></circle>
<circle cx="655.1" cy="270.0" r="4" fill="#2ecc71" opacity="0.9"><title>RF_KILLN VOH | ssff | Chip: 96040</title></circle>
<circle cx="743.2" cy="298.7" r="4" fill="#2ecc71" opacity="0.9"><title>RF_KILLN VOH | ssff | Chip: 96040</title></circle>
<circle cx="831.4" cy="136.7" r="4" fill="#2ecc71" opacity="0.9"><title>RF_KILLN VOH | ssff | Chip: 96040</title></circle>
<circle cx="919.6" cy="145.5" r="4" fill="#2ecc71" opacity="0.9"><title>RF_KILLN VOH | ssff | Chip: 96040</title></circle>
<circle cx="1007.8" cy="185.8" r="4" fill="#2ecc71" opacity="0.9"><title>RF_KILLN VOH | ssff | Chip: 96040</title></circle>
<circle cx="1095.9" cy="214.0" r="4" fill="#2ecc71" opacity="0.9"><title>RF_KILLN VOH | ssff | Chip: 96040</title></circle>
</g>
<g class="series" data-skew="sstt" data-chip="29674">
<path d="M126.1,304.0 L214.2,312.8 L302.4,355.5 L390.6,384.3 L478.8,220.5 L566.9,229.3 L655.1,270.7 L743.2,298.8 L831.4,137.5 L919.6,146.1 L1007.8,186.3 L1095.9,213.9" fill="none" stroke="#9b59b6" stroke-width="2.0" stroke-linejoin="round" stroke-dasharray="10,3,3,3" opacity="0.85"/>
<circle cx="126.1" cy="304.0" r="4" fill="#9b59b6" opacity="0.9"><title>RF_KILLN VOH | sstt | Chip: 29674</title></circle>
<circle cx="214.2" cy="312.8" r="4" fill="#9b59b6" opacity="0.9"><title>RF_KILLN VOH | sstt | Chip: 29674</title></circle>
<circle cx="302.4" cy="355.5" r="4" fill="#9b59b6" opacity="0.9"><title>RF_KILLN VOH | sstt | Chip: 29674</title></circle>
<circle cx="390.6" cy="384.3" r="4" fill="#9b59b6" opacity="0.9"><title>RF_KILLN VOH | sstt | Chip: 29674</title></circle>
<circle cx="478.8" cy="220.5" r="4" fill="#9b59b6" opacity="0.9"><title>RF_KILLN VOH | sstt | Chip: 29674</title></circle>
<circle cx="566.9" cy="229.3" r="4" fill="#9b59b6" opacity="0.9"><title>RF_KILLN VOH | sstt | Chip: 29674</title></circle>
<circle cx="655.1" cy="270.7" r="4" fill="#9b59b6" opacity="0.9"><title>RF_KILLN VOH | sstt | Chip: 29674</title></circle>
<circle cx="743.2" cy="298.8" r="4" fill="#9b59b6" opacity="0.9"><title>RF_KILLN VOH | sstt | Chip: 29674</title></circle>
<circle cx="831.4" cy="137.5" r="4" fill="#9b59b6" opacity="0.9"><title>RF_KILLN VOH | sstt | Chip: 29674</title></circle>
<circle cx="919.6" cy="146.1" r="4" fill="#9b59b6" opacity="0.9"><title>RF_KILLN VOH | sstt | Chip: 29674</title></circle>
<circle cx="1007.8" cy="186.3" r="4" fill="#9b59b6" opacity="0.9"><title>RF_KILLN VOH | sstt | Chip: 29674</title></circle>
<circle cx="1095.9" cy="213.9" r="4" fill="#9b59b6" opacity="0.9"><title>RF_KILLN VOH | sstt | Chip: 29674</title></circle>
</g>
<g class="series" data-skew="sstt" data-chip="58046">
<path d="M126.1,304.8 L214.2,312.5 L302.4,355.6 L390.6,384.1 L478.8,220.9 L566.9,228.8 L655.1,270.8 L743.2,298.5 L831.4,137.8 L919.6,145.7 L1007.8,186.6 L1095.9,213.7" fill="none" stroke="#e67e22" stroke-width="2.0" stroke-linejoin="round" opacity="0.85"/>
<circle cx="126.1" cy="304.8" r="4" fill="#e67e22" opacity="0.9"><title>RF_KILLN VOH | sstt | Chip: 58046</title></circle>
<circle cx="214.2" cy="312.5" r="4" fill="#e67e22" opacity="0.9"><title>RF_KILLN VOH | sstt | Chip: 58046</title></circle>
<circle cx="302.4" cy="355.6" r="4" fill="#e67e22" opacity="0.9"><title>RF_KILLN VOH | sstt | Chip: 58046</title></circle>
<circle cx="390.6" cy="384.1" r="4" fill="#e67e22" opacity="0.9"><title>RF_KILLN VOH | sstt | Chip: 58046</title></circle>
<circle cx="478.8" cy="220.9" r="4" fill="#e67e22" opacity="0.9"><title>RF_KILLN VOH | sstt | Chip: 58046</title></circle>
<circle cx="566.9" cy="228.8" r="4" fill="#e67e22" opacity="0.9"><title>RF_KILLN VOH | sstt | Chip: 58046</title></circle>
<circle cx="655.1" cy="270.8" r="4" fill="#e67e22" opacity="0.9"><title>RF_KILLN VOH | sstt | Chip: 58046</title></circle>
<circle cx="743.2" cy="298.5" r="4" fill="#e67e22" opacity="0.9"><title>RF_KILLN VOH | sstt | Chip: 58046</title></circle>
<circle cx="831.4" cy="137.8" r="4" fill="#e67e22" opacity="0.9"><title>RF_KILLN VOH | sstt | Chip: 58046</title></circle>
<circle cx="919.6" cy="145.7" r="4" fill="#e67e22" opacity="0.9"><title>RF_KILLN VOH | sstt | Chip: 58046</title></circle>
<circle cx="1007.8" cy="186.6" r="4" fill="#e67e22" opacity="0.9"><title>RF_KILLN VOH | sstt | Chip: 58046</title></circle>
<circle cx="1095.9" cy="213.7" r="4" fill="#e67e22" opacity="0.9"><title>RF_KILLN VOH | sstt | Chip: 58046</title></circle>
</g>
<g class="series" data-skew="sstt" data-chip="9808">
<path d="M126.1,305.0 L214.2,314.5 L302.4,358.3 L390.6,388.6 L478.8,221.4 L566.9,231.0 L655.1,273.7 L743.2,303.2 L831.4,138.6 L919.6,148.0 L1007.8,189.5 L1095.9,218.5" fill="none" stroke="#1abc9c" stroke-width="2.0" stroke-linejoin="round" stroke-dasharray="8,3" opacity="0.85"/>
<circle cx="126.1" cy="305.0" r="4" fill="#1abc9c" opacity="0.9"><title>RF_KILLN VOH | sstt | Chip: 9808</title></circle>
<circle cx="214.2" cy="314.5" r="4" fill="#1abc9c" opacity="0.9"><title>RF_KILLN VOH | sstt | Chip: 9808</title></circle>
<circle cx="302.4" cy="358.3" r="4" fill="#1abc9c" opacity="0.9"><title>RF_KILLN VOH | sstt | Chip: 9808</title></circle>
<circle cx="390.6" cy="388.6" r="4" fill="#1abc9c" opacity="0.9"><title>RF_KILLN VOH | sstt | Chip: 9808</title></circle>
<circle cx="478.8" cy="221.4" r="4" fill="#1abc9c" opacity="0.9"><title>RF_KILLN VOH | sstt | Chip: 9808</title></circle>
<circle cx="566.9" cy="231.0" r="4" fill="#1abc9c" opacity="0.9"><title>RF_KILLN VOH | sstt | Chip: 9808</title></circle>
<circle cx="655.1" cy="273.7" r="4" fill="#1abc9c" opacity="0.9"><title>RF_KILLN VOH | sstt | Chip: 9808</title></circle>
<circle cx="743.2" cy="303.2" r="4" fill="#1abc9c" opacity="0.9"><title>RF_KILLN VOH | sstt | Chip: 9808</title></circle>
<circle cx="831.4" cy="138.6" r="4" fill="#1abc9c" opacity="0.9"><title>RF_KILLN VOH | sstt | Chip: 9808</title></circle>
<circle cx="919.6" cy="148.0" r="4" fill="#1abc9c" opacity="0.9"><title>RF_KILLN VOH | sstt | Chip: 9808</title></circle>
<circle cx="1007.8" cy="189.5" r="4" fill="#1abc9c" opacity="0.9"><title>RF_KILLN VOH | sstt | Chip: 9808</title></circle>
<circle cx="1095.9" cy="218.5" r="4" fill="#1abc9c" opacity="0.9"><title>RF_KILLN VOH | sstt | Chip: 9808</title></circle>
</g>
<g class="spec-el">
<path d="M126.1,395.3 L214.2,395.3 L302.4,395.3 L390.6,395.3 L478.8,335.8 L566.9,335.8 L655.1,335.8 L743.2,335.8 L831.4,276.2 L919.6,276.2 L1007.8,276.2 L1095.9,276.2" fill="none" stroke="#ff6d00" stroke-width="4" opacity="1.0"/>
<text x="1145.0" y="280.2" font-size="9" font-weight="normal" text-anchor="start" fill="#ff6d00" font-family="Arial,sans-serif">VOH Min (0.75×VIO)</text>
</g>
<g class="legend-item" data-skew="ffss" data-chip="25679">
<line x1="1148" y1="77" x2="1176" y2="77" stroke="#3498db" stroke-width="2.0" />
<circle cx="1162" cy="77" r="4" fill="#3498db"/>
<text x="1180" y="81" font-size="10" font-family="Arial,sans-serif" fill="#2c3e50">25679 | ffss</text>
</g>
<g class="legend-item" data-skew="ffss" data-chip="43407">
<line x1="1148" y1="99" x2="1176" y2="99" stroke="#e74c3c" stroke-width="2.0" stroke-dasharray="8,3" />
<circle cx="1162" cy="99" r="4" fill="#e74c3c"/>
<text x="1180" y="103" font-size="10" font-family="Arial,sans-serif" fill="#2c3e50">43407 | ffss</text>
</g>
<g class="legend-item" data-skew="ffss" data-chip="79093">
<line x1="1148" y1="121" x2="1176" y2="121" stroke="#2ecc71" stroke-width="2.0" stroke-dasharray="4,3" />
<circle cx="1162" cy="121" r="4" fill="#2ecc71"/>
<text x="1180" y="125" font-size="10" font-family="Arial,sans-serif" fill="#2c3e50">79093 | ffss</text>
</g>
<g class="legend-item" data-skew="fftt" data-chip="13967">
<line x1="1148" y1="143" x2="1176" y2="143" stroke="#9b59b6" stroke-width="2.0" stroke-dasharray="10,3,3,3" />
<circle cx="1162" cy="143" r="4" fill="#9b59b6"/>
<text x="1180" y="147" font-size="10" font-family="Arial,sans-serif" fill="#2c3e50">13967 | fftt</text>
</g>
<g class="legend-item" data-skew="fftt" data-chip="15382">
<line x1="1148" y1="165" x2="1176" y2="165" stroke="#e67e22" stroke-width="2.0" />
<circle cx="1162" cy="165" r="4" fill="#e67e22"/>
<text x="1180" y="169" font-size="10" font-family="Arial,sans-serif" fill="#2c3e50">15382 | fftt</text>
</g>
<g class="legend-item" data-skew="fftt" data-chip="78814">
<line x1="1148" y1="187" x2="1176" y2="187" stroke="#1abc9c" stroke-width="2.0" stroke-dasharray="8,3" />
<circle cx="1162" cy="187" r="4" fill="#1abc9c"/>
<text x="1180" y="191" font-size="10" font-family="Arial,sans-serif" fill="#2c3e50">78814 | fftt</text>
</g>
<g class="legend-item" data-skew="fstt" data-chip="12566">
<line x1="1148" y1="209" x2="1176" y2="209" stroke="#c0392b" stroke-width="2.0" stroke-dasharray="4,3" />
<circle cx="1162" cy="209" r="4" fill="#c0392b"/>
<text x="1180" y="213" font-size="10" font-family="Arial,sans-serif" fill="#2c3e50">12566 | fstt</text>
</g>
<g class="legend-item" data-skew="fstt" data-chip="13316">
<line x1="1148" y1="231" x2="1176" y2="231" stroke="#2980b9" stroke-width="2.0" stroke-dasharray="10,3,3,3" />
<circle cx="1162" cy="231" r="4" fill="#2980b9"/>
<text x="1180" y="235" font-size="10" font-family="Arial,sans-serif" fill="#2c3e50">13316 | fstt</text>
</g>
<g class="legend-item" data-skew="fstt" data-chip="62919">
<line x1="1148" y1="253" x2="1176" y2="253" stroke="#27ae60" stroke-width="2.0" />
<circle cx="1162" cy="253" r="4" fill="#27ae60"/>
<text x="1180" y="257" font-size="10" font-family="Arial,sans-serif" fill="#2c3e50">62919 | fstt</text>
</g>
<g class="legend-item" data-skew="sftt" data-chip="44565">
<line x1="1148" y1="275" x2="1176" y2="275" stroke="#8e44ad" stroke-width="2.0" stroke-dasharray="8,3" />
<circle cx="1162" cy="275" r="4" fill="#8e44ad"/>
<text x="1180" y="279" font-size="10" font-family="Arial,sans-serif" fill="#2c3e50">44565 | sftt</text>
</g>
<g class="legend-item" data-skew="sftt" data-chip="69627">
<line x1="1148" y1="297" x2="1176" y2="297" stroke="#d35400" stroke-width="2.0" stroke-dasharray="4,3" />
<circle cx="1162" cy="297" r="4" fill="#d35400"/>
<text x="1180" y="301" font-size="10" font-family="Arial,sans-serif" fill="#2c3e50">69627 | sftt</text>
</g>
<g class="legend-item" data-skew="sftt" data-chip="76687">
<line x1="1148" y1="319" x2="1176" y2="319" stroke="#16a085" stroke-width="2.0" stroke-dasharray="10,3,3,3" />
<circle cx="1162" cy="319" r="4" fill="#16a085"/>
<text x="1180" y="323" font-size="10" font-family="Arial,sans-serif" fill="#2c3e50">76687 | sftt</text>
</g>
<g class="legend-item" data-skew="ssff" data-chip="56508">
<line x1="1148" y1="341" x2="1176" y2="341" stroke="#3498db" stroke-width="2.0" />
<circle cx="1162" cy="341" r="4" fill="#3498db"/>
<text x="1180" y="345" font-size="10" font-family="Arial,sans-serif" fill="#2c3e50">56508 | ssff</text>
</g>
<g class="legend-item" data-skew="ssff" data-chip="57571">
<line x1="1148" y1="363" x2="1176" y2="363" stroke="#e74c3c" stroke-width="2.0" stroke-dasharray="8,3" />
<circle cx="1162" cy="363" r="4" fill="#e74c3c"/>
<text x="1180" y="367" font-size="10" font-family="Arial,sans-serif" fill="#2c3e50">57571 | ssff</text>
</g>
<g class="legend-item" data-skew="ssff" data-chip="96040">
<line x1="1148" y1="385" x2="1176" y2="385" stroke="#2ecc71" stroke-width="2.0" stroke-dasharray="4,3" />
<circle cx="1162" cy="385" r="4" fill="#2ecc71"/>
<text x="1180" y="389" font-size="10" font-family="Arial,sans-serif" fill="#2c3e50">96040 | ssff</text>
</g>
<g class="legend-item" data-skew="sstt" data-chip="29674">
<line x1="1148" y1="407" x2="1176" y2="407" stroke="#9b59b6" stroke-width="2.0" stroke-dasharray="10,3,3,3" />
<circle cx="1162" cy="407" r="4" fill="#9b59b6"/>
<text x="1180" y="411" font-size="10" font-family="Arial,sans-serif" fill="#2c3e50">29674 | sstt</text>
</g>
<g class="legend-item" data-skew="sstt" data-chip="58046">
<line x1="1148" y1="429" x2="1176" y2="429" stroke="#e67e22" stroke-width="2.0" />
<circle cx="1162" cy="429" r="4" fill="#e67e22"/>
<text x="1180" y="433" font-size="10" font-family="Arial,sans-serif" fill="#2c3e50">58046 | sstt</text>
</g>
<g class="legend-item" data-skew="sstt" data-chip="9808">
<line x1="1148" y1="451" x2="1176" y2="451" stroke="#1abc9c" stroke-width="2.0" stroke-dasharray="8,3" />
<circle cx="1162" cy="451" r="4" fill="#1abc9c"/>
<text x="1180" y="455" font-size="10" font-family="Arial,sans-serif" fill="#2c3e50">9808 | sstt</text>
</g>
</svg>