<svg xmlns="http://www.w3.org/2000/svg" width="860" height="480" viewBox="0 0 860 480">
<rect width="860" height="480" fill="#ffffff"/>
<text x="430.0" y="28.0" font-size="16" font-weight="bold" text-anchor="middle" fill="#2c3e50" font-family="Arial,sans-serif">GPIO_0 — IO_Direction  [IO State After POR]</text>
<line x1="82.0" y1="380.0" x2="705.0" y2="380.0" stroke="#999" stroke-width="1"/>
<line x1="82.0" y1="72.0" x2="82.0" y2="380.0" stroke="#999" stroke-width="1"/>
<line x1="82.0" y1="72.0" x2="82.0" y2="380.0" stroke="#999" stroke-width="1"/>
<line x1="77.0" y1="380.0" x2="82.0" y2="380.0" stroke="#999" stroke-width="1"/>
<line x1="82.0" y1="380.0" x2="705.0" y2="380.0" stroke="#e0e0e0" stroke-width="0.8" stroke-dasharray="3,3"/>
<text x="74.0" y="384.0" font-size="9" font-weight="normal" text-anchor="end" fill="#7f8c8d" font-family="Arial,sans-serif">-0.05</text>
<line x1="77.0" y1="318.4" x2="82.0" y2="318.4" stroke="#999" stroke-width="1"/>
<line x1="82.0" y1="318.4" x2="705.0" y2="318.4" stroke="#e0e0e0" stroke-width="0.8" stroke-dasharray="3,3"/>
<text x="74.0" y="322.4" font-size="9" font-weight="normal" text-anchor="end" fill="#7f8c8d" font-family="Arial,sans-serif">-0.03</text>
<line x1="77.0" y1="256.8" x2="82.0" y2="256.8" stroke="#999" stroke-width="1"/>
<line x1="82.0" y1="256.8" x2="705.0" y2="256.8" stroke="#e0e0e0" stroke-width="0.8" stroke-dasharray="3,3"/>
<text x="74.0" y="260.8" font-size="9" font-weight="normal" text-anchor="end" fill="#7f8c8d" font-family="Arial,sans-serif">-0.01</text>
<line x1="77.0" y1="195.2" x2="82.0" y2="195.2" stroke="#999" stroke-width="1"/>
<line x1="82.0" y1="195.2" x2="705.0" y2="195.2" stroke="#e0e0e0" stroke-width="0.8" stroke-dasharray="3,3"/>
<text x="74.0" y="199.2" font-size="9" font-weight="normal" text-anchor="end" fill="#7f8c8d" font-family="Arial,sans-serif">0.01</text>
<line x1="77.0" y1="133.6" x2="82.0" y2="133.6" stroke="#999" stroke-width="1"/>
<line x1="82.0" y1="133.6" x2="705.0" y2="133.6" stroke="#e0e0e0" stroke-width="0.8" stroke-dasharray="3,3"/>
<text x="74.0" y="137.6" font-size="9" font-weight="normal" text-anchor="end" fill="#7f8c8d" font-family="Arial,sans-serif">0.03</text>
<line x1="77.0" y1="72.0" x2="82.0" y2="72.0" stroke="#999" stroke-width="1"/>
<line x1="82.0" y1="72.0" x2="705.0" y2="72.0" stroke="#e0e0e0" stroke-width="0.8" stroke-dasharray="3,3"/>
<text x="74.0" y="76.0" font-size="9" font-weight="normal" text-anchor="end" fill="#7f8c8d" font-family="Arial,sans-serif">0.05</text>
<text x="14.0" y="226.0" font-size="10" font-weight="normal" text-anchor="middle" fill="#7f8c8d" font-family="Arial,sans-serif" transform="rotate(-90,14,226.0)">IO_Direction</text>
<text x="116.6" y="394.0" font-size="8" font-weight="normal" text-anchor="end" fill="#333" font-family="Arial,sans-serif" transform="rotate(-45,116.6,394)">VIO=1.62
VC=0.64</text>
<text x="185.8" y="394.0" font-size="8" font-weight="normal" text-anchor="end" fill="#333" font-family="Arial,sans-serif" transform="rotate(-45,185.8,394)">VIO=1.8
VC=0.8</text>
<text x="255.1" y="394.0" font-size="8" font-weight="normal" text-anchor="end" fill="#333" font-family="Arial,sans-serif" transform="rotate(-45,255.1,394)">VIO=1.98
VC=0.96</text>
<line x1="289.7" y1="72.0" x2="289.7" y2="380.0" stroke="#cccccc" stroke-width="1" stroke-dasharray="4,3"/>
<text x="324.3" y="394.0" font-size="8" font-weight="normal" text-anchor="end" fill="#333" font-family="Arial,sans-serif" transform="rotate(-45,324.3,394)">VIO=1.62
VC=0.64</text>
<text x="393.5" y="394.0" font-size="8" font-weight="normal" text-anchor="end" fill="#333" font-family="Arial,sans-serif" transform="rotate(-45,393.5,394)">VIO=1.8
VC=0.8</text>
<text x="462.7" y="394.0" font-size="8" font-weight="normal" text-anchor="end" fill="#333" font-family="Arial,sans-serif" transform="rotate(-45,462.7,394)">VIO=1.98
VC=0.96</text>
<line x1="497.3" y1="72.0" x2="497.3" y2="380.0" stroke="#cccccc" stroke-width="1" stroke-dasharray="4,3"/>
<text x="531.9" y="394.0" font-size="8" font-weight="normal" text-anchor="end" fill="#333" font-family="Arial,sans-serif" transform="rotate(-45,531.9,394)">VIO=1.62
VC=0.64</text>
<text x="601.2" y="394.0" font-size="8" font-weight="normal" text-anchor="end" fill="#333" font-family="Arial,sans-serif" transform="rotate(-45,601.2,394)">VIO=1.8
VC=0.8</text>
<text x="670.4" y="394.0" font-size="8" font-weight="normal" text-anchor="end" fill="#333" font-family="Arial,sans-serif" transform="rotate(-45,670.4,394)">VIO=1.98
VC=0.96</text>
<text x="185.8" y="62.0" font-size="10" font-weight="bold" text-anchor="middle" fill="#2c3e50" font-family="Arial,sans-serif">T=0°C</text>
<text x="393.5" y="62.0" font-size="10" font-weight="bold" text-anchor="middle" fill="#2c3e50" font-family="Arial,sans-serif">T=20°C</text>
<text x="601.2" y="62.0" font-size="10" font-weight="bold" text-anchor="middle" fill="#2c3e50" font-family="Arial,sans-serif">T=80°C</text>
<g class="series" data-skew="ffss">
<path d="M116.6,226.0 L185.8,226.0 L255.1,226.0 L324.3,226.0 L393.5,226.0 L462.7,226.0 L531.9,226.0 L601.2,226.0 L670.4,226.0" fill="none" stroke="#3498db" stroke-width="2.5" stroke-linejoin="round" opacity="0.9"/>
<circle cx="116.6" cy="226.0" r="5" fill="#3498db" opacity="0.95"><title>GPIO_0 IO_Direction | ffss | Chip: 25679</title></circle>
<circle cx="185.8" cy="226.0" r="5" fill="#3498db" opacity="0.95"><title>GPIO_0 IO_Direction | ffss | Chip: 25679</title></circle>
<circle cx="255.1" cy="226.0" r="5" fill="#3498db" opacity="0.95"><title>GPIO_0 IO_Direction | ffss | Chip: 25679</title></circle>
<circle cx="324.3" cy="226.0" r="5" fill="#3498db" opacity="0.95"><title>GPIO_0 IO_Direction | ffss | Chip: 25679</title></circle>
<circle cx="393.5" cy="226.0" r="5" fill="#3498db" opacity="0.95"><title>GPIO_0 IO_Direction | ffss | Chip: 25679</title></circle>
<circle cx="462.7" cy="226.0" r="5" fill="#3498db" opacity="0.95"><title>GPIO_0 IO_Direction | ffss | Chip: 25679</title></circle>
<circle cx="531.9" cy="226.0" r="5" fill="#3498db" opacity="0.95"><title>GPIO_0 IO_Direction | ffss | Chip: 25679</title></circle>
<circle cx="601.2" cy="226.0" r="5" fill="#3498db" opacity="0.95"><title>GPIO_0 IO_Direction | ffss | Chip: 25679</title></circle>
<circle cx="670.4" cy="226.0" r="5" fill="#3498db" opacity="0.95"><title>GPIO_0 IO_Direction | ffss | Chip: 25679</title></circle>
</g>
<g class="series" data-skew="fftt">
<path d="M116.6,226.0 L185.8,226.0 L255.1,226.0 L324.3,226.0 L393.5,226.0 L462.7,226.0 L531.9,226.0 L601.2,226.0 L670.4,226.0" fill="none" stroke="#e74c3c" stroke-width="2.5" stroke-linejoin="round" stroke-dasharray="8,3" opacity="0.9"/>
<circle cx="116.6" cy="226.0" r="5" fill="#e74c3c" opacity="0.95"><title>GPIO_0 IO_Direction | fftt | Chip: 15382</title></circle>
<circle cx="185.8" cy="226.0" r="5" fill="#e74c3c" opacity="0.95"><title>GPIO_0 IO_Direction | fftt | Chip: 15382</title></circle>
<circle cx="255.1" cy="226.0" r="5" fill="#e74c3c" opacity="0.95"><title>GPIO_0 IO_Direction | fftt | Chip: 15382</title></circle>
<circle cx="324.3" cy="226.0" r="5" fill="#e74c3c" opacity="0.95"><title>GPIO_0 IO_Direction | fftt | Chip: 15382</title></circle>
<circle cx="393.5" cy="226.0" r="5" fill="#e74c3c" opacity="0.95"><title>GPIO_0 IO_Direction | fftt | Chip: 15382</title></circle>
<circle cx="462.7" cy="226.0" r="5" fill="#e74c3c" opacity="0.95"><title>GPIO_0 IO_Direction | fftt | Chip: 15382</title></circle>
<circle cx="531.9" cy="226.0" r="5" fill="#e74c3c" opacity="0.95"><title>GPIO_0 IO_Direction | fftt | Chip: 15382</title></circle>
<circle cx="601.2" cy="226.0" r="5" fill="#e74c3c" opacity="0.95"><title>GPIO_0 IO_Direction | fftt | Chip: 15382</title></circle>
<circle cx="670.4" cy="226.0" r="5" fill="#e74c3c" opacity="0.95"><title>GPIO_0 IO_Direction | fftt | Chip: 15382</title></circle>
</g>
<g class="series" data-skew="fstt">
<path d="M116.6,226.0 L185.8,226.0 L255.1,226.0 L324.3,226.0 L393.5,226.0 L462.7,226.0 L531.9,226.0 L601.2,226.0 L670.4,226.0" fill="none" stroke="#2ecc71" stroke-width="2.5" stroke-linejoin="round" stroke-dasharray="4,3" opacity="0.9"/>
<circle cx="116.6" cy="226.0" r="5" fill="#2ecc71" opacity="0.95"><title>GPIO_0 IO_Direction | fstt | Chip: 12566</title></circle>
<circle cx="185.8" cy="226.0" r="5" fill="#2ecc71" opacity="0.95"><title>GPIO_0 IO_Direction | fstt | Chip: 12566</title></circle>
<circle cx="255.1" cy="226.0" r="5" fill="#2ecc71" opacity="0.95"><title>GPIO_0 IO_Direction | fstt | Chip: 12566</title></circle>
<circle cx="324.3" cy="226.0" r="5" fill="#2ecc71" opacity="0.95"><title>GPIO_0 IO_Direction | fstt | Chip: 12566</title></circle>
<circle cx="393.5" cy="226.0" r="5" fill="#2ecc71" opacity="0.95"><title>GPIO_0 IO_Direction | fstt | Chip: 12566</title></circle>
<circle cx="462.7" cy="226.0" r="5" fill="#2ecc71" opacity="0.95"><title>GPIO_0 IO_Direction | fstt | Chip: 12566</title></circle>
<circle cx="531.9" cy="226.0" r="5" fill="#2ecc71" opacity="0.95"><title>GPIO_0 IO_Direction | fstt | Chip: 12566</title></circle>
<circle cx="601.2" cy="226.0" r="5" fill="#2ecc71" opacity="0.95"><title>GPIO_0 IO_Direction | fstt | Chip: 12566</title></circle>
<circle cx="670.4" cy="226.0" r="5" fill="#2ecc71" opacity="0.95"><title>GPIO_0 IO_Direction | fstt | Chip: 12566</title></circle>
</g>
<g class="series" data-skew="sftt">
<path d="M116.6,226.0 L185.8,226.0 L255.1,226.0 L324.3,226.0 L393.5,226.0 L462.7,226.0 L531.9,226.0 L601.2,226.0 L670.4,226.0" fill="none" stroke="#9b59b6" stroke-width="2.5" stroke-linejoin="round" stroke-dasharray="10,3,3,3" opacity="0.9"/>
<circle cx="116.6" cy="226.0" r="5" fill="#9b59b6" opacity="0.95"><title>GPIO_0 IO_Direction | sftt | Chip: 69627</title></circle>
<circle cx="185.8" cy="226.0" r="5" fill="#9b59b6" opacity="0.95"><title>GPIO_0 IO_Direction | sftt | Chip: 69627</title></circle>
<circle cx="255.1" cy="226.0" r="5" fill="#9b59b6" opacity="0.95"><title>GPIO_0 IO_Direction | sftt | Chip: 69627</title></circle>
<circle cx="324.3" cy="226.0" r="5" fill="#9b59b6" opacity="0.95"><title>GPIO_0 IO_Direction | sftt | Chip: 69627</title></circle>
<circle cx="393.5" cy="226.0" r="5" fill="#9b59b6" opacity="0.95"><title>GPIO_0 IO_Direction | sftt | Chip: 69627</title></circle>
<circle cx="462.7" cy="226.0" r="5" fill="#9b59b6" opacity="0.95"><title>GPIO_0 IO_Direction | sftt | Chip: 69627</title></circle>
<circle cx="531.9" cy="226.0" r="5" fill="#9b59b6" opacity="0.95"><title>GPIO_0 IO_Direction | sftt | Chip: 69627</title></circle>
<circle cx="601.2" cy="226.0" r="5" fill="#9b59b6" opacity="0.95"><title>GPIO_0 IO_Direction | sftt | Chip: 69627</title></circle>
<circle cx="670.4" cy="226.0" r="5" fill="#9b59b6" opacity="0.95"><title>GPIO_0 IO_Direction | sftt | Chip: 69627</title></circle>
</g>
<g class="series" data-skew="ssff">
<path d="M116.6,226.0 L185.8,226.0 L255.1,226.0 L324.3,226.0 L393.5,226.0 L462.7,226.0 L531.9,226.0 L601.2,226.0 L670.4,226.0" fill="none" stroke="#e67e22" stroke-width="2.5" stroke-linejoin="round" opacity="0.9"/>
<circle cx="116.6" cy="226.0" r="5" fill="#e67e22" opacity="0.95"><title>GPIO_0 IO_Direction | ssff | Chip: 56508</title></circle>
<circle cx="185.8" cy="226.0" r="5" fill="#e67e22" opacity="0.95"><title>GPIO_0 IO_Direction | ssff | Chip: 56508</title></circle>
<circle cx="255.1" cy="226.0" r="5" fill="#e67e22" opacity="0.95"><title>GPIO_0 IO_Direction | ssff | Chip: 56508</title></circle>
<circle cx="324.3" cy="226.0" r="5" fill="#e67e22" opacity="0.95"><title>GPIO_0 IO_Direction | ssff | Chip: 56508</title></circle>
<circle cx="393.5" cy="226.0" r="5" fill="#e67e22" opacity="0.95"><title>GPIO_0 IO_Direction | ssff | Chip: 56508</title></circle>
<circle cx="462.7" cy="226.0" r="5" fill="#e67e22" opacity="0.95"><title>GPIO_0 IO_Direction | ssff | Chip: 56508</title></circle>
<circle cx="531.9" cy="226.0" r="5" fill="#e67e22" opacity="0.95"><title>GPIO_0 IO_Direction | ssff | Chip: 56508</title></circle>
<circle cx="601.2" cy="226.0" r="5" fill="#e67e22" opacity="0.95"><title>GPIO_0 IO_Direction | ssff | Chip: 56508</title></circle>
<circle cx="670.4" cy="226.0" r="5" fill="#e67e22" opacity="0.95"><title>GPIO_0 IO_Direction | ssff | Chip: 56508</title></circle>
</g>
<g class="series" data-skew="sstt">
<path d="M116.6,226.0 L185.8,226.0 L255.1,226.0 L324.3,226.0 L393.5,226.0 L462.7,226.0 L531.9,226.0 L601.2,226.0 L670.4,226.0" fill="none" stroke="#1abc9c" stroke-width="2.5" stroke-linejoin="round" stroke-dasharray="8,3" opacity="0.9"/>
<circle cx="116.6" cy="226.0" r="5" fill="#1abc9c" opacity="0.95"><title>GPIO_0 IO_Direction | sstt | Chip: 9808</title></circle>
<circle cx="185.8" cy="226.0" r="5" fill="#1abc9c" opacity="0.95"><title>GPIO_0 IO_Direction | sstt | Chip: 9808</title></circle>
<circle cx="255.1" cy="226.0" r="5" fill="#1abc9c" opacity="0.95"><title>GPIO_0 IO_Direction | sstt | Chip: 9808</title></circle>
<circle cx="324.3" cy="226.0" r="5" fill="#1abc9c" opacity="0.95"><title>GPIO_0 IO_Direction | sstt | Chip: 9808</title></circle>
<circle cx="393.5" cy="226.0" r="5" fill="#1abc9c" opacity="0.95"><title>GPIO_0 IO_Direction | sstt | Chip: 9808</title></circle>
<circle cx="462.7" cy="226.0" r="5" fill="#1abc9c" opacity="0.95"><title>GPIO_0 IO_Direction | sstt | Chip: 9808</title></circle>
<circle cx="531.9" cy="226.0" r="5" fill="#1abc9c" opacity="0.95"><title>GPIO_0 IO_Direction | sstt | Chip: 9808</title></circle>
<circle cx="601.2" cy="226.0" r="5" fill="#1abc9c" opacity="0.95"><title>GPIO_0 IO_Direction | sstt | Chip: 9808</title></circle>
<circle cx="670.4" cy="226.0" r="5" fill="#1abc9c" opacity="0.95"><title>GPIO_0 IO_Direction | sstt | Chip: 9808</title></circle>
</g>
<g class="legend-item" data-skew="ffss">
<line x1="713" y1="77" x2="741" y2="77" stroke="#3498db" stroke-width="2.5" />
<circle cx="727" cy="77" r="5" fill="#3498db"/>
<text x="745" y="81" font-size="10" font-family="Arial,sans-serif" fill="#2c3e50">ffss (25679)</text>
</g>
<g class="legend-item" data-skew="fftt">
<line x1="713" y1="99" x2="741" y2="99" stroke="#e74c3c" stroke-width="2.5" stroke-dasharray="8,3" />
<circle cx="727" cy="99" r="5" fill="#e74c3c"/>
<text x="745" y="103" font-size="10" font-family="Arial,sans-serif" fill="#2c3e50">fftt (15382)</text>
</g>
<g class="legend-item" data-skew="fstt">
<line x1="713" y1="121" x2="741" y2="121" stroke="#2ecc71" stroke-width="2.5" stroke-dasharray="4,3" />
<circle cx="727" cy="121" r="5" fill="#2ecc71"/>
<text x="745" y="125" font-size="10" font-family="Arial,sans-serif" fill="#2c3e50">fstt (12566)</text>
</g>
<g class="legend-item" data-skew="sftt">
<line x1="713" y1="143" x2="741" y2="143" stroke="#9b59b6" stroke-width="2.5" stroke-dasharray="10,3,3,3" />
<circle cx="727" cy="143" r="5" fill="#9b59b6"/>
<text x="745" y="147" font-size="10" font-family="Arial,sans-serif" fill="#2c3e50">sftt (69627)</text>
</g>
<g class="legend-item" data-skew="ssff">
<line x1="713" y1="165" x2="741" y2="165" stroke="#e67e22" stroke-width="2.5" />
<circle cx="727" cy="165" r="5" fill="#e67e22"/>
<text x="745" y="169" font-size="10" font-family="Arial,sans-serif" fill="#2c3e50">ssff (56508)</text>
</g>
<g class="legend-item" data-skew="sstt">
<line x1="713" y1="187" x2="741" y2="187" stroke="#1abc9c" stroke-width="2.5" stroke-dasharray="8,3" />
<circle cx="727" cy="187" r="5" fill="#1abc9c"/>
<text x="745" y="191" font-size="10" font-family="Arial,sans-serif" fill="#2c3e50">sstt (9808)</text>
</g>
</svg>