<svg xmlns="http://www.w3.org/2000/svg" width="1400" height="560" viewBox="0 0 1400 560">
<rect width="1400" height="560" fill="#ffffff"/>
<text x="700.0" y="28.0" font-size="16" font-weight="bold" text-anchor="middle" fill="#2c3e50" font-family="Arial,sans-serif">RF_KILLN  [PB12DSFS_18_T33_H] — VIH_Min (V)  [VIH/VIL]</text>
<line x1="82.0" y1="460.0" x2="1140.0" y2="460.0" stroke="#999" stroke-width="1"/>
<line x1="82.0" y1="72.0" x2="82.0" y2="460.0" stroke="#999" stroke-width="1"/>
<line x1="82.0" y1="72.0" x2="82.0" y2="460.0" stroke="#999" stroke-width="1"/>
<line x1="77.0" y1="460.0" x2="82.0" y2="460.0" stroke="#999" stroke-width="1"/>
<line x1="82.0" y1="460.0" x2="1140.0" y2="460.0" stroke="#e0e0e0" stroke-width="0.8" stroke-dasharray="3,3"/>
<text x="74.0" y="464.0" font-size="9" font-weight="normal" text-anchor="end" fill="#7f8c8d" font-family="Arial,sans-serif">0.735</text>
<line x1="77.0" y1="382.4" x2="82.0" y2="382.4" stroke="#999" stroke-width="1"/>
<line x1="82.0" y1="382.4" x2="1140.0" y2="382.4" stroke="#e0e0e0" stroke-width="0.8" stroke-dasharray="3,3"/>
<text x="74.0" y="386.4" font-size="9" font-weight="normal" text-anchor="end" fill="#7f8c8d" font-family="Arial,sans-serif">0.861</text>
<line x1="77.0" y1="304.8" x2="82.0" y2="304.8" stroke="#999" stroke-width="1"/>
<line x1="82.0" y1="304.8" x2="1140.0" y2="304.8" stroke="#e0e0e0" stroke-width="0.8" stroke-dasharray="3,3"/>
<text x="74.0" y="308.8" font-size="9" font-weight="normal" text-anchor="end" fill="#7f8c8d" font-family="Arial,sans-serif">0.987</text>
<line x1="77.0" y1="227.2" x2="82.0" y2="227.2" stroke="#999" stroke-width="1"/>
<line x1="82.0" y1="227.2" x2="1140.0" y2="227.2" stroke="#e0e0e0" stroke-width="0.8" stroke-dasharray="3,3"/>
<text x="74.0" y="231.2" font-size="9" font-weight="normal" text-anchor="end" fill="#7f8c8d" font-family="Arial,sans-serif">1.11</text>
<line x1="77.0" y1="149.6" x2="82.0" y2="149.6" stroke="#999" stroke-width="1"/>
<line x1="82.0" y1="149.6" x2="1140.0" y2="149.6" stroke="#e0e0e0" stroke-width="0.8" stroke-dasharray="3,3"/>
<text x="74.0" y="153.6" font-size="9" font-weight="normal" text-anchor="end" fill="#7f8c8d" font-family="Arial,sans-serif">1.24</text>
<line x1="77.0" y1="72.0" x2="82.0" y2="72.0" stroke="#999" stroke-width="1"/>
<line x1="82.0" y1="72.0" x2="1140.0" y2="72.0" stroke="#e0e0e0" stroke-width="0.8" stroke-dasharray="3,3"/>
<text x="74.0" y="76.0" font-size="9" font-weight="normal" text-anchor="end" fill="#7f8c8d" font-family="Arial,sans-serif">1.36</text>
<text x="14.0" y="266.0" font-size="10" font-weight="normal" text-anchor="middle" fill="#7f8c8d" font-family="Arial,sans-serif" transform="rotate(-90,14,266.0)">VIH_Min (V)</text>
<text x="140.8" y="474.0" font-size="8" font-weight="normal" text-anchor="end" fill="#333" font-family="Arial,sans-serif" transform="rotate(-45,140.8,474)">VIO=1.62
VC=0.64</text>
<text x="258.3" y="474.0" font-size="8" font-weight="normal" text-anchor="end" fill="#333" font-family="Arial,sans-serif" transform="rotate(-45,258.3,474)">VIO=1.8
VC=0.8</text>
<text x="375.9" y="474.0" font-size="8" font-weight="normal" text-anchor="end" fill="#333" font-family="Arial,sans-serif" transform="rotate(-45,375.9,474)">VIO=1.98
VC=0.96</text>
<line x1="434.7" y1="72.0" x2="434.7" y2="460.0" stroke="#cccccc" stroke-width="1" stroke-dasharray="4,3"/>
<text x="493.4" y="474.0" font-size="8" font-weight="normal" text-anchor="end" fill="#333" font-family="Arial,sans-serif" transform="rotate(-45,493.4,474)">VIO=1.62
VC=0.64</text>
<text x="611.0" y="474.0" font-size="8" font-weight="normal" text-anchor="end" fill="#333" font-family="Arial,sans-serif" transform="rotate(-45,611.0,474)">VIO=1.8
VC=0.8</text>
<text x="728.6" y="474.0" font-size="8" font-weight="normal" text-anchor="end" fill="#333" font-family="Arial,sans-serif" transform="rotate(-45,728.6,474)">VIO=1.98
VC=0.96</text>
<line x1="787.3" y1="72.0" x2="787.3" y2="460.0" stroke="#cccccc" stroke-width="1" stroke-dasharray="4,3"/>
<text x="846.1" y="474.0" font-size="8" font-weight="normal" text-anchor="end" fill="#333" font-family="Arial,sans-serif" transform="rotate(-45,846.1,474)">VIO=1.62
VC=0.64</text>
<text x="963.7" y="474.0" font-size="8" font-weight="normal" text-anchor="end" fill="#333" font-family="Arial,sans-serif" transform="rotate(-45,963.7,474)">VIO=1.8
VC=0.8</text>
<text x="1081.2" y="474.0" font-size="8" font-weight="normal" text-anchor="end" fill="#333" font-family="Arial,sans-serif" transform="rotate(-45,1081.2,474)">VIO=1.98
VC=0.96</text>
<text x="258.3" y="62.0" font-size="10" font-weight="bold" text-anchor="middle" fill="#2c3e50" font-family="Arial,sans-serif">T=0°C</text>
<text x="611.0" y="62.0" font-size="10" font-weight="bold" text-anchor="middle" fill="#2c3e50" font-family="Arial,sans-serif">T=20°C</text>
<text x="963.7" y="62.0" font-size="10" font-weight="bold" text-anchor="middle" fill="#2c3e50" font-family="Arial,sans-serif">T=80°C</text>
<g class="series" data-skew="ffss" data-chip="25679">
<g data-viocore="0.64/1.62">
<path d="M140.8,364.5 L493.4,376.9 L846.1,370.7" fill="none" stroke="#3498db" stroke-width="2.0" stroke-linejoin="round" opacity="0.85"/>
<circle cx="140.8" cy="364.5" r="5" fill="#3498db" opacity="0.9"><title>RF_KILLN VIH_Min | ffss | Chip: 25679</title></circle>
<circle cx="493.4" cy="376.9" r="5" fill="#3498db" opacity="0.9"><title>RF_KILLN VIH_Min | ffss | Chip: 25679</title></circle>
<circle cx="846.1" cy="370.7" r="5" fill="#3498db" opacity="0.9"><title>RF_KILLN VIH_Min | ffss | Chip: 25679</title></circle>
</g>
<g data-viocore="0.8/1.8">
<path d="M258.3,296.8 L611.0,303.0 L963.7,296.8" fill="none" stroke="#3498db" stroke-width="2.0" stroke-linejoin="round" opacity="0.85"/>
<circle cx="258.3" cy="296.8" r="5" fill="#3498db" opacity="0.9"><title>RF_KILLN VIH_Min | ffss | Chip: 25679</title></circle>
<circle cx="611.0" cy="303.0" r="5" fill="#3498db" opacity="0.9"><title>RF_KILLN VIH_Min | ffss | Chip: 25679</title></circle>
<circle cx="963.7" cy="296.8" r="5" fill="#3498db" opacity="0.9"><title>RF_KILLN VIH_Min | ffss | Chip: 25679</title></circle>
</g>
<g data-viocore="0.96/1.98">
<path d="M375.9,222.9 L728.6,216.7 L1081.2,216.7" fill="none" stroke="#3498db" stroke-width="2.0" stroke-linejoin="round" opacity="0.85"/>
<circle cx="375.9" cy="222.9" r="5" fill="#3498db" opacity="0.9"><title>RF_KILLN VIH_Min | ffss | Chip: 25679</title></circle>
<circle cx="728.6" cy="216.7" r="5" fill="#3498db" opacity="0.9"><title>RF_KILLN VIH_Min | ffss | Chip: 25679</title></circle>
<circle cx="1081.2" cy="216.7" r="5" fill="#3498db" opacity="0.9"><title>RF_KILLN VIH_Min | ffss | Chip: 25679</title></circle>
</g>
</g>
<g class="series" data-skew="ffss" data-chip="43407">
<g data-viocore="0.64/1.62">
<path d="M140.8,389.2 L493.4,383.0 L846.1,383.0" fill="none" stroke="#e74c3c" stroke-width="2.0" stroke-linejoin="round" stroke-dasharray="8,3" opacity="0.85"/>
<circle cx="140.8" cy="389.2" r="5" fill="#e74c3c" opacity="0.9"><title>RF_KILLN VIH_Min | ffss | Chip: 43407</title></circle>
<circle cx="493.4" cy="383.0" r="5" fill="#e74c3c" opacity="0.9"><title>RF_KILLN VIH_Min | ffss | Chip: 43407</title></circle>
<circle cx="846.1" cy="383.0" r="5" fill="#e74c3c" opacity="0.9"><title>RF_KILLN VIH_Min | ffss | Chip: 43407</title></circle>
</g>
<g data-viocore="0.8/1.8">
<path d="M258.3,315.3 L611.0,315.3 L963.7,309.1" fill="none" stroke="#e74c3c" stroke-width="2.0" stroke-linejoin="round" stroke-dasharray="8,3" opacity="0.85"/>
<circle cx="258.3" cy="315.3" r="5" fill="#e74c3c" opacity="0.9"><title>RF_KILLN VIH_Min | ffss | Chip: 43407</title></circle>
<circle cx="611.0" cy="315.3" r="5" fill="#e74c3c" opacity="0.9"><title>RF_KILLN VIH_Min | ffss | Chip: 43407</title></circle>
<circle cx="963.7" cy="309.1" r="5" fill="#e74c3c" opacity="0.9"><title>RF_KILLN VIH_Min | ffss | Chip: 43407</title></circle>
</g>
<g data-viocore="0.96/1.98">
<path d="M375.9,235.2 L728.6,235.2 L1081.2,235.2" fill="none" stroke="#e74c3c" stroke-width="2.0" stroke-linejoin="round" stroke-dasharray="8,3" opacity="0.85"/>
<circle cx="375.9" cy="235.2" r="5" fill="#e74c3c" opacity="0.9"><title>RF_KILLN VIH_Min | ffss | Chip: 43407</title></circle>
<circle cx="728.6" cy="235.2" r="5" fill="#e74c3c" opacity="0.9"><title>RF_KILLN VIH_Min | ffss | Chip: 43407</title></circle>
<circle cx="1081.2" cy="235.2" r="5" fill="#e74c3c" opacity="0.9"><title>RF_KILLN VIH_Min | ffss | Chip: 43407</title></circle>
</g>
</g>
<g class="series" data-skew="ffss" data-chip="79093">
<g data-viocore="0.64/1.62">
<path d="M140.8,370.7 L493.4,364.5 L846.1,358.4" fill="none" stroke="#2ecc71" stroke-width="2.0" stroke-linejoin="round" stroke-dasharray="4,3" opacity="0.85"/>
<circle cx="140.8" cy="370.7" r="5" fill="#2ecc71" opacity="0.9"><title>RF_KILLN VIH_Min | ffss | Chip: 79093</title></circle>
<circle cx="493.4" cy="364.5" r="5" fill="#2ecc71" opacity="0.9"><title>RF_KILLN VIH_Min | ffss | Chip: 79093</title></circle>
<circle cx="846.1" cy="358.4" r="5" fill="#2ecc71" opacity="0.9"><title>RF_KILLN VIH_Min | ffss | Chip: 79093</title></circle>
</g>
<g data-viocore="0.8/1.8">
<path d="M258.3,296.8 L611.0,290.6 L963.7,290.6" fill="none" stroke="#2ecc71" stroke-width="2.0" stroke-linejoin="round" stroke-dasharray="4,3" opacity="0.85"/>
<circle cx="258.3" cy="296.8" r="5" fill="#2ecc71" opacity="0.9"><title>RF_KILLN VIH_Min | ffss | Chip: 79093</title></circle>
<circle cx="611.0" cy="290.6" r="5" fill="#2ecc71" opacity="0.9"><title>RF_KILLN VIH_Min | ffss | Chip: 79093</title></circle>
<circle cx="963.7" cy="290.6" r="5" fill="#2ecc71" opacity="0.9"><title>RF_KILLN VIH_Min | ffss | Chip: 79093</title></circle>
</g>
<g data-viocore="0.96/1.98">
<path d="M375.9,216.7 L728.6,222.9 L1081.2,216.7" fill="none" stroke="#2ecc71" stroke-width="2.0" stroke-linejoin="round" stroke-dasharray="4,3" opacity="0.85"/>
<circle cx="375.9" cy="216.7" r="5" fill="#2ecc71" opacity="0.9"><title>RF_KILLN VIH_Min | ffss | Chip: 79093</title></circle>
<circle cx="728.6" cy="222.9" r="5" fill="#2ecc71" opacity="0.9"><title>RF_KILLN VIH_Min | ffss | Chip: 79093</title></circle>
<circle cx="1081.2" cy="216.7" r="5" fill="#2ecc71" opacity="0.9"><title>RF_KILLN VIH_Min | ffss | Chip: 79093</title></circle>
</g>
</g>
<g class="series" data-skew="fftt" data-chip="13967">
<g data-viocore="0.64/1.62">
<path d="M140.8,358.4 L493.4,358.4 L846.1,376.9" fill="none" stroke="#9b59b6" stroke-width="2.0" stroke-linejoin="round" stroke-dasharray="10,3,3,3" opacity="0.85"/>
<circle cx="140.8" cy="358.4" r="5" fill="#9b59b6" opacity="0.9"><title>RF_KILLN VIH_Min | fftt | Chip: 13967</title></circle>
<circle cx="493.4" cy="358.4" r="5" fill="#9b59b6" opacity="0.9"><title>RF_KILLN VIH_Min | fftt | Chip: 13967</title></circle>
<circle cx="846.1" cy="376.9" r="5" fill="#9b59b6" opacity="0.9"><title>RF_KILLN VIH_Min | fftt | Chip: 13967</title></circle>
</g>
<g data-viocore="0.8/1.8">
<path d="M258.3,284.5 L611.0,284.5 L963.7,296.8" fill="none" stroke="#9b59b6" stroke-width="2.0" stroke-linejoin="round" stroke-dasharray="10,3,3,3" opacity="0.85"/>
<circle cx="258.3" cy="284.5" r="5" fill="#9b59b6" opacity="0.9"><title>RF_KILLN VIH_Min | fftt | Chip: 13967</title></circle>
<circle cx="611.0" cy="284.5" r="5" fill="#9b59b6" opacity="0.9"><title>RF_KILLN VIH_Min | fftt | Chip: 13967</title></circle>
<circle cx="963.7" cy="296.8" r="5" fill="#9b59b6" opacity="0.9"><title>RF_KILLN VIH_Min | fftt | Chip: 13967</title></circle>
</g>
<g data-viocore="0.96/1.98">
<path d="M375.9,210.6 L728.6,210.6 L1081.2,235.2" fill="none" stroke="#9b59b6" stroke-width="2.0" stroke-linejoin="round" stroke-dasharray="10,3,3,3" opacity="0.85"/>
<circle cx="375.9" cy="210.6" r="5" fill="#9b59b6" opacity="0.9"><title>RF_KILLN VIH_Min | fftt | Chip: 13967</title></circle>
<circle cx="728.6" cy="210.6" r="5" fill="#9b59b6" opacity="0.9"><title>RF_KILLN VIH_Min | fftt | Chip: 13967</title></circle>
<circle cx="1081.2" cy="235.2" r="5" fill="#9b59b6" opacity="0.9"><title>RF_KILLN VIH_Min | fftt | Chip: 13967</title></circle>
</g>
</g>
<g class="series" data-skew="fftt" data-chip="15382">
<g data-viocore="0.64/1.62">
<path d="M140.8,376.9 L493.4,376.9 L846.1,370.7" fill="none" stroke="#e67e22" stroke-width="2.0" stroke-linejoin="round" opacity="0.85"/>
<circle cx="140.8" cy="376.9" r="5" fill="#e67e22" opacity="0.9"><title>RF_KILLN VIH_Min | fftt | Chip: 15382</title></circle>
<circle cx="493.4" cy="376.9" r="5" fill="#e67e22" opacity="0.9"><title>RF_KILLN VIH_Min | fftt | Chip: 15382</title></circle>
<circle cx="846.1" cy="370.7" r="5" fill="#e67e22" opacity="0.9"><title>RF_KILLN VIH_Min | fftt | Chip: 15382</title></circle>
</g>
<g data-viocore="0.8/1.8">
<path d="M258.3,309.1 L611.0,303.0 L963.7,303.0" fill="none" stroke="#e67e22" stroke-width="2.0" stroke-linejoin="round" opacity="0.85"/>
<circle cx="258.3" cy="309.1" r="5" fill="#e67e22" opacity="0.9"><title>RF_KILLN VIH_Min | fftt | Chip: 15382</title></circle>
<circle cx="611.0" cy="303.0" r="5" fill="#e67e22" opacity="0.9"><title>RF_KILLN VIH_Min | fftt | Chip: 15382</title></circle>
<circle cx="963.7" cy="303.0" r="5" fill="#e67e22" opacity="0.9"><title>RF_KILLN VIH_Min | fftt | Chip: 15382</title></circle>
</g>
<g data-viocore="0.96/1.98">
<path d="M375.9,235.2 L728.6,229.0 L1081.2,229.0" fill="none" stroke="#e67e22" stroke-width="2.0" stroke-linejoin="round" opacity="0.85"/>
<circle cx="375.9" cy="235.2" r="5" fill="#e67e22" opacity="0.9"><title>RF_KILLN VIH_Min | fftt | Chip: 15382</title></circle>
<circle cx="728.6" cy="229.0" r="5" fill="#e67e22" opacity="0.9"><title>RF_KILLN VIH_Min | fftt | Chip: 15382</title></circle>
<circle cx="1081.2" cy="229.0" r="5" fill="#e67e22" opacity="0.9"><title>RF_KILLN VIH_Min | fftt | Chip: 15382</title></circle>
</g>
</g>
<g class="series" data-skew="fftt" data-chip="78814">
<g data-viocore="0.64/1.62">
<path d="M140.8,370.7 L493.4,346.1 L846.1,352.2" fill="none" stroke="#1abc9c" stroke-width="2.0" stroke-linejoin="round" stroke-dasharray="8,3" opacity="0.85"/>
<circle cx="140.8" cy="370.7" r="5" fill="#1abc9c" opacity="0.9"><title>RF_KILLN VIH_Min | fftt | Chip: 78814</title></circle>
<circle cx="493.4" cy="346.1" r="5" fill="#1abc9c" opacity="0.9"><title>RF_KILLN VIH_Min | fftt | Chip: 78814</title></circle>
<circle cx="846.1" cy="352.2" r="5" fill="#1abc9c" opacity="0.9"><title>RF_KILLN VIH_Min | fftt | Chip: 78814</title></circle>
</g>
<g data-viocore="0.8/1.8">
<path d="M258.3,272.2 L611.0,296.8 L963.7,284.5" fill="none" stroke="#1abc9c" stroke-width="2.0" stroke-linejoin="round" stroke-dasharray="8,3" opacity="0.85"/>
<circle cx="258.3" cy="272.2" r="5" fill="#1abc9c" opacity="0.9"><title>RF_KILLN VIH_Min | fftt | Chip: 78814</title></circle>
<circle cx="611.0" cy="296.8" r="5" fill="#1abc9c" opacity="0.9"><title>RF_KILLN VIH_Min | fftt | Chip: 78814</title></circle>
<circle cx="963.7" cy="284.5" r="5" fill="#1abc9c" opacity="0.9"><title>RF_KILLN VIH_Min | fftt | Chip: 78814</title></circle>
</g>
<g data-viocore="0.96/1.98">
<path d="M375.9,198.3 L728.6,198.3 L1081.2,198.3" fill="none" stroke="#1abc9c" stroke-width="2.0" stroke-linejoin="round" stroke-dasharray="8,3" opacity="0.85"/>
<circle cx="375.9" cy="198.3" r="5" fill="#1abc9c" opacity="0.9"><title>RF_KILLN VIH_Min | fftt | Chip: 78814</title></circle>
<circle cx="728.6" cy="198.3" r="5" fill="#1abc9c" opacity="0.9"><title>RF_KILLN VIH_Min | fftt | Chip: 78814</title></circle>
<circle cx="1081.2" cy="198.3" r="5" fill="#1abc9c" opacity="0.9"><title>RF_KILLN VIH_Min | fftt | Chip: 78814</title></circle>
</g>
</g>
<g class="series" data-skew="fstt" data-chip="12566">
<g data-viocore="0.64/1.62">
<path d="M140.8,395.3 L493.4,395.3 L846.1,389.2" fill="none" stroke="#c0392b" stroke-width="2.0" stroke-linejoin="round" stroke-dasharray="4,3" opacity="0.85"/>
<circle cx="140.8" cy="395.3" r="5" fill="#c0392b" opacity="0.9"><title>RF_KILLN VIH_Min | fstt | Chip: 12566</title></circle>
<circle cx="493.4" cy="395.3" r="5" fill="#c0392b" opacity="0.9"><title>RF_KILLN VIH_Min | fstt | Chip: 12566</title></circle>
<circle cx="846.1" cy="389.2" r="5" fill="#c0392b" opacity="0.9"><title>RF_KILLN VIH_Min | fstt | Chip: 12566</title></circle>
</g>
<g data-viocore="0.8/1.8">
<path d="M258.3,321.4 L611.0,327.6 L963.7,321.4" fill="none" stroke="#c0392b" stroke-width="2.0" stroke-linejoin="round" stroke-dasharray="4,3" opacity="0.85"/>
<circle cx="258.3" cy="321.4" r="5" fill="#c0392b" opacity="0.9"><title>RF_KILLN VIH_Min | fstt | Chip: 12566</title></circle>
<circle cx="611.0" cy="327.6" r="5" fill="#c0392b" opacity="0.9"><title>RF_KILLN VIH_Min | fstt | Chip: 12566</title></circle>
<circle cx="963.7" cy="321.4" r="5" fill="#c0392b" opacity="0.9"><title>RF_KILLN VIH_Min | fstt | Chip: 12566</title></circle>
</g>
<g data-viocore="0.96/1.98">
<path d="M375.9,259.8 L728.6,247.5 L1081.2,253.7" fill="none" stroke="#c0392b" stroke-width="2.0" stroke-linejoin="round" stroke-dasharray="4,3" opacity="0.85"/>
<circle cx="375.9" cy="259.8" r="5" fill="#c0392b" opacity="0.9"><title>RF_KILLN VIH_Min | fstt | Chip: 12566</title></circle>
<circle cx="728.6" cy="247.5" r="5" fill="#c0392b" opacity="0.9"><title>RF_KILLN VIH_Min | fstt | Chip: 12566</title></circle>
<circle cx="1081.2" cy="253.7" r="5" fill="#c0392b" opacity="0.9"><title>RF_KILLN VIH_Min | fstt | Chip: 12566</title></circle>
</g>
</g>
<g class="series" data-skew="fstt" data-chip="13316">
<g data-viocore="0.64/1.62">
<path d="M140.8,383.0 L493.4,389.2 L846.1,376.9" fill="none" stroke="#2980b9" stroke-width="2.0" stroke-linejoin="round" stroke-dasharray="10,3,3,3" opacity="0.85"/>
<circle cx="140.8" cy="383.0" r="5" fill="#2980b9" opacity="0.9"><title>RF_KILLN VIH_Min | fstt | Chip: 13316</title></circle>
<circle cx="493.4" cy="389.2" r="5" fill="#2980b9" opacity="0.9"><title>RF_KILLN VIH_Min | fstt | Chip: 13316</title></circle>
<circle cx="846.1" cy="376.9" r="5" fill="#2980b9" opacity="0.9"><title>RF_KILLN VIH_Min | fstt | Chip: 13316</title></circle>
</g>
<g data-viocore="0.8/1.8">
<path d="M258.3,321.4 L611.0,309.1 L963.7,303.0" fill="none" stroke="#2980b9" stroke-width="2.0" stroke-linejoin="round" stroke-dasharray="10,3,3,3" opacity="0.85"/>
<circle cx="258.3" cy="321.4" r="5" fill="#2980b9" opacity="0.9"><title>RF_KILLN VIH_Min | fstt | Chip: 13316</title></circle>
<circle cx="611.0" cy="309.1" r="5" fill="#2980b9" opacity="0.9"><title>RF_KILLN VIH_Min | fstt | Chip: 13316</title></circle>
<circle cx="963.7" cy="303.0" r="5" fill="#2980b9" opacity="0.9"><title>RF_KILLN VIH_Min | fstt | Chip: 13316</title></circle>
</g>
<g data-viocore="0.96/1.98">
<path d="M375.9,241.4 L728.6,235.2 L1081.2,241.4" fill="none" stroke="#2980b9" stroke-width="2.0" stroke-linejoin="round" stroke-dasharray="10,3,3,3" opacity="0.85"/>
<circle cx="375.9" cy="241.4" r="5" fill="#2980b9" opacity="0.9"><title>RF_KILLN VIH_Min | fstt | Chip: 13316</title></circle>
<circle cx="728.6" cy="235.2" r="5" fill="#2980b9" opacity="0.9"><title>RF_KILLN VIH_Min | fstt | Chip: 13316</title></circle>
<circle cx="1081.2" cy="241.4" r="5" fill="#2980b9" opacity="0.9"><title>RF_KILLN VIH_Min | fstt | Chip: 13316</title></circle>
</g>
</g>
<g class="series" data-skew="fstt" data-chip="62919">
<g data-viocore="0.64/1.62">
<path d="M140.8,438.4 L493.4,407.7 L846.1,401.5" fill="none" stroke="#27ae60" stroke-width="2.0" stroke-linejoin="round" opacity="0.85"/>
<circle cx="140.8" cy="438.4" r="5" fill="#27ae60" opacity="0.9"><title>RF_KILLN VIH_Min | fstt | Chip: 62919</title></circle>
<circle cx="493.4" cy="407.7" r="5" fill="#27ae60" opacity="0.9"><title>RF_KILLN VIH_Min | fstt | Chip: 62919</title></circle>
<circle cx="846.1" cy="401.5" r="5" fill="#27ae60" opacity="0.9"><title>RF_KILLN VIH_Min | fstt | Chip: 62919</title></circle>
</g>
<g data-viocore="0.8/1.8">
<path d="M258.3,339.9 L611.0,339.9 L963.7,333.7" fill="none" stroke="#27ae60" stroke-width="2.0" stroke-linejoin="round" opacity="0.85"/>
<circle cx="258.3" cy="339.9" r="5" fill="#27ae60" opacity="0.9"><title>RF_KILLN VIH_Min | fstt | Chip: 62919</title></circle>
<circle cx="611.0" cy="339.9" r="5" fill="#27ae60" opacity="0.9"><title>RF_KILLN VIH_Min | fstt | Chip: 62919</title></circle>
<circle cx="963.7" cy="333.7" r="5" fill="#27ae60" opacity="0.9"><title>RF_KILLN VIH_Min | fstt | Chip: 62919</title></circle>
</g>
<g data-viocore="0.96/1.98">
<path d="M375.9,266.0 L728.6,266.0 L1081.2,266.0" fill="none" stroke="#27ae60" stroke-width="2.0" stroke-linejoin="round" opacity="0.85"/>
<circle cx="375.9" cy="266.0" r="5" fill="#27ae60" opacity="0.9"><title>RF_KILLN VIH_Min | fstt | Chip: 62919</title></circle>
<circle cx="728.6" cy="266.0" r="5" fill="#27ae60" opacity="0.9"><title>RF_KILLN VIH_Min | fstt | Chip: 62919</title></circle>
<circle cx="1081.2" cy="266.0" r="5" fill="#27ae60" opacity="0.9"><title>RF_KILLN VIH_Min | fstt | Chip: 62919</title></circle>
</g>
</g>
<g class="series" data-skew="sftt" data-chip="44565">
<g data-viocore="0.64/1.62">
<path d="M140.8,352.2 L493.4,352.2 L846.1,352.2" fill="none" stroke="#8e44ad" stroke-width="2.0" stroke-linejoin="round" stroke-dasharray="8,3" opacity="0.85"/>
<circle cx="140.8" cy="352.2" r="5" fill="#8e44ad" opacity="0.9"><title>RF_KILLN VIH_Min | sftt | Chip: 44565</title></circle>
<circle cx="493.4" cy="352.2" r="5" fill="#8e44ad" opacity="0.9"><title>RF_KILLN VIH_Min | sftt | Chip: 44565</title></circle>
<circle cx="846.1" cy="352.2" r="5" fill="#8e44ad" opacity="0.9"><title>RF_KILLN VIH_Min | sftt | Chip: 44565</title></circle>
</g>
<g data-viocore="0.8/1.8">
<path d="M258.3,290.6 L611.0,284.5 L963.7,278.3" fill="none" stroke="#8e44ad" stroke-width="2.0" stroke-linejoin="round" stroke-dasharray="8,3" opacity="0.85"/>
<circle cx="258.3" cy="290.6" r="5" fill="#8e44ad" opacity="0.9"><title>RF_KILLN VIH_Min | sftt | Chip: 44565</title></circle>
<circle cx="611.0" cy="284.5" r="5" fill="#8e44ad" opacity="0.9"><title>RF_KILLN VIH_Min | sftt | Chip: 44565</title></circle>
<circle cx="963.7" cy="278.3" r="5" fill="#8e44ad" opacity="0.9"><title>RF_KILLN VIH_Min | sftt | Chip: 44565</title></circle>
</g>
<g data-viocore="0.96/1.98">
<path d="M375.9,222.9 L728.6,222.9 L1081.2,210.6" fill="none" stroke="#8e44ad" stroke-width="2.0" stroke-linejoin="round" stroke-dasharray="8,3" opacity="0.85"/>
<circle cx="375.9" cy="222.9" r="5" fill="#8e44ad" opacity="0.9"><title>RF_KILLN VIH_Min | sftt | Chip: 44565</title></circle>
<circle cx="728.6" cy="222.9" r="5" fill="#8e44ad" opacity="0.9"><title>RF_KILLN VIH_Min | sftt | Chip: 44565</title></circle>
<circle cx="1081.2" cy="210.6" r="5" fill="#8e44ad" opacity="0.9"><title>RF_KILLN VIH_Min | sftt | Chip: 44565</title></circle>
</g>
</g>
<g class="series" data-skew="sftt" data-chip="69627">
<g data-viocore="0.64/1.62">
<path d="M140.8,364.5 L493.4,364.5 L846.1,352.2" fill="none" stroke="#d35400" stroke-width="2.0" stroke-linejoin="round" stroke-dasharray="4,3" opacity="0.85"/>
<circle cx="140.8" cy="364.5" r="5" fill="#d35400" opacity="0.9"><title>RF_KILLN VIH_Min | sftt | Chip: 69627</title></circle>
<circle cx="493.4" cy="364.5" r="5" fill="#d35400" opacity="0.9"><title>RF_KILLN VIH_Min | sftt | Chip: 69627</title></circle>
<circle cx="846.1" cy="352.2" r="5" fill="#d35400" opacity="0.9"><title>RF_KILLN VIH_Min | sftt | Chip: 69627</title></circle>
</g>
<g data-viocore="0.8/1.8">
<path d="M258.3,290.6 L611.0,290.6 L963.7,290.6" fill="none" stroke="#d35400" stroke-width="2.0" stroke-linejoin="round" stroke-dasharray="4,3" opacity="0.85"/>
<circle cx="258.3" cy="290.6" r="5" fill="#d35400" opacity="0.9"><title>RF_KILLN VIH_Min | sftt | Chip: 69627</title></circle>
<circle cx="611.0" cy="290.6" r="5" fill="#d35400" opacity="0.9"><title>RF_KILLN VIH_Min | sftt | Chip: 69627</title></circle>
<circle cx="963.7" cy="290.6" r="5" fill="#d35400" opacity="0.9"><title>RF_KILLN VIH_Min | sftt | Chip: 69627</title></circle>
</g>
<g data-viocore="0.96/1.98">
<path d="M375.9,222.9 L728.6,216.7 L1081.2,222.9" fill="none" stroke="#d35400" stroke-width="2.0" stroke-linejoin="round" stroke-dasharray="4,3" opacity="0.85"/>
<circle cx="375.9" cy="222.9" r="5" fill="#d35400" opacity="0.9"><title>RF_KILLN VIH_Min | sftt | Chip: 69627</title></circle>
<circle cx="728.6" cy="216.7" r="5" fill="#d35400" opacity="0.9"><title>RF_KILLN VIH_Min | sftt | Chip: 69627</title></circle>
<circle cx="1081.2" cy="222.9" r="5" fill="#d35400" opacity="0.9"><title>RF_KILLN VIH_Min | sftt | Chip: 69627</title></circle>
</g>
</g>
<g class="series" data-skew="sftt" data-chip="76687">
<g data-viocore="0.64/1.62">
<path d="M140.8,339.9 L493.4,339.9" fill="none" stroke="#16a085" stroke-width="2.0" stroke-linejoin="round" stroke-dasharray="10,3,3,3" opacity="0.85"/>
<circle cx="140.8" cy="339.9" r="5" fill="#16a085" opacity="0.9"><title>RF_KILLN VIH_Min | sftt | Chip: 76687</title></circle>
<circle cx="493.4" cy="339.9" r="5" fill="#16a085" opacity="0.9"><title>RF_KILLN VIH_Min | sftt | Chip: 76687</title></circle>
</g>
<g data-viocore="0.8/1.8">
<path d="M258.3,284.5 L611.0,272.2" fill="none" stroke="#16a085" stroke-width="2.0" stroke-linejoin="round" stroke-dasharray="10,3,3,3" opacity="0.85"/>
<circle cx="258.3" cy="284.5" r="5" fill="#16a085" opacity="0.9"><title>RF_KILLN VIH_Min | sftt | Chip: 76687</title></circle>
<circle cx="611.0" cy="272.2" r="5" fill="#16a085" opacity="0.9"><title>RF_KILLN VIH_Min | sftt | Chip: 76687</title></circle>
</g>
<g data-viocore="0.96/1.98">
<path d="M375.9,198.3 L728.6,204.4" fill="none" stroke="#16a085" stroke-width="2.0" stroke-linejoin="round" stroke-dasharray="10,3,3,3" opacity="0.85"/>
<circle cx="375.9" cy="198.3" r="5" fill="#16a085" opacity="0.9"><title>RF_KILLN VIH_Min | sftt | Chip: 76687</title></circle>
<circle cx="728.6" cy="204.4" r="5" fill="#16a085" opacity="0.9"><title>RF_KILLN VIH_Min | sftt | Chip: 76687</title></circle>
</g>
</g>
<g class="series" data-skew="ssff" data-chip="56508">
<g data-viocore="0.64/1.62">
<path d="M140.8,383.0 L493.4,376.9 L846.1,383.0" fill="none" stroke="#3498db" stroke-width="2.0" stroke-linejoin="round" opacity="0.85"/>
<circle cx="140.8" cy="383.0" r="5" fill="#3498db" opacity="0.9"><title>RF_KILLN VIH_Min | ssff | Chip: 56508</title></circle>
<circle cx="493.4" cy="376.9" r="5" fill="#3498db" opacity="0.9"><title>RF_KILLN VIH_Min | ssff | Chip: 56508</title></circle>
<circle cx="846.1" cy="383.0" r="5" fill="#3498db" opacity="0.9"><title>RF_KILLN VIH_Min | ssff | Chip: 56508</title></circle>
</g>
<g data-viocore="0.8/1.8">
<path d="M258.3,309.1 L611.0,309.1 L963.7,309.1" fill="none" stroke="#3498db" stroke-width="2.0" stroke-linejoin="round" opacity="0.85"/>
<circle cx="258.3" cy="309.1" r="5" fill="#3498db" opacity="0.9"><title>RF_KILLN VIH_Min | ssff | Chip: 56508</title></circle>
<circle cx="611.0" cy="309.1" r="5" fill="#3498db" opacity="0.9"><title>RF_KILLN VIH_Min | ssff | Chip: 56508</title></circle>
<circle cx="963.7" cy="309.1" r="5" fill="#3498db" opacity="0.9"><title>RF_KILLN VIH_Min | ssff | Chip: 56508</title></circle>
</g>
<g data-viocore="0.96/1.98">
<path d="M375.9,241.4 L728.6,241.4 L1081.2,241.4" fill="none" stroke="#3498db" stroke-width="2.0" stroke-linejoin="round" opacity="0.85"/>
<circle cx="375.9" cy="241.4" r="5" fill="#3498db" opacity="0.9"><title>RF_KILLN VIH_Min | ssff | Chip: 56508</title></circle>
<circle cx="728.6" cy="241.4" r="5" fill="#3498db" opacity="0.9"><title>RF_KILLN VIH_Min | ssff | Chip: 56508</title></circle>
<circle cx="1081.2" cy="241.4" r="5" fill="#3498db" opacity="0.9"><title>RF_KILLN VIH_Min | ssff | Chip: 56508</title></circle>
</g>
</g>
<g class="series" data-skew="ssff" data-chip="57571">
<g data-viocore="0.64/1.62">
<path d="M140.8,389.2 L493.4,395.3 L846.1,383.0" fill="none" stroke="#e74c3c" stroke-width="2.0" stroke-linejoin="round" stroke-dasharray="8,3" opacity="0.85"/>
<circle cx="140.8" cy="389.2" r="5" fill="#e74c3c" opacity="0.9"><title>RF_KILLN VIH_Min | ssff | Chip: 57571</title></circle>
<circle cx="493.4" cy="395.3" r="5" fill="#e74c3c" opacity="0.9"><title>RF_KILLN VIH_Min | ssff | Chip: 57571</title></circle>
<circle cx="846.1" cy="383.0" r="5" fill="#e74c3c" opacity="0.9"><title>RF_KILLN VIH_Min | ssff | Chip: 57571</title></circle>
</g>
<g data-viocore="0.8/1.8">
<path d="M258.3,321.4 L611.0,321.4 L963.7,321.4" fill="none" stroke="#e74c3c" stroke-width="2.0" stroke-linejoin="round" stroke-dasharray="8,3" opacity="0.85"/>
<circle cx="258.3" cy="321.4" r="5" fill="#e74c3c" opacity="0.9"><title>RF_KILLN VIH_Min | ssff | Chip: 57571</title></circle>
<circle cx="611.0" cy="321.4" r="5" fill="#e74c3c" opacity="0.9"><title>RF_KILLN VIH_Min | ssff | Chip: 57571</title></circle>
<circle cx="963.7" cy="321.4" r="5" fill="#e74c3c" opacity="0.9"><title>RF_KILLN VIH_Min | ssff | Chip: 57571</title></circle>
</g>
<g data-viocore="0.96/1.98">
<path d="M375.9,253.7 L728.6,259.8 L1081.2,241.4" fill="none" stroke="#e74c3c" stroke-width="2.0" stroke-linejoin="round" stroke-dasharray="8,3" opacity="0.85"/>
<circle cx="375.9" cy="253.7" r="5" fill="#e74c3c" opacity="0.9"><title>RF_KILLN VIH_Min | ssff | Chip: 57571</title></circle>
<circle cx="728.6" cy="259.8" r="5" fill="#e74c3c" opacity="0.9"><title>RF_KILLN VIH_Min | ssff | Chip: 57571</title></circle>
<circle cx="1081.2" cy="241.4" r="5" fill="#e74c3c" opacity="0.9"><title>RF_KILLN VIH_Min | ssff | Chip: 57571</title></circle>
</g>
</g>
<g class="series" data-skew="ssff" data-chip="96040">
<g data-viocore="0.64/1.62">
<path d="M140.8,383.0 L493.4,383.0 L846.1,376.9" fill="none" stroke="#2ecc71" stroke-width="2.0" stroke-linejoin="round" stroke-dasharray="4,3" opacity="0.85"/>
<circle cx="140.8" cy="383.0" r="5" fill="#2ecc71" opacity="0.9"><title>RF_KILLN VIH_Min | ssff | Chip: 96040</title></circle>
<circle cx="493.4" cy="383.0" r="5" fill="#2ecc71" opacity="0.9"><title>RF_KILLN VIH_Min | ssff | Chip: 96040</title></circle>
<circle cx="846.1" cy="376.9" r="5" fill="#2ecc71" opacity="0.9"><title>RF_KILLN VIH_Min | ssff | Chip: 96040</title></circle>
</g>
<g data-viocore="0.8/1.8">
<path d="M258.3,321.4 L611.0,309.1 L963.7,309.1" fill="none" stroke="#2ecc71" stroke-width="2.0" stroke-linejoin="round" stroke-dasharray="4,3" opacity="0.85"/>
<circle cx="258.3" cy="321.4" r="5" fill="#2ecc71" opacity="0.9"><title>RF_KILLN VIH_Min | ssff | Chip: 96040</title></circle>
<circle cx="611.0" cy="309.1" r="5" fill="#2ecc71" opacity="0.9"><title>RF_KILLN VIH_Min | ssff | Chip: 96040</title></circle>
<circle cx="963.7" cy="309.1" r="5" fill="#2ecc71" opacity="0.9"><title>RF_KILLN VIH_Min | ssff | Chip: 96040</title></circle>
</g>
<g data-viocore="0.96/1.98">
<path d="M375.9,241.4 L728.6,241.4 L1081.2,235.2" fill="none" stroke="#2ecc71" stroke-width="2.0" stroke-linejoin="round" stroke-dasharray="4,3" opacity="0.85"/>
<circle cx="375.9" cy="241.4" r="5" fill="#2ecc71" opacity="0.9"><title>RF_KILLN VIH_Min | ssff | Chip: 96040</title></circle>
<circle cx="728.6" cy="241.4" r="5" fill="#2ecc71" opacity="0.9"><title>RF_KILLN VIH_Min | ssff | Chip: 96040</title></circle>
<circle cx="1081.2" cy="235.2" r="5" fill="#2ecc71" opacity="0.9"><title>RF_KILLN VIH_Min | ssff | Chip: 96040</title></circle>
</g>
</g>
<g class="series" data-skew="sstt" data-chip="29674">
<g data-viocore="0.64/1.62">
<path d="M140.8,370.7 L493.4,370.7 L846.1,364.5" fill="none" stroke="#9b59b6" stroke-width="2.0" stroke-linejoin="round" stroke-dasharray="10,3,3,3" opacity="0.85"/>
<circle cx="140.8" cy="370.7" r="5" fill="#9b59b6" opacity="0.9"><title>RF_KILLN VIH_Min | sstt | Chip: 29674</title></circle>
<circle cx="493.4" cy="370.7" r="5" fill="#9b59b6" opacity="0.9"><title>RF_KILLN VIH_Min | sstt | Chip: 29674</title></circle>
<circle cx="846.1" cy="364.5" r="5" fill="#9b59b6" opacity="0.9"><title>RF_KILLN VIH_Min | sstt | Chip: 29674</title></circle>
</g>
<g data-viocore="0.8/1.8">
<path d="M258.3,296.8 L611.0,303.0 L963.7,296.8" fill="none" stroke="#9b59b6" stroke-width="2.0" stroke-linejoin="round" stroke-dasharray="10,3,3,3" opacity="0.85"/>
<circle cx="258.3" cy="296.8" r="5" fill="#9b59b6" opacity="0.9"><title>RF_KILLN VIH_Min | sstt | Chip: 29674</title></circle>
<circle cx="611.0" cy="303.0" r="5" fill="#9b59b6" opacity="0.9"><title>RF_KILLN VIH_Min | sstt | Chip: 29674</title></circle>
<circle cx="963.7" cy="296.8" r="5" fill="#9b59b6" opacity="0.9"><title>RF_KILLN VIH_Min | sstt | Chip: 29674</title></circle>
</g>
<g data-viocore="0.96/1.98">
<path d="M375.9,235.2 L728.6,241.4 L1081.2,229.0" fill="none" stroke="#9b59b6" stroke-width="2.0" stroke-linejoin="round" stroke-dasharray="10,3,3,3" opacity="0.85"/>
<circle cx="375.9" cy="235.2" r="5" fill="#9b59b6" opacity="0.9"><title>RF_KILLN VIH_Min | sstt | Chip: 29674</title></circle>
<circle cx="728.6" cy="241.4" r="5" fill="#9b59b6" opacity="0.9"><title>RF_KILLN VIH_Min | sstt | Chip: 29674</title></circle>
<circle cx="1081.2" cy="229.0" r="5" fill="#9b59b6" opacity="0.9"><title>RF_KILLN VIH_Min | sstt | Chip: 29674</title></circle>
</g>
</g>
<g class="series" data-skew="sstt" data-chip="58046">
<g data-viocore="0.64/1.62">
<path d="M140.8,383.0 L493.4,383.0 L846.1,376.9" fill="none" stroke="#e67e22" stroke-width="2.0" stroke-linejoin="round" opacity="0.85"/>
<circle cx="140.8" cy="383.0" r="5" fill="#e67e22" opacity="0.9"><title>RF_KILLN VIH_Min | sstt | Chip: 58046</title></circle>
<circle cx="493.4" cy="383.0" r="5" fill="#e67e22" opacity="0.9"><title>RF_KILLN VIH_Min | sstt | Chip: 58046</title></circle>
<circle cx="846.1" cy="376.9" r="5" fill="#e67e22" opacity="0.9"><title>RF_KILLN VIH_Min | sstt | Chip: 58046</title></circle>
</g>
<g data-viocore="0.8/1.8">
<path d="M258.3,315.3 L611.0,321.4 L963.7,309.1" fill="none" stroke="#e67e22" stroke-width="2.0" stroke-linejoin="round" opacity="0.85"/>
<circle cx="258.3" cy="315.3" r="5" fill="#e67e22" opacity="0.9"><title>RF_KILLN VIH_Min | sstt | Chip: 58046</title></circle>
<circle cx="611.0" cy="321.4" r="5" fill="#e67e22" opacity="0.9"><title>RF_KILLN VIH_Min | sstt | Chip: 58046</title></circle>
<circle cx="963.7" cy="309.1" r="5" fill="#e67e22" opacity="0.9"><title>RF_KILLN VIH_Min | sstt | Chip: 58046</title></circle>
</g>
<g data-viocore="0.96/1.98">
<path d="M375.9,278.3 L728.6,235.2 L1081.2,241.4" fill="none" stroke="#e67e22" stroke-width="2.0" stroke-linejoin="round" opacity="0.85"/>
<circle cx="375.9" cy="278.3" r="5" fill="#e67e22" opacity="0.9"><title>RF_KILLN VIH_Min | sstt | Chip: 58046</title></circle>
<circle cx="728.6" cy="235.2" r="5" fill="#e67e22" opacity="0.9"><title>RF_KILLN VIH_Min | sstt | Chip: 58046</title></circle>
<circle cx="1081.2" cy="241.4" r="5" fill="#e67e22" opacity="0.9"><title>RF_KILLN VIH_Min | sstt | Chip: 58046</title></circle>
</g>
</g>
<g class="series" data-skew="sstt" data-chip="9808">
<g data-viocore="0.64/1.62">
<path d="M140.8,389.2 L493.4,395.3 L846.1,389.2" fill="none" stroke="#1abc9c" stroke-width="2.0" stroke-linejoin="round" stroke-dasharray="8,3" opacity="0.85"/>
<circle cx="140.8" cy="389.2" r="5" fill="#1abc9c" opacity="0.9"><title>RF_KILLN VIH_Min | sstt | Chip: 9808</title></circle>
<circle cx="493.4" cy="395.3" r="5" fill="#1abc9c" opacity="0.9"><title>RF_KILLN VIH_Min | sstt | Chip: 9808</title></circle>
<circle cx="846.1" cy="389.2" r="5" fill="#1abc9c" opacity="0.9"><title>RF_KILLN VIH_Min | sstt | Chip: 9808</title></circle>
</g>
<g data-viocore="0.8/1.8">
<path d="M258.3,321.4 L611.0,321.4 L963.7,315.3" fill="none" stroke="#1abc9c" stroke-width="2.0" stroke-linejoin="round" stroke-dasharray="8,3" opacity="0.85"/>
<circle cx="258.3" cy="321.4" r="5" fill="#1abc9c" opacity="0.9"><title>RF_KILLN VIH_Min | sstt | Chip: 9808</title></circle>
<circle cx="611.0" cy="321.4" r="5" fill="#1abc9c" opacity="0.9"><title>RF_KILLN VIH_Min | sstt | Chip: 9808</title></circle>
<circle cx="963.7" cy="315.3" r="5" fill="#1abc9c" opacity="0.9"><title>RF_KILLN VIH_Min | sstt | Chip: 9808</title></circle>
</g>
<g data-viocore="0.96/1.98">
<path d="M375.9,253.7 L728.6,247.5 L1081.2,253.7" fill="none" stroke="#1abc9c" stroke-width="2.0" stroke-linejoin="round" stroke-dasharray="8,3" opacity="0.85"/>
<circle cx="375.9" cy="253.7" r="5" fill="#1abc9c" opacity="0.9"><title>RF_KILLN VIH_Min | sstt | Chip: 9808</title></circle>
<circle cx="728.6" cy="247.5" r="5" fill="#1abc9c" opacity="0.9"><title>RF_KILLN VIH_Min | sstt | Chip: 9808</title></circle>
<circle cx="1081.2" cy="253.7" r="5" fill="#1abc9c" opacity="0.9"><title>RF_KILLN VIH_Min | sstt | Chip: 9808</title></circle>
</g>
</g>
<g class="spec-el">
<line x1="82.0" y1="136.7" x2="1140.0" y2="136.7" stroke="#ff6d00" stroke-width="4"/>
<text x="1145.0" y="140.7" font-size="9" font-weight="normal" text-anchor="start" fill="#ff6d00" font-family="Arial,sans-serif">Max spec: 1.26</text>
</g>
<g class="legend-item" data-skew="ffss" data-chip="25679">
<line x1="1148" y1="77" x2="1176" y2="77" stroke="#3498db" stroke-width="2.0" />
<circle cx="1162" cy="77" r="5" fill="#3498db"/>
<text x="1180" y="81" font-size="10" font-family="Arial,sans-serif" fill="#2c3e50">25679 | ffss</text>
</g>
<g class="legend-item" data-skew="ffss" data-chip="43407">
<line x1="1148" y1="99" x2="1176" y2="99" stroke="#e74c3c" stroke-width="2.0" stroke-dasharray="8,3" />
<circle cx="1162" cy="99" r="5" fill="#e74c3c"/>
<text x="1180" y="103" font-size="10" font-family="Arial,sans-serif" fill="#2c3e50">43407 | ffss</text>
</g>
<g class="legend-item" data-skew="ffss" data-chip="79093">
<line x1="1148" y1="121" x2="1176" y2="121" stroke="#2ecc71" stroke-width="2.0" stroke-dasharray="4,3" />
<circle cx="1162" cy="121" r="5" fill="#2ecc71"/>
<text x="1180" y="125" font-size="10" font-family="Arial,sans-serif" fill="#2c3e50">79093 | ffss</text>
</g>
<g class="legend-item" data-skew="fftt" data-chip="13967">
<line x1="1148" y1="143" x2="1176" y2="143" stroke="#9b59b6" stroke-width="2.0" stroke-dasharray="10,3,3,3" />
<circle cx="1162" cy="143" r="5" fill="#9b59b6"/>
<text x="1180" y="147" font-size="10" font-family="Arial,sans-serif" fill="#2c3e50">13967 | fftt</text>
</g>
<g class="legend-item" data-skew="fftt" data-chip="15382">
<line x1="1148" y1="165" x2="1176" y2="165" stroke="#e67e22" stroke-width="2.0" />
<circle cx="1162" cy="165" r="5" fill="#e67e22"/>
<text x="1180" y="169" font-size="10" font-family="Arial,sans-serif" fill="#2c3e50">15382 | fftt</text>
</g>
<g class="legend-item" data-skew="fftt" data-chip="78814">
<line x1="1148" y1="187" x2="1176" y2="187" stroke="#1abc9c" stroke-width="2.0" stroke-dasharray="8,3" />
<circle cx="1162" cy="187" r="5" fill="#1abc9c"/>
<text x="1180" y="191" font-size="10" font-family="Arial,sans-serif" fill="#2c3e50">78814 | fftt</text>
</g>
<g class="legend-item" data-skew="fstt" data-chip="12566">
<line x1="1148" y1="209" x2="1176" y2="209" stroke="#c0392b" stroke-width="2.0" stroke-dasharray="4,3" />
<circle cx="1162" cy="209" r="5" fill="#c0392b"/>
<text x="1180" y="213" font-size="10" font-family="Arial,sans-serif" fill="#2c3e50">12566 | fstt</text>
</g>
<g class="legend-item" data-skew="fstt" data-chip="13316">
<line x1="1148" y1="231" x2="1176" y2="231" stroke="#2980b9" stroke-width="2.0" stroke-dasharray="10,3,3,3" />
<circle cx="1162" cy="231" r="5" fill="#2980b9"/>
<text x="1180" y="235" font-size="10" font-family="Arial,sans-serif" fill="#2c3e50">13316 | fstt</text>
</g>
<g class="legend-item" data-skew="fstt" data-chip="62919">
<line x1="1148" y1="253" x2="1176" y2="253" stroke="#27ae60" stroke-width="2.0" />
<circle cx="1162" cy="253" r="5" fill="#27ae60"/>
<text x="1180" y="257" font-size="10" font-family="Arial,sans-serif" fill="#2c3e50">62919 | fstt</text>
</g>
<g class="legend-item" data-skew="sftt" data-chip="44565">
<line x1="1148" y1="275" x2="1176" y2="275" stroke="#8e44ad" stroke-width="2.0" stroke-dasharray="8,3" />
<circle cx="1162" cy="275" r="5" fill="#8e44ad"/>
<text x="1180" y="279" font-size="10" font-family="Arial,sans-serif" fill="#2c3e50">44565 | sftt</text>
</g>
<g class="legend-item" data-skew="sftt" data-chip="69627">
<line x1="1148" y1="297" x2="1176" y2="297" stroke="#d35400" stroke-width="2.0" stroke-dasharray="4,3" />
<circle cx="1162" cy="297" r="5" fill="#d35400"/>
<text x="1180" y="301" font-size="10" font-family="Arial,sans-serif" fill="#2c3e50">69627 | sftt</text>
</g>
<g class="legend-item" data-skew="sftt" data-chip="76687">
<line x1="1148" y1="319" x2="1176" y2="319" stroke="#16a085" stroke-width="2.0" stroke-dasharray="10,3,3,3" />
<circle cx="1162" cy="319" r="5" fill="#16a085"/>
<text x="1180" y="323" font-size="10" font-family="Arial,sans-serif" fill="#2c3e50">76687 | sftt</text>
</g>
<g class="legend-item" data-skew="ssff" data-chip="56508">
<line x1="1148" y1="341" x2="1176" y2="341" stroke="#3498db" stroke-width="2.0" />
<circle cx="1162" cy="341" r="5" fill="#3498db"/>
<text x="1180" y="345" font-size="10" font-family="Arial,sans-serif" fill="#2c3e50">56508 | ssff</text>
</g>
<g class="legend-item" data-skew="ssff" data-chip="57571">
<line x1="1148" y1="363" x2="1176" y2="363" stroke="#e74c3c" stroke-width="2.0" stroke-dasharray="8,3" />
<circle cx="1162" cy="363" r="5" fill="#e74c3c"/>
<text x="1180" y="367" font-size="10" font-family="Arial,sans-serif" fill="#2c3e50">57571 | ssff</text>
</g>
<g class="legend-item" data-skew="ssff" data-chip="96040">
<line x1="1148" y1="385" x2="1176" y2="385" stroke="#2ecc71" stroke-width="2.0" stroke-dasharray="4,3" />
<circle cx="1162" cy="385" r="5" fill="#2ecc71"/>
<text x="1180" y="389" font-size="10" font-family="Arial,sans-serif" fill="#2c3e50">96040 | ssff</text>
</g>
<g class="legend-item" data-skew="sstt" data-chip="29674">
<line x1="1148" y1="407" x2="1176" y2="407" stroke="#9b59b6" stroke-width="2.0" stroke-dasharray="10,3,3,3" />
<circle cx="1162" cy="407" r="5" fill="#9b59b6"/>
<text x="1180" y="411" font-size="10" font-family="Arial,sans-serif" fill="#2c3e50">29674 | sstt</text>
</g>
<g class="legend-item" data-skew="sstt" data-chip="58046">
<line x1="1148" y1="429" x2="1176" y2="429" stroke="#e67e22" stroke-width="2.0" />
<circle cx="1162" cy="429" r="5" fill="#e67e22"/>
<text x="1180" y="433" font-size="10" font-family="Arial,sans-serif" fill="#2c3e50">58046 | sstt</text>
</g>
<g class="legend-item" data-skew="sstt" data-chip="9808">
<line x1="1148" y1="451" x2="1176" y2="451" stroke="#1abc9c" stroke-width="2.0" stroke-dasharray="8,3" />
<circle cx="1162" cy="451" r="5" fill="#1abc9c"/>
<text x="1180" y="455" font-size="10" font-family="Arial,sans-serif" fill="#2c3e50">9808 | sstt</text>
</g>
</svg>