<svg xmlns="http://www.w3.org/2000/svg" width="1400" height="560" viewBox="0 0 1400 560">
<rect width="1400" height="560" fill="#ffffff"/>
<text x="700.0" y="28.0" font-size="16" font-weight="bold" text-anchor="middle" fill="#2c3e50" font-family="Arial,sans-serif">GPIO_0  [PB16DSFS_18_18_H] — R_PullDown (kOhm)  [Pull-up/Pull-down Resistance]</text>
<line x1="82.0" y1="460.0" x2="1140.0" y2="460.0" stroke="#999" stroke-width="1"/>
<line x1="82.0" y1="72.0" x2="82.0" y2="460.0" stroke="#999" stroke-width="1"/>
<line x1="82.0" y1="72.0" x2="82.0" y2="460.0" stroke="#999" stroke-width="1"/>
<line x1="77.0" y1="460.0" x2="82.0" y2="460.0" stroke="#999" stroke-width="1"/>
<line x1="82.0" y1="460.0" x2="1140.0" y2="460.0" stroke="#e0e0e0" stroke-width="0.8" stroke-dasharray="3,3"/>
<text x="74.0" y="464.0" font-size="9" font-weight="normal" text-anchor="end" fill="#7f8c8d" font-family="Arial,sans-serif">20</text>
<line x1="77.0" y1="382.4" x2="82.0" y2="382.4" stroke="#999" stroke-width="1"/>
<line x1="82.0" y1="382.4" x2="1140.0" y2="382.4" stroke="#e0e0e0" stroke-width="0.8" stroke-dasharray="3,3"/>
<text x="74.0" y="386.4" font-size="9" font-weight="normal" text-anchor="end" fill="#7f8c8d" font-family="Arial,sans-serif">32</text>
<line x1="77.0" y1="304.8" x2="82.0" y2="304.8" stroke="#999" stroke-width="1"/>
<line x1="82.0" y1="304.8" x2="1140.0" y2="304.8" stroke="#e0e0e0" stroke-width="0.8" stroke-dasharray="3,3"/>
<text x="74.0" y="308.8" font-size="9" font-weight="normal" text-anchor="end" fill="#7f8c8d" font-family="Arial,sans-serif">44</text>
<line x1="77.0" y1="227.2" x2="82.0" y2="227.2" stroke="#999" stroke-width="1"/>
<line x1="82.0" y1="227.2" x2="1140.0" y2="227.2" stroke="#e0e0e0" stroke-width="0.8" stroke-dasharray="3,3"/>
<text x="74.0" y="231.2" font-size="9" font-weight="normal" text-anchor="end" fill="#7f8c8d" font-family="Arial,sans-serif">56</text>
<line x1="77.0" y1="149.6" x2="82.0" y2="149.6" stroke="#999" stroke-width="1"/>
<line x1="82.0" y1="149.6" x2="1140.0" y2="149.6" stroke="#e0e0e0" stroke-width="0.8" stroke-dasharray="3,3"/>
<text x="74.0" y="153.6" font-size="9" font-weight="normal" text-anchor="end" fill="#7f8c8d" font-family="Arial,sans-serif">68</text>
<line x1="77.0" y1="72.0" x2="82.0" y2="72.0" stroke="#999" stroke-width="1"/>
<line x1="82.0" y1="72.0" x2="1140.0" y2="72.0" stroke="#e0e0e0" stroke-width="0.8" stroke-dasharray="3,3"/>
<text x="74.0" y="76.0" font-size="9" font-weight="normal" text-anchor="end" fill="#7f8c8d" font-family="Arial,sans-serif">80</text>
<text x="14.0" y="266.0" font-size="10" font-weight="normal" text-anchor="middle" fill="#7f8c8d" font-family="Arial,sans-serif" transform="rotate(-90,14,266.0)">R_PullDown (kOhm)</text>
<text x="140.8" y="474.0" font-size="8" font-weight="normal" text-anchor="end" fill="#333" font-family="Arial,sans-serif" transform="rotate(-45,140.8,474)">VIO=1.62
VC=0.64</text>
<text x="258.3" y="474.0" font-size="8" font-weight="normal" text-anchor="end" fill="#333" font-family="Arial,sans-serif" transform="rotate(-45,258.3,474)">VIO=1.8
VC=0.8</text>
<text x="375.9" y="474.0" font-size="8" font-weight="normal" text-anchor="end" fill="#333" font-family="Arial,sans-serif" transform="rotate(-45,375.9,474)">VIO=1.98
VC=0.96</text>
<line x1="434.7" y1="72.0" x2="434.7" y2="460.0" stroke="#cccccc" stroke-width="1" stroke-dasharray="4,3"/>
<text x="493.4" y="474.0" font-size="8" font-weight="normal" text-anchor="end" fill="#333" font-family="Arial,sans-serif" transform="rotate(-45,493.4,474)">VIO=1.62
VC=0.64</text>
<text x="611.0" y="474.0" font-size="8" font-weight="normal" text-anchor="end" fill="#333" font-family="Arial,sans-serif" transform="rotate(-45,611.0,474)">VIO=1.8
VC=0.8</text>
<text x="728.6" y="474.0" font-size="8" font-weight="normal" text-anchor="end" fill="#333" font-family="Arial,sans-serif" transform="rotate(-45,728.6,474)">VIO=1.98
VC=0.96</text>
<line x1="787.3" y1="72.0" x2="787.3" y2="460.0" stroke="#cccccc" stroke-width="1" stroke-dasharray="4,3"/>
<text x="846.1" y="474.0" font-size="8" font-weight="normal" text-anchor="end" fill="#333" font-family="Arial,sans-serif" transform="rotate(-45,846.1,474)">VIO=1.62
VC=0.64</text>
<text x="963.7" y="474.0" font-size="8" font-weight="normal" text-anchor="end" fill="#333" font-family="Arial,sans-serif" transform="rotate(-45,963.7,474)">VIO=1.8
VC=0.8</text>
<text x="1081.2" y="474.0" font-size="8" font-weight="normal" text-anchor="end" fill="#333" font-family="Arial,sans-serif" transform="rotate(-45,1081.2,474)">VIO=1.98
VC=0.96</text>
<text x="258.3" y="62.0" font-size="10" font-weight="bold" text-anchor="middle" fill="#2c3e50" font-family="Arial,sans-serif">T=0°C</text>
<text x="611.0" y="62.0" font-size="10" font-weight="bold" text-anchor="middle" fill="#2c3e50" font-family="Arial,sans-serif">T=20°C</text>
<text x="963.7" y="62.0" font-size="10" font-weight="bold" text-anchor="middle" fill="#2c3e50" font-family="Arial,sans-serif">T=80°C</text>
<g class="series" data-skew="ffss" data-chip="25679">
<path d="M140.8,339.6 L258.3,340.5 L375.9,341.7 L493.4,341.7 L611.0,342.8 L728.6,344.1 L846.1,374.1 L963.7,375.3 L1081.2,377.3" fill="none" stroke="#3498db" stroke-width="2.0" stroke-linejoin="round" opacity="0.85"/>
<circle cx="140.8" cy="339.6" r="5" fill="#3498db" opacity="0.9"><title>GPIO_0 R_PullDown | ffss | Chip: 25679</title></circle>
<circle cx="258.3" cy="340.5" r="5" fill="#3498db" opacity="0.9"><title>GPIO_0 R_PullDown | ffss | Chip: 25679</title></circle>
<circle cx="375.9" cy="341.7" r="5" fill="#3498db" opacity="0.9"><title>GPIO_0 R_PullDown | ffss | Chip: 25679</title></circle>
<circle cx="493.4" cy="341.7" r="5" fill="#3498db" opacity="0.9"><title>GPIO_0 R_PullDown | ffss | Chip: 25679</title></circle>
<circle cx="611.0" cy="342.8" r="5" fill="#3498db" opacity="0.9"><title>GPIO_0 R_PullDown | ffss | Chip: 25679</title></circle>
<circle cx="728.6" cy="344.1" r="5" fill="#3498db" opacity="0.9"><title>GPIO_0 R_PullDown | ffss | Chip: 25679</title></circle>
<circle cx="846.1" cy="374.1" r="5" fill="#3498db" opacity="0.9"><title>GPIO_0 R_PullDown | ffss | Chip: 25679</title></circle>
<circle cx="963.7" cy="375.3" r="5" fill="#3498db" opacity="0.9"><title>GPIO_0 R_PullDown | ffss | Chip: 25679</title></circle>
<circle cx="1081.2" cy="377.3" r="5" fill="#3498db" opacity="0.9"><title>GPIO_0 R_PullDown | ffss | Chip: 25679</title></circle>
</g>
<g class="series" data-skew="ffss" data-chip="43407">
<path d="M140.8,337.8 L258.3,338.8 L375.9,350.2 L493.4,340.5 L611.0,341.7 L728.6,343.3 L846.1,378.5 L963.7,379.9 L1081.2,381.7" fill="none" stroke="#e74c3c" stroke-width="2.0" stroke-linejoin="round" stroke-dasharray="8,3" opacity="0.85"/>
<circle cx="140.8" cy="337.8" r="5" fill="#e74c3c" opacity="0.9"><title>GPIO_0 R_PullDown | ffss | Chip: 43407</title></circle>
<circle cx="258.3" cy="338.8" r="5" fill="#e74c3c" opacity="0.9"><title>GPIO_0 R_PullDown | ffss | Chip: 43407</title></circle>
<circle cx="375.9" cy="350.2" r="5" fill="#e74c3c" opacity="0.9"><title>GPIO_0 R_PullDown | ffss | Chip: 43407</title></circle>
<circle cx="493.4" cy="340.5" r="5" fill="#e74c3c" opacity="0.9"><title>GPIO_0 R_PullDown | ffss | Chip: 43407</title></circle>
<circle cx="611.0" cy="341.7" r="5" fill="#e74c3c" opacity="0.9"><title>GPIO_0 R_PullDown | ffss | Chip: 43407</title></circle>
<circle cx="728.6" cy="343.3" r="5" fill="#e74c3c" opacity="0.9"><title>GPIO_0 R_PullDown | ffss | Chip: 43407</title></circle>
<circle cx="846.1" cy="378.5" r="5" fill="#e74c3c" opacity="0.9"><title>GPIO_0 R_PullDown | ffss | Chip: 43407</title></circle>
<circle cx="963.7" cy="379.9" r="5" fill="#e74c3c" opacity="0.9"><title>GPIO_0 R_PullDown | ffss | Chip: 43407</title></circle>
<circle cx="1081.2" cy="381.7" r="5" fill="#e74c3c" opacity="0.9"><title>GPIO_0 R_PullDown | ffss | Chip: 43407</title></circle>
</g>
<g class="series" data-skew="ffss" data-chip="79093">
<path d="M140.8,334.4 L258.3,340.5 L375.9,337.2 L493.4,337.2 L611.0,338.4 L728.6,340.2 L846.1,374.5 L963.7,375.9 L1081.2,378.2" fill="none" stroke="#2ecc71" stroke-width="2.0" stroke-linejoin="round" stroke-dasharray="4,3" opacity="0.85"/>
<circle cx="140.8" cy="334.4" r="5" fill="#2ecc71" opacity="0.9"><title>GPIO_0 R_PullDown | ffss | Chip: 79093</title></circle>
<circle cx="258.3" cy="340.5" r="5" fill="#2ecc71" opacity="0.9"><title>GPIO_0 R_PullDown | ffss | Chip: 79093</title></circle>
<circle cx="375.9" cy="337.2" r="5" fill="#2ecc71" opacity="0.9"><title>GPIO_0 R_PullDown | ffss | Chip: 79093</title></circle>
<circle cx="493.4" cy="337.2" r="5" fill="#2ecc71" opacity="0.9"><title>GPIO_0 R_PullDown | ffss | Chip: 79093</title></circle>
<circle cx="611.0" cy="338.4" r="5" fill="#2ecc71" opacity="0.9"><title>GPIO_0 R_PullDown | ffss | Chip: 79093</title></circle>
<circle cx="728.6" cy="340.2" r="5" fill="#2ecc71" opacity="0.9"><title>GPIO_0 R_PullDown | ffss | Chip: 79093</title></circle>
<circle cx="846.1" cy="374.5" r="5" fill="#2ecc71" opacity="0.9"><title>GPIO_0 R_PullDown | ffss | Chip: 79093</title></circle>
<circle cx="963.7" cy="375.9" r="5" fill="#2ecc71" opacity="0.9"><title>GPIO_0 R_PullDown | ffss | Chip: 79093</title></circle>
<circle cx="1081.2" cy="378.2" r="5" fill="#2ecc71" opacity="0.9"><title>GPIO_0 R_PullDown | ffss | Chip: 79093</title></circle>
</g>
<g class="series" data-skew="fftt" data-chip="13967">
<path d="M140.8,344.4 L258.3,345.3 L375.9,346.8 L493.4,346.1 L611.0,347.3 L728.6,349.1 L846.1,371.6 L963.7,372.9 L1081.2,375.0" fill="none" stroke="#9b59b6" stroke-width="2.0" stroke-linejoin="round" stroke-dasharray="10,3,3,3" opacity="0.85"/>
<circle cx="140.8" cy="344.4" r="5" fill="#9b59b6" opacity="0.9"><title>GPIO_0 R_PullDown | fftt | Chip: 13967</title></circle>
<circle cx="258.3" cy="345.3" r="5" fill="#9b59b6" opacity="0.9"><title>GPIO_0 R_PullDown | fftt | Chip: 13967</title></circle>
<circle cx="375.9" cy="346.8" r="5" fill="#9b59b6" opacity="0.9"><title>GPIO_0 R_PullDown | fftt | Chip: 13967</title></circle>
<circle cx="493.4" cy="346.1" r="5" fill="#9b59b6" opacity="0.9"><title>GPIO_0 R_PullDown | fftt | Chip: 13967</title></circle>
<circle cx="611.0" cy="347.3" r="5" fill="#9b59b6" opacity="0.9"><title>GPIO_0 R_PullDown | fftt | Chip: 13967</title></circle>
<circle cx="728.6" cy="349.1" r="5" fill="#9b59b6" opacity="0.9"><title>GPIO_0 R_PullDown | fftt | Chip: 13967</title></circle>
<circle cx="846.1" cy="371.6" r="5" fill="#9b59b6" opacity="0.9"><title>GPIO_0 R_PullDown | fftt | Chip: 13967</title></circle>
<circle cx="963.7" cy="372.9" r="5" fill="#9b59b6" opacity="0.9"><title>GPIO_0 R_PullDown | fftt | Chip: 13967</title></circle>
<circle cx="1081.2" cy="375.0" r="5" fill="#9b59b6" opacity="0.9"><title>GPIO_0 R_PullDown | fftt | Chip: 13967</title></circle>
</g>
<g class="series" data-skew="fftt" data-chip="15382">
<path d="M140.8,344.5 L258.3,350.1 L375.9,346.6 L493.4,347.0 L611.0,348.2 L728.6,349.6 L846.1,380.3 L963.7,381.5 L1081.2,383.3" fill="none" stroke="#e67e22" stroke-width="2.0" stroke-linejoin="round" opacity="0.85"/>
<circle cx="140.8" cy="344.5" r="5" fill="#e67e22" opacity="0.9"><title>GPIO_0 R_PullDown | fftt | Chip: 15382</title></circle>
<circle cx="258.3" cy="350.1" r="5" fill="#e67e22" opacity="0.9"><title>GPIO_0 R_PullDown | fftt | Chip: 15382</title></circle>
<circle cx="375.9" cy="346.6" r="5" fill="#e67e22" opacity="0.9"><title>GPIO_0 R_PullDown | fftt | Chip: 15382</title></circle>
<circle cx="493.4" cy="347.0" r="5" fill="#e67e22" opacity="0.9"><title>GPIO_0 R_PullDown | fftt | Chip: 15382</title></circle>
<circle cx="611.0" cy="348.2" r="5" fill="#e67e22" opacity="0.9"><title>GPIO_0 R_PullDown | fftt | Chip: 15382</title></circle>
<circle cx="728.6" cy="349.6" r="5" fill="#e67e22" opacity="0.9"><title>GPIO_0 R_PullDown | fftt | Chip: 15382</title></circle>
<circle cx="846.1" cy="380.3" r="5" fill="#e67e22" opacity="0.9"><title>GPIO_0 R_PullDown | fftt | Chip: 15382</title></circle>
<circle cx="963.7" cy="381.5" r="5" fill="#e67e22" opacity="0.9"><title>GPIO_0 R_PullDown | fftt | Chip: 15382</title></circle>
<circle cx="1081.2" cy="383.3" r="5" fill="#e67e22" opacity="0.9"><title>GPIO_0 R_PullDown | fftt | Chip: 15382</title></circle>
</g>
<g class="series" data-skew="fftt" data-chip="78814">
<path d="M140.8,349.5 L258.3,350.7 L375.9,351.9 L493.4,351.3 L611.0,352.4 L728.6,353.8 L846.1,376.6 L963.7,377.8 L1081.2,380.0" fill="none" stroke="#1abc9c" stroke-width="2.0" stroke-linejoin="round" stroke-dasharray="8,3" opacity="0.85"/>
<circle cx="140.8" cy="349.5" r="5" fill="#1abc9c" opacity="0.9"><title>GPIO_0 R_PullDown | fftt | Chip: 78814</title></circle>
<circle cx="258.3" cy="350.7" r="5" fill="#1abc9c" opacity="0.9"><title>GPIO_0 R_PullDown | fftt | Chip: 78814</title></circle>
<circle cx="375.9" cy="351.9" r="5" fill="#1abc9c" opacity="0.9"><title>GPIO_0 R_PullDown | fftt | Chip: 78814</title></circle>
<circle cx="493.4" cy="351.3" r="5" fill="#1abc9c" opacity="0.9"><title>GPIO_0 R_PullDown | fftt | Chip: 78814</title></circle>
<circle cx="611.0" cy="352.4" r="5" fill="#1abc9c" opacity="0.9"><title>GPIO_0 R_PullDown | fftt | Chip: 78814</title></circle>
<circle cx="728.6" cy="353.8" r="5" fill="#1abc9c" opacity="0.9"><title>GPIO_0 R_PullDown | fftt | Chip: 78814</title></circle>
<circle cx="846.1" cy="376.6" r="5" fill="#1abc9c" opacity="0.9"><title>GPIO_0 R_PullDown | fftt | Chip: 78814</title></circle>
<circle cx="963.7" cy="377.8" r="5" fill="#1abc9c" opacity="0.9"><title>GPIO_0 R_PullDown | fftt | Chip: 78814</title></circle>
<circle cx="1081.2" cy="380.0" r="5" fill="#1abc9c" opacity="0.9"><title>GPIO_0 R_PullDown | fftt | Chip: 78814</title></circle>
</g>
<g class="series" data-skew="fstt" data-chip="12566">
<path d="M140.8,347.4 L258.3,348.4 L375.9,349.8 L493.4,349.1 L611.0,350.2 L728.6,351.8 L846.1,375.1 L963.7,376.5 L1081.2,378.4" fill="none" stroke="#c0392b" stroke-width="2.0" stroke-linejoin="round" stroke-dasharray="4,3" opacity="0.85"/>
<circle cx="140.8" cy="347.4" r="5" fill="#c0392b" opacity="0.9"><title>GPIO_0 R_PullDown | fstt | Chip: 12566</title></circle>
<circle cx="258.3" cy="348.4" r="5" fill="#c0392b" opacity="0.9"><title>GPIO_0 R_PullDown | fstt | Chip: 12566</title></circle>
<circle cx="375.9" cy="349.8" r="5" fill="#c0392b" opacity="0.9"><title>GPIO_0 R_PullDown | fstt | Chip: 12566</title></circle>
<circle cx="493.4" cy="349.1" r="5" fill="#c0392b" opacity="0.9"><title>GPIO_0 R_PullDown | fstt | Chip: 12566</title></circle>
<circle cx="611.0" cy="350.2" r="5" fill="#c0392b" opacity="0.9"><title>GPIO_0 R_PullDown | fstt | Chip: 12566</title></circle>
<circle cx="728.6" cy="351.8" r="5" fill="#c0392b" opacity="0.9"><title>GPIO_0 R_PullDown | fstt | Chip: 12566</title></circle>
<circle cx="846.1" cy="375.1" r="5" fill="#c0392b" opacity="0.9"><title>GPIO_0 R_PullDown | fstt | Chip: 12566</title></circle>
<circle cx="963.7" cy="376.5" r="5" fill="#c0392b" opacity="0.9"><title>GPIO_0 R_PullDown | fstt | Chip: 12566</title></circle>
<circle cx="1081.2" cy="378.4" r="5" fill="#c0392b" opacity="0.9"><title>GPIO_0 R_PullDown | fstt | Chip: 12566</title></circle>
</g>
<g class="series" data-skew="fstt" data-chip="13316">
<path d="M140.8,348.1 L258.3,349.1 L375.9,350.5 L493.4,349.8 L611.0,350.9 L728.6,352.5 L846.1,375.7 L963.7,377.0 L1081.2,379.1" fill="none" stroke="#2980b9" stroke-width="2.0" stroke-linejoin="round" stroke-dasharray="10,3,3,3" opacity="0.85"/>
<circle cx="140.8" cy="348.1" r="5" fill="#2980b9" opacity="0.9"><title>GPIO_0 R_PullDown | fstt | Chip: 13316</title></circle>
<circle cx="258.3" cy="349.1" r="5" fill="#2980b9" opacity="0.9"><title>GPIO_0 R_PullDown | fstt | Chip: 13316</title></circle>
<circle cx="375.9" cy="350.5" r="5" fill="#2980b9" opacity="0.9"><title>GPIO_0 R_PullDown | fstt | Chip: 13316</title></circle>
<circle cx="493.4" cy="349.8" r="5" fill="#2980b9" opacity="0.9"><title>GPIO_0 R_PullDown | fstt | Chip: 13316</title></circle>
<circle cx="611.0" cy="350.9" r="5" fill="#2980b9" opacity="0.9"><title>GPIO_0 R_PullDown | fstt | Chip: 13316</title></circle>
<circle cx="728.6" cy="352.5" r="5" fill="#2980b9" opacity="0.9"><title>GPIO_0 R_PullDown | fstt | Chip: 13316</title></circle>
<circle cx="846.1" cy="375.7" r="5" fill="#2980b9" opacity="0.9"><title>GPIO_0 R_PullDown | fstt | Chip: 13316</title></circle>
<circle cx="963.7" cy="377.0" r="5" fill="#2980b9" opacity="0.9"><title>GPIO_0 R_PullDown | fstt | Chip: 13316</title></circle>
<circle cx="1081.2" cy="379.1" r="5" fill="#2980b9" opacity="0.9"><title>GPIO_0 R_PullDown | fstt | Chip: 13316</title></circle>
</g>
<g class="series" data-skew="fstt" data-chip="62919">
<path d="M140.8,347.1 L258.3,348.1 L375.9,349.5 L493.4,349.1 L611.0,350.2 L728.6,351.7 L846.1,379.2 L963.7,380.4 L1081.2,382.4" fill="none" stroke="#27ae60" stroke-width="2.0" stroke-linejoin="round" opacity="0.85"/>
<circle cx="140.8" cy="347.1" r="5" fill="#27ae60" opacity="0.9"><title>GPIO_0 R_PullDown | fstt | Chip: 62919</title></circle>
<circle cx="258.3" cy="348.1" r="5" fill="#27ae60" opacity="0.9"><title>GPIO_0 R_PullDown | fstt | Chip: 62919</title></circle>
<circle cx="375.9" cy="349.5" r="5" fill="#27ae60" opacity="0.9"><title>GPIO_0 R_PullDown | fstt | Chip: 62919</title></circle>
<circle cx="493.4" cy="349.1" r="5" fill="#27ae60" opacity="0.9"><title>GPIO_0 R_PullDown | fstt | Chip: 62919</title></circle>
<circle cx="611.0" cy="350.2" r="5" fill="#27ae60" opacity="0.9"><title>GPIO_0 R_PullDown | fstt | Chip: 62919</title></circle>
<circle cx="728.6" cy="351.7" r="5" fill="#27ae60" opacity="0.9"><title>GPIO_0 R_PullDown | fstt | Chip: 62919</title></circle>
<circle cx="846.1" cy="379.2" r="5" fill="#27ae60" opacity="0.9"><title>GPIO_0 R_PullDown | fstt | Chip: 62919</title></circle>
<circle cx="963.7" cy="380.4" r="5" fill="#27ae60" opacity="0.9"><title>GPIO_0 R_PullDown | fstt | Chip: 62919</title></circle>
<circle cx="1081.2" cy="382.4" r="5" fill="#27ae60" opacity="0.9"><title>GPIO_0 R_PullDown | fstt | Chip: 62919</title></circle>
</g>
<g class="series" data-skew="sftt" data-chip="44565">
<path d="M140.8,355.9 L258.3,346.6 L375.9,348.0 L493.4,345.9 L611.0,347.2 L728.6,348.9 L846.1,351.5 L963.7,353.2 L1081.2,355.9" fill="none" stroke="#8e44ad" stroke-width="2.0" stroke-linejoin="round" stroke-dasharray="8,3" opacity="0.85"/>
<circle cx="140.8" cy="355.9" r="5" fill="#8e44ad" opacity="0.9"><title>GPIO_0 R_PullDown | sftt | Chip: 44565</title></circle>
<circle cx="258.3" cy="346.6" r="5" fill="#8e44ad" opacity="0.9"><title>GPIO_0 R_PullDown | sftt | Chip: 44565</title></circle>
<circle cx="375.9" cy="348.0" r="5" fill="#8e44ad" opacity="0.9"><title>GPIO_0 R_PullDown | sftt | Chip: 44565</title></circle>
<circle cx="493.4" cy="345.9" r="5" fill="#8e44ad" opacity="0.9"><title>GPIO_0 R_PullDown | sftt | Chip: 44565</title></circle>
<circle cx="611.0" cy="347.2" r="5" fill="#8e44ad" opacity="0.9"><title>GPIO_0 R_PullDown | sftt | Chip: 44565</title></circle>
<circle cx="728.6" cy="348.9" r="5" fill="#8e44ad" opacity="0.9"><title>GPIO_0 R_PullDown | sftt | Chip: 44565</title></circle>
<circle cx="846.1" cy="351.5" r="5" fill="#8e44ad" opacity="0.9"><title>GPIO_0 R_PullDown | sftt | Chip: 44565</title></circle>
<circle cx="963.7" cy="353.2" r="5" fill="#8e44ad" opacity="0.9"><title>GPIO_0 R_PullDown | sftt | Chip: 44565</title></circle>
<circle cx="1081.2" cy="355.9" r="5" fill="#8e44ad" opacity="0.9"><title>GPIO_0 R_PullDown | sftt | Chip: 44565</title></circle>
</g>
<g class="series" data-skew="sftt" data-chip="69627">
<path d="M140.8,345.4 L258.3,346.4 L375.9,347.7 L493.4,345.8 L611.0,346.9 L728.6,348.5 L846.1,350.4 L963.7,352.0 L1081.2,354.3" fill="none" stroke="#d35400" stroke-width="2.0" stroke-linejoin="round" stroke-dasharray="4,3" opacity="0.85"/>
<circle cx="140.8" cy="345.4" r="5" fill="#d35400" opacity="0.9"><title>GPIO_0 R_PullDown | sftt | Chip: 69627</title></circle>
<circle cx="258.3" cy="346.4" r="5" fill="#d35400" opacity="0.9"><title>GPIO_0 R_PullDown | sftt | Chip: 69627</title></circle>
<circle cx="375.9" cy="347.7" r="5" fill="#d35400" opacity="0.9"><title>GPIO_0 R_PullDown | sftt | Chip: 69627</title></circle>
<circle cx="493.4" cy="345.8" r="5" fill="#d35400" opacity="0.9"><title>GPIO_0 R_PullDown | sftt | Chip: 69627</title></circle>
<circle cx="611.0" cy="346.9" r="5" fill="#d35400" opacity="0.9"><title>GPIO_0 R_PullDown | sftt | Chip: 69627</title></circle>
<circle cx="728.6" cy="348.5" r="5" fill="#d35400" opacity="0.9"><title>GPIO_0 R_PullDown | sftt | Chip: 69627</title></circle>
<circle cx="846.1" cy="350.4" r="5" fill="#d35400" opacity="0.9"><title>GPIO_0 R_PullDown | sftt | Chip: 69627</title></circle>
<circle cx="963.7" cy="352.0" r="5" fill="#d35400" opacity="0.9"><title>GPIO_0 R_PullDown | sftt | Chip: 69627</title></circle>
<circle cx="1081.2" cy="354.3" r="5" fill="#d35400" opacity="0.9"><title>GPIO_0 R_PullDown | sftt | Chip: 69627</title></circle>
</g>
<g class="series" data-skew="sftt" data-chip="76687">
<path d="M140.8,348.3 L258.3,349.3 L375.9,350.6 L493.4,348.6 L611.0,349.8 L728.6,351.3" fill="none" stroke="#16a085" stroke-width="2.0" stroke-linejoin="round" stroke-dasharray="10,3,3,3" opacity="0.85"/>
<circle cx="140.8" cy="348.3" r="5" fill="#16a085" opacity="0.9"><title>GPIO_0 R_PullDown | sftt | Chip: 76687</title></circle>
<circle cx="258.3" cy="349.3" r="5" fill="#16a085" opacity="0.9"><title>GPIO_0 R_PullDown | sftt | Chip: 76687</title></circle>
<circle cx="375.9" cy="350.6" r="5" fill="#16a085" opacity="0.9"><title>GPIO_0 R_PullDown | sftt | Chip: 76687</title></circle>
<circle cx="493.4" cy="348.6" r="5" fill="#16a085" opacity="0.9"><title>GPIO_0 R_PullDown | sftt | Chip: 76687</title></circle>
<circle cx="611.0" cy="349.8" r="5" fill="#16a085" opacity="0.9"><title>GPIO_0 R_PullDown | sftt | Chip: 76687</title></circle>
<circle cx="728.6" cy="351.3" r="5" fill="#16a085" opacity="0.9"><title>GPIO_0 R_PullDown | sftt | Chip: 76687</title></circle>
</g>
<g class="series" data-skew="ssff" data-chip="56508">
<path d="M140.8,352.8 L258.3,354.1 L375.9,355.8 L493.4,353.5 L611.0,354.7 L728.6,356.6 L846.1,359.1 L963.7,360.8 L1081.2,363.8" fill="none" stroke="#3498db" stroke-width="2.0" stroke-linejoin="round" opacity="0.85"/>
<circle cx="140.8" cy="352.8" r="5" fill="#3498db" opacity="0.9"><title>GPIO_0 R_PullDown | ssff | Chip: 56508</title></circle>
<circle cx="258.3" cy="354.1" r="5" fill="#3498db" opacity="0.9"><title>GPIO_0 R_PullDown | ssff | Chip: 56508</title></circle>
<circle cx="375.9" cy="355.8" r="5" fill="#3498db" opacity="0.9"><title>GPIO_0 R_PullDown | ssff | Chip: 56508</title></circle>
<circle cx="493.4" cy="353.5" r="5" fill="#3498db" opacity="0.9"><title>GPIO_0 R_PullDown | ssff | Chip: 56508</title></circle>
<circle cx="611.0" cy="354.7" r="5" fill="#3498db" opacity="0.9"><title>GPIO_0 R_PullDown | ssff | Chip: 56508</title></circle>
<circle cx="728.6" cy="356.6" r="5" fill="#3498db" opacity="0.9"><title>GPIO_0 R_PullDown | ssff | Chip: 56508</title></circle>
<circle cx="846.1" cy="359.1" r="5" fill="#3498db" opacity="0.9"><title>GPIO_0 R_PullDown | ssff | Chip: 56508</title></circle>
<circle cx="963.7" cy="360.8" r="5" fill="#3498db" opacity="0.9"><title>GPIO_0 R_PullDown | ssff | Chip: 56508</title></circle>
<circle cx="1081.2" cy="363.8" r="5" fill="#3498db" opacity="0.9"><title>GPIO_0 R_PullDown | ssff | Chip: 56508</title></circle>
</g>
<g class="series" data-skew="ssff" data-chip="57571">
<path d="M140.8,353.0 L258.3,354.2 L375.9,355.6 L493.4,353.5 L611.0,354.8 L728.6,356.5 L846.1,359.2 L963.7,361.0 L1081.2,363.6" fill="none" stroke="#e74c3c" stroke-width="2.0" stroke-linejoin="round" stroke-dasharray="8,3" opacity="0.85"/>
<circle cx="140.8" cy="353.0" r="5" fill="#e74c3c" opacity="0.9"><title>GPIO_0 R_PullDown | ssff | Chip: 57571</title></circle>
<circle cx="258.3" cy="354.2" r="5" fill="#e74c3c" opacity="0.9"><title>GPIO_0 R_PullDown | ssff | Chip: 57571</title></circle>
<circle cx="375.9" cy="355.6" r="5" fill="#e74c3c" opacity="0.9"><title>GPIO_0 R_PullDown | ssff | Chip: 57571</title></circle>
<circle cx="493.4" cy="353.5" r="5" fill="#e74c3c" opacity="0.9"><title>GPIO_0 R_PullDown | ssff | Chip: 57571</title></circle>
<circle cx="611.0" cy="354.8" r="5" fill="#e74c3c" opacity="0.9"><title>GPIO_0 R_PullDown | ssff | Chip: 57571</title></circle>
<circle cx="728.6" cy="356.5" r="5" fill="#e74c3c" opacity="0.9"><title>GPIO_0 R_PullDown | ssff | Chip: 57571</title></circle>
<circle cx="846.1" cy="359.2" r="5" fill="#e74c3c" opacity="0.9"><title>GPIO_0 R_PullDown | ssff | Chip: 57571</title></circle>
<circle cx="963.7" cy="361.0" r="5" fill="#e74c3c" opacity="0.9"><title>GPIO_0 R_PullDown | ssff | Chip: 57571</title></circle>
<circle cx="1081.2" cy="363.6" r="5" fill="#e74c3c" opacity="0.9"><title>GPIO_0 R_PullDown | ssff | Chip: 57571</title></circle>
</g>
<g class="series" data-skew="ssff" data-chip="96040">
<path d="M140.8,351.7 L258.3,352.9 L375.9,354.7 L493.4,352.2 L611.0,353.7 L728.6,355.7 L846.1,358.3 L963.7,360.3 L1081.2,363.3" fill="none" stroke="#2ecc71" stroke-width="2.0" stroke-linejoin="round" stroke-dasharray="4,3" opacity="0.85"/>
<circle cx="140.8" cy="351.7" r="5" fill="#2ecc71" opacity="0.9"><title>GPIO_0 R_PullDown | ssff | Chip: 96040</title></circle>
<circle cx="258.3" cy="352.9" r="5" fill="#2ecc71" opacity="0.9"><title>GPIO_0 R_PullDown | ssff | Chip: 96040</title></circle>
<circle cx="375.9" cy="354.7" r="5" fill="#2ecc71" opacity="0.9"><title>GPIO_0 R_PullDown | ssff | Chip: 96040</title></circle>
<circle cx="493.4" cy="352.2" r="5" fill="#2ecc71" opacity="0.9"><title>GPIO_0 R_PullDown | ssff | Chip: 96040</title></circle>
<circle cx="611.0" cy="353.7" r="5" fill="#2ecc71" opacity="0.9"><title>GPIO_0 R_PullDown | ssff | Chip: 96040</title></circle>
<circle cx="728.6" cy="355.7" r="5" fill="#2ecc71" opacity="0.9"><title>GPIO_0 R_PullDown | ssff | Chip: 96040</title></circle>
<circle cx="846.1" cy="358.3" r="5" fill="#2ecc71" opacity="0.9"><title>GPIO_0 R_PullDown | ssff | Chip: 96040</title></circle>
<circle cx="963.7" cy="360.3" r="5" fill="#2ecc71" opacity="0.9"><title>GPIO_0 R_PullDown | ssff | Chip: 96040</title></circle>
<circle cx="1081.2" cy="363.3" r="5" fill="#2ecc71" opacity="0.9"><title>GPIO_0 R_PullDown | ssff | Chip: 96040</title></circle>
</g>
<g class="series" data-skew="sstt" data-chip="29674">
<path d="M140.8,344.4 L258.3,345.6 L375.9,347.4 L493.4,344.9 L611.0,346.4 L728.6,348.3 L846.1,350.5 L963.7,352.4 L1081.2,355.4" fill="none" stroke="#9b59b6" stroke-width="2.0" stroke-linejoin="round" stroke-dasharray="10,3,3,3" opacity="0.85"/>
<circle cx="140.8" cy="344.4" r="5" fill="#9b59b6" opacity="0.9"><title>GPIO_0 R_PullDown | sstt | Chip: 29674</title></circle>
<circle cx="258.3" cy="345.6" r="5" fill="#9b59b6" opacity="0.9"><title>GPIO_0 R_PullDown | sstt | Chip: 29674</title></circle>
<circle cx="375.9" cy="347.4" r="5" fill="#9b59b6" opacity="0.9"><title>GPIO_0 R_PullDown | sstt | Chip: 29674</title></circle>
<circle cx="493.4" cy="344.9" r="5" fill="#9b59b6" opacity="0.9"><title>GPIO_0 R_PullDown | sstt | Chip: 29674</title></circle>
<circle cx="611.0" cy="346.4" r="5" fill="#9b59b6" opacity="0.9"><title>GPIO_0 R_PullDown | sstt | Chip: 29674</title></circle>
<circle cx="728.6" cy="348.3" r="5" fill="#9b59b6" opacity="0.9"><title>GPIO_0 R_PullDown | sstt | Chip: 29674</title></circle>
<circle cx="846.1" cy="350.5" r="5" fill="#9b59b6" opacity="0.9"><title>GPIO_0 R_PullDown | sstt | Chip: 29674</title></circle>
<circle cx="963.7" cy="352.4" r="5" fill="#9b59b6" opacity="0.9"><title>GPIO_0 R_PullDown | sstt | Chip: 29674</title></circle>
<circle cx="1081.2" cy="355.4" r="5" fill="#9b59b6" opacity="0.9"><title>GPIO_0 R_PullDown | sstt | Chip: 29674</title></circle>
</g>
<g class="series" data-skew="sstt" data-chip="58046">
<path d="M140.8,342.9 L258.3,344.1 L375.9,345.6 L493.4,343.5 L611.0,344.9 L728.6,346.6 L846.1,349.4 L963.7,351.2 L1081.2,354.0" fill="none" stroke="#e67e22" stroke-width="2.0" stroke-linejoin="round" opacity="0.85"/>
<circle cx="140.8" cy="342.9" r="5" fill="#e67e22" opacity="0.9"><title>GPIO_0 R_PullDown | sstt | Chip: 58046</title></circle>
<circle cx="258.3" cy="344.1" r="5" fill="#e67e22" opacity="0.9"><title>GPIO_0 R_PullDown | sstt | Chip: 58046</title></circle>
<circle cx="375.9" cy="345.6" r="5" fill="#e67e22" opacity="0.9"><title>GPIO_0 R_PullDown | sstt | Chip: 58046</title></circle>
<circle cx="493.4" cy="343.5" r="5" fill="#e67e22" opacity="0.9"><title>GPIO_0 R_PullDown | sstt | Chip: 58046</title></circle>
<circle cx="611.0" cy="344.9" r="5" fill="#e67e22" opacity="0.9"><title>GPIO_0 R_PullDown | sstt | Chip: 58046</title></circle>
<circle cx="728.6" cy="346.6" r="5" fill="#e67e22" opacity="0.9"><title>GPIO_0 R_PullDown | sstt | Chip: 58046</title></circle>
<circle cx="846.1" cy="349.4" r="5" fill="#e67e22" opacity="0.9"><title>GPIO_0 R_PullDown | sstt | Chip: 58046</title></circle>
<circle cx="963.7" cy="351.2" r="5" fill="#e67e22" opacity="0.9"><title>GPIO_0 R_PullDown | sstt | Chip: 58046</title></circle>
<circle cx="1081.2" cy="354.0" r="5" fill="#e67e22" opacity="0.9"><title>GPIO_0 R_PullDown | sstt | Chip: 58046</title></circle>
</g>
<g class="series" data-skew="sstt" data-chip="9808">
<path d="M140.8,342.2 L258.3,343.4 L375.9,345.3 L493.4,342.7 L611.0,344.1 L728.6,346.3 L846.1,347.9 L963.7,350.0 L1081.2,353.4" fill="none" stroke="#1abc9c" stroke-width="2.0" stroke-linejoin="round" stroke-dasharray="8,3" opacity="0.85"/>
<circle cx="140.8" cy="342.2" r="5" fill="#1abc9c" opacity="0.9"><title>GPIO_0 R_PullDown | sstt | Chip: 9808</title></circle>
<circle cx="258.3" cy="343.4" r="5" fill="#1abc9c" opacity="0.9"><title>GPIO_0 R_PullDown | sstt | Chip: 9808</title></circle>
<circle cx="375.9" cy="345.3" r="5" fill="#1abc9c" opacity="0.9"><title>GPIO_0 R_PullDown | sstt | Chip: 9808</title></circle>
<circle cx="493.4" cy="342.7" r="5" fill="#1abc9c" opacity="0.9"><title>GPIO_0 R_PullDown | sstt | Chip: 9808</title></circle>
<circle cx="611.0" cy="344.1" r="5" fill="#1abc9c" opacity="0.9"><title>GPIO_0 R_PullDown | sstt | Chip: 9808</title></circle>
<circle cx="728.6" cy="346.3" r="5" fill="#1abc9c" opacity="0.9"><title>GPIO_0 R_PullDown | sstt | Chip: 9808</title></circle>
<circle cx="846.1" cy="347.9" r="5" fill="#1abc9c" opacity="0.9"><title>GPIO_0 R_PullDown | sstt | Chip: 9808</title></circle>
<circle cx="963.7" cy="350.0" r="5" fill="#1abc9c" opacity="0.9"><title>GPIO_0 R_PullDown | sstt | Chip: 9808</title></circle>
<circle cx="1081.2" cy="353.4" r="5" fill="#1abc9c" opacity="0.9"><title>GPIO_0 R_PullDown | sstt | Chip: 9808</title></circle>
</g>
<g class="spec-el">
<line x1="82.0" y1="395.3" x2="1140.0" y2="395.3" stroke="#ff6d00" stroke-width="4"/>
<text x="1145.0" y="399.3" font-size="9" font-weight="normal" text-anchor="start" fill="#ff6d00" font-family="Arial,sans-serif">Min spec: 30</text>
<line x1="82.0" y1="136.7" x2="1140.0" y2="136.7" stroke="#ff6d00" stroke-width="4"/>
<text x="1145.0" y="140.7" font-size="9" font-weight="normal" text-anchor="start" fill="#ff6d00" font-family="Arial,sans-serif">Max spec: 70</text>
</g>
<g class="legend-item" data-skew="ffss" data-chip="25679">
<line x1="1148" y1="77" x2="1176" y2="77" stroke="#3498db" stroke-width="2.0" />
<circle cx="1162" cy="77" r="5" fill="#3498db"/>
<text x="1180" y="81" font-size="10" font-family="Arial,sans-serif" fill="#2c3e50">25679 | ffss</text>
</g>
<g class="legend-item" data-skew="ffss" data-chip="43407">
<line x1="1148" y1="99" x2="1176" y2="99" stroke="#e74c3c" stroke-width="2.0" stroke-dasharray="8,3" />
<circle cx="1162" cy="99" r="5" fill="#e74c3c"/>
<text x="1180" y="103" font-size="10" font-family="Arial,sans-serif" fill="#2c3e50">43407 | ffss</text>
</g>
<g class="legend-item" data-skew="ffss" data-chip="79093">
<line x1="1148" y1="121" x2="1176" y2="121" stroke="#2ecc71" stroke-width="2.0" stroke-dasharray="4,3" />
<circle cx="1162" cy="121" r="5" fill="#2ecc71"/>
<text x="1180" y="125" font-size="10" font-family="Arial,sans-serif" fill="#2c3e50">79093 | ffss</text>
</g>
<g class="legend-item" data-skew="fftt" data-chip="13967">
<line x1="1148" y1="143" x2="1176" y2="143" stroke="#9b59b6" stroke-width="2.0" stroke-dasharray="10,3,3,3" />
<circle cx="1162" cy="143" r="5" fill="#9b59b6"/>
<text x="1180" y="147" font-size="10" font-family="Arial,sans-serif" fill="#2c3e50">13967 | fftt</text>
</g>
<g class="legend-item" data-skew="fftt" data-chip="15382">
<line x1="1148" y1="165" x2="1176" y2="165" stroke="#e67e22" stroke-width="2.0" />
<circle cx="1162" cy="165" r="5" fill="#e67e22"/>
<text x="1180" y="169" font-size="10" font-family="Arial,sans-serif" fill="#2c3e50">15382 | fftt</text>
</g>
<g class="legend-item" data-skew="fftt" data-chip="78814">
<line x1="1148" y1="187" x2="1176" y2="187" stroke="#1abc9c" stroke-width="2.0" stroke-dasharray="8,3" />
<circle cx="1162" cy="187" r="5" fill="#1abc9c"/>
<text x="1180" y="191" font-size="10" font-family="Arial,sans-serif" fill="#2c3e50">78814 | fftt</text>
</g>
<g class="legend-item" data-skew="fstt" data-chip="12566">
<line x1="1148" y1="209" x2="1176" y2="209" stroke="#c0392b" stroke-width="2.0" stroke-dasharray="4,3" />
<circle cx="1162" cy="209" r="5" fill="#c0392b"/>
<text x="1180" y="213" font-size="10" font-family="Arial,sans-serif" fill="#2c3e50">12566 | fstt</text>
</g>
<g class="legend-item" data-skew="fstt" data-chip="13316">
<line x1="1148" y1="231" x2="1176" y2="231" stroke="#2980b9" stroke-width="2.0" stroke-dasharray="10,3,3,3" />
<circle cx="1162" cy="231" r="5" fill="#2980b9"/>
<text x="1180" y="235" font-size="10" font-family="Arial,sans-serif" fill="#2c3e50">13316 | fstt</text>
</g>
<g class="legend-item" data-skew="fstt" data-chip="62919">
<line x1="1148" y1="253" x2="1176" y2="253" stroke="#27ae60" stroke-width="2.0" />
<circle cx="1162" cy="253" r="5" fill="#27ae60"/>
<text x="1180" y="257" font-size="10" font-family="Arial,sans-serif" fill="#2c3e50">62919 | fstt</text>
</g>
<g class="legend-item" data-skew="sftt" data-chip="44565">
<line x1="1148" y1="275" x2="1176" y2="275" stroke="#8e44ad" stroke-width="2.0" stroke-dasharray="8,3" />
<circle cx="1162" cy="275" r="5" fill="#8e44ad"/>
<text x="1180" y="279" font-size="10" font-family="Arial,sans-serif" fill="#2c3e50">44565 | sftt</text>
</g>
<g class="legend-item" data-skew="sftt" data-chip="69627">
<line x1="1148" y1="297" x2="1176" y2="297" stroke="#d35400" stroke-width="2.0" stroke-dasharray="4,3" />
<circle cx="1162" cy="297" r="5" fill="#d35400"/>
<text x="1180" y="301" font-size="10" font-family="Arial,sans-serif" fill="#2c3e50">69627 | sftt</text>
</g>
<g class="legend-item" data-skew="sftt" data-chip="76687">
<line x1="1148" y1="319" x2="1176" y2="319" stroke="#16a085" stroke-width="2.0" stroke-dasharray="10,3,3,3" />
<circle cx="1162" cy="319" r="5" fill="#16a085"/>
<text x="1180" y="323" font-size="10" font-family="Arial,sans-serif" fill="#2c3e50">76687 | sftt</text>
</g>
<g class="legend-item" data-skew="ssff" data-chip="56508">
<line x1="1148" y1="341" x2="1176" y2="341" stroke="#3498db" stroke-width="2.0" />
<circle cx="1162" cy="341" r="5" fill="#3498db"/>
<text x="1180" y="345" font-size="10" font-family="Arial,sans-serif" fill="#2c3e50">56508 | ssff</text>
</g>
<g class="legend-item" data-skew="ssff" data-chip="57571">
<line x1="1148" y1="363" x2="1176" y2="363" stroke="#e74c3c" stroke-width="2.0" stroke-dasharray="8,3" />
<circle cx="1162" cy="363" r="5" fill="#e74c3c"/>
<text x="1180" y="367" font-size="10" font-family="Arial,sans-serif" fill="#2c3e50">57571 | ssff</text>
</g>
<g class="legend-item" data-skew="ssff" data-chip="96040">
<line x1="1148" y1="385" x2="1176" y2="385" stroke="#2ecc71" stroke-width="2.0" stroke-dasharray="4,3" />
<circle cx="1162" cy="385" r="5" fill="#2ecc71"/>
<text x="1180" y="389" font-size="10" font-family="Arial,sans-serif" fill="#2c3e50">96040 | ssff</text>
</g>
<g class="legend-item" data-skew="sstt" data-chip="29674">
<line x1="1148" y1="407" x2="1176" y2="407" stroke="#9b59b6" stroke-width="2.0" stroke-dasharray="10,3,3,3" />
<circle cx="1162" cy="407" r="5" fill="#9b59b6"/>
<text x="1180" y="411" font-size="10" font-family="Arial,sans-serif" fill="#2c3e50">29674 | sstt</text>
</g>
<g class="legend-item" data-skew="sstt" data-chip="58046">
<line x1="1148" y1="429" x2="1176" y2="429" stroke="#e67e22" stroke-width="2.0" />
<circle cx="1162" cy="429" r="5" fill="#e67e22"/>
<text x="1180" y="433" font-size="10" font-family="Arial,sans-serif" fill="#2c3e50">58046 | sstt</text>
</g>
<g class="legend-item" data-skew="sstt" data-chip="9808">
<line x1="1148" y1="451" x2="1176" y2="451" stroke="#1abc9c" stroke-width="2.0" stroke-dasharray="8,3" />
<circle cx="1162" cy="451" r="5" fill="#1abc9c"/>
<text x="1180" y="455" font-size="10" font-family="Arial,sans-serif" fill="#2c3e50">9808 | sstt</text>
</g>
</svg>