<svg xmlns="http://www.w3.org/2000/svg" width="860" height="480" viewBox="0 0 860 480">
<rect width="860" height="480" fill="#ffffff"/>
<text x="430.0" y="28.0" font-size="16" font-weight="bold" text-anchor="middle" fill="#2c3e50" font-family="Arial,sans-serif">RF_KILLN — R_PullDown (kOhm)  [Pull-up/Pull-down Resistance]</text>
<line x1="82.0" y1="380.0" x2="705.0" y2="380.0" stroke="#999" stroke-width="1"/>
<line x1="82.0" y1="72.0" x2="82.0" y2="380.0" stroke="#999" stroke-width="1"/>
<line x1="82.0" y1="72.0" x2="82.0" y2="380.0" stroke="#999" stroke-width="1"/>
<line x1="77.0" y1="380.0" x2="82.0" y2="380.0" stroke="#999" stroke-width="1"/>
<line x1="82.0" y1="380.0" x2="705.0" y2="380.0" stroke="#e0e0e0" stroke-width="0.8" stroke-dasharray="3,3"/>
<text x="74.0" y="384.0" font-size="9" font-weight="normal" text-anchor="end" fill="#7f8c8d" font-family="Arial,sans-serif">130</text>
<line x1="77.0" y1="318.4" x2="82.0" y2="318.4" stroke="#999" stroke-width="1"/>
<line x1="82.0" y1="318.4" x2="705.0" y2="318.4" stroke="#e0e0e0" stroke-width="0.8" stroke-dasharray="3,3"/>
<text x="74.0" y="322.4" font-size="9" font-weight="normal" text-anchor="end" fill="#7f8c8d" font-family="Arial,sans-serif">136</text>
<line x1="77.0" y1="256.8" x2="82.0" y2="256.8" stroke="#999" stroke-width="1"/>
<line x1="82.0" y1="256.8" x2="705.0" y2="256.8" stroke="#e0e0e0" stroke-width="0.8" stroke-dasharray="3,3"/>
<text x="74.0" y="260.8" font-size="9" font-weight="normal" text-anchor="end" fill="#7f8c8d" font-family="Arial,sans-serif">143</text>
<line x1="77.0" y1="195.2" x2="82.0" y2="195.2" stroke="#999" stroke-width="1"/>
<line x1="82.0" y1="195.2" x2="705.0" y2="195.2" stroke="#e0e0e0" stroke-width="0.8" stroke-dasharray="3,3"/>
<text x="74.0" y="199.2" font-size="9" font-weight="normal" text-anchor="end" fill="#7f8c8d" font-family="Arial,sans-serif">149</text>
<line x1="77.0" y1="133.6" x2="82.0" y2="133.6" stroke="#999" stroke-width="1"/>
<line x1="82.0" y1="133.6" x2="705.0" y2="133.6" stroke="#e0e0e0" stroke-width="0.8" stroke-dasharray="3,3"/>
<text x="74.0" y="137.6" font-size="9" font-weight="normal" text-anchor="end" fill="#7f8c8d" font-family="Arial,sans-serif">156</text>
<line x1="77.0" y1="72.0" x2="82.0" y2="72.0" stroke="#999" stroke-width="1"/>
<line x1="82.0" y1="72.0" x2="705.0" y2="72.0" stroke="#e0e0e0" stroke-width="0.8" stroke-dasharray="3,3"/>
<text x="74.0" y="76.0" font-size="9" font-weight="normal" text-anchor="end" fill="#7f8c8d" font-family="Arial,sans-serif">163</text>
<text x="14.0" y="226.0" font-size="10" font-weight="normal" text-anchor="middle" fill="#7f8c8d" font-family="Arial,sans-serif" transform="rotate(-90,14,226.0)">R_PullDown (kOhm)</text>
<text x="116.6" y="394.0" font-size="8" font-weight="normal" text-anchor="end" fill="#333" font-family="Arial,sans-serif" transform="rotate(-45,116.6,394)">VIO=1.62
VC=0.64</text>
<text x="185.8" y="394.0" font-size="8" font-weight="normal" text-anchor="end" fill="#333" font-family="Arial,sans-serif" transform="rotate(-45,185.8,394)">VIO=1.8
VC=0.8</text>
<text x="255.1" y="394.0" font-size="8" font-weight="normal" text-anchor="end" fill="#333" font-family="Arial,sans-serif" transform="rotate(-45,255.1,394)">VIO=1.98
VC=0.96</text>
<line x1="289.7" y1="72.0" x2="289.7" y2="380.0" stroke="#cccccc" stroke-width="1" stroke-dasharray="4,3"/>
<text x="324.3" y="394.0" font-size="8" font-weight="normal" text-anchor="end" fill="#333" font-family="Arial,sans-serif" transform="rotate(-45,324.3,394)">VIO=1.62
VC=0.64</text>
<text x="393.5" y="394.0" font-size="8" font-weight="normal" text-anchor="end" fill="#333" font-family="Arial,sans-serif" transform="rotate(-45,393.5,394)">VIO=1.8
VC=0.8</text>
<text x="462.7" y="394.0" font-size="8" font-weight="normal" text-anchor="end" fill="#333" font-family="Arial,sans-serif" transform="rotate(-45,462.7,394)">VIO=1.98
VC=0.96</text>
<line x1="497.3" y1="72.0" x2="497.3" y2="380.0" stroke="#cccccc" stroke-width="1" stroke-dasharray="4,3"/>
<text x="531.9" y="394.0" font-size="8" font-weight="normal" text-anchor="end" fill="#333" font-family="Arial,sans-serif" transform="rotate(-45,531.9,394)">VIO=1.62
VC=0.64</text>
<text x="601.2" y="394.0" font-size="8" font-weight="normal" text-anchor="end" fill="#333" font-family="Arial,sans-serif" transform="rotate(-45,601.2,394)">VIO=1.8
VC=0.8</text>
<text x="670.4" y="394.0" font-size="8" font-weight="normal" text-anchor="end" fill="#333" font-family="Arial,sans-serif" transform="rotate(-45,670.4,394)">VIO=1.98
VC=0.96</text>
<text x="185.8" y="62.0" font-size="10" font-weight="bold" text-anchor="middle" fill="#2c3e50" font-family="Arial,sans-serif">T=0°C</text>
<text x="393.5" y="62.0" font-size="10" font-weight="bold" text-anchor="middle" fill="#2c3e50" font-family="Arial,sans-serif">T=20°C</text>
<text x="601.2" y="62.0" font-size="10" font-weight="bold" text-anchor="middle" fill="#2c3e50" font-family="Arial,sans-serif">T=80°C</text>
<g class="series" data-skew="ffss">
<path d="M116.6,150.3 L185.8,154.8 L255.1,220.6 L324.3,163.9 L393.5,167.6 L462.7,183.8 L531.9,267.3 L601.2,277.5 L670.4,298.1" fill="none" stroke="#3498db" stroke-width="2.5" stroke-linejoin="round" opacity="0.9"/>
<circle cx="116.6" cy="150.3" r="5" fill="#3498db" opacity="0.95"><title>RF_KILLN R_PullDown | ffss | Chip: 25679</title></circle>
<circle cx="185.8" cy="154.8" r="5" fill="#3498db" opacity="0.95"><title>RF_KILLN R_PullDown | ffss | Chip: 25679</title></circle>
<circle cx="255.1" cy="220.6" r="5" fill="#3498db" opacity="0.95"><title>RF_KILLN R_PullDown | ffss | Chip: 43407</title></circle>
<circle cx="324.3" cy="163.9" r="5" fill="#3498db" opacity="0.95"><title>RF_KILLN R_PullDown | ffss | Chip: 25679</title></circle>
<circle cx="393.5" cy="167.6" r="5" fill="#3498db" opacity="0.95"><title>RF_KILLN R_PullDown | ffss | Chip: 25679</title></circle>
<circle cx="462.7" cy="183.8" r="5" fill="#3498db" opacity="0.95"><title>RF_KILLN R_PullDown | ffss | Chip: 25679</title></circle>
<circle cx="531.9" cy="267.3" r="5" fill="#3498db" opacity="0.95"><title>RF_KILLN R_PullDown | ffss | Chip: 43407</title></circle>
<circle cx="601.2" cy="277.5" r="5" fill="#3498db" opacity="0.95"><title>RF_KILLN R_PullDown | ffss | Chip: 43407</title></circle>
<circle cx="670.4" cy="298.1" r="5" fill="#3498db" opacity="0.95"><title>RF_KILLN R_PullDown | ffss | Chip: 43407</title></circle>
</g>
<g class="series" data-skew="fftt">
<path d="M116.6,219.9 L185.8,224.8 L255.1,237.7 L324.3,232.3 L393.5,235.6 L462.7,253.0 L531.9,313.8 L601.2,322.2 L670.4,344.8" fill="none" stroke="#e74c3c" stroke-width="2.5" stroke-linejoin="round" stroke-dasharray="8,3" opacity="0.9"/>
<circle cx="116.6" cy="219.9" r="5" fill="#e74c3c" opacity="0.95"><title>RF_KILLN R_PullDown | fftt | Chip: 78814</title></circle>
<circle cx="185.8" cy="224.8" r="5" fill="#e74c3c" opacity="0.95"><title>RF_KILLN R_PullDown | fftt | Chip: 78814</title></circle>
<circle cx="255.1" cy="237.7" r="5" fill="#e74c3c" opacity="0.95"><title>RF_KILLN R_PullDown | fftt | Chip: 78814</title></circle>
<circle cx="324.3" cy="232.3" r="5" fill="#e74c3c" opacity="0.95"><title>RF_KILLN R_PullDown | fftt | Chip: 78814</title></circle>
<circle cx="393.5" cy="235.6" r="5" fill="#e74c3c" opacity="0.95"><title>RF_KILLN R_PullDown | fftt | Chip: 78814</title></circle>
<circle cx="462.7" cy="253.0" r="5" fill="#e74c3c" opacity="0.95"><title>RF_KILLN R_PullDown | fftt | Chip: 78814</title></circle>
<circle cx="531.9" cy="313.8" r="5" fill="#e74c3c" opacity="0.95"><title>RF_KILLN R_PullDown | fftt | Chip: 78814</title></circle>
<circle cx="601.2" cy="322.2" r="5" fill="#e74c3c" opacity="0.95"><title>RF_KILLN R_PullDown | fftt | Chip: 78814</title></circle>
<circle cx="670.4" cy="344.8" r="5" fill="#e74c3c" opacity="0.95"><title>RF_KILLN R_PullDown | fftt | Chip: 78814</title></circle>
</g>
<g class="series" data-skew="fstt">
<path d="M116.6,208.8 L185.8,217.2 L255.1,233.6 L324.3,223.4 L393.5,228.2 L462.7,249.7 L531.9,332.1 L601.2,319.2 L670.4,343.7" fill="none" stroke="#2ecc71" stroke-width="2.5" stroke-linejoin="round" stroke-dasharray="4,3" opacity="0.9"/>
<circle cx="116.6" cy="208.8" r="5" fill="#2ecc71" opacity="0.95"><title>RF_KILLN R_PullDown | fstt | Chip: 12566</title></circle>
<circle cx="185.8" cy="217.2" r="5" fill="#2ecc71" opacity="0.95"><title>RF_KILLN R_PullDown | fstt | Chip: 12566</title></circle>
<circle cx="255.1" cy="233.6" r="5" fill="#2ecc71" opacity="0.95"><title>RF_KILLN R_PullDown | fstt | Chip: 12566</title></circle>
<circle cx="324.3" cy="223.4" r="5" fill="#2ecc71" opacity="0.95"><title>RF_KILLN R_PullDown | fstt | Chip: 12566</title></circle>
<circle cx="393.5" cy="228.2" r="5" fill="#2ecc71" opacity="0.95"><title>RF_KILLN R_PullDown | fstt | Chip: 12566</title></circle>
<circle cx="462.7" cy="249.7" r="5" fill="#2ecc71" opacity="0.95"><title>RF_KILLN R_PullDown | fstt | Chip: 12566</title></circle>
<circle cx="531.9" cy="332.1" r="5" fill="#2ecc71" opacity="0.95"><title>RF_KILLN R_PullDown | fstt | Chip: 12566</title></circle>
<circle cx="601.2" cy="319.2" r="5" fill="#2ecc71" opacity="0.95"><title>RF_KILLN R_PullDown | fstt | Chip: 12566</title></circle>
<circle cx="670.4" cy="343.7" r="5" fill="#2ecc71" opacity="0.95"><title>RF_KILLN R_PullDown | fstt | Chip: 12566</title></circle>
</g>
<g class="series" data-skew="sftt">
<path d="M116.6,216.5 L185.8,219.9 L255.1,230.9 L324.3,223.4 L393.5,228.2 L462.7,243.0 L531.9,241.7 L601.2,253.6 L670.4,280.7" fill="none" stroke="#9b59b6" stroke-width="2.5" stroke-linejoin="round" stroke-dasharray="10,3,3,3" opacity="0.9"/>
<circle cx="116.6" cy="216.5" r="5" fill="#9b59b6" opacity="0.95"><title>RF_KILLN R_PullDown | sftt | Chip: 76687</title></circle>
<circle cx="185.8" cy="219.9" r="5" fill="#9b59b6" opacity="0.95"><title>RF_KILLN R_PullDown | sftt | Chip: 76687</title></circle>
<circle cx="255.1" cy="230.9" r="5" fill="#9b59b6" opacity="0.95"><title>RF_KILLN R_PullDown | sftt | Chip: 76687</title></circle>
<circle cx="324.3" cy="223.4" r="5" fill="#9b59b6" opacity="0.95"><title>RF_KILLN R_PullDown | sftt | Chip: 76687</title></circle>
<circle cx="393.5" cy="228.2" r="5" fill="#9b59b6" opacity="0.95"><title>RF_KILLN R_PullDown | sftt | Chip: 76687</title></circle>
<circle cx="462.7" cy="243.0" r="5" fill="#9b59b6" opacity="0.95"><title>RF_KILLN R_PullDown | sftt | Chip: 76687</title></circle>
<circle cx="531.9" cy="241.7" r="5" fill="#9b59b6" opacity="0.95"><title>RF_KILLN R_PullDown | sftt | Chip: 69627</title></circle>
<circle cx="601.2" cy="253.6" r="5" fill="#9b59b6" opacity="0.95"><title>RF_KILLN R_PullDown | sftt | Chip: 44565</title></circle>
<circle cx="670.4" cy="280.7" r="5" fill="#9b59b6" opacity="0.95"><title>RF_KILLN R_PullDown | sftt | Chip: 44565</title></circle>
</g>
<g class="series" data-skew="ssff">
<path d="M116.6,251.0 L185.8,261.5 L255.1,281.3 L324.3,262.8 L393.5,271.8 L462.7,295.0 L531.9,302.4 L601.2,317.4 L670.4,348.2" fill="none" stroke="#e67e22" stroke-width="2.5" stroke-linejoin="round" opacity="0.9"/>
<circle cx="116.6" cy="251.0" r="5" fill="#e67e22" opacity="0.95"><title>RF_KILLN R_PullDown | ssff | Chip: 57571</title></circle>
<circle cx="185.8" cy="261.5" r="5" fill="#e67e22" opacity="0.95"><title>RF_KILLN R_PullDown | ssff | Chip: 96040</title></circle>
<circle cx="255.1" cy="281.3" r="5" fill="#e67e22" opacity="0.95"><title>RF_KILLN R_PullDown | ssff | Chip: 96040</title></circle>
<circle cx="324.3" cy="262.8" r="5" fill="#e67e22" opacity="0.95"><title>RF_KILLN R_PullDown | ssff | Chip: 57571</title></circle>
<circle cx="393.5" cy="271.8" r="5" fill="#e67e22" opacity="0.95"><title>RF_KILLN R_PullDown | ssff | Chip: 96040</title></circle>
<circle cx="462.7" cy="295.0" r="5" fill="#e67e22" opacity="0.95"><title>RF_KILLN R_PullDown | ssff | Chip: 96040</title></circle>
<circle cx="531.9" cy="302.4" r="5" fill="#e67e22" opacity="0.95"><title>RF_KILLN R_PullDown | ssff | Chip: 96040</title></circle>
<circle cx="601.2" cy="317.4" r="5" fill="#e67e22" opacity="0.95"><title>RF_KILLN R_PullDown | ssff | Chip: 96040</title></circle>
<circle cx="670.4" cy="348.2" r="5" fill="#e67e22" opacity="0.95"><title>RF_KILLN R_PullDown | ssff | Chip: 96040</title></circle>
</g>
<g class="series" data-skew="sstt">
<path d="M116.6,195.3 L185.8,208.1 L255.1,233.6 L324.3,205.3 L393.5,218.6 L462.7,249.7 L531.9,244.4 L601.2,264.1 L670.4,310.8" fill="none" stroke="#1abc9c" stroke-width="2.5" stroke-linejoin="round" stroke-dasharray="8,3" opacity="0.9"/>
<circle cx="116.6" cy="195.3" r="5" fill="#1abc9c" opacity="0.95"><title>RF_KILLN R_PullDown | sstt | Chip: 29674</title></circle>
<circle cx="185.8" cy="208.1" r="5" fill="#1abc9c" opacity="0.95"><title>RF_KILLN R_PullDown | sstt | Chip: 29674</title></circle>
<circle cx="255.1" cy="233.6" r="5" fill="#1abc9c" opacity="0.95"><title>RF_KILLN R_PullDown | sstt | Chip: 29674</title></circle>
<circle cx="324.3" cy="205.3" r="5" fill="#1abc9c" opacity="0.95"><title>RF_KILLN R_PullDown | sstt | Chip: 29674</title></circle>
<circle cx="393.5" cy="218.6" r="5" fill="#1abc9c" opacity="0.95"><title>RF_KILLN R_PullDown | sstt | Chip: 29674</title></circle>
<circle cx="462.7" cy="249.7" r="5" fill="#1abc9c" opacity="0.95"><title>RF_KILLN R_PullDown | sstt | Chip: 29674</title></circle>
<circle cx="531.9" cy="244.4" r="5" fill="#1abc9c" opacity="0.95"><title>RF_KILLN R_PullDown | sstt | Chip: 29674</title></circle>
<circle cx="601.2" cy="264.1" r="5" fill="#1abc9c" opacity="0.95"><title>RF_KILLN R_PullDown | sstt | Chip: 29674</title></circle>
<circle cx="670.4" cy="310.8" r="5" fill="#1abc9c" opacity="0.95"><title>RF_KILLN R_PullDown | sstt | Chip: 29674</title></circle>
</g>
<g class="legend-item" data-skew="ffss">
<line x1="713" y1="77" x2="741" y2="77" stroke="#3498db" stroke-width="2.5" />
<circle cx="727" cy="77" r="5" fill="#3498db"/>
<text x="745" y="81" font-size="10" font-family="Arial,sans-serif" fill="#2c3e50">ffss (43407)</text>
</g>
<g class="legend-item" data-skew="fftt">
<line x1="713" y1="99" x2="741" y2="99" stroke="#e74c3c" stroke-width="2.5" stroke-dasharray="8,3" />
<circle cx="727" cy="99" r="5" fill="#e74c3c"/>
<text x="745" y="103" font-size="10" font-family="Arial,sans-serif" fill="#2c3e50">fftt (78814)</text>
</g>
<g class="legend-item" data-skew="fstt">
<line x1="713" y1="121" x2="741" y2="121" stroke="#2ecc71" stroke-width="2.5" stroke-dasharray="4,3" />
<circle cx="727" cy="121" r="5" fill="#2ecc71"/>
<text x="745" y="125" font-size="10" font-family="Arial,sans-serif" fill="#2c3e50">fstt (12566)</text>
</g>
<g class="legend-item" data-skew="sftt">
<line x1="713" y1="143" x2="741" y2="143" stroke="#9b59b6" stroke-width="2.5" stroke-dasharray="10,3,3,3" />
<circle cx="727" cy="143" r="5" fill="#9b59b6"/>
<text x="745" y="147" font-size="10" font-family="Arial,sans-serif" fill="#2c3e50">sftt (44565)</text>
</g>
<g class="legend-item" data-skew="ssff">
<line x1="713" y1="165" x2="741" y2="165" stroke="#e67e22" stroke-width="2.5" />
<circle cx="727" cy="165" r="5" fill="#e67e22"/>
<text x="745" y="169" font-size="10" font-family="Arial,sans-serif" fill="#2c3e50">ssff (96040)</text>
</g>
<g class="legend-item" data-skew="sstt">
<line x1="713" y1="187" x2="741" y2="187" stroke="#1abc9c" stroke-width="2.5" stroke-dasharray="8,3" />
<circle cx="727" cy="187" r="5" fill="#1abc9c"/>
<text x="745" y="191" font-size="10" font-family="Arial,sans-serif" fill="#2c3e50">sstt (29674)</text>
</g>
</svg>