<svg xmlns="http://www.w3.org/2000/svg" width="860" height="480" viewBox="0 0 860 480">
<rect width="860" height="480" fill="#ffffff"/>
<text x="430.0" y="28.0" font-size="16" font-weight="bold" text-anchor="middle" fill="#2c3e50" font-family="Arial,sans-serif">RF_KILLN — VIH_Min (V)  [VIH/VIL]</text>
<line x1="82.0" y1="380.0" x2="705.0" y2="380.0" stroke="#999" stroke-width="1"/>
<line x1="82.0" y1="72.0" x2="82.0" y2="380.0" stroke="#999" stroke-width="1"/>
<line x1="82.0" y1="72.0" x2="82.0" y2="380.0" stroke="#999" stroke-width="1"/>
<line x1="77.0" y1="380.0" x2="82.0" y2="380.0" stroke="#999" stroke-width="1"/>
<line x1="82.0" y1="380.0" x2="705.0" y2="380.0" stroke="#e0e0e0" stroke-width="0.8" stroke-dasharray="3,3"/>
<text x="74.0" y="384.0" font-size="9" font-weight="normal" text-anchor="end" fill="#7f8c8d" font-family="Arial,sans-serif">0.719</text>
<line x1="77.0" y1="318.4" x2="82.0" y2="318.4" stroke="#999" stroke-width="1"/>
<line x1="82.0" y1="318.4" x2="705.0" y2="318.4" stroke="#e0e0e0" stroke-width="0.8" stroke-dasharray="3,3"/>
<text x="74.0" y="322.4" font-size="9" font-weight="normal" text-anchor="end" fill="#7f8c8d" font-family="Arial,sans-serif">0.818</text>
<line x1="77.0" y1="256.8" x2="82.0" y2="256.8" stroke="#999" stroke-width="1"/>
<line x1="82.0" y1="256.8" x2="705.0" y2="256.8" stroke="#e0e0e0" stroke-width="0.8" stroke-dasharray="3,3"/>
<text x="74.0" y="260.8" font-size="9" font-weight="normal" text-anchor="end" fill="#7f8c8d" font-family="Arial,sans-serif">0.916</text>
<line x1="77.0" y1="195.2" x2="82.0" y2="195.2" stroke="#999" stroke-width="1"/>
<line x1="82.0" y1="195.2" x2="705.0" y2="195.2" stroke="#e0e0e0" stroke-width="0.8" stroke-dasharray="3,3"/>
<text x="74.0" y="199.2" font-size="9" font-weight="normal" text-anchor="end" fill="#7f8c8d" font-family="Arial,sans-serif">1.01</text>
<line x1="77.0" y1="133.6" x2="82.0" y2="133.6" stroke="#999" stroke-width="1"/>
<line x1="82.0" y1="133.6" x2="705.0" y2="133.6" stroke="#e0e0e0" stroke-width="0.8" stroke-dasharray="3,3"/>
<text x="74.0" y="137.6" font-size="9" font-weight="normal" text-anchor="end" fill="#7f8c8d" font-family="Arial,sans-serif">1.11</text>
<line x1="77.0" y1="72.0" x2="82.0" y2="72.0" stroke="#999" stroke-width="1"/>
<line x1="82.0" y1="72.0" x2="705.0" y2="72.0" stroke="#e0e0e0" stroke-width="0.8" stroke-dasharray="3,3"/>
<text x="74.0" y="76.0" font-size="9" font-weight="normal" text-anchor="end" fill="#7f8c8d" font-family="Arial,sans-serif">1.21</text>
<text x="14.0" y="226.0" font-size="10" font-weight="normal" text-anchor="middle" fill="#7f8c8d" font-family="Arial,sans-serif" transform="rotate(-90,14,226.0)">VIH_Min (V)</text>
<text x="116.6" y="394.0" font-size="8" font-weight="normal" text-anchor="end" fill="#333" font-family="Arial,sans-serif" transform="rotate(-45,116.6,394)">VIO=1.62
VC=0.64</text>
<text x="185.8" y="394.0" font-size="8" font-weight="normal" text-anchor="end" fill="#333" font-family="Arial,sans-serif" transform="rotate(-45,185.8,394)">VIO=1.8
VC=0.8</text>
<text x="255.1" y="394.0" font-size="8" font-weight="normal" text-anchor="end" fill="#333" font-family="Arial,sans-serif" transform="rotate(-45,255.1,394)">VIO=1.98
VC=0.96</text>
<line x1="289.7" y1="72.0" x2="289.7" y2="380.0" stroke="#cccccc" stroke-width="1" stroke-dasharray="4,3"/>
<text x="324.3" y="394.0" font-size="8" font-weight="normal" text-anchor="end" fill="#333" font-family="Arial,sans-serif" transform="rotate(-45,324.3,394)">VIO=1.62
VC=0.64</text>
<text x="393.5" y="394.0" font-size="8" font-weight="normal" text-anchor="end" fill="#333" font-family="Arial,sans-serif" transform="rotate(-45,393.5,394)">VIO=1.8
VC=0.8</text>
<text x="462.7" y="394.0" font-size="8" font-weight="normal" text-anchor="end" fill="#333" font-family="Arial,sans-serif" transform="rotate(-45,462.7,394)">VIO=1.98
VC=0.96</text>
<line x1="497.3" y1="72.0" x2="497.3" y2="380.0" stroke="#cccccc" stroke-width="1" stroke-dasharray="4,3"/>
<text x="531.9" y="394.0" font-size="8" font-weight="normal" text-anchor="end" fill="#333" font-family="Arial,sans-serif" transform="rotate(-45,531.9,394)">VIO=1.62
VC=0.64</text>
<text x="601.2" y="394.0" font-size="8" font-weight="normal" text-anchor="end" fill="#333" font-family="Arial,sans-serif" transform="rotate(-45,601.2,394)">VIO=1.8
VC=0.8</text>
<text x="670.4" y="394.0" font-size="8" font-weight="normal" text-anchor="end" fill="#333" font-family="Arial,sans-serif" transform="rotate(-45,670.4,394)">VIO=1.98
VC=0.96</text>
<text x="185.8" y="62.0" font-size="10" font-weight="bold" text-anchor="middle" fill="#2c3e50" font-family="Arial,sans-serif">T=0°C</text>
<text x="393.5" y="62.0" font-size="10" font-weight="bold" text-anchor="middle" fill="#2c3e50" font-family="Arial,sans-serif">T=20°C</text>
<text x="601.2" y="62.0" font-size="10" font-weight="bold" text-anchor="middle" fill="#2c3e50" font-family="Arial,sans-serif">T=80°C</text>
<g class="series" data-skew="ffss">
<path d="M116.6,298.1 L185.8,222.9 L255.1,141.4 L324.3,291.8 L393.5,222.9 L462.7,141.4 L531.9,291.8 L601.2,216.6 L670.4,141.4" fill="none" stroke="#3498db" stroke-width="2.5" stroke-linejoin="round" opacity="0.9"/>
<circle cx="116.6" cy="298.1" r="5" fill="#3498db" opacity="0.95"><title>RF_KILLN VIH_Min | ffss | Chip: 43407</title></circle>
<circle cx="185.8" cy="222.9" r="5" fill="#3498db" opacity="0.95"><title>RF_KILLN VIH_Min | ffss | Chip: 43407</title></circle>
<circle cx="255.1" cy="141.4" r="5" fill="#3498db" opacity="0.95"><title>RF_KILLN VIH_Min | ffss | Chip: 43407</title></circle>
<circle cx="324.3" cy="291.8" r="5" fill="#3498db" opacity="0.95"><title>RF_KILLN VIH_Min | ffss | Chip: 43407</title></circle>
<circle cx="393.5" cy="222.9" r="5" fill="#3498db" opacity="0.95"><title>RF_KILLN VIH_Min | ffss | Chip: 43407</title></circle>
<circle cx="462.7" cy="141.4" r="5" fill="#3498db" opacity="0.95"><title>RF_KILLN VIH_Min | ffss | Chip: 43407</title></circle>
<circle cx="531.9" cy="291.8" r="5" fill="#3498db" opacity="0.95"><title>RF_KILLN VIH_Min | ffss | Chip: 43407</title></circle>
<circle cx="601.2" cy="216.6" r="5" fill="#3498db" opacity="0.95"><title>RF_KILLN VIH_Min | ffss | Chip: 43407</title></circle>
<circle cx="670.4" cy="141.4" r="5" fill="#3498db" opacity="0.95"><title>RF_KILLN VIH_Min | ffss | Chip: 43407</title></circle>
</g>
<g class="series" data-skew="fftt">
<path d="M116.6,285.5 L185.8,216.6 L255.1,141.4 L324.3,285.5 L393.5,210.3 L462.7,135.1 L531.9,285.5 L601.2,210.3 L670.4,141.4" fill="none" stroke="#e74c3c" stroke-width="2.5" stroke-linejoin="round" stroke-dasharray="8,3" opacity="0.9"/>
<circle cx="116.6" cy="285.5" r="5" fill="#e74c3c" opacity="0.95"><title>RF_KILLN VIH_Min | fftt | Chip: 15382</title></circle>
<circle cx="185.8" cy="216.6" r="5" fill="#e74c3c" opacity="0.95"><title>RF_KILLN VIH_Min | fftt | Chip: 15382</title></circle>
<circle cx="255.1" cy="141.4" r="5" fill="#e74c3c" opacity="0.95"><title>RF_KILLN VIH_Min | fftt | Chip: 15382</title></circle>
<circle cx="324.3" cy="285.5" r="5" fill="#e74c3c" opacity="0.95"><title>RF_KILLN VIH_Min | fftt | Chip: 15382</title></circle>
<circle cx="393.5" cy="210.3" r="5" fill="#e74c3c" opacity="0.95"><title>RF_KILLN VIH_Min | fftt | Chip: 15382</title></circle>
<circle cx="462.7" cy="135.1" r="5" fill="#e74c3c" opacity="0.95"><title>RF_KILLN VIH_Min | fftt | Chip: 15382</title></circle>
<circle cx="531.9" cy="285.5" r="5" fill="#e74c3c" opacity="0.95"><title>RF_KILLN VIH_Min | fftt | Chip: 13967</title></circle>
<circle cx="601.2" cy="210.3" r="5" fill="#e74c3c" opacity="0.95"><title>RF_KILLN VIH_Min | fftt | Chip: 15382</title></circle>
<circle cx="670.4" cy="141.4" r="5" fill="#e74c3c" opacity="0.95"><title>RF_KILLN VIH_Min | fftt | Chip: 13967</title></circle>
</g>
<g class="series" data-skew="fstt">
<path d="M116.6,348.2 L185.8,247.9 L255.1,172.7 L324.3,316.9 L393.5,247.9 L462.7,172.7 L531.9,310.6 L601.2,241.7 L670.4,172.7" fill="none" stroke="#2ecc71" stroke-width="2.5" stroke-linejoin="round" stroke-dasharray="4,3" opacity="0.9"/>
<circle cx="116.6" cy="348.2" r="5" fill="#2ecc71" opacity="0.95"><title>RF_KILLN VIH_Min | fstt | Chip: 62919</title></circle>
<circle cx="185.8" cy="247.9" r="5" fill="#2ecc71" opacity="0.95"><title>RF_KILLN VIH_Min | fstt | Chip: 62919</title></circle>
<circle cx="255.1" cy="172.7" r="5" fill="#2ecc71" opacity="0.95"><title>RF_KILLN VIH_Min | fstt | Chip: 62919</title></circle>
<circle cx="324.3" cy="316.9" r="5" fill="#2ecc71" opacity="0.95"><title>RF_KILLN VIH_Min | fstt | Chip: 62919</title></circle>
<circle cx="393.5" cy="247.9" r="5" fill="#2ecc71" opacity="0.95"><title>RF_KILLN VIH_Min | fstt | Chip: 62919</title></circle>
<circle cx="462.7" cy="172.7" r="5" fill="#2ecc71" opacity="0.95"><title>RF_KILLN VIH_Min | fstt | Chip: 62919</title></circle>
<circle cx="531.9" cy="310.6" r="5" fill="#2ecc71" opacity="0.95"><title>RF_KILLN VIH_Min | fstt | Chip: 62919</title></circle>
<circle cx="601.2" cy="241.7" r="5" fill="#2ecc71" opacity="0.95"><title>RF_KILLN VIH_Min | fstt | Chip: 62919</title></circle>
<circle cx="670.4" cy="172.7" r="5" fill="#2ecc71" opacity="0.95"><title>RF_KILLN VIH_Min | fstt | Chip: 62919</title></circle>
</g>
<g class="series" data-skew="sftt">
<path d="M116.6,273.0 L185.8,197.8 L255.1,128.8 L324.3,273.0 L393.5,197.8 L462.7,128.8 L531.9,260.5 L601.2,197.8 L670.4,128.8" fill="none" stroke="#9b59b6" stroke-width="2.5" stroke-linejoin="round" stroke-dasharray="10,3,3,3" opacity="0.9"/>
<circle cx="116.6" cy="273.0" r="5" fill="#9b59b6" opacity="0.95"><title>RF_KILLN VIH_Min | sftt | Chip: 69627</title></circle>
<circle cx="185.8" cy="197.8" r="5" fill="#9b59b6" opacity="0.95"><title>RF_KILLN VIH_Min | sftt | Chip: 44565</title></circle>
<circle cx="255.1" cy="128.8" r="5" fill="#9b59b6" opacity="0.95"><title>RF_KILLN VIH_Min | sftt | Chip: 44565</title></circle>
<circle cx="324.3" cy="273.0" r="5" fill="#9b59b6" opacity="0.95"><title>RF_KILLN VIH_Min | sftt | Chip: 69627</title></circle>
<circle cx="393.5" cy="197.8" r="5" fill="#9b59b6" opacity="0.95"><title>RF_KILLN VIH_Min | sftt | Chip: 69627</title></circle>
<circle cx="462.7" cy="128.8" r="5" fill="#9b59b6" opacity="0.95"><title>RF_KILLN VIH_Min | sftt | Chip: 44565</title></circle>
<circle cx="531.9" cy="260.5" r="5" fill="#9b59b6" opacity="0.95"><title>RF_KILLN VIH_Min | sftt | Chip: 44565</title></circle>
<circle cx="601.2" cy="197.8" r="5" fill="#9b59b6" opacity="0.95"><title>RF_KILLN VIH_Min | sftt | Chip: 69627</title></circle>
<circle cx="670.4" cy="128.8" r="5" fill="#9b59b6" opacity="0.95"><title>RF_KILLN VIH_Min | sftt | Chip: 69627</title></circle>
</g>
<g class="series" data-skew="ssff">
<path d="M116.6,298.1 L185.8,229.1 L255.1,160.2 L324.3,304.3 L393.5,229.1 L462.7,166.5 L531.9,291.8 L601.2,229.1 L670.4,147.7" fill="none" stroke="#e67e22" stroke-width="2.5" stroke-linejoin="round" opacity="0.9"/>
<circle cx="116.6" cy="298.1" r="5" fill="#e67e22" opacity="0.95"><title>RF_KILLN VIH_Min | ssff | Chip: 57571</title></circle>
<circle cx="185.8" cy="229.1" r="5" fill="#e67e22" opacity="0.95"><title>RF_KILLN VIH_Min | ssff | Chip: 57571</title></circle>
<circle cx="255.1" cy="160.2" r="5" fill="#e67e22" opacity="0.95"><title>RF_KILLN VIH_Min | ssff | Chip: 57571</title></circle>
<circle cx="324.3" cy="304.3" r="5" fill="#e67e22" opacity="0.95"><title>RF_KILLN VIH_Min | ssff | Chip: 57571</title></circle>
<circle cx="393.5" cy="229.1" r="5" fill="#e67e22" opacity="0.95"><title>RF_KILLN VIH_Min | ssff | Chip: 57571</title></circle>
<circle cx="462.7" cy="166.5" r="5" fill="#e67e22" opacity="0.95"><title>RF_KILLN VIH_Min | ssff | Chip: 57571</title></circle>
<circle cx="531.9" cy="291.8" r="5" fill="#e67e22" opacity="0.95"><title>RF_KILLN VIH_Min | ssff | Chip: 56508</title></circle>
<circle cx="601.2" cy="229.1" r="5" fill="#e67e22" opacity="0.95"><title>RF_KILLN VIH_Min | ssff | Chip: 57571</title></circle>
<circle cx="670.4" cy="147.7" r="5" fill="#e67e22" opacity="0.95"><title>RF_KILLN VIH_Min | ssff | Chip: 56508</title></circle>
</g>
<g class="series" data-skew="sstt">
<path d="M116.6,298.1 L185.8,229.1 L255.1,185.3 L324.3,304.3 L393.5,229.1 L462.7,153.9 L531.9,298.1 L601.2,222.9 L670.4,160.2" fill="none" stroke="#1abc9c" stroke-width="2.5" stroke-linejoin="round" stroke-dasharray="8,3" opacity="0.9"/>
<circle cx="116.6" cy="298.1" r="5" fill="#1abc9c" opacity="0.95"><title>RF_KILLN VIH_Min | sstt | Chip: 9808</title></circle>
<circle cx="185.8" cy="229.1" r="5" fill="#1abc9c" opacity="0.95"><title>RF_KILLN VIH_Min | sstt | Chip: 9808</title></circle>
<circle cx="255.1" cy="185.3" r="5" fill="#1abc9c" opacity="0.95"><title>RF_KILLN VIH_Min | sstt | Chip: 58046</title></circle>
<circle cx="324.3" cy="304.3" r="5" fill="#1abc9c" opacity="0.95"><title>RF_KILLN VIH_Min | sstt | Chip: 9808</title></circle>
<circle cx="393.5" cy="229.1" r="5" fill="#1abc9c" opacity="0.95"><title>RF_KILLN VIH_Min | sstt | Chip: 9808</title></circle>
<circle cx="462.7" cy="153.9" r="5" fill="#1abc9c" opacity="0.95"><title>RF_KILLN VIH_Min | sstt | Chip: 9808</title></circle>
<circle cx="531.9" cy="298.1" r="5" fill="#1abc9c" opacity="0.95"><title>RF_KILLN VIH_Min | sstt | Chip: 9808</title></circle>
<circle cx="601.2" cy="222.9" r="5" fill="#1abc9c" opacity="0.95"><title>RF_KILLN VIH_Min | sstt | Chip: 9808</title></circle>
<circle cx="670.4" cy="160.2" r="5" fill="#1abc9c" opacity="0.95"><title>RF_KILLN VIH_Min | sstt | Chip: 9808</title></circle>
</g>
<g class="legend-item" data-skew="ffss">
<line x1="713" y1="77" x2="741" y2="77" stroke="#3498db" stroke-width="2.5" />
<circle cx="727" cy="77" r="5" fill="#3498db"/>
<text x="745" y="81" font-size="10" font-family="Arial,sans-serif" fill="#2c3e50">ffss (43407)</text>
</g>
<g class="legend-item" data-skew="fftt">
<line x1="713" y1="99" x2="741" y2="99" stroke="#e74c3c" stroke-width="2.5" stroke-dasharray="8,3" />
<circle cx="727" cy="99" r="5" fill="#e74c3c"/>
<text x="745" y="103" font-size="10" font-family="Arial,sans-serif" fill="#2c3e50">fftt (15382)</text>
</g>
<g class="legend-item" data-skew="fstt">
<line x1="713" y1="121" x2="741" y2="121" stroke="#2ecc71" stroke-width="2.5" stroke-dasharray="4,3" />
<circle cx="727" cy="121" r="5" fill="#2ecc71"/>
<text x="745" y="125" font-size="10" font-family="Arial,sans-serif" fill="#2c3e50">fstt (62919)</text>
</g>
<g class="legend-item" data-skew="sftt">
<line x1="713" y1="143" x2="741" y2="143" stroke="#9b59b6" stroke-width="2.5" stroke-dasharray="10,3,3,3" />
<circle cx="727" cy="143" r="5" fill="#9b59b6"/>
<text x="745" y="147" font-size="10" font-family="Arial,sans-serif" fill="#2c3e50">sftt (69627)</text>
</g>
<g class="legend-item" data-skew="ssff">
<line x1="713" y1="165" x2="741" y2="165" stroke="#e67e22" stroke-width="2.5" />
<circle cx="727" cy="165" r="5" fill="#e67e22"/>
<text x="745" y="169" font-size="10" font-family="Arial,sans-serif" fill="#2c3e50">ssff (57571)</text>
</g>
<g class="legend-item" data-skew="sstt">
<line x1="713" y1="187" x2="741" y2="187" stroke="#1abc9c" stroke-width="2.5" stroke-dasharray="8,3" />
<circle cx="727" cy="187" r="5" fill="#1abc9c"/>
<text x="745" y="191" font-size="10" font-family="Arial,sans-serif" fill="#2c3e50">sstt (9808)</text>
</g>
</svg>