<svg xmlns="http://www.w3.org/2000/svg" width="1000" height="526" viewBox="0 0 1000 526">
<rect width="1000" height="526" fill="#ffffff"/>
<text x="500.0" y="28.0" font-size="16" font-weight="bold" text-anchor="middle" fill="#2c3e50" font-family="Arial,sans-serif">RF_KILLN — VOL (V) [VOH/VOL]</text>
<line x1="82.0" y1="456.0" x2="800.0" y2="456.0" stroke="#999" stroke-width="1"/>
<line x1="82.0" y1="72.0" x2="82.0" y2="456.0" stroke="#999" stroke-width="1"/>
<line x1="82.0" y1="72.0" x2="82.0" y2="456.0" stroke="#999" stroke-width="1"/>
<line x1="77.0" y1="456.0" x2="82.0" y2="456.0" stroke="#999" stroke-width="1"/>
<line x1="82.0" y1="456.0" x2="800.0" y2="456.0" stroke="#e0e0e0" stroke-width="0.8" stroke-dasharray="3,3"/>
<text x="74.0" y="460.0" font-size="9" font-weight="normal" text-anchor="end" fill="#7f8c8d" font-family="Arial,sans-serif">0.197</text>
<line x1="77.0" y1="379.2" x2="82.0" y2="379.2" stroke="#999" stroke-width="1"/>
<line x1="82.0" y1="379.2" x2="800.0" y2="379.2" stroke="#e0e0e0" stroke-width="0.8" stroke-dasharray="3,3"/>
<text x="74.0" y="383.2" font-size="9" font-weight="normal" text-anchor="end" fill="#7f8c8d" font-family="Arial,sans-serif">0.25</text>
<line x1="77.0" y1="302.4" x2="82.0" y2="302.4" stroke="#999" stroke-width="1"/>
<line x1="82.0" y1="302.4" x2="800.0" y2="302.4" stroke="#e0e0e0" stroke-width="0.8" stroke-dasharray="3,3"/>
<text x="74.0" y="306.4" font-size="9" font-weight="normal" text-anchor="end" fill="#7f8c8d" font-family="Arial,sans-serif">0.304</text>
<line x1="77.0" y1="225.6" x2="82.0" y2="225.6" stroke="#999" stroke-width="1"/>
<line x1="82.0" y1="225.6" x2="800.0" y2="225.6" stroke="#e0e0e0" stroke-width="0.8" stroke-dasharray="3,3"/>
<text x="74.0" y="229.6" font-size="9" font-weight="normal" text-anchor="end" fill="#7f8c8d" font-family="Arial,sans-serif">0.358</text>
<line x1="77.0" y1="148.8" x2="82.0" y2="148.8" stroke="#999" stroke-width="1"/>
<line x1="82.0" y1="148.8" x2="800.0" y2="148.8" stroke="#e0e0e0" stroke-width="0.8" stroke-dasharray="3,3"/>
<text x="74.0" y="152.8" font-size="9" font-weight="normal" text-anchor="end" fill="#7f8c8d" font-family="Arial,sans-serif">0.411</text>
<line x1="77.0" y1="72.0" x2="82.0" y2="72.0" stroke="#999" stroke-width="1"/>
<line x1="82.0" y1="72.0" x2="800.0" y2="72.0" stroke="#e0e0e0" stroke-width="0.8" stroke-dasharray="3,3"/>
<text x="74.0" y="76.0" font-size="9" font-weight="normal" text-anchor="end" fill="#7f8c8d" font-family="Arial,sans-serif">0.465</text>
<text x="14.0" y="264.0" font-size="10" font-weight="normal" text-anchor="middle" fill="#7f8c8d" font-family="Arial,sans-serif" transform="rotate(-90,14,264.0)">VOL (V)</text>
<text x="111.9" y="471.0" font-size="8" font-weight="normal" text-anchor="middle" fill="#7f8c8d" font-family="Arial,sans-serif">DS_0</text>
<text x="171.8" y="471.0" font-size="8" font-weight="normal" text-anchor="middle" fill="#7f8c8d" font-family="Arial,sans-serif">DS_1</text>
<text x="231.6" y="471.0" font-size="8" font-weight="normal" text-anchor="middle" fill="#7f8c8d" font-family="Arial,sans-serif">DS_2</text>
<text x="291.4" y="471.0" font-size="8" font-weight="normal" text-anchor="middle" fill="#7f8c8d" font-family="Arial,sans-serif">DS_3</text>
<text x="351.2" y="471.0" font-size="8" font-weight="normal" text-anchor="middle" fill="#7f8c8d" font-family="Arial,sans-serif">DS_0</text>
<line x1="321.3" y1="72.0" x2="321.3" y2="456.0" stroke="#cccccc" stroke-width="1" stroke-dasharray="4,3"/>
<text x="411.1" y="471.0" font-size="8" font-weight="normal" text-anchor="middle" fill="#7f8c8d" font-family="Arial,sans-serif">DS_1</text>
<text x="470.9" y="471.0" font-size="8" font-weight="normal" text-anchor="middle" fill="#7f8c8d" font-family="Arial,sans-serif">DS_2</text>
<text x="530.8" y="471.0" font-size="8" font-weight="normal" text-anchor="middle" fill="#7f8c8d" font-family="Arial,sans-serif">DS_3</text>
<text x="590.6" y="471.0" font-size="8" font-weight="normal" text-anchor="middle" fill="#7f8c8d" font-family="Arial,sans-serif">DS_0</text>
<line x1="560.7" y1="72.0" x2="560.7" y2="456.0" stroke="#cccccc" stroke-width="1" stroke-dasharray="4,3"/>
<text x="650.4" y="471.0" font-size="8" font-weight="normal" text-anchor="middle" fill="#7f8c8d" font-family="Arial,sans-serif">DS_1</text>
<text x="710.2" y="471.0" font-size="8" font-weight="normal" text-anchor="middle" fill="#7f8c8d" font-family="Arial,sans-serif">DS_2</text>
<text x="770.1" y="471.0" font-size="8" font-weight="normal" text-anchor="middle" fill="#7f8c8d" font-family="Arial,sans-serif">DS_3</text>
<text x="201.7" y="62.0" font-size="10" font-weight="bold" text-anchor="middle" fill="#2c3e50" font-family="Arial,sans-serif">T=0°C</text>
<text x="441.0" y="62.0" font-size="10" font-weight="bold" text-anchor="middle" fill="#2c3e50" font-family="Arial,sans-serif">T=20°C</text>
<text x="680.3" y="62.0" font-size="10" font-weight="bold" text-anchor="middle" fill="#2c3e50" font-family="Arial,sans-serif">T=80°C</text>
<text x="441.0" y="490.0" font-size="11" font-weight="normal" text-anchor="middle" fill="#2c3e50" font-family="Arial,sans-serif">Temperature  /  Drive Strength (DS)</text>
<g class="series" data-viocore="0.64/1.62" data-skew="ffss">
<path d="M111.9,372.6 L171.8,365.0 L231.6,232.5 L291.4,150.4 L351.2,364.3 L411.1,356.7 L470.9,220.5 L530.8,136.1 L590.6,357.1 L650.4,344.8 L710.2,201.0 L770.1,109.2" fill="none" stroke="#3498db" stroke-width="2.2" stroke-linejoin="round" opacity="0.9"/>
<circle cx="111.9" cy="372.6" r="5" fill="#3498db" opacity="0.9"><title>RF_KILLN VOL | 0.64/1.62 | ffss | Chip: 43407</title></circle>
<circle cx="171.8" cy="365.0" r="5" fill="#3498db" opacity="0.9"><title>RF_KILLN VOL | 0.64/1.62 | ffss | Chip: 43407</title></circle>
<circle cx="231.6" cy="232.5" r="5" fill="#3498db" opacity="0.9"><title>RF_KILLN VOL | 0.64/1.62 | ffss | Chip: 43407</title></circle>
<circle cx="291.4" cy="150.4" r="5" fill="#3498db" opacity="0.9"><title>RF_KILLN VOL | 0.64/1.62 | ffss | Chip: 43407</title></circle>
<circle cx="351.2" cy="364.3" r="5" fill="#3498db" opacity="0.9"><title>RF_KILLN VOL | 0.64/1.62 | ffss | Chip: 43407</title></circle>
<circle cx="411.1" cy="356.7" r="5" fill="#3498db" opacity="0.9"><title>RF_KILLN VOL | 0.64/1.62 | ffss | Chip: 43407</title></circle>
<circle cx="470.9" cy="220.5" r="5" fill="#3498db" opacity="0.9"><title>RF_KILLN VOL | 0.64/1.62 | ffss | Chip: 43407</title></circle>
<circle cx="530.8" cy="136.1" r="5" fill="#3498db" opacity="0.9"><title>RF_KILLN VOL | 0.64/1.62 | ffss | Chip: 43407</title></circle>
<circle cx="590.6" cy="357.1" r="5" fill="#3498db" opacity="0.9"><title>RF_KILLN VOL | 0.64/1.62 | ffss | Chip: 43407</title></circle>
<circle cx="650.4" cy="344.8" r="5" fill="#3498db" opacity="0.9"><title>RF_KILLN VOL | 0.64/1.62 | ffss | Chip: 43407</title></circle>
<circle cx="710.2" cy="201.0" r="5" fill="#3498db" opacity="0.9"><title>RF_KILLN VOL | 0.64/1.62 | ffss | Chip: 43407</title></circle>
<circle cx="770.1" cy="109.2" r="5" fill="#3498db" opacity="0.9"><title>RF_KILLN VOL | 0.64/1.62 | ffss | Chip: 43407</title></circle>
</g>
<g class="series" data-viocore="0.64/1.62" data-skew="fftt">
<path d="M111.9,396.9 L171.8,390.8 L231.6,265.0 L291.4,187.4 L351.2,389.2 L411.1,382.2 L470.9,254.4 L530.8,174.3 L590.6,379.7 L650.4,367.6 L710.2,231.3 L770.1,143.4" fill="none" stroke="#e74c3c" stroke-width="2.2" stroke-linejoin="round" stroke-dasharray="8,3" opacity="0.9"/>
<circle cx="111.9" cy="396.9" r="5" fill="#e74c3c" opacity="0.9"><title>RF_KILLN VOL | 0.64/1.62 | fftt | Chip: 78814</title></circle>
<circle cx="171.8" cy="390.8" r="5" fill="#e74c3c" opacity="0.9"><title>RF_KILLN VOL | 0.64/1.62 | fftt | Chip: 13967</title></circle>
<circle cx="231.6" cy="265.0" r="5" fill="#e74c3c" opacity="0.9"><title>RF_KILLN VOL | 0.64/1.62 | fftt | Chip: 78814</title></circle>
<circle cx="291.4" cy="187.4" r="5" fill="#e74c3c" opacity="0.9"><title>RF_KILLN VOL | 0.64/1.62 | fftt | Chip: 78814</title></circle>
<circle cx="351.2" cy="389.2" r="5" fill="#e74c3c" opacity="0.9"><title>RF_KILLN VOL | 0.64/1.62 | fftt | Chip: 78814</title></circle>
<circle cx="411.1" cy="382.2" r="5" fill="#e74c3c" opacity="0.9"><title>RF_KILLN VOL | 0.64/1.62 | fftt | Chip: 78814</title></circle>
<circle cx="470.9" cy="254.4" r="5" fill="#e74c3c" opacity="0.9"><title>RF_KILLN VOL | 0.64/1.62 | fftt | Chip: 78814</title></circle>
<circle cx="530.8" cy="174.3" r="5" fill="#e74c3c" opacity="0.9"><title>RF_KILLN VOL | 0.64/1.62 | fftt | Chip: 78814</title></circle>
<circle cx="590.6" cy="379.7" r="5" fill="#e74c3c" opacity="0.9"><title>RF_KILLN VOL | 0.64/1.62 | fftt | Chip: 78814</title></circle>
<circle cx="650.4" cy="367.6" r="5" fill="#e74c3c" opacity="0.9"><title>RF_KILLN VOL | 0.64/1.62 | fftt | Chip: 78814</title></circle>
<circle cx="710.2" cy="231.3" r="5" fill="#e74c3c" opacity="0.9"><title>RF_KILLN VOL | 0.64/1.62 | fftt | Chip: 78814</title></circle>
<circle cx="770.1" cy="143.4" r="5" fill="#e74c3c" opacity="0.9"><title>RF_KILLN VOL | 0.64/1.62 | fftt | Chip: 78814</title></circle>
</g>
<g class="series" data-viocore="0.64/1.62" data-skew="fstt">
<path d="M111.9,396.6 L171.8,387.8 L231.6,263.1 L291.4,184.8 L351.2,389.3 L411.1,381.2 L470.9,253.3 L530.8,172.8 L590.6,377.9 L650.4,365.6 L710.2,229.2 L770.1,140.5" fill="none" stroke="#2ecc71" stroke-width="2.2" stroke-linejoin="round" stroke-dasharray="4,3" opacity="0.9"/>
<circle cx="111.9" cy="396.6" r="5" fill="#2ecc71" opacity="0.9"><title>RF_KILLN VOL | 0.64/1.62 | fstt | Chip: 12566</title></circle>
<circle cx="171.8" cy="387.8" r="5" fill="#2ecc71" opacity="0.9"><title>RF_KILLN VOL | 0.64/1.62 | fstt | Chip: 12566</title></circle>
<circle cx="231.6" cy="263.1" r="5" fill="#2ecc71" opacity="0.9"><title>RF_KILLN VOL | 0.64/1.62 | fstt | Chip: 12566</title></circle>
<circle cx="291.4" cy="184.8" r="5" fill="#2ecc71" opacity="0.9"><title>RF_KILLN VOL | 0.64/1.62 | fstt | Chip: 12566</title></circle>
<circle cx="351.2" cy="389.3" r="5" fill="#2ecc71" opacity="0.9"><title>RF_KILLN VOL | 0.64/1.62 | fstt | Chip: 62919</title></circle>
<circle cx="411.1" cy="381.2" r="5" fill="#2ecc71" opacity="0.9"><title>RF_KILLN VOL | 0.64/1.62 | fstt | Chip: 12566</title></circle>
<circle cx="470.9" cy="253.3" r="5" fill="#2ecc71" opacity="0.9"><title>RF_KILLN VOL | 0.64/1.62 | fstt | Chip: 12566</title></circle>
<circle cx="530.8" cy="172.8" r="5" fill="#2ecc71" opacity="0.9"><title>RF_KILLN VOL | 0.64/1.62 | fstt | Chip: 12566</title></circle>
<circle cx="590.6" cy="377.9" r="5" fill="#2ecc71" opacity="0.9"><title>RF_KILLN VOL | 0.64/1.62 | fstt | Chip: 12566</title></circle>
<circle cx="650.4" cy="365.6" r="5" fill="#2ecc71" opacity="0.9"><title>RF_KILLN VOL | 0.64/1.62 | fstt | Chip: 12566</title></circle>
<circle cx="710.2" cy="229.2" r="5" fill="#2ecc71" opacity="0.9"><title>RF_KILLN VOL | 0.64/1.62 | fstt | Chip: 12566</title></circle>
<circle cx="770.1" cy="140.5" r="5" fill="#2ecc71" opacity="0.9"><title>RF_KILLN VOL | 0.64/1.62 | fstt | Chip: 12566</title></circle>
</g>
<g class="series" data-viocore="0.64/1.62" data-skew="sftt">
<path d="M111.9,378.9 L171.8,374.3 L231.6,240.9 L291.4,159.9 L351.2,369.9 L411.1,365.3 L470.9,228.3 L530.8,144.8 L590.6,363.3 L650.4,355.1 L710.2,210.0 L770.1,119.3" fill="none" stroke="#9b59b6" stroke-width="2.2" stroke-linejoin="round" stroke-dasharray="10,3,3,3" opacity="0.9"/>
<circle cx="111.9" cy="378.9" r="5" fill="#9b59b6" opacity="0.9"><title>RF_KILLN VOL | 0.64/1.62 | sftt | Chip: 44565</title></circle>
<circle cx="171.8" cy="374.3" r="5" fill="#9b59b6" opacity="0.9"><title>RF_KILLN VOL | 0.64/1.62 | sftt | Chip: 44565</title></circle>
<circle cx="231.6" cy="240.9" r="5" fill="#9b59b6" opacity="0.9"><title>RF_KILLN VOL | 0.64/1.62 | sftt | Chip: 44565</title></circle>
<circle cx="291.4" cy="159.9" r="5" fill="#9b59b6" opacity="0.9"><title>RF_KILLN VOL | 0.64/1.62 | sftt | Chip: 44565</title></circle>
<circle cx="351.2" cy="369.9" r="5" fill="#9b59b6" opacity="0.9"><title>RF_KILLN VOL | 0.64/1.62 | sftt | Chip: 44565</title></circle>
<circle cx="411.1" cy="365.3" r="5" fill="#9b59b6" opacity="0.9"><title>RF_KILLN VOL | 0.64/1.62 | sftt | Chip: 44565</title></circle>
<circle cx="470.9" cy="228.3" r="5" fill="#9b59b6" opacity="0.9"><title>RF_KILLN VOL | 0.64/1.62 | sftt | Chip: 44565</title></circle>
<circle cx="530.8" cy="144.8" r="5" fill="#9b59b6" opacity="0.9"><title>RF_KILLN VOL | 0.64/1.62 | sftt | Chip: 44565</title></circle>
<circle cx="590.6" cy="363.3" r="5" fill="#9b59b6" opacity="0.9"><title>RF_KILLN VOL | 0.64/1.62 | sftt | Chip: 44565</title></circle>
<circle cx="650.4" cy="355.1" r="5" fill="#9b59b6" opacity="0.9"><title>RF_KILLN VOL | 0.64/1.62 | sftt | Chip: 44565</title></circle>
<circle cx="710.2" cy="210.0" r="5" fill="#9b59b6" opacity="0.9"><title>RF_KILLN VOL | 0.64/1.62 | sftt | Chip: 44565</title></circle>
<circle cx="770.1" cy="119.3" r="5" fill="#9b59b6" opacity="0.9"><title>RF_KILLN VOL | 0.64/1.62 | sftt | Chip: 44565</title></circle>
</g>
<g class="series" data-viocore="0.64/1.62" data-skew="ssff">
<path d="M111.9,405.9 L171.8,397.2 L231.6,274.7 L291.4,197.4 L351.2,398.1 L411.1,390.3 L470.9,265.0 L530.8,185.2 L590.6,386.8 L650.4,374.1 L710.2,239.6 L770.1,152.1" fill="none" stroke="#e67e22" stroke-width="2.2" stroke-linejoin="round" opacity="0.9"/>
<circle cx="111.9" cy="405.9" r="5" fill="#e67e22" opacity="0.9"><title>RF_KILLN VOL | 0.64/1.62 | ssff | Chip: 96040</title></circle>
<circle cx="171.8" cy="397.2" r="5" fill="#e67e22" opacity="0.9"><title>RF_KILLN VOL | 0.64/1.62 | ssff | Chip: 96040</title></circle>
<circle cx="231.6" cy="274.7" r="5" fill="#e67e22" opacity="0.9"><title>RF_KILLN VOL | 0.64/1.62 | ssff | Chip: 96040</title></circle>
<circle cx="291.4" cy="197.4" r="5" fill="#e67e22" opacity="0.9"><title>RF_KILLN VOL | 0.64/1.62 | ssff | Chip: 96040</title></circle>
<circle cx="351.2" cy="398.1" r="5" fill="#e67e22" opacity="0.9"><title>RF_KILLN VOL | 0.64/1.62 | ssff | Chip: 96040</title></circle>
<circle cx="411.1" cy="390.3" r="5" fill="#e67e22" opacity="0.9"><title>RF_KILLN VOL | 0.64/1.62 | ssff | Chip: 96040</title></circle>
<circle cx="470.9" cy="265.0" r="5" fill="#e67e22" opacity="0.9"><title>RF_KILLN VOL | 0.64/1.62 | ssff | Chip: 96040</title></circle>
<circle cx="530.8" cy="185.2" r="5" fill="#e67e22" opacity="0.9"><title>RF_KILLN VOL | 0.64/1.62 | ssff | Chip: 96040</title></circle>
<circle cx="590.6" cy="386.8" r="5" fill="#e67e22" opacity="0.9"><title>RF_KILLN VOL | 0.64/1.62 | ssff | Chip: 96040</title></circle>
<circle cx="650.4" cy="374.1" r="5" fill="#e67e22" opacity="0.9"><title>RF_KILLN VOL | 0.64/1.62 | ssff | Chip: 96040</title></circle>
<circle cx="710.2" cy="239.6" r="5" fill="#e67e22" opacity="0.9"><title>RF_KILLN VOL | 0.64/1.62 | ssff | Chip: 96040</title></circle>
<circle cx="770.1" cy="152.1" r="5" fill="#e67e22" opacity="0.9"><title>RF_KILLN VOL | 0.64/1.62 | ssff | Chip: 96040</title></circle>
</g>
<g class="series" data-viocore="0.64/1.62" data-skew="sstt">
<path d="M111.9,397.4 L171.8,391.2 L231.6,264.4 L291.4,186.1 L351.2,389.0 L411.1,382.3 L470.9,253.7 L530.8,172.8 L590.6,378.6 L650.4,367.1 L710.2,230.3 L770.1,141.7" fill="none" stroke="#1abc9c" stroke-width="2.2" stroke-linejoin="round" stroke-dasharray="8,3" opacity="0.9"/>
<circle cx="111.9" cy="397.4" r="5" fill="#1abc9c" opacity="0.9"><title>RF_KILLN VOL | 0.64/1.62 | sstt | Chip: 29674</title></circle>
<circle cx="171.8" cy="391.2" r="5" fill="#1abc9c" opacity="0.9"><title>RF_KILLN VOL | 0.64/1.62 | sstt | Chip: 9808</title></circle>
<circle cx="231.6" cy="264.4" r="5" fill="#1abc9c" opacity="0.9"><title>RF_KILLN VOL | 0.64/1.62 | sstt | Chip: 9808</title></circle>
<circle cx="291.4" cy="186.1" r="5" fill="#1abc9c" opacity="0.9"><title>RF_KILLN VOL | 0.64/1.62 | sstt | Chip: 9808</title></circle>
<circle cx="351.2" cy="389.0" r="5" fill="#1abc9c" opacity="0.9"><title>RF_KILLN VOL | 0.64/1.62 | sstt | Chip: 9808</title></circle>
<circle cx="411.1" cy="382.3" r="5" fill="#1abc9c" opacity="0.9"><title>RF_KILLN VOL | 0.64/1.62 | sstt | Chip: 29674</title></circle>
<circle cx="470.9" cy="253.7" r="5" fill="#1abc9c" opacity="0.9"><title>RF_KILLN VOL | 0.64/1.62 | sstt | Chip: 9808</title></circle>
<circle cx="530.8" cy="172.8" r="5" fill="#1abc9c" opacity="0.9"><title>RF_KILLN VOL | 0.64/1.62 | sstt | Chip: 9808</title></circle>
<circle cx="590.6" cy="378.6" r="5" fill="#1abc9c" opacity="0.9"><title>RF_KILLN VOL | 0.64/1.62 | sstt | Chip: 9808</title></circle>
<circle cx="650.4" cy="367.1" r="5" fill="#1abc9c" opacity="0.9"><title>RF_KILLN VOL | 0.64/1.62 | sstt | Chip: 29674</title></circle>
<circle cx="710.2" cy="230.3" r="5" fill="#1abc9c" opacity="0.9"><title>RF_KILLN VOL | 0.64/1.62 | sstt | Chip: 9808</title></circle>
<circle cx="770.1" cy="141.7" r="5" fill="#1abc9c" opacity="0.9"><title>RF_KILLN VOL | 0.64/1.62 | sstt | Chip: 9808</title></circle>
</g>
<g class="series" data-viocore="0.8/1.8" data-skew="ffss">
<path d="M111.9,379.7 L171.8,372.3 L231.6,242.7 L291.4,162.3 L351.2,370.9 L411.1,364.1 L470.9,231.1 L530.8,148.0 L590.6,365.8 L650.4,354.4 L710.2,213.9 L770.1,123.8" fill="none" stroke="#c0392b" stroke-width="2.2" stroke-linejoin="round" stroke-dasharray="4,3" opacity="0.9"/>
<circle cx="111.9" cy="379.7" r="5" fill="#c0392b" opacity="0.9"><title>RF_KILLN VOL | 0.8/1.8 | ffss | Chip: 43407</title></circle>
<circle cx="171.8" cy="372.3" r="5" fill="#c0392b" opacity="0.9"><title>RF_KILLN VOL | 0.8/1.8 | ffss | Chip: 43407</title></circle>
<circle cx="231.6" cy="242.7" r="5" fill="#c0392b" opacity="0.9"><title>RF_KILLN VOL | 0.8/1.8 | ffss | Chip: 43407</title></circle>
<circle cx="291.4" cy="162.3" r="5" fill="#c0392b" opacity="0.9"><title>RF_KILLN VOL | 0.8/1.8 | ffss | Chip: 43407</title></circle>
<circle cx="351.2" cy="370.9" r="5" fill="#c0392b" opacity="0.9"><title>RF_KILLN VOL | 0.8/1.8 | ffss | Chip: 43407</title></circle>
<circle cx="411.1" cy="364.1" r="5" fill="#c0392b" opacity="0.9"><title>RF_KILLN VOL | 0.8/1.8 | ffss | Chip: 43407</title></circle>
<circle cx="470.9" cy="231.1" r="5" fill="#c0392b" opacity="0.9"><title>RF_KILLN VOL | 0.8/1.8 | ffss | Chip: 43407</title></circle>
<circle cx="530.8" cy="148.0" r="5" fill="#c0392b" opacity="0.9"><title>RF_KILLN VOL | 0.8/1.8 | ffss | Chip: 43407</title></circle>
<circle cx="590.6" cy="365.8" r="5" fill="#c0392b" opacity="0.9"><title>RF_KILLN VOL | 0.8/1.8 | ffss | Chip: 43407</title></circle>
<circle cx="650.4" cy="354.4" r="5" fill="#c0392b" opacity="0.9"><title>RF_KILLN VOL | 0.8/1.8 | ffss | Chip: 43407</title></circle>
<circle cx="710.2" cy="213.9" r="5" fill="#c0392b" opacity="0.9"><title>RF_KILLN VOL | 0.8/1.8 | ffss | Chip: 43407</title></circle>
<circle cx="770.1" cy="123.8" r="5" fill="#c0392b" opacity="0.9"><title>RF_KILLN VOL | 0.8/1.8 | ffss | Chip: 43407</title></circle>
</g>
<g class="series" data-viocore="0.8/1.8" data-skew="fftt">
<path d="M111.9,402.2 L171.8,394.8 L231.6,272.9 L291.4,196.5 L351.2,394.5 L411.1,388.2 L470.9,262.7 L530.8,183.8 L590.6,387.2 L650.4,375.2 L710.2,241.7 L770.1,155.3" fill="none" stroke="#2980b9" stroke-width="2.2" stroke-linejoin="round" stroke-dasharray="10,3,3,3" opacity="0.9"/>
<circle cx="111.9" cy="402.2" r="5" fill="#2980b9" opacity="0.9"><title>RF_KILLN VOL | 0.8/1.8 | fftt | Chip: 78814</title></circle>
<circle cx="171.8" cy="394.8" r="5" fill="#2980b9" opacity="0.9"><title>RF_KILLN VOL | 0.8/1.8 | fftt | Chip: 78814</title></circle>
<circle cx="231.6" cy="272.9" r="5" fill="#2980b9" opacity="0.9"><title>RF_KILLN VOL | 0.8/1.8 | fftt | Chip: 78814</title></circle>
<circle cx="291.4" cy="196.5" r="5" fill="#2980b9" opacity="0.9"><title>RF_KILLN VOL | 0.8/1.8 | fftt | Chip: 78814</title></circle>
<circle cx="351.2" cy="394.5" r="5" fill="#2980b9" opacity="0.9"><title>RF_KILLN VOL | 0.8/1.8 | fftt | Chip: 78814</title></circle>
<circle cx="411.1" cy="388.2" r="5" fill="#2980b9" opacity="0.9"><title>RF_KILLN VOL | 0.8/1.8 | fftt | Chip: 13967</title></circle>
<circle cx="470.9" cy="262.7" r="5" fill="#2980b9" opacity="0.9"><title>RF_KILLN VOL | 0.8/1.8 | fftt | Chip: 78814</title></circle>
<circle cx="530.8" cy="183.8" r="5" fill="#2980b9" opacity="0.9"><title>RF_KILLN VOL | 0.8/1.8 | fftt | Chip: 78814</title></circle>
<circle cx="590.6" cy="387.2" r="5" fill="#2980b9" opacity="0.9"><title>RF_KILLN VOL | 0.8/1.8 | fftt | Chip: 13967</title></circle>
<circle cx="650.4" cy="375.2" r="5" fill="#2980b9" opacity="0.9"><title>RF_KILLN VOL | 0.8/1.8 | fftt | Chip: 78814</title></circle>
<circle cx="710.2" cy="241.7" r="5" fill="#2980b9" opacity="0.9"><title>RF_KILLN VOL | 0.8/1.8 | fftt | Chip: 78814</title></circle>
<circle cx="770.1" cy="155.3" r="5" fill="#2980b9" opacity="0.9"><title>RF_KILLN VOL | 0.8/1.8 | fftt | Chip: 78814</title></circle>
</g>
<g class="series" data-viocore="0.8/1.8" data-skew="fstt">
<path d="M111.9,401.4 L171.8,393.2 L231.6,270.6 L291.4,193.7 L351.2,395.3 L411.1,386.5 L470.9,261.1 L530.8,181.8 L590.6,384.7 L650.4,372.4 L710.2,238.8 L770.1,151.7" fill="none" stroke="#27ae60" stroke-width="2.2" stroke-linejoin="round" opacity="0.9"/>
<circle cx="111.9" cy="401.4" r="5" fill="#27ae60" opacity="0.9"><title>RF_KILLN VOL | 0.8/1.8 | fstt | Chip: 12566</title></circle>
<circle cx="171.8" cy="393.2" r="5" fill="#27ae60" opacity="0.9"><title>RF_KILLN VOL | 0.8/1.8 | fstt | Chip: 12566</title></circle>
<circle cx="231.6" cy="270.6" r="5" fill="#27ae60" opacity="0.9"><title>RF_KILLN VOL | 0.8/1.8 | fstt | Chip: 12566</title></circle>
<circle cx="291.4" cy="193.7" r="5" fill="#27ae60" opacity="0.9"><title>RF_KILLN VOL | 0.8/1.8 | fstt | Chip: 12566</title></circle>
<circle cx="351.2" cy="395.3" r="5" fill="#27ae60" opacity="0.9"><title>RF_KILLN VOL | 0.8/1.8 | fstt | Chip: 12566</title></circle>
<circle cx="411.1" cy="386.5" r="5" fill="#27ae60" opacity="0.9"><title>RF_KILLN VOL | 0.8/1.8 | fstt | Chip: 12566</title></circle>
<circle cx="470.9" cy="261.1" r="5" fill="#27ae60" opacity="0.9"><title>RF_KILLN VOL | 0.8/1.8 | fstt | Chip: 12566</title></circle>
<circle cx="530.8" cy="181.8" r="5" fill="#27ae60" opacity="0.9"><title>RF_KILLN VOL | 0.8/1.8 | fstt | Chip: 12566</title></circle>
<circle cx="590.6" cy="384.7" r="5" fill="#27ae60" opacity="0.9"><title>RF_KILLN VOL | 0.8/1.8 | fstt | Chip: 12566</title></circle>
<circle cx="650.4" cy="372.4" r="5" fill="#27ae60" opacity="0.9"><title>RF_KILLN VOL | 0.8/1.8 | fstt | Chip: 12566</title></circle>
<circle cx="710.2" cy="238.8" r="5" fill="#27ae60" opacity="0.9"><title>RF_KILLN VOL | 0.8/1.8 | fstt | Chip: 12566</title></circle>
<circle cx="770.1" cy="151.7" r="5" fill="#27ae60" opacity="0.9"><title>RF_KILLN VOL | 0.8/1.8 | fstt | Chip: 12566</title></circle>
</g>
<g class="series" data-viocore="0.8/1.8" data-skew="sftt">
<path d="M111.9,386.9 L171.8,382.2 L231.6,252.8 L291.4,173.8 L351.2,377.7 L411.1,373.3 L470.9,240.7 L530.8,158.6 L590.6,373.9 L650.4,362.3 L710.2,224.0 L770.1,135.2" fill="none" stroke="#8e44ad" stroke-width="2.2" stroke-linejoin="round" stroke-dasharray="8,3" opacity="0.9"/>
<circle cx="111.9" cy="386.9" r="5" fill="#8e44ad" opacity="0.9"><title>RF_KILLN VOL | 0.8/1.8 | sftt | Chip: 44565</title></circle>
<circle cx="171.8" cy="382.2" r="5" fill="#8e44ad" opacity="0.9"><title>RF_KILLN VOL | 0.8/1.8 | sftt | Chip: 44565</title></circle>
<circle cx="231.6" cy="252.8" r="5" fill="#8e44ad" opacity="0.9"><title>RF_KILLN VOL | 0.8/1.8 | sftt | Chip: 44565</title></circle>
<circle cx="291.4" cy="173.8" r="5" fill="#8e44ad" opacity="0.9"><title>RF_KILLN VOL | 0.8/1.8 | sftt | Chip: 44565</title></circle>
<circle cx="351.2" cy="377.7" r="5" fill="#8e44ad" opacity="0.9"><title>RF_KILLN VOL | 0.8/1.8 | sftt | Chip: 44565</title></circle>
<circle cx="411.1" cy="373.3" r="5" fill="#8e44ad" opacity="0.9"><title>RF_KILLN VOL | 0.8/1.8 | sftt | Chip: 44565</title></circle>
<circle cx="470.9" cy="240.7" r="5" fill="#8e44ad" opacity="0.9"><title>RF_KILLN VOL | 0.8/1.8 | sftt | Chip: 44565</title></circle>
<circle cx="530.8" cy="158.6" r="5" fill="#8e44ad" opacity="0.9"><title>RF_KILLN VOL | 0.8/1.8 | sftt | Chip: 44565</title></circle>
<circle cx="590.6" cy="373.9" r="5" fill="#8e44ad" opacity="0.9"><title>RF_KILLN VOL | 0.8/1.8 | sftt | Chip: 44565</title></circle>
<circle cx="650.4" cy="362.3" r="5" fill="#8e44ad" opacity="0.9"><title>RF_KILLN VOL | 0.8/1.8 | sftt | Chip: 44565</title></circle>
<circle cx="710.2" cy="224.0" r="5" fill="#8e44ad" opacity="0.9"><title>RF_KILLN VOL | 0.8/1.8 | sftt | Chip: 44565</title></circle>
<circle cx="770.1" cy="135.2" r="5" fill="#8e44ad" opacity="0.9"><title>RF_KILLN VOL | 0.8/1.8 | sftt | Chip: 44565</title></circle>
</g>
<g class="series" data-viocore="0.8/1.8" data-skew="ssff">
<path d="M111.9,410.5 L171.8,402.9 L231.6,283.1 L291.4,207.4 L351.2,404.2 L411.1,397.8 L470.9,273.5 L530.8,195.2 L590.6,394.1 L650.4,384.0 L710.2,251.1 L770.1,165.0" fill="none" stroke="#d35400" stroke-width="2.2" stroke-linejoin="round" stroke-dasharray="4,3" opacity="0.9"/>
<circle cx="111.9" cy="410.5" r="5" fill="#d35400" opacity="0.9"><title>RF_KILLN VOL | 0.8/1.8 | ssff | Chip: 96040</title></circle>
<circle cx="171.8" cy="402.9" r="5" fill="#d35400" opacity="0.9"><title>RF_KILLN VOL | 0.8/1.8 | ssff | Chip: 96040</title></circle>
<circle cx="231.6" cy="283.1" r="5" fill="#d35400" opacity="0.9"><title>RF_KILLN VOL | 0.8/1.8 | ssff | Chip: 96040</title></circle>
<circle cx="291.4" cy="207.4" r="5" fill="#d35400" opacity="0.9"><title>RF_KILLN VOL | 0.8/1.8 | ssff | Chip: 96040</title></circle>
<circle cx="351.2" cy="404.2" r="5" fill="#d35400" opacity="0.9"><title>RF_KILLN VOL | 0.8/1.8 | ssff | Chip: 96040</title></circle>
<circle cx="411.1" cy="397.8" r="5" fill="#d35400" opacity="0.9"><title>RF_KILLN VOL | 0.8/1.8 | ssff | Chip: 56508</title></circle>
<circle cx="470.9" cy="273.5" r="5" fill="#d35400" opacity="0.9"><title>RF_KILLN VOL | 0.8/1.8 | ssff | Chip: 96040</title></circle>
<circle cx="530.8" cy="195.2" r="5" fill="#d35400" opacity="0.9"><title>RF_KILLN VOL | 0.8/1.8 | ssff | Chip: 96040</title></circle>
<circle cx="590.6" cy="394.1" r="5" fill="#d35400" opacity="0.9"><title>RF_KILLN VOL | 0.8/1.8 | ssff | Chip: 96040</title></circle>
<circle cx="650.4" cy="384.0" r="5" fill="#d35400" opacity="0.9"><title>RF_KILLN VOL | 0.8/1.8 | ssff | Chip: 57571</title></circle>
<circle cx="710.2" cy="251.1" r="5" fill="#d35400" opacity="0.9"><title>RF_KILLN VOL | 0.8/1.8 | ssff | Chip: 96040</title></circle>
<circle cx="770.1" cy="165.0" r="5" fill="#d35400" opacity="0.9"><title>RF_KILLN VOL | 0.8/1.8 | ssff | Chip: 96040</title></circle>
</g>
<g class="series" data-viocore="0.8/1.8" data-skew="sstt">
<path d="M111.9,402.8 L171.8,397.1 L231.6,272.9 L291.4,196.0 L351.2,394.2 L411.1,389.3 L470.9,262.1 L530.8,182.8 L590.6,386.5 L650.4,375.3 L710.2,241.5 L770.1,154.4" fill="none" stroke="#16a085" stroke-width="2.2" stroke-linejoin="round" stroke-dasharray="10,3,3,3" opacity="0.9"/>
<circle cx="111.9" cy="402.8" r="5" fill="#16a085" opacity="0.9"><title>RF_KILLN VOL | 0.8/1.8 | sstt | Chip: 29674</title></circle>
<circle cx="171.8" cy="397.1" r="5" fill="#16a085" opacity="0.9"><title>RF_KILLN VOL | 0.8/1.8 | sstt | Chip: 9808</title></circle>
<circle cx="231.6" cy="272.9" r="5" fill="#16a085" opacity="0.9"><title>RF_KILLN VOL | 0.8/1.8 | sstt | Chip: 9808</title></circle>
<circle cx="291.4" cy="196.0" r="5" fill="#16a085" opacity="0.9"><title>RF_KILLN VOL | 0.8/1.8 | sstt | Chip: 9808</title></circle>
<circle cx="351.2" cy="394.2" r="5" fill="#16a085" opacity="0.9"><title>RF_KILLN VOL | 0.8/1.8 | sstt | Chip: 9808</title></circle>
<circle cx="411.1" cy="389.3" r="5" fill="#16a085" opacity="0.9"><title>RF_KILLN VOL | 0.8/1.8 | sstt | Chip: 9808</title></circle>
<circle cx="470.9" cy="262.1" r="5" fill="#16a085" opacity="0.9"><title>RF_KILLN VOL | 0.8/1.8 | sstt | Chip: 9808</title></circle>
<circle cx="530.8" cy="182.8" r="5" fill="#16a085" opacity="0.9"><title>RF_KILLN VOL | 0.8/1.8 | sstt | Chip: 9808</title></circle>
<circle cx="590.6" cy="386.5" r="5" fill="#16a085" opacity="0.9"><title>RF_KILLN VOL | 0.8/1.8 | sstt | Chip: 9808</title></circle>
<circle cx="650.4" cy="375.3" r="5" fill="#16a085" opacity="0.9"><title>RF_KILLN VOL | 0.8/1.8 | sstt | Chip: 29674</title></circle>
<circle cx="710.2" cy="241.5" r="5" fill="#16a085" opacity="0.9"><title>RF_KILLN VOL | 0.8/1.8 | sstt | Chip: 9808</title></circle>
<circle cx="770.1" cy="154.4" r="5" fill="#16a085" opacity="0.9"><title>RF_KILLN VOL | 0.8/1.8 | sstt | Chip: 9808</title></circle>
</g>
<g class="series" data-viocore="0.96/1.98" data-skew="ffss">
<path d="M111.9,388.6 L171.8,382.5 L231.6,253.4 L291.4,174.3 L351.2,381.7 L411.1,372.6 L470.9,242.2 L530.8,160.6 L590.6,373.7 L650.4,361.7 L710.2,224.5 L770.1,136.1" fill="none" stroke="#3498db" stroke-width="2.2" stroke-linejoin="round" opacity="0.9"/>
<circle cx="111.9" cy="388.6" r="5" fill="#3498db" opacity="0.9"><title>RF_KILLN VOL | 0.96/1.98 | ffss | Chip: 43407</title></circle>
<circle cx="171.8" cy="382.5" r="5" fill="#3498db" opacity="0.9"><title>RF_KILLN VOL | 0.96/1.98 | ffss | Chip: 43407</title></circle>
<circle cx="231.6" cy="253.4" r="5" fill="#3498db" opacity="0.9"><title>RF_KILLN VOL | 0.96/1.98 | ffss | Chip: 43407</title></circle>
<circle cx="291.4" cy="174.3" r="5" fill="#3498db" opacity="0.9"><title>RF_KILLN VOL | 0.96/1.98 | ffss | Chip: 43407</title></circle>
<circle cx="351.2" cy="381.7" r="5" fill="#3498db" opacity="0.9"><title>RF_KILLN VOL | 0.96/1.98 | ffss | Chip: 43407</title></circle>
<circle cx="411.1" cy="372.6" r="5" fill="#3498db" opacity="0.9"><title>RF_KILLN VOL | 0.96/1.98 | ffss | Chip: 43407</title></circle>
<circle cx="470.9" cy="242.2" r="5" fill="#3498db" opacity="0.9"><title>RF_KILLN VOL | 0.96/1.98 | ffss | Chip: 43407</title></circle>
<circle cx="530.8" cy="160.6" r="5" fill="#3498db" opacity="0.9"><title>RF_KILLN VOL | 0.96/1.98 | ffss | Chip: 43407</title></circle>
<circle cx="590.6" cy="373.7" r="5" fill="#3498db" opacity="0.9"><title>RF_KILLN VOL | 0.96/1.98 | ffss | Chip: 43407</title></circle>
<circle cx="650.4" cy="361.7" r="5" fill="#3498db" opacity="0.9"><title>RF_KILLN VOL | 0.96/1.98 | ffss | Chip: 43407</title></circle>
<circle cx="710.2" cy="224.5" r="5" fill="#3498db" opacity="0.9"><title>RF_KILLN VOL | 0.96/1.98 | ffss | Chip: 43407</title></circle>
<circle cx="770.1" cy="136.1" r="5" fill="#3498db" opacity="0.9"><title>RF_KILLN VOL | 0.96/1.98 | ffss | Chip: 43407</title></circle>
</g>
<g class="series" data-viocore="0.96/1.98" data-skew="fftt">
<path d="M111.9,409.5 L171.8,401.4 L231.6,281.2 L291.4,205.7 L351.2,401.8 L411.1,395.9 L470.9,271.2 L530.8,193.4 L590.6,393.8 L650.4,381.9 L710.2,250.8 L770.1,165.2" fill="none" stroke="#e74c3c" stroke-width="2.2" stroke-linejoin="round" stroke-dasharray="8,3" opacity="0.9"/>
<circle cx="111.9" cy="409.5" r="5" fill="#e74c3c" opacity="0.9"><title>RF_KILLN VOL | 0.96/1.98 | fftt | Chip: 78814</title></circle>
<circle cx="171.8" cy="401.4" r="5" fill="#e74c3c" opacity="0.9"><title>RF_KILLN VOL | 0.96/1.98 | fftt | Chip: 78814</title></circle>
<circle cx="231.6" cy="281.2" r="5" fill="#e74c3c" opacity="0.9"><title>RF_KILLN VOL | 0.96/1.98 | fftt | Chip: 78814</title></circle>
<circle cx="291.4" cy="205.7" r="5" fill="#e74c3c" opacity="0.9"><title>RF_KILLN VOL | 0.96/1.98 | fftt | Chip: 78814</title></circle>
<circle cx="351.2" cy="401.8" r="5" fill="#e74c3c" opacity="0.9"><title>RF_KILLN VOL | 0.96/1.98 | fftt | Chip: 78814</title></circle>
<circle cx="411.1" cy="395.9" r="5" fill="#e74c3c" opacity="0.9"><title>RF_KILLN VOL | 0.96/1.98 | fftt | Chip: 13967</title></circle>
<circle cx="470.9" cy="271.2" r="5" fill="#e74c3c" opacity="0.9"><title>RF_KILLN VOL | 0.96/1.98 | fftt | Chip: 78814</title></circle>
<circle cx="530.8" cy="193.4" r="5" fill="#e74c3c" opacity="0.9"><title>RF_KILLN VOL | 0.96/1.98 | fftt | Chip: 78814</title></circle>
<circle cx="590.6" cy="393.8" r="5" fill="#e74c3c" opacity="0.9"><title>RF_KILLN VOL | 0.96/1.98 | fftt | Chip: 78814</title></circle>
<circle cx="650.4" cy="381.9" r="5" fill="#e74c3c" opacity="0.9"><title>RF_KILLN VOL | 0.96/1.98 | fftt | Chip: 78814</title></circle>
<circle cx="710.2" cy="250.8" r="5" fill="#e74c3c" opacity="0.9"><title>RF_KILLN VOL | 0.96/1.98 | fftt | Chip: 78814</title></circle>
<circle cx="770.1" cy="165.2" r="5" fill="#e74c3c" opacity="0.9"><title>RF_KILLN VOL | 0.96/1.98 | fftt | Chip: 78814</title></circle>
</g>
<g class="series" data-viocore="0.96/1.98" data-skew="fstt">
<path d="M111.9,407.8 L171.8,399.1 L231.6,278.3 L291.4,202.3 L351.2,401.4 L411.1,392.9 L470.9,269.4 L530.8,190.9 L590.6,391.3 L650.4,379.4 L710.2,247.7 L770.1,161.6" fill="none" stroke="#2ecc71" stroke-width="2.2" stroke-linejoin="round" stroke-dasharray="4,3" opacity="0.9"/>
<circle cx="111.9" cy="407.8" r="5" fill="#2ecc71" opacity="0.9"><title>RF_KILLN VOL | 0.96/1.98 | fstt | Chip: 12566</title></circle>
<circle cx="171.8" cy="399.1" r="5" fill="#2ecc71" opacity="0.9"><title>RF_KILLN VOL | 0.96/1.98 | fstt | Chip: 12566</title></circle>
<circle cx="231.6" cy="278.3" r="5" fill="#2ecc71" opacity="0.9"><title>RF_KILLN VOL | 0.96/1.98 | fstt | Chip: 12566</title></circle>
<circle cx="291.4" cy="202.3" r="5" fill="#2ecc71" opacity="0.9"><title>RF_KILLN VOL | 0.96/1.98 | fstt | Chip: 12566</title></circle>
<circle cx="351.2" cy="401.4" r="5" fill="#2ecc71" opacity="0.9"><title>RF_KILLN VOL | 0.96/1.98 | fstt | Chip: 12566</title></circle>
<circle cx="411.1" cy="392.9" r="5" fill="#2ecc71" opacity="0.9"><title>RF_KILLN VOL | 0.96/1.98 | fstt | Chip: 12566</title></circle>
<circle cx="470.9" cy="269.4" r="5" fill="#2ecc71" opacity="0.9"><title>RF_KILLN VOL | 0.96/1.98 | fstt | Chip: 12566</title></circle>
<circle cx="530.8" cy="190.9" r="5" fill="#2ecc71" opacity="0.9"><title>RF_KILLN VOL | 0.96/1.98 | fstt | Chip: 12566</title></circle>
<circle cx="590.6" cy="391.3" r="5" fill="#2ecc71" opacity="0.9"><title>RF_KILLN VOL | 0.96/1.98 | fstt | Chip: 12566</title></circle>
<circle cx="650.4" cy="379.4" r="5" fill="#2ecc71" opacity="0.9"><title>RF_KILLN VOL | 0.96/1.98 | fstt | Chip: 12566</title></circle>
<circle cx="710.2" cy="247.7" r="5" fill="#2ecc71" opacity="0.9"><title>RF_KILLN VOL | 0.96/1.98 | fstt | Chip: 12566</title></circle>
<circle cx="770.1" cy="161.6" r="5" fill="#2ecc71" opacity="0.9"><title>RF_KILLN VOL | 0.96/1.98 | fstt | Chip: 12566</title></circle>
</g>
<g class="series" data-viocore="0.96/1.98" data-skew="sftt">
<path d="M111.9,396.6 L171.8,390.9 L231.6,264.3 L291.4,186.5 L351.2,388.5 L411.1,383.2 L470.9,252.8 L530.8,173.0 L590.6,382.6 L650.4,370.7 L710.2,235.8 L770.1,149.0" fill="none" stroke="#9b59b6" stroke-width="2.2" stroke-linejoin="round" stroke-dasharray="10,3,3,3" opacity="0.9"/>
<circle cx="111.9" cy="396.6" r="5" fill="#9b59b6" opacity="0.9"><title>RF_KILLN VOL | 0.96/1.98 | sftt | Chip: 44565</title></circle>
<circle cx="171.8" cy="390.9" r="5" fill="#9b59b6" opacity="0.9"><title>RF_KILLN VOL | 0.96/1.98 | sftt | Chip: 44565</title></circle>
<circle cx="231.6" cy="264.3" r="5" fill="#9b59b6" opacity="0.9"><title>RF_KILLN VOL | 0.96/1.98 | sftt | Chip: 44565</title></circle>
<circle cx="291.4" cy="186.5" r="5" fill="#9b59b6" opacity="0.9"><title>RF_KILLN VOL | 0.96/1.98 | sftt | Chip: 44565</title></circle>
<circle cx="351.2" cy="388.5" r="5" fill="#9b59b6" opacity="0.9"><title>RF_KILLN VOL | 0.96/1.98 | sftt | Chip: 44565</title></circle>
<circle cx="411.1" cy="383.2" r="5" fill="#9b59b6" opacity="0.9"><title>RF_KILLN VOL | 0.96/1.98 | sftt | Chip: 44565</title></circle>
<circle cx="470.9" cy="252.8" r="5" fill="#9b59b6" opacity="0.9"><title>RF_KILLN VOL | 0.96/1.98 | sftt | Chip: 44565</title></circle>
<circle cx="530.8" cy="173.0" r="5" fill="#9b59b6" opacity="0.9"><title>RF_KILLN VOL | 0.96/1.98 | sftt | Chip: 44565</title></circle>
<circle cx="590.6" cy="382.6" r="5" fill="#9b59b6" opacity="0.9"><title>RF_KILLN VOL | 0.96/1.98 | sftt | Chip: 44565</title></circle>
<circle cx="650.4" cy="370.7" r="5" fill="#9b59b6" opacity="0.9"><title>RF_KILLN VOL | 0.96/1.98 | sftt | Chip: 44565</title></circle>
<circle cx="710.2" cy="235.8" r="5" fill="#9b59b6" opacity="0.9"><title>RF_KILLN VOL | 0.96/1.98 | sftt | Chip: 44565</title></circle>
<circle cx="770.1" cy="149.0" r="5" fill="#9b59b6" opacity="0.9"><title>RF_KILLN VOL | 0.96/1.98 | sftt | Chip: 44565</title></circle>
</g>
<g class="series" data-viocore="0.96/1.98" data-skew="ssff">
<path d="M111.9,418.8 L171.8,410.2 L231.6,292.5 L291.4,217.7 L351.2,412.5 L411.1,403.8 L470.9,283.2 L530.8,206.0 L590.6,401.9 L650.4,390.8 L710.2,260.6 L770.1,176.1" fill="none" stroke="#e67e22" stroke-width="2.2" stroke-linejoin="round" opacity="0.9"/>
<circle cx="111.9" cy="418.8" r="5" fill="#e67e22" opacity="0.9"><title>RF_KILLN VOL | 0.96/1.98 | ssff | Chip: 96040</title></circle>
<circle cx="171.8" cy="410.2" r="5" fill="#e67e22" opacity="0.9"><title>RF_KILLN VOL | 0.96/1.98 | ssff | Chip: 96040</title></circle>
<circle cx="231.6" cy="292.5" r="5" fill="#e67e22" opacity="0.9"><title>RF_KILLN VOL | 0.96/1.98 | ssff | Chip: 96040</title></circle>
<circle cx="291.4" cy="217.7" r="5" fill="#e67e22" opacity="0.9"><title>RF_KILLN VOL | 0.96/1.98 | ssff | Chip: 96040</title></circle>
<circle cx="351.2" cy="412.5" r="5" fill="#e67e22" opacity="0.9"><title>RF_KILLN VOL | 0.96/1.98 | ssff | Chip: 96040</title></circle>
<circle cx="411.1" cy="403.8" r="5" fill="#e67e22" opacity="0.9"><title>RF_KILLN VOL | 0.96/1.98 | ssff | Chip: 96040</title></circle>
<circle cx="470.9" cy="283.2" r="5" fill="#e67e22" opacity="0.9"><title>RF_KILLN VOL | 0.96/1.98 | ssff | Chip: 96040</title></circle>
<circle cx="530.8" cy="206.0" r="5" fill="#e67e22" opacity="0.9"><title>RF_KILLN VOL | 0.96/1.98 | ssff | Chip: 96040</title></circle>
<circle cx="590.6" cy="401.9" r="5" fill="#e67e22" opacity="0.9"><title>RF_KILLN VOL | 0.96/1.98 | ssff | Chip: 96040</title></circle>
<circle cx="650.4" cy="390.8" r="5" fill="#e67e22" opacity="0.9"><title>RF_KILLN VOL | 0.96/1.98 | ssff | Chip: 57571</title></circle>
<circle cx="710.2" cy="260.6" r="5" fill="#e67e22" opacity="0.9"><title>RF_KILLN VOL | 0.96/1.98 | ssff | Chip: 96040</title></circle>
<circle cx="770.1" cy="176.1" r="5" fill="#e67e22" opacity="0.9"><title>RF_KILLN VOL | 0.96/1.98 | ssff | Chip: 96040</title></circle>
</g>
<g class="series" data-viocore="0.96/1.98" data-skew="sstt">
<path d="M111.9,411.1 L171.8,402.4 L231.6,282.5 L291.4,206.6 L351.2,404.4 L411.1,395.5 L470.9,272.6 L530.8,194.2 L590.6,394.6 L650.4,384.6 L710.2,251.5 L770.1,165.9" fill="none" stroke="#1abc9c" stroke-width="2.2" stroke-linejoin="round" stroke-dasharray="8,3" opacity="0.9"/>
<circle cx="111.9" cy="411.1" r="5" fill="#1abc9c" opacity="0.9"><title>RF_KILLN VOL | 0.96/1.98 | sstt | Chip: 9808</title></circle>
<circle cx="171.8" cy="402.4" r="5" fill="#1abc9c" opacity="0.9"><title>RF_KILLN VOL | 0.96/1.98 | sstt | Chip: 9808</title></circle>
<circle cx="231.6" cy="282.5" r="5" fill="#1abc9c" opacity="0.9"><title>RF_KILLN VOL | 0.96/1.98 | sstt | Chip: 9808</title></circle>
<circle cx="291.4" cy="206.6" r="5" fill="#1abc9c" opacity="0.9"><title>RF_KILLN VOL | 0.96/1.98 | sstt | Chip: 9808</title></circle>
<circle cx="351.2" cy="404.4" r="5" fill="#1abc9c" opacity="0.9"><title>RF_KILLN VOL | 0.96/1.98 | sstt | Chip: 9808</title></circle>
<circle cx="411.1" cy="395.5" r="5" fill="#1abc9c" opacity="0.9"><title>RF_KILLN VOL | 0.96/1.98 | sstt | Chip: 9808</title></circle>
<circle cx="470.9" cy="272.6" r="5" fill="#1abc9c" opacity="0.9"><title>RF_KILLN VOL | 0.96/1.98 | sstt | Chip: 9808</title></circle>
<circle cx="530.8" cy="194.2" r="5" fill="#1abc9c" opacity="0.9"><title>RF_KILLN VOL | 0.96/1.98 | sstt | Chip: 9808</title></circle>
<circle cx="590.6" cy="394.6" r="5" fill="#1abc9c" opacity="0.9"><title>RF_KILLN VOL | 0.96/1.98 | sstt | Chip: 29674</title></circle>
<circle cx="650.4" cy="384.6" r="5" fill="#1abc9c" opacity="0.9"><title>RF_KILLN VOL | 0.96/1.98 | sstt | Chip: 9808</title></circle>
<circle cx="710.2" cy="251.5" r="5" fill="#1abc9c" opacity="0.9"><title>RF_KILLN VOL | 0.96/1.98 | sstt | Chip: 9808</title></circle>
<circle cx="770.1" cy="165.9" r="5" fill="#1abc9c" opacity="0.9"><title>RF_KILLN VOL | 0.96/1.98 | sstt | Chip: 9808</title></circle>
</g>
<line x1="82.0" y1="164.7" x2="800.0" y2="164.7" stroke="#e74c3c" stroke-width="1.8" stroke-dasharray="4,4"/>
<text x="805.0" y="168.7" font-size="9" font-weight="normal" text-anchor="start" fill="#e74c3c" font-family="Arial,sans-serif">Max spec: 0.4</text>
<g class="legend-item" data-viocore="0.64/1.62" data-skew="ffss">
<line x1="808" y1="77" x2="836" y2="77" stroke="#3498db" stroke-width="2.2" />
<circle cx="822" cy="77" r="4" fill="#3498db"/>
<text x="840" y="81" font-size="10" font-family="Arial,sans-serif" fill="#2c3e50">0.64/1.62 — ffss (43407)</text>
</g>
<g class="legend-item" data-viocore="0.64/1.62" data-skew="fftt">
<line x1="808" y1="99" x2="836" y2="99" stroke="#e74c3c" stroke-width="2.2" stroke-dasharray="8,3" />
<circle cx="822" cy="99" r="4" fill="#e74c3c"/>
<text x="840" y="103" font-size="10" font-family="Arial,sans-serif" fill="#2c3e50">0.64/1.62 — fftt (78814)</text>
</g>
<g class="legend-item" data-viocore="0.64/1.62" data-skew="fstt">
<line x1="808" y1="121" x2="836" y2="121" stroke="#2ecc71" stroke-width="2.2" stroke-dasharray="4,3" />
<circle cx="822" cy="121" r="4" fill="#2ecc71"/>
<text x="840" y="125" font-size="10" font-family="Arial,sans-serif" fill="#2c3e50">0.64/1.62 — fstt (12566)</text>
</g>
<g class="legend-item" data-viocore="0.64/1.62" data-skew="sftt">
<line x1="808" y1="143" x2="836" y2="143" stroke="#9b59b6" stroke-width="2.2" stroke-dasharray="10,3,3,3" />
<circle cx="822" cy="143" r="4" fill="#9b59b6"/>
<text x="840" y="147" font-size="10" font-family="Arial,sans-serif" fill="#2c3e50">0.64/1.62 — sftt (44565)</text>
</g>
<g class="legend-item" data-viocore="0.64/1.62" data-skew="ssff">
<line x1="808" y1="165" x2="836" y2="165" stroke="#e67e22" stroke-width="2.2" />
<circle cx="822" cy="165" r="4" fill="#e67e22"/>
<text x="840" y="169" font-size="10" font-family="Arial,sans-serif" fill="#2c3e50">0.64/1.62 — ssff (96040)</text>
</g>
<g class="legend-item" data-viocore="0.64/1.62" data-skew="sstt">
<line x1="808" y1="187" x2="836" y2="187" stroke="#1abc9c" stroke-width="2.2" stroke-dasharray="8,3" />
<circle cx="822" cy="187" r="4" fill="#1abc9c"/>
<text x="840" y="191" font-size="10" font-family="Arial,sans-serif" fill="#2c3e50">0.64/1.62 — sstt (9808)</text>
</g>
<g class="legend-item" data-viocore="0.8/1.8" data-skew="ffss">
<line x1="808" y1="209" x2="836" y2="209" stroke="#c0392b" stroke-width="2.2" stroke-dasharray="4,3" />
<circle cx="822" cy="209" r="4" fill="#c0392b"/>
<text x="840" y="213" font-size="10" font-family="Arial,sans-serif" fill="#2c3e50">0.8/1.8 — ffss (43407)</text>
</g>
<g class="legend-item" data-viocore="0.8/1.8" data-skew="fftt">
<line x1="808" y1="231" x2="836" y2="231" stroke="#2980b9" stroke-width="2.2" stroke-dasharray="10,3,3,3" />
<circle cx="822" cy="231" r="4" fill="#2980b9"/>
<text x="840" y="235" font-size="10" font-family="Arial,sans-serif" fill="#2c3e50">0.8/1.8 — fftt (78814)</text>
</g>
<g class="legend-item" data-viocore="0.8/1.8" data-skew="fstt">
<line x1="808" y1="253" x2="836" y2="253" stroke="#27ae60" stroke-width="2.2" />
<circle cx="822" cy="253" r="4" fill="#27ae60"/>
<text x="840" y="257" font-size="10" font-family="Arial,sans-serif" fill="#2c3e50">0.8/1.8 — fstt (12566)</text>
</g>
<g class="legend-item" data-viocore="0.8/1.8" data-skew="sftt">
<line x1="808" y1="275" x2="836" y2="275" stroke="#8e44ad" stroke-width="2.2" stroke-dasharray="8,3" />
<circle cx="822" cy="275" r="4" fill="#8e44ad"/>
<text x="840" y="279" font-size="10" font-family="Arial,sans-serif" fill="#2c3e50">0.8/1.8 — sftt (44565)</text>
</g>
<g class="legend-item" data-viocore="0.8/1.8" data-skew="ssff">
<line x1="808" y1="297" x2="836" y2="297" stroke="#d35400" stroke-width="2.2" stroke-dasharray="4,3" />
<circle cx="822" cy="297" r="4" fill="#d35400"/>
<text x="840" y="301" font-size="10" font-family="Arial,sans-serif" fill="#2c3e50">0.8/1.8 — ssff (96040)</text>
</g>
<g class="legend-item" data-viocore="0.8/1.8" data-skew="sstt">
<line x1="808" y1="319" x2="836" y2="319" stroke="#16a085" stroke-width="2.2" stroke-dasharray="10,3,3,3" />
<circle cx="822" cy="319" r="4" fill="#16a085"/>
<text x="840" y="323" font-size="10" font-family="Arial,sans-serif" fill="#2c3e50">0.8/1.8 — sstt (9808)</text>
</g>
<g class="legend-item" data-viocore="0.96/1.98" data-skew="ffss">
<line x1="808" y1="341" x2="836" y2="341" stroke="#3498db" stroke-width="2.2" />
<circle cx="822" cy="341" r="4" fill="#3498db"/>
<text x="840" y="345" font-size="10" font-family="Arial,sans-serif" fill="#2c3e50">0.96/1.98 — ffss (43407)</text>
</g>
<g class="legend-item" data-viocore="0.96/1.98" data-skew="fftt">
<line x1="808" y1="363" x2="836" y2="363" stroke="#e74c3c" stroke-width="2.2" stroke-dasharray="8,3" />
<circle cx="822" cy="363" r="4" fill="#e74c3c"/>
<text x="840" y="367" font-size="10" font-family="Arial,sans-serif" fill="#2c3e50">0.96/1.98 — fftt (78814)</text>
</g>
<g class="legend-item" data-viocore="0.96/1.98" data-skew="fstt">
<line x1="808" y1="385" x2="836" y2="385" stroke="#2ecc71" stroke-width="2.2" stroke-dasharray="4,3" />
<circle cx="822" cy="385" r="4" fill="#2ecc71"/>
<text x="840" y="389" font-size="10" font-family="Arial,sans-serif" fill="#2c3e50">0.96/1.98 — fstt (12566)</text>
</g>
<g class="legend-item" data-viocore="0.96/1.98" data-skew="sftt">
<line x1="808" y1="407" x2="836" y2="407" stroke="#9b59b6" stroke-width="2.2" stroke-dasharray="10,3,3,3" />
<circle cx="822" cy="407" r="4" fill="#9b59b6"/>
<text x="840" y="411" font-size="10" font-family="Arial,sans-serif" fill="#2c3e50">0.96/1.98 — sftt (44565)</text>
</g>
<g class="legend-item" data-viocore="0.96/1.98" data-skew="ssff">
<line x1="808" y1="429" x2="836" y2="429" stroke="#e67e22" stroke-width="2.2" />
<circle cx="822" cy="429" r="4" fill="#e67e22"/>
<text x="840" y="433" font-size="10" font-family="Arial,sans-serif" fill="#2c3e50">0.96/1.98 — ssff (96040)</text>
</g>
<g class="legend-item" data-viocore="0.96/1.98" data-skew="sstt">
<line x1="808" y1="451" x2="836" y2="451" stroke="#1abc9c" stroke-width="2.2" stroke-dasharray="8,3" />
<circle cx="822" cy="451" r="4" fill="#1abc9c"/>
<text x="840" y="455" font-size="10" font-family="Arial,sans-serif" fill="#2c3e50">0.96/1.98 — sstt (9808)</text>
</g>
</svg>