<svg xmlns="http://www.w3.org/2000/svg" width="1000" height="526" viewBox="0 0 1000 526">
<rect width="1000" height="526" fill="#ffffff"/>
<text x="500.0" y="28.0" font-size="16" font-weight="bold" text-anchor="middle" fill="#2c3e50" font-family="Arial,sans-serif">RF_KILLN — IOL_A (A) [IOH/IOL Max]</text>
<line x1="82.0" y1="456.0" x2="800.0" y2="456.0" stroke="#999" stroke-width="1"/>
<line x1="82.0" y1="72.0" x2="82.0" y2="456.0" stroke="#999" stroke-width="1"/>
<line x1="82.0" y1="72.0" x2="82.0" y2="456.0" stroke="#999" stroke-width="1"/>
<line x1="77.0" y1="456.0" x2="82.0" y2="456.0" stroke="#999" stroke-width="1"/>
<line x1="82.0" y1="456.0" x2="800.0" y2="456.0" stroke="#e0e0e0" stroke-width="0.8" stroke-dasharray="3,3"/>
<text x="74.0" y="460.0" font-size="9" font-weight="normal" text-anchor="end" fill="#7f8c8d" font-family="Arial,sans-serif">0.0021</text>
<line x1="77.0" y1="379.2" x2="82.0" y2="379.2" stroke="#999" stroke-width="1"/>
<line x1="82.0" y1="379.2" x2="800.0" y2="379.2" stroke="#e0e0e0" stroke-width="0.8" stroke-dasharray="3,3"/>
<text x="74.0" y="383.2" font-size="9" font-weight="normal" text-anchor="end" fill="#7f8c8d" font-family="Arial,sans-serif">0.00458</text>
<line x1="77.0" y1="302.4" x2="82.0" y2="302.4" stroke="#999" stroke-width="1"/>
<line x1="82.0" y1="302.4" x2="800.0" y2="302.4" stroke="#e0e0e0" stroke-width="0.8" stroke-dasharray="3,3"/>
<text x="74.0" y="306.4" font-size="9" font-weight="normal" text-anchor="end" fill="#7f8c8d" font-family="Arial,sans-serif">0.00706</text>
<line x1="77.0" y1="225.6" x2="82.0" y2="225.6" stroke="#999" stroke-width="1"/>
<line x1="82.0" y1="225.6" x2="800.0" y2="225.6" stroke="#e0e0e0" stroke-width="0.8" stroke-dasharray="3,3"/>
<text x="74.0" y="229.6" font-size="9" font-weight="normal" text-anchor="end" fill="#7f8c8d" font-family="Arial,sans-serif">0.00954</text>
<line x1="77.0" y1="148.8" x2="82.0" y2="148.8" stroke="#999" stroke-width="1"/>
<line x1="82.0" y1="148.8" x2="800.0" y2="148.8" stroke="#e0e0e0" stroke-width="0.8" stroke-dasharray="3,3"/>
<text x="74.0" y="152.8" font-size="9" font-weight="normal" text-anchor="end" fill="#7f8c8d" font-family="Arial,sans-serif">0.012</text>
<line x1="77.0" y1="72.0" x2="82.0" y2="72.0" stroke="#999" stroke-width="1"/>
<line x1="82.0" y1="72.0" x2="800.0" y2="72.0" stroke="#e0e0e0" stroke-width="0.8" stroke-dasharray="3,3"/>
<text x="74.0" y="76.0" font-size="9" font-weight="normal" text-anchor="end" fill="#7f8c8d" font-family="Arial,sans-serif">0.0145</text>
<text x="14.0" y="264.0" font-size="10" font-weight="normal" text-anchor="middle" fill="#7f8c8d" font-family="Arial,sans-serif" transform="rotate(-90,14,264.0)">IOL_A (A)</text>
<text x="111.9" y="471.0" font-size="8" font-weight="normal" text-anchor="middle" fill="#7f8c8d" font-family="Arial,sans-serif">DS_0</text>
<text x="171.8" y="471.0" font-size="8" font-weight="normal" text-anchor="middle" fill="#7f8c8d" font-family="Arial,sans-serif">DS_1</text>
<text x="231.6" y="471.0" font-size="8" font-weight="normal" text-anchor="middle" fill="#7f8c8d" font-family="Arial,sans-serif">DS_2</text>
<text x="291.4" y="471.0" font-size="8" font-weight="normal" text-anchor="middle" fill="#7f8c8d" font-family="Arial,sans-serif">DS_3</text>
<text x="351.2" y="471.0" font-size="8" font-weight="normal" text-anchor="middle" fill="#7f8c8d" font-family="Arial,sans-serif">DS_0</text>
<line x1="321.3" y1="72.0" x2="321.3" y2="456.0" stroke="#cccccc" stroke-width="1" stroke-dasharray="4,3"/>
<text x="411.1" y="471.0" font-size="8" font-weight="normal" text-anchor="middle" fill="#7f8c8d" font-family="Arial,sans-serif">DS_1</text>
<text x="470.9" y="471.0" font-size="8" font-weight="normal" text-anchor="middle" fill="#7f8c8d" font-family="Arial,sans-serif">DS_2</text>
<text x="530.8" y="471.0" font-size="8" font-weight="normal" text-anchor="middle" fill="#7f8c8d" font-family="Arial,sans-serif">DS_3</text>
<text x="590.6" y="471.0" font-size="8" font-weight="normal" text-anchor="middle" fill="#7f8c8d" font-family="Arial,sans-serif">DS_0</text>
<line x1="560.7" y1="72.0" x2="560.7" y2="456.0" stroke="#cccccc" stroke-width="1" stroke-dasharray="4,3"/>
<text x="650.4" y="471.0" font-size="8" font-weight="normal" text-anchor="middle" fill="#7f8c8d" font-family="Arial,sans-serif">DS_1</text>
<text x="710.2" y="471.0" font-size="8" font-weight="normal" text-anchor="middle" fill="#7f8c8d" font-family="Arial,sans-serif">DS_2</text>
<text x="770.1" y="471.0" font-size="8" font-weight="normal" text-anchor="middle" fill="#7f8c8d" font-family="Arial,sans-serif">DS_3</text>
<text x="201.7" y="62.0" font-size="10" font-weight="bold" text-anchor="middle" fill="#2c3e50" font-family="Arial,sans-serif">T=0°C</text>
<text x="441.0" y="62.0" font-size="10" font-weight="bold" text-anchor="middle" fill="#2c3e50" font-family="Arial,sans-serif">T=20°C</text>
<text x="680.3" y="62.0" font-size="10" font-weight="bold" text-anchor="middle" fill="#2c3e50" font-family="Arial,sans-serif">T=80°C</text>
<text x="441.0" y="490.0" font-size="11" font-weight="normal" text-anchor="middle" fill="#2c3e50" font-family="Arial,sans-serif">Temperature  /  Drive Strength (DS)</text>
<g class="series" data-viocore="0.64/1.62" data-skew="ffss">
<path d="M111.9,415.7 L171.8,316.6 L231.6,223.7 L291.4,140.1 L351.2,418.8 L411.1,322.8 L470.9,233.0 L530.8,149.4 L590.6,418.8 L650.4,329.0 L710.2,242.3 L770.1,168.0" fill="none" stroke="#3498db" stroke-width="2.2" stroke-linejoin="round" opacity="0.9"/>
<circle cx="111.9" cy="415.7" r="5" fill="#3498db" opacity="0.9"><title>RF_KILLN IOL_A | 0.64/1.62 | ffss | Chip: 25679</title></circle>
<circle cx="171.8" cy="316.6" r="5" fill="#3498db" opacity="0.9"><title>RF_KILLN IOL_A | 0.64/1.62 | ffss | Chip: 79093</title></circle>
<circle cx="231.6" cy="223.7" r="5" fill="#3498db" opacity="0.9"><title>RF_KILLN IOL_A | 0.64/1.62 | ffss | Chip: 79093</title></circle>
<circle cx="291.4" cy="140.1" r="5" fill="#3498db" opacity="0.9"><title>RF_KILLN IOL_A | 0.64/1.62 | ffss | Chip: 25679</title></circle>
<circle cx="351.2" cy="418.8" r="5" fill="#3498db" opacity="0.9"><title>RF_KILLN IOL_A | 0.64/1.62 | ffss | Chip: 25679</title></circle>
<circle cx="411.1" cy="322.8" r="5" fill="#3498db" opacity="0.9"><title>RF_KILLN IOL_A | 0.64/1.62 | ffss | Chip: 25679</title></circle>
<circle cx="470.9" cy="233.0" r="5" fill="#3498db" opacity="0.9"><title>RF_KILLN IOL_A | 0.64/1.62 | ffss | Chip: 25679</title></circle>
<circle cx="530.8" cy="149.4" r="5" fill="#3498db" opacity="0.9"><title>RF_KILLN IOL_A | 0.64/1.62 | ffss | Chip: 25679</title></circle>
<circle cx="590.6" cy="418.8" r="5" fill="#3498db" opacity="0.9"><title>RF_KILLN IOL_A | 0.64/1.62 | ffss | Chip: 79093</title></circle>
<circle cx="650.4" cy="329.0" r="5" fill="#3498db" opacity="0.9"><title>RF_KILLN IOL_A | 0.64/1.62 | ffss | Chip: 25679</title></circle>
<circle cx="710.2" cy="242.3" r="5" fill="#3498db" opacity="0.9"><title>RF_KILLN IOL_A | 0.64/1.62 | ffss | Chip: 79093</title></circle>
<circle cx="770.1" cy="168.0" r="5" fill="#3498db" opacity="0.9"><title>RF_KILLN IOL_A | 0.64/1.62 | ffss | Chip: 25679</title></circle>
</g>
<g class="series" data-viocore="0.64/1.62" data-skew="fftt">
<path d="M111.9,412.6 L171.8,310.5 L231.6,214.5 L291.4,127.7 L351.2,415.7 L411.1,316.6 L470.9,223.7 L530.8,137.0 L590.6,415.7 L650.4,322.8 L710.2,233.0 L770.1,155.6" fill="none" stroke="#e74c3c" stroke-width="2.2" stroke-linejoin="round" stroke-dasharray="8,3" opacity="0.9"/>
<circle cx="111.9" cy="412.6" r="5" fill="#e74c3c" opacity="0.9"><title>RF_KILLN IOL_A | 0.64/1.62 | fftt | Chip: 78814</title></circle>
<circle cx="171.8" cy="310.5" r="5" fill="#e74c3c" opacity="0.9"><title>RF_KILLN IOL_A | 0.64/1.62 | fftt | Chip: 15382</title></circle>
<circle cx="231.6" cy="214.5" r="5" fill="#e74c3c" opacity="0.9"><title>RF_KILLN IOL_A | 0.64/1.62 | fftt | Chip: 15382</title></circle>
<circle cx="291.4" cy="127.7" r="5" fill="#e74c3c" opacity="0.9"><title>RF_KILLN IOL_A | 0.64/1.62 | fftt | Chip: 15382</title></circle>
<circle cx="351.2" cy="415.7" r="5" fill="#e74c3c" opacity="0.9"><title>RF_KILLN IOL_A | 0.64/1.62 | fftt | Chip: 78814</title></circle>
<circle cx="411.1" cy="316.6" r="5" fill="#e74c3c" opacity="0.9"><title>RF_KILLN IOL_A | 0.64/1.62 | fftt | Chip: 15382</title></circle>
<circle cx="470.9" cy="223.7" r="5" fill="#e74c3c" opacity="0.9"><title>RF_KILLN IOL_A | 0.64/1.62 | fftt | Chip: 15382</title></circle>
<circle cx="530.8" cy="137.0" r="5" fill="#e74c3c" opacity="0.9"><title>RF_KILLN IOL_A | 0.64/1.62 | fftt | Chip: 15382</title></circle>
<circle cx="590.6" cy="415.7" r="5" fill="#e74c3c" opacity="0.9"><title>RF_KILLN IOL_A | 0.64/1.62 | fftt | Chip: 15382</title></circle>
<circle cx="650.4" cy="322.8" r="5" fill="#e74c3c" opacity="0.9"><title>RF_KILLN IOL_A | 0.64/1.62 | fftt | Chip: 15382</title></circle>
<circle cx="710.2" cy="233.0" r="5" fill="#e74c3c" opacity="0.9"><title>RF_KILLN IOL_A | 0.64/1.62 | fftt | Chip: 15382</title></circle>
<circle cx="770.1" cy="155.6" r="5" fill="#e74c3c" opacity="0.9"><title>RF_KILLN IOL_A | 0.64/1.62 | fftt | Chip: 15382</title></circle>
</g>
<g class="series" data-viocore="0.64/1.62" data-skew="fstt">
<path d="M111.9,412.6 L171.8,313.5 L231.6,217.5 L291.4,130.8 L351.2,415.7 L411.1,316.6 L470.9,223.7 L530.8,140.1 L590.6,418.8 L650.4,325.9 L710.2,236.1 L770.1,158.7" fill="none" stroke="#2ecc71" stroke-width="2.2" stroke-linejoin="round" stroke-dasharray="4,3" opacity="0.9"/>
<circle cx="111.9" cy="412.6" r="5" fill="#2ecc71" opacity="0.9"><title>RF_KILLN IOL_A | 0.64/1.62 | fstt | Chip: 12566</title></circle>
<circle cx="171.8" cy="313.5" r="5" fill="#2ecc71" opacity="0.9"><title>RF_KILLN IOL_A | 0.64/1.62 | fstt | Chip: 12566</title></circle>
<circle cx="231.6" cy="217.5" r="5" fill="#2ecc71" opacity="0.9"><title>RF_KILLN IOL_A | 0.64/1.62 | fstt | Chip: 62919</title></circle>
<circle cx="291.4" cy="130.8" r="5" fill="#2ecc71" opacity="0.9"><title>RF_KILLN IOL_A | 0.64/1.62 | fstt | Chip: 62919</title></circle>
<circle cx="351.2" cy="415.7" r="5" fill="#2ecc71" opacity="0.9"><title>RF_KILLN IOL_A | 0.64/1.62 | fstt | Chip: 12566</title></circle>
<circle cx="411.1" cy="316.6" r="5" fill="#2ecc71" opacity="0.9"><title>RF_KILLN IOL_A | 0.64/1.62 | fstt | Chip: 62919</title></circle>
<circle cx="470.9" cy="223.7" r="5" fill="#2ecc71" opacity="0.9"><title>RF_KILLN IOL_A | 0.64/1.62 | fstt | Chip: 62919</title></circle>
<circle cx="530.8" cy="140.1" r="5" fill="#2ecc71" opacity="0.9"><title>RF_KILLN IOL_A | 0.64/1.62 | fstt | Chip: 62919</title></circle>
<circle cx="590.6" cy="418.8" r="5" fill="#2ecc71" opacity="0.9"><title>RF_KILLN IOL_A | 0.64/1.62 | fstt | Chip: 12566</title></circle>
<circle cx="650.4" cy="325.9" r="5" fill="#2ecc71" opacity="0.9"><title>RF_KILLN IOL_A | 0.64/1.62 | fstt | Chip: 12566</title></circle>
<circle cx="710.2" cy="236.1" r="5" fill="#2ecc71" opacity="0.9"><title>RF_KILLN IOL_A | 0.64/1.62 | fstt | Chip: 13316</title></circle>
<circle cx="770.1" cy="158.7" r="5" fill="#2ecc71" opacity="0.9"><title>RF_KILLN IOL_A | 0.64/1.62 | fstt | Chip: 13316</title></circle>
</g>
<g class="series" data-viocore="0.64/1.62" data-skew="sftt">
<path d="M111.9,412.6 L171.8,313.5 L231.6,217.5 L291.4,130.8 L351.2,415.7 L411.1,316.6 L470.9,223.7 L530.8,140.1 L590.6,415.7 L650.4,319.7 L710.2,229.9 L770.1,164.9" fill="none" stroke="#9b59b6" stroke-width="2.2" stroke-linejoin="round" stroke-dasharray="10,3,3,3" opacity="0.9"/>
<circle cx="111.9" cy="412.6" r="5" fill="#9b59b6" opacity="0.9"><title>RF_KILLN IOL_A | 0.64/1.62 | sftt | Chip: 76687</title></circle>
<circle cx="171.8" cy="313.5" r="5" fill="#9b59b6" opacity="0.9"><title>RF_KILLN IOL_A | 0.64/1.62 | sftt | Chip: 76687</title></circle>
<circle cx="231.6" cy="217.5" r="5" fill="#9b59b6" opacity="0.9"><title>RF_KILLN IOL_A | 0.64/1.62 | sftt | Chip: 76687</title></circle>
<circle cx="291.4" cy="130.8" r="5" fill="#9b59b6" opacity="0.9"><title>RF_KILLN IOL_A | 0.64/1.62 | sftt | Chip: 76687</title></circle>
<circle cx="351.2" cy="415.7" r="5" fill="#9b59b6" opacity="0.9"><title>RF_KILLN IOL_A | 0.64/1.62 | sftt | Chip: 76687</title></circle>
<circle cx="411.1" cy="316.6" r="5" fill="#9b59b6" opacity="0.9"><title>RF_KILLN IOL_A | 0.64/1.62 | sftt | Chip: 76687</title></circle>
<circle cx="470.9" cy="223.7" r="5" fill="#9b59b6" opacity="0.9"><title>RF_KILLN IOL_A | 0.64/1.62 | sftt | Chip: 76687</title></circle>
<circle cx="530.8" cy="140.1" r="5" fill="#9b59b6" opacity="0.9"><title>RF_KILLN IOL_A | 0.64/1.62 | sftt | Chip: 76687</title></circle>
<circle cx="590.6" cy="415.7" r="5" fill="#9b59b6" opacity="0.9"><title>RF_KILLN IOL_A | 0.64/1.62 | sftt | Chip: 76687</title></circle>
<circle cx="650.4" cy="319.7" r="5" fill="#9b59b6" opacity="0.9"><title>RF_KILLN IOL_A | 0.64/1.62 | sftt | Chip: 76687</title></circle>
<circle cx="710.2" cy="229.9" r="5" fill="#9b59b6" opacity="0.9"><title>RF_KILLN IOL_A | 0.64/1.62 | sftt | Chip: 76687</title></circle>
<circle cx="770.1" cy="164.9" r="5" fill="#9b59b6" opacity="0.9"><title>RF_KILLN IOL_A | 0.64/1.62 | sftt | Chip: 69627</title></circle>
</g>
<g class="series" data-viocore="0.64/1.62" data-skew="ssff">
<path d="M111.9,409.5 L171.8,307.4 L231.6,211.4 L291.4,121.5 L351.2,412.6 L411.1,310.5 L470.9,217.5 L530.8,130.8 L590.6,415.7 L650.4,322.8 L710.2,233.0 L770.1,152.5" fill="none" stroke="#e67e22" stroke-width="2.2" stroke-linejoin="round" opacity="0.9"/>
<circle cx="111.9" cy="409.5" r="5" fill="#e67e22" opacity="0.9"><title>RF_KILLN IOL_A | 0.64/1.62 | ssff | Chip: 57571</title></circle>
<circle cx="171.8" cy="307.4" r="5" fill="#e67e22" opacity="0.9"><title>RF_KILLN IOL_A | 0.64/1.62 | ssff | Chip: 57571</title></circle>
<circle cx="231.6" cy="211.4" r="5" fill="#e67e22" opacity="0.9"><title>RF_KILLN IOL_A | 0.64/1.62 | ssff | Chip: 57571</title></circle>
<circle cx="291.4" cy="121.5" r="5" fill="#e67e22" opacity="0.9"><title>RF_KILLN IOL_A | 0.64/1.62 | ssff | Chip: 57571</title></circle>
<circle cx="351.2" cy="412.6" r="5" fill="#e67e22" opacity="0.9"><title>RF_KILLN IOL_A | 0.64/1.62 | ssff | Chip: 57571</title></circle>
<circle cx="411.1" cy="310.5" r="5" fill="#e67e22" opacity="0.9"><title>RF_KILLN IOL_A | 0.64/1.62 | ssff | Chip: 57571</title></circle>
<circle cx="470.9" cy="217.5" r="5" fill="#e67e22" opacity="0.9"><title>RF_KILLN IOL_A | 0.64/1.62 | ssff | Chip: 57571</title></circle>
<circle cx="530.8" cy="130.8" r="5" fill="#e67e22" opacity="0.9"><title>RF_KILLN IOL_A | 0.64/1.62 | ssff | Chip: 57571</title></circle>
<circle cx="590.6" cy="415.7" r="5" fill="#e67e22" opacity="0.9"><title>RF_KILLN IOL_A | 0.64/1.62 | ssff | Chip: 57571</title></circle>
<circle cx="650.4" cy="322.8" r="5" fill="#e67e22" opacity="0.9"><title>RF_KILLN IOL_A | 0.64/1.62 | ssff | Chip: 57571</title></circle>
<circle cx="710.2" cy="233.0" r="5" fill="#e67e22" opacity="0.9"><title>RF_KILLN IOL_A | 0.64/1.62 | ssff | Chip: 57571</title></circle>
<circle cx="770.1" cy="152.5" r="5" fill="#e67e22" opacity="0.9"><title>RF_KILLN IOL_A | 0.64/1.62 | ssff | Chip: 57571</title></circle>
</g>
<g class="series" data-viocore="0.64/1.62" data-skew="sstt">
<path d="M111.9,412.6 L171.8,313.5 L231.6,217.5 L291.4,130.8 L351.2,415.7 L411.1,316.6 L470.9,223.7 L530.8,140.1 L590.6,418.8 L650.4,325.9 L710.2,236.1 L770.1,158.7" fill="none" stroke="#1abc9c" stroke-width="2.2" stroke-linejoin="round" stroke-dasharray="8,3" opacity="0.9"/>
<circle cx="111.9" cy="412.6" r="5" fill="#1abc9c" opacity="0.9"><title>RF_KILLN IOL_A | 0.64/1.62 | sstt | Chip: 9808</title></circle>
<circle cx="171.8" cy="313.5" r="5" fill="#1abc9c" opacity="0.9"><title>RF_KILLN IOL_A | 0.64/1.62 | sstt | Chip: 9808</title></circle>
<circle cx="231.6" cy="217.5" r="5" fill="#1abc9c" opacity="0.9"><title>RF_KILLN IOL_A | 0.64/1.62 | sstt | Chip: 9808</title></circle>
<circle cx="291.4" cy="130.8" r="5" fill="#1abc9c" opacity="0.9"><title>RF_KILLN IOL_A | 0.64/1.62 | sstt | Chip: 29674</title></circle>
<circle cx="351.2" cy="415.7" r="5" fill="#1abc9c" opacity="0.9"><title>RF_KILLN IOL_A | 0.64/1.62 | sstt | Chip: 9808</title></circle>
<circle cx="411.1" cy="316.6" r="5" fill="#1abc9c" opacity="0.9"><title>RF_KILLN IOL_A | 0.64/1.62 | sstt | Chip: 29674</title></circle>
<circle cx="470.9" cy="223.7" r="5" fill="#1abc9c" opacity="0.9"><title>RF_KILLN IOL_A | 0.64/1.62 | sstt | Chip: 29674</title></circle>
<circle cx="530.8" cy="140.1" r="5" fill="#1abc9c" opacity="0.9"><title>RF_KILLN IOL_A | 0.64/1.62 | sstt | Chip: 29674</title></circle>
<circle cx="590.6" cy="418.8" r="5" fill="#1abc9c" opacity="0.9"><title>RF_KILLN IOL_A | 0.64/1.62 | sstt | Chip: 9808</title></circle>
<circle cx="650.4" cy="325.9" r="5" fill="#1abc9c" opacity="0.9"><title>RF_KILLN IOL_A | 0.64/1.62 | sstt | Chip: 9808</title></circle>
<circle cx="710.2" cy="236.1" r="5" fill="#1abc9c" opacity="0.9"><title>RF_KILLN IOL_A | 0.64/1.62 | sstt | Chip: 58046</title></circle>
<circle cx="770.1" cy="158.7" r="5" fill="#1abc9c" opacity="0.9"><title>RF_KILLN IOL_A | 0.64/1.62 | sstt | Chip: 58046</title></circle>
</g>
<g class="series" data-viocore="0.8/1.8" data-skew="ffss">
<path d="M111.9,412.6 L171.8,313.5 L231.6,220.6 L291.4,133.9 L351.2,415.7 L411.1,319.7 L470.9,226.8 L530.8,143.2 L590.6,418.8 L650.4,325.9 L710.2,239.2 L770.1,161.8" fill="none" stroke="#c0392b" stroke-width="2.2" stroke-linejoin="round" stroke-dasharray="4,3" opacity="0.9"/>
<circle cx="111.9" cy="412.6" r="5" fill="#c0392b" opacity="0.9"><title>RF_KILLN IOL_A | 0.8/1.8 | ffss | Chip: 79093</title></circle>
<circle cx="171.8" cy="313.5" r="5" fill="#c0392b" opacity="0.9"><title>RF_KILLN IOL_A | 0.8/1.8 | ffss | Chip: 79093</title></circle>
<circle cx="231.6" cy="220.6" r="5" fill="#c0392b" opacity="0.9"><title>RF_KILLN IOL_A | 0.8/1.8 | ffss | Chip: 25679</title></circle>
<circle cx="291.4" cy="133.9" r="5" fill="#c0392b" opacity="0.9"><title>RF_KILLN IOL_A | 0.8/1.8 | ffss | Chip: 25679</title></circle>
<circle cx="351.2" cy="415.7" r="5" fill="#c0392b" opacity="0.9"><title>RF_KILLN IOL_A | 0.8/1.8 | ffss | Chip: 25679</title></circle>
<circle cx="411.1" cy="319.7" r="5" fill="#c0392b" opacity="0.9"><title>RF_KILLN IOL_A | 0.8/1.8 | ffss | Chip: 25679</title></circle>
<circle cx="470.9" cy="226.8" r="5" fill="#c0392b" opacity="0.9"><title>RF_KILLN IOL_A | 0.8/1.8 | ffss | Chip: 25679</title></circle>
<circle cx="530.8" cy="143.2" r="5" fill="#c0392b" opacity="0.9"><title>RF_KILLN IOL_A | 0.8/1.8 | ffss | Chip: 25679</title></circle>
<circle cx="590.6" cy="418.8" r="5" fill="#c0392b" opacity="0.9"><title>RF_KILLN IOL_A | 0.8/1.8 | ffss | Chip: 25679</title></circle>
<circle cx="650.4" cy="325.9" r="5" fill="#c0392b" opacity="0.9"><title>RF_KILLN IOL_A | 0.8/1.8 | ffss | Chip: 25679</title></circle>
<circle cx="710.2" cy="239.2" r="5" fill="#c0392b" opacity="0.9"><title>RF_KILLN IOL_A | 0.8/1.8 | ffss | Chip: 25679</title></circle>
<circle cx="770.1" cy="161.8" r="5" fill="#c0392b" opacity="0.9"><title>RF_KILLN IOL_A | 0.8/1.8 | ffss | Chip: 25679</title></circle>
</g>
<g class="series" data-viocore="0.8/1.8" data-skew="fftt">
<path d="M111.9,409.5 L171.8,307.4 L231.6,208.3 L291.4,121.5 L351.2,412.6 L411.1,313.5 L470.9,217.5 L530.8,130.8 L590.6,415.7 L650.4,316.6 L710.2,226.8 L770.1,146.3" fill="none" stroke="#2980b9" stroke-width="2.2" stroke-linejoin="round" stroke-dasharray="10,3,3,3" opacity="0.9"/>
<circle cx="111.9" cy="409.5" r="5" fill="#2980b9" opacity="0.9"><title>RF_KILLN IOL_A | 0.8/1.8 | fftt | Chip: 15382</title></circle>
<circle cx="171.8" cy="307.4" r="5" fill="#2980b9" opacity="0.9"><title>RF_KILLN IOL_A | 0.8/1.8 | fftt | Chip: 15382</title></circle>
<circle cx="231.6" cy="208.3" r="5" fill="#2980b9" opacity="0.9"><title>RF_KILLN IOL_A | 0.8/1.8 | fftt | Chip: 15382</title></circle>
<circle cx="291.4" cy="121.5" r="5" fill="#2980b9" opacity="0.9"><title>RF_KILLN IOL_A | 0.8/1.8 | fftt | Chip: 15382</title></circle>
<circle cx="351.2" cy="412.6" r="5" fill="#2980b9" opacity="0.9"><title>RF_KILLN IOL_A | 0.8/1.8 | fftt | Chip: 78814</title></circle>
<circle cx="411.1" cy="313.5" r="5" fill="#2980b9" opacity="0.9"><title>RF_KILLN IOL_A | 0.8/1.8 | fftt | Chip: 78814</title></circle>
<circle cx="470.9" cy="217.5" r="5" fill="#2980b9" opacity="0.9"><title>RF_KILLN IOL_A | 0.8/1.8 | fftt | Chip: 15382</title></circle>
<circle cx="530.8" cy="130.8" r="5" fill="#2980b9" opacity="0.9"><title>RF_KILLN IOL_A | 0.8/1.8 | fftt | Chip: 15382</title></circle>
<circle cx="590.6" cy="415.7" r="5" fill="#2980b9" opacity="0.9"><title>RF_KILLN IOL_A | 0.8/1.8 | fftt | Chip: 78814</title></circle>
<circle cx="650.4" cy="316.6" r="5" fill="#2980b9" opacity="0.9"><title>RF_KILLN IOL_A | 0.8/1.8 | fftt | Chip: 15382</title></circle>
<circle cx="710.2" cy="226.8" r="5" fill="#2980b9" opacity="0.9"><title>RF_KILLN IOL_A | 0.8/1.8 | fftt | Chip: 15382</title></circle>
<circle cx="770.1" cy="146.3" r="5" fill="#2980b9" opacity="0.9"><title>RF_KILLN IOL_A | 0.8/1.8 | fftt | Chip: 15382</title></circle>
</g>
<g class="series" data-viocore="0.8/1.8" data-skew="fstt">
<path d="M111.9,409.5 L171.8,310.5 L231.6,211.4 L291.4,124.6 L351.2,412.6 L411.1,313.5 L470.9,217.5 L530.8,133.9 L590.6,415.7 L650.4,319.7 L710.2,229.9 L770.1,152.5" fill="none" stroke="#27ae60" stroke-width="2.2" stroke-linejoin="round" opacity="0.9"/>
<circle cx="111.9" cy="409.5" r="5" fill="#27ae60" opacity="0.9"><title>RF_KILLN IOL_A | 0.8/1.8 | fstt | Chip: 13316</title></circle>
<circle cx="171.8" cy="310.5" r="5" fill="#27ae60" opacity="0.9"><title>RF_KILLN IOL_A | 0.8/1.8 | fstt | Chip: 12566</title></circle>
<circle cx="231.6" cy="211.4" r="5" fill="#27ae60" opacity="0.9"><title>RF_KILLN IOL_A | 0.8/1.8 | fstt | Chip: 62919</title></circle>
<circle cx="291.4" cy="124.6" r="5" fill="#27ae60" opacity="0.9"><title>RF_KILLN IOL_A | 0.8/1.8 | fstt | Chip: 62919</title></circle>
<circle cx="351.2" cy="412.6" r="5" fill="#27ae60" opacity="0.9"><title>RF_KILLN IOL_A | 0.8/1.8 | fstt | Chip: 12566</title></circle>
<circle cx="411.1" cy="313.5" r="5" fill="#27ae60" opacity="0.9"><title>RF_KILLN IOL_A | 0.8/1.8 | fstt | Chip: 62919</title></circle>
<circle cx="470.9" cy="217.5" r="5" fill="#27ae60" opacity="0.9"><title>RF_KILLN IOL_A | 0.8/1.8 | fstt | Chip: 13316</title></circle>
<circle cx="530.8" cy="133.9" r="5" fill="#27ae60" opacity="0.9"><title>RF_KILLN IOL_A | 0.8/1.8 | fstt | Chip: 62919</title></circle>
<circle cx="590.6" cy="415.7" r="5" fill="#27ae60" opacity="0.9"><title>RF_KILLN IOL_A | 0.8/1.8 | fstt | Chip: 12566</title></circle>
<circle cx="650.4" cy="319.7" r="5" fill="#27ae60" opacity="0.9"><title>RF_KILLN IOL_A | 0.8/1.8 | fstt | Chip: 13316</title></circle>
<circle cx="710.2" cy="229.9" r="5" fill="#27ae60" opacity="0.9"><title>RF_KILLN IOL_A | 0.8/1.8 | fstt | Chip: 13316</title></circle>
<circle cx="770.1" cy="152.5" r="5" fill="#27ae60" opacity="0.9"><title>RF_KILLN IOL_A | 0.8/1.8 | fstt | Chip: 62919</title></circle>
</g>
<g class="series" data-viocore="0.8/1.8" data-skew="sftt">
<path d="M111.9,409.5 L171.8,307.4 L231.6,211.4 L291.4,121.5 L351.2,412.6 L411.1,313.5 L470.9,217.5 L530.8,130.8 L590.6,415.7 L650.4,319.7 L710.2,229.9 L770.1,155.6" fill="none" stroke="#8e44ad" stroke-width="2.2" stroke-linejoin="round" stroke-dasharray="8,3" opacity="0.9"/>
<circle cx="111.9" cy="409.5" r="5" fill="#8e44ad" opacity="0.9"><title>RF_KILLN IOL_A | 0.8/1.8 | sftt | Chip: 76687</title></circle>
<circle cx="171.8" cy="307.4" r="5" fill="#8e44ad" opacity="0.9"><title>RF_KILLN IOL_A | 0.8/1.8 | sftt | Chip: 76687</title></circle>
<circle cx="231.6" cy="211.4" r="5" fill="#8e44ad" opacity="0.9"><title>RF_KILLN IOL_A | 0.8/1.8 | sftt | Chip: 76687</title></circle>
<circle cx="291.4" cy="121.5" r="5" fill="#8e44ad" opacity="0.9"><title>RF_KILLN IOL_A | 0.8/1.8 | sftt | Chip: 76687</title></circle>
<circle cx="351.2" cy="412.6" r="5" fill="#8e44ad" opacity="0.9"><title>RF_KILLN IOL_A | 0.8/1.8 | sftt | Chip: 76687</title></circle>
<circle cx="411.1" cy="313.5" r="5" fill="#8e44ad" opacity="0.9"><title>RF_KILLN IOL_A | 0.8/1.8 | sftt | Chip: 76687</title></circle>
<circle cx="470.9" cy="217.5" r="5" fill="#8e44ad" opacity="0.9"><title>RF_KILLN IOL_A | 0.8/1.8 | sftt | Chip: 76687</title></circle>
<circle cx="530.8" cy="130.8" r="5" fill="#8e44ad" opacity="0.9"><title>RF_KILLN IOL_A | 0.8/1.8 | sftt | Chip: 76687</title></circle>
<circle cx="590.6" cy="415.7" r="5" fill="#8e44ad" opacity="0.9"><title>RF_KILLN IOL_A | 0.8/1.8 | sftt | Chip: 76687</title></circle>
<circle cx="650.4" cy="319.7" r="5" fill="#8e44ad" opacity="0.9"><title>RF_KILLN IOL_A | 0.8/1.8 | sftt | Chip: 76687</title></circle>
<circle cx="710.2" cy="229.9" r="5" fill="#8e44ad" opacity="0.9"><title>RF_KILLN IOL_A | 0.8/1.8 | sftt | Chip: 76687</title></circle>
<circle cx="770.1" cy="155.6" r="5" fill="#8e44ad" opacity="0.9"><title>RF_KILLN IOL_A | 0.8/1.8 | sftt | Chip: 69627</title></circle>
</g>
<g class="series" data-viocore="0.8/1.8" data-skew="ssff">
<path d="M111.9,406.5 L171.8,304.3 L231.6,205.2 L291.4,115.4 L351.2,409.5 L411.1,307.4 L470.9,211.4 L530.8,121.5 L590.6,412.6 L650.4,316.6 L710.2,223.7 L770.1,143.2" fill="none" stroke="#d35400" stroke-width="2.2" stroke-linejoin="round" stroke-dasharray="4,3" opacity="0.9"/>
<circle cx="111.9" cy="406.5" r="5" fill="#d35400" opacity="0.9"><title>RF_KILLN IOL_A | 0.8/1.8 | ssff | Chip: 57571</title></circle>
<circle cx="171.8" cy="304.3" r="5" fill="#d35400" opacity="0.9"><title>RF_KILLN IOL_A | 0.8/1.8 | ssff | Chip: 57571</title></circle>
<circle cx="231.6" cy="205.2" r="5" fill="#d35400" opacity="0.9"><title>RF_KILLN IOL_A | 0.8/1.8 | ssff | Chip: 57571</title></circle>
<circle cx="291.4" cy="115.4" r="5" fill="#d35400" opacity="0.9"><title>RF_KILLN IOL_A | 0.8/1.8 | ssff | Chip: 57571</title></circle>
<circle cx="351.2" cy="409.5" r="5" fill="#d35400" opacity="0.9"><title>RF_KILLN IOL_A | 0.8/1.8 | ssff | Chip: 57571</title></circle>
<circle cx="411.1" cy="307.4" r="5" fill="#d35400" opacity="0.9"><title>RF_KILLN IOL_A | 0.8/1.8 | ssff | Chip: 57571</title></circle>
<circle cx="470.9" cy="211.4" r="5" fill="#d35400" opacity="0.9"><title>RF_KILLN IOL_A | 0.8/1.8 | ssff | Chip: 57571</title></circle>
<circle cx="530.8" cy="121.5" r="5" fill="#d35400" opacity="0.9"><title>RF_KILLN IOL_A | 0.8/1.8 | ssff | Chip: 57571</title></circle>
<circle cx="590.6" cy="412.6" r="5" fill="#d35400" opacity="0.9"><title>RF_KILLN IOL_A | 0.8/1.8 | ssff | Chip: 57571</title></circle>
<circle cx="650.4" cy="316.6" r="5" fill="#d35400" opacity="0.9"><title>RF_KILLN IOL_A | 0.8/1.8 | ssff | Chip: 57571</title></circle>
<circle cx="710.2" cy="223.7" r="5" fill="#d35400" opacity="0.9"><title>RF_KILLN IOL_A | 0.8/1.8 | ssff | Chip: 57571</title></circle>
<circle cx="770.1" cy="143.2" r="5" fill="#d35400" opacity="0.9"><title>RF_KILLN IOL_A | 0.8/1.8 | ssff | Chip: 57571</title></circle>
</g>
<g class="series" data-viocore="0.8/1.8" data-skew="sstt">
<path d="M111.9,409.5 L171.8,307.4 L231.6,211.4 L291.4,121.5 L351.2,412.6 L411.1,313.5 L470.9,217.5 L530.8,130.8 L590.6,415.7 L650.4,319.7 L710.2,229.9 L770.1,152.5" fill="none" stroke="#16a085" stroke-width="2.2" stroke-linejoin="round" stroke-dasharray="10,3,3,3" opacity="0.9"/>
<circle cx="111.9" cy="409.5" r="5" fill="#16a085" opacity="0.9"><title>RF_KILLN IOL_A | 0.8/1.8 | sstt | Chip: 9808</title></circle>
<circle cx="171.8" cy="307.4" r="5" fill="#16a085" opacity="0.9"><title>RF_KILLN IOL_A | 0.8/1.8 | sstt | Chip: 58046</title></circle>
<circle cx="231.6" cy="211.4" r="5" fill="#16a085" opacity="0.9"><title>RF_KILLN IOL_A | 0.8/1.8 | sstt | Chip: 9808</title></circle>
<circle cx="291.4" cy="121.5" r="5" fill="#16a085" opacity="0.9"><title>RF_KILLN IOL_A | 0.8/1.8 | sstt | Chip: 58046</title></circle>
<circle cx="351.2" cy="412.6" r="5" fill="#16a085" opacity="0.9"><title>RF_KILLN IOL_A | 0.8/1.8 | sstt | Chip: 9808</title></circle>
<circle cx="411.1" cy="313.5" r="5" fill="#16a085" opacity="0.9"><title>RF_KILLN IOL_A | 0.8/1.8 | sstt | Chip: 9808</title></circle>
<circle cx="470.9" cy="217.5" r="5" fill="#16a085" opacity="0.9"><title>RF_KILLN IOL_A | 0.8/1.8 | sstt | Chip: 29674</title></circle>
<circle cx="530.8" cy="130.8" r="5" fill="#16a085" opacity="0.9"><title>RF_KILLN IOL_A | 0.8/1.8 | sstt | Chip: 58046</title></circle>
<circle cx="590.6" cy="415.7" r="5" fill="#16a085" opacity="0.9"><title>RF_KILLN IOL_A | 0.8/1.8 | sstt | Chip: 9808</title></circle>
<circle cx="650.4" cy="319.7" r="5" fill="#16a085" opacity="0.9"><title>RF_KILLN IOL_A | 0.8/1.8 | sstt | Chip: 29674</title></circle>
<circle cx="710.2" cy="229.9" r="5" fill="#16a085" opacity="0.9"><title>RF_KILLN IOL_A | 0.8/1.8 | sstt | Chip: 58046</title></circle>
<circle cx="770.1" cy="152.5" r="5" fill="#16a085" opacity="0.9"><title>RF_KILLN IOL_A | 0.8/1.8 | sstt | Chip: 29674</title></circle>
</g>
<g class="series" data-viocore="0.96/1.98" data-skew="ffss">
<path d="M111.9,412.6 L171.8,310.5 L231.6,214.5 L291.4,127.7 L351.2,415.7 L411.1,316.6 L470.9,223.7 L530.8,137.0 L590.6,415.7 L650.4,322.8 L710.2,233.0 L770.1,155.6" fill="none" stroke="#3498db" stroke-width="2.2" stroke-linejoin="round" opacity="0.9"/>
<circle cx="111.9" cy="412.6" r="5" fill="#3498db" opacity="0.9"><title>RF_KILLN IOL_A | 0.96/1.98 | ffss | Chip: 25679</title></circle>
<circle cx="171.8" cy="310.5" r="5" fill="#3498db" opacity="0.9"><title>RF_KILLN IOL_A | 0.96/1.98 | ffss | Chip: 79093</title></circle>
<circle cx="231.6" cy="214.5" r="5" fill="#3498db" opacity="0.9"><title>RF_KILLN IOL_A | 0.96/1.98 | ffss | Chip: 79093</title></circle>
<circle cx="291.4" cy="127.7" r="5" fill="#3498db" opacity="0.9"><title>RF_KILLN IOL_A | 0.96/1.98 | ffss | Chip: 79093</title></circle>
<circle cx="351.2" cy="415.7" r="5" fill="#3498db" opacity="0.9"><title>RF_KILLN IOL_A | 0.96/1.98 | ffss | Chip: 25679</title></circle>
<circle cx="411.1" cy="316.6" r="5" fill="#3498db" opacity="0.9"><title>RF_KILLN IOL_A | 0.96/1.98 | ffss | Chip: 25679</title></circle>
<circle cx="470.9" cy="223.7" r="5" fill="#3498db" opacity="0.9"><title>RF_KILLN IOL_A | 0.96/1.98 | ffss | Chip: 25679</title></circle>
<circle cx="530.8" cy="137.0" r="5" fill="#3498db" opacity="0.9"><title>RF_KILLN IOL_A | 0.96/1.98 | ffss | Chip: 25679</title></circle>
<circle cx="590.6" cy="415.7" r="5" fill="#3498db" opacity="0.9"><title>RF_KILLN IOL_A | 0.96/1.98 | ffss | Chip: 25679</title></circle>
<circle cx="650.4" cy="322.8" r="5" fill="#3498db" opacity="0.9"><title>RF_KILLN IOL_A | 0.96/1.98 | ffss | Chip: 25679</title></circle>
<circle cx="710.2" cy="233.0" r="5" fill="#3498db" opacity="0.9"><title>RF_KILLN IOL_A | 0.96/1.98 | ffss | Chip: 25679</title></circle>
<circle cx="770.1" cy="155.6" r="5" fill="#3498db" opacity="0.9"><title>RF_KILLN IOL_A | 0.96/1.98 | ffss | Chip: 25679</title></circle>
</g>
<g class="series" data-viocore="0.96/1.98" data-skew="fftt">
<path d="M111.9,406.5 L171.8,304.3 L231.6,205.2 L291.4,115.4 L351.2,409.5 L411.1,307.4 L470.9,211.4 L530.8,124.6 L590.6,412.6 L650.4,313.5 L710.2,223.7 L770.1,143.2" fill="none" stroke="#e74c3c" stroke-width="2.2" stroke-linejoin="round" stroke-dasharray="8,3" opacity="0.9"/>
<circle cx="111.9" cy="406.5" r="5" fill="#e74c3c" opacity="0.9"><title>RF_KILLN IOL_A | 0.96/1.98 | fftt | Chip: 15382</title></circle>
<circle cx="171.8" cy="304.3" r="5" fill="#e74c3c" opacity="0.9"><title>RF_KILLN IOL_A | 0.96/1.98 | fftt | Chip: 15382</title></circle>
<circle cx="231.6" cy="205.2" r="5" fill="#e74c3c" opacity="0.9"><title>RF_KILLN IOL_A | 0.96/1.98 | fftt | Chip: 15382</title></circle>
<circle cx="291.4" cy="115.4" r="5" fill="#e74c3c" opacity="0.9"><title>RF_KILLN IOL_A | 0.96/1.98 | fftt | Chip: 15382</title></circle>
<circle cx="351.2" cy="409.5" r="5" fill="#e74c3c" opacity="0.9"><title>RF_KILLN IOL_A | 0.96/1.98 | fftt | Chip: 15382</title></circle>
<circle cx="411.1" cy="307.4" r="5" fill="#e74c3c" opacity="0.9"><title>RF_KILLN IOL_A | 0.96/1.98 | fftt | Chip: 15382</title></circle>
<circle cx="470.9" cy="211.4" r="5" fill="#e74c3c" opacity="0.9"><title>RF_KILLN IOL_A | 0.96/1.98 | fftt | Chip: 15382</title></circle>
<circle cx="530.8" cy="124.6" r="5" fill="#e74c3c" opacity="0.9"><title>RF_KILLN IOL_A | 0.96/1.98 | fftt | Chip: 15382</title></circle>
<circle cx="590.6" cy="412.6" r="5" fill="#e74c3c" opacity="0.9"><title>RF_KILLN IOL_A | 0.96/1.98 | fftt | Chip: 15382</title></circle>
<circle cx="650.4" cy="313.5" r="5" fill="#e74c3c" opacity="0.9"><title>RF_KILLN IOL_A | 0.96/1.98 | fftt | Chip: 15382</title></circle>
<circle cx="710.2" cy="223.7" r="5" fill="#e74c3c" opacity="0.9"><title>RF_KILLN IOL_A | 0.96/1.98 | fftt | Chip: 15382</title></circle>
<circle cx="770.1" cy="143.2" r="5" fill="#e74c3c" opacity="0.9"><title>RF_KILLN IOL_A | 0.96/1.98 | fftt | Chip: 15382</title></circle>
</g>
<g class="series" data-viocore="0.96/1.98" data-skew="fstt">
<path d="M111.9,409.5 L171.8,307.4 L231.6,208.3 L291.4,118.5 L351.2,412.6 L411.1,310.5 L470.9,214.5 L530.8,127.7 L590.6,412.6 L650.4,316.6 L710.2,226.8 L770.1,146.3" fill="none" stroke="#2ecc71" stroke-width="2.2" stroke-linejoin="round" stroke-dasharray="4,3" opacity="0.9"/>
<circle cx="111.9" cy="409.5" r="5" fill="#2ecc71" opacity="0.9"><title>RF_KILLN IOL_A | 0.96/1.98 | fstt | Chip: 12566</title></circle>
<circle cx="171.8" cy="307.4" r="5" fill="#2ecc71" opacity="0.9"><title>RF_KILLN IOL_A | 0.96/1.98 | fstt | Chip: 12566</title></circle>
<circle cx="231.6" cy="208.3" r="5" fill="#2ecc71" opacity="0.9"><title>RF_KILLN IOL_A | 0.96/1.98 | fstt | Chip: 62919</title></circle>
<circle cx="291.4" cy="118.5" r="5" fill="#2ecc71" opacity="0.9"><title>RF_KILLN IOL_A | 0.96/1.98 | fstt | Chip: 62919</title></circle>
<circle cx="351.2" cy="412.6" r="5" fill="#2ecc71" opacity="0.9"><title>RF_KILLN IOL_A | 0.96/1.98 | fstt | Chip: 12566</title></circle>
<circle cx="411.1" cy="310.5" r="5" fill="#2ecc71" opacity="0.9"><title>RF_KILLN IOL_A | 0.96/1.98 | fstt | Chip: 12566</title></circle>
<circle cx="470.9" cy="214.5" r="5" fill="#2ecc71" opacity="0.9"><title>RF_KILLN IOL_A | 0.96/1.98 | fstt | Chip: 12566</title></circle>
<circle cx="530.8" cy="127.7" r="5" fill="#2ecc71" opacity="0.9"><title>RF_KILLN IOL_A | 0.96/1.98 | fstt | Chip: 62919</title></circle>
<circle cx="590.6" cy="412.6" r="5" fill="#2ecc71" opacity="0.9"><title>RF_KILLN IOL_A | 0.96/1.98 | fstt | Chip: 13316</title></circle>
<circle cx="650.4" cy="316.6" r="5" fill="#2ecc71" opacity="0.9"><title>RF_KILLN IOL_A | 0.96/1.98 | fstt | Chip: 13316</title></circle>
<circle cx="710.2" cy="226.8" r="5" fill="#2ecc71" opacity="0.9"><title>RF_KILLN IOL_A | 0.96/1.98 | fstt | Chip: 62919</title></circle>
<circle cx="770.1" cy="146.3" r="5" fill="#2ecc71" opacity="0.9"><title>RF_KILLN IOL_A | 0.96/1.98 | fstt | Chip: 62919</title></circle>
</g>
<g class="series" data-viocore="0.96/1.98" data-skew="sftt">
<path d="M111.9,409.5 L171.8,304.3 L231.6,205.2 L291.4,115.4 L351.2,412.6 L411.1,310.5 L470.9,211.4 L530.8,124.6 L590.6,415.7 L650.4,319.7 L710.2,229.9 L770.1,149.4" fill="none" stroke="#9b59b6" stroke-width="2.2" stroke-linejoin="round" stroke-dasharray="10,3,3,3" opacity="0.9"/>
<circle cx="111.9" cy="409.5" r="5" fill="#9b59b6" opacity="0.9"><title>RF_KILLN IOL_A | 0.96/1.98 | sftt | Chip: 76687</title></circle>
<circle cx="171.8" cy="304.3" r="5" fill="#9b59b6" opacity="0.9"><title>RF_KILLN IOL_A | 0.96/1.98 | sftt | Chip: 76687</title></circle>
<circle cx="231.6" cy="205.2" r="5" fill="#9b59b6" opacity="0.9"><title>RF_KILLN IOL_A | 0.96/1.98 | sftt | Chip: 76687</title></circle>
<circle cx="291.4" cy="115.4" r="5" fill="#9b59b6" opacity="0.9"><title>RF_KILLN IOL_A | 0.96/1.98 | sftt | Chip: 76687</title></circle>
<circle cx="351.2" cy="412.6" r="5" fill="#9b59b6" opacity="0.9"><title>RF_KILLN IOL_A | 0.96/1.98 | sftt | Chip: 76687</title></circle>
<circle cx="411.1" cy="310.5" r="5" fill="#9b59b6" opacity="0.9"><title>RF_KILLN IOL_A | 0.96/1.98 | sftt | Chip: 76687</title></circle>
<circle cx="470.9" cy="211.4" r="5" fill="#9b59b6" opacity="0.9"><title>RF_KILLN IOL_A | 0.96/1.98 | sftt | Chip: 76687</title></circle>
<circle cx="530.8" cy="124.6" r="5" fill="#9b59b6" opacity="0.9"><title>RF_KILLN IOL_A | 0.96/1.98 | sftt | Chip: 76687</title></circle>
<circle cx="590.6" cy="415.7" r="5" fill="#9b59b6" opacity="0.9"><title>RF_KILLN IOL_A | 0.96/1.98 | sftt | Chip: 76687</title></circle>
<circle cx="650.4" cy="319.7" r="5" fill="#9b59b6" opacity="0.9"><title>RF_KILLN IOL_A | 0.96/1.98 | sftt | Chip: 76687</title></circle>
<circle cx="710.2" cy="229.9" r="5" fill="#9b59b6" opacity="0.9"><title>RF_KILLN IOL_A | 0.96/1.98 | sftt | Chip: 76687</title></circle>
<circle cx="770.1" cy="149.4" r="5" fill="#9b59b6" opacity="0.9"><title>RF_KILLN IOL_A | 0.96/1.98 | sftt | Chip: 69627</title></circle>
</g>
<g class="series" data-viocore="0.96/1.98" data-skew="ssff">
<path d="M111.9,406.5 L171.8,301.2 L231.6,199.0 L291.4,109.2 L351.2,406.5 L411.1,304.3 L470.9,205.2 L530.8,115.4 L590.6,412.6 L650.4,313.5 L710.2,220.6 L770.1,137.0" fill="none" stroke="#e67e22" stroke-width="2.2" stroke-linejoin="round" opacity="0.9"/>
<circle cx="111.9" cy="406.5" r="5" fill="#e67e22" opacity="0.9"><title>RF_KILLN IOL_A | 0.96/1.98 | ssff | Chip: 57571</title></circle>
<circle cx="171.8" cy="301.2" r="5" fill="#e67e22" opacity="0.9"><title>RF_KILLN IOL_A | 0.96/1.98 | ssff | Chip: 57571</title></circle>
<circle cx="231.6" cy="199.0" r="5" fill="#e67e22" opacity="0.9"><title>RF_KILLN IOL_A | 0.96/1.98 | ssff | Chip: 57571</title></circle>
<circle cx="291.4" cy="109.2" r="5" fill="#e67e22" opacity="0.9"><title>RF_KILLN IOL_A | 0.96/1.98 | ssff | Chip: 57571</title></circle>
<circle cx="351.2" cy="406.5" r="5" fill="#e67e22" opacity="0.9"><title>RF_KILLN IOL_A | 0.96/1.98 | ssff | Chip: 57571</title></circle>
<circle cx="411.1" cy="304.3" r="5" fill="#e67e22" opacity="0.9"><title>RF_KILLN IOL_A | 0.96/1.98 | ssff | Chip: 57571</title></circle>
<circle cx="470.9" cy="205.2" r="5" fill="#e67e22" opacity="0.9"><title>RF_KILLN IOL_A | 0.96/1.98 | ssff | Chip: 57571</title></circle>
<circle cx="530.8" cy="115.4" r="5" fill="#e67e22" opacity="0.9"><title>RF_KILLN IOL_A | 0.96/1.98 | ssff | Chip: 57571</title></circle>
<circle cx="590.6" cy="412.6" r="5" fill="#e67e22" opacity="0.9"><title>RF_KILLN IOL_A | 0.96/1.98 | ssff | Chip: 57571</title></circle>
<circle cx="650.4" cy="313.5" r="5" fill="#e67e22" opacity="0.9"><title>RF_KILLN IOL_A | 0.96/1.98 | ssff | Chip: 57571</title></circle>
<circle cx="710.2" cy="220.6" r="5" fill="#e67e22" opacity="0.9"><title>RF_KILLN IOL_A | 0.96/1.98 | ssff | Chip: 57571</title></circle>
<circle cx="770.1" cy="137.0" r="5" fill="#e67e22" opacity="0.9"><title>RF_KILLN IOL_A | 0.96/1.98 | ssff | Chip: 57571</title></circle>
</g>
<g class="series" data-viocore="0.96/1.98" data-skew="sstt">
<path d="M111.9,409.5 L171.8,304.3 L231.6,205.2 L291.4,115.4 L351.2,409.5 L411.1,307.4 L470.9,211.4 L530.8,124.6 L590.6,412.6 L650.4,316.6 L710.2,226.8 L770.1,143.2" fill="none" stroke="#1abc9c" stroke-width="2.2" stroke-linejoin="round" stroke-dasharray="8,3" opacity="0.9"/>
<circle cx="111.9" cy="409.5" r="5" fill="#1abc9c" opacity="0.9"><title>RF_KILLN IOL_A | 0.96/1.98 | sstt | Chip: 9808</title></circle>
<circle cx="171.8" cy="304.3" r="5" fill="#1abc9c" opacity="0.9"><title>RF_KILLN IOL_A | 0.96/1.98 | sstt | Chip: 29674</title></circle>
<circle cx="231.6" cy="205.2" r="5" fill="#1abc9c" opacity="0.9"><title>RF_KILLN IOL_A | 0.96/1.98 | sstt | Chip: 58046</title></circle>
<circle cx="291.4" cy="115.4" r="5" fill="#1abc9c" opacity="0.9"><title>RF_KILLN IOL_A | 0.96/1.98 | sstt | Chip: 58046</title></circle>
<circle cx="351.2" cy="409.5" r="5" fill="#1abc9c" opacity="0.9"><title>RF_KILLN IOL_A | 0.96/1.98 | sstt | Chip: 58046</title></circle>
<circle cx="411.1" cy="307.4" r="5" fill="#1abc9c" opacity="0.9"><title>RF_KILLN IOL_A | 0.96/1.98 | sstt | Chip: 58046</title></circle>
<circle cx="470.9" cy="211.4" r="5" fill="#1abc9c" opacity="0.9"><title>RF_KILLN IOL_A | 0.96/1.98 | sstt | Chip: 58046</title></circle>
<circle cx="530.8" cy="124.6" r="5" fill="#1abc9c" opacity="0.9"><title>RF_KILLN IOL_A | 0.96/1.98 | sstt | Chip: 58046</title></circle>
<circle cx="590.6" cy="412.6" r="5" fill="#1abc9c" opacity="0.9"><title>RF_KILLN IOL_A | 0.96/1.98 | sstt | Chip: 29674</title></circle>
<circle cx="650.4" cy="316.6" r="5" fill="#1abc9c" opacity="0.9"><title>RF_KILLN IOL_A | 0.96/1.98 | sstt | Chip: 9808</title></circle>
<circle cx="710.2" cy="226.8" r="5" fill="#1abc9c" opacity="0.9"><title>RF_KILLN IOL_A | 0.96/1.98 | sstt | Chip: 9808</title></circle>
<circle cx="770.1" cy="143.2" r="5" fill="#1abc9c" opacity="0.9"><title>RF_KILLN IOL_A | 0.96/1.98 | sstt | Chip: 58046</title></circle>
</g>
<g class="legend-item" data-viocore="0.64/1.62" data-skew="ffss">
<line x1="808" y1="77" x2="836" y2="77" stroke="#3498db" stroke-width="2.2" />
<circle cx="822" cy="77" r="4" fill="#3498db"/>
<text x="840" y="81" font-size="10" font-family="Arial,sans-serif" fill="#2c3e50">0.64/1.62 — ffss (25679)</text>
</g>
<g class="legend-item" data-viocore="0.64/1.62" data-skew="fftt">
<line x1="808" y1="99" x2="836" y2="99" stroke="#e74c3c" stroke-width="2.2" stroke-dasharray="8,3" />
<circle cx="822" cy="99" r="4" fill="#e74c3c"/>
<text x="840" y="103" font-size="10" font-family="Arial,sans-serif" fill="#2c3e50">0.64/1.62 — fftt (15382)</text>
</g>
<g class="legend-item" data-viocore="0.64/1.62" data-skew="fstt">
<line x1="808" y1="121" x2="836" y2="121" stroke="#2ecc71" stroke-width="2.2" stroke-dasharray="4,3" />
<circle cx="822" cy="121" r="4" fill="#2ecc71"/>
<text x="840" y="125" font-size="10" font-family="Arial,sans-serif" fill="#2c3e50">0.64/1.62 — fstt (62919)</text>
</g>
<g class="legend-item" data-viocore="0.64/1.62" data-skew="sftt">
<line x1="808" y1="143" x2="836" y2="143" stroke="#9b59b6" stroke-width="2.2" stroke-dasharray="10,3,3,3" />
<circle cx="822" cy="143" r="4" fill="#9b59b6"/>
<text x="840" y="147" font-size="10" font-family="Arial,sans-serif" fill="#2c3e50">0.64/1.62 — sftt (76687)</text>
</g>
<g class="legend-item" data-viocore="0.64/1.62" data-skew="ssff">
<line x1="808" y1="165" x2="836" y2="165" stroke="#e67e22" stroke-width="2.2" />
<circle cx="822" cy="165" r="4" fill="#e67e22"/>
<text x="840" y="169" font-size="10" font-family="Arial,sans-serif" fill="#2c3e50">0.64/1.62 — ssff (57571)</text>
</g>
<g class="legend-item" data-viocore="0.64/1.62" data-skew="sstt">
<line x1="808" y1="187" x2="836" y2="187" stroke="#1abc9c" stroke-width="2.2" stroke-dasharray="8,3" />
<circle cx="822" cy="187" r="4" fill="#1abc9c"/>
<text x="840" y="191" font-size="10" font-family="Arial,sans-serif" fill="#2c3e50">0.64/1.62 — sstt (29674)</text>
</g>
<g class="legend-item" data-viocore="0.8/1.8" data-skew="ffss">
<line x1="808" y1="209" x2="836" y2="209" stroke="#c0392b" stroke-width="2.2" stroke-dasharray="4,3" />
<circle cx="822" cy="209" r="4" fill="#c0392b"/>
<text x="840" y="213" font-size="10" font-family="Arial,sans-serif" fill="#2c3e50">0.8/1.8 — ffss (25679)</text>
</g>
<g class="legend-item" data-viocore="0.8/1.8" data-skew="fftt">
<line x1="808" y1="231" x2="836" y2="231" stroke="#2980b9" stroke-width="2.2" stroke-dasharray="10,3,3,3" />
<circle cx="822" cy="231" r="4" fill="#2980b9"/>
<text x="840" y="235" font-size="10" font-family="Arial,sans-serif" fill="#2c3e50">0.8/1.8 — fftt (15382)</text>
</g>
<g class="legend-item" data-viocore="0.8/1.8" data-skew="fstt">
<line x1="808" y1="253" x2="836" y2="253" stroke="#27ae60" stroke-width="2.2" />
<circle cx="822" cy="253" r="4" fill="#27ae60"/>
<text x="840" y="257" font-size="10" font-family="Arial,sans-serif" fill="#2c3e50">0.8/1.8 — fstt (62919)</text>
</g>
<g class="legend-item" data-viocore="0.8/1.8" data-skew="sftt">
<line x1="808" y1="275" x2="836" y2="275" stroke="#8e44ad" stroke-width="2.2" stroke-dasharray="8,3" />
<circle cx="822" cy="275" r="4" fill="#8e44ad"/>
<text x="840" y="279" font-size="10" font-family="Arial,sans-serif" fill="#2c3e50">0.8/1.8 — sftt (76687)</text>
</g>
<g class="legend-item" data-viocore="0.8/1.8" data-skew="ssff">
<line x1="808" y1="297" x2="836" y2="297" stroke="#d35400" stroke-width="2.2" stroke-dasharray="4,3" />
<circle cx="822" cy="297" r="4" fill="#d35400"/>
<text x="840" y="301" font-size="10" font-family="Arial,sans-serif" fill="#2c3e50">0.8/1.8 — ssff (57571)</text>
</g>
<g class="legend-item" data-viocore="0.8/1.8" data-skew="sstt">
<line x1="808" y1="319" x2="836" y2="319" stroke="#16a085" stroke-width="2.2" stroke-dasharray="10,3,3,3" />
<circle cx="822" cy="319" r="4" fill="#16a085"/>
<text x="840" y="323" font-size="10" font-family="Arial,sans-serif" fill="#2c3e50">0.8/1.8 — sstt (58046)</text>
</g>
<g class="legend-item" data-viocore="0.96/1.98" data-skew="ffss">
<line x1="808" y1="341" x2="836" y2="341" stroke="#3498db" stroke-width="2.2" />
<circle cx="822" cy="341" r="4" fill="#3498db"/>
<text x="840" y="345" font-size="10" font-family="Arial,sans-serif" fill="#2c3e50">0.96/1.98 — ffss (79093)</text>
</g>
<g class="legend-item" data-viocore="0.96/1.98" data-skew="fftt">
<line x1="808" y1="363" x2="836" y2="363" stroke="#e74c3c" stroke-width="2.2" stroke-dasharray="8,3" />
<circle cx="822" cy="363" r="4" fill="#e74c3c"/>
<text x="840" y="367" font-size="10" font-family="Arial,sans-serif" fill="#2c3e50">0.96/1.98 — fftt (15382)</text>
</g>
<g class="legend-item" data-viocore="0.96/1.98" data-skew="fstt">
<line x1="808" y1="385" x2="836" y2="385" stroke="#2ecc71" stroke-width="2.2" stroke-dasharray="4,3" />
<circle cx="822" cy="385" r="4" fill="#2ecc71"/>
<text x="840" y="389" font-size="10" font-family="Arial,sans-serif" fill="#2c3e50">0.96/1.98 — fstt (62919)</text>
</g>
<g class="legend-item" data-viocore="0.96/1.98" data-skew="sftt">
<line x1="808" y1="407" x2="836" y2="407" stroke="#9b59b6" stroke-width="2.2" stroke-dasharray="10,3,3,3" />
<circle cx="822" cy="407" r="4" fill="#9b59b6"/>
<text x="840" y="411" font-size="10" font-family="Arial,sans-serif" fill="#2c3e50">0.96/1.98 — sftt (76687)</text>
</g>
<g class="legend-item" data-viocore="0.96/1.98" data-skew="ssff">
<line x1="808" y1="429" x2="836" y2="429" stroke="#e67e22" stroke-width="2.2" />
<circle cx="822" cy="429" r="4" fill="#e67e22"/>
<text x="840" y="433" font-size="10" font-family="Arial,sans-serif" fill="#2c3e50">0.96/1.98 — ssff (57571)</text>
</g>
<g class="legend-item" data-viocore="0.96/1.98" data-skew="sstt">
<line x1="808" y1="451" x2="836" y2="451" stroke="#1abc9c" stroke-width="2.2" stroke-dasharray="8,3" />
<circle cx="822" cy="451" r="4" fill="#1abc9c"/>
<text x="840" y="455" font-size="10" font-family="Arial,sans-serif" fill="#2c3e50">0.96/1.98 — sstt (58046)</text>
</g>
</svg>