<svg xmlns="http://www.w3.org/2000/svg" width="860" height="526" viewBox="0 0 860 526">
<rect width="860" height="526" fill="#ffffff"/>
<text x="430.0" y="28.0" font-size="16" font-weight="bold" text-anchor="middle" fill="#2c3e50" font-family="Arial,sans-serif">GPIO_0  [PB16DSFS_18_18_H] — VOL (V)  DS=DS_11  [VOH/VOL]</text>
<line x1="82.0" y1="426.0" x2="680.0" y2="426.0" stroke="#999" stroke-width="1"/>
<line x1="82.0" y1="72.0" x2="82.0" y2="426.0" stroke="#999" stroke-width="1"/>
<line x1="82.0" y1="72.0" x2="82.0" y2="426.0" stroke="#999" stroke-width="1"/>
<line x1="77.0" y1="426.0" x2="82.0" y2="426.0" stroke="#999" stroke-width="1"/>
<line x1="82.0" y1="426.0" x2="680.0" y2="426.0" stroke="#e0e0e0" stroke-width="0.8" stroke-dasharray="3,3"/>
<text x="74.0" y="430.0" font-size="9" font-weight="normal" text-anchor="end" fill="#7f8c8d" font-family="Arial,sans-serif">0.374</text>
<line x1="77.0" y1="355.2" x2="82.0" y2="355.2" stroke="#999" stroke-width="1"/>
<line x1="82.0" y1="355.2" x2="680.0" y2="355.2" stroke="#e0e0e0" stroke-width="0.8" stroke-dasharray="3,3"/>
<text x="74.0" y="359.2" font-size="9" font-weight="normal" text-anchor="end" fill="#7f8c8d" font-family="Arial,sans-serif">0.392</text>
<line x1="77.0" y1="284.4" x2="82.0" y2="284.4" stroke="#999" stroke-width="1"/>
<line x1="82.0" y1="284.4" x2="680.0" y2="284.4" stroke="#e0e0e0" stroke-width="0.8" stroke-dasharray="3,3"/>
<text x="74.0" y="288.4" font-size="9" font-weight="normal" text-anchor="end" fill="#7f8c8d" font-family="Arial,sans-serif">0.41</text>
<line x1="77.0" y1="213.6" x2="82.0" y2="213.6" stroke="#999" stroke-width="1"/>
<line x1="82.0" y1="213.6" x2="680.0" y2="213.6" stroke="#e0e0e0" stroke-width="0.8" stroke-dasharray="3,3"/>
<text x="74.0" y="217.6" font-size="9" font-weight="normal" text-anchor="end" fill="#7f8c8d" font-family="Arial,sans-serif">0.429</text>
<line x1="77.0" y1="142.8" x2="82.0" y2="142.8" stroke="#999" stroke-width="1"/>
<line x1="82.0" y1="142.8" x2="680.0" y2="142.8" stroke="#e0e0e0" stroke-width="0.8" stroke-dasharray="3,3"/>
<text x="74.0" y="146.8" font-size="9" font-weight="normal" text-anchor="end" fill="#7f8c8d" font-family="Arial,sans-serif">0.447</text>
<line x1="77.0" y1="72.0" x2="82.0" y2="72.0" stroke="#999" stroke-width="1"/>
<line x1="82.0" y1="72.0" x2="680.0" y2="72.0" stroke="#e0e0e0" stroke-width="0.8" stroke-dasharray="3,3"/>
<text x="74.0" y="76.0" font-size="9" font-weight="normal" text-anchor="end" fill="#7f8c8d" font-family="Arial,sans-serif">0.465</text>
<text x="14.0" y="249.0" font-size="10" font-weight="normal" text-anchor="middle" fill="#7f8c8d" font-family="Arial,sans-serif" transform="rotate(-90,14,249.0)">VOL (V)</text>
<text x="115.2" y="440.0" font-size="8" font-weight="normal" text-anchor="end" fill="#333" font-family="Arial,sans-serif" transform="rotate(-45,115.2,440)">VIO=1.62
VC=0.64</text>
<text x="181.7" y="440.0" font-size="8" font-weight="normal" text-anchor="end" fill="#333" font-family="Arial,sans-serif" transform="rotate(-45,181.7,440)">VIO=1.8
VC=0.8</text>
<text x="248.1" y="440.0" font-size="8" font-weight="normal" text-anchor="end" fill="#333" font-family="Arial,sans-serif" transform="rotate(-45,248.1,440)">VIO=1.98
VC=0.96</text>
<line x1="281.3" y1="72.0" x2="281.3" y2="426.0" stroke="#cccccc" stroke-width="1" stroke-dasharray="4,3"/>
<text x="314.6" y="440.0" font-size="8" font-weight="normal" text-anchor="end" fill="#333" font-family="Arial,sans-serif" transform="rotate(-45,314.6,440)">VIO=1.62
VC=0.64</text>
<text x="381.0" y="440.0" font-size="8" font-weight="normal" text-anchor="end" fill="#333" font-family="Arial,sans-serif" transform="rotate(-45,381.0,440)">VIO=1.8
VC=0.8</text>
<text x="447.4" y="440.0" font-size="8" font-weight="normal" text-anchor="end" fill="#333" font-family="Arial,sans-serif" transform="rotate(-45,447.4,440)">VIO=1.98
VC=0.96</text>
<line x1="480.7" y1="72.0" x2="480.7" y2="426.0" stroke="#cccccc" stroke-width="1" stroke-dasharray="4,3"/>
<text x="513.9" y="440.0" font-size="8" font-weight="normal" text-anchor="end" fill="#333" font-family="Arial,sans-serif" transform="rotate(-45,513.9,440)">VIO=1.62
VC=0.64</text>
<text x="580.3" y="440.0" font-size="8" font-weight="normal" text-anchor="end" fill="#333" font-family="Arial,sans-serif" transform="rotate(-45,580.3,440)">VIO=1.8
VC=0.8</text>
<text x="646.8" y="440.0" font-size="8" font-weight="normal" text-anchor="end" fill="#333" font-family="Arial,sans-serif" transform="rotate(-45,646.8,440)">VIO=1.98
VC=0.96</text>
<text x="181.7" y="62.0" font-size="10" font-weight="bold" text-anchor="middle" fill="#2c3e50" font-family="Arial,sans-serif">T=0°C</text>
<text x="381.0" y="62.0" font-size="10" font-weight="bold" text-anchor="middle" fill="#2c3e50" font-family="Arial,sans-serif">T=20°C</text>
<text x="580.3" y="62.0" font-size="10" font-weight="bold" text-anchor="middle" fill="#2c3e50" font-family="Arial,sans-serif">T=80°C</text>
<g class="series" data-skew="ffss" data-chip="25679">
<path d="M115.2,254.6 L181.7,281.3 L248.1,303.3 L314.6,222.2 L381.0,250.7 L447.4,273.9 L513.9,122.1 L580.3,154.2 L646.8,180.1" fill="none" stroke="#3498db" stroke-width="2.0" stroke-linejoin="round" opacity="0.85"/>
<circle cx="115.2" cy="254.6" r="5" fill="#3498db" opacity="0.9"><title>GPIO_0 VOL | ffss | Chip: 25679</title></circle>
<circle cx="181.7" cy="281.3" r="5" fill="#3498db" opacity="0.9"><title>GPIO_0 VOL | ffss | Chip: 25679</title></circle>
<circle cx="248.1" cy="303.3" r="5" fill="#3498db" opacity="0.9"><title>GPIO_0 VOL | ffss | Chip: 25679</title></circle>
<circle cx="314.6" cy="222.2" r="5" fill="#3498db" opacity="0.9"><title>GPIO_0 VOL | ffss | Chip: 25679</title></circle>
<circle cx="381.0" cy="250.7" r="5" fill="#3498db" opacity="0.9"><title>GPIO_0 VOL | ffss | Chip: 25679</title></circle>
<circle cx="447.4" cy="273.9" r="5" fill="#3498db" opacity="0.9"><title>GPIO_0 VOL | ffss | Chip: 25679</title></circle>
<circle cx="513.9" cy="122.1" r="5" fill="#3498db" opacity="0.9"><title>GPIO_0 VOL | ffss | Chip: 25679</title></circle>
<circle cx="580.3" cy="154.2" r="5" fill="#3498db" opacity="0.9"><title>GPIO_0 VOL | ffss | Chip: 25679</title></circle>
<circle cx="646.8" cy="180.1" r="5" fill="#3498db" opacity="0.9"><title>GPIO_0 VOL | ffss | Chip: 25679</title></circle>
</g>
<g class="series" data-skew="ffss" data-chip="43407">
<path d="M115.2,244.6 L181.7,272.4 L248.1,294.4 L314.6,212.5 L381.0,241.5 L447.4,265.0 L513.9,109.8 L580.3,143.0 L646.8,170.0" fill="none" stroke="#e74c3c" stroke-width="2.0" stroke-linejoin="round" stroke-dasharray="8,3" opacity="0.85"/>
<circle cx="115.2" cy="244.6" r="5" fill="#e74c3c" opacity="0.9"><title>GPIO_0 VOL | ffss | Chip: 43407</title></circle>
<circle cx="181.7" cy="272.4" r="5" fill="#e74c3c" opacity="0.9"><title>GPIO_0 VOL | ffss | Chip: 43407</title></circle>
<circle cx="248.1" cy="294.4" r="5" fill="#e74c3c" opacity="0.9"><title>GPIO_0 VOL | ffss | Chip: 43407</title></circle>
<circle cx="314.6" cy="212.5" r="5" fill="#e74c3c" opacity="0.9"><title>GPIO_0 VOL | ffss | Chip: 43407</title></circle>
<circle cx="381.0" cy="241.5" r="5" fill="#e74c3c" opacity="0.9"><title>GPIO_0 VOL | ffss | Chip: 43407</title></circle>
<circle cx="447.4" cy="265.0" r="5" fill="#e74c3c" opacity="0.9"><title>GPIO_0 VOL | ffss | Chip: 43407</title></circle>
<circle cx="513.9" cy="109.8" r="5" fill="#e74c3c" opacity="0.9"><title>GPIO_0 VOL | ffss | Chip: 43407</title></circle>
<circle cx="580.3" cy="143.0" r="5" fill="#e74c3c" opacity="0.9"><title>GPIO_0 VOL | ffss | Chip: 43407</title></circle>
<circle cx="646.8" cy="170.0" r="5" fill="#e74c3c" opacity="0.9"><title>GPIO_0 VOL | ffss | Chip: 43407</title></circle>
</g>
<g class="series" data-skew="ffss" data-chip="79093">
<path d="M115.2,253.8 L181.7,281.6 L248.1,303.7 L314.6,221.8 L381.0,250.7 L447.4,273.5 L513.9,122.1 L580.3,153.8 L646.8,180.8" fill="none" stroke="#2ecc71" stroke-width="2.0" stroke-linejoin="round" stroke-dasharray="4,3" opacity="0.85"/>
<circle cx="115.2" cy="253.8" r="5" fill="#2ecc71" opacity="0.9"><title>GPIO_0 VOL | ffss | Chip: 79093</title></circle>
<circle cx="181.7" cy="281.6" r="5" fill="#2ecc71" opacity="0.9"><title>GPIO_0 VOL | ffss | Chip: 79093</title></circle>
<circle cx="248.1" cy="303.7" r="5" fill="#2ecc71" opacity="0.9"><title>GPIO_0 VOL | ffss | Chip: 79093</title></circle>
<circle cx="314.6" cy="221.8" r="5" fill="#2ecc71" opacity="0.9"><title>GPIO_0 VOL | ffss | Chip: 79093</title></circle>
<circle cx="381.0" cy="250.7" r="5" fill="#2ecc71" opacity="0.9"><title>GPIO_0 VOL | ffss | Chip: 79093</title></circle>
<circle cx="447.4" cy="273.5" r="5" fill="#2ecc71" opacity="0.9"><title>GPIO_0 VOL | ffss | Chip: 79093</title></circle>
<circle cx="513.9" cy="122.1" r="5" fill="#2ecc71" opacity="0.9"><title>GPIO_0 VOL | ffss | Chip: 79093</title></circle>
<circle cx="580.3" cy="153.8" r="5" fill="#2ecc71" opacity="0.9"><title>GPIO_0 VOL | ffss | Chip: 79093</title></circle>
<circle cx="646.8" cy="180.8" r="5" fill="#2ecc71" opacity="0.9"><title>GPIO_0 VOL | ffss | Chip: 79093</title></circle>
</g>
<g class="series" data-skew="fftt" data-chip="13967">
<path d="M115.2,290.9 L181.7,320.3 L248.1,342.3 L314.6,260.4 L381.0,289.4 L447.4,313.3 L513.9,149.5 L580.3,183.5 L646.8,212.9" fill="none" stroke="#9b59b6" stroke-width="2.0" stroke-linejoin="round" stroke-dasharray="10,3,3,3" opacity="0.85"/>
<circle cx="115.2" cy="290.9" r="5" fill="#9b59b6" opacity="0.9"><title>GPIO_0 VOL | fftt | Chip: 13967</title></circle>
<circle cx="181.7" cy="320.3" r="5" fill="#9b59b6" opacity="0.9"><title>GPIO_0 VOL | fftt | Chip: 13967</title></circle>
<circle cx="248.1" cy="342.3" r="5" fill="#9b59b6" opacity="0.9"><title>GPIO_0 VOL | fftt | Chip: 13967</title></circle>
<circle cx="314.6" cy="260.4" r="5" fill="#9b59b6" opacity="0.9"><title>GPIO_0 VOL | fftt | Chip: 13967</title></circle>
<circle cx="381.0" cy="289.4" r="5" fill="#9b59b6" opacity="0.9"><title>GPIO_0 VOL | fftt | Chip: 13967</title></circle>
<circle cx="447.4" cy="313.3" r="5" fill="#9b59b6" opacity="0.9"><title>GPIO_0 VOL | fftt | Chip: 13967</title></circle>
<circle cx="513.9" cy="149.5" r="5" fill="#9b59b6" opacity="0.9"><title>GPIO_0 VOL | fftt | Chip: 13967</title></circle>
<circle cx="580.3" cy="183.5" r="5" fill="#9b59b6" opacity="0.9"><title>GPIO_0 VOL | fftt | Chip: 13967</title></circle>
<circle cx="646.8" cy="212.9" r="5" fill="#9b59b6" opacity="0.9"><title>GPIO_0 VOL | fftt | Chip: 13967</title></circle>
</g>
<g class="series" data-skew="fftt" data-chip="15382">
<path d="M115.2,297.9 L181.7,327.6 L248.1,350.8 L314.6,269.7 L381.0,299.0 L447.4,323.4 L513.9,168.1 L580.3,202.8 L646.8,229.9" fill="none" stroke="#e67e22" stroke-width="2.0" stroke-linejoin="round" opacity="0.85"/>
<circle cx="115.2" cy="297.9" r="5" fill="#e67e22" opacity="0.9"><title>GPIO_0 VOL | fftt | Chip: 15382</title></circle>
<circle cx="181.7" cy="327.6" r="5" fill="#e67e22" opacity="0.9"><title>GPIO_0 VOL | fftt | Chip: 15382</title></circle>
<circle cx="248.1" cy="350.8" r="5" fill="#e67e22" opacity="0.9"><title>GPIO_0 VOL | fftt | Chip: 15382</title></circle>
<circle cx="314.6" cy="269.7" r="5" fill="#e67e22" opacity="0.9"><title>GPIO_0 VOL | fftt | Chip: 15382</title></circle>
<circle cx="381.0" cy="299.0" r="5" fill="#e67e22" opacity="0.9"><title>GPIO_0 VOL | fftt | Chip: 15382</title></circle>
<circle cx="447.4" cy="323.4" r="5" fill="#e67e22" opacity="0.9"><title>GPIO_0 VOL | fftt | Chip: 15382</title></circle>
<circle cx="513.9" cy="168.1" r="5" fill="#e67e22" opacity="0.9"><title>GPIO_0 VOL | fftt | Chip: 15382</title></circle>
<circle cx="580.3" cy="202.8" r="5" fill="#e67e22" opacity="0.9"><title>GPIO_0 VOL | fftt | Chip: 15382</title></circle>
<circle cx="646.8" cy="229.9" r="5" fill="#e67e22" opacity="0.9"><title>GPIO_0 VOL | fftt | Chip: 15382</title></circle>
</g>
<g class="series" data-skew="fftt" data-chip="78814">
<path d="M115.2,291.7 L181.7,320.3 L248.1,342.7 L314.6,260.0 L381.0,288.6 L447.4,312.2 L513.9,156.5 L580.3,190.1 L646.8,216.4" fill="none" stroke="#1abc9c" stroke-width="2.0" stroke-linejoin="round" stroke-dasharray="8,3" opacity="0.85"/>
<circle cx="115.2" cy="291.7" r="5" fill="#1abc9c" opacity="0.9"><title>GPIO_0 VOL | fftt | Chip: 78814</title></circle>
<circle cx="181.7" cy="320.3" r="5" fill="#1abc9c" opacity="0.9"><title>GPIO_0 VOL | fftt | Chip: 78814</title></circle>
<circle cx="248.1" cy="342.7" r="5" fill="#1abc9c" opacity="0.9"><title>GPIO_0 VOL | fftt | Chip: 78814</title></circle>
<circle cx="314.6" cy="260.0" r="5" fill="#1abc9c" opacity="0.9"><title>GPIO_0 VOL | fftt | Chip: 78814</title></circle>
<circle cx="381.0" cy="288.6" r="5" fill="#1abc9c" opacity="0.9"><title>GPIO_0 VOL | fftt | Chip: 78814</title></circle>
<circle cx="447.4" cy="312.2" r="5" fill="#1abc9c" opacity="0.9"><title>GPIO_0 VOL | fftt | Chip: 78814</title></circle>
<circle cx="513.9" cy="156.5" r="5" fill="#1abc9c" opacity="0.9"><title>GPIO_0 VOL | fftt | Chip: 78814</title></circle>
<circle cx="580.3" cy="190.1" r="5" fill="#1abc9c" opacity="0.9"><title>GPIO_0 VOL | fftt | Chip: 78814</title></circle>
<circle cx="646.8" cy="216.4" r="5" fill="#1abc9c" opacity="0.9"><title>GPIO_0 VOL | fftt | Chip: 78814</title></circle>
</g>
<g class="series" data-skew="fstt" data-chip="12566">
<path d="M115.2,284.3 L181.7,311.0 L248.1,332.2 L314.6,251.1 L381.0,279.7 L447.4,302.5 L513.9,150.3 L580.3,182.8 L646.8,208.3" fill="none" stroke="#c0392b" stroke-width="2.0" stroke-linejoin="round" stroke-dasharray="4,3" opacity="0.85"/>
<circle cx="115.2" cy="284.3" r="5" fill="#c0392b" opacity="0.9"><title>GPIO_0 VOL | fstt | Chip: 12566</title></circle>
<circle cx="181.7" cy="311.0" r="5" fill="#c0392b" opacity="0.9"><title>GPIO_0 VOL | fstt | Chip: 12566</title></circle>
<circle cx="248.1" cy="332.2" r="5" fill="#c0392b" opacity="0.9"><title>GPIO_0 VOL | fstt | Chip: 12566</title></circle>
<circle cx="314.6" cy="251.1" r="5" fill="#c0392b" opacity="0.9"><title>GPIO_0 VOL | fstt | Chip: 12566</title></circle>
<circle cx="381.0" cy="279.7" r="5" fill="#c0392b" opacity="0.9"><title>GPIO_0 VOL | fstt | Chip: 12566</title></circle>
<circle cx="447.4" cy="302.5" r="5" fill="#c0392b" opacity="0.9"><title>GPIO_0 VOL | fstt | Chip: 12566</title></circle>
<circle cx="513.9" cy="150.3" r="5" fill="#c0392b" opacity="0.9"><title>GPIO_0 VOL | fstt | Chip: 12566</title></circle>
<circle cx="580.3" cy="182.8" r="5" fill="#c0392b" opacity="0.9"><title>GPIO_0 VOL | fstt | Chip: 12566</title></circle>
<circle cx="646.8" cy="208.3" r="5" fill="#c0392b" opacity="0.9"><title>GPIO_0 VOL | fstt | Chip: 12566</title></circle>
</g>
<g class="series" data-skew="fstt" data-chip="13316">
<path d="M115.2,294.0 L181.7,321.0 L248.1,343.1 L314.6,261.6 L381.0,289.7 L447.4,312.2 L513.9,159.6 L580.3,192.4 L646.8,217.1" fill="none" stroke="#2980b9" stroke-width="2.0" stroke-linejoin="round" stroke-dasharray="10,3,3,3" opacity="0.85"/>
<circle cx="115.2" cy="294.0" r="5" fill="#2980b9" opacity="0.9"><title>GPIO_0 VOL | fstt | Chip: 13316</title></circle>
<circle cx="181.7" cy="321.0" r="5" fill="#2980b9" opacity="0.9"><title>GPIO_0 VOL | fstt | Chip: 13316</title></circle>
<circle cx="248.1" cy="343.1" r="5" fill="#2980b9" opacity="0.9"><title>GPIO_0 VOL | fstt | Chip: 13316</title></circle>
<circle cx="314.6" cy="261.6" r="5" fill="#2980b9" opacity="0.9"><title>GPIO_0 VOL | fstt | Chip: 13316</title></circle>
<circle cx="381.0" cy="289.7" r="5" fill="#2980b9" opacity="0.9"><title>GPIO_0 VOL | fstt | Chip: 13316</title></circle>
<circle cx="447.4" cy="312.2" r="5" fill="#2980b9" opacity="0.9"><title>GPIO_0 VOL | fstt | Chip: 13316</title></circle>
<circle cx="513.9" cy="159.6" r="5" fill="#2980b9" opacity="0.9"><title>GPIO_0 VOL | fstt | Chip: 13316</title></circle>
<circle cx="580.3" cy="192.4" r="5" fill="#2980b9" opacity="0.9"><title>GPIO_0 VOL | fstt | Chip: 13316</title></circle>
<circle cx="646.8" cy="217.1" r="5" fill="#2980b9" opacity="0.9"><title>GPIO_0 VOL | fstt | Chip: 13316</title></circle>
</g>
<g class="series" data-skew="fstt" data-chip="62919">
<path d="M115.2,292.5 L181.7,319.9 L248.1,342.7 L314.6,259.6 L381.0,288.6 L447.4,311.8 L513.9,156.9 L580.3,189.7 L646.8,216.0" fill="none" stroke="#27ae60" stroke-width="2.0" stroke-linejoin="round" opacity="0.85"/>
<circle cx="115.2" cy="292.5" r="5" fill="#27ae60" opacity="0.9"><title>GPIO_0 VOL | fstt | Chip: 62919</title></circle>
<circle cx="181.7" cy="319.9" r="5" fill="#27ae60" opacity="0.9"><title>GPIO_0 VOL | fstt | Chip: 62919</title></circle>
<circle cx="248.1" cy="342.7" r="5" fill="#27ae60" opacity="0.9"><title>GPIO_0 VOL | fstt | Chip: 62919</title></circle>
<circle cx="314.6" cy="259.6" r="5" fill="#27ae60" opacity="0.9"><title>GPIO_0 VOL | fstt | Chip: 62919</title></circle>
<circle cx="381.0" cy="288.6" r="5" fill="#27ae60" opacity="0.9"><title>GPIO_0 VOL | fstt | Chip: 62919</title></circle>
<circle cx="447.4" cy="311.8" r="5" fill="#27ae60" opacity="0.9"><title>GPIO_0 VOL | fstt | Chip: 62919</title></circle>
<circle cx="513.9" cy="156.9" r="5" fill="#27ae60" opacity="0.9"><title>GPIO_0 VOL | fstt | Chip: 62919</title></circle>
<circle cx="580.3" cy="189.7" r="5" fill="#27ae60" opacity="0.9"><title>GPIO_0 VOL | fstt | Chip: 62919</title></circle>
<circle cx="646.8" cy="216.0" r="5" fill="#27ae60" opacity="0.9"><title>GPIO_0 VOL | fstt | Chip: 62919</title></circle>
</g>
<g class="series" data-skew="sftt" data-chip="44565">
<path d="M115.2,290.1 L181.7,320.3 L248.1,344.6 L314.6,258.1 L381.0,289.4 L447.4,314.9 L513.9,154.2 L580.3,190.1 L646.8,218.3" fill="none" stroke="#8e44ad" stroke-width="2.0" stroke-linejoin="round" stroke-dasharray="8,3" opacity="0.85"/>
<circle cx="115.2" cy="290.1" r="5" fill="#8e44ad" opacity="0.9"><title>GPIO_0 VOL | sftt | Chip: 44565</title></circle>
<circle cx="181.7" cy="320.3" r="5" fill="#8e44ad" opacity="0.9"><title>GPIO_0 VOL | sftt | Chip: 44565</title></circle>
<circle cx="248.1" cy="344.6" r="5" fill="#8e44ad" opacity="0.9"><title>GPIO_0 VOL | sftt | Chip: 44565</title></circle>
<circle cx="314.6" cy="258.1" r="5" fill="#8e44ad" opacity="0.9"><title>GPIO_0 VOL | sftt | Chip: 44565</title></circle>
<circle cx="381.0" cy="289.4" r="5" fill="#8e44ad" opacity="0.9"><title>GPIO_0 VOL | sftt | Chip: 44565</title></circle>
<circle cx="447.4" cy="314.9" r="5" fill="#8e44ad" opacity="0.9"><title>GPIO_0 VOL | sftt | Chip: 44565</title></circle>
<circle cx="513.9" cy="154.2" r="5" fill="#8e44ad" opacity="0.9"><title>GPIO_0 VOL | sftt | Chip: 44565</title></circle>
<circle cx="580.3" cy="190.1" r="5" fill="#8e44ad" opacity="0.9"><title>GPIO_0 VOL | sftt | Chip: 44565</title></circle>
<circle cx="646.8" cy="218.3" r="5" fill="#8e44ad" opacity="0.9"><title>GPIO_0 VOL | sftt | Chip: 44565</title></circle>
</g>
<g class="series" data-skew="sftt" data-chip="69627">
<path d="M115.2,282.4 L181.7,314.5 L248.1,339.6 L314.6,249.6 L381.0,282.8 L447.4,309.4 L513.9,144.1 L580.3,182.4 L646.8,211.3" fill="none" stroke="#d35400" stroke-width="2.0" stroke-linejoin="round" stroke-dasharray="4,3" opacity="0.85"/>
<circle cx="115.2" cy="282.4" r="5" fill="#d35400" opacity="0.9"><title>GPIO_0 VOL | sftt | Chip: 69627</title></circle>
<circle cx="181.7" cy="314.5" r="5" fill="#d35400" opacity="0.9"><title>GPIO_0 VOL | sftt | Chip: 69627</title></circle>
<circle cx="248.1" cy="339.6" r="5" fill="#d35400" opacity="0.9"><title>GPIO_0 VOL | sftt | Chip: 69627</title></circle>
<circle cx="314.6" cy="249.6" r="5" fill="#d35400" opacity="0.9"><title>GPIO_0 VOL | sftt | Chip: 69627</title></circle>
<circle cx="381.0" cy="282.8" r="5" fill="#d35400" opacity="0.9"><title>GPIO_0 VOL | sftt | Chip: 69627</title></circle>
<circle cx="447.4" cy="309.4" r="5" fill="#d35400" opacity="0.9"><title>GPIO_0 VOL | sftt | Chip: 69627</title></circle>
<circle cx="513.9" cy="144.1" r="5" fill="#d35400" opacity="0.9"><title>GPIO_0 VOL | sftt | Chip: 69627</title></circle>
<circle cx="580.3" cy="182.4" r="5" fill="#d35400" opacity="0.9"><title>GPIO_0 VOL | sftt | Chip: 69627</title></circle>
<circle cx="646.8" cy="211.3" r="5" fill="#d35400" opacity="0.9"><title>GPIO_0 VOL | sftt | Chip: 69627</title></circle>
</g>
<g class="series" data-skew="sftt" data-chip="76687">
<path d="M115.2,295.5 L181.7,326.8 L248.1,350.4 L314.6,263.9 L381.0,295.2 L447.4,321.4" fill="none" stroke="#16a085" stroke-width="2.0" stroke-linejoin="round" stroke-dasharray="10,3,3,3" opacity="0.85"/>
<circle cx="115.2" cy="295.5" r="5" fill="#16a085" opacity="0.9"><title>GPIO_0 VOL | sftt | Chip: 76687</title></circle>
<circle cx="181.7" cy="326.8" r="5" fill="#16a085" opacity="0.9"><title>GPIO_0 VOL | sftt | Chip: 76687</title></circle>
<circle cx="248.1" cy="350.4" r="5" fill="#16a085" opacity="0.9"><title>GPIO_0 VOL | sftt | Chip: 76687</title></circle>
<circle cx="314.6" cy="263.9" r="5" fill="#16a085" opacity="0.9"><title>GPIO_0 VOL | sftt | Chip: 76687</title></circle>
<circle cx="381.0" cy="295.2" r="5" fill="#16a085" opacity="0.9"><title>GPIO_0 VOL | sftt | Chip: 76687</title></circle>
<circle cx="447.4" cy="321.4" r="5" fill="#16a085" opacity="0.9"><title>GPIO_0 VOL | sftt | Chip: 76687</title></circle>
</g>
<g class="series" data-skew="ssff" data-chip="56508">
<path d="M115.2,336.5 L181.7,366.6 L248.1,390.6 L314.6,303.7 L381.0,334.9 L447.4,359.3 L513.9,202.1 L580.3,237.2 L646.8,265.0" fill="none" stroke="#3498db" stroke-width="2.0" stroke-linejoin="round" opacity="0.85"/>
<circle cx="115.2" cy="336.5" r="5" fill="#3498db" opacity="0.9"><title>GPIO_0 VOL | ssff | Chip: 56508</title></circle>
<circle cx="181.7" cy="366.6" r="5" fill="#3498db" opacity="0.9"><title>GPIO_0 VOL | ssff | Chip: 56508</title></circle>
<circle cx="248.1" cy="390.6" r="5" fill="#3498db" opacity="0.9"><title>GPIO_0 VOL | ssff | Chip: 56508</title></circle>
<circle cx="314.6" cy="303.7" r="5" fill="#3498db" opacity="0.9"><title>GPIO_0 VOL | ssff | Chip: 56508</title></circle>
<circle cx="381.0" cy="334.9" r="5" fill="#3498db" opacity="0.9"><title>GPIO_0 VOL | ssff | Chip: 56508</title></circle>
<circle cx="447.4" cy="359.3" r="5" fill="#3498db" opacity="0.9"><title>GPIO_0 VOL | ssff | Chip: 56508</title></circle>
<circle cx="513.9" cy="202.1" r="5" fill="#3498db" opacity="0.9"><title>GPIO_0 VOL | ssff | Chip: 56508</title></circle>
<circle cx="580.3" cy="237.2" r="5" fill="#3498db" opacity="0.9"><title>GPIO_0 VOL | ssff | Chip: 56508</title></circle>
<circle cx="646.8" cy="265.0" r="5" fill="#3498db" opacity="0.9"><title>GPIO_0 VOL | ssff | Chip: 56508</title></circle>
</g>
<g class="series" data-skew="ssff" data-chip="57571">
<path d="M115.2,336.5 L181.7,367.0 L248.1,391.3 L314.6,303.7 L381.0,336.5 L447.4,360.8 L513.9,200.5 L580.3,236.4 L646.8,264.3" fill="none" stroke="#e74c3c" stroke-width="2.0" stroke-linejoin="round" stroke-dasharray="8,3" opacity="0.85"/>
<circle cx="115.2" cy="336.5" r="5" fill="#e74c3c" opacity="0.9"><title>GPIO_0 VOL | ssff | Chip: 57571</title></circle>
<circle cx="181.7" cy="367.0" r="5" fill="#e74c3c" opacity="0.9"><title>GPIO_0 VOL | ssff | Chip: 57571</title></circle>
<circle cx="248.1" cy="391.3" r="5" fill="#e74c3c" opacity="0.9"><title>GPIO_0 VOL | ssff | Chip: 57571</title></circle>
<circle cx="314.6" cy="303.7" r="5" fill="#e74c3c" opacity="0.9"><title>GPIO_0 VOL | ssff | Chip: 57571</title></circle>
<circle cx="381.0" cy="336.5" r="5" fill="#e74c3c" opacity="0.9"><title>GPIO_0 VOL | ssff | Chip: 57571</title></circle>
<circle cx="447.4" cy="360.8" r="5" fill="#e74c3c" opacity="0.9"><title>GPIO_0 VOL | ssff | Chip: 57571</title></circle>
<circle cx="513.9" cy="200.5" r="5" fill="#e74c3c" opacity="0.9"><title>GPIO_0 VOL | ssff | Chip: 57571</title></circle>
<circle cx="580.3" cy="236.4" r="5" fill="#e74c3c" opacity="0.9"><title>GPIO_0 VOL | ssff | Chip: 57571</title></circle>
<circle cx="646.8" cy="264.3" r="5" fill="#e74c3c" opacity="0.9"><title>GPIO_0 VOL | ssff | Chip: 57571</title></circle>
</g>
<g class="series" data-skew="ssff" data-chip="96040">
<path d="M115.2,333.0 L181.7,363.9 L248.1,387.5 L314.6,299.8 L381.0,331.5 L447.4,356.2 L513.9,197.4 L580.3,232.6 L646.8,260.0" fill="none" stroke="#2ecc71" stroke-width="2.0" stroke-linejoin="round" stroke-dasharray="4,3" opacity="0.85"/>
<circle cx="115.2" cy="333.0" r="5" fill="#2ecc71" opacity="0.9"><title>GPIO_0 VOL | ssff | Chip: 96040</title></circle>
<circle cx="181.7" cy="363.9" r="5" fill="#2ecc71" opacity="0.9"><title>GPIO_0 VOL | ssff | Chip: 96040</title></circle>
<circle cx="248.1" cy="387.5" r="5" fill="#2ecc71" opacity="0.9"><title>GPIO_0 VOL | ssff | Chip: 96040</title></circle>
<circle cx="314.6" cy="299.8" r="5" fill="#2ecc71" opacity="0.9"><title>GPIO_0 VOL | ssff | Chip: 96040</title></circle>
<circle cx="381.0" cy="331.5" r="5" fill="#2ecc71" opacity="0.9"><title>GPIO_0 VOL | ssff | Chip: 96040</title></circle>
<circle cx="447.4" cy="356.2" r="5" fill="#2ecc71" opacity="0.9"><title>GPIO_0 VOL | ssff | Chip: 96040</title></circle>
<circle cx="513.9" cy="197.4" r="5" fill="#2ecc71" opacity="0.9"><title>GPIO_0 VOL | ssff | Chip: 96040</title></circle>
<circle cx="580.3" cy="232.6" r="5" fill="#2ecc71" opacity="0.9"><title>GPIO_0 VOL | ssff | Chip: 96040</title></circle>
<circle cx="646.8" cy="260.0" r="5" fill="#2ecc71" opacity="0.9"><title>GPIO_0 VOL | ssff | Chip: 96040</title></circle>
</g>
<g class="series" data-skew="sstt" data-chip="29674">
<path d="M115.2,289.7 L181.7,320.6 L248.1,344.6 L314.6,257.7 L381.0,289.7 L447.4,315.2 L513.9,154.9 L580.3,192.0 L646.8,220.2" fill="none" stroke="#9b59b6" stroke-width="2.0" stroke-linejoin="round" stroke-dasharray="10,3,3,3" opacity="0.85"/>
<circle cx="115.2" cy="289.7" r="5" fill="#9b59b6" opacity="0.9"><title>GPIO_0 VOL | sstt | Chip: 29674</title></circle>
<circle cx="181.7" cy="320.6" r="5" fill="#9b59b6" opacity="0.9"><title>GPIO_0 VOL | sstt | Chip: 29674</title></circle>
<circle cx="248.1" cy="344.6" r="5" fill="#9b59b6" opacity="0.9"><title>GPIO_0 VOL | sstt | Chip: 29674</title></circle>
<circle cx="314.6" cy="257.7" r="5" fill="#9b59b6" opacity="0.9"><title>GPIO_0 VOL | sstt | Chip: 29674</title></circle>
<circle cx="381.0" cy="289.7" r="5" fill="#9b59b6" opacity="0.9"><title>GPIO_0 VOL | sstt | Chip: 29674</title></circle>
<circle cx="447.4" cy="315.2" r="5" fill="#9b59b6" opacity="0.9"><title>GPIO_0 VOL | sstt | Chip: 29674</title></circle>
<circle cx="513.9" cy="154.9" r="5" fill="#9b59b6" opacity="0.9"><title>GPIO_0 VOL | sstt | Chip: 29674</title></circle>
<circle cx="580.3" cy="192.0" r="5" fill="#9b59b6" opacity="0.9"><title>GPIO_0 VOL | sstt | Chip: 29674</title></circle>
<circle cx="646.8" cy="220.2" r="5" fill="#9b59b6" opacity="0.9"><title>GPIO_0 VOL | sstt | Chip: 29674</title></circle>
</g>
<g class="series" data-skew="sstt" data-chip="58046">
<path d="M115.2,300.2 L181.7,332.2 L248.1,356.6 L314.6,268.1 L381.0,301.3 L447.4,326.8 L513.9,164.2 L580.3,201.3 L646.8,230.3" fill="none" stroke="#e67e22" stroke-width="2.0" stroke-linejoin="round" opacity="0.85"/>
<circle cx="115.2" cy="300.2" r="5" fill="#e67e22" opacity="0.9"><title>GPIO_0 VOL | sstt | Chip: 58046</title></circle>
<circle cx="181.7" cy="332.2" r="5" fill="#e67e22" opacity="0.9"><title>GPIO_0 VOL | sstt | Chip: 58046</title></circle>
<circle cx="248.1" cy="356.6" r="5" fill="#e67e22" opacity="0.9"><title>GPIO_0 VOL | sstt | Chip: 58046</title></circle>
<circle cx="314.6" cy="268.1" r="5" fill="#e67e22" opacity="0.9"><title>GPIO_0 VOL | sstt | Chip: 58046</title></circle>
<circle cx="381.0" cy="301.3" r="5" fill="#e67e22" opacity="0.9"><title>GPIO_0 VOL | sstt | Chip: 58046</title></circle>
<circle cx="447.4" cy="326.8" r="5" fill="#e67e22" opacity="0.9"><title>GPIO_0 VOL | sstt | Chip: 58046</title></circle>
<circle cx="513.9" cy="164.2" r="5" fill="#e67e22" opacity="0.9"><title>GPIO_0 VOL | sstt | Chip: 58046</title></circle>
<circle cx="580.3" cy="201.3" r="5" fill="#e67e22" opacity="0.9"><title>GPIO_0 VOL | sstt | Chip: 58046</title></circle>
<circle cx="646.8" cy="230.3" r="5" fill="#e67e22" opacity="0.9"><title>GPIO_0 VOL | sstt | Chip: 58046</title></circle>
</g>
<g class="series" data-skew="sstt" data-chip="9808">
<path d="M115.2,291.7 L181.7,323.0 L248.1,346.9 L314.6,259.6 L381.0,291.7 L447.4,316.8 L513.9,157.3 L580.3,193.6 L646.8,221.8" fill="none" stroke="#1abc9c" stroke-width="2.0" stroke-linejoin="round" stroke-dasharray="8,3" opacity="0.85"/>
<circle cx="115.2" cy="291.7" r="5" fill="#1abc9c" opacity="0.9"><title>GPIO_0 VOL | sstt | Chip: 9808</title></circle>
<circle cx="181.7" cy="323.0" r="5" fill="#1abc9c" opacity="0.9"><title>GPIO_0 VOL | sstt | Chip: 9808</title></circle>
<circle cx="248.1" cy="346.9" r="5" fill="#1abc9c" opacity="0.9"><title>GPIO_0 VOL | sstt | Chip: 9808</title></circle>
<circle cx="314.6" cy="259.6" r="5" fill="#1abc9c" opacity="0.9"><title>GPIO_0 VOL | sstt | Chip: 9808</title></circle>
<circle cx="381.0" cy="291.7" r="5" fill="#1abc9c" opacity="0.9"><title>GPIO_0 VOL | sstt | Chip: 9808</title></circle>
<circle cx="447.4" cy="316.8" r="5" fill="#1abc9c" opacity="0.9"><title>GPIO_0 VOL | sstt | Chip: 9808</title></circle>
<circle cx="513.9" cy="157.3" r="5" fill="#1abc9c" opacity="0.9"><title>GPIO_0 VOL | sstt | Chip: 9808</title></circle>
<circle cx="580.3" cy="193.6" r="5" fill="#1abc9c" opacity="0.9"><title>GPIO_0 VOL | sstt | Chip: 9808</title></circle>
<circle cx="646.8" cy="221.8" r="5" fill="#1abc9c" opacity="0.9"><title>GPIO_0 VOL | sstt | Chip: 9808</title></circle>
</g>
<line x1="82.0" y1="131.0" x2="680.0" y2="131.0" stroke="#e74c3c" stroke-width="1.8" stroke-dasharray="4,4"/>
<text x="685.0" y="135.0" font-size="9" font-weight="normal" text-anchor="start" fill="#e74c3c" font-family="Arial,sans-serif">Max spec: 0.45</text>
<g class="legend-item" data-skew="ffss" data-chip="25679">
<line x1="688" y1="77" x2="716" y2="77" stroke="#3498db" stroke-width="2.0" />
<circle cx="702" cy="77" r="5" fill="#3498db"/>
<text x="720" y="81" font-size="10" font-family="Arial,sans-serif" fill="#2c3e50">25679 | ffss</text>
</g>
<g class="legend-item" data-skew="ffss" data-chip="43407">
<line x1="688" y1="99" x2="716" y2="99" stroke="#e74c3c" stroke-width="2.0" stroke-dasharray="8,3" />
<circle cx="702" cy="99" r="5" fill="#e74c3c"/>
<text x="720" y="103" font-size="10" font-family="Arial,sans-serif" fill="#2c3e50">43407 | ffss</text>
</g>
<g class="legend-item" data-skew="ffss" data-chip="79093">
<line x1="688" y1="121" x2="716" y2="121" stroke="#2ecc71" stroke-width="2.0" stroke-dasharray="4,3" />
<circle cx="702" cy="121" r="5" fill="#2ecc71"/>
<text x="720" y="125" font-size="10" font-family="Arial,sans-serif" fill="#2c3e50">79093 | ffss</text>
</g>
<g class="legend-item" data-skew="fftt" data-chip="13967">
<line x1="688" y1="143" x2="716" y2="143" stroke="#9b59b6" stroke-width="2.0" stroke-dasharray="10,3,3,3" />
<circle cx="702" cy="143" r="5" fill="#9b59b6"/>
<text x="720" y="147" font-size="10" font-family="Arial,sans-serif" fill="#2c3e50">13967 | fftt</text>
</g>
<g class="legend-item" data-skew="fftt" data-chip="15382">
<line x1="688" y1="165" x2="716" y2="165" stroke="#e67e22" stroke-width="2.0" />
<circle cx="702" cy="165" r="5" fill="#e67e22"/>
<text x="720" y="169" font-size="10" font-family="Arial,sans-serif" fill="#2c3e50">15382 | fftt</text>
</g>
<g class="legend-item" data-skew="fftt" data-chip="78814">
<line x1="688" y1="187" x2="716" y2="187" stroke="#1abc9c" stroke-width="2.0" stroke-dasharray="8,3" />
<circle cx="702" cy="187" r="5" fill="#1abc9c"/>
<text x="720" y="191" font-size="10" font-family="Arial,sans-serif" fill="#2c3e50">78814 | fftt</text>
</g>
<g class="legend-item" data-skew="fstt" data-chip="12566">
<line x1="688" y1="209" x2="716" y2="209" stroke="#c0392b" stroke-width="2.0" stroke-dasharray="4,3" />
<circle cx="702" cy="209" r="5" fill="#c0392b"/>
<text x="720" y="213" font-size="10" font-family="Arial,sans-serif" fill="#2c3e50">12566 | fstt</text>
</g>
<g class="legend-item" data-skew="fstt" data-chip="13316">
<line x1="688" y1="231" x2="716" y2="231" stroke="#2980b9" stroke-width="2.0" stroke-dasharray="10,3,3,3" />
<circle cx="702" cy="231" r="5" fill="#2980b9"/>
<text x="720" y="235" font-size="10" font-family="Arial,sans-serif" fill="#2c3e50">13316 | fstt</text>
</g>
<g class="legend-item" data-skew="fstt" data-chip="62919">
<line x1="688" y1="253" x2="716" y2="253" stroke="#27ae60" stroke-width="2.0" />
<circle cx="702" cy="253" r="5" fill="#27ae60"/>
<text x="720" y="257" font-size="10" font-family="Arial,sans-serif" fill="#2c3e50">62919 | fstt</text>
</g>
<g class="legend-item" data-skew="sftt" data-chip="44565">
<line x1="688" y1="275" x2="716" y2="275" stroke="#8e44ad" stroke-width="2.0" stroke-dasharray="8,3" />
<circle cx="702" cy="275" r="5" fill="#8e44ad"/>
<text x="720" y="279" font-size="10" font-family="Arial,sans-serif" fill="#2c3e50">44565 | sftt</text>
</g>
<g class="legend-item" data-skew="sftt" data-chip="69627">
<line x1="688" y1="297" x2="716" y2="297" stroke="#d35400" stroke-width="2.0" stroke-dasharray="4,3" />
<circle cx="702" cy="297" r="5" fill="#d35400"/>
<text x="720" y="301" font-size="10" font-family="Arial,sans-serif" fill="#2c3e50">69627 | sftt</text>
</g>
<g class="legend-item" data-skew="sftt" data-chip="76687">
<line x1="688" y1="319" x2="716" y2="319" stroke="#16a085" stroke-width="2.0" stroke-dasharray="10,3,3,3" />
<circle cx="702" cy="319" r="5" fill="#16a085"/>
<text x="720" y="323" font-size="10" font-family="Arial,sans-serif" fill="#2c3e50">76687 | sftt</text>
</g>
<g class="legend-item" data-skew="ssff" data-chip="56508">
<line x1="688" y1="341" x2="716" y2="341" stroke="#3498db" stroke-width="2.0" />
<circle cx="702" cy="341" r="5" fill="#3498db"/>
<text x="720" y="345" font-size="10" font-family="Arial,sans-serif" fill="#2c3e50">56508 | ssff</text>
</g>
<g class="legend-item" data-skew="ssff" data-chip="57571">
<line x1="688" y1="363" x2="716" y2="363" stroke="#e74c3c" stroke-width="2.0" stroke-dasharray="8,3" />
<circle cx="702" cy="363" r="5" fill="#e74c3c"/>
<text x="720" y="367" font-size="10" font-family="Arial,sans-serif" fill="#2c3e50">57571 | ssff</text>
</g>
<g class="legend-item" data-skew="ssff" data-chip="96040">
<line x1="688" y1="385" x2="716" y2="385" stroke="#2ecc71" stroke-width="2.0" stroke-dasharray="4,3" />
<circle cx="702" cy="385" r="5" fill="#2ecc71"/>
<text x="720" y="389" font-size="10" font-family="Arial,sans-serif" fill="#2c3e50">96040 | ssff</text>
</g>
<g class="legend-item" data-skew="sstt" data-chip="29674">
<line x1="688" y1="407" x2="716" y2="407" stroke="#9b59b6" stroke-width="2.0" stroke-dasharray="10,3,3,3" />
<circle cx="702" cy="407" r="5" fill="#9b59b6"/>
<text x="720" y="411" font-size="10" font-family="Arial,sans-serif" fill="#2c3e50">29674 | sstt</text>
</g>
<g class="legend-item" data-skew="sstt" data-chip="58046">
<line x1="688" y1="429" x2="716" y2="429" stroke="#e67e22" stroke-width="2.0" />
<circle cx="702" cy="429" r="5" fill="#e67e22"/>
<text x="720" y="433" font-size="10" font-family="Arial,sans-serif" fill="#2c3e50">58046 | sstt</text>
</g>
<g class="legend-item" data-skew="sstt" data-chip="9808">
<line x1="688" y1="451" x2="716" y2="451" stroke="#1abc9c" stroke-width="2.0" stroke-dasharray="8,3" />
<circle cx="702" cy="451" r="5" fill="#1abc9c"/>
<text x="720" y="455" font-size="10" font-family="Arial,sans-serif" fill="#2c3e50">9808 | sstt</text>
</g>
</svg>