<svg xmlns="http://www.w3.org/2000/svg" width="1400" height="560" viewBox="0 0 1400 560">
<rect width="1400" height="560" fill="#ffffff"/>
<text x="700.0" y="28.0" font-size="16" font-weight="bold" text-anchor="middle" fill="#2c3e50" font-family="Arial,sans-serif">GPIO_0  [PB16DSFS_18_18_H] — R_PullUp (kOhm)  [Pull-up/Pull-down Resistance]</text>
<line x1="82.0" y1="460.0" x2="1140.0" y2="460.0" stroke="#999" stroke-width="1"/>
<line x1="82.0" y1="72.0" x2="82.0" y2="460.0" stroke="#999" stroke-width="1"/>
<line x1="82.0" y1="72.0" x2="82.0" y2="460.0" stroke="#999" stroke-width="1"/>
<line x1="77.0" y1="460.0" x2="82.0" y2="460.0" stroke="#999" stroke-width="1"/>
<line x1="82.0" y1="460.0" x2="1140.0" y2="460.0" stroke="#e0e0e0" stroke-width="0.8" stroke-dasharray="3,3"/>
<text x="74.0" y="464.0" font-size="9" font-weight="normal" text-anchor="end" fill="#7f8c8d" font-family="Arial,sans-serif">10.7</text>
<line x1="77.0" y1="382.4" x2="82.0" y2="382.4" stroke="#999" stroke-width="1"/>
<line x1="82.0" y1="382.4" x2="1140.0" y2="382.4" stroke="#e0e0e0" stroke-width="0.8" stroke-dasharray="3,3"/>
<text x="74.0" y="386.4" font-size="9" font-weight="normal" text-anchor="end" fill="#7f8c8d" font-family="Arial,sans-serif">24.9</text>
<line x1="77.0" y1="304.8" x2="82.0" y2="304.8" stroke="#999" stroke-width="1"/>
<line x1="82.0" y1="304.8" x2="1140.0" y2="304.8" stroke="#e0e0e0" stroke-width="0.8" stroke-dasharray="3,3"/>
<text x="74.0" y="308.8" font-size="9" font-weight="normal" text-anchor="end" fill="#7f8c8d" font-family="Arial,sans-serif">39.2</text>
<line x1="77.0" y1="227.2" x2="82.0" y2="227.2" stroke="#999" stroke-width="1"/>
<line x1="82.0" y1="227.2" x2="1140.0" y2="227.2" stroke="#e0e0e0" stroke-width="0.8" stroke-dasharray="3,3"/>
<text x="74.0" y="231.2" font-size="9" font-weight="normal" text-anchor="end" fill="#7f8c8d" font-family="Arial,sans-serif">53.4</text>
<line x1="77.0" y1="149.6" x2="82.0" y2="149.6" stroke="#999" stroke-width="1"/>
<line x1="82.0" y1="149.6" x2="1140.0" y2="149.6" stroke="#e0e0e0" stroke-width="0.8" stroke-dasharray="3,3"/>
<text x="74.0" y="153.6" font-size="9" font-weight="normal" text-anchor="end" fill="#7f8c8d" font-family="Arial,sans-serif">67.6</text>
<line x1="77.0" y1="72.0" x2="82.0" y2="72.0" stroke="#999" stroke-width="1"/>
<line x1="82.0" y1="72.0" x2="1140.0" y2="72.0" stroke="#e0e0e0" stroke-width="0.8" stroke-dasharray="3,3"/>
<text x="74.0" y="76.0" font-size="9" font-weight="normal" text-anchor="end" fill="#7f8c8d" font-family="Arial,sans-serif">81.9</text>
<text x="14.0" y="266.0" font-size="10" font-weight="normal" text-anchor="middle" fill="#7f8c8d" font-family="Arial,sans-serif" transform="rotate(-90,14,266.0)">R_PullUp (kOhm)</text>
<text x="140.8" y="474.0" font-size="8" font-weight="normal" text-anchor="end" fill="#333" font-family="Arial,sans-serif" transform="rotate(-45,140.8,474)">VIO=1.62
VC=0.64</text>
<text x="258.3" y="474.0" font-size="8" font-weight="normal" text-anchor="end" fill="#333" font-family="Arial,sans-serif" transform="rotate(-45,258.3,474)">VIO=1.8
VC=0.8</text>
<text x="375.9" y="474.0" font-size="8" font-weight="normal" text-anchor="end" fill="#333" font-family="Arial,sans-serif" transform="rotate(-45,375.9,474)">VIO=1.98
VC=0.96</text>
<line x1="434.7" y1="72.0" x2="434.7" y2="460.0" stroke="#cccccc" stroke-width="1" stroke-dasharray="4,3"/>
<text x="493.4" y="474.0" font-size="8" font-weight="normal" text-anchor="end" fill="#333" font-family="Arial,sans-serif" transform="rotate(-45,493.4,474)">VIO=1.62
VC=0.64</text>
<text x="611.0" y="474.0" font-size="8" font-weight="normal" text-anchor="end" fill="#333" font-family="Arial,sans-serif" transform="rotate(-45,611.0,474)">VIO=1.8
VC=0.8</text>
<text x="728.6" y="474.0" font-size="8" font-weight="normal" text-anchor="end" fill="#333" font-family="Arial,sans-serif" transform="rotate(-45,728.6,474)">VIO=1.98
VC=0.96</text>
<line x1="787.3" y1="72.0" x2="787.3" y2="460.0" stroke="#cccccc" stroke-width="1" stroke-dasharray="4,3"/>
<text x="846.1" y="474.0" font-size="8" font-weight="normal" text-anchor="end" fill="#333" font-family="Arial,sans-serif" transform="rotate(-45,846.1,474)">VIO=1.62
VC=0.64</text>
<text x="963.7" y="474.0" font-size="8" font-weight="normal" text-anchor="end" fill="#333" font-family="Arial,sans-serif" transform="rotate(-45,963.7,474)">VIO=1.8
VC=0.8</text>
<text x="1081.2" y="474.0" font-size="8" font-weight="normal" text-anchor="end" fill="#333" font-family="Arial,sans-serif" transform="rotate(-45,1081.2,474)">VIO=1.98
VC=0.96</text>
<text x="258.3" y="62.0" font-size="10" font-weight="bold" text-anchor="middle" fill="#2c3e50" font-family="Arial,sans-serif">T=0°C</text>
<text x="611.0" y="62.0" font-size="10" font-weight="bold" text-anchor="middle" fill="#2c3e50" font-family="Arial,sans-serif">T=20°C</text>
<text x="963.7" y="62.0" font-size="10" font-weight="bold" text-anchor="middle" fill="#2c3e50" font-family="Arial,sans-serif">T=80°C</text>
<g class="series" data-skew="ffss" data-chip="25679">
<path d="M140.8,314.5 L258.3,314.9 L375.9,317.8 L493.4,315.1 L611.0,315.6 L728.6,323.1 L846.1,320.7 L963.7,321.7 L1081.2,387.4" fill="none" stroke="#3498db" stroke-width="2.0" stroke-linejoin="round" opacity="0.85"/>
<circle cx="140.8" cy="314.5" r="5" fill="#3498db" opacity="0.9"><title>GPIO_0 R_PullUp | ffss | Chip: 25679</title></circle>
<circle cx="258.3" cy="314.9" r="5" fill="#3498db" opacity="0.9"><title>GPIO_0 R_PullUp | ffss | Chip: 25679</title></circle>
<circle cx="375.9" cy="317.8" r="5" fill="#3498db" opacity="0.9"><title>GPIO_0 R_PullUp | ffss | Chip: 25679</title></circle>
<circle cx="493.4" cy="315.1" r="5" fill="#3498db" opacity="0.9"><title>GPIO_0 R_PullUp | ffss | Chip: 25679</title></circle>
<circle cx="611.0" cy="315.6" r="5" fill="#3498db" opacity="0.9"><title>GPIO_0 R_PullUp | ffss | Chip: 25679</title></circle>
<circle cx="728.6" cy="323.1" r="5" fill="#3498db" opacity="0.9"><title>GPIO_0 R_PullUp | ffss | Chip: 25679</title></circle>
<circle cx="846.1" cy="320.7" r="5" fill="#3498db" opacity="0.9"><title>GPIO_0 R_PullUp | ffss | Chip: 25679</title></circle>
<circle cx="963.7" cy="321.7" r="5" fill="#3498db" opacity="0.9"><title>GPIO_0 R_PullUp | ffss | Chip: 25679</title></circle>
<circle cx="1081.2" cy="387.4" r="5" fill="#3498db" opacity="0.9"><title>GPIO_0 R_PullUp | ffss | Chip: 25679</title></circle>
</g>
<g class="series" data-skew="ffss" data-chip="43407">
<path d="M140.8,313.0 L258.3,315.2 L375.9,316.0 L493.4,313.3 L611.0,313.6 L728.6,322.0 L846.1,319.0 L963.7,320.2 L1081.2,389.6" fill="none" stroke="#e74c3c" stroke-width="2.0" stroke-linejoin="round" stroke-dasharray="8,3" opacity="0.85"/>
<circle cx="140.8" cy="313.0" r="5" fill="#e74c3c" opacity="0.9"><title>GPIO_0 R_PullUp | ffss | Chip: 43407</title></circle>
<circle cx="258.3" cy="315.2" r="5" fill="#e74c3c" opacity="0.9"><title>GPIO_0 R_PullUp | ffss | Chip: 43407</title></circle>
<circle cx="375.9" cy="316.0" r="5" fill="#e74c3c" opacity="0.9"><title>GPIO_0 R_PullUp | ffss | Chip: 43407</title></circle>
<circle cx="493.4" cy="313.3" r="5" fill="#e74c3c" opacity="0.9"><title>GPIO_0 R_PullUp | ffss | Chip: 43407</title></circle>
<circle cx="611.0" cy="313.6" r="5" fill="#e74c3c" opacity="0.9"><title>GPIO_0 R_PullUp | ffss | Chip: 43407</title></circle>
<circle cx="728.6" cy="322.0" r="5" fill="#e74c3c" opacity="0.9"><title>GPIO_0 R_PullUp | ffss | Chip: 43407</title></circle>
<circle cx="846.1" cy="319.0" r="5" fill="#e74c3c" opacity="0.9"><title>GPIO_0 R_PullUp | ffss | Chip: 43407</title></circle>
<circle cx="963.7" cy="320.2" r="5" fill="#e74c3c" opacity="0.9"><title>GPIO_0 R_PullUp | ffss | Chip: 43407</title></circle>
<circle cx="1081.2" cy="389.6" r="5" fill="#e74c3c" opacity="0.9"><title>GPIO_0 R_PullUp | ffss | Chip: 43407</title></circle>
</g>
<g class="series" data-skew="ffss" data-chip="79093">
<path d="M140.8,309.8 L258.3,310.1 L375.9,313.6 L493.4,310.6 L611.0,310.9 L728.6,319.5 L846.1,316.8 L963.7,318.0 L1081.2,391.0" fill="none" stroke="#2ecc71" stroke-width="2.0" stroke-linejoin="round" stroke-dasharray="4,3" opacity="0.85"/>
<circle cx="140.8" cy="309.8" r="5" fill="#2ecc71" opacity="0.9"><title>GPIO_0 R_PullUp | ffss | Chip: 79093</title></circle>
<circle cx="258.3" cy="310.1" r="5" fill="#2ecc71" opacity="0.9"><title>GPIO_0 R_PullUp | ffss | Chip: 79093</title></circle>
<circle cx="375.9" cy="313.6" r="5" fill="#2ecc71" opacity="0.9"><title>GPIO_0 R_PullUp | ffss | Chip: 79093</title></circle>
<circle cx="493.4" cy="310.6" r="5" fill="#2ecc71" opacity="0.9"><title>GPIO_0 R_PullUp | ffss | Chip: 79093</title></circle>
<circle cx="611.0" cy="310.9" r="5" fill="#2ecc71" opacity="0.9"><title>GPIO_0 R_PullUp | ffss | Chip: 79093</title></circle>
<circle cx="728.6" cy="319.5" r="5" fill="#2ecc71" opacity="0.9"><title>GPIO_0 R_PullUp | ffss | Chip: 79093</title></circle>
<circle cx="846.1" cy="316.8" r="5" fill="#2ecc71" opacity="0.9"><title>GPIO_0 R_PullUp | ffss | Chip: 79093</title></circle>
<circle cx="963.7" cy="318.0" r="5" fill="#2ecc71" opacity="0.9"><title>GPIO_0 R_PullUp | ffss | Chip: 79093</title></circle>
<circle cx="1081.2" cy="391.0" r="5" fill="#2ecc71" opacity="0.9"><title>GPIO_0 R_PullUp | ffss | Chip: 79093</title></circle>
</g>
<g class="series" data-skew="fftt" data-chip="13967">
<path d="M140.8,318.5 L258.3,319.1 L375.9,322.0 L493.4,319.3 L611.0,319.8 L728.6,327.5 L846.1,334.8 L963.7,336.0 L1081.2,394.1" fill="none" stroke="#9b59b6" stroke-width="2.0" stroke-linejoin="round" stroke-dasharray="10,3,3,3" opacity="0.85"/>
<circle cx="140.8" cy="318.5" r="5" fill="#9b59b6" opacity="0.9"><title>GPIO_0 R_PullUp | fftt | Chip: 13967</title></circle>
<circle cx="258.3" cy="319.1" r="5" fill="#9b59b6" opacity="0.9"><title>GPIO_0 R_PullUp | fftt | Chip: 13967</title></circle>
<circle cx="375.9" cy="322.0" r="5" fill="#9b59b6" opacity="0.9"><title>GPIO_0 R_PullUp | fftt | Chip: 13967</title></circle>
<circle cx="493.4" cy="319.3" r="5" fill="#9b59b6" opacity="0.9"><title>GPIO_0 R_PullUp | fftt | Chip: 13967</title></circle>
<circle cx="611.0" cy="319.8" r="5" fill="#9b59b6" opacity="0.9"><title>GPIO_0 R_PullUp | fftt | Chip: 13967</title></circle>
<circle cx="728.6" cy="327.5" r="5" fill="#9b59b6" opacity="0.9"><title>GPIO_0 R_PullUp | fftt | Chip: 13967</title></circle>
<circle cx="846.1" cy="334.8" r="5" fill="#9b59b6" opacity="0.9"><title>GPIO_0 R_PullUp | fftt | Chip: 13967</title></circle>
<circle cx="963.7" cy="336.0" r="5" fill="#9b59b6" opacity="0.9"><title>GPIO_0 R_PullUp | fftt | Chip: 13967</title></circle>
<circle cx="1081.2" cy="394.1" r="5" fill="#9b59b6" opacity="0.9"><title>GPIO_0 R_PullUp | fftt | Chip: 13967</title></circle>
</g>
<g class="series" data-skew="fftt" data-chip="15382">
<path d="M140.8,318.8 L258.3,319.3 L375.9,322.5 L493.4,324.0 L611.0,320.6 L728.6,327.8 L846.1,332.3 L963.7,333.6 L1081.2,391.0" fill="none" stroke="#e67e22" stroke-width="2.0" stroke-linejoin="round" opacity="0.85"/>
<circle cx="140.8" cy="318.8" r="5" fill="#e67e22" opacity="0.9"><title>GPIO_0 R_PullUp | fftt | Chip: 15382</title></circle>
<circle cx="258.3" cy="319.3" r="5" fill="#e67e22" opacity="0.9"><title>GPIO_0 R_PullUp | fftt | Chip: 15382</title></circle>
<circle cx="375.9" cy="322.5" r="5" fill="#e67e22" opacity="0.9"><title>GPIO_0 R_PullUp | fftt | Chip: 15382</title></circle>
<circle cx="493.4" cy="324.0" r="5" fill="#e67e22" opacity="0.9"><title>GPIO_0 R_PullUp | fftt | Chip: 15382</title></circle>
<circle cx="611.0" cy="320.6" r="5" fill="#e67e22" opacity="0.9"><title>GPIO_0 R_PullUp | fftt | Chip: 15382</title></circle>
<circle cx="728.6" cy="327.8" r="5" fill="#e67e22" opacity="0.9"><title>GPIO_0 R_PullUp | fftt | Chip: 15382</title></circle>
<circle cx="846.1" cy="332.3" r="5" fill="#e67e22" opacity="0.9"><title>GPIO_0 R_PullUp | fftt | Chip: 15382</title></circle>
<circle cx="963.7" cy="333.6" r="5" fill="#e67e22" opacity="0.9"><title>GPIO_0 R_PullUp | fftt | Chip: 15382</title></circle>
<circle cx="1081.2" cy="391.0" r="5" fill="#e67e22" opacity="0.9"><title>GPIO_0 R_PullUp | fftt | Chip: 15382</title></circle>
</g>
<g class="series" data-skew="fftt" data-chip="78814">
<path d="M140.8,323.6 L258.3,324.0 L375.9,326.1 L493.4,324.1 L611.0,324.7 L728.6,330.5 L846.1,330.2 L963.7,331.1 L1081.2,383.3" fill="none" stroke="#1abc9c" stroke-width="2.0" stroke-linejoin="round" stroke-dasharray="8,3" opacity="0.85"/>
<circle cx="140.8" cy="323.6" r="5" fill="#1abc9c" opacity="0.9"><title>GPIO_0 R_PullUp | fftt | Chip: 78814</title></circle>
<circle cx="258.3" cy="324.0" r="5" fill="#1abc9c" opacity="0.9"><title>GPIO_0 R_PullUp | fftt | Chip: 78814</title></circle>
<circle cx="375.9" cy="326.1" r="5" fill="#1abc9c" opacity="0.9"><title>GPIO_0 R_PullUp | fftt | Chip: 78814</title></circle>
<circle cx="493.4" cy="324.1" r="5" fill="#1abc9c" opacity="0.9"><title>GPIO_0 R_PullUp | fftt | Chip: 78814</title></circle>
<circle cx="611.0" cy="324.7" r="5" fill="#1abc9c" opacity="0.9"><title>GPIO_0 R_PullUp | fftt | Chip: 78814</title></circle>
<circle cx="728.6" cy="330.5" r="5" fill="#1abc9c" opacity="0.9"><title>GPIO_0 R_PullUp | fftt | Chip: 78814</title></circle>
<circle cx="846.1" cy="330.2" r="5" fill="#1abc9c" opacity="0.9"><title>GPIO_0 R_PullUp | fftt | Chip: 78814</title></circle>
<circle cx="963.7" cy="331.1" r="5" fill="#1abc9c" opacity="0.9"><title>GPIO_0 R_PullUp | fftt | Chip: 78814</title></circle>
<circle cx="1081.2" cy="383.3" r="5" fill="#1abc9c" opacity="0.9"><title>GPIO_0 R_PullUp | fftt | Chip: 78814</title></circle>
</g>
<g class="series" data-skew="fstt" data-chip="12566">
<path d="M140.8,321.3 L258.3,321.6 L375.9,324.4 L493.4,321.7 L611.0,322.1 L728.6,330.0 L846.1,323.1 L963.7,324.4 L1081.2,395.3" fill="none" stroke="#c0392b" stroke-width="2.0" stroke-linejoin="round" stroke-dasharray="4,3" opacity="0.85"/>
<circle cx="140.8" cy="321.3" r="5" fill="#c0392b" opacity="0.9"><title>GPIO_0 R_PullUp | fstt | Chip: 12566</title></circle>
<circle cx="258.3" cy="321.6" r="5" fill="#c0392b" opacity="0.9"><title>GPIO_0 R_PullUp | fstt | Chip: 12566</title></circle>
<circle cx="375.9" cy="324.4" r="5" fill="#c0392b" opacity="0.9"><title>GPIO_0 R_PullUp | fstt | Chip: 12566</title></circle>
<circle cx="493.4" cy="321.7" r="5" fill="#c0392b" opacity="0.9"><title>GPIO_0 R_PullUp | fstt | Chip: 12566</title></circle>
<circle cx="611.0" cy="322.1" r="5" fill="#c0392b" opacity="0.9"><title>GPIO_0 R_PullUp | fstt | Chip: 12566</title></circle>
<circle cx="728.6" cy="330.0" r="5" fill="#c0392b" opacity="0.9"><title>GPIO_0 R_PullUp | fstt | Chip: 12566</title></circle>
<circle cx="846.1" cy="323.1" r="5" fill="#c0392b" opacity="0.9"><title>GPIO_0 R_PullUp | fstt | Chip: 12566</title></circle>
<circle cx="963.7" cy="324.4" r="5" fill="#c0392b" opacity="0.9"><title>GPIO_0 R_PullUp | fstt | Chip: 12566</title></circle>
<circle cx="1081.2" cy="395.3" r="5" fill="#c0392b" opacity="0.9"><title>GPIO_0 R_PullUp | fstt | Chip: 12566</title></circle>
</g>
<g class="series" data-skew="fstt" data-chip="13316">
<path d="M140.8,321.8 L258.3,322.1 L375.9,324.3 L493.4,322.2 L611.0,322.7 L728.6,328.6 L846.1,323.5 L963.7,324.9 L1081.2,385.0" fill="none" stroke="#2980b9" stroke-width="2.0" stroke-linejoin="round" stroke-dasharray="10,3,3,3" opacity="0.85"/>
<circle cx="140.8" cy="321.8" r="5" fill="#2980b9" opacity="0.9"><title>GPIO_0 R_PullUp | fstt | Chip: 13316</title></circle>
<circle cx="258.3" cy="322.1" r="5" fill="#2980b9" opacity="0.9"><title>GPIO_0 R_PullUp | fstt | Chip: 13316</title></circle>
<circle cx="375.9" cy="324.3" r="5" fill="#2980b9" opacity="0.9"><title>GPIO_0 R_PullUp | fstt | Chip: 13316</title></circle>
<circle cx="493.4" cy="322.2" r="5" fill="#2980b9" opacity="0.9"><title>GPIO_0 R_PullUp | fstt | Chip: 13316</title></circle>
<circle cx="611.0" cy="322.7" r="5" fill="#2980b9" opacity="0.9"><title>GPIO_0 R_PullUp | fstt | Chip: 13316</title></circle>
<circle cx="728.6" cy="328.6" r="5" fill="#2980b9" opacity="0.9"><title>GPIO_0 R_PullUp | fstt | Chip: 13316</title></circle>
<circle cx="846.1" cy="323.5" r="5" fill="#2980b9" opacity="0.9"><title>GPIO_0 R_PullUp | fstt | Chip: 13316</title></circle>
<circle cx="963.7" cy="324.9" r="5" fill="#2980b9" opacity="0.9"><title>GPIO_0 R_PullUp | fstt | Chip: 13316</title></circle>
<circle cx="1081.2" cy="385.0" r="5" fill="#2980b9" opacity="0.9"><title>GPIO_0 R_PullUp | fstt | Chip: 13316</title></circle>
</g>
<g class="series" data-skew="fstt" data-chip="62919">
<path d="M140.8,320.7 L258.3,321.0 L375.9,323.3 L493.4,321.2 L611.0,321.5 L728.6,327.9 L846.1,322.5 L963.7,323.8 L1081.2,386.2" fill="none" stroke="#27ae60" stroke-width="2.0" stroke-linejoin="round" opacity="0.85"/>
<circle cx="140.8" cy="320.7" r="5" fill="#27ae60" opacity="0.9"><title>GPIO_0 R_PullUp | fstt | Chip: 62919</title></circle>
<circle cx="258.3" cy="321.0" r="5" fill="#27ae60" opacity="0.9"><title>GPIO_0 R_PullUp | fstt | Chip: 62919</title></circle>
<circle cx="375.9" cy="323.3" r="5" fill="#27ae60" opacity="0.9"><title>GPIO_0 R_PullUp | fstt | Chip: 62919</title></circle>
<circle cx="493.4" cy="321.2" r="5" fill="#27ae60" opacity="0.9"><title>GPIO_0 R_PullUp | fstt | Chip: 62919</title></circle>
<circle cx="611.0" cy="321.5" r="5" fill="#27ae60" opacity="0.9"><title>GPIO_0 R_PullUp | fstt | Chip: 62919</title></circle>
<circle cx="728.6" cy="327.9" r="5" fill="#27ae60" opacity="0.9"><title>GPIO_0 R_PullUp | fstt | Chip: 62919</title></circle>
<circle cx="846.1" cy="322.5" r="5" fill="#27ae60" opacity="0.9"><title>GPIO_0 R_PullUp | fstt | Chip: 62919</title></circle>
<circle cx="963.7" cy="323.8" r="5" fill="#27ae60" opacity="0.9"><title>GPIO_0 R_PullUp | fstt | Chip: 62919</title></circle>
<circle cx="1081.2" cy="386.2" r="5" fill="#27ae60" opacity="0.9"><title>GPIO_0 R_PullUp | fstt | Chip: 62919</title></circle>
</g>
<g class="series" data-skew="sftt" data-chip="44565">
<path d="M140.8,320.4 L258.3,320.9 L375.9,324.9 L493.4,321.0 L611.0,321.6 L728.6,331.9 L846.1,326.4 L963.7,327.8 L1081.2,401.2" fill="none" stroke="#8e44ad" stroke-width="2.0" stroke-linejoin="round" stroke-dasharray="8,3" opacity="0.85"/>
<circle cx="140.8" cy="320.4" r="5" fill="#8e44ad" opacity="0.9"><title>GPIO_0 R_PullUp | sftt | Chip: 44565</title></circle>
<circle cx="258.3" cy="320.9" r="5" fill="#8e44ad" opacity="0.9"><title>GPIO_0 R_PullUp | sftt | Chip: 44565</title></circle>
<circle cx="375.9" cy="324.9" r="5" fill="#8e44ad" opacity="0.9"><title>GPIO_0 R_PullUp | sftt | Chip: 44565</title></circle>
<circle cx="493.4" cy="321.0" r="5" fill="#8e44ad" opacity="0.9"><title>GPIO_0 R_PullUp | sftt | Chip: 44565</title></circle>
<circle cx="611.0" cy="321.6" r="5" fill="#8e44ad" opacity="0.9"><title>GPIO_0 R_PullUp | sftt | Chip: 44565</title></circle>
<circle cx="728.6" cy="331.9" r="5" fill="#8e44ad" opacity="0.9"><title>GPIO_0 R_PullUp | sftt | Chip: 44565</title></circle>
<circle cx="846.1" cy="326.4" r="5" fill="#8e44ad" opacity="0.9"><title>GPIO_0 R_PullUp | sftt | Chip: 44565</title></circle>
<circle cx="963.7" cy="327.8" r="5" fill="#8e44ad" opacity="0.9"><title>GPIO_0 R_PullUp | sftt | Chip: 44565</title></circle>
<circle cx="1081.2" cy="401.2" r="5" fill="#8e44ad" opacity="0.9"><title>GPIO_0 R_PullUp | sftt | Chip: 44565</title></circle>
</g>
<g class="series" data-skew="sftt" data-chip="69627">
<path d="M140.8,320.6 L258.3,321.1 L375.9,324.9 L493.4,321.2 L611.0,321.9 L728.6,331.0 L846.1,326.1 L963.7,327.4 L1081.2,396.4" fill="none" stroke="#d35400" stroke-width="2.0" stroke-linejoin="round" stroke-dasharray="4,3" opacity="0.85"/>
<circle cx="140.8" cy="320.6" r="5" fill="#d35400" opacity="0.9"><title>GPIO_0 R_PullUp | sftt | Chip: 69627</title></circle>
<circle cx="258.3" cy="321.1" r="5" fill="#d35400" opacity="0.9"><title>GPIO_0 R_PullUp | sftt | Chip: 69627</title></circle>
<circle cx="375.9" cy="324.9" r="5" fill="#d35400" opacity="0.9"><title>GPIO_0 R_PullUp | sftt | Chip: 69627</title></circle>
<circle cx="493.4" cy="321.2" r="5" fill="#d35400" opacity="0.9"><title>GPIO_0 R_PullUp | sftt | Chip: 69627</title></circle>
<circle cx="611.0" cy="321.9" r="5" fill="#d35400" opacity="0.9"><title>GPIO_0 R_PullUp | sftt | Chip: 69627</title></circle>
<circle cx="728.6" cy="331.0" r="5" fill="#d35400" opacity="0.9"><title>GPIO_0 R_PullUp | sftt | Chip: 69627</title></circle>
<circle cx="846.1" cy="326.1" r="5" fill="#d35400" opacity="0.9"><title>GPIO_0 R_PullUp | sftt | Chip: 69627</title></circle>
<circle cx="963.7" cy="327.4" r="5" fill="#d35400" opacity="0.9"><title>GPIO_0 R_PullUp | sftt | Chip: 69627</title></circle>
<circle cx="1081.2" cy="396.4" r="5" fill="#d35400" opacity="0.9"><title>GPIO_0 R_PullUp | sftt | Chip: 69627</title></circle>
</g>
<g class="series" data-skew="sftt" data-chip="76687">
<path d="M140.8,322.9 L258.3,323.5 L375.9,327.3 L493.4,323.5 L611.0,324.1 L728.6,333.6" fill="none" stroke="#16a085" stroke-width="2.0" stroke-linejoin="round" stroke-dasharray="10,3,3,3" opacity="0.85"/>
<circle cx="140.8" cy="322.9" r="5" fill="#16a085" opacity="0.9"><title>GPIO_0 R_PullUp | sftt | Chip: 76687</title></circle>
<circle cx="258.3" cy="323.5" r="5" fill="#16a085" opacity="0.9"><title>GPIO_0 R_PullUp | sftt | Chip: 76687</title></circle>
<circle cx="375.9" cy="327.3" r="5" fill="#16a085" opacity="0.9"><title>GPIO_0 R_PullUp | sftt | Chip: 76687</title></circle>
<circle cx="493.4" cy="323.5" r="5" fill="#16a085" opacity="0.9"><title>GPIO_0 R_PullUp | sftt | Chip: 76687</title></circle>
<circle cx="611.0" cy="324.1" r="5" fill="#16a085" opacity="0.9"><title>GPIO_0 R_PullUp | sftt | Chip: 76687</title></circle>
<circle cx="728.6" cy="333.6" r="5" fill="#16a085" opacity="0.9"><title>GPIO_0 R_PullUp | sftt | Chip: 76687</title></circle>
</g>
<g class="series" data-skew="ssff" data-chip="56508">
<path d="M140.8,326.2 L258.3,326.8 L375.9,329.6 L493.4,326.8 L611.0,327.4 L728.6,334.1 L846.1,328.5 L963.7,330.0 L1081.2,389.4" fill="none" stroke="#3498db" stroke-width="2.0" stroke-linejoin="round" opacity="0.85"/>
<circle cx="140.8" cy="326.2" r="5" fill="#3498db" opacity="0.9"><title>GPIO_0 R_PullUp | ssff | Chip: 56508</title></circle>
<circle cx="258.3" cy="326.8" r="5" fill="#3498db" opacity="0.9"><title>GPIO_0 R_PullUp | ssff | Chip: 56508</title></circle>
<circle cx="375.9" cy="329.6" r="5" fill="#3498db" opacity="0.9"><title>GPIO_0 R_PullUp | ssff | Chip: 56508</title></circle>
<circle cx="493.4" cy="326.8" r="5" fill="#3498db" opacity="0.9"><title>GPIO_0 R_PullUp | ssff | Chip: 56508</title></circle>
<circle cx="611.0" cy="327.4" r="5" fill="#3498db" opacity="0.9"><title>GPIO_0 R_PullUp | ssff | Chip: 56508</title></circle>
<circle cx="728.6" cy="334.1" r="5" fill="#3498db" opacity="0.9"><title>GPIO_0 R_PullUp | ssff | Chip: 56508</title></circle>
<circle cx="846.1" cy="328.5" r="5" fill="#3498db" opacity="0.9"><title>GPIO_0 R_PullUp | ssff | Chip: 56508</title></circle>
<circle cx="963.7" cy="330.0" r="5" fill="#3498db" opacity="0.9"><title>GPIO_0 R_PullUp | ssff | Chip: 56508</title></circle>
<circle cx="1081.2" cy="389.4" r="5" fill="#3498db" opacity="0.9"><title>GPIO_0 R_PullUp | ssff | Chip: 56508</title></circle>
</g>
<g class="series" data-skew="ssff" data-chip="57571">
<path d="M140.8,326.6 L258.3,327.1 L375.9,330.1 L493.4,327.2 L611.0,327.8 L728.6,336.0 L846.1,328.7 L963.7,330.3 L1081.2,395.3" fill="none" stroke="#e74c3c" stroke-width="2.0" stroke-linejoin="round" stroke-dasharray="8,3" opacity="0.85"/>
<circle cx="140.8" cy="326.6" r="5" fill="#e74c3c" opacity="0.9"><title>GPIO_0 R_PullUp | ssff | Chip: 57571</title></circle>
<circle cx="258.3" cy="327.1" r="5" fill="#e74c3c" opacity="0.9"><title>GPIO_0 R_PullUp | ssff | Chip: 57571</title></circle>
<circle cx="375.9" cy="330.1" r="5" fill="#e74c3c" opacity="0.9"><title>GPIO_0 R_PullUp | ssff | Chip: 57571</title></circle>
<circle cx="493.4" cy="327.2" r="5" fill="#e74c3c" opacity="0.9"><title>GPIO_0 R_PullUp | ssff | Chip: 57571</title></circle>
<circle cx="611.0" cy="327.8" r="5" fill="#e74c3c" opacity="0.9"><title>GPIO_0 R_PullUp | ssff | Chip: 57571</title></circle>
<circle cx="728.6" cy="336.0" r="5" fill="#e74c3c" opacity="0.9"><title>GPIO_0 R_PullUp | ssff | Chip: 57571</title></circle>
<circle cx="846.1" cy="328.7" r="5" fill="#e74c3c" opacity="0.9"><title>GPIO_0 R_PullUp | ssff | Chip: 57571</title></circle>
<circle cx="963.7" cy="330.3" r="5" fill="#e74c3c" opacity="0.9"><title>GPIO_0 R_PullUp | ssff | Chip: 57571</title></circle>
<circle cx="1081.2" cy="395.3" r="5" fill="#e74c3c" opacity="0.9"><title>GPIO_0 R_PullUp | ssff | Chip: 57571</title></circle>
</g>
<g class="series" data-skew="ssff" data-chip="96040">
<path d="M140.8,325.2 L258.3,325.7 L375.9,328.5 L493.4,325.8 L611.0,326.4 L728.6,333.3 L846.1,327.5 L963.7,329.0 L1081.2,389.4" fill="none" stroke="#2ecc71" stroke-width="2.0" stroke-linejoin="round" stroke-dasharray="4,3" opacity="0.85"/>
<circle cx="140.8" cy="325.2" r="5" fill="#2ecc71" opacity="0.9"><title>GPIO_0 R_PullUp | ssff | Chip: 96040</title></circle>
<circle cx="258.3" cy="325.7" r="5" fill="#2ecc71" opacity="0.9"><title>GPIO_0 R_PullUp | ssff | Chip: 96040</title></circle>
<circle cx="375.9" cy="328.5" r="5" fill="#2ecc71" opacity="0.9"><title>GPIO_0 R_PullUp | ssff | Chip: 96040</title></circle>
<circle cx="493.4" cy="325.8" r="5" fill="#2ecc71" opacity="0.9"><title>GPIO_0 R_PullUp | ssff | Chip: 96040</title></circle>
<circle cx="611.0" cy="326.4" r="5" fill="#2ecc71" opacity="0.9"><title>GPIO_0 R_PullUp | ssff | Chip: 96040</title></circle>
<circle cx="728.6" cy="333.3" r="5" fill="#2ecc71" opacity="0.9"><title>GPIO_0 R_PullUp | ssff | Chip: 96040</title></circle>
<circle cx="846.1" cy="327.5" r="5" fill="#2ecc71" opacity="0.9"><title>GPIO_0 R_PullUp | ssff | Chip: 96040</title></circle>
<circle cx="963.7" cy="329.0" r="5" fill="#2ecc71" opacity="0.9"><title>GPIO_0 R_PullUp | ssff | Chip: 96040</title></circle>
<circle cx="1081.2" cy="389.4" r="5" fill="#2ecc71" opacity="0.9"><title>GPIO_0 R_PullUp | ssff | Chip: 96040</title></circle>
</g>
<g class="series" data-skew="sstt" data-chip="29674">
<path d="M140.8,319.2 L258.3,319.8 L375.9,323.0 L493.4,319.7 L611.0,320.4 L728.6,328.5 L846.1,321.5 L963.7,323.2 L1081.2,389.7" fill="none" stroke="#9b59b6" stroke-width="2.0" stroke-linejoin="round" stroke-dasharray="10,3,3,3" opacity="0.85"/>
<circle cx="140.8" cy="319.2" r="5" fill="#9b59b6" opacity="0.9"><title>GPIO_0 R_PullUp | sstt | Chip: 29674</title></circle>
<circle cx="258.3" cy="319.8" r="5" fill="#9b59b6" opacity="0.9"><title>GPIO_0 R_PullUp | sstt | Chip: 29674</title></circle>
<circle cx="375.9" cy="323.0" r="5" fill="#9b59b6" opacity="0.9"><title>GPIO_0 R_PullUp | sstt | Chip: 29674</title></circle>
<circle cx="493.4" cy="319.7" r="5" fill="#9b59b6" opacity="0.9"><title>GPIO_0 R_PullUp | sstt | Chip: 29674</title></circle>
<circle cx="611.0" cy="320.4" r="5" fill="#9b59b6" opacity="0.9"><title>GPIO_0 R_PullUp | sstt | Chip: 29674</title></circle>
<circle cx="728.6" cy="328.5" r="5" fill="#9b59b6" opacity="0.9"><title>GPIO_0 R_PullUp | sstt | Chip: 29674</title></circle>
<circle cx="846.1" cy="321.5" r="5" fill="#9b59b6" opacity="0.9"><title>GPIO_0 R_PullUp | sstt | Chip: 29674</title></circle>
<circle cx="963.7" cy="323.2" r="5" fill="#9b59b6" opacity="0.9"><title>GPIO_0 R_PullUp | sstt | Chip: 29674</title></circle>
<circle cx="1081.2" cy="389.7" r="5" fill="#9b59b6" opacity="0.9"><title>GPIO_0 R_PullUp | sstt | Chip: 29674</title></circle>
</g>
<g class="series" data-skew="sstt" data-chip="58046">
<path d="M140.8,317.9 L258.3,318.5 L375.9,321.8 L493.4,318.6 L611.0,319.3 L728.6,327.2 L846.1,320.6 L963.7,322.3 L1081.2,388.9" fill="none" stroke="#e67e22" stroke-width="2.0" stroke-linejoin="round" opacity="0.85"/>
<circle cx="140.8" cy="317.9" r="5" fill="#e67e22" opacity="0.9"><title>GPIO_0 R_PullUp | sstt | Chip: 58046</title></circle>
<circle cx="258.3" cy="318.5" r="5" fill="#e67e22" opacity="0.9"><title>GPIO_0 R_PullUp | sstt | Chip: 58046</title></circle>
<circle cx="375.9" cy="321.8" r="5" fill="#e67e22" opacity="0.9"><title>GPIO_0 R_PullUp | sstt | Chip: 58046</title></circle>
<circle cx="493.4" cy="318.6" r="5" fill="#e67e22" opacity="0.9"><title>GPIO_0 R_PullUp | sstt | Chip: 58046</title></circle>
<circle cx="611.0" cy="319.3" r="5" fill="#e67e22" opacity="0.9"><title>GPIO_0 R_PullUp | sstt | Chip: 58046</title></circle>
<circle cx="728.6" cy="327.2" r="5" fill="#e67e22" opacity="0.9"><title>GPIO_0 R_PullUp | sstt | Chip: 58046</title></circle>
<circle cx="846.1" cy="320.6" r="5" fill="#e67e22" opacity="0.9"><title>GPIO_0 R_PullUp | sstt | Chip: 58046</title></circle>
<circle cx="963.7" cy="322.3" r="5" fill="#e67e22" opacity="0.9"><title>GPIO_0 R_PullUp | sstt | Chip: 58046</title></circle>
<circle cx="1081.2" cy="388.9" r="5" fill="#e67e22" opacity="0.9"><title>GPIO_0 R_PullUp | sstt | Chip: 58046</title></circle>
</g>
<g class="series" data-skew="sstt" data-chip="9808">
<path d="M140.8,317.1 L258.3,317.8 L375.9,322.0 L493.4,317.7 L611.0,318.5 L728.6,328.8 L846.1,319.6 L963.7,321.3 L1081.2,397.7" fill="none" stroke="#1abc9c" stroke-width="2.0" stroke-linejoin="round" stroke-dasharray="8,3" opacity="0.85"/>
<circle cx="140.8" cy="317.1" r="5" fill="#1abc9c" opacity="0.9"><title>GPIO_0 R_PullUp | sstt | Chip: 9808</title></circle>
<circle cx="258.3" cy="317.8" r="5" fill="#1abc9c" opacity="0.9"><title>GPIO_0 R_PullUp | sstt | Chip: 9808</title></circle>
<circle cx="375.9" cy="322.0" r="5" fill="#1abc9c" opacity="0.9"><title>GPIO_0 R_PullUp | sstt | Chip: 9808</title></circle>
<circle cx="493.4" cy="317.7" r="5" fill="#1abc9c" opacity="0.9"><title>GPIO_0 R_PullUp | sstt | Chip: 9808</title></circle>
<circle cx="611.0" cy="318.5" r="5" fill="#1abc9c" opacity="0.9"><title>GPIO_0 R_PullUp | sstt | Chip: 9808</title></circle>
<circle cx="728.6" cy="328.8" r="5" fill="#1abc9c" opacity="0.9"><title>GPIO_0 R_PullUp | sstt | Chip: 9808</title></circle>
<circle cx="846.1" cy="319.6" r="5" fill="#1abc9c" opacity="0.9"><title>GPIO_0 R_PullUp | sstt | Chip: 9808</title></circle>
<circle cx="963.7" cy="321.3" r="5" fill="#1abc9c" opacity="0.9"><title>GPIO_0 R_PullUp | sstt | Chip: 9808</title></circle>
<circle cx="1081.2" cy="397.7" r="5" fill="#1abc9c" opacity="0.9"><title>GPIO_0 R_PullUp | sstt | Chip: 9808</title></circle>
</g>
<g class="spec-el">
<line x1="82.0" y1="354.8" x2="1140.0" y2="354.8" stroke="#ff6d00" stroke-width="4"/>
<text x="1145.0" y="358.8" font-size="9" font-weight="normal" text-anchor="start" fill="#ff6d00" font-family="Arial,sans-serif">Min spec: 30</text>
<line x1="82.0" y1="136.7" x2="1140.0" y2="136.7" stroke="#ff6d00" stroke-width="4"/>
<text x="1145.0" y="140.7" font-size="9" font-weight="normal" text-anchor="start" fill="#ff6d00" font-family="Arial,sans-serif">Max spec: 70</text>
</g>
<g class="legend-item" data-skew="ffss" data-chip="25679">
<line x1="1148" y1="77" x2="1176" y2="77" stroke="#3498db" stroke-width="2.0" />
<circle cx="1162" cy="77" r="5" fill="#3498db"/>
<text x="1180" y="81" font-size="10" font-family="Arial,sans-serif" fill="#2c3e50">25679 | ffss</text>
</g>
<g class="legend-item" data-skew="ffss" data-chip="43407">
<line x1="1148" y1="99" x2="1176" y2="99" stroke="#e74c3c" stroke-width="2.0" stroke-dasharray="8,3" />
<circle cx="1162" cy="99" r="5" fill="#e74c3c"/>
<text x="1180" y="103" font-size="10" font-family="Arial,sans-serif" fill="#2c3e50">43407 | ffss</text>
</g>
<g class="legend-item" data-skew="ffss" data-chip="79093">
<line x1="1148" y1="121" x2="1176" y2="121" stroke="#2ecc71" stroke-width="2.0" stroke-dasharray="4,3" />
<circle cx="1162" cy="121" r="5" fill="#2ecc71"/>
<text x="1180" y="125" font-size="10" font-family="Arial,sans-serif" fill="#2c3e50">79093 | ffss</text>
</g>
<g class="legend-item" data-skew="fftt" data-chip="13967">
<line x1="1148" y1="143" x2="1176" y2="143" stroke="#9b59b6" stroke-width="2.0" stroke-dasharray="10,3,3,3" />
<circle cx="1162" cy="143" r="5" fill="#9b59b6"/>
<text x="1180" y="147" font-size="10" font-family="Arial,sans-serif" fill="#2c3e50">13967 | fftt</text>
</g>
<g class="legend-item" data-skew="fftt" data-chip="15382">
<line x1="1148" y1="165" x2="1176" y2="165" stroke="#e67e22" stroke-width="2.0" />
<circle cx="1162" cy="165" r="5" fill="#e67e22"/>
<text x="1180" y="169" font-size="10" font-family="Arial,sans-serif" fill="#2c3e50">15382 | fftt</text>
</g>
<g class="legend-item" data-skew="fftt" data-chip="78814">
<line x1="1148" y1="187" x2="1176" y2="187" stroke="#1abc9c" stroke-width="2.0" stroke-dasharray="8,3" />
<circle cx="1162" cy="187" r="5" fill="#1abc9c"/>
<text x="1180" y="191" font-size="10" font-family="Arial,sans-serif" fill="#2c3e50">78814 | fftt</text>
</g>
<g class="legend-item" data-skew="fstt" data-chip="12566">
<line x1="1148" y1="209" x2="1176" y2="209" stroke="#c0392b" stroke-width="2.0" stroke-dasharray="4,3" />
<circle cx="1162" cy="209" r="5" fill="#c0392b"/>
<text x="1180" y="213" font-size="10" font-family="Arial,sans-serif" fill="#2c3e50">12566 | fstt</text>
</g>
<g class="legend-item" data-skew="fstt" data-chip="13316">
<line x1="1148" y1="231" x2="1176" y2="231" stroke="#2980b9" stroke-width="2.0" stroke-dasharray="10,3,3,3" />
<circle cx="1162" cy="231" r="5" fill="#2980b9"/>
<text x="1180" y="235" font-size="10" font-family="Arial,sans-serif" fill="#2c3e50">13316 | fstt</text>
</g>
<g class="legend-item" data-skew="fstt" data-chip="62919">
<line x1="1148" y1="253" x2="1176" y2="253" stroke="#27ae60" stroke-width="2.0" />
<circle cx="1162" cy="253" r="5" fill="#27ae60"/>
<text x="1180" y="257" font-size="10" font-family="Arial,sans-serif" fill="#2c3e50">62919 | fstt</text>
</g>
<g class="legend-item" data-skew="sftt" data-chip="44565">
<line x1="1148" y1="275" x2="1176" y2="275" stroke="#8e44ad" stroke-width="2.0" stroke-dasharray="8,3" />
<circle cx="1162" cy="275" r="5" fill="#8e44ad"/>
<text x="1180" y="279" font-size="10" font-family="Arial,sans-serif" fill="#2c3e50">44565 | sftt</text>
</g>
<g class="legend-item" data-skew="sftt" data-chip="69627">
<line x1="1148" y1="297" x2="1176" y2="297" stroke="#d35400" stroke-width="2.0" stroke-dasharray="4,3" />
<circle cx="1162" cy="297" r="5" fill="#d35400"/>
<text x="1180" y="301" font-size="10" font-family="Arial,sans-serif" fill="#2c3e50">69627 | sftt</text>
</g>
<g class="legend-item" data-skew="sftt" data-chip="76687">
<line x1="1148" y1="319" x2="1176" y2="319" stroke="#16a085" stroke-width="2.0" stroke-dasharray="10,3,3,3" />
<circle cx="1162" cy="319" r="5" fill="#16a085"/>
<text x="1180" y="323" font-size="10" font-family="Arial,sans-serif" fill="#2c3e50">76687 | sftt</text>
</g>
<g class="legend-item" data-skew="ssff" data-chip="56508">
<line x1="1148" y1="341" x2="1176" y2="341" stroke="#3498db" stroke-width="2.0" />
<circle cx="1162" cy="341" r="5" fill="#3498db"/>
<text x="1180" y="345" font-size="10" font-family="Arial,sans-serif" fill="#2c3e50">56508 | ssff</text>
</g>
<g class="legend-item" data-skew="ssff" data-chip="57571">
<line x1="1148" y1="363" x2="1176" y2="363" stroke="#e74c3c" stroke-width="2.0" stroke-dasharray="8,3" />
<circle cx="1162" cy="363" r="5" fill="#e74c3c"/>
<text x="1180" y="367" font-size="10" font-family="Arial,sans-serif" fill="#2c3e50">57571 | ssff</text>
</g>
<g class="legend-item" data-skew="ssff" data-chip="96040">
<line x1="1148" y1="385" x2="1176" y2="385" stroke="#2ecc71" stroke-width="2.0" stroke-dasharray="4,3" />
<circle cx="1162" cy="385" r="5" fill="#2ecc71"/>
<text x="1180" y="389" font-size="10" font-family="Arial,sans-serif" fill="#2c3e50">96040 | ssff</text>
</g>
<g class="legend-item" data-skew="sstt" data-chip="29674">
<line x1="1148" y1="407" x2="1176" y2="407" stroke="#9b59b6" stroke-width="2.0" stroke-dasharray="10,3,3,3" />
<circle cx="1162" cy="407" r="5" fill="#9b59b6"/>
<text x="1180" y="411" font-size="10" font-family="Arial,sans-serif" fill="#2c3e50">29674 | sstt</text>
</g>
<g class="legend-item" data-skew="sstt" data-chip="58046">
<line x1="1148" y1="429" x2="1176" y2="429" stroke="#e67e22" stroke-width="2.0" />
<circle cx="1162" cy="429" r="5" fill="#e67e22"/>
<text x="1180" y="433" font-size="10" font-family="Arial,sans-serif" fill="#2c3e50">58046 | sstt</text>
</g>
<g class="legend-item" data-skew="sstt" data-chip="9808">
<line x1="1148" y1="451" x2="1176" y2="451" stroke="#1abc9c" stroke-width="2.0" stroke-dasharray="8,3" />
<circle cx="1162" cy="451" r="5" fill="#1abc9c"/>
<text x="1180" y="455" font-size="10" font-family="Arial,sans-serif" fill="#2c3e50">9808 | sstt</text>
</g>
</svg>