<svg xmlns="http://www.w3.org/2000/svg" width="1000" height="526" viewBox="0 0 1000 526">
<rect width="1000" height="526" fill="#ffffff"/>
<text x="500.0" y="28.0" font-size="16" font-weight="bold" text-anchor="middle" fill="#2c3e50" font-family="Arial,sans-serif">RF_KILLN — VOH (V) [VOH/VOL]</text>
<line x1="82.0" y1="456.0" x2="800.0" y2="456.0" stroke="#999" stroke-width="1"/>
<line x1="82.0" y1="72.0" x2="82.0" y2="456.0" stroke="#999" stroke-width="1"/>
<line x1="82.0" y1="72.0" x2="82.0" y2="456.0" stroke="#999" stroke-width="1"/>
<line x1="77.0" y1="456.0" x2="82.0" y2="456.0" stroke="#999" stroke-width="1"/>
<line x1="82.0" y1="456.0" x2="800.0" y2="456.0" stroke="#e0e0e0" stroke-width="0.8" stroke-dasharray="3,3"/>
<text x="74.0" y="460.0" font-size="9" font-weight="normal" text-anchor="end" fill="#7f8c8d" font-family="Arial,sans-serif">0.942</text>
<line x1="77.0" y1="379.2" x2="82.0" y2="379.2" stroke="#999" stroke-width="1"/>
<line x1="82.0" y1="379.2" x2="800.0" y2="379.2" stroke="#e0e0e0" stroke-width="0.8" stroke-dasharray="3,3"/>
<text x="74.0" y="383.2" font-size="9" font-weight="normal" text-anchor="end" fill="#7f8c8d" font-family="Arial,sans-serif">1.13</text>
<line x1="77.0" y1="302.4" x2="82.0" y2="302.4" stroke="#999" stroke-width="1"/>
<line x1="82.0" y1="302.4" x2="800.0" y2="302.4" stroke="#e0e0e0" stroke-width="0.8" stroke-dasharray="3,3"/>
<text x="74.0" y="306.4" font-size="9" font-weight="normal" text-anchor="end" fill="#7f8c8d" font-family="Arial,sans-serif">1.33</text>
<line x1="77.0" y1="225.6" x2="82.0" y2="225.6" stroke="#999" stroke-width="1"/>
<line x1="82.0" y1="225.6" x2="800.0" y2="225.6" stroke="#e0e0e0" stroke-width="0.8" stroke-dasharray="3,3"/>
<text x="74.0" y="229.6" font-size="9" font-weight="normal" text-anchor="end" fill="#7f8c8d" font-family="Arial,sans-serif">1.52</text>
<line x1="77.0" y1="148.8" x2="82.0" y2="148.8" stroke="#999" stroke-width="1"/>
<line x1="82.0" y1="148.8" x2="800.0" y2="148.8" stroke="#e0e0e0" stroke-width="0.8" stroke-dasharray="3,3"/>
<text x="74.0" y="152.8" font-size="9" font-weight="normal" text-anchor="end" fill="#7f8c8d" font-family="Arial,sans-serif">1.71</text>
<line x1="77.0" y1="72.0" x2="82.0" y2="72.0" stroke="#999" stroke-width="1"/>
<line x1="82.0" y1="72.0" x2="800.0" y2="72.0" stroke="#e0e0e0" stroke-width="0.8" stroke-dasharray="3,3"/>
<text x="74.0" y="76.0" font-size="9" font-weight="normal" text-anchor="end" fill="#7f8c8d" font-family="Arial,sans-serif">1.91</text>
<text x="14.0" y="264.0" font-size="10" font-weight="normal" text-anchor="middle" fill="#7f8c8d" font-family="Arial,sans-serif" transform="rotate(-90,14,264.0)">VOH (V)</text>
<text x="111.9" y="471.0" font-size="8" font-weight="normal" text-anchor="middle" fill="#7f8c8d" font-family="Arial,sans-serif">DS_0</text>
<text x="171.8" y="471.0" font-size="8" font-weight="normal" text-anchor="middle" fill="#7f8c8d" font-family="Arial,sans-serif">DS_1</text>
<text x="231.6" y="471.0" font-size="8" font-weight="normal" text-anchor="middle" fill="#7f8c8d" font-family="Arial,sans-serif">DS_2</text>
<text x="291.4" y="471.0" font-size="8" font-weight="normal" text-anchor="middle" fill="#7f8c8d" font-family="Arial,sans-serif">DS_3</text>
<text x="351.2" y="471.0" font-size="8" font-weight="normal" text-anchor="middle" fill="#7f8c8d" font-family="Arial,sans-serif">DS_0</text>
<line x1="321.3" y1="72.0" x2="321.3" y2="456.0" stroke="#cccccc" stroke-width="1" stroke-dasharray="4,3"/>
<text x="411.1" y="471.0" font-size="8" font-weight="normal" text-anchor="middle" fill="#7f8c8d" font-family="Arial,sans-serif">DS_1</text>
<text x="470.9" y="471.0" font-size="8" font-weight="normal" text-anchor="middle" fill="#7f8c8d" font-family="Arial,sans-serif">DS_2</text>
<text x="530.8" y="471.0" font-size="8" font-weight="normal" text-anchor="middle" fill="#7f8c8d" font-family="Arial,sans-serif">DS_3</text>
<text x="590.6" y="471.0" font-size="8" font-weight="normal" text-anchor="middle" fill="#7f8c8d" font-family="Arial,sans-serif">DS_0</text>
<line x1="560.7" y1="72.0" x2="560.7" y2="456.0" stroke="#cccccc" stroke-width="1" stroke-dasharray="4,3"/>
<text x="650.4" y="471.0" font-size="8" font-weight="normal" text-anchor="middle" fill="#7f8c8d" font-family="Arial,sans-serif">DS_1</text>
<text x="710.2" y="471.0" font-size="8" font-weight="normal" text-anchor="middle" fill="#7f8c8d" font-family="Arial,sans-serif">DS_2</text>
<text x="770.1" y="471.0" font-size="8" font-weight="normal" text-anchor="middle" fill="#7f8c8d" font-family="Arial,sans-serif">DS_3</text>
<text x="201.7" y="62.0" font-size="10" font-weight="bold" text-anchor="middle" fill="#2c3e50" font-family="Arial,sans-serif">T=0°C</text>
<text x="441.0" y="62.0" font-size="10" font-weight="bold" text-anchor="middle" fill="#2c3e50" font-family="Arial,sans-serif">T=20°C</text>
<text x="680.3" y="62.0" font-size="10" font-weight="bold" text-anchor="middle" fill="#2c3e50" font-family="Arial,sans-serif">T=80°C</text>
<text x="441.0" y="490.0" font-size="11" font-weight="normal" text-anchor="middle" fill="#2c3e50" font-family="Arial,sans-serif">Temperature  /  Drive Strength (DS)</text>
<g class="series" data-viocore="0.64/1.62" data-skew="ffss">
<path d="M111.9,261.2 L171.8,268.1 L231.6,303.7 L291.4,327.2 L351.2,264.0 L411.1,270.0 L470.9,307.0 L530.8,330.9 L590.6,269.3 L650.4,277.4 L710.2,318.5 L770.1,346.1" fill="none" stroke="#3498db" stroke-width="2.2" stroke-linejoin="round" opacity="0.9"/>
<circle cx="111.9" cy="261.2" r="5" fill="#3498db" opacity="0.9"><title>RF_KILLN VOH | 0.64/1.62 | ffss | Chip: 43407</title></circle>
<circle cx="171.8" cy="268.1" r="5" fill="#3498db" opacity="0.9"><title>RF_KILLN VOH | 0.64/1.62 | ffss | Chip: 43407</title></circle>
<circle cx="231.6" cy="303.7" r="5" fill="#3498db" opacity="0.9"><title>RF_KILLN VOH | 0.64/1.62 | ffss | Chip: 43407</title></circle>
<circle cx="291.4" cy="327.2" r="5" fill="#3498db" opacity="0.9"><title>RF_KILLN VOH | 0.64/1.62 | ffss | Chip: 43407</title></circle>
<circle cx="351.2" cy="264.0" r="5" fill="#3498db" opacity="0.9"><title>RF_KILLN VOH | 0.64/1.62 | ffss | Chip: 43407</title></circle>
<circle cx="411.1" cy="270.0" r="5" fill="#3498db" opacity="0.9"><title>RF_KILLN VOH | 0.64/1.62 | ffss | Chip: 43407</title></circle>
<circle cx="470.9" cy="307.0" r="5" fill="#3498db" opacity="0.9"><title>RF_KILLN VOH | 0.64/1.62 | ffss | Chip: 43407</title></circle>
<circle cx="530.8" cy="330.9" r="5" fill="#3498db" opacity="0.9"><title>RF_KILLN VOH | 0.64/1.62 | ffss | Chip: 43407</title></circle>
<circle cx="590.6" cy="269.3" r="5" fill="#3498db" opacity="0.9"><title>RF_KILLN VOH | 0.64/1.62 | ffss | Chip: 43407</title></circle>
<circle cx="650.4" cy="277.4" r="5" fill="#3498db" opacity="0.9"><title>RF_KILLN VOH | 0.64/1.62 | ffss | Chip: 43407</title></circle>
<circle cx="710.2" cy="318.5" r="5" fill="#3498db" opacity="0.9"><title>RF_KILLN VOH | 0.64/1.62 | ffss | Chip: 43407</title></circle>
<circle cx="770.1" cy="346.1" r="5" fill="#3498db" opacity="0.9"><title>RF_KILLN VOH | 0.64/1.62 | ffss | Chip: 43407</title></circle>
</g>
<g class="series" data-viocore="0.64/1.62" data-skew="fftt">
<path d="M111.9,274.1 L171.8,288.1 L231.6,339.5 L291.4,379.9 L351.2,265.4 L411.1,274.0 L470.9,314.9 L530.8,343.7 L590.6,288.8 L650.4,306.7 L710.2,367.1 L770.1,418.8" fill="none" stroke="#e74c3c" stroke-width="2.2" stroke-linejoin="round" stroke-dasharray="8,3" opacity="0.9"/>
<circle cx="111.9" cy="274.1" r="5" fill="#e74c3c" opacity="0.9"><title>RF_KILLN VOH | 0.64/1.62 | fftt | Chip: 15382</title></circle>
<circle cx="171.8" cy="288.1" r="5" fill="#e74c3c" opacity="0.9"><title>RF_KILLN VOH | 0.64/1.62 | fftt | Chip: 15382</title></circle>
<circle cx="231.6" cy="339.5" r="5" fill="#e74c3c" opacity="0.9"><title>RF_KILLN VOH | 0.64/1.62 | fftt | Chip: 15382</title></circle>
<circle cx="291.4" cy="379.9" r="5" fill="#e74c3c" opacity="0.9"><title>RF_KILLN VOH | 0.64/1.62 | fftt | Chip: 15382</title></circle>
<circle cx="351.2" cy="265.4" r="5" fill="#e74c3c" opacity="0.9"><title>RF_KILLN VOH | 0.64/1.62 | fftt | Chip: 15382</title></circle>
<circle cx="411.1" cy="274.0" r="5" fill="#e74c3c" opacity="0.9"><title>RF_KILLN VOH | 0.64/1.62 | fftt | Chip: 15382</title></circle>
<circle cx="470.9" cy="314.9" r="5" fill="#e74c3c" opacity="0.9"><title>RF_KILLN VOH | 0.64/1.62 | fftt | Chip: 15382</title></circle>
<circle cx="530.8" cy="343.7" r="5" fill="#e74c3c" opacity="0.9"><title>RF_KILLN VOH | 0.64/1.62 | fftt | Chip: 15382</title></circle>
<circle cx="590.6" cy="288.8" r="5" fill="#e74c3c" opacity="0.9"><title>RF_KILLN VOH | 0.64/1.62 | fftt | Chip: 13967</title></circle>
<circle cx="650.4" cy="306.7" r="5" fill="#e74c3c" opacity="0.9"><title>RF_KILLN VOH | 0.64/1.62 | fftt | Chip: 13967</title></circle>
<circle cx="710.2" cy="367.1" r="5" fill="#e74c3c" opacity="0.9"><title>RF_KILLN VOH | 0.64/1.62 | fftt | Chip: 13967</title></circle>
<circle cx="770.1" cy="418.8" r="5" fill="#e74c3c" opacity="0.9"><title>RF_KILLN VOH | 0.64/1.62 | fftt | Chip: 13967</title></circle>
</g>
<g class="series" data-viocore="0.64/1.62" data-skew="fstt">
<path d="M111.9,260.1 L171.8,267.2 L231.6,302.9 L291.4,326.7 L351.2,262.1 L411.1,268.6 L470.9,304.7 L530.8,328.6 L590.6,267.9 L650.4,276.6 L710.2,317.5 L770.1,345.7" fill="none" stroke="#2ecc71" stroke-width="2.2" stroke-linejoin="round" stroke-dasharray="4,3" opacity="0.9"/>
<circle cx="111.9" cy="260.1" r="5" fill="#2ecc71" opacity="0.9"><title>RF_KILLN VOH | 0.64/1.62 | fstt | Chip: 62919</title></circle>
<circle cx="171.8" cy="267.2" r="5" fill="#2ecc71" opacity="0.9"><title>RF_KILLN VOH | 0.64/1.62 | fstt | Chip: 62919</title></circle>
<circle cx="231.6" cy="302.9" r="5" fill="#2ecc71" opacity="0.9"><title>RF_KILLN VOH | 0.64/1.62 | fstt | Chip: 62919</title></circle>
<circle cx="291.4" cy="326.7" r="5" fill="#2ecc71" opacity="0.9"><title>RF_KILLN VOH | 0.64/1.62 | fstt | Chip: 62919</title></circle>
<circle cx="351.2" cy="262.1" r="5" fill="#2ecc71" opacity="0.9"><title>RF_KILLN VOH | 0.64/1.62 | fstt | Chip: 12566</title></circle>
<circle cx="411.1" cy="268.6" r="5" fill="#2ecc71" opacity="0.9"><title>RF_KILLN VOH | 0.64/1.62 | fstt | Chip: 62919</title></circle>
<circle cx="470.9" cy="304.7" r="5" fill="#2ecc71" opacity="0.9"><title>RF_KILLN VOH | 0.64/1.62 | fstt | Chip: 62919</title></circle>
<circle cx="530.8" cy="328.6" r="5" fill="#2ecc71" opacity="0.9"><title>RF_KILLN VOH | 0.64/1.62 | fstt | Chip: 62919</title></circle>
<circle cx="590.6" cy="267.9" r="5" fill="#2ecc71" opacity="0.9"><title>RF_KILLN VOH | 0.64/1.62 | fstt | Chip: 62919</title></circle>
<circle cx="650.4" cy="276.6" r="5" fill="#2ecc71" opacity="0.9"><title>RF_KILLN VOH | 0.64/1.62 | fstt | Chip: 62919</title></circle>
<circle cx="710.2" cy="317.5" r="5" fill="#2ecc71" opacity="0.9"><title>RF_KILLN VOH | 0.64/1.62 | fstt | Chip: 62919</title></circle>
<circle cx="770.1" cy="345.7" r="5" fill="#2ecc71" opacity="0.9"><title>RF_KILLN VOH | 0.64/1.62 | fstt | Chip: 62919</title></circle>
</g>
<g class="series" data-viocore="0.64/1.62" data-skew="sftt">
<path d="M111.9,257.9 L171.8,263.9 L231.6,298.2 L291.4,320.3 L351.2,260.0 L411.1,266.2 L470.9,301.4 L530.8,324.7 L590.6,263.8 L650.4,271.0 L710.2,309.6 L770.1,334.7" fill="none" stroke="#9b59b6" stroke-width="2.2" stroke-linejoin="round" stroke-dasharray="10,3,3,3" opacity="0.9"/>
<circle cx="111.9" cy="257.9" r="5" fill="#9b59b6" opacity="0.9"><title>RF_KILLN VOH | 0.64/1.62 | sftt | Chip: 69627</title></circle>
<circle cx="171.8" cy="263.9" r="5" fill="#9b59b6" opacity="0.9"><title>RF_KILLN VOH | 0.64/1.62 | sftt | Chip: 44565</title></circle>
<circle cx="231.6" cy="298.2" r="5" fill="#9b59b6" opacity="0.9"><title>RF_KILLN VOH | 0.64/1.62 | sftt | Chip: 69627</title></circle>
<circle cx="291.4" cy="320.3" r="5" fill="#9b59b6" opacity="0.9"><title>RF_KILLN VOH | 0.64/1.62 | sftt | Chip: 44565</title></circle>
<circle cx="351.2" cy="260.0" r="5" fill="#9b59b6" opacity="0.9"><title>RF_KILLN VOH | 0.64/1.62 | sftt | Chip: 69627</title></circle>
<circle cx="411.1" cy="266.2" r="5" fill="#9b59b6" opacity="0.9"><title>RF_KILLN VOH | 0.64/1.62 | sftt | Chip: 44565</title></circle>
<circle cx="470.9" cy="301.4" r="5" fill="#9b59b6" opacity="0.9"><title>RF_KILLN VOH | 0.64/1.62 | sftt | Chip: 69627</title></circle>
<circle cx="530.8" cy="324.7" r="5" fill="#9b59b6" opacity="0.9"><title>RF_KILLN VOH | 0.64/1.62 | sftt | Chip: 44565</title></circle>
<circle cx="590.6" cy="263.8" r="5" fill="#9b59b6" opacity="0.9"><title>RF_KILLN VOH | 0.64/1.62 | sftt | Chip: 69627</title></circle>
<circle cx="650.4" cy="271.0" r="5" fill="#9b59b6" opacity="0.9"><title>RF_KILLN VOH | 0.64/1.62 | sftt | Chip: 69627</title></circle>
<circle cx="710.2" cy="309.6" r="5" fill="#9b59b6" opacity="0.9"><title>RF_KILLN VOH | 0.64/1.62 | sftt | Chip: 69627</title></circle>
<circle cx="770.1" cy="334.7" r="5" fill="#9b59b6" opacity="0.9"><title>RF_KILLN VOH | 0.64/1.62 | sftt | Chip: 69627</title></circle>
</g>
<g class="series" data-viocore="0.64/1.62" data-skew="ssff">
<path d="M111.9,261.2 L171.8,269.4 L231.6,307.3 L291.4,333.4 L351.2,260.0 L411.1,266.8 L470.9,302.3 L530.8,326.4 L590.6,263.8 L650.4,272.1 L710.2,310.5 L770.1,337.1" fill="none" stroke="#e67e22" stroke-width="2.2" stroke-linejoin="round" opacity="0.9"/>
<circle cx="111.9" cy="261.2" r="5" fill="#e67e22" opacity="0.9"><title>RF_KILLN VOH | 0.64/1.62 | ssff | Chip: 57571</title></circle>
<circle cx="171.8" cy="269.4" r="5" fill="#e67e22" opacity="0.9"><title>RF_KILLN VOH | 0.64/1.62 | ssff | Chip: 57571</title></circle>
<circle cx="231.6" cy="307.3" r="5" fill="#e67e22" opacity="0.9"><title>RF_KILLN VOH | 0.64/1.62 | ssff | Chip: 57571</title></circle>
<circle cx="291.4" cy="333.4" r="5" fill="#e67e22" opacity="0.9"><title>RF_KILLN VOH | 0.64/1.62 | ssff | Chip: 57571</title></circle>
<circle cx="351.2" cy="260.0" r="5" fill="#e67e22" opacity="0.9"><title>RF_KILLN VOH | 0.64/1.62 | ssff | Chip: 57571</title></circle>
<circle cx="411.1" cy="266.8" r="5" fill="#e67e22" opacity="0.9"><title>RF_KILLN VOH | 0.64/1.62 | ssff | Chip: 57571</title></circle>
<circle cx="470.9" cy="302.3" r="5" fill="#e67e22" opacity="0.9"><title>RF_KILLN VOH | 0.64/1.62 | ssff | Chip: 57571</title></circle>
<circle cx="530.8" cy="326.4" r="5" fill="#e67e22" opacity="0.9"><title>RF_KILLN VOH | 0.64/1.62 | ssff | Chip: 57571</title></circle>
<circle cx="590.6" cy="263.8" r="5" fill="#e67e22" opacity="0.9"><title>RF_KILLN VOH | 0.64/1.62 | ssff | Chip: 96040</title></circle>
<circle cx="650.4" cy="272.1" r="5" fill="#e67e22" opacity="0.9"><title>RF_KILLN VOH | 0.64/1.62 | ssff | Chip: 96040</title></circle>
<circle cx="710.2" cy="310.5" r="5" fill="#e67e22" opacity="0.9"><title>RF_KILLN VOH | 0.64/1.62 | ssff | Chip: 96040</title></circle>
<circle cx="770.1" cy="337.1" r="5" fill="#e67e22" opacity="0.9"><title>RF_KILLN VOH | 0.64/1.62 | ssff | Chip: 96040</title></circle>
</g>
<g class="series" data-viocore="0.64/1.62" data-skew="sstt">
<path d="M111.9,258.8 L171.8,265.5 L231.6,300.1 L291.4,323.1 L351.2,261.2 L411.1,267.8 L470.9,303.3 L530.8,327.1 L590.6,265.7 L650.4,274.2 L710.2,313.8 L770.1,341.2" fill="none" stroke="#1abc9c" stroke-width="2.2" stroke-linejoin="round" stroke-dasharray="8,3" opacity="0.9"/>
<circle cx="111.9" cy="258.8" r="5" fill="#1abc9c" opacity="0.9"><title>RF_KILLN VOH | 0.64/1.62 | sstt | Chip: 58046</title></circle>
<circle cx="171.8" cy="265.5" r="5" fill="#1abc9c" opacity="0.9"><title>RF_KILLN VOH | 0.64/1.62 | sstt | Chip: 9808</title></circle>
<circle cx="231.6" cy="300.1" r="5" fill="#1abc9c" opacity="0.9"><title>RF_KILLN VOH | 0.64/1.62 | sstt | Chip: 9808</title></circle>
<circle cx="291.4" cy="323.1" r="5" fill="#1abc9c" opacity="0.9"><title>RF_KILLN VOH | 0.64/1.62 | sstt | Chip: 9808</title></circle>
<circle cx="351.2" cy="261.2" r="5" fill="#1abc9c" opacity="0.9"><title>RF_KILLN VOH | 0.64/1.62 | sstt | Chip: 58046</title></circle>
<circle cx="411.1" cy="267.8" r="5" fill="#1abc9c" opacity="0.9"><title>RF_KILLN VOH | 0.64/1.62 | sstt | Chip: 29674</title></circle>
<circle cx="470.9" cy="303.3" r="5" fill="#1abc9c" opacity="0.9"><title>RF_KILLN VOH | 0.64/1.62 | sstt | Chip: 9808</title></circle>
<circle cx="530.8" cy="327.1" r="5" fill="#1abc9c" opacity="0.9"><title>RF_KILLN VOH | 0.64/1.62 | sstt | Chip: 9808</title></circle>
<circle cx="590.6" cy="265.7" r="5" fill="#1abc9c" opacity="0.9"><title>RF_KILLN VOH | 0.64/1.62 | sstt | Chip: 9808</title></circle>
<circle cx="650.4" cy="274.2" r="5" fill="#1abc9c" opacity="0.9"><title>RF_KILLN VOH | 0.64/1.62 | sstt | Chip: 9808</title></circle>
<circle cx="710.2" cy="313.8" r="5" fill="#1abc9c" opacity="0.9"><title>RF_KILLN VOH | 0.64/1.62 | sstt | Chip: 9808</title></circle>
<circle cx="770.1" cy="341.2" r="5" fill="#1abc9c" opacity="0.9"><title>RF_KILLN VOH | 0.64/1.62 | sstt | Chip: 9808</title></circle>
</g>
<g class="series" data-viocore="0.8/1.8" data-skew="ffss">
<path d="M111.9,187.2 L171.8,193.9 L231.6,228.8 L291.4,251.8 L351.2,189.7 L411.1,195.5 L470.9,231.9 L530.8,255.3 L590.6,194.3 L650.4,202.2 L710.2,242.4 L770.1,269.4" fill="none" stroke="#c0392b" stroke-width="2.2" stroke-linejoin="round" stroke-dasharray="4,3" opacity="0.9"/>
<circle cx="111.9" cy="187.2" r="5" fill="#c0392b" opacity="0.9"><title>RF_KILLN VOH | 0.8/1.8 | ffss | Chip: 43407</title></circle>
<circle cx="171.8" cy="193.9" r="5" fill="#c0392b" opacity="0.9"><title>RF_KILLN VOH | 0.8/1.8 | ffss | Chip: 43407</title></circle>
<circle cx="231.6" cy="228.8" r="5" fill="#c0392b" opacity="0.9"><title>RF_KILLN VOH | 0.8/1.8 | ffss | Chip: 43407</title></circle>
<circle cx="291.4" cy="251.8" r="5" fill="#c0392b" opacity="0.9"><title>RF_KILLN VOH | 0.8/1.8 | ffss | Chip: 43407</title></circle>
<circle cx="351.2" cy="189.7" r="5" fill="#c0392b" opacity="0.9"><title>RF_KILLN VOH | 0.8/1.8 | ffss | Chip: 43407</title></circle>
<circle cx="411.1" cy="195.5" r="5" fill="#c0392b" opacity="0.9"><title>RF_KILLN VOH | 0.8/1.8 | ffss | Chip: 43407</title></circle>
<circle cx="470.9" cy="231.9" r="5" fill="#c0392b" opacity="0.9"><title>RF_KILLN VOH | 0.8/1.8 | ffss | Chip: 43407</title></circle>
<circle cx="530.8" cy="255.3" r="5" fill="#c0392b" opacity="0.9"><title>RF_KILLN VOH | 0.8/1.8 | ffss | Chip: 43407</title></circle>
<circle cx="590.6" cy="194.3" r="5" fill="#c0392b" opacity="0.9"><title>RF_KILLN VOH | 0.8/1.8 | ffss | Chip: 43407</title></circle>
<circle cx="650.4" cy="202.2" r="5" fill="#c0392b" opacity="0.9"><title>RF_KILLN VOH | 0.8/1.8 | ffss | Chip: 43407</title></circle>
<circle cx="710.2" cy="242.4" r="5" fill="#c0392b" opacity="0.9"><title>RF_KILLN VOH | 0.8/1.8 | ffss | Chip: 43407</title></circle>
<circle cx="770.1" cy="269.4" r="5" fill="#c0392b" opacity="0.9"><title>RF_KILLN VOH | 0.8/1.8 | ffss | Chip: 43407</title></circle>
</g>
<g class="series" data-viocore="0.8/1.8" data-skew="fftt">
<path d="M111.9,200.7 L171.8,215.3 L231.6,265.4 L291.4,305.9 L351.2,191.5 L411.1,200.0 L470.9,240.4 L530.8,268.4 L590.6,214.4 L650.4,232.3 L710.2,291.4 L770.1,342.9" fill="none" stroke="#2980b9" stroke-width="2.2" stroke-linejoin="round" stroke-dasharray="10,3,3,3" opacity="0.9"/>
<circle cx="111.9" cy="200.7" r="5" fill="#2980b9" opacity="0.9"><title>RF_KILLN VOH | 0.8/1.8 | fftt | Chip: 15382</title></circle>
<circle cx="171.8" cy="215.3" r="5" fill="#2980b9" opacity="0.9"><title>RF_KILLN VOH | 0.8/1.8 | fftt | Chip: 15382</title></circle>
<circle cx="231.6" cy="265.4" r="5" fill="#2980b9" opacity="0.9"><title>RF_KILLN VOH | 0.8/1.8 | fftt | Chip: 15382</title></circle>
<circle cx="291.4" cy="305.9" r="5" fill="#2980b9" opacity="0.9"><title>RF_KILLN VOH | 0.8/1.8 | fftt | Chip: 15382</title></circle>
<circle cx="351.2" cy="191.5" r="5" fill="#2980b9" opacity="0.9"><title>RF_KILLN VOH | 0.8/1.8 | fftt | Chip: 15382</title></circle>
<circle cx="411.1" cy="200.0" r="5" fill="#2980b9" opacity="0.9"><title>RF_KILLN VOH | 0.8/1.8 | fftt | Chip: 15382</title></circle>
<circle cx="470.9" cy="240.4" r="5" fill="#2980b9" opacity="0.9"><title>RF_KILLN VOH | 0.8/1.8 | fftt | Chip: 15382</title></circle>
<circle cx="530.8" cy="268.4" r="5" fill="#2980b9" opacity="0.9"><title>RF_KILLN VOH | 0.8/1.8 | fftt | Chip: 15382</title></circle>
<circle cx="590.6" cy="214.4" r="5" fill="#2980b9" opacity="0.9"><title>RF_KILLN VOH | 0.8/1.8 | fftt | Chip: 13967</title></circle>
<circle cx="650.4" cy="232.3" r="5" fill="#2980b9" opacity="0.9"><title>RF_KILLN VOH | 0.8/1.8 | fftt | Chip: 13967</title></circle>
<circle cx="710.2" cy="291.4" r="5" fill="#2980b9" opacity="0.9"><title>RF_KILLN VOH | 0.8/1.8 | fftt | Chip: 13967</title></circle>
<circle cx="770.1" cy="342.9" r="5" fill="#2980b9" opacity="0.9"><title>RF_KILLN VOH | 0.8/1.8 | fftt | Chip: 13967</title></circle>
</g>
<g class="series" data-viocore="0.8/1.8" data-skew="fstt">
<path d="M111.9,185.5 L171.8,192.3 L231.6,227.4 L291.4,250.6 L351.2,187.3 L411.1,193.5 L470.9,228.7 L530.8,252.1 L590.6,192.4 L650.4,201.1 L710.2,240.8 L770.1,268.2" fill="none" stroke="#27ae60" stroke-width="2.2" stroke-linejoin="round" opacity="0.9"/>
<circle cx="111.9" cy="185.5" r="5" fill="#27ae60" opacity="0.9"><title>RF_KILLN VOH | 0.8/1.8 | fstt | Chip: 62919</title></circle>
<circle cx="171.8" cy="192.3" r="5" fill="#27ae60" opacity="0.9"><title>RF_KILLN VOH | 0.8/1.8 | fstt | Chip: 62919</title></circle>
<circle cx="231.6" cy="227.4" r="5" fill="#27ae60" opacity="0.9"><title>RF_KILLN VOH | 0.8/1.8 | fstt | Chip: 62919</title></circle>
<circle cx="291.4" cy="250.6" r="5" fill="#27ae60" opacity="0.9"><title>RF_KILLN VOH | 0.8/1.8 | fstt | Chip: 62919</title></circle>
<circle cx="351.2" cy="187.3" r="5" fill="#27ae60" opacity="0.9"><title>RF_KILLN VOH | 0.8/1.8 | fstt | Chip: 12566</title></circle>
<circle cx="411.1" cy="193.5" r="5" fill="#27ae60" opacity="0.9"><title>RF_KILLN VOH | 0.8/1.8 | fstt | Chip: 62919</title></circle>
<circle cx="470.9" cy="228.7" r="5" fill="#27ae60" opacity="0.9"><title>RF_KILLN VOH | 0.8/1.8 | fstt | Chip: 62919</title></circle>
<circle cx="530.8" cy="252.1" r="5" fill="#27ae60" opacity="0.9"><title>RF_KILLN VOH | 0.8/1.8 | fstt | Chip: 62919</title></circle>
<circle cx="590.6" cy="192.4" r="5" fill="#27ae60" opacity="0.9"><title>RF_KILLN VOH | 0.8/1.8 | fstt | Chip: 62919</title></circle>
<circle cx="650.4" cy="201.1" r="5" fill="#27ae60" opacity="0.9"><title>RF_KILLN VOH | 0.8/1.8 | fstt | Chip: 62919</title></circle>
<circle cx="710.2" cy="240.8" r="5" fill="#27ae60" opacity="0.9"><title>RF_KILLN VOH | 0.8/1.8 | fstt | Chip: 62919</title></circle>
<circle cx="770.1" cy="268.2" r="5" fill="#27ae60" opacity="0.9"><title>RF_KILLN VOH | 0.8/1.8 | fstt | Chip: 62919</title></circle>
</g>
<g class="series" data-viocore="0.8/1.8" data-skew="sftt">
<path d="M111.9,183.6 L171.8,189.4 L231.6,223.3 L291.4,245.4 L351.2,185.5 L411.1,191.9 L470.9,226.3 L530.8,248.9 L590.6,188.8 L650.4,196.4 L710.2,233.5 L770.1,258.6" fill="none" stroke="#8e44ad" stroke-width="2.2" stroke-linejoin="round" stroke-dasharray="8,3" opacity="0.9"/>
<circle cx="111.9" cy="183.6" r="5" fill="#8e44ad" opacity="0.9"><title>RF_KILLN VOH | 0.8/1.8 | sftt | Chip: 69627</title></circle>
<circle cx="171.8" cy="189.4" r="5" fill="#8e44ad" opacity="0.9"><title>RF_KILLN VOH | 0.8/1.8 | sftt | Chip: 44565</title></circle>
<circle cx="231.6" cy="223.3" r="5" fill="#8e44ad" opacity="0.9"><title>RF_KILLN VOH | 0.8/1.8 | sftt | Chip: 69627</title></circle>
<circle cx="291.4" cy="245.4" r="5" fill="#8e44ad" opacity="0.9"><title>RF_KILLN VOH | 0.8/1.8 | sftt | Chip: 76687</title></circle>
<circle cx="351.2" cy="185.5" r="5" fill="#8e44ad" opacity="0.9"><title>RF_KILLN VOH | 0.8/1.8 | sftt | Chip: 69627</title></circle>
<circle cx="411.1" cy="191.9" r="5" fill="#8e44ad" opacity="0.9"><title>RF_KILLN VOH | 0.8/1.8 | sftt | Chip: 44565</title></circle>
<circle cx="470.9" cy="226.3" r="5" fill="#8e44ad" opacity="0.9"><title>RF_KILLN VOH | 0.8/1.8 | sftt | Chip: 69627</title></circle>
<circle cx="530.8" cy="248.9" r="5" fill="#8e44ad" opacity="0.9"><title>RF_KILLN VOH | 0.8/1.8 | sftt | Chip: 44565</title></circle>
<circle cx="590.6" cy="188.8" r="5" fill="#8e44ad" opacity="0.9"><title>RF_KILLN VOH | 0.8/1.8 | sftt | Chip: 69627</title></circle>
<circle cx="650.4" cy="196.4" r="5" fill="#8e44ad" opacity="0.9"><title>RF_KILLN VOH | 0.8/1.8 | sftt | Chip: 69627</title></circle>
<circle cx="710.2" cy="233.5" r="5" fill="#8e44ad" opacity="0.9"><title>RF_KILLN VOH | 0.8/1.8 | sftt | Chip: 69627</title></circle>
<circle cx="770.1" cy="258.6" r="5" fill="#8e44ad" opacity="0.9"><title>RF_KILLN VOH | 0.8/1.8 | sftt | Chip: 69627</title></circle>
</g>
<g class="series" data-viocore="0.8/1.8" data-skew="ssff">
<path d="M111.9,186.8 L171.8,194.4 L231.6,231.9 L291.4,257.9 L351.2,185.4 L411.1,192.1 L470.9,226.5 L530.8,249.9 L590.6,188.8 L650.4,196.8 L710.2,234.2 L770.1,260.0" fill="none" stroke="#d35400" stroke-width="2.2" stroke-linejoin="round" stroke-dasharray="4,3" opacity="0.9"/>
<circle cx="111.9" cy="186.8" r="5" fill="#d35400" opacity="0.9"><title>RF_KILLN VOH | 0.8/1.8 | ssff | Chip: 57571</title></circle>
<circle cx="171.8" cy="194.4" r="5" fill="#d35400" opacity="0.9"><title>RF_KILLN VOH | 0.8/1.8 | ssff | Chip: 57571</title></circle>
<circle cx="231.6" cy="231.9" r="5" fill="#d35400" opacity="0.9"><title>RF_KILLN VOH | 0.8/1.8 | ssff | Chip: 57571</title></circle>
<circle cx="291.4" cy="257.9" r="5" fill="#d35400" opacity="0.9"><title>RF_KILLN VOH | 0.8/1.8 | ssff | Chip: 57571</title></circle>
<circle cx="351.2" cy="185.4" r="5" fill="#d35400" opacity="0.9"><title>RF_KILLN VOH | 0.8/1.8 | ssff | Chip: 57571</title></circle>
<circle cx="411.1" cy="192.1" r="5" fill="#d35400" opacity="0.9"><title>RF_KILLN VOH | 0.8/1.8 | ssff | Chip: 57571</title></circle>
<circle cx="470.9" cy="226.5" r="5" fill="#d35400" opacity="0.9"><title>RF_KILLN VOH | 0.8/1.8 | ssff | Chip: 96040</title></circle>
<circle cx="530.8" cy="249.9" r="5" fill="#d35400" opacity="0.9"><title>RF_KILLN VOH | 0.8/1.8 | ssff | Chip: 57571</title></circle>
<circle cx="590.6" cy="188.8" r="5" fill="#d35400" opacity="0.9"><title>RF_KILLN VOH | 0.8/1.8 | ssff | Chip: 96040</title></circle>
<circle cx="650.4" cy="196.8" r="5" fill="#d35400" opacity="0.9"><title>RF_KILLN VOH | 0.8/1.8 | ssff | Chip: 96040</title></circle>
<circle cx="710.2" cy="234.2" r="5" fill="#d35400" opacity="0.9"><title>RF_KILLN VOH | 0.8/1.8 | ssff | Chip: 96040</title></circle>
<circle cx="770.1" cy="260.0" r="5" fill="#d35400" opacity="0.9"><title>RF_KILLN VOH | 0.8/1.8 | ssff | Chip: 96040</title></circle>
</g>
<g class="series" data-viocore="0.8/1.8" data-skew="sstt">
<path d="M111.9,184.4 L171.8,190.7 L231.6,224.6 L291.4,247.2 L351.2,186.5 L411.1,193.1 L470.9,227.8 L530.8,251.0 L590.6,190.3 L650.4,198.9 L710.2,237.4 L770.1,264.1" fill="none" stroke="#16a085" stroke-width="2.2" stroke-linejoin="round" stroke-dasharray="10,3,3,3" opacity="0.9"/>
<circle cx="111.9" cy="184.4" r="5" fill="#16a085" opacity="0.9"><title>RF_KILLN VOH | 0.8/1.8 | sstt | Chip: 58046</title></circle>
<circle cx="171.8" cy="190.7" r="5" fill="#16a085" opacity="0.9"><title>RF_KILLN VOH | 0.8/1.8 | sstt | Chip: 9808</title></circle>
<circle cx="231.6" cy="224.6" r="5" fill="#16a085" opacity="0.9"><title>RF_KILLN VOH | 0.8/1.8 | sstt | Chip: 9808</title></circle>
<circle cx="291.4" cy="247.2" r="5" fill="#16a085" opacity="0.9"><title>RF_KILLN VOH | 0.8/1.8 | sstt | Chip: 9808</title></circle>
<circle cx="351.2" cy="186.5" r="5" fill="#16a085" opacity="0.9"><title>RF_KILLN VOH | 0.8/1.8 | sstt | Chip: 58046</title></circle>
<circle cx="411.1" cy="193.1" r="5" fill="#16a085" opacity="0.9"><title>RF_KILLN VOH | 0.8/1.8 | sstt | Chip: 58046</title></circle>
<circle cx="470.9" cy="227.8" r="5" fill="#16a085" opacity="0.9"><title>RF_KILLN VOH | 0.8/1.8 | sstt | Chip: 9808</title></circle>
<circle cx="530.8" cy="251.0" r="5" fill="#16a085" opacity="0.9"><title>RF_KILLN VOH | 0.8/1.8 | sstt | Chip: 9808</title></circle>
<circle cx="590.6" cy="190.3" r="5" fill="#16a085" opacity="0.9"><title>RF_KILLN VOH | 0.8/1.8 | sstt | Chip: 9808</title></circle>
<circle cx="650.4" cy="198.9" r="5" fill="#16a085" opacity="0.9"><title>RF_KILLN VOH | 0.8/1.8 | sstt | Chip: 9808</title></circle>
<circle cx="710.2" cy="237.4" r="5" fill="#16a085" opacity="0.9"><title>RF_KILLN VOH | 0.8/1.8 | sstt | Chip: 9808</title></circle>
<circle cx="770.1" cy="264.1" r="5" fill="#16a085" opacity="0.9"><title>RF_KILLN VOH | 0.8/1.8 | sstt | Chip: 9808</title></circle>
</g>
<g class="series" data-viocore="0.96/1.98" data-skew="ffss">
<path d="M111.9,112.3 L171.8,119.2 L231.6,153.4 L291.4,176.1 L351.2,114.7 L411.1,120.9 L470.9,156.4 L530.8,179.4 L590.6,119.5 L650.4,128.1 L710.2,166.8 L770.1,193.6" fill="none" stroke="#3498db" stroke-width="2.2" stroke-linejoin="round" opacity="0.9"/>
<circle cx="111.9" cy="112.3" r="5" fill="#3498db" opacity="0.9"><title>RF_KILLN VOH | 0.96/1.98 | ffss | Chip: 43407</title></circle>
<circle cx="171.8" cy="119.2" r="5" fill="#3498db" opacity="0.9"><title>RF_KILLN VOH | 0.96/1.98 | ffss | Chip: 43407</title></circle>
<circle cx="231.6" cy="153.4" r="5" fill="#3498db" opacity="0.9"><title>RF_KILLN VOH | 0.96/1.98 | ffss | Chip: 43407</title></circle>
<circle cx="291.4" cy="176.1" r="5" fill="#3498db" opacity="0.9"><title>RF_KILLN VOH | 0.96/1.98 | ffss | Chip: 43407</title></circle>
<circle cx="351.2" cy="114.7" r="5" fill="#3498db" opacity="0.9"><title>RF_KILLN VOH | 0.96/1.98 | ffss | Chip: 43407</title></circle>
<circle cx="411.1" cy="120.9" r="5" fill="#3498db" opacity="0.9"><title>RF_KILLN VOH | 0.96/1.98 | ffss | Chip: 43407</title></circle>
<circle cx="470.9" cy="156.4" r="5" fill="#3498db" opacity="0.9"><title>RF_KILLN VOH | 0.96/1.98 | ffss | Chip: 43407</title></circle>
<circle cx="530.8" cy="179.4" r="5" fill="#3498db" opacity="0.9"><title>RF_KILLN VOH | 0.96/1.98 | ffss | Chip: 43407</title></circle>
<circle cx="590.6" cy="119.5" r="5" fill="#3498db" opacity="0.9"><title>RF_KILLN VOH | 0.96/1.98 | ffss | Chip: 43407</title></circle>
<circle cx="650.4" cy="128.1" r="5" fill="#3498db" opacity="0.9"><title>RF_KILLN VOH | 0.96/1.98 | ffss | Chip: 43407</title></circle>
<circle cx="710.2" cy="166.8" r="5" fill="#3498db" opacity="0.9"><title>RF_KILLN VOH | 0.96/1.98 | ffss | Chip: 43407</title></circle>
<circle cx="770.1" cy="193.6" r="5" fill="#3498db" opacity="0.9"><title>RF_KILLN VOH | 0.96/1.98 | ffss | Chip: 43407</title></circle>
</g>
<g class="series" data-viocore="0.96/1.98" data-skew="fftt">
<path d="M111.9,126.8 L171.8,140.8 L231.6,190.8 L291.4,230.9 L351.2,117.0 L411.1,126.0 L470.9,164.9 L530.8,192.8 L590.6,140.8 L650.4,157.9 L710.2,216.6 L770.1,267.5" fill="none" stroke="#e74c3c" stroke-width="2.2" stroke-linejoin="round" stroke-dasharray="8,3" opacity="0.9"/>
<circle cx="111.9" cy="126.8" r="5" fill="#e74c3c" opacity="0.9"><title>RF_KILLN VOH | 0.96/1.98 | fftt | Chip: 15382</title></circle>
<circle cx="171.8" cy="140.8" r="5" fill="#e74c3c" opacity="0.9"><title>RF_KILLN VOH | 0.96/1.98 | fftt | Chip: 15382</title></circle>
<circle cx="231.6" cy="190.8" r="5" fill="#e74c3c" opacity="0.9"><title>RF_KILLN VOH | 0.96/1.98 | fftt | Chip: 15382</title></circle>
<circle cx="291.4" cy="230.9" r="5" fill="#e74c3c" opacity="0.9"><title>RF_KILLN VOH | 0.96/1.98 | fftt | Chip: 15382</title></circle>
<circle cx="351.2" cy="117.0" r="5" fill="#e74c3c" opacity="0.9"><title>RF_KILLN VOH | 0.96/1.98 | fftt | Chip: 15382</title></circle>
<circle cx="411.1" cy="126.0" r="5" fill="#e74c3c" opacity="0.9"><title>RF_KILLN VOH | 0.96/1.98 | fftt | Chip: 15382</title></circle>
<circle cx="470.9" cy="164.9" r="5" fill="#e74c3c" opacity="0.9"><title>RF_KILLN VOH | 0.96/1.98 | fftt | Chip: 15382</title></circle>
<circle cx="530.8" cy="192.8" r="5" fill="#e74c3c" opacity="0.9"><title>RF_KILLN VOH | 0.96/1.98 | fftt | Chip: 15382</title></circle>
<circle cx="590.6" cy="140.8" r="5" fill="#e74c3c" opacity="0.9"><title>RF_KILLN VOH | 0.96/1.98 | fftt | Chip: 13967</title></circle>
<circle cx="650.4" cy="157.9" r="5" fill="#e74c3c" opacity="0.9"><title>RF_KILLN VOH | 0.96/1.98 | fftt | Chip: 13967</title></circle>
<circle cx="710.2" cy="216.6" r="5" fill="#e74c3c" opacity="0.9"><title>RF_KILLN VOH | 0.96/1.98 | fftt | Chip: 13967</title></circle>
<circle cx="770.1" cy="267.5" r="5" fill="#e74c3c" opacity="0.9"><title>RF_KILLN VOH | 0.96/1.98 | fftt | Chip: 13967</title></circle>
</g>
<g class="series" data-viocore="0.96/1.98" data-skew="fstt">
<path d="M111.9,110.8 L171.8,117.9 L231.6,151.8 L291.4,174.7 L351.2,112.5 L411.1,118.9 L470.9,153.2 L530.8,176.1 L590.6,117.6 L650.4,126.2 L710.2,164.8 L770.1,191.7" fill="none" stroke="#2ecc71" stroke-width="2.2" stroke-linejoin="round" stroke-dasharray="4,3" opacity="0.9"/>
<circle cx="111.9" cy="110.8" r="5" fill="#2ecc71" opacity="0.9"><title>RF_KILLN VOH | 0.96/1.98 | fstt | Chip: 62919</title></circle>
<circle cx="171.8" cy="117.9" r="5" fill="#2ecc71" opacity="0.9"><title>RF_KILLN VOH | 0.96/1.98 | fstt | Chip: 62919</title></circle>
<circle cx="231.6" cy="151.8" r="5" fill="#2ecc71" opacity="0.9"><title>RF_KILLN VOH | 0.96/1.98 | fstt | Chip: 62919</title></circle>
<circle cx="291.4" cy="174.7" r="5" fill="#2ecc71" opacity="0.9"><title>RF_KILLN VOH | 0.96/1.98 | fstt | Chip: 62919</title></circle>
<circle cx="351.2" cy="112.5" r="5" fill="#2ecc71" opacity="0.9"><title>RF_KILLN VOH | 0.96/1.98 | fstt | Chip: 12566</title></circle>
<circle cx="411.1" cy="118.9" r="5" fill="#2ecc71" opacity="0.9"><title>RF_KILLN VOH | 0.96/1.98 | fstt | Chip: 62919</title></circle>
<circle cx="470.9" cy="153.2" r="5" fill="#2ecc71" opacity="0.9"><title>RF_KILLN VOH | 0.96/1.98 | fstt | Chip: 62919</title></circle>
<circle cx="530.8" cy="176.1" r="5" fill="#2ecc71" opacity="0.9"><title>RF_KILLN VOH | 0.96/1.98 | fstt | Chip: 62919</title></circle>
<circle cx="590.6" cy="117.6" r="5" fill="#2ecc71" opacity="0.9"><title>RF_KILLN VOH | 0.96/1.98 | fstt | Chip: 62919</title></circle>
<circle cx="650.4" cy="126.2" r="5" fill="#2ecc71" opacity="0.9"><title>RF_KILLN VOH | 0.96/1.98 | fstt | Chip: 62919</title></circle>
<circle cx="710.2" cy="164.8" r="5" fill="#2ecc71" opacity="0.9"><title>RF_KILLN VOH | 0.96/1.98 | fstt | Chip: 62919</title></circle>
<circle cx="770.1" cy="191.7" r="5" fill="#2ecc71" opacity="0.9"><title>RF_KILLN VOH | 0.96/1.98 | fstt | Chip: 62919</title></circle>
</g>
<g class="series" data-viocore="0.96/1.98" data-skew="sftt">
<path d="M111.9,109.2 L171.8,115.1 L231.6,148.3 L291.4,169.9 L351.2,111.2 L411.1,117.6 L470.9,151.1 L530.8,173.5 L590.6,114.4 L650.4,121.4 L710.2,158.2 L770.1,182.5" fill="none" stroke="#9b59b6" stroke-width="2.2" stroke-linejoin="round" stroke-dasharray="10,3,3,3" opacity="0.9"/>
<circle cx="111.9" cy="109.2" r="5" fill="#9b59b6" opacity="0.9"><title>RF_KILLN VOH | 0.96/1.98 | sftt | Chip: 69627</title></circle>
<circle cx="171.8" cy="115.1" r="5" fill="#9b59b6" opacity="0.9"><title>RF_KILLN VOH | 0.96/1.98 | sftt | Chip: 44565</title></circle>
<circle cx="231.6" cy="148.3" r="5" fill="#9b59b6" opacity="0.9"><title>RF_KILLN VOH | 0.96/1.98 | sftt | Chip: 76687</title></circle>
<circle cx="291.4" cy="169.9" r="5" fill="#9b59b6" opacity="0.9"><title>RF_KILLN VOH | 0.96/1.98 | sftt | Chip: 76687</title></circle>
<circle cx="351.2" cy="111.2" r="5" fill="#9b59b6" opacity="0.9"><title>RF_KILLN VOH | 0.96/1.98 | sftt | Chip: 69627</title></circle>
<circle cx="411.1" cy="117.6" r="5" fill="#9b59b6" opacity="0.9"><title>RF_KILLN VOH | 0.96/1.98 | sftt | Chip: 69627</title></circle>
<circle cx="470.9" cy="151.1" r="5" fill="#9b59b6" opacity="0.9"><title>RF_KILLN VOH | 0.96/1.98 | sftt | Chip: 69627</title></circle>
<circle cx="530.8" cy="173.5" r="5" fill="#9b59b6" opacity="0.9"><title>RF_KILLN VOH | 0.96/1.98 | sftt | Chip: 44565</title></circle>
<circle cx="590.6" cy="114.4" r="5" fill="#9b59b6" opacity="0.9"><title>RF_KILLN VOH | 0.96/1.98 | sftt | Chip: 69627</title></circle>
<circle cx="650.4" cy="121.4" r="5" fill="#9b59b6" opacity="0.9"><title>RF_KILLN VOH | 0.96/1.98 | sftt | Chip: 69627</title></circle>
<circle cx="710.2" cy="158.2" r="5" fill="#9b59b6" opacity="0.9"><title>RF_KILLN VOH | 0.96/1.98 | sftt | Chip: 69627</title></circle>
<circle cx="770.1" cy="182.5" r="5" fill="#9b59b6" opacity="0.9"><title>RF_KILLN VOH | 0.96/1.98 | sftt | Chip: 69627</title></circle>
</g>
<g class="series" data-viocore="0.96/1.98" data-skew="ssff">
<path d="M111.9,112.3 L171.8,120.6 L231.6,156.6 L291.4,182.1 L351.2,110.9 L411.1,117.0 L470.9,151.4 L530.8,174.4 L590.6,113.9 L650.4,121.8 L710.2,158.2 L770.1,183.6" fill="none" stroke="#e67e22" stroke-width="2.2" stroke-linejoin="round" opacity="0.9"/>
<circle cx="111.9" cy="112.3" r="5" fill="#e67e22" opacity="0.9"><title>RF_KILLN VOH | 0.96/1.98 | ssff | Chip: 57571</title></circle>
<circle cx="171.8" cy="120.6" r="5" fill="#e67e22" opacity="0.9"><title>RF_KILLN VOH | 0.96/1.98 | ssff | Chip: 57571</title></circle>
<circle cx="231.6" cy="156.6" r="5" fill="#e67e22" opacity="0.9"><title>RF_KILLN VOH | 0.96/1.98 | ssff | Chip: 57571</title></circle>
<circle cx="291.4" cy="182.1" r="5" fill="#e67e22" opacity="0.9"><title>RF_KILLN VOH | 0.96/1.98 | ssff | Chip: 57571</title></circle>
<circle cx="351.2" cy="110.9" r="5" fill="#e67e22" opacity="0.9"><title>RF_KILLN VOH | 0.96/1.98 | ssff | Chip: 57571</title></circle>
<circle cx="411.1" cy="117.0" r="5" fill="#e67e22" opacity="0.9"><title>RF_KILLN VOH | 0.96/1.98 | ssff | Chip: 57571</title></circle>
<circle cx="470.9" cy="151.4" r="5" fill="#e67e22" opacity="0.9"><title>RF_KILLN VOH | 0.96/1.98 | ssff | Chip: 57571</title></circle>
<circle cx="530.8" cy="174.4" r="5" fill="#e67e22" opacity="0.9"><title>RF_KILLN VOH | 0.96/1.98 | ssff | Chip: 57571</title></circle>
<circle cx="590.6" cy="113.9" r="5" fill="#e67e22" opacity="0.9"><title>RF_KILLN VOH | 0.96/1.98 | ssff | Chip: 96040</title></circle>
<circle cx="650.4" cy="121.8" r="5" fill="#e67e22" opacity="0.9"><title>RF_KILLN VOH | 0.96/1.98 | ssff | Chip: 96040</title></circle>
<circle cx="710.2" cy="158.2" r="5" fill="#e67e22" opacity="0.9"><title>RF_KILLN VOH | 0.96/1.98 | ssff | Chip: 96040</title></circle>
<circle cx="770.1" cy="183.6" r="5" fill="#e67e22" opacity="0.9"><title>RF_KILLN VOH | 0.96/1.98 | ssff | Chip: 96040</title></circle>
</g>
<g class="series" data-viocore="0.96/1.98" data-skew="sstt">
<path d="M111.9,109.7 L171.8,116.4 L231.6,149.5 L291.4,171.6 L351.2,111.7 L411.1,118.3 L470.9,152.3 L530.8,175.1 L590.6,115.6 L650.4,124.0 L710.2,161.5 L770.1,187.6" fill="none" stroke="#1abc9c" stroke-width="2.2" stroke-linejoin="round" stroke-dasharray="8,3" opacity="0.9"/>
<circle cx="111.9" cy="109.7" r="5" fill="#1abc9c" opacity="0.9"><title>RF_KILLN VOH | 0.96/1.98 | sstt | Chip: 58046</title></circle>
<circle cx="171.8" cy="116.4" r="5" fill="#1abc9c" opacity="0.9"><title>RF_KILLN VOH | 0.96/1.98 | sstt | Chip: 9808</title></circle>
<circle cx="231.6" cy="149.5" r="5" fill="#1abc9c" opacity="0.9"><title>RF_KILLN VOH | 0.96/1.98 | sstt | Chip: 9808</title></circle>
<circle cx="291.4" cy="171.6" r="5" fill="#1abc9c" opacity="0.9"><title>RF_KILLN VOH | 0.96/1.98 | sstt | Chip: 9808</title></circle>
<circle cx="351.2" cy="111.7" r="5" fill="#1abc9c" opacity="0.9"><title>RF_KILLN VOH | 0.96/1.98 | sstt | Chip: 58046</title></circle>
<circle cx="411.1" cy="118.3" r="5" fill="#1abc9c" opacity="0.9"><title>RF_KILLN VOH | 0.96/1.98 | sstt | Chip: 9808</title></circle>
<circle cx="470.9" cy="152.3" r="5" fill="#1abc9c" opacity="0.9"><title>RF_KILLN VOH | 0.96/1.98 | sstt | Chip: 9808</title></circle>
<circle cx="530.8" cy="175.1" r="5" fill="#1abc9c" opacity="0.9"><title>RF_KILLN VOH | 0.96/1.98 | sstt | Chip: 9808</title></circle>
<circle cx="590.6" cy="115.6" r="5" fill="#1abc9c" opacity="0.9"><title>RF_KILLN VOH | 0.96/1.98 | sstt | Chip: 9808</title></circle>
<circle cx="650.4" cy="124.0" r="5" fill="#1abc9c" opacity="0.9"><title>RF_KILLN VOH | 0.96/1.98 | sstt | Chip: 9808</title></circle>
<circle cx="710.2" cy="161.5" r="5" fill="#1abc9c" opacity="0.9"><title>RF_KILLN VOH | 0.96/1.98 | sstt | Chip: 9808</title></circle>
<circle cx="770.1" cy="187.6" r="5" fill="#1abc9c" opacity="0.9"><title>RF_KILLN VOH | 0.96/1.98 | sstt | Chip: 9808</title></circle>
</g>
<line x1="82.0" y1="293.5" x2="800.0" y2="293.5" stroke="#e74c3c" stroke-width="1.8" stroke-dasharray="8,4"/>
<text x="805.0" y="297.5" font-size="9" font-weight="normal" text-anchor="start" fill="#e74c3c" font-family="Arial,sans-serif">Min spec: 1.35</text>
<g class="legend-item" data-viocore="0.64/1.62" data-skew="ffss">
<line x1="808" y1="77" x2="836" y2="77" stroke="#3498db" stroke-width="2.2" />
<circle cx="822" cy="77" r="4" fill="#3498db"/>
<text x="840" y="81" font-size="10" font-family="Arial,sans-serif" fill="#2c3e50">0.64/1.62 — ffss (43407)</text>
</g>
<g class="legend-item" data-viocore="0.64/1.62" data-skew="fftt">
<line x1="808" y1="99" x2="836" y2="99" stroke="#e74c3c" stroke-width="2.2" stroke-dasharray="8,3" />
<circle cx="822" cy="99" r="4" fill="#e74c3c"/>
<text x="840" y="103" font-size="10" font-family="Arial,sans-serif" fill="#2c3e50">0.64/1.62 — fftt (13967)</text>
</g>
<g class="legend-item" data-viocore="0.64/1.62" data-skew="fstt">
<line x1="808" y1="121" x2="836" y2="121" stroke="#2ecc71" stroke-width="2.2" stroke-dasharray="4,3" />
<circle cx="822" cy="121" r="4" fill="#2ecc71"/>
<text x="840" y="125" font-size="10" font-family="Arial,sans-serif" fill="#2c3e50">0.64/1.62 — fstt (62919)</text>
</g>
<g class="legend-item" data-viocore="0.64/1.62" data-skew="sftt">
<line x1="808" y1="143" x2="836" y2="143" stroke="#9b59b6" stroke-width="2.2" stroke-dasharray="10,3,3,3" />
<circle cx="822" cy="143" r="4" fill="#9b59b6"/>
<text x="840" y="147" font-size="10" font-family="Arial,sans-serif" fill="#2c3e50">0.64/1.62 — sftt (69627)</text>
</g>
<g class="legend-item" data-viocore="0.64/1.62" data-skew="ssff">
<line x1="808" y1="165" x2="836" y2="165" stroke="#e67e22" stroke-width="2.2" />
<circle cx="822" cy="165" r="4" fill="#e67e22"/>
<text x="840" y="169" font-size="10" font-family="Arial,sans-serif" fill="#2c3e50">0.64/1.62 — ssff (96040)</text>
</g>
<g class="legend-item" data-viocore="0.64/1.62" data-skew="sstt">
<line x1="808" y1="187" x2="836" y2="187" stroke="#1abc9c" stroke-width="2.2" stroke-dasharray="8,3" />
<circle cx="822" cy="187" r="4" fill="#1abc9c"/>
<text x="840" y="191" font-size="10" font-family="Arial,sans-serif" fill="#2c3e50">0.64/1.62 — sstt (9808)</text>
</g>
<g class="legend-item" data-viocore="0.8/1.8" data-skew="ffss">
<line x1="808" y1="209" x2="836" y2="209" stroke="#c0392b" stroke-width="2.2" stroke-dasharray="4,3" />
<circle cx="822" cy="209" r="4" fill="#c0392b"/>
<text x="840" y="213" font-size="10" font-family="Arial,sans-serif" fill="#2c3e50">0.8/1.8 — ffss (43407)</text>
</g>
<g class="legend-item" data-viocore="0.8/1.8" data-skew="fftt">
<line x1="808" y1="231" x2="836" y2="231" stroke="#2980b9" stroke-width="2.2" stroke-dasharray="10,3,3,3" />
<circle cx="822" cy="231" r="4" fill="#2980b9"/>
<text x="840" y="235" font-size="10" font-family="Arial,sans-serif" fill="#2c3e50">0.8/1.8 — fftt (13967)</text>
</g>
<g class="legend-item" data-viocore="0.8/1.8" data-skew="fstt">
<line x1="808" y1="253" x2="836" y2="253" stroke="#27ae60" stroke-width="2.2" />
<circle cx="822" cy="253" r="4" fill="#27ae60"/>
<text x="840" y="257" font-size="10" font-family="Arial,sans-serif" fill="#2c3e50">0.8/1.8 — fstt (62919)</text>
</g>
<g class="legend-item" data-viocore="0.8/1.8" data-skew="sftt">
<line x1="808" y1="275" x2="836" y2="275" stroke="#8e44ad" stroke-width="2.2" stroke-dasharray="8,3" />
<circle cx="822" cy="275" r="4" fill="#8e44ad"/>
<text x="840" y="279" font-size="10" font-family="Arial,sans-serif" fill="#2c3e50">0.8/1.8 — sftt (69627)</text>
</g>
<g class="legend-item" data-viocore="0.8/1.8" data-skew="ssff">
<line x1="808" y1="297" x2="836" y2="297" stroke="#d35400" stroke-width="2.2" stroke-dasharray="4,3" />
<circle cx="822" cy="297" r="4" fill="#d35400"/>
<text x="840" y="301" font-size="10" font-family="Arial,sans-serif" fill="#2c3e50">0.8/1.8 — ssff (96040)</text>
</g>
<g class="legend-item" data-viocore="0.8/1.8" data-skew="sstt">
<line x1="808" y1="319" x2="836" y2="319" stroke="#16a085" stroke-width="2.2" stroke-dasharray="10,3,3,3" />
<circle cx="822" cy="319" r="4" fill="#16a085"/>
<text x="840" y="323" font-size="10" font-family="Arial,sans-serif" fill="#2c3e50">0.8/1.8 — sstt (9808)</text>
</g>
<g class="legend-item" data-viocore="0.96/1.98" data-skew="ffss">
<line x1="808" y1="341" x2="836" y2="341" stroke="#3498db" stroke-width="2.2" />
<circle cx="822" cy="341" r="4" fill="#3498db"/>
<text x="840" y="345" font-size="10" font-family="Arial,sans-serif" fill="#2c3e50">0.96/1.98 — ffss (43407)</text>
</g>
<g class="legend-item" data-viocore="0.96/1.98" data-skew="fftt">
<line x1="808" y1="363" x2="836" y2="363" stroke="#e74c3c" stroke-width="2.2" stroke-dasharray="8,3" />
<circle cx="822" cy="363" r="4" fill="#e74c3c"/>
<text x="840" y="367" font-size="10" font-family="Arial,sans-serif" fill="#2c3e50">0.96/1.98 — fftt (13967)</text>
</g>
<g class="legend-item" data-viocore="0.96/1.98" data-skew="fstt">
<line x1="808" y1="385" x2="836" y2="385" stroke="#2ecc71" stroke-width="2.2" stroke-dasharray="4,3" />
<circle cx="822" cy="385" r="4" fill="#2ecc71"/>
<text x="840" y="389" font-size="10" font-family="Arial,sans-serif" fill="#2c3e50">0.96/1.98 — fstt (62919)</text>
</g>
<g class="legend-item" data-viocore="0.96/1.98" data-skew="sftt">
<line x1="808" y1="407" x2="836" y2="407" stroke="#9b59b6" stroke-width="2.2" stroke-dasharray="10,3,3,3" />
<circle cx="822" cy="407" r="4" fill="#9b59b6"/>
<text x="840" y="411" font-size="10" font-family="Arial,sans-serif" fill="#2c3e50">0.96/1.98 — sftt (69627)</text>
</g>
<g class="legend-item" data-viocore="0.96/1.98" data-skew="ssff">
<line x1="808" y1="429" x2="836" y2="429" stroke="#e67e22" stroke-width="2.2" />
<circle cx="822" cy="429" r="4" fill="#e67e22"/>
<text x="840" y="433" font-size="10" font-family="Arial,sans-serif" fill="#2c3e50">0.96/1.98 — ssff (96040)</text>
</g>
<g class="legend-item" data-viocore="0.96/1.98" data-skew="sstt">
<line x1="808" y1="451" x2="836" y2="451" stroke="#1abc9c" stroke-width="2.2" stroke-dasharray="8,3" />
<circle cx="822" cy="451" r="4" fill="#1abc9c"/>
<text x="840" y="455" font-size="10" font-family="Arial,sans-serif" fill="#2c3e50">0.96/1.98 — sstt (9808)</text>
</g>
</svg>