<svg xmlns="http://www.w3.org/2000/svg" width="860" height="526" viewBox="0 0 860 526">
<rect width="860" height="526" fill="#ffffff"/>
<text x="430.0" y="28.0" font-size="16" font-weight="bold" text-anchor="middle" fill="#2c3e50" font-family="Arial,sans-serif">RF_KILLN  [PB12DSFS_18_T33_H] — VOH (V)  DS=DS_2  [VOH/VOL]</text>
<line x1="82.0" y1="426.0" x2="680.0" y2="426.0" stroke="#999" stroke-width="1"/>
<line x1="82.0" y1="72.0" x2="82.0" y2="426.0" stroke="#999" stroke-width="1"/>
<line x1="82.0" y1="72.0" x2="82.0" y2="426.0" stroke="#999" stroke-width="1"/>
<line x1="77.0" y1="426.0" x2="82.0" y2="426.0" stroke="#999" stroke-width="1"/>
<line x1="82.0" y1="426.0" x2="680.0" y2="426.0" stroke="#e0e0e0" stroke-width="0.8" stroke-dasharray="3,3"/>
<text x="74.0" y="430.0" font-size="9" font-weight="normal" text-anchor="end" fill="#7f8c8d" font-family="Arial,sans-serif">1.09</text>
<line x1="77.0" y1="355.2" x2="82.0" y2="355.2" stroke="#999" stroke-width="1"/>
<line x1="82.0" y1="355.2" x2="680.0" y2="355.2" stroke="#e0e0e0" stroke-width="0.8" stroke-dasharray="3,3"/>
<text x="74.0" y="359.2" font-size="9" font-weight="normal" text-anchor="end" fill="#7f8c8d" font-family="Arial,sans-serif">1.24</text>
<line x1="77.0" y1="284.4" x2="82.0" y2="284.4" stroke="#999" stroke-width="1"/>
<line x1="82.0" y1="284.4" x2="680.0" y2="284.4" stroke="#e0e0e0" stroke-width="0.8" stroke-dasharray="3,3"/>
<text x="74.0" y="288.4" font-size="9" font-weight="normal" text-anchor="end" fill="#7f8c8d" font-family="Arial,sans-serif">1.39</text>
<line x1="77.0" y1="213.6" x2="82.0" y2="213.6" stroke="#999" stroke-width="1"/>
<line x1="82.0" y1="213.6" x2="680.0" y2="213.6" stroke="#e0e0e0" stroke-width="0.8" stroke-dasharray="3,3"/>
<text x="74.0" y="217.6" font-size="9" font-weight="normal" text-anchor="end" fill="#7f8c8d" font-family="Arial,sans-serif">1.54</text>
<line x1="77.0" y1="142.8" x2="82.0" y2="142.8" stroke="#999" stroke-width="1"/>
<line x1="82.0" y1="142.8" x2="680.0" y2="142.8" stroke="#e0e0e0" stroke-width="0.8" stroke-dasharray="3,3"/>
<text x="74.0" y="146.8" font-size="9" font-weight="normal" text-anchor="end" fill="#7f8c8d" font-family="Arial,sans-serif">1.69</text>
<line x1="77.0" y1="72.0" x2="82.0" y2="72.0" stroke="#999" stroke-width="1"/>
<line x1="82.0" y1="72.0" x2="680.0" y2="72.0" stroke="#e0e0e0" stroke-width="0.8" stroke-dasharray="3,3"/>
<text x="74.0" y="76.0" font-size="9" font-weight="normal" text-anchor="end" fill="#7f8c8d" font-family="Arial,sans-serif">1.84</text>
<text x="14.0" y="249.0" font-size="10" font-weight="normal" text-anchor="middle" fill="#7f8c8d" font-family="Arial,sans-serif" transform="rotate(-90,14,249.0)">VOH (V)</text>
<text x="115.2" y="440.0" font-size="8" font-weight="normal" text-anchor="end" fill="#333" font-family="Arial,sans-serif" transform="rotate(-45,115.2,440)">VIO=1.62
VC=0.64</text>
<text x="181.7" y="440.0" font-size="8" font-weight="normal" text-anchor="end" fill="#333" font-family="Arial,sans-serif" transform="rotate(-45,181.7,440)">VIO=1.8
VC=0.8</text>
<text x="248.1" y="440.0" font-size="8" font-weight="normal" text-anchor="end" fill="#333" font-family="Arial,sans-serif" transform="rotate(-45,248.1,440)">VIO=1.98
VC=0.96</text>
<line x1="281.3" y1="72.0" x2="281.3" y2="426.0" stroke="#cccccc" stroke-width="1" stroke-dasharray="4,3"/>
<text x="314.6" y="440.0" font-size="8" font-weight="normal" text-anchor="end" fill="#333" font-family="Arial,sans-serif" transform="rotate(-45,314.6,440)">VIO=1.62
VC=0.64</text>
<text x="381.0" y="440.0" font-size="8" font-weight="normal" text-anchor="end" fill="#333" font-family="Arial,sans-serif" transform="rotate(-45,381.0,440)">VIO=1.8
VC=0.8</text>
<text x="447.4" y="440.0" font-size="8" font-weight="normal" text-anchor="end" fill="#333" font-family="Arial,sans-serif" transform="rotate(-45,447.4,440)">VIO=1.98
VC=0.96</text>
<line x1="480.7" y1="72.0" x2="480.7" y2="426.0" stroke="#cccccc" stroke-width="1" stroke-dasharray="4,3"/>
<text x="513.9" y="440.0" font-size="8" font-weight="normal" text-anchor="end" fill="#333" font-family="Arial,sans-serif" transform="rotate(-45,513.9,440)">VIO=1.62
VC=0.64</text>
<text x="580.3" y="440.0" font-size="8" font-weight="normal" text-anchor="end" fill="#333" font-family="Arial,sans-serif" transform="rotate(-45,580.3,440)">VIO=1.8
VC=0.8</text>
<text x="646.8" y="440.0" font-size="8" font-weight="normal" text-anchor="end" fill="#333" font-family="Arial,sans-serif" transform="rotate(-45,646.8,440)">VIO=1.98
VC=0.96</text>
<text x="181.7" y="62.0" font-size="10" font-weight="bold" text-anchor="middle" fill="#2c3e50" font-family="Arial,sans-serif">T=0°C</text>
<text x="381.0" y="62.0" font-size="10" font-weight="bold" text-anchor="middle" fill="#2c3e50" font-family="Arial,sans-serif">T=20°C</text>
<text x="580.3" y="62.0" font-size="10" font-weight="bold" text-anchor="middle" fill="#2c3e50" font-family="Arial,sans-serif">T=80°C</text>
<g class="series" data-skew="ffss" data-chip="25679">
<path d="M115.2,311.8 L181.7,222.7 L248.1,133.8 L314.6,315.9 L381.0,227.0 L447.4,137.6 L513.9,325.1 L580.3,234.9 L646.8,145.5" fill="none" stroke="#3498db" stroke-width="2.0" stroke-linejoin="round" opacity="0.85"/>
<circle cx="115.2" cy="311.8" r="5" fill="#3498db" opacity="0.9"><title>RF_KILLN VOH | ffss | Chip: 25679</title></circle>
<circle cx="181.7" cy="222.7" r="5" fill="#3498db" opacity="0.9"><title>RF_KILLN VOH | ffss | Chip: 25679</title></circle>
<circle cx="248.1" cy="133.8" r="5" fill="#3498db" opacity="0.9"><title>RF_KILLN VOH | ffss | Chip: 25679</title></circle>
<circle cx="314.6" cy="315.9" r="5" fill="#3498db" opacity="0.9"><title>RF_KILLN VOH | ffss | Chip: 25679</title></circle>
<circle cx="381.0" cy="227.0" r="5" fill="#3498db" opacity="0.9"><title>RF_KILLN VOH | ffss | Chip: 25679</title></circle>
<circle cx="447.4" cy="137.6" r="5" fill="#3498db" opacity="0.9"><title>RF_KILLN VOH | ffss | Chip: 25679</title></circle>
<circle cx="513.9" cy="325.1" r="5" fill="#3498db" opacity="0.9"><title>RF_KILLN VOH | ffss | Chip: 25679</title></circle>
<circle cx="580.3" cy="234.9" r="5" fill="#3498db" opacity="0.9"><title>RF_KILLN VOH | ffss | Chip: 25679</title></circle>
<circle cx="646.8" cy="145.5" r="5" fill="#3498db" opacity="0.9"><title>RF_KILLN VOH | ffss | Chip: 25679</title></circle>
</g>
<g class="series" data-skew="ffss" data-chip="43407">
<path d="M115.2,315.4 L181.7,226.6 L248.1,137.1 L314.6,319.4 L381.0,230.3 L447.4,140.7 L513.9,333.0 L580.3,242.8 L646.8,153.0" fill="none" stroke="#e74c3c" stroke-width="2.0" stroke-linejoin="round" stroke-dasharray="8,3" opacity="0.85"/>
<circle cx="115.2" cy="315.4" r="5" fill="#e74c3c" opacity="0.9"><title>RF_KILLN VOH | ffss | Chip: 43407</title></circle>
<circle cx="181.7" cy="226.6" r="5" fill="#e74c3c" opacity="0.9"><title>RF_KILLN VOH | ffss | Chip: 43407</title></circle>
<circle cx="248.1" cy="137.1" r="5" fill="#e74c3c" opacity="0.9"><title>RF_KILLN VOH | ffss | Chip: 43407</title></circle>
<circle cx="314.6" cy="319.4" r="5" fill="#e74c3c" opacity="0.9"><title>RF_KILLN VOH | ffss | Chip: 43407</title></circle>
<circle cx="381.0" cy="230.3" r="5" fill="#e74c3c" opacity="0.9"><title>RF_KILLN VOH | ffss | Chip: 43407</title></circle>
<circle cx="447.4" cy="140.7" r="5" fill="#e74c3c" opacity="0.9"><title>RF_KILLN VOH | ffss | Chip: 43407</title></circle>
<circle cx="513.9" cy="333.0" r="5" fill="#e74c3c" opacity="0.9"><title>RF_KILLN VOH | ffss | Chip: 43407</title></circle>
<circle cx="580.3" cy="242.8" r="5" fill="#e74c3c" opacity="0.9"><title>RF_KILLN VOH | ffss | Chip: 43407</title></circle>
<circle cx="646.8" cy="153.0" r="5" fill="#e74c3c" opacity="0.9"><title>RF_KILLN VOH | ffss | Chip: 43407</title></circle>
</g>
<g class="series" data-skew="ffss" data-chip="79093">
<path d="M115.2,312.9 L181.7,224.3 L248.1,135.2 L314.6,317.1 L381.0,228.1 L447.4,138.9 L513.9,326.6 L580.3,236.7 L646.8,147.1" fill="none" stroke="#2ecc71" stroke-width="2.0" stroke-linejoin="round" stroke-dasharray="4,3" opacity="0.85"/>
<circle cx="115.2" cy="312.9" r="5" fill="#2ecc71" opacity="0.9"><title>RF_KILLN VOH | ffss | Chip: 79093</title></circle>
<circle cx="181.7" cy="224.3" r="5" fill="#2ecc71" opacity="0.9"><title>RF_KILLN VOH | ffss | Chip: 79093</title></circle>
<circle cx="248.1" cy="135.2" r="5" fill="#2ecc71" opacity="0.9"><title>RF_KILLN VOH | ffss | Chip: 79093</title></circle>
<circle cx="314.6" cy="317.1" r="5" fill="#2ecc71" opacity="0.9"><title>RF_KILLN VOH | ffss | Chip: 79093</title></circle>
<circle cx="381.0" cy="228.1" r="5" fill="#2ecc71" opacity="0.9"><title>RF_KILLN VOH | ffss | Chip: 79093</title></circle>
<circle cx="447.4" cy="138.9" r="5" fill="#2ecc71" opacity="0.9"><title>RF_KILLN VOH | ffss | Chip: 79093</title></circle>
<circle cx="513.9" cy="326.6" r="5" fill="#2ecc71" opacity="0.9"><title>RF_KILLN VOH | ffss | Chip: 79093</title></circle>
<circle cx="580.3" cy="236.7" r="5" fill="#2ecc71" opacity="0.9"><title>RF_KILLN VOH | ffss | Chip: 79093</title></circle>
<circle cx="646.8" cy="147.1" r="5" fill="#2ecc71" opacity="0.9"><title>RF_KILLN VOH | ffss | Chip: 79093</title></circle>
</g>
<g class="series" data-skew="fftt" data-chip="13967">
<path d="M115.2,320.7 L181.7,232.3 L248.1,143.2 L314.6,314.8 L381.0,226.0 L447.4,136.8 L513.9,390.6 L580.3,300.8 L646.8,212.1" fill="none" stroke="#9b59b6" stroke-width="2.0" stroke-linejoin="round" stroke-dasharray="10,3,3,3" opacity="0.85"/>
<circle cx="115.2" cy="320.7" r="5" fill="#9b59b6" opacity="0.9"><title>RF_KILLN VOH | fftt | Chip: 13967</title></circle>
<circle cx="181.7" cy="232.3" r="5" fill="#9b59b6" opacity="0.9"><title>RF_KILLN VOH | fftt | Chip: 13967</title></circle>
<circle cx="248.1" cy="143.2" r="5" fill="#9b59b6" opacity="0.9"><title>RF_KILLN VOH | fftt | Chip: 13967</title></circle>
<circle cx="314.6" cy="314.8" r="5" fill="#9b59b6" opacity="0.9"><title>RF_KILLN VOH | fftt | Chip: 13967</title></circle>
<circle cx="381.0" cy="226.0" r="5" fill="#9b59b6" opacity="0.9"><title>RF_KILLN VOH | fftt | Chip: 13967</title></circle>
<circle cx="447.4" cy="136.8" r="5" fill="#9b59b6" opacity="0.9"><title>RF_KILLN VOH | fftt | Chip: 13967</title></circle>
<circle cx="513.9" cy="390.6" r="5" fill="#9b59b6" opacity="0.9"><title>RF_KILLN VOH | fftt | Chip: 13967</title></circle>
<circle cx="580.3" cy="300.8" r="5" fill="#9b59b6" opacity="0.9"><title>RF_KILLN VOH | fftt | Chip: 13967</title></circle>
<circle cx="646.8" cy="212.1" r="5" fill="#9b59b6" opacity="0.9"><title>RF_KILLN VOH | fftt | Chip: 13967</title></circle>
</g>
<g class="series" data-skew="fftt" data-chip="15382">
<path d="M115.2,357.8 L181.7,270.0 L248.1,181.5 L314.6,328.7 L381.0,240.3 L447.4,150.8 L513.9,353.0 L580.3,263.4 L646.8,174.0" fill="none" stroke="#e67e22" stroke-width="2.0" stroke-linejoin="round" opacity="0.85"/>
<circle cx="115.2" cy="357.8" r="5" fill="#e67e22" opacity="0.9"><title>RF_KILLN VOH | fftt | Chip: 15382</title></circle>
<circle cx="181.7" cy="270.0" r="5" fill="#e67e22" opacity="0.9"><title>RF_KILLN VOH | fftt | Chip: 15382</title></circle>
<circle cx="248.1" cy="181.5" r="5" fill="#e67e22" opacity="0.9"><title>RF_KILLN VOH | fftt | Chip: 15382</title></circle>
<circle cx="314.6" cy="328.7" r="5" fill="#e67e22" opacity="0.9"><title>RF_KILLN VOH | fftt | Chip: 15382</title></circle>
<circle cx="381.0" cy="240.3" r="5" fill="#e67e22" opacity="0.9"><title>RF_KILLN VOH | fftt | Chip: 15382</title></circle>
<circle cx="447.4" cy="150.8" r="5" fill="#e67e22" opacity="0.9"><title>RF_KILLN VOH | fftt | Chip: 15382</title></circle>
<circle cx="513.9" cy="353.0" r="5" fill="#e67e22" opacity="0.9"><title>RF_KILLN VOH | fftt | Chip: 15382</title></circle>
<circle cx="580.3" cy="263.4" r="5" fill="#e67e22" opacity="0.9"><title>RF_KILLN VOH | fftt | Chip: 15382</title></circle>
<circle cx="646.8" cy="174.0" r="5" fill="#e67e22" opacity="0.9"><title>RF_KILLN VOH | fftt | Chip: 15382</title></circle>
</g>
<g class="series" data-skew="fftt" data-chip="78814">
<path d="M115.2,311.4 L181.7,222.5 L248.1,133.6 L314.6,313.9 L381.0,224.7 L447.4,135.7 L513.9,329.4 L580.3,239.2 L646.8,149.9" fill="none" stroke="#1abc9c" stroke-width="2.0" stroke-linejoin="round" stroke-dasharray="8,3" opacity="0.85"/>
<circle cx="115.2" cy="311.4" r="5" fill="#1abc9c" opacity="0.9"><title>RF_KILLN VOH | fftt | Chip: 78814</title></circle>
<circle cx="181.7" cy="222.5" r="5" fill="#1abc9c" opacity="0.9"><title>RF_KILLN VOH | fftt | Chip: 78814</title></circle>
<circle cx="248.1" cy="133.6" r="5" fill="#1abc9c" opacity="0.9"><title>RF_KILLN VOH | fftt | Chip: 78814</title></circle>
<circle cx="314.6" cy="313.9" r="5" fill="#1abc9c" opacity="0.9"><title>RF_KILLN VOH | fftt | Chip: 78814</title></circle>
<circle cx="381.0" cy="224.7" r="5" fill="#1abc9c" opacity="0.9"><title>RF_KILLN VOH | fftt | Chip: 78814</title></circle>
<circle cx="447.4" cy="135.7" r="5" fill="#1abc9c" opacity="0.9"><title>RF_KILLN VOH | fftt | Chip: 78814</title></circle>
<circle cx="513.9" cy="329.4" r="5" fill="#1abc9c" opacity="0.9"><title>RF_KILLN VOH | fftt | Chip: 78814</title></circle>
<circle cx="580.3" cy="239.2" r="5" fill="#1abc9c" opacity="0.9"><title>RF_KILLN VOH | fftt | Chip: 78814</title></circle>
<circle cx="646.8" cy="149.9" r="5" fill="#1abc9c" opacity="0.9"><title>RF_KILLN VOH | fftt | Chip: 78814</title></circle>
</g>
<g class="series" data-skew="fstt" data-chip="12566">
<path d="M115.2,311.7 L181.7,222.1 L248.1,132.8 L314.6,315.9 L381.0,226.0 L447.4,136.5 L513.9,326.1 L580.3,235.0 L646.8,145.1" fill="none" stroke="#c0392b" stroke-width="2.0" stroke-linejoin="round" stroke-dasharray="4,3" opacity="0.85"/>
<circle cx="115.2" cy="311.7" r="5" fill="#c0392b" opacity="0.9"><title>RF_KILLN VOH | fstt | Chip: 12566</title></circle>
<circle cx="181.7" cy="222.1" r="5" fill="#c0392b" opacity="0.9"><title>RF_KILLN VOH | fstt | Chip: 12566</title></circle>
<circle cx="248.1" cy="132.8" r="5" fill="#c0392b" opacity="0.9"><title>RF_KILLN VOH | fstt | Chip: 12566</title></circle>
<circle cx="314.6" cy="315.9" r="5" fill="#c0392b" opacity="0.9"><title>RF_KILLN VOH | fstt | Chip: 12566</title></circle>
<circle cx="381.0" cy="226.0" r="5" fill="#c0392b" opacity="0.9"><title>RF_KILLN VOH | fstt | Chip: 12566</title></circle>
<circle cx="447.4" cy="136.5" r="5" fill="#c0392b" opacity="0.9"><title>RF_KILLN VOH | fstt | Chip: 12566</title></circle>
<circle cx="513.9" cy="326.1" r="5" fill="#c0392b" opacity="0.9"><title>RF_KILLN VOH | fstt | Chip: 12566</title></circle>
<circle cx="580.3" cy="235.0" r="5" fill="#c0392b" opacity="0.9"><title>RF_KILLN VOH | fstt | Chip: 12566</title></circle>
<circle cx="646.8" cy="145.1" r="5" fill="#c0392b" opacity="0.9"><title>RF_KILLN VOH | fstt | Chip: 12566</title></circle>
</g>
<g class="series" data-skew="fstt" data-chip="13316">
<path d="M115.2,309.9 L181.7,220.5 L248.1,131.2 L314.6,314.4 L381.0,224.7 L447.4,135.1 L513.9,323.9 L580.3,233.2 L646.8,143.2" fill="none" stroke="#2980b9" stroke-width="2.0" stroke-linejoin="round" stroke-dasharray="10,3,3,3" opacity="0.85"/>
<circle cx="115.2" cy="309.9" r="5" fill="#2980b9" opacity="0.9"><title>RF_KILLN VOH | fstt | Chip: 13316</title></circle>
<circle cx="181.7" cy="220.5" r="5" fill="#2980b9" opacity="0.9"><title>RF_KILLN VOH | fstt | Chip: 13316</title></circle>
<circle cx="248.1" cy="131.2" r="5" fill="#2980b9" opacity="0.9"><title>RF_KILLN VOH | fstt | Chip: 13316</title></circle>
<circle cx="314.6" cy="314.4" r="5" fill="#2980b9" opacity="0.9"><title>RF_KILLN VOH | fstt | Chip: 13316</title></circle>
<circle cx="381.0" cy="224.7" r="5" fill="#2980b9" opacity="0.9"><title>RF_KILLN VOH | fstt | Chip: 13316</title></circle>
<circle cx="447.4" cy="135.1" r="5" fill="#2980b9" opacity="0.9"><title>RF_KILLN VOH | fstt | Chip: 13316</title></circle>
<circle cx="513.9" cy="323.9" r="5" fill="#2980b9" opacity="0.9"><title>RF_KILLN VOH | fstt | Chip: 13316</title></circle>
<circle cx="580.3" cy="233.2" r="5" fill="#2980b9" opacity="0.9"><title>RF_KILLN VOH | fstt | Chip: 13316</title></circle>
<circle cx="646.8" cy="143.2" r="5" fill="#2980b9" opacity="0.9"><title>RF_KILLN VOH | fstt | Chip: 13316</title></circle>
</g>
<g class="series" data-skew="fstt" data-chip="62919">
<path d="M115.2,314.5 L181.7,224.9 L248.1,135.3 L314.6,316.5 L381.0,226.5 L447.4,136.9 L513.9,331.7 L580.3,240.8 L646.8,150.6" fill="none" stroke="#27ae60" stroke-width="2.0" stroke-linejoin="round" opacity="0.85"/>
<circle cx="115.2" cy="314.5" r="5" fill="#27ae60" opacity="0.9"><title>RF_KILLN VOH | fstt | Chip: 62919</title></circle>
<circle cx="181.7" cy="224.9" r="5" fill="#27ae60" opacity="0.9"><title>RF_KILLN VOH | fstt | Chip: 62919</title></circle>
<circle cx="248.1" cy="135.3" r="5" fill="#27ae60" opacity="0.9"><title>RF_KILLN VOH | fstt | Chip: 62919</title></circle>
<circle cx="314.6" cy="316.5" r="5" fill="#27ae60" opacity="0.9"><title>RF_KILLN VOH | fstt | Chip: 62919</title></circle>
<circle cx="381.0" cy="226.5" r="5" fill="#27ae60" opacity="0.9"><title>RF_KILLN VOH | fstt | Chip: 62919</title></circle>
<circle cx="447.4" cy="136.9" r="5" fill="#27ae60" opacity="0.9"><title>RF_KILLN VOH | fstt | Chip: 62919</title></circle>
<circle cx="513.9" cy="331.7" r="5" fill="#27ae60" opacity="0.9"><title>RF_KILLN VOH | fstt | Chip: 62919</title></circle>
<circle cx="580.3" cy="240.8" r="5" fill="#27ae60" opacity="0.9"><title>RF_KILLN VOH | fstt | Chip: 62919</title></circle>
<circle cx="646.8" cy="150.6" r="5" fill="#27ae60" opacity="0.9"><title>RF_KILLN VOH | fstt | Chip: 62919</title></circle>
</g>
<g class="series" data-skew="sftt" data-chip="44565">
<path d="M115.2,308.4 L181.7,219.4 L248.1,130.6 L314.6,312.6 L381.0,223.4 L447.4,134.3 L513.9,321.3 L580.3,231.1 L646.8,141.7" fill="none" stroke="#8e44ad" stroke-width="2.0" stroke-linejoin="round" stroke-dasharray="8,3" opacity="0.85"/>
<circle cx="115.2" cy="308.4" r="5" fill="#8e44ad" opacity="0.9"><title>RF_KILLN VOH | sftt | Chip: 44565</title></circle>
<circle cx="181.7" cy="219.4" r="5" fill="#8e44ad" opacity="0.9"><title>RF_KILLN VOH | sftt | Chip: 44565</title></circle>
<circle cx="248.1" cy="130.6" r="5" fill="#8e44ad" opacity="0.9"><title>RF_KILLN VOH | sftt | Chip: 44565</title></circle>
<circle cx="314.6" cy="312.6" r="5" fill="#8e44ad" opacity="0.9"><title>RF_KILLN VOH | sftt | Chip: 44565</title></circle>
<circle cx="381.0" cy="223.4" r="5" fill="#8e44ad" opacity="0.9"><title>RF_KILLN VOH | sftt | Chip: 44565</title></circle>
<circle cx="447.4" cy="134.3" r="5" fill="#8e44ad" opacity="0.9"><title>RF_KILLN VOH | sftt | Chip: 44565</title></circle>
<circle cx="513.9" cy="321.3" r="5" fill="#8e44ad" opacity="0.9"><title>RF_KILLN VOH | sftt | Chip: 44565</title></circle>
<circle cx="580.3" cy="231.1" r="5" fill="#8e44ad" opacity="0.9"><title>RF_KILLN VOH | sftt | Chip: 44565</title></circle>
<circle cx="646.8" cy="141.7" r="5" fill="#8e44ad" opacity="0.9"><title>RF_KILLN VOH | sftt | Chip: 44565</title></circle>
</g>
<g class="series" data-skew="sftt" data-chip="69627">
<path d="M115.2,308.8 L181.7,220.1 L248.1,131.0 L314.6,312.7 L381.0,223.7 L447.4,134.5 L513.9,322.3 L580.3,232.1 L646.8,142.9" fill="none" stroke="#d35400" stroke-width="2.0" stroke-linejoin="round" stroke-dasharray="4,3" opacity="0.85"/>
<circle cx="115.2" cy="308.8" r="5" fill="#d35400" opacity="0.9"><title>RF_KILLN VOH | sftt | Chip: 69627</title></circle>
<circle cx="181.7" cy="220.1" r="5" fill="#d35400" opacity="0.9"><title>RF_KILLN VOH | sftt | Chip: 69627</title></circle>
<circle cx="248.1" cy="131.0" r="5" fill="#d35400" opacity="0.9"><title>RF_KILLN VOH | sftt | Chip: 69627</title></circle>
<circle cx="314.6" cy="312.7" r="5" fill="#d35400" opacity="0.9"><title>RF_KILLN VOH | sftt | Chip: 69627</title></circle>
<circle cx="381.0" cy="223.7" r="5" fill="#d35400" opacity="0.9"><title>RF_KILLN VOH | sftt | Chip: 69627</title></circle>
<circle cx="447.4" cy="134.5" r="5" fill="#d35400" opacity="0.9"><title>RF_KILLN VOH | sftt | Chip: 69627</title></circle>
<circle cx="513.9" cy="322.3" r="5" fill="#d35400" opacity="0.9"><title>RF_KILLN VOH | sftt | Chip: 69627</title></circle>
<circle cx="580.3" cy="232.1" r="5" fill="#d35400" opacity="0.9"><title>RF_KILLN VOH | sftt | Chip: 69627</title></circle>
<circle cx="646.8" cy="142.9" r="5" fill="#d35400" opacity="0.9"><title>RF_KILLN VOH | sftt | Chip: 69627</title></circle>
</g>
<g class="series" data-skew="sftt" data-chip="76687">
<path d="M115.2,308.6 L181.7,219.9 L248.1,131.1 L314.6,312.0 L381.0,222.9 L447.4,134.0" fill="none" stroke="#16a085" stroke-width="2.0" stroke-linejoin="round" stroke-dasharray="10,3,3,3" opacity="0.85"/>
<circle cx="115.2" cy="308.6" r="5" fill="#16a085" opacity="0.9"><title>RF_KILLN VOH | sftt | Chip: 76687</title></circle>
<circle cx="181.7" cy="219.9" r="5" fill="#16a085" opacity="0.9"><title>RF_KILLN VOH | sftt | Chip: 76687</title></circle>
<circle cx="248.1" cy="131.1" r="5" fill="#16a085" opacity="0.9"><title>RF_KILLN VOH | sftt | Chip: 76687</title></circle>
<circle cx="314.6" cy="312.0" r="5" fill="#16a085" opacity="0.9"><title>RF_KILLN VOH | sftt | Chip: 76687</title></circle>
<circle cx="381.0" cy="222.9" r="5" fill="#16a085" opacity="0.9"><title>RF_KILLN VOH | sftt | Chip: 76687</title></circle>
<circle cx="447.4" cy="134.0" r="5" fill="#16a085" opacity="0.9"><title>RF_KILLN VOH | sftt | Chip: 76687</title></circle>
</g>
<g class="series" data-skew="ssff" data-chip="56508">
<path d="M115.2,307.7 L181.7,218.2 L248.1,129.0 L314.6,311.9 L381.0,222.2 L447.4,132.7 L513.9,321.8 L580.3,231.2 L646.8,141.2" fill="none" stroke="#3498db" stroke-width="2.0" stroke-linejoin="round" opacity="0.85"/>
<circle cx="115.2" cy="307.7" r="5" fill="#3498db" opacity="0.9"><title>RF_KILLN VOH | ssff | Chip: 56508</title></circle>
<circle cx="181.7" cy="218.2" r="5" fill="#3498db" opacity="0.9"><title>RF_KILLN VOH | ssff | Chip: 56508</title></circle>
<circle cx="248.1" cy="129.0" r="5" fill="#3498db" opacity="0.9"><title>RF_KILLN VOH | ssff | Chip: 56508</title></circle>
<circle cx="314.6" cy="311.9" r="5" fill="#3498db" opacity="0.9"><title>RF_KILLN VOH | ssff | Chip: 56508</title></circle>
<circle cx="381.0" cy="222.2" r="5" fill="#3498db" opacity="0.9"><title>RF_KILLN VOH | ssff | Chip: 56508</title></circle>
<circle cx="447.4" cy="132.7" r="5" fill="#3498db" opacity="0.9"><title>RF_KILLN VOH | ssff | Chip: 56508</title></circle>
<circle cx="513.9" cy="321.8" r="5" fill="#3498db" opacity="0.9"><title>RF_KILLN VOH | ssff | Chip: 56508</title></circle>
<circle cx="580.3" cy="231.2" r="5" fill="#3498db" opacity="0.9"><title>RF_KILLN VOH | ssff | Chip: 56508</title></circle>
<circle cx="646.8" cy="141.2" r="5" fill="#3498db" opacity="0.9"><title>RF_KILLN VOH | ssff | Chip: 56508</title></circle>
</g>
<g class="series" data-skew="ssff" data-chip="57571">
<path d="M115.2,319.7 L181.7,230.3 L248.1,141.0 L314.6,313.8 L381.0,223.8 L447.4,134.8 L513.9,321.7 L580.3,231.1 L646.8,141.1" fill="none" stroke="#e74c3c" stroke-width="2.0" stroke-linejoin="round" stroke-dasharray="8,3" opacity="0.85"/>
<circle cx="115.2" cy="319.7" r="5" fill="#e74c3c" opacity="0.9"><title>RF_KILLN VOH | ssff | Chip: 57571</title></circle>
<circle cx="181.7" cy="230.3" r="5" fill="#e74c3c" opacity="0.9"><title>RF_KILLN VOH | ssff | Chip: 57571</title></circle>
<circle cx="248.1" cy="141.0" r="5" fill="#e74c3c" opacity="0.9"><title>RF_KILLN VOH | ssff | Chip: 57571</title></circle>
<circle cx="314.6" cy="313.8" r="5" fill="#e74c3c" opacity="0.9"><title>RF_KILLN VOH | ssff | Chip: 57571</title></circle>
<circle cx="381.0" cy="223.8" r="5" fill="#e74c3c" opacity="0.9"><title>RF_KILLN VOH | ssff | Chip: 57571</title></circle>
<circle cx="447.4" cy="134.8" r="5" fill="#e74c3c" opacity="0.9"><title>RF_KILLN VOH | ssff | Chip: 57571</title></circle>
<circle cx="513.9" cy="321.7" r="5" fill="#e74c3c" opacity="0.9"><title>RF_KILLN VOH | ssff | Chip: 57571</title></circle>
<circle cx="580.3" cy="231.1" r="5" fill="#e74c3c" opacity="0.9"><title>RF_KILLN VOH | ssff | Chip: 57571</title></circle>
<circle cx="646.8" cy="141.1" r="5" fill="#e74c3c" opacity="0.9"><title>RF_KILLN VOH | ssff | Chip: 57571</title></circle>
</g>
<g class="series" data-skew="ssff" data-chip="96040">
<path d="M115.2,309.1 L181.7,219.7 L248.1,130.4 L314.6,313.5 L381.0,223.9 L447.4,134.3 L513.9,323.5 L580.3,233.0 L646.8,142.8" fill="none" stroke="#2ecc71" stroke-width="2.0" stroke-linejoin="round" stroke-dasharray="4,3" opacity="0.85"/>
<circle cx="115.2" cy="309.1" r="5" fill="#2ecc71" opacity="0.9"><title>RF_KILLN VOH | ssff | Chip: 96040</title></circle>
<circle cx="181.7" cy="219.7" r="5" fill="#2ecc71" opacity="0.9"><title>RF_KILLN VOH | ssff | Chip: 96040</title></circle>
<circle cx="248.1" cy="130.4" r="5" fill="#2ecc71" opacity="0.9"><title>RF_KILLN VOH | ssff | Chip: 96040</title></circle>
<circle cx="314.6" cy="313.5" r="5" fill="#2ecc71" opacity="0.9"><title>RF_KILLN VOH | ssff | Chip: 96040</title></circle>
<circle cx="381.0" cy="223.9" r="5" fill="#2ecc71" opacity="0.9"><title>RF_KILLN VOH | ssff | Chip: 96040</title></circle>
<circle cx="447.4" cy="134.3" r="5" fill="#2ecc71" opacity="0.9"><title>RF_KILLN VOH | ssff | Chip: 96040</title></circle>
<circle cx="513.9" cy="323.5" r="5" fill="#2ecc71" opacity="0.9"><title>RF_KILLN VOH | ssff | Chip: 96040</title></circle>
<circle cx="580.3" cy="233.0" r="5" fill="#2ecc71" opacity="0.9"><title>RF_KILLN VOH | ssff | Chip: 96040</title></circle>
<circle cx="646.8" cy="142.8" r="5" fill="#2ecc71" opacity="0.9"><title>RF_KILLN VOH | ssff | Chip: 96040</title></circle>
</g>
<g class="series" data-skew="sstt" data-chip="29674">
<path d="M115.2,310.5 L181.7,221.1 L248.1,131.7 L314.6,314.9 L381.0,225.2 L447.4,135.5 L513.9,324.4 L580.3,233.7 L646.8,143.4" fill="none" stroke="#9b59b6" stroke-width="2.0" stroke-linejoin="round" stroke-dasharray="10,3,3,3" opacity="0.85"/>
<circle cx="115.2" cy="310.5" r="5" fill="#9b59b6" opacity="0.9"><title>RF_KILLN VOH | sstt | Chip: 29674</title></circle>
<circle cx="181.7" cy="221.1" r="5" fill="#9b59b6" opacity="0.9"><title>RF_KILLN VOH | sstt | Chip: 29674</title></circle>
<circle cx="248.1" cy="131.7" r="5" fill="#9b59b6" opacity="0.9"><title>RF_KILLN VOH | sstt | Chip: 29674</title></circle>
<circle cx="314.6" cy="314.9" r="5" fill="#9b59b6" opacity="0.9"><title>RF_KILLN VOH | sstt | Chip: 29674</title></circle>
<circle cx="381.0" cy="225.2" r="5" fill="#9b59b6" opacity="0.9"><title>RF_KILLN VOH | sstt | Chip: 29674</title></circle>
<circle cx="447.4" cy="135.5" r="5" fill="#9b59b6" opacity="0.9"><title>RF_KILLN VOH | sstt | Chip: 29674</title></circle>
<circle cx="513.9" cy="324.4" r="5" fill="#9b59b6" opacity="0.9"><title>RF_KILLN VOH | sstt | Chip: 29674</title></circle>
<circle cx="580.3" cy="233.7" r="5" fill="#9b59b6" opacity="0.9"><title>RF_KILLN VOH | sstt | Chip: 29674</title></circle>
<circle cx="646.8" cy="143.4" r="5" fill="#9b59b6" opacity="0.9"><title>RF_KILLN VOH | sstt | Chip: 29674</title></circle>
</g>
<g class="series" data-skew="sstt" data-chip="58046">
<path d="M115.2,310.7 L181.7,221.2 L248.1,131.8 L314.6,314.9 L381.0,225.4 L447.4,135.5 L513.9,324.5 L580.3,233.8 L646.8,143.7" fill="none" stroke="#e67e22" stroke-width="2.0" stroke-linejoin="round" opacity="0.85"/>
<circle cx="115.2" cy="310.7" r="5" fill="#e67e22" opacity="0.9"><title>RF_KILLN VOH | sstt | Chip: 58046</title></circle>
<circle cx="181.7" cy="221.2" r="5" fill="#e67e22" opacity="0.9"><title>RF_KILLN VOH | sstt | Chip: 58046</title></circle>
<circle cx="248.1" cy="131.8" r="5" fill="#e67e22" opacity="0.9"><title>RF_KILLN VOH | sstt | Chip: 58046</title></circle>
<circle cx="314.6" cy="314.9" r="5" fill="#e67e22" opacity="0.9"><title>RF_KILLN VOH | sstt | Chip: 58046</title></circle>
<circle cx="381.0" cy="225.4" r="5" fill="#e67e22" opacity="0.9"><title>RF_KILLN VOH | sstt | Chip: 58046</title></circle>
<circle cx="447.4" cy="135.5" r="5" fill="#e67e22" opacity="0.9"><title>RF_KILLN VOH | sstt | Chip: 58046</title></circle>
<circle cx="513.9" cy="324.5" r="5" fill="#e67e22" opacity="0.9"><title>RF_KILLN VOH | sstt | Chip: 58046</title></circle>
<circle cx="580.3" cy="233.8" r="5" fill="#e67e22" opacity="0.9"><title>RF_KILLN VOH | sstt | Chip: 58046</title></circle>
<circle cx="646.8" cy="143.7" r="5" fill="#e67e22" opacity="0.9"><title>RF_KILLN VOH | sstt | Chip: 58046</title></circle>
</g>
<g class="series" data-skew="sstt" data-chip="9808">
<path d="M115.2,311.1 L181.7,221.6 L248.1,132.5 L314.6,314.9 L381.0,225.4 L447.4,135.9 L513.9,327.4 L580.3,236.8 L646.8,146.8" fill="none" stroke="#1abc9c" stroke-width="2.0" stroke-linejoin="round" stroke-dasharray="8,3" opacity="0.85"/>
<circle cx="115.2" cy="311.1" r="5" fill="#1abc9c" opacity="0.9"><title>RF_KILLN VOH | sstt | Chip: 9808</title></circle>
<circle cx="181.7" cy="221.6" r="5" fill="#1abc9c" opacity="0.9"><title>RF_KILLN VOH | sstt | Chip: 9808</title></circle>
<circle cx="248.1" cy="132.5" r="5" fill="#1abc9c" opacity="0.9"><title>RF_KILLN VOH | sstt | Chip: 9808</title></circle>
<circle cx="314.6" cy="314.9" r="5" fill="#1abc9c" opacity="0.9"><title>RF_KILLN VOH | sstt | Chip: 9808</title></circle>
<circle cx="381.0" cy="225.4" r="5" fill="#1abc9c" opacity="0.9"><title>RF_KILLN VOH | sstt | Chip: 9808</title></circle>
<circle cx="447.4" cy="135.9" r="5" fill="#1abc9c" opacity="0.9"><title>RF_KILLN VOH | sstt | Chip: 9808</title></circle>
<circle cx="513.9" cy="327.4" r="5" fill="#1abc9c" opacity="0.9"><title>RF_KILLN VOH | sstt | Chip: 9808</title></circle>
<circle cx="580.3" cy="236.8" r="5" fill="#1abc9c" opacity="0.9"><title>RF_KILLN VOH | sstt | Chip: 9808</title></circle>
<circle cx="646.8" cy="146.8" r="5" fill="#1abc9c" opacity="0.9"><title>RF_KILLN VOH | sstt | Chip: 9808</title></circle>
</g>
<path d="M115.2,367.0 L181.7,303.3 L248.1,239.6 L314.6,367.0 L381.0,303.3 L447.4,239.6 L513.9,367.0 L580.3,303.3 L646.8,239.6" fill="none" stroke="#e74c3c" stroke-width="2.0" stroke-dasharray="8,4" opacity="0.95"/>
<text x="685.0" y="243.6" font-size="9" font-weight="normal" text-anchor="start" fill="#e74c3c" font-family="Arial,sans-serif">VOH Min (0.75×VIO)</text>
<g class="legend-item" data-skew="ffss" data-chip="25679">
<line x1="688" y1="77" x2="716" y2="77" stroke="#3498db" stroke-width="2.0" />
<circle cx="702" cy="77" r="5" fill="#3498db"/>
<text x="720" y="81" font-size="10" font-family="Arial,sans-serif" fill="#2c3e50">25679 | ffss</text>
</g>
<g class="legend-item" data-skew="ffss" data-chip="43407">
<line x1="688" y1="99" x2="716" y2="99" stroke="#e74c3c" stroke-width="2.0" stroke-dasharray="8,3" />
<circle cx="702" cy="99" r="5" fill="#e74c3c"/>
<text x="720" y="103" font-size="10" font-family="Arial,sans-serif" fill="#2c3e50">43407 | ffss</text>
</g>
<g class="legend-item" data-skew="ffss" data-chip="79093">
<line x1="688" y1="121" x2="716" y2="121" stroke="#2ecc71" stroke-width="2.0" stroke-dasharray="4,3" />
<circle cx="702" cy="121" r="5" fill="#2ecc71"/>
<text x="720" y="125" font-size="10" font-family="Arial,sans-serif" fill="#2c3e50">79093 | ffss</text>
</g>
<g class="legend-item" data-skew="fftt" data-chip="13967">
<line x1="688" y1="143" x2="716" y2="143" stroke="#9b59b6" stroke-width="2.0" stroke-dasharray="10,3,3,3" />
<circle cx="702" cy="143" r="5" fill="#9b59b6"/>
<text x="720" y="147" font-size="10" font-family="Arial,sans-serif" fill="#2c3e50">13967 | fftt</text>
</g>
<g class="legend-item" data-skew="fftt" data-chip="15382">
<line x1="688" y1="165" x2="716" y2="165" stroke="#e67e22" stroke-width="2.0" />
<circle cx="702" cy="165" r="5" fill="#e67e22"/>
<text x="720" y="169" font-size="10" font-family="Arial,sans-serif" fill="#2c3e50">15382 | fftt</text>
</g>
<g class="legend-item" data-skew="fftt" data-chip="78814">
<line x1="688" y1="187" x2="716" y2="187" stroke="#1abc9c" stroke-width="2.0" stroke-dasharray="8,3" />
<circle cx="702" cy="187" r="5" fill="#1abc9c"/>
<text x="720" y="191" font-size="10" font-family="Arial,sans-serif" fill="#2c3e50">78814 | fftt</text>
</g>
<g class="legend-item" data-skew="fstt" data-chip="12566">
<line x1="688" y1="209" x2="716" y2="209" stroke="#c0392b" stroke-width="2.0" stroke-dasharray="4,3" />
<circle cx="702" cy="209" r="5" fill="#c0392b"/>
<text x="720" y="213" font-size="10" font-family="Arial,sans-serif" fill="#2c3e50">12566 | fstt</text>
</g>
<g class="legend-item" data-skew="fstt" data-chip="13316">
<line x1="688" y1="231" x2="716" y2="231" stroke="#2980b9" stroke-width="2.0" stroke-dasharray="10,3,3,3" />
<circle cx="702" cy="231" r="5" fill="#2980b9"/>
<text x="720" y="235" font-size="10" font-family="Arial,sans-serif" fill="#2c3e50">13316 | fstt</text>
</g>
<g class="legend-item" data-skew="fstt" data-chip="62919">
<line x1="688" y1="253" x2="716" y2="253" stroke="#27ae60" stroke-width="2.0" />
<circle cx="702" cy="253" r="5" fill="#27ae60"/>
<text x="720" y="257" font-size="10" font-family="Arial,sans-serif" fill="#2c3e50">62919 | fstt</text>
</g>
<g class="legend-item" data-skew="sftt" data-chip="44565">
<line x1="688" y1="275" x2="716" y2="275" stroke="#8e44ad" stroke-width="2.0" stroke-dasharray="8,3" />
<circle cx="702" cy="275" r="5" fill="#8e44ad"/>
<text x="720" y="279" font-size="10" font-family="Arial,sans-serif" fill="#2c3e50">44565 | sftt</text>
</g>
<g class="legend-item" data-skew="sftt" data-chip="69627">
<line x1="688" y1="297" x2="716" y2="297" stroke="#d35400" stroke-width="2.0" stroke-dasharray="4,3" />
<circle cx="702" cy="297" r="5" fill="#d35400"/>
<text x="720" y="301" font-size="10" font-family="Arial,sans-serif" fill="#2c3e50">69627 | sftt</text>
</g>
<g class="legend-item" data-skew="sftt" data-chip="76687">
<line x1="688" y1="319" x2="716" y2="319" stroke="#16a085" stroke-width="2.0" stroke-dasharray="10,3,3,3" />
<circle cx="702" cy="319" r="5" fill="#16a085"/>
<text x="720" y="323" font-size="10" font-family="Arial,sans-serif" fill="#2c3e50">76687 | sftt</text>
</g>
<g class="legend-item" data-skew="ssff" data-chip="56508">
<line x1="688" y1="341" x2="716" y2="341" stroke="#3498db" stroke-width="2.0" />
<circle cx="702" cy="341" r="5" fill="#3498db"/>
<text x="720" y="345" font-size="10" font-family="Arial,sans-serif" fill="#2c3e50">56508 | ssff</text>
</g>
<g class="legend-item" data-skew="ssff" data-chip="57571">
<line x1="688" y1="363" x2="716" y2="363" stroke="#e74c3c" stroke-width="2.0" stroke-dasharray="8,3" />
<circle cx="702" cy="363" r="5" fill="#e74c3c"/>
<text x="720" y="367" font-size="10" font-family="Arial,sans-serif" fill="#2c3e50">57571 | ssff</text>
</g>
<g class="legend-item" data-skew="ssff" data-chip="96040">
<line x1="688" y1="385" x2="716" y2="385" stroke="#2ecc71" stroke-width="2.0" stroke-dasharray="4,3" />
<circle cx="702" cy="385" r="5" fill="#2ecc71"/>
<text x="720" y="389" font-size="10" font-family="Arial,sans-serif" fill="#2c3e50">96040 | ssff</text>
</g>
<g class="legend-item" data-skew="sstt" data-chip="29674">
<line x1="688" y1="407" x2="716" y2="407" stroke="#9b59b6" stroke-width="2.0" stroke-dasharray="10,3,3,3" />
<circle cx="702" cy="407" r="5" fill="#9b59b6"/>
<text x="720" y="411" font-size="10" font-family="Arial,sans-serif" fill="#2c3e50">29674 | sstt</text>
</g>
<g class="legend-item" data-skew="sstt" data-chip="58046">
<line x1="688" y1="429" x2="716" y2="429" stroke="#e67e22" stroke-width="2.0" />
<circle cx="702" cy="429" r="5" fill="#e67e22"/>
<text x="720" y="433" font-size="10" font-family="Arial,sans-serif" fill="#2c3e50">58046 | sstt</text>
</g>
<g class="legend-item" data-skew="sstt" data-chip="9808">
<line x1="688" y1="451" x2="716" y2="451" stroke="#1abc9c" stroke-width="2.0" stroke-dasharray="8,3" />
<circle cx="702" cy="451" r="5" fill="#1abc9c"/>
<text x="720" y="455" font-size="10" font-family="Arial,sans-serif" fill="#2c3e50">9808 | sstt</text>
</g>
</svg>