<svg xmlns="http://www.w3.org/2000/svg" width="860" height="526" viewBox="0 0 860 526">
<rect width="860" height="526" fill="#ffffff"/>
<text x="430.0" y="28.0" font-size="16" font-weight="bold" text-anchor="middle" fill="#2c3e50" font-family="Arial,sans-serif">GPIO_0  [PB16DSFS_18_18_H] — VOH (V)  DS=DS_9  [VOH/VOL]</text>
<line x1="82.0" y1="426.0" x2="680.0" y2="426.0" stroke="#999" stroke-width="1"/>
<line x1="82.0" y1="72.0" x2="82.0" y2="426.0" stroke="#999" stroke-width="1"/>
<line x1="82.0" y1="72.0" x2="82.0" y2="426.0" stroke="#999" stroke-width="1"/>
<line x1="77.0" y1="426.0" x2="82.0" y2="426.0" stroke="#999" stroke-width="1"/>
<line x1="82.0" y1="426.0" x2="680.0" y2="426.0" stroke="#e0e0e0" stroke-width="0.8" stroke-dasharray="3,3"/>
<text x="74.0" y="430.0" font-size="9" font-weight="normal" text-anchor="end" fill="#7f8c8d" font-family="Arial,sans-serif">1.1</text>
<line x1="77.0" y1="355.2" x2="82.0" y2="355.2" stroke="#999" stroke-width="1"/>
<line x1="82.0" y1="355.2" x2="680.0" y2="355.2" stroke="#e0e0e0" stroke-width="0.8" stroke-dasharray="3,3"/>
<text x="74.0" y="359.2" font-size="9" font-weight="normal" text-anchor="end" fill="#7f8c8d" font-family="Arial,sans-serif">1.24</text>
<line x1="77.0" y1="284.4" x2="82.0" y2="284.4" stroke="#999" stroke-width="1"/>
<line x1="82.0" y1="284.4" x2="680.0" y2="284.4" stroke="#e0e0e0" stroke-width="0.8" stroke-dasharray="3,3"/>
<text x="74.0" y="288.4" font-size="9" font-weight="normal" text-anchor="end" fill="#7f8c8d" font-family="Arial,sans-serif">1.37</text>
<line x1="77.0" y1="213.6" x2="82.0" y2="213.6" stroke="#999" stroke-width="1"/>
<line x1="82.0" y1="213.6" x2="680.0" y2="213.6" stroke="#e0e0e0" stroke-width="0.8" stroke-dasharray="3,3"/>
<text x="74.0" y="217.6" font-size="9" font-weight="normal" text-anchor="end" fill="#7f8c8d" font-family="Arial,sans-serif">1.5</text>
<line x1="77.0" y1="142.8" x2="82.0" y2="142.8" stroke="#999" stroke-width="1"/>
<line x1="82.0" y1="142.8" x2="680.0" y2="142.8" stroke="#e0e0e0" stroke-width="0.8" stroke-dasharray="3,3"/>
<text x="74.0" y="146.8" font-size="9" font-weight="normal" text-anchor="end" fill="#7f8c8d" font-family="Arial,sans-serif">1.64</text>
<line x1="77.0" y1="72.0" x2="82.0" y2="72.0" stroke="#999" stroke-width="1"/>
<line x1="82.0" y1="72.0" x2="680.0" y2="72.0" stroke="#e0e0e0" stroke-width="0.8" stroke-dasharray="3,3"/>
<text x="74.0" y="76.0" font-size="9" font-weight="normal" text-anchor="end" fill="#7f8c8d" font-family="Arial,sans-serif">1.77</text>
<text x="14.0" y="249.0" font-size="10" font-weight="normal" text-anchor="middle" fill="#7f8c8d" font-family="Arial,sans-serif" transform="rotate(-90,14,249.0)">VOH (V)</text>
<text x="115.2" y="440.0" font-size="8" font-weight="normal" text-anchor="end" fill="#333" font-family="Arial,sans-serif" transform="rotate(-45,115.2,440)">VIO=1.62
VC=0.64</text>
<text x="181.7" y="440.0" font-size="8" font-weight="normal" text-anchor="end" fill="#333" font-family="Arial,sans-serif" transform="rotate(-45,181.7,440)">VIO=1.8
VC=0.8</text>
<text x="248.1" y="440.0" font-size="8" font-weight="normal" text-anchor="end" fill="#333" font-family="Arial,sans-serif" transform="rotate(-45,248.1,440)">VIO=1.98
VC=0.96</text>
<line x1="281.3" y1="72.0" x2="281.3" y2="426.0" stroke="#cccccc" stroke-width="1" stroke-dasharray="4,3"/>
<text x="314.6" y="440.0" font-size="8" font-weight="normal" text-anchor="end" fill="#333" font-family="Arial,sans-serif" transform="rotate(-45,314.6,440)">VIO=1.62
VC=0.64</text>
<text x="381.0" y="440.0" font-size="8" font-weight="normal" text-anchor="end" fill="#333" font-family="Arial,sans-serif" transform="rotate(-45,381.0,440)">VIO=1.8
VC=0.8</text>
<text x="447.4" y="440.0" font-size="8" font-weight="normal" text-anchor="end" fill="#333" font-family="Arial,sans-serif" transform="rotate(-45,447.4,440)">VIO=1.98
VC=0.96</text>
<line x1="480.7" y1="72.0" x2="480.7" y2="426.0" stroke="#cccccc" stroke-width="1" stroke-dasharray="4,3"/>
<text x="513.9" y="440.0" font-size="8" font-weight="normal" text-anchor="end" fill="#333" font-family="Arial,sans-serif" transform="rotate(-45,513.9,440)">VIO=1.62
VC=0.64</text>
<text x="580.3" y="440.0" font-size="8" font-weight="normal" text-anchor="end" fill="#333" font-family="Arial,sans-serif" transform="rotate(-45,580.3,440)">VIO=1.8
VC=0.8</text>
<text x="646.8" y="440.0" font-size="8" font-weight="normal" text-anchor="end" fill="#333" font-family="Arial,sans-serif" transform="rotate(-45,646.8,440)">VIO=1.98
VC=0.96</text>
<text x="181.7" y="62.0" font-size="10" font-weight="bold" text-anchor="middle" fill="#2c3e50" font-family="Arial,sans-serif">T=0°C</text>
<text x="381.0" y="62.0" font-size="10" font-weight="bold" text-anchor="middle" fill="#2c3e50" font-family="Arial,sans-serif">T=20°C</text>
<text x="580.3" y="62.0" font-size="10" font-weight="bold" text-anchor="middle" fill="#2c3e50" font-family="Arial,sans-serif">T=80°C</text>
<g class="series" data-skew="ffss" data-chip="25679">
<path d="M115.2,334.7 L181.7,233.8 L248.1,134.5 L314.6,339.4 L381.0,238.5 L447.4,138.7 L513.9,354.1 L580.3,252.0 L646.8,151.8" fill="none" stroke="#3498db" stroke-width="2.0" stroke-linejoin="round" opacity="0.85"/>
<circle cx="115.2" cy="334.7" r="5" fill="#3498db" opacity="0.9"><title>GPIO_0 VOH | ffss | Chip: 25679</title></circle>
<circle cx="181.7" cy="233.8" r="5" fill="#3498db" opacity="0.9"><title>GPIO_0 VOH | ffss | Chip: 25679</title></circle>
<circle cx="248.1" cy="134.5" r="5" fill="#3498db" opacity="0.9"><title>GPIO_0 VOH | ffss | Chip: 25679</title></circle>
<circle cx="314.6" cy="339.4" r="5" fill="#3498db" opacity="0.9"><title>GPIO_0 VOH | ffss | Chip: 25679</title></circle>
<circle cx="381.0" cy="238.5" r="5" fill="#3498db" opacity="0.9"><title>GPIO_0 VOH | ffss | Chip: 25679</title></circle>
<circle cx="447.4" cy="138.7" r="5" fill="#3498db" opacity="0.9"><title>GPIO_0 VOH | ffss | Chip: 25679</title></circle>
<circle cx="513.9" cy="354.1" r="5" fill="#3498db" opacity="0.9"><title>GPIO_0 VOH | ffss | Chip: 25679</title></circle>
<circle cx="580.3" cy="252.0" r="5" fill="#3498db" opacity="0.9"><title>GPIO_0 VOH | ffss | Chip: 25679</title></circle>
<circle cx="646.8" cy="151.8" r="5" fill="#3498db" opacity="0.9"><title>GPIO_0 VOH | ffss | Chip: 25679</title></circle>
</g>
<g class="series" data-skew="ffss" data-chip="43407">
<path d="M115.2,340.1 L181.7,239.3 L248.1,139.7 L314.6,343.8 L381.0,242.9 L447.4,143.0 L513.9,364.7 L580.3,262.8 L646.8,162.2" fill="none" stroke="#e74c3c" stroke-width="2.0" stroke-linejoin="round" stroke-dasharray="8,3" opacity="0.85"/>
<circle cx="115.2" cy="340.1" r="5" fill="#e74c3c" opacity="0.9"><title>GPIO_0 VOH | ffss | Chip: 43407</title></circle>
<circle cx="181.7" cy="239.3" r="5" fill="#e74c3c" opacity="0.9"><title>GPIO_0 VOH | ffss | Chip: 43407</title></circle>
<circle cx="248.1" cy="139.7" r="5" fill="#e74c3c" opacity="0.9"><title>GPIO_0 VOH | ffss | Chip: 43407</title></circle>
<circle cx="314.6" cy="343.8" r="5" fill="#e74c3c" opacity="0.9"><title>GPIO_0 VOH | ffss | Chip: 43407</title></circle>
<circle cx="381.0" cy="242.9" r="5" fill="#e74c3c" opacity="0.9"><title>GPIO_0 VOH | ffss | Chip: 43407</title></circle>
<circle cx="447.4" cy="143.0" r="5" fill="#e74c3c" opacity="0.9"><title>GPIO_0 VOH | ffss | Chip: 43407</title></circle>
<circle cx="513.9" cy="364.7" r="5" fill="#e74c3c" opacity="0.9"><title>GPIO_0 VOH | ffss | Chip: 43407</title></circle>
<circle cx="580.3" cy="262.8" r="5" fill="#e74c3c" opacity="0.9"><title>GPIO_0 VOH | ffss | Chip: 43407</title></circle>
<circle cx="646.8" cy="162.2" r="5" fill="#e74c3c" opacity="0.9"><title>GPIO_0 VOH | ffss | Chip: 43407</title></circle>
</g>
<g class="series" data-skew="ffss" data-chip="79093">
<path d="M115.2,337.7 L181.7,237.1 L248.1,137.9 L314.6,342.1 L381.0,241.1 L447.4,141.5 L513.9,357.1 L580.3,255.4 L646.8,155.2" fill="none" stroke="#2ecc71" stroke-width="2.0" stroke-linejoin="round" stroke-dasharray="4,3" opacity="0.85"/>
<circle cx="115.2" cy="337.7" r="5" fill="#2ecc71" opacity="0.9"><title>GPIO_0 VOH | ffss | Chip: 79093</title></circle>
<circle cx="181.7" cy="237.1" r="5" fill="#2ecc71" opacity="0.9"><title>GPIO_0 VOH | ffss | Chip: 79093</title></circle>
<circle cx="248.1" cy="137.9" r="5" fill="#2ecc71" opacity="0.9"><title>GPIO_0 VOH | ffss | Chip: 79093</title></circle>
<circle cx="314.6" cy="342.1" r="5" fill="#2ecc71" opacity="0.9"><title>GPIO_0 VOH | ffss | Chip: 79093</title></circle>
<circle cx="381.0" cy="241.1" r="5" fill="#2ecc71" opacity="0.9"><title>GPIO_0 VOH | ffss | Chip: 79093</title></circle>
<circle cx="447.4" cy="141.5" r="5" fill="#2ecc71" opacity="0.9"><title>GPIO_0 VOH | ffss | Chip: 79093</title></circle>
<circle cx="513.9" cy="357.1" r="5" fill="#2ecc71" opacity="0.9"><title>GPIO_0 VOH | ffss | Chip: 79093</title></circle>
<circle cx="580.3" cy="255.4" r="5" fill="#2ecc71" opacity="0.9"><title>GPIO_0 VOH | ffss | Chip: 79093</title></circle>
<circle cx="646.8" cy="155.2" r="5" fill="#2ecc71" opacity="0.9"><title>GPIO_0 VOH | ffss | Chip: 79093</title></circle>
</g>
<g class="series" data-skew="fftt" data-chip="13967">
<path d="M115.2,347.9 L181.7,247.4 L248.1,148.2 L314.6,338.5 L381.0,237.6 L447.4,138.1 L513.9,444.0 L580.3,367.0 L646.8,244.2" fill="none" stroke="#9b59b6" stroke-width="2.0" stroke-linejoin="round" stroke-dasharray="10,3,3,3" opacity="0.85"/>
<circle cx="115.2" cy="347.9" r="5" fill="#9b59b6" opacity="0.9"><title>GPIO_0 VOH | fftt | Chip: 13967</title></circle>
<circle cx="181.7" cy="247.4" r="5" fill="#9b59b6" opacity="0.9"><title>GPIO_0 VOH | fftt | Chip: 13967</title></circle>
<circle cx="248.1" cy="148.2" r="5" fill="#9b59b6" opacity="0.9"><title>GPIO_0 VOH | fftt | Chip: 13967</title></circle>
<circle cx="314.6" cy="338.5" r="5" fill="#9b59b6" opacity="0.9"><title>GPIO_0 VOH | fftt | Chip: 13967</title></circle>
<circle cx="381.0" cy="237.6" r="5" fill="#9b59b6" opacity="0.9"><title>GPIO_0 VOH | fftt | Chip: 13967</title></circle>
<circle cx="447.4" cy="138.1" r="5" fill="#9b59b6" opacity="0.9"><title>GPIO_0 VOH | fftt | Chip: 13967</title></circle>
<circle cx="513.9" cy="444.0" r="5" fill="#9b59b6" opacity="0.9"><title>GPIO_0 VOH | fftt | Chip: 13967</title></circle>
<circle cx="580.3" cy="367.0" r="5" fill="#9b59b6" opacity="0.9"><title>GPIO_0 VOH | fftt | Chip: 13967</title></circle>
<circle cx="646.8" cy="244.2" r="5" fill="#9b59b6" opacity="0.9"><title>GPIO_0 VOH | fftt | Chip: 13967</title></circle>
</g>
<g class="series" data-skew="fftt" data-chip="15382">
<path d="M115.2,396.9 L181.7,297.3 L248.1,198.4 L314.6,358.4 L381.0,257.9 L447.4,158.1 L513.9,391.2 L580.3,289.8 L646.8,189.7" fill="none" stroke="#e67e22" stroke-width="2.0" stroke-linejoin="round" opacity="0.85"/>
<circle cx="115.2" cy="396.9" r="5" fill="#e67e22" opacity="0.9"><title>GPIO_0 VOH | fftt | Chip: 15382</title></circle>
<circle cx="181.7" cy="297.3" r="5" fill="#e67e22" opacity="0.9"><title>GPIO_0 VOH | fftt | Chip: 15382</title></circle>
<circle cx="248.1" cy="198.4" r="5" fill="#e67e22" opacity="0.9"><title>GPIO_0 VOH | fftt | Chip: 15382</title></circle>
<circle cx="314.6" cy="358.4" r="5" fill="#e67e22" opacity="0.9"><title>GPIO_0 VOH | fftt | Chip: 15382</title></circle>
<circle cx="381.0" cy="257.9" r="5" fill="#e67e22" opacity="0.9"><title>GPIO_0 VOH | fftt | Chip: 15382</title></circle>
<circle cx="447.4" cy="158.1" r="5" fill="#e67e22" opacity="0.9"><title>GPIO_0 VOH | fftt | Chip: 15382</title></circle>
<circle cx="513.9" cy="391.2" r="5" fill="#e67e22" opacity="0.9"><title>GPIO_0 VOH | fftt | Chip: 15382</title></circle>
<circle cx="580.3" cy="289.8" r="5" fill="#e67e22" opacity="0.9"><title>GPIO_0 VOH | fftt | Chip: 15382</title></circle>
<circle cx="646.8" cy="189.7" r="5" fill="#e67e22" opacity="0.9"><title>GPIO_0 VOH | fftt | Chip: 15382</title></circle>
</g>
<g class="series" data-skew="fftt" data-chip="78814">
<path d="M115.2,334.4 L181.7,233.6 L248.1,134.1 L314.6,336.7 L381.0,235.8 L447.4,136.0 L513.9,359.3 L580.3,257.2 L646.8,157.2" fill="none" stroke="#1abc9c" stroke-width="2.0" stroke-linejoin="round" stroke-dasharray="8,3" opacity="0.85"/>
<circle cx="115.2" cy="334.4" r="5" fill="#1abc9c" opacity="0.9"><title>GPIO_0 VOH | fftt | Chip: 78814</title></circle>
<circle cx="181.7" cy="233.6" r="5" fill="#1abc9c" opacity="0.9"><title>GPIO_0 VOH | fftt | Chip: 78814</title></circle>
<circle cx="248.1" cy="134.1" r="5" fill="#1abc9c" opacity="0.9"><title>GPIO_0 VOH | fftt | Chip: 78814</title></circle>
<circle cx="314.6" cy="336.7" r="5" fill="#1abc9c" opacity="0.9"><title>GPIO_0 VOH | fftt | Chip: 78814</title></circle>
<circle cx="381.0" cy="235.8" r="5" fill="#1abc9c" opacity="0.9"><title>GPIO_0 VOH | fftt | Chip: 78814</title></circle>
<circle cx="447.4" cy="136.0" r="5" fill="#1abc9c" opacity="0.9"><title>GPIO_0 VOH | fftt | Chip: 78814</title></circle>
<circle cx="513.9" cy="359.3" r="5" fill="#1abc9c" opacity="0.9"><title>GPIO_0 VOH | fftt | Chip: 78814</title></circle>
<circle cx="580.3" cy="257.2" r="5" fill="#1abc9c" opacity="0.9"><title>GPIO_0 VOH | fftt | Chip: 78814</title></circle>
<circle cx="646.8" cy="157.2" r="5" fill="#1abc9c" opacity="0.9"><title>GPIO_0 VOH | fftt | Chip: 78814</title></circle>
</g>
<g class="series" data-skew="fstt" data-chip="12566">
<path d="M115.2,333.5 L181.7,231.9 L248.1,132.1 L314.6,338.5 L381.0,236.7 L447.4,136.4 L513.9,354.0 L580.3,251.2 L646.8,150.0" fill="none" stroke="#c0392b" stroke-width="2.0" stroke-linejoin="round" stroke-dasharray="4,3" opacity="0.85"/>
<circle cx="115.2" cy="333.5" r="5" fill="#c0392b" opacity="0.9"><title>GPIO_0 VOH | fstt | Chip: 12566</title></circle>
<circle cx="181.7" cy="231.9" r="5" fill="#c0392b" opacity="0.9"><title>GPIO_0 VOH | fstt | Chip: 12566</title></circle>
<circle cx="248.1" cy="132.1" r="5" fill="#c0392b" opacity="0.9"><title>GPIO_0 VOH | fstt | Chip: 12566</title></circle>
<circle cx="314.6" cy="338.5" r="5" fill="#c0392b" opacity="0.9"><title>GPIO_0 VOH | fstt | Chip: 12566</title></circle>
<circle cx="381.0" cy="236.7" r="5" fill="#c0392b" opacity="0.9"><title>GPIO_0 VOH | fstt | Chip: 12566</title></circle>
<circle cx="447.4" cy="136.4" r="5" fill="#c0392b" opacity="0.9"><title>GPIO_0 VOH | fstt | Chip: 12566</title></circle>
<circle cx="513.9" cy="354.0" r="5" fill="#c0392b" opacity="0.9"><title>GPIO_0 VOH | fstt | Chip: 12566</title></circle>
<circle cx="580.3" cy="251.2" r="5" fill="#c0392b" opacity="0.9"><title>GPIO_0 VOH | fstt | Chip: 12566</title></circle>
<circle cx="646.8" cy="150.0" r="5" fill="#c0392b" opacity="0.9"><title>GPIO_0 VOH | fstt | Chip: 12566</title></circle>
</g>
<g class="series" data-skew="fstt" data-chip="13316">
<path d="M115.2,333.0 L181.7,231.7 L248.1,131.7 L314.6,338.0 L381.0,236.2 L447.4,135.9 L513.9,353.2 L580.3,250.5 L646.8,149.3" fill="none" stroke="#2980b9" stroke-width="2.0" stroke-linejoin="round" stroke-dasharray="10,3,3,3" opacity="0.85"/>
<circle cx="115.2" cy="333.0" r="5" fill="#2980b9" opacity="0.9"><title>GPIO_0 VOH | fstt | Chip: 13316</title></circle>
<circle cx="181.7" cy="231.7" r="5" fill="#2980b9" opacity="0.9"><title>GPIO_0 VOH | fstt | Chip: 13316</title></circle>
<circle cx="248.1" cy="131.7" r="5" fill="#2980b9" opacity="0.9"><title>GPIO_0 VOH | fstt | Chip: 13316</title></circle>
<circle cx="314.6" cy="338.0" r="5" fill="#2980b9" opacity="0.9"><title>GPIO_0 VOH | fstt | Chip: 13316</title></circle>
<circle cx="381.0" cy="236.2" r="5" fill="#2980b9" opacity="0.9"><title>GPIO_0 VOH | fstt | Chip: 13316</title></circle>
<circle cx="447.4" cy="135.9" r="5" fill="#2980b9" opacity="0.9"><title>GPIO_0 VOH | fstt | Chip: 13316</title></circle>
<circle cx="513.9" cy="353.2" r="5" fill="#2980b9" opacity="0.9"><title>GPIO_0 VOH | fstt | Chip: 13316</title></circle>
<circle cx="580.3" cy="250.5" r="5" fill="#2980b9" opacity="0.9"><title>GPIO_0 VOH | fstt | Chip: 13316</title></circle>
<circle cx="646.8" cy="149.3" r="5" fill="#2980b9" opacity="0.9"><title>GPIO_0 VOH | fstt | Chip: 13316</title></circle>
</g>
<g class="series" data-skew="fstt" data-chip="62919">
<path d="M115.2,338.3 L181.7,236.5 L248.1,136.6 L314.6,340.2 L381.0,238.3 L447.4,137.9 L513.9,362.7 L580.3,259.7 L646.8,158.4" fill="none" stroke="#27ae60" stroke-width="2.0" stroke-linejoin="round" opacity="0.85"/>
<circle cx="115.2" cy="338.3" r="5" fill="#27ae60" opacity="0.9"><title>GPIO_0 VOH | fstt | Chip: 62919</title></circle>
<circle cx="181.7" cy="236.5" r="5" fill="#27ae60" opacity="0.9"><title>GPIO_0 VOH | fstt | Chip: 62919</title></circle>
<circle cx="248.1" cy="136.6" r="5" fill="#27ae60" opacity="0.9"><title>GPIO_0 VOH | fstt | Chip: 62919</title></circle>
<circle cx="314.6" cy="340.2" r="5" fill="#27ae60" opacity="0.9"><title>GPIO_0 VOH | fstt | Chip: 62919</title></circle>
<circle cx="381.0" cy="238.3" r="5" fill="#27ae60" opacity="0.9"><title>GPIO_0 VOH | fstt | Chip: 62919</title></circle>
<circle cx="447.4" cy="137.9" r="5" fill="#27ae60" opacity="0.9"><title>GPIO_0 VOH | fstt | Chip: 62919</title></circle>
<circle cx="513.9" cy="362.7" r="5" fill="#27ae60" opacity="0.9"><title>GPIO_0 VOH | fstt | Chip: 62919</title></circle>
<circle cx="580.3" cy="259.7" r="5" fill="#27ae60" opacity="0.9"><title>GPIO_0 VOH | fstt | Chip: 62919</title></circle>
<circle cx="646.8" cy="158.4" r="5" fill="#27ae60" opacity="0.9"><title>GPIO_0 VOH | fstt | Chip: 62919</title></circle>
</g>
<g class="series" data-skew="sftt" data-chip="44565">
<path d="M115.2,330.5 L181.7,230.0 L248.1,130.6 L314.6,335.0 L381.0,234.0 L447.4,134.6 L513.9,348.9 L580.3,247.0 L646.8,146.9" fill="none" stroke="#8e44ad" stroke-width="2.0" stroke-linejoin="round" stroke-dasharray="8,3" opacity="0.85"/>
<circle cx="115.2" cy="330.5" r="5" fill="#8e44ad" opacity="0.9"><title>GPIO_0 VOH | sftt | Chip: 44565</title></circle>
<circle cx="181.7" cy="230.0" r="5" fill="#8e44ad" opacity="0.9"><title>GPIO_0 VOH | sftt | Chip: 44565</title></circle>
<circle cx="248.1" cy="130.6" r="5" fill="#8e44ad" opacity="0.9"><title>GPIO_0 VOH | sftt | Chip: 44565</title></circle>
<circle cx="314.6" cy="335.0" r="5" fill="#8e44ad" opacity="0.9"><title>GPIO_0 VOH | sftt | Chip: 44565</title></circle>
<circle cx="381.0" cy="234.0" r="5" fill="#8e44ad" opacity="0.9"><title>GPIO_0 VOH | sftt | Chip: 44565</title></circle>
<circle cx="447.4" cy="134.6" r="5" fill="#8e44ad" opacity="0.9"><title>GPIO_0 VOH | sftt | Chip: 44565</title></circle>
<circle cx="513.9" cy="348.9" r="5" fill="#8e44ad" opacity="0.9"><title>GPIO_0 VOH | sftt | Chip: 44565</title></circle>
<circle cx="580.3" cy="247.0" r="5" fill="#8e44ad" opacity="0.9"><title>GPIO_0 VOH | sftt | Chip: 44565</title></circle>
<circle cx="646.8" cy="146.9" r="5" fill="#8e44ad" opacity="0.9"><title>GPIO_0 VOH | sftt | Chip: 44565</title></circle>
</g>
<g class="series" data-skew="sftt" data-chip="69627">
<path d="M115.2,331.5 L181.7,230.6 L248.1,131.3 L314.6,335.7 L381.0,234.6 L447.4,135.1 L513.9,350.9 L580.3,249.2 L646.8,148.6" fill="none" stroke="#d35400" stroke-width="2.0" stroke-linejoin="round" stroke-dasharray="4,3" opacity="0.85"/>
<circle cx="115.2" cy="331.5" r="5" fill="#d35400" opacity="0.9"><title>GPIO_0 VOH | sftt | Chip: 69627</title></circle>
<circle cx="181.7" cy="230.6" r="5" fill="#d35400" opacity="0.9"><title>GPIO_0 VOH | sftt | Chip: 69627</title></circle>
<circle cx="248.1" cy="131.3" r="5" fill="#d35400" opacity="0.9"><title>GPIO_0 VOH | sftt | Chip: 69627</title></circle>
<circle cx="314.6" cy="335.7" r="5" fill="#d35400" opacity="0.9"><title>GPIO_0 VOH | sftt | Chip: 69627</title></circle>
<circle cx="381.0" cy="234.6" r="5" fill="#d35400" opacity="0.9"><title>GPIO_0 VOH | sftt | Chip: 69627</title></circle>
<circle cx="447.4" cy="135.1" r="5" fill="#d35400" opacity="0.9"><title>GPIO_0 VOH | sftt | Chip: 69627</title></circle>
<circle cx="513.9" cy="350.9" r="5" fill="#d35400" opacity="0.9"><title>GPIO_0 VOH | sftt | Chip: 69627</title></circle>
<circle cx="580.3" cy="249.2" r="5" fill="#d35400" opacity="0.9"><title>GPIO_0 VOH | sftt | Chip: 69627</title></circle>
<circle cx="646.8" cy="148.6" r="5" fill="#d35400" opacity="0.9"><title>GPIO_0 VOH | sftt | Chip: 69627</title></circle>
</g>
<g class="series" data-skew="sftt" data-chip="76687">
<path d="M115.2,331.0 L181.7,230.4 L248.1,131.0 L314.6,337.4 L381.0,236.5 L447.4,134.2" fill="none" stroke="#16a085" stroke-width="2.0" stroke-linejoin="round" stroke-dasharray="10,3,3,3" opacity="0.85"/>
<circle cx="115.2" cy="331.0" r="5" fill="#16a085" opacity="0.9"><title>GPIO_0 VOH | sftt | Chip: 76687</title></circle>
<circle cx="181.7" cy="230.4" r="5" fill="#16a085" opacity="0.9"><title>GPIO_0 VOH | sftt | Chip: 76687</title></circle>
<circle cx="248.1" cy="131.0" r="5" fill="#16a085" opacity="0.9"><title>GPIO_0 VOH | sftt | Chip: 76687</title></circle>
<circle cx="314.6" cy="337.4" r="5" fill="#16a085" opacity="0.9"><title>GPIO_0 VOH | sftt | Chip: 76687</title></circle>
<circle cx="381.0" cy="236.5" r="5" fill="#16a085" opacity="0.9"><title>GPIO_0 VOH | sftt | Chip: 76687</title></circle>
<circle cx="447.4" cy="134.2" r="5" fill="#16a085" opacity="0.9"><title>GPIO_0 VOH | sftt | Chip: 76687</title></circle>
</g>
<g class="series" data-skew="ssff" data-chip="56508">
<path d="M115.2,328.9 L181.7,227.6 L248.1,127.5 L314.6,333.6 L381.0,231.9 L447.4,131.7 L513.9,348.8 L580.3,246.2 L646.8,145.3" fill="none" stroke="#3498db" stroke-width="2.0" stroke-linejoin="round" opacity="0.85"/>
<circle cx="115.2" cy="328.9" r="5" fill="#3498db" opacity="0.9"><title>GPIO_0 VOH | ssff | Chip: 56508</title></circle>
<circle cx="181.7" cy="227.6" r="5" fill="#3498db" opacity="0.9"><title>GPIO_0 VOH | ssff | Chip: 56508</title></circle>
<circle cx="248.1" cy="127.5" r="5" fill="#3498db" opacity="0.9"><title>GPIO_0 VOH | ssff | Chip: 56508</title></circle>
<circle cx="314.6" cy="333.6" r="5" fill="#3498db" opacity="0.9"><title>GPIO_0 VOH | ssff | Chip: 56508</title></circle>
<circle cx="381.0" cy="231.9" r="5" fill="#3498db" opacity="0.9"><title>GPIO_0 VOH | ssff | Chip: 56508</title></circle>
<circle cx="447.4" cy="131.7" r="5" fill="#3498db" opacity="0.9"><title>GPIO_0 VOH | ssff | Chip: 56508</title></circle>
<circle cx="513.9" cy="348.8" r="5" fill="#3498db" opacity="0.9"><title>GPIO_0 VOH | ssff | Chip: 56508</title></circle>
<circle cx="580.3" cy="246.2" r="5" fill="#3498db" opacity="0.9"><title>GPIO_0 VOH | ssff | Chip: 56508</title></circle>
<circle cx="646.8" cy="145.3" r="5" fill="#3498db" opacity="0.9"><title>GPIO_0 VOH | ssff | Chip: 56508</title></circle>
</g>
<g class="series" data-skew="ssff" data-chip="57571">
<path d="M115.2,344.9 L181.7,243.5 L248.1,143.7 L314.6,336.1 L381.0,234.2 L447.4,134.2 L513.9,348.8 L580.3,246.3 L646.8,145.2" fill="none" stroke="#e74c3c" stroke-width="2.0" stroke-linejoin="round" stroke-dasharray="8,3" opacity="0.85"/>
<circle cx="115.2" cy="344.9" r="5" fill="#e74c3c" opacity="0.9"><title>GPIO_0 VOH | ssff | Chip: 57571</title></circle>
<circle cx="181.7" cy="243.5" r="5" fill="#e74c3c" opacity="0.9"><title>GPIO_0 VOH | ssff | Chip: 57571</title></circle>
<circle cx="248.1" cy="143.7" r="5" fill="#e74c3c" opacity="0.9"><title>GPIO_0 VOH | ssff | Chip: 57571</title></circle>
<circle cx="314.6" cy="336.1" r="5" fill="#e74c3c" opacity="0.9"><title>GPIO_0 VOH | ssff | Chip: 57571</title></circle>
<circle cx="381.0" cy="234.2" r="5" fill="#e74c3c" opacity="0.9"><title>GPIO_0 VOH | ssff | Chip: 57571</title></circle>
<circle cx="447.4" cy="134.2" r="5" fill="#e74c3c" opacity="0.9"><title>GPIO_0 VOH | ssff | Chip: 57571</title></circle>
<circle cx="513.9" cy="348.8" r="5" fill="#e74c3c" opacity="0.9"><title>GPIO_0 VOH | ssff | Chip: 57571</title></circle>
<circle cx="580.3" cy="246.3" r="5" fill="#e74c3c" opacity="0.9"><title>GPIO_0 VOH | ssff | Chip: 57571</title></circle>
<circle cx="646.8" cy="145.2" r="5" fill="#e74c3c" opacity="0.9"><title>GPIO_0 VOH | ssff | Chip: 57571</title></circle>
</g>
<g class="series" data-skew="ssff" data-chip="96040">
<path d="M115.2,331.0 L181.7,229.4 L248.1,129.7 L314.6,335.7 L381.0,233.9 L447.4,133.9 L513.9,351.3 L580.3,248.5 L646.8,147.6" fill="none" stroke="#2ecc71" stroke-width="2.0" stroke-linejoin="round" stroke-dasharray="4,3" opacity="0.85"/>
<circle cx="115.2" cy="331.0" r="5" fill="#2ecc71" opacity="0.9"><title>GPIO_0 VOH | ssff | Chip: 96040</title></circle>
<circle cx="181.7" cy="229.4" r="5" fill="#2ecc71" opacity="0.9"><title>GPIO_0 VOH | ssff | Chip: 96040</title></circle>
<circle cx="248.1" cy="129.7" r="5" fill="#2ecc71" opacity="0.9"><title>GPIO_0 VOH | ssff | Chip: 96040</title></circle>
<circle cx="314.6" cy="335.7" r="5" fill="#2ecc71" opacity="0.9"><title>GPIO_0 VOH | ssff | Chip: 96040</title></circle>
<circle cx="381.0" cy="233.9" r="5" fill="#2ecc71" opacity="0.9"><title>GPIO_0 VOH | ssff | Chip: 96040</title></circle>
<circle cx="447.4" cy="133.9" r="5" fill="#2ecc71" opacity="0.9"><title>GPIO_0 VOH | ssff | Chip: 96040</title></circle>
<circle cx="513.9" cy="351.3" r="5" fill="#2ecc71" opacity="0.9"><title>GPIO_0 VOH | ssff | Chip: 96040</title></circle>
<circle cx="580.3" cy="248.5" r="5" fill="#2ecc71" opacity="0.9"><title>GPIO_0 VOH | ssff | Chip: 96040</title></circle>
<circle cx="646.8" cy="147.6" r="5" fill="#2ecc71" opacity="0.9"><title>GPIO_0 VOH | ssff | Chip: 96040</title></circle>
</g>
<g class="series" data-skew="sstt" data-chip="29674">
<path d="M115.2,333.2 L181.7,231.8 L248.1,131.9 L314.6,338.0 L381.0,236.1 L447.4,136.1 L513.9,352.9 L580.3,250.1 L646.8,149.1" fill="none" stroke="#9b59b6" stroke-width="2.0" stroke-linejoin="round" stroke-dasharray="10,3,3,3" opacity="0.85"/>
<circle cx="115.2" cy="333.2" r="5" fill="#9b59b6" opacity="0.9"><title>GPIO_0 VOH | sstt | Chip: 29674</title></circle>
<circle cx="181.7" cy="231.8" r="5" fill="#9b59b6" opacity="0.9"><title>GPIO_0 VOH | sstt | Chip: 29674</title></circle>
<circle cx="248.1" cy="131.9" r="5" fill="#9b59b6" opacity="0.9"><title>GPIO_0 VOH | sstt | Chip: 29674</title></circle>
<circle cx="314.6" cy="338.0" r="5" fill="#9b59b6" opacity="0.9"><title>GPIO_0 VOH | sstt | Chip: 29674</title></circle>
<circle cx="381.0" cy="236.1" r="5" fill="#9b59b6" opacity="0.9"><title>GPIO_0 VOH | sstt | Chip: 29674</title></circle>
<circle cx="447.4" cy="136.1" r="5" fill="#9b59b6" opacity="0.9"><title>GPIO_0 VOH | sstt | Chip: 29674</title></circle>
<circle cx="513.9" cy="352.9" r="5" fill="#9b59b6" opacity="0.9"><title>GPIO_0 VOH | sstt | Chip: 29674</title></circle>
<circle cx="580.3" cy="250.1" r="5" fill="#9b59b6" opacity="0.9"><title>GPIO_0 VOH | sstt | Chip: 29674</title></circle>
<circle cx="646.8" cy="149.1" r="5" fill="#9b59b6" opacity="0.9"><title>GPIO_0 VOH | sstt | Chip: 29674</title></circle>
</g>
<g class="series" data-skew="sstt" data-chip="58046">
<path d="M115.2,333.5 L181.7,232.2 L248.1,132.1 L314.6,338.2 L381.0,236.4 L447.4,136.2 L513.9,353.2 L580.3,250.5 L646.8,149.2" fill="none" stroke="#e67e22" stroke-width="2.0" stroke-linejoin="round" opacity="0.85"/>
<circle cx="115.2" cy="333.5" r="5" fill="#e67e22" opacity="0.9"><title>GPIO_0 VOH | sstt | Chip: 58046</title></circle>
<circle cx="181.7" cy="232.2" r="5" fill="#e67e22" opacity="0.9"><title>GPIO_0 VOH | sstt | Chip: 58046</title></circle>
<circle cx="248.1" cy="132.1" r="5" fill="#e67e22" opacity="0.9"><title>GPIO_0 VOH | sstt | Chip: 58046</title></circle>
<circle cx="314.6" cy="338.2" r="5" fill="#e67e22" opacity="0.9"><title>GPIO_0 VOH | sstt | Chip: 58046</title></circle>
<circle cx="381.0" cy="236.4" r="5" fill="#e67e22" opacity="0.9"><title>GPIO_0 VOH | sstt | Chip: 58046</title></circle>
<circle cx="447.4" cy="136.2" r="5" fill="#e67e22" opacity="0.9"><title>GPIO_0 VOH | sstt | Chip: 58046</title></circle>
<circle cx="513.9" cy="353.2" r="5" fill="#e67e22" opacity="0.9"><title>GPIO_0 VOH | sstt | Chip: 58046</title></circle>
<circle cx="580.3" cy="250.5" r="5" fill="#e67e22" opacity="0.9"><title>GPIO_0 VOH | sstt | Chip: 58046</title></circle>
<circle cx="646.8" cy="149.2" r="5" fill="#e67e22" opacity="0.9"><title>GPIO_0 VOH | sstt | Chip: 58046</title></circle>
</g>
<g class="series" data-skew="sstt" data-chip="9808">
<path d="M115.2,334.5 L181.7,233.1 L248.1,133.4 L314.6,338.5 L381.0,236.7 L447.4,136.7 L513.9,357.4 L580.3,254.7 L646.8,153.9" fill="none" stroke="#1abc9c" stroke-width="2.0" stroke-linejoin="round" stroke-dasharray="8,3" opacity="0.85"/>
<circle cx="115.2" cy="334.5" r="5" fill="#1abc9c" opacity="0.9"><title>GPIO_0 VOH | sstt | Chip: 9808</title></circle>
<circle cx="181.7" cy="233.1" r="5" fill="#1abc9c" opacity="0.9"><title>GPIO_0 VOH | sstt | Chip: 9808</title></circle>
<circle cx="248.1" cy="133.4" r="5" fill="#1abc9c" opacity="0.9"><title>GPIO_0 VOH | sstt | Chip: 9808</title></circle>
<circle cx="314.6" cy="338.5" r="5" fill="#1abc9c" opacity="0.9"><title>GPIO_0 VOH | sstt | Chip: 9808</title></circle>
<circle cx="381.0" cy="236.7" r="5" fill="#1abc9c" opacity="0.9"><title>GPIO_0 VOH | sstt | Chip: 9808</title></circle>
<circle cx="447.4" cy="136.7" r="5" fill="#1abc9c" opacity="0.9"><title>GPIO_0 VOH | sstt | Chip: 9808</title></circle>
<circle cx="513.9" cy="357.4" r="5" fill="#1abc9c" opacity="0.9"><title>GPIO_0 VOH | sstt | Chip: 9808</title></circle>
<circle cx="580.3" cy="254.7" r="5" fill="#1abc9c" opacity="0.9"><title>GPIO_0 VOH | sstt | Chip: 9808</title></circle>
<circle cx="646.8" cy="153.9" r="5" fill="#1abc9c" opacity="0.9"><title>GPIO_0 VOH | sstt | Chip: 9808</title></circle>
</g>
<path d="M115.2,366.1 L181.7,294.3 L248.1,222.6 L314.6,366.1 L381.0,294.3 L447.4,222.6 L513.9,366.1 L580.3,294.3 L646.8,222.6" fill="none" stroke="#e74c3c" stroke-width="2.0" stroke-dasharray="8,4" opacity="0.95"/>
<text x="685.0" y="226.6" font-size="9" font-weight="normal" text-anchor="start" fill="#e74c3c" font-family="Arial,sans-serif">VOH Min (0.75×VIO)</text>
<g class="legend-item" data-skew="ffss" data-chip="25679">
<line x1="688" y1="77" x2="716" y2="77" stroke="#3498db" stroke-width="2.0" />
<circle cx="702" cy="77" r="5" fill="#3498db"/>
<text x="720" y="81" font-size="10" font-family="Arial,sans-serif" fill="#2c3e50">25679 | ffss</text>
</g>
<g class="legend-item" data-skew="ffss" data-chip="43407">
<line x1="688" y1="99" x2="716" y2="99" stroke="#e74c3c" stroke-width="2.0" stroke-dasharray="8,3" />
<circle cx="702" cy="99" r="5" fill="#e74c3c"/>
<text x="720" y="103" font-size="10" font-family="Arial,sans-serif" fill="#2c3e50">43407 | ffss</text>
</g>
<g class="legend-item" data-skew="ffss" data-chip="79093">
<line x1="688" y1="121" x2="716" y2="121" stroke="#2ecc71" stroke-width="2.0" stroke-dasharray="4,3" />
<circle cx="702" cy="121" r="5" fill="#2ecc71"/>
<text x="720" y="125" font-size="10" font-family="Arial,sans-serif" fill="#2c3e50">79093 | ffss</text>
</g>
<g class="legend-item" data-skew="fftt" data-chip="13967">
<line x1="688" y1="143" x2="716" y2="143" stroke="#9b59b6" stroke-width="2.0" stroke-dasharray="10,3,3,3" />
<circle cx="702" cy="143" r="5" fill="#9b59b6"/>
<text x="720" y="147" font-size="10" font-family="Arial,sans-serif" fill="#2c3e50">13967 | fftt</text>
</g>
<g class="legend-item" data-skew="fftt" data-chip="15382">
<line x1="688" y1="165" x2="716" y2="165" stroke="#e67e22" stroke-width="2.0" />
<circle cx="702" cy="165" r="5" fill="#e67e22"/>
<text x="720" y="169" font-size="10" font-family="Arial,sans-serif" fill="#2c3e50">15382 | fftt</text>
</g>
<g class="legend-item" data-skew="fftt" data-chip="78814">
<line x1="688" y1="187" x2="716" y2="187" stroke="#1abc9c" stroke-width="2.0" stroke-dasharray="8,3" />
<circle cx="702" cy="187" r="5" fill="#1abc9c"/>
<text x="720" y="191" font-size="10" font-family="Arial,sans-serif" fill="#2c3e50">78814 | fftt</text>
</g>
<g class="legend-item" data-skew="fstt" data-chip="12566">
<line x1="688" y1="209" x2="716" y2="209" stroke="#c0392b" stroke-width="2.0" stroke-dasharray="4,3" />
<circle cx="702" cy="209" r="5" fill="#c0392b"/>
<text x="720" y="213" font-size="10" font-family="Arial,sans-serif" fill="#2c3e50">12566 | fstt</text>
</g>
<g class="legend-item" data-skew="fstt" data-chip="13316">
<line x1="688" y1="231" x2="716" y2="231" stroke="#2980b9" stroke-width="2.0" stroke-dasharray="10,3,3,3" />
<circle cx="702" cy="231" r="5" fill="#2980b9"/>
<text x="720" y="235" font-size="10" font-family="Arial,sans-serif" fill="#2c3e50">13316 | fstt</text>
</g>
<g class="legend-item" data-skew="fstt" data-chip="62919">
<line x1="688" y1="253" x2="716" y2="253" stroke="#27ae60" stroke-width="2.0" />
<circle cx="702" cy="253" r="5" fill="#27ae60"/>
<text x="720" y="257" font-size="10" font-family="Arial,sans-serif" fill="#2c3e50">62919 | fstt</text>
</g>
<g class="legend-item" data-skew="sftt" data-chip="44565">
<line x1="688" y1="275" x2="716" y2="275" stroke="#8e44ad" stroke-width="2.0" stroke-dasharray="8,3" />
<circle cx="702" cy="275" r="5" fill="#8e44ad"/>
<text x="720" y="279" font-size="10" font-family="Arial,sans-serif" fill="#2c3e50">44565 | sftt</text>
</g>
<g class="legend-item" data-skew="sftt" data-chip="69627">
<line x1="688" y1="297" x2="716" y2="297" stroke="#d35400" stroke-width="2.0" stroke-dasharray="4,3" />
<circle cx="702" cy="297" r="5" fill="#d35400"/>
<text x="720" y="301" font-size="10" font-family="Arial,sans-serif" fill="#2c3e50">69627 | sftt</text>
</g>
<g class="legend-item" data-skew="sftt" data-chip="76687">
<line x1="688" y1="319" x2="716" y2="319" stroke="#16a085" stroke-width="2.0" stroke-dasharray="10,3,3,3" />
<circle cx="702" cy="319" r="5" fill="#16a085"/>
<text x="720" y="323" font-size="10" font-family="Arial,sans-serif" fill="#2c3e50">76687 | sftt</text>
</g>
<g class="legend-item" data-skew="ssff" data-chip="56508">
<line x1="688" y1="341" x2="716" y2="341" stroke="#3498db" stroke-width="2.0" />
<circle cx="702" cy="341" r="5" fill="#3498db"/>
<text x="720" y="345" font-size="10" font-family="Arial,sans-serif" fill="#2c3e50">56508 | ssff</text>
</g>
<g class="legend-item" data-skew="ssff" data-chip="57571">
<line x1="688" y1="363" x2="716" y2="363" stroke="#e74c3c" stroke-width="2.0" stroke-dasharray="8,3" />
<circle cx="702" cy="363" r="5" fill="#e74c3c"/>
<text x="720" y="367" font-size="10" font-family="Arial,sans-serif" fill="#2c3e50">57571 | ssff</text>
</g>
<g class="legend-item" data-skew="ssff" data-chip="96040">
<line x1="688" y1="385" x2="716" y2="385" stroke="#2ecc71" stroke-width="2.0" stroke-dasharray="4,3" />
<circle cx="702" cy="385" r="5" fill="#2ecc71"/>
<text x="720" y="389" font-size="10" font-family="Arial,sans-serif" fill="#2c3e50">96040 | ssff</text>
</g>
<g class="legend-item" data-skew="sstt" data-chip="29674">
<line x1="688" y1="407" x2="716" y2="407" stroke="#9b59b6" stroke-width="2.0" stroke-dasharray="10,3,3,3" />
<circle cx="702" cy="407" r="5" fill="#9b59b6"/>
<text x="720" y="411" font-size="10" font-family="Arial,sans-serif" fill="#2c3e50">29674 | sstt</text>
</g>
<g class="legend-item" data-skew="sstt" data-chip="58046">
<line x1="688" y1="429" x2="716" y2="429" stroke="#e67e22" stroke-width="2.0" />
<circle cx="702" cy="429" r="5" fill="#e67e22"/>
<text x="720" y="433" font-size="10" font-family="Arial,sans-serif" fill="#2c3e50">58046 | sstt</text>
</g>
<g class="legend-item" data-skew="sstt" data-chip="9808">
<line x1="688" y1="451" x2="716" y2="451" stroke="#1abc9c" stroke-width="2.0" stroke-dasharray="8,3" />
<circle cx="702" cy="451" r="5" fill="#1abc9c"/>
<text x="720" y="455" font-size="10" font-family="Arial,sans-serif" fill="#2c3e50">9808 | sstt</text>
</g>
</svg>